<svg version="1.1" viewBox="0 0 32 32" xmlns="http://www.w3.org/2000/svg">
 <title>AntergOS</title>
 <path fill="#111" d="m16 0c-7.97 0-15.1 15.6-15.9 22.2-0.994 8.18 11.2 9.85 15.9 9.85 4.78 0 16.9-1.66 15.9-9.85-0.798-6.56-7.97-22.2-15.9-22.2zm0.699 7.38c0.789 0-0.193 2.34-2.2 5.22-1.38 1.99-3.6 4.27-5.76 5.92-0.78 0.6-1.52 1.09-1.64 1.09-0.687 0-0.76-2.82-0.127-5.01 0.441-1.52 0.479-1.56 3.04-2.92 1.42-0.758 3.45-2.04 4.5-2.84 1.05-0.807 2.03-1.46 2.18-1.46zm2.16 0.826c0.124-0.027 0.239 0.226 0.385 0.695 1.48 4.76 1.07 11.6-0.994 17l-0.471 1.2-1.92-0.018c-1.93-0.016-4.39-0.738-4.59-1.35-0.059-0.179 0.402-0.986 1.02-1.79 2.25-2.92 4.66-8.4 5.7-13 0.431-1.89 0.662-2.71 0.869-2.75zm2.87 1.52c0.065-0.078 0.394 0.17 0.978 0.746 1.74 1.71 2.74 4.21 2.74 6.88 0 1.45-0.177 2.57-0.545 3.43l-0.543 1.29-0.361-3.12c-0.3-2.61-1.23-6.37-2.24-9.04-0.037-0.098-0.045-0.16-0.023-0.186z"/>
 <!--text-here-->
</svg>
