<svg version="1.1" viewBox="0 0 32 32" xmlns="http://www.w3.org/2000/svg">
 <title>Arcolinux</title>
 <path fill="#111" d="m16 0c-8.84 0-16 7.16-16 16 0 8.84 7.16 16 16 16 8.84 0 16-7.16 16-16 0-8.84-7.16-16-16-16zm0.525 5.2 0.252 0.443c0.139 0.243 1.15 2.18 2.26 4.3 1.1 2.12 3.33 6.38 4.94 9.47 2.27 4.33 2.9 5.63 2.8 5.7-0.075 0.048-0.982 0.089-2.02 0.09h-1.88l-0.553-0.56c-1.39-1.41-3.82-2.69-6.54-3.44l-1.22-0.336 1.52-0.076c1.43-0.072 3.04-0.024 3.92 0.117 0.295 0.047 0.387 0.028 0.387-0.08 0-0.267-3.73-7.08-3.88-7.08-0.107 0-0.859 1.31-3.78 6.59-1.44 2.59-2.62 4.72-2.63 4.74-0.043 0.053-4.12 0.157-4.12 0.106 0-0.069 9.96-19 10.3-19.6z"/>
 <!--text-here-->
</svg>
