<?xml version="1.0" encoding="UTF-8"?>
<svg version="1.1" viewBox="0 0 32 32" xmlns="http://www.w3.org/2000/svg">
 <title>4MLinux</title>
 <path fill="#111" d="m16 0c-8.84 0-16 7.16-16 16s7.16 16 16 16 16-7.16 16-16-7.16-16-16-16zm0.00977 9.44 0.166 0.279c0.746 1.25 1.33 3.07 1.48 4.6l0.0293 0.307-0.17 0.314c-0.678 1.26-1.18 2.7-1.42 4.08-0.0363 0.21-0.0751 0.368-0.0918 0.391v0.00195h-0.00195-0.00195v-0.00195l-0.00195-0.00195v-0.00195c-6.14e-4 -0.00278-0.00167-0.00697-0.00195-0.0117l0.00195-0.00586c-9.2e-4 -0.0154-0.0352-0.213-0.0762-0.439-0.244-1.35-0.762-2.83-1.41-4.01l-0.178-0.326 0.0391-0.332c0.125-1.08 0.406-2.2 0.797-3.18 0.161-0.403 0.475-1.04 0.68-1.39l0.16-0.27zm-5.69 1.28h0.00195 0.00195 0.00195 0.00195c0.0683 0.0133 0.468 0.293 0.836 0.586 1.56 1.24 2.91 3.13 3.73 5.18 0.453 1.14 0.723 2.23 0.863 3.49 0.0407 0.364 0.0437 1.92 0.00391 1.99-0.00223 0.00382-0.00536 0.00924-0.00781 0.0117h-0.00195l-0.00195 0.00195h-0.00195l-0.00195 0.00195h-0.00195-0.00195-0.00195l-0.00195-0.00195c-0.0281-0.00746-0.081-0.0723-0.217-0.252l-0.00781 0.00976c-0.362-0.481-0.614-0.769-1.07-1.23-0.601-0.6-1.22-1.11-1.92-1.58l-0.254-0.17-0.193-0.32c-0.464-0.772-0.957-1.87-1.25-2.79-0.434-1.34-0.617-2.57-0.586-3.94 0.017-0.734 0.0343-0.945 0.0762-0.982h0.00195l0.00195-0.00195 0.00195-0.00195zm11.4 0.00586 0.00195 0.00195h0.00195 0.00195l0.00195 0.00195h0.00195v0.00195h0.00195c0.0266 0.0278 0.0425 0.165 0.0723 0.572 0.0471 0.646 0.022 1.35-0.0762 2.13-0.216 1.7-0.865 3.54-1.79 5.05l-0.176 0.289-0.273 0.184c-0.673 0.451-1.2 0.878-1.79 1.46-0.47 0.461-0.783 0.812-1.14 1.28-0.131 0.173-0.247 0.316-0.258 0.32h-0.00195l-0.00195-0.00195v-0.00195c-0.011-0.0185-0.0261-0.11-0.0352-0.223l0.00195-0.00391c-0.0316-0.389-0.0182-1.33 0.0254-1.79 0.294-3.06 1.83-6.18 4.05-8.21 0.463-0.424 1.28-1.05 1.38-1.06zm3.63 2.6c0.0157 0 0.0306-0.0012 0.0391 0.00195l0.00195 0.00195h0.00195v0.00195h0.00195v0.00195l0.00195 0.00195v0.00195l0.00195 0.00195v0.00195c0.00708 0.034-0.0214 0.134-0.102 0.422-0.261 0.938-0.669 1.87-1.22 2.78-0.246 0.409-0.303 0.482-0.396 0.504-0.038 0.0091-0.244 0.0682-0.457 0.131-0.805 0.239-1.62 0.569-2.41 0.977-0.207 0.107-0.381 0.191-0.436 0.213-0.00407 0.00828-0.00726 0.0143-0.00781 0.0156l-0.00781-0.00976c0.0029-6.85e-4 0.00905-0.00324 0.0156-0.00586 0.0316-0.0641 0.163-0.327 0.316-0.633 0.444-0.883 0.784-1.76 0.992-2.56l0.0703-0.271 0.203-0.131c0.67-0.43 1.49-0.832 2.24-1.11 0.376-0.136 1.06-0.338 1.15-0.338zm-18.7 0.00781c0.0521-0.015 0.528 0.112 0.951 0.254 0.814 0.273 1.64 0.668 2.42 1.15 0.235 0.147 0.257 0.167 0.281 0.26 0.233 0.925 0.6 1.88 1.1 2.86 0.146 0.287 0.262 0.525 0.256 0.529-0.0056 0.0046-0.112-0.0472-0.236-0.115l-0.00195-0.00195c-0.842-0.459-1.95-0.908-2.85-1.15l-0.312-0.084-0.137-0.213c-0.646-1-1.17-2.19-1.44-3.26-0.0254-0.102-0.04-0.195-0.0371-0.223v-0.00195-0.00195l0.00195-0.00195h0.00195v-0.00195zm20.4 3.63c0.506 0.0154 0.896 0.0492 0.947 0.0781h0.00195l0.00195 0.00195v0.00195l0.00195 0.00195v0.00195c0.0054 0.0417-0.095 0.196-0.332 0.512-0.343 0.457-0.554 0.705-0.936 1.1-2 2.06-4.87 3.46-7.79 3.81-0.671 0.0797-1.34 0.107-1.79 0.0723l-0.0117-0.0156c-0.321-0.0244-0.681-0.0695-0.701-0.0879v-0.00195h-0.00195v-0.00195-0.00195c-0.00255-0.0591 0.262-0.444 0.588-0.852 0.301-0.377 0.941-1.04 1.33-1.38 2.4-2.11 5.69-3.33 8.69-3.24zm-22.8 0.0293c0.413-0.049 1.66-0.0407 2.13 0.0137 1.55 0.178 2.91 0.575 4.32 1.26 1.02 0.495 1.88 1.05 2.75 1.77 0.386 0.321 1.13 1.07 1.44 1.45 0.249 0.306 0.69 0.908 0.691 0.943v0.00195 0.00195l-0.00195 0.00195v0.00195c-6.42e-4 5.94e-4 -0.00506 0.00331-0.00586 0.00391-0.117 0.072-1.39 0.131-1.91 0.084l0.00195-0.00586c-0.378-0.034-0.912-0.101-1.23-0.154-3.31-0.556-6.51-2.5-8.26-5.03-0.0955-0.138-0.185-0.259-0.199-0.268-0.00422-0.00289-0.0091-0.00915-0.0117-0.0117l-0.00195-0.00195v-0.00195h-0.00195v-0.00195-0.00195-0.00195l0.00586-0.00586c0.0205-0.0144 0.1-0.027 0.285-0.0488z"/>
 <!--text-here-->
</svg>
