<svg version="1.1" viewBox="0 0 32 32" xml:space="preserve" xmlns="http://www.w3.org/2000/svg"><title>Windows</title><path d="m16 0c-8.86 0-16 7.14-16 16s7.14 16 16 16 16-7.14 16-16-7.14-16-16-16zm0.0215 10.6 0.141 0.232c0.622 1.04 1.11 2.56 1.23 3.83l0.0254 0.256-0.143 0.262c-0.565 1.05-0.981 2.25-1.18 3.4-0.0291 0.168-0.0615 0.298-0.0762 0.324v0.00195h-0.00195-0.00195l-0.00195-0.00195v-0.00195c-5.13e-4 -0.00233-0.00171-0.0058-0.00195-0.00976-7.67e-4 -0.0128-0.0284-0.178-0.0625-0.367-0.203-1.13-0.635-2.36-1.17-3.35l-0.148-0.271 0.0312-0.275c0.104-0.902 0.34-1.84 0.666-2.65 0.134-0.336 0.394-0.869 0.564-1.16l0.133-0.225zm4.75 1.07h0.00195l0.00195 0.00195h0.00195 0.00195l0.00195 0.00195 0.00391 0.00391c0.0208 0.0287 0.0347 0.147 0.0586 0.475 0.0392 0.538 0.0174 1.13-0.0645 1.77-0.18 1.42-0.722 2.95-1.49 4.21l-0.145 0.24-0.229 0.152c-0.561 0.376-0.997 0.734-1.49 1.22-0.392 0.384-0.651 0.675-0.947 1.07-0.109 0.144-0.207 0.264-0.217 0.268h-0.00195v-0.00195c-0.00917-0.0154-0.0217-0.092-0.0293-0.186-0.0264-0.324-0.0149-1.11 0.0215-1.49 0.245-2.55 1.53-5.15 3.37-6.84 0.383-0.35 1.06-0.871 1.15-0.887zm-9.5 0.00781h0.00195 0.00195 0.00195 0.00195c0.0569 0.0111 0.389 0.242 0.695 0.486 1.3 1.04 2.43 2.61 3.11 4.32 0.377 0.948 0.604 1.86 0.721 2.91 0.0339 0.304 0.037 1.6 0.00391 1.66-0.00186 0.00319-0.00577 0.0077-0.00781 0.00976h-0.00195-0.00195v0.00195h-0.00195-0.00195-0.00195-0.00195-0.00195c-0.00102-2.71e-4 -0.00476-0.00345-0.00586-0.00391-0.025-0.0137-0.0726-0.0701-0.176-0.207-0.302-0.401-0.51-0.641-0.893-1.02-0.5-0.5-1.02-0.925-1.6-1.32l-0.211-0.141-0.16-0.27c-0.387-0.643-0.799-1.56-1.05-2.32-0.362-1.12-0.513-2.14-0.486-3.28 0.0142-0.611 0.0276-0.786 0.0625-0.818h0.00195l0.00195-0.00195zm12.5 2.17c0.0131 0 0.0262 0.00127 0.0332 0.00391h0.00195v0.00195h0.00195l0.00195 0.00195v0.00195 0.00195l0.00195 0.00195v0.00195c0.0059 0.0284-0.0192 0.111-0.0859 0.352-0.217 0.782-0.556 1.56-1.01 2.32-0.205 0.341-0.253 0.401-0.33 0.42-0.0317 0.0076-0.203 0.0567-0.381 0.109-0.671 0.199-1.35 0.474-2.01 0.814-0.211 0.109-0.381 0.191-0.377 0.182 4e-3 -0.0093 0.125-0.252 0.27-0.539 0.37-0.736 0.653-1.47 0.826-2.13l0.0586-0.229 0.17-0.107c0.558-0.358 1.24-0.694 1.87-0.922 0.313-0.114 0.886-0.283 0.961-0.283zm-15.6 0.00391h0.00195 0.00195 0.00195c0.0636-0.00484 0.447 0.0965 0.789 0.211 0.678 0.227 1.37 0.556 2.02 0.959 0.196 0.122 0.215 0.14 0.234 0.217 0.194 0.771 0.5 1.57 0.914 2.38 0.122 0.239 0.218 0.438 0.213 0.441-0.0047 0.0038-0.0937-0.0393-0.197-0.0957-0.702-0.382-1.63-0.757-2.37-0.959l-0.26-0.0703-0.113-0.178c-0.538-0.834-0.979-1.83-1.2-2.71-0.0211-0.0843-0.0337-0.163-0.0312-0.186v-0.00195h0.00195v-0.00195l0.00195-0.00195zm17 3.02c0.421 0.0129 0.749 0.0403 0.791 0.0645h0.00195v0.00195l0.00195 0.00195v0.00195 0.00195 0.00195c0.00148 0.0373-0.0811 0.165-0.275 0.424-0.285 0.38-0.461 0.586-0.779 0.914-1.67 1.72-4.06 2.88-6.5 3.17-0.559 0.0664-1.12 0.0892-1.5 0.0605-0.268-0.0203-0.567-0.0569-0.584-0.0723h-0.00195v-0.00195-0.00195-0.00195-0.00195c0.00499-0.0571 0.223-0.373 0.49-0.707 0.251-0.314 0.783-0.868 1.11-1.15 2-1.76 4.74-2.78 7.24-2.7zm-19 0.0293c0.344-0.0408 1.38-0.0336 1.78 0.0117 1.29 0.148 2.43 0.478 3.6 1.05 0.851 0.412 1.57 0.874 2.29 1.47 0.322 0.267 0.944 0.893 1.2 1.21 0.208 0.255 0.578 0.759 0.578 0.787v0.00195l-0.00781 0.00781c-0.0972 0.06-1.16 0.109-1.59 0.0703-0.315-0.0283-0.761-0.0845-1.03-0.129-2.76-0.463-5.42-2.08-6.88-4.19-0.0796-0.115-0.154-0.217-0.166-0.225-0.00235-0.0016-0.00604-0.00438-0.00781-0.00586l-0.00391-0.00391v-0.00195h-0.00195v-0.00195-0.00195l0.00195-0.00195v-0.00195h0.00195v-0.00195h0.00195l0.00195-0.00195c0.0208-0.0113 0.0879-0.0217 0.234-0.0391z"/></svg>
