<svg version="1.1" viewBox="0 0 32 32" xmlns="http://www.w3.org/2000/svg">
 <title>Cancel</title>
 <path fill="#111" d="m16 0c-8.84 0-16 7.16-16 16s7.16 16 16 16 16-7.16 16-16-7.16-16-16-16zm-2.17 9.96c0.668 0 1.21 0.541 1.21 1.21 0 0.311-0.158 0.638-0.379 0.869l-1.55 1.55h6.16c2.33 0.01 4.22 1.9 4.23 4.23 0 2.32-1.91 4.23-4.23 4.23h-0.604c-0.668 1e-3 -1.21-0.541-1.21-1.21-1e-3 -0.669 0.542-1.21 1.21-1.21 0.195 1e-3 0.405 4e-3 0.604 2e-3 1.02 0 1.81-0.797 1.81-1.81 0-1.02-0.799-1.82-1.81-1.82h-6.16l1.55 1.55c0.221 0.231 0.379 0.558 0.379 0.869-0 0.668-0.541 1.21-1.21 1.21-0.375 0-0.669-0.11-0.908-0.34l-4.42-4.5 4.42-4.5c0.239-0.23 0.533-0.34 0.908-0.34z"/>
</svg>
