<svg version="1.1" viewBox="0 0 32 32" xmlns="http://www.w3.org/2000/svg">
 <title>CentOS</title>
 <path fill="#111" d="m16 0a16 16 0 0 0-16 16 16 16 0 0 0 16 16 16 16 0 0 0 16-16 16 16 0 0 0-16-16zm-0.012 3.85a0.15 0.15 0 0 1 0.119 0.037l3.47 3.48h4.91a0.15 0.15 0 0 1 0.146 0.148v4.91l3.47 3.47a0.15 0.15 0 0 1 0 0.215l-3.47 3.47v4.91a0.15 0.15 0 0 1-0.146 0.146h-4.91l-3.47 3.47a0.15 0.15 0 0 1-0.215 0l-3.47-3.47h-4.91a0.15 0.15 0 0 1-0.149-0.147v-4.91l-3.48-3.47a0.15 0.15 0 0 1 0-0.215l3.48-3.47v-4.9a0.15 0.15 0 0 1 0.149-0.149h4.9l3.47-3.48a0.15 0.15 0 0 1 0.096-0.037zm0.016 1.11-2.41 2.41h1.88a0.15 0.15 0 0 1 0.146 0.148v6.4l0.377 0.377 0.385-0.385v-6.39a0.15 0.15 0 0 1 0.146-0.149h1.88zm-7.81 3.23v3.4l1.33-1.33a0.15 0.15 0 0 1 0.096-0.043 0.15 0.15 0 0 1 0.109 0.043l4.52 4.52h0.539v-0.539l-4.52-4.52a0.15 0.15 0 0 1 0-0.205l1.33-1.33zm4.57 0-1.44 1.43 3.45 3.45v-4.89zm4.44 0v4.89l3.46-3.46-1.43-1.43zm3.2 0 1.33 1.33a0.15 0.15 0 0 1 0 0.205l-4.52 4.52v0.531h0.547l4.52-4.52a0.15 0.15 0 0 1 0.096-0.043 0.15 0.15 0 0 1 0.111 0.043l1.33 1.33v-3.4zm-10.8 3.14-1.43 1.43v2.01h4.88zm12.7 0-3.45 3.45h4.88v-2.02zm2.26 2.26v1.88a0.15 0.15 0 0 1-0.146 0.146h-6.39l-0.385 0.385 0.377 0.377h6.4a0.15 0.15 0 0 1 0.146 0.146v1.88l2.41-2.41zm-17.3 4e-3 -2.41 2.41 2.41 2.41v-1.88a0.15 0.15 0 0 1 0-0.021 0.15 0.15 0 0 1 0.125-0.125 0.15 0.15 0 0 1 0.023 0h6.4l0.377-0.377-0.385-0.385h-6.39a0.15 0.15 0 0 1-0.149-0.146zm8.25 1.48v0.393a0.15 0.15 0 0 1-0.146 0.146h-0.393l0.273 0.273a0.15 0.15 0 0 1 0 0.215l-0.273 0.273h0.393a0.15 0.15 0 0 1 0.146 0.146v0.393l0.273-0.273a0.15 0.15 0 0 1 0.096-0.045 0.15 0.15 0 0 1 0.119 0.045l0.273 0.273v-0.393a0.15 0.15 0 0 1 0-0.021 0.15 0.15 0 0 1 0.021-0.059 0.15 0.15 0 0 1 0.111-0.066 0.15 0.15 0 0 1 0.014 0h0.393l-0.273-0.273a0.15 0.15 0 0 1 0-0.215l0.273-0.273h-0.393a0.15 0.15 0 0 1-0.146-0.146v-0.393l-0.273 0.273a0.15 0.15 0 0 1-0.215 0zm-7.43 2.13v2.03l1.43 1.43 3.46-3.46zm6.06 0-4.52 4.52a0.15 0.15 0 0 1-0.102 0.045 0.15 0.15 0 0 1-0.104-0.045l-1.33-1.33v3.4h3.4l-1.33-1.33a0.15 0.15 0 0 1 0-0.207l4.52-4.52v-0.547zm2.95 0v0.539l4.52 4.52a0.15 0.15 0 0 1 0 0.207l-1.33 1.33h3.4v-3.4l-1.33 1.33a0.15 0.15 0 0 1-0.207 0l-4.52-4.52zm1.7 0 3.46 3.46 1.43-1.44v-2.03zm-2.92 0.502-0.377 0.377v6.4a0.15 0.15 0 0 1-0.146 0.146h-1.88l2.41 2.41 2.41-2.41h-1.88a0.15 0.15 0 0 1-0.146-0.146v-6.39zm1.21 1.21v4.89h2.03l1.44-1.43zm-2.42 2e-3 -3.45 3.46 1.43 1.43h2.02z"/>
 <!--text-here-->
</svg>
