<svg version="1.1" viewBox="0 0 32 32" xmlns="http://www.w3.org/2000/svg">
 <title>Chakra</title>
 <path fill="#111" d="m16 0a16 16 0 0 0-16 16 16 16 0 0 0 16 16 16 16 0 0 0 16-16 16 16 0 0 0-16-16zm0.443 6.77a0.943 0.943 0 0 1 0.236 0.027c3 0.67 3.52-1.21 4.52 1.8 1.02 3.05-0.124 9.28-5.1 7.94 5.96 0.661-1.78-9.71 0.334-9.78zm-5.93 1.44h2e-3c3.3 4e-3 9.05 2.98 6.2 7.16 2.57-5.47-10.9-1.09-9.37-3.54 1.58-2.56-0.102-3.63 3.17-3.62zm2.3 4.68v2e-3c1.02 2e-3 2.04 0.449 2.95 1.55-4.56-4.06-4.43 9.71-6.36 7.56-2.02-2.25-3.58-1.03-2.57-4.04 0.735-2.19 3.37-5.07 5.98-5.07zm11.3 0.488c0.199 0.018 0.323 0.159 0.35 0.471 0.271 2.98 2.28 2.88-0.369 4.74-2.67 1.88-9.13 2.75-9.35-2.25 1.1 5.25 7.75-3.08 9.37-2.96zm-9.59 1.66c-5.39 2.96 8.14 7.1 5.44 8.21-2.83 1.16-2.11 2.99-4.75 1.12-2.67-1.88-5.52-7.57-0.688-9.33z"/>
 <!--text-here-->
</svg>
