<svg version="1.1" viewBox="0 0 32 32" xmlns="http://www.w3.org/2000/svg">
 <title>Deepin</title>
 <path fill="#111" d="m16 0a16 16 0 0 0-16 16 16 16 0 0 0 16 16 16 16 0 0 0 16-16 16 16 0 0 0-16-16zm-0.602 7.68c0.336-4e-3 0.814 0 1.44 0 1.76 0 2.15 0.031 2.15 0.111 0 0.056-0.461 0.407-0.998 0.816-1.75 1.32-2.65 2.3-3.33 3.66-0.233 0.464-0.471 1.29-0.482 1.56-2e-3 0.148 0.202 0.013 0.412-0.26 0.282-0.374 0.386-0.68 0.557-1.37 0.121-0.499 0.176-0.54 0.557-0.854 0.428-0.347 0.882-0.606 1.67-0.926 0.847-0.343 1.57-0.481 3-0.555 0.82-0.045 1.77-0.141 2.44-0.262 0.609-0.103 1.17-0.167 1.22-0.146 0.249 0.096 0.26 0.605 0.26 6.52v6.03c0 1.28-1.02 2.23-2.44 2.23l-4.48 0.035c-2.62 0.013-4.78-8e-3 -4.81-0.035-0.108-0.108-0.028-0.191 0.406-0.408 1.24-0.627 3.41-2.06 4.67-3.11 2.83-2.36 3.48-4.72 2.11-7.62-0.217-0.461-1.17-1.6-1.26-1.52-0.013 0.016 0.123 0.242 0.26 0.518 0.387 0.757 0.521 1.52 0.521 2.48-4e-3 1.44-0.344 2.38-1.26 3.29-0.652 0.654-1.43 1.03-2.48 1.26-0.643 0.141-0.956 0.188-2.63 0.188s-1.96-0.042-2.67-0.188c-0.931-0.19-2.07-0.531-2.34-0.699l-0.186-0.114v-4.11c0-3.9 0.01-4.11 0.148-4.55 0.215-0.688 0.895-1.54 1.07-1.33 0.075 0.266 0.122 0.539 0.145 0.814 0.251 2.11 1.24 4.76 2.22 6.07 0.694 0.921 1.91 1.86 2.89 2.18 0.383 0.125 0.577 0.132 1.07 0.109 0.739-0.034 1.28-0.24 1.78-0.699 0.379-0.349 0.849-1.24 1.04-1.96 0.226-0.878 0.141-2.65-0.186-3.4-0.085-0.195-0.108-0.059-0.146 1.07-0.067 1.79-0.337 2.61-1.07 3.4-0.82 0.88-1.8 0.98-2.59 0.223-0.665-0.623-1.01-1.46-1.11-2.74-0.099-1.2 0.382-3.23 1.07-4.62 0.428-0.871 0.359-1.05 1.37-1.08zm1.44 3.48c-0.215 0-0.637 0.26-0.662 0.412-0.246 1.32-0.728 2.48-1.19 2.89-0.275 0.24-0.37 0.267-0.594 0.148-0.112-0.063-0.145-0.059-0.145 0.035 0.039 0.269 0.169 0.517 0.369 0.701 0.291 0.208 0.696 0.103 1.07-0.293 0.531-0.56 0.952-1.5 1.11-2.67 0.15-1.11 0.147-1.22 0.035-1.22z"/>
 <!--text-here-->
</svg>
