<svg version="1.1" viewBox="0 0 32 32" xmlns="http://www.w3.org/2000/svg">
 <title>Devuan</title>
 <path fill="#111" d="m16 0c-8.86 0-16 7.14-16 16s7.14 16 16 16 16-7.14 16-16-7.14-16-16-16zm-8.61 7.35c6.6 1.08 6.65 1.2 9.06 1.9 2.41 0.703 4.16 1.36 5.57 2.24s2.17 1.61 2.58 2.53c0.41 0.916 0.371 1.81-0.02 2.67s-1.09 1.57-2.52 2.51c-1.43 0.932-3.44 2.16-5.62 3.08s-6.13 2.41-7.46 2.45c-1.33 0.034-1.68-0.705-1.79-1.13s-0.303-1.44 0.73-2.1c1.03-0.662 3.88-1.08 5.83-1.79s4.48-1.58 5.84-2.45 2-1.45 2.12-2.52-0.261-1.96-1.5-2.78-2.37-1.35-4.51-2.12c-2.14-0.768-3.61-1.37-8.31-2.47z"/>
 <!--text-here-->
</svg>
