<svg version="1.1" viewBox="0 0 32 32" xmlns="http://www.w3.org/2000/svg">
 <title>Edit</title>
 <path fill="#111" d="m16 0c-8.84 0-16 7.16-16 16s7.16 16 16 16 16-7.16 16-16-7.16-16-16-16zm0 7.5a2.27 2.27 0 0 1 2.27 2.27h3.4c0.628 0 1.14 0.505 1.14 1.13v12.5c0 0.628-0.507 1.13-1.14 1.13h-11.3c-0.628-1e-3 -1.14-0.506-1.14-1.13v-12.5c-0-0.628 0.507-1.13 1.14-1.13h3.4a2.27 2.27 0 0 1 2.27-2.27zm0 1.13a1.13 1.13 0 0 0-1.13 1.14 1.13 1.13 0 0 0 1.13 1.13 1.13 1.13 0 0 0 1.13-1.13 1.13 1.13 0 0 0-1.13-1.14zm-4.53 3.4v10.2h9.07v-10.2h-1.13v1.13h-6.8v-1.13z"/>
</svg>
