<svg version="1.1" viewBox="0 0 32 32" xmlns="http://www.w3.org/2000/svg">
 <title>EFI/BIOS Firmware</title>
 <path fill="#111" d="m16 0c-8.84 0-16 7.16-16 16s7.16 16 16 16 16-7.16 16-16-7.16-16-16-16zm-2 8h4l0.172 2.11a6.29 6.29 0 0 1 1.85 1.05l1.91-0.902 2 3.47-1.74 1.2a6.29 6.29 0 0 1 0.092 1.06 6.29 6.29 0 0 1-0.092 1.06l1.74 1.2-2 3.47-1.92-0.902a6.29 6.29 0 0 1-1.84 1.06l-0.172 2.1h-4l-0.172-2.12a6.29 6.29 0 0 1-1.85-1.05l-1.91 0.902-2-3.47 1.74-1.2a6.29 6.29 0 0 1-0.09-1.06 6.29 6.29 0 0 1 0.09-1.06l-1.74-1.2 2-3.47 1.92 0.902a6.29 6.29 0 0 1 1.84-1.06zm1.97 5.72a2.29 2.29 0 0 0-2.25 2.28 2.29 2.29 0 0 0 2.28 2.28 2.29 2.29 0 0 0 2.28-2.28 2.29 2.29 0 0 0-2.28-2.28 2.29 2.29 0 0 0-0.031 0z"/>
 <!--text-here-->
</svg>
