<svg version="1.1" viewBox="0 0 32 32" xmlns="http://www.w3.org/2000/svg">
 <title>GamerOS</title>
 <path d="m16 0a16 16 0 0 0-16 16 16 16 0 0 0 16 16 16 16 0 0 0 16-16 16 16 0 0 0-16-16zm-4e-3 4c3.31 0 6.32 1.34 8.49 3.51a0.8 0.8 0 0 1 0 1.13 0.8 0.8 0 0 1-1.13 0c-1.88-1.88-4.48-3.04-7.36-3.04-5.76 0-10.4 4.63-10.4 10.4s4.64 10.4 10.4 10.4c5.49 0 9.95-4.22 10.4-9.6h-8.76c-0.443 0-0.801-0.356-0.801-0.799s0.358-0.801 0.801-0.801h9.56a0.8 0.8 0 0 1 0.037-2e-3 0.8 0.8 0 0 1 0.311 0.064 0.8 0.8 0 0 1 0.256 0.172 0.8 0.8 0 0 1 0.17 0.254 0.8 0.8 0 0 1 0.065 0.312c0 6.63-5.38 12-12 12s-12-5.38-12-12 5.37-12 12-12zm4e-3 2.4c0.443 0 0.799 0.356 0.799 0.799v7.2c0 0.443-0.356 0.801-0.799 0.801s-0.801-0.358-0.801-0.801v-7.2c0-0.443 0.358-0.799 0.801-0.799zm-8.8 8.8h7.2c0.443 0 0.801 0.358 0.801 0.801s-0.358 0.799-0.801 0.799h-7.2c-0.443 0-0.799-0.356-0.799-0.799s0.356-0.801 0.799-0.801zm8.8 1.6c0.443 0 0.799 0.358 0.799 0.801v7.2c0 0.443-0.356 0.799-0.799 0.799s-0.801-0.356-0.801-0.799v-7.2c0-0.443 0.358-0.801 0.801-0.801z" fill="#111"/>
 <!--text-here-->
</svg>
