<svg version="1.1" viewBox="0 0 32 32" xmlns="http://www.w3.org/2000/svg">
 <title>GNU-Linux</title>
 <path fill="#111" d="m16 0c-8.84-0-16 7.16-16 16s7.16 16 16 16 16-7.16 16-16-7.16-16-16-16zm0.414 3.95h0.016c1.88 3e-3 3.18 1.18 3.65 2.46 0.47 1.26 0.43 2.57 0.416 3.51 7e-3 0.309 0.016 0.509 0.023 0.633 0.09 0.605 0.481 1.13 1.07 1.87 0.636 0.754 1.49 1.86 2.01 3.24 0.346 0.915 0.442 1.98 0.26 3.08 0.419 0.463 0.606 0.995 0.672 1.28 0.048 0.207 0.126 0.365 0.129 0.396v2e-3h-2e-3v2e-3h-2e-3v-2e-3h-4e-3l-2e-3 -2e-3c-0.012-9e-3 -0.035-0.034-0.074-0.078 0.047 0.054 0.089 0.112 0.125 0.174 0.438 0.516 0.79 1.06 0.75 1.76-0.047 0.815-0.651 1.32-1.06 1.57-0.793 0.478-1.49 0.724-1.75 1.04-3e-3 3e-3 -5e-3 6e-3 -8e-3 0.01l-2e-3 2e-3c-0.074 0.087-0.162 0.162-0.26 0.221-0.674 0.697-1.48 1.19-2.38 1.26-0.91 0.072-1.81-0.423-2.37-1.23-0.029-2e-3 -0.04-3e-3 -0.068-6e-3l0.01 0.016s-0.01-0.013-0.012-0.016c-0.593-0.052-1.29-0.121-1.44-0.109-9e-3 1e-3 -0.018 1e-3 -0.027 2e-3 -0.543 0.03-0.967 0.133-1.46 0.199-0.363 0.403-0.804 0.722-1.31 0.838-0.974 0.223-1.99-6e-3 -2.95-0.506-2e-3 -1e-3 -4e-3 -3e-3 -6e-3 -4e-3 -0.384-0.203-1.16-0.206-2.07-0.396-0.464-0.097-1.16-0.336-1.52-1.04v-2e-3c-0.233-0.977-0.136-1.75-0.049-2.41-0.024-0.158-0.059-0.368-0.059-0.631 0-0.277 0.049-0.636 0.234-0.986v-6e-3h2e-3v-2e-3c0.044-0.082 0.099-0.157 0.162-0.225 0.353-0.486 0.851-0.743 1.15-0.85h2e-3c0.214-0.077 0.299-0.121 0.307-0.115 0.051-0.063 0.2-0.256 0.369-0.465-0.01-0.686 0.04-1.37 0.25-2 0.566-1.7 1.65-3.16 2.45-4.12 5e-3 -6e-3 0.01-0.015 0.016-0.023 0.517-0.743 0.622-1.19 0.68-1.99v-0.053-6e-3c-2e-3 -0.084-6e-3 -0.204-0.012-0.348-2e-3 -0.037-1e-3 -0.026 0-0.018v-6e-3 -6e-3 -4e-3 -2e-3c-0.045-0.742-0.203-1.98 0.173-3.24 0.379-1.26 1.59-2.51 3.5-2.66h2e-3c0.159-0.013 0.318-0.022 0.48-0.022zm0.012 1.06c-0.13-0-0.266 6e-3 -0.408 0.018-3.16 0.255-2.8 3.23-2.7 4.8v0.01c6e-3 0.158 0.011 0.286 0.014 0.391v6e-3c1e-3 0.056 0 0.095 0 0.141-0.066 0.923-0.255 1.65-0.889 2.56-2e-3 3e-3 -4e-3 5e-3 -6e-3 8e-3 -0.749 0.891-1.8 2.33-2.3 3.83-0.222 0.666-0.331 1.34-0.258 1.99-3e-3 0.074-0.01 0.125-0.02 0.156-0.02 0.019-0.039 0.038-0.059 0.059-0.22 0.235-0.383 0.519-0.564 0.711-0.169 0.169-0.411 0.233-0.676 0.328s-0.556 0.235-0.732 0.574l-2e-3 2e-3c-0.083 0.155-0.109 0.322-0.109 0.492 0 0.157 0.023 0.318 0.047 0.471 0.049 0.319 0.099 0.62 0.033 0.824-0.21 0.574-0.238 0.97-0.09 1.26s0.453 0.414 0.797 0.486c0.688 0.143 1.62 0.109 2.35 0.498 0.786 0.411 1.58 0.557 2.22 0.412 0.449-0.102 0.815-0.366 1.01-0.77 0.017-0.016 0.039-0.027 0.066-0.035 0.484-0.015 1.02-0.211 1.87-0.258 0.591-0.048 1.33 0.207 2.18 0.162l0.012 2e-3c0.022 0.092 0.054 0.179 0.098 0.264v2e-3l2e-3 2e-3c0.33 0.661 0.943 0.962 1.6 0.91s1.35-0.438 1.91-1.11l-0.012-0.012 0.014 0.01c0.537-0.651 1.43-0.919 2.02-1.28 0.295-0.178 0.534-0.401 0.553-0.725 0.018-0.324-0.172-0.687-0.609-1.17v-2e-3c-0.146-0.163-0.214-0.464-0.288-0.784-0.073-0.32-0.155-0.665-0.418-0.889l-2e-3 -2e-3c-0.052-0.045-0.106-0.083-0.16-0.115-0.04-0.023-0.079-0.041-0.119-0.059-4e-3 -4e-3 -0.01-8e-3 -0.014-0.012l-8e-3 -8e-3c-6e-3 -8e-3 -9e-3 -0.016-0.012-0.023-0-1e-3 -2e-3 -4e-3 -2e-3 -6e-3v-2e-3c0.353-1.07 0.209-2.14-0.156-3.1-0.452-1.2-1.24-2.24-1.85-2.95-0.584-0.737-1.16-1.44-1.29-2.39-0.011-0.151-0.021-0.401-0.029-0.748 0.026-1.87 0.047-4.92-3.01-4.93zm0.428 2.81h8e-3c0.182 0 0.338 0.056 0.498 0.172 0.162 0.118 0.279 0.263 0.373 0.469 0.092 0.201 0.136 0.398 0.141 0.631 0 6e-3 0 0.011 2e-3 0.018 2e-3 0.239-0.038 0.443-0.129 0.65-0.037 0.085-0.086 0.151-0.133 0.219 0.206 0.103 0.39 0.198 0.498 0.385 0.129 0.223 0.14 0.445 0.014 0.664-0.105 0.183-0.241 0.332-0.424 0.48 0.183 0.188 0.324 0.422 0.391 0.717 0.275 1.21 0.801 1.88 1.26 2.73 0.243 0.451 0.727 1.41 0.936 2.56 0.1 0.488-0.382 0.404-0.531 0.918-7e-3 0.036-0.013 0.074-0.018 0.111-0.058 0.02-0.115 0.046-0.174 0.078-0.365 0.2-0.565 0.561-0.676 1.01-0.111 0.444-0.142 0.98-0.172 1.58v2e-3c-0.019 0.303-0.145 0.714-0.271 1.15-1.27 0.909-3.04 1.3-4.54 0.277-0.102-0.161-0.218-0.321-0.338-0.479-0.077-0.1-0.156-0.198-0.234-0.297 0.154 0 0.285-0.026 0.391-0.074 0.132-0.06 0.224-0.154 0.27-0.277 0.091-0.246-0-0.594-0.293-0.99s-0.789-0.844-1.52-1.29c-0.219-0.149-0.348-0.501-0.355-0.834 0.023-0.82 0.218-1.66 0.547-2.44 0.479-1.09 1.44-2.07 1.5-3.57 9e-3 -0.237 0.106-0.449 0.256-0.637l-6e-3 -6e-3c-0.377-0.213-0.614-0.467-0.701-0.752-0.083-0.276 0.024-0.6 0.258-0.775 0.139-0.105 0.219-0.164 0.301-0.225-0.066-0.074-0.128-0.146-0.175-0.255-0.077-0.174-0.119-0.348-0.131-0.554v-2e-3c-0.011-0.206 8e-3 -0.381 0.064-0.564 0.057-0.183 0.132-0.317 0.242-0.426s0.222-0.165 0.355-0.172h0.031c0.121 0 0.228 0.04 0.34 0.129 0.121 0.097 0.214 0.22 0.291 0.395s0.116 0.349 0.127 0.555v2e-3c3e-3 0.052 1e-3 0.1 0 0.148 0.117-0.032 0.236-0.062 0.375-0.062 0.113-0 0.24 0.033 0.363 0.061-2e-3 -0.033-7e-3 -0.065-8e-3 -0.1v-0.019c-3e-3 -0.238 0.035-0.441 0.127-0.648 0.092-0.208 0.206-0.359 0.365-0.48 0.16-0.121 0.318-0.178 0.504-0.18zm-0.01 0.779c-0.08 0-0.147 0.028-0.219 0.088-0.075 0.063-0.133 0.144-0.18 0.256-0.046 0.112-0.068 0.222-0.072 0.354 1e-3 0.014-1e-3 0.027 2e-3 0.043 5e-3 0.043 0.018 0.073 0.025 0.111 0.09 0.046 0.173 0.072 0.268 0.133h8e-3c0.124 0.081 0.268 0.132 0.447 0.195 0.08-0.104 0.142-0.251 0.164-0.439 1e-3 -8e-3 2e-3 -0.016 2e-3 -0.025 3e-3 -0.125-0.012-0.234-0.049-0.344-0.038-0.115-0.09-0.199-0.16-0.268-0.071-0.069-0.138-0.101-0.223-0.104h-0.014zm-2.49 0.15c-3e-3 0-5e-3 2e-3 -8e-3 2e-3 -0.061 5e-3 -0.112 0.033-0.16 0.092-0.048 0.058-0.079 0.13-0.102 0.227-0.023 0.096-0.029 0.193-0.02 0.301v0.012c0.01 0.105 0.031 0.191 0.068 0.279 0.027 0.064 0.063 0.103 0.1 0.145 0.096-0.092 0.256-0.261 0.494-0.402-1e-3 -0.032 5e-3 -0.065 2e-3 -0.092-0-2e-3 -2e-3 -6e-3 -2e-3 -8e-3v-4e-3c-0.01-0.104-0.032-0.191-0.068-0.279-0.039-0.092-0.083-0.157-0.141-0.207-0.052-0.045-0.102-0.065-0.156-0.064h-8e-3zm1.15 0.697c-0.147 0-0.279 0.028-0.396 0.068-0.342 0.118-0.569 0.363-0.711 0.498-0.028 0.027-0.065 0.051-0.152 0.115-0.088 0.064-0.219 0.161-0.408 0.303-0.168 0.126-0.222 0.29-0.164 0.482 0.058 0.193 0.242 0.415 0.582 0.607h2e-3c0.211 0.124 0.354 0.291 0.52 0.424 0.083 0.066 0.171 0.125 0.275 0.17 0.105 0.045 0.226 0.075 0.379 0.084 0.359 0.021 0.622-0.087 0.855-0.221 0.234-0.133 0.433-0.295 0.66-0.369v-2e-3c0.466-0.145 0.798-0.437 0.902-0.715 0.052-0.139 0.05-0.273-0.012-0.395s-0.19-0.237-0.406-0.326h-2e-3c-0.45-0.19-0.645-0.205-0.897-0.368-0.409-0.263-0.746-0.355-1.03-0.354zm4.23 9.4c0.032 0.522 0.29 1.06 0.746 1.17 0.5 0.132 1.22-0.297 1.52-0.646 0.061-2e-3 0.12-6e-3 0.178-8e-3 0.267-6e-3 0.49 9e-3 0.719 0.209v2e-3c0.176 0.149 0.262 0.429 0.334 0.744s0.13 0.66 0.348 0.904c0.418 0.463 0.553 0.776 0.541 0.977-0.011 0.2-0.158 0.347-0.426 0.508-0.534 0.322-1.48 0.604-2.08 1.34-0.525 0.625-1.17 0.969-1.73 1.01-0.564 0.045-1.05-0.19-1.34-0.766h-2e-3v-2e-3c-0.178-0.339-0.105-0.874 0.045-1.44 0.15-0.563 0.366-1.14 0.395-1.61v-2e-3c0.03-0.602 0.065-1.13 0.166-1.53s0.261-0.681 0.543-0.836c0.013-7e-3 0.026-0.015 0.039-0.021zm-9.18 0.039h8e-3c0.042 0 0.087 4e-3 0.135 0.012 0.32 0.048 0.599 0.271 0.867 0.635l0.775 1.41c0.206 0.431 0.643 0.905 1.01 1.39 0.369 0.483 0.654 0.969 0.617 1.34v4e-3c-0.048 0.633-0.405 0.978-0.953 1.1-0.548 0.125-1.29 1e-3 -2.03-0.387v-4e-3c-0.822-0.435-1.8-0.391-2.43-0.522-0.314-0.065-0.518-0.163-0.612-0.345-0.093-0.183-0.096-0.503 0.104-1.05l2e-3 -2e-3v-2e-3c0.099-0.304 0.024-0.637-0.023-0.949-0.048-0.312-0.07-0.597 0.037-0.795v-2e-3c0.136-0.264 0.335-0.359 0.584-0.448 0.248-0.089 0.544-0.159 0.777-0.392l2e-3 -2e-3c0.215-0.227 0.379-0.513 0.568-0.715 0.16-0.17 0.318-0.284 0.559-0.285z"/>
 <!--text-here-->
</svg>
