<svg version="1.1" viewBox="0 0 32 32" xmlns="http://www.w3.org/2000/svg">
 <title>Kali</title>
 <path fill="#111" d="m15.9 0a16 16 0 0 0 0.148 31.9 16 16 0 0 0 0-31.9 16 16 0 0 0-0.148 0zm-1.3 5.45c1.24 1.59 2.37 3.47 4.12 4.52-1.06-0.985-1.93-2.76-2.33-4.2 3.22 5.2 4.08 3.25 7.29 8.84-0.154 0-0.306-0.013-0.444 0.045-0.114 1.21 1.32 2.08 2.28 2.48-0.306 1.22-1.24 2.09-2.45 2.41 1.4-2.06-2.16-3.79-3.15-4.53-0.525-0.393-1.09-1.31-1.48-1.8a6.09 6.09 0 0 0-6.74-2.11c-2.83 0.912-3.38 4.52 0.647 7.18 0.219 0.143 4.9 2.31 5.93 3.22 1.24 1.1 2.3 2.69 2.13 4.95-0.574-5.79-7.12-5.11-11.1-9.01a1.11 1.11 0 0 0-0.577 0.647c-0.13-0.525-0.166-1.5-0.516-2.1-0.366 0.127-0.722 0.248-1.05 0.487 0.295-0.742 0.393-1.56 0.532-2.35-0.398 0-0.729 0.077-1.1 0.164a21.1 21.1 0 0 0 1.26-1.97 1.43 1.43 0 0 0-1.04-0.279c0.583-0.357 1.3-0.785 1.86-1.26-0.177-0.289-0.405-0.589-0.713-0.797 0.728-0.07 1.47-0.203 2.19-0.328-0.125-0.371-0.27-0.739-0.579-1.02 0.673 0.121 1.46 0.35 2.19 0.283 0.045-0.313 0.016-0.671-0.163-1.01a11.9 11.9 0 0 0 2.13 0.842c9e-3 -0.226 0.047-0.513-0.058-0.781 0.849 0.688 1.94 1.01 2.91 1.49-0.888-1.16-1.48-2.68-1.98-4.02zm6.59 7.05c-1 0.25 0.684 1.36 1.11 1.51-0.438-0.436-0.745-1-1.11-1.51z"/>
 <!--text-here-->
</svg>
