<svg version="1.1" viewBox="0 0 32 32" xmlns="http://www.w3.org/2000/svg">
 <title>Kbd</title>
 <path fill="#111" d="m16 0c-8.84 0-16 7.16-16 16s7.16 16 16 16 16-7.16 16-16-7.16-16-16-16zm-6.23 10h12.5s2.27-0 2.27 2v8c0 2-2.27 2-2.27 2h-12.5s-2.27 0-2.27-2v-8c0-2 2.27-2 2.27-2zm0.283 2c-0.157 0-0.283 0.112-0.283 0.25v1.5c0 0.138 0.126 0.25 0.283 0.25h1.7c0.157 0 0.283-0.112 0.283-0.25v-1.5c0-0.138-0.126-0.25-0.283-0.25zm3.4 0c-0.157 0-0.283 0.112-0.283 0.25v1.5c0 0.138 0.126 0.25 0.283 0.25h1.7c0.157 0 0.283-0.112 0.283-0.25v-1.5c0-0.138-0.126-0.25-0.283-0.25zm3.4 0c-0.157 0-0.283 0.112-0.283 0.25v1.5c0 0.138 0.126 0.25 0.283 0.25h1.7c0.157 0 0.283-0.112 0.283-0.25v-1.5c0-0.138-0.126-0.25-0.283-0.25zm3.4 0c-0.157 0-0.283 0.112-0.283 0.25v1.5c0 0.138 0.126 0.25 0.283 0.25h1.7c0.157 0 0.285-0.112 0.285-0.25v-1.5c0-0.138-0.128-0.25-0.285-0.25zm-10.2 3c-0.157 0-0.283 0.112-0.283 0.25v1.5c0 0.138 0.126 0.25 0.283 0.25h1.7c0.157 0 0.283-0.112 0.283-0.25v-1.5c0-0.138-0.126-0.25-0.283-0.25zm3.4 0c-0.157 0-0.285 0.112-0.285 0.25v1.5c0 0.138 0.128 0.25 0.285 0.25h1.7c0.157 0 0.283-0.112 0.283-0.25v-1.5c0-0.138-0.126-0.25-0.283-0.25zm3.4 0c-0.157 0-0.283 0.112-0.283 0.25v1.5c0 0.138 0.126 0.25 0.283 0.25h1.7c0.157 0 0.283-0.112 0.283-0.25v-1.5c0-0.138-0.126-0.25-0.283-0.25zm3.4 0c-0.157 0-0.283 0.112-0.283 0.25v1.5c0 0.138 0.126 0.25 0.283 0.25h1.7c0.157 0 0.283-0.112 0.283-0.25v-1.5c0-0.138-0.126-0.25-0.283-0.25zm-7.93 3c-0.157 0-0.283 0.112-0.283 0.25v1.5c0 0.138 0.126 0.25 0.283 0.25h7.37c0.157 0 0.283-0.112 0.283-0.25v-1.5c0-0.138-0.126-0.25-0.283-0.25z"/>
</svg>
