<svg version="1.1" viewBox="0 0 32 32" xmlns="http://www.w3.org/2000/svg">
 <title>Korora</title>
 <path fill="#111" d="m16.1 0a16 16 0 0 0-0.337 2e-3 16 16 0 0 0 0 32 16 16 0 1 0 0.337-32zm2.06 7.33h6.48v6.47c-3e-3 2.88-1.96 5.35-4.72 6.15-0.797 2.76-3.27 4.71-6.16 4.72h-6.48v-6.47c4e-3 -2.88 1.96-5.35 4.72-6.15 0.796-2.76 3.27-4.71 6.16-4.72zm0 1.73c-1.84 1e-3 -3.36 1.15-4.15 2.76 3.34 0.148 5.98 2.78 6.12 6.12 1.62-0.782 2.76-2.31 2.77-4.14v-4.74zm-4.4 4.39c-0.107 1e-3 -0.214 0.017-0.321 0.025-9e-3 0.109-0.03 0.217-0.031 0.326v8e-3c4e-3 2.62 2.12 4.74 4.75 4.74 0.107-1e-3 0.215-0.017 0.321-0.025 9e-3 -0.109 0.024-0.217 0.025-0.326-1e-3 -2.62-2.11-4.74-4.74-4.74h-8e-3zm-1.98 0.609c-1.62 0.783-2.76 2.3-2.77 4.13v4.74h4.74c1.84-1e-3 3.36-1.14 4.15-2.76-3.34-0.147-5.97-2.77-6.12-6.11z"/>
 <!--text-here-->
</svg>
