<svg version="1.1" viewBox="0 0 32 32" xmlns="http://www.w3.org/2000/svg">
 <title>Kubuntu</title>
 <path fill="#111" d="m16.1 0c-0.113-0-0.225 0-0.337 2e-3 -8.76 0.132-15.8 7.26-15.8 16 0 8.74 7.03 15.9 15.8 16 8.86 0.093 16.1-7 16.2-15.8 0.093-8.84-7.01-16.1-15.9-16.2zm-0.932 5.61c0.062 6e-3 0.113 0.044 0.141 0.1l1.29 2.7c0.625 0.018 1.26 0.126 1.87 0.322l2.06-2.06c0.057-0.058 0.147-0.069 0.215-0.025l1.64 0.998c0.072 0.043 0.103 0.131 0.074 0.209l-0.996 2.81c0.376 0.418 0.695 0.875 0.953 1.36h3.07c0.083 0 0.154 0.058 0.172 0.135l0.454 1.87c0.02 0.08-0.018 0.163-0.092 0.199l-3.85 0.84c-0.585-3.85-4.51-6.25-8.22-5.01l-0.031-0.018-0.824-3.8c0-0.08 0.058-0.151 0.135-0.17l1.87-0.453c0.022-6e-3 0.039-8e-3 0.061-8e-3zm-6.09 2.75c0.04-3e-3 0.081 8e-3 0.114 0.031l2.92 2.66c-3.08 2.37-3.28 6.93-0.423 9.56v0.043l-2.63 2.9c-0.069 0.041-0.158 0.031-0.215-0.025l-1.36-1.35c-0.06-0.06-0.069-0.153-0.021-0.223l1.64-2.5c-0.314-0.551-0.549-1.14-0.699-1.76l-2.84-0.695c-0.078-0.019-0.133-0.088-0.134-0.168v-1.92c0-0.083 0.059-0.153 0.139-0.172l2.92-0.607c0.163-0.538 0.39-1.05 0.67-1.52l-1.59-2.62c-0.042-0.069-0.032-0.158 0.026-0.215l1.36-1.36c0.028-0.03 0.067-0.049 0.108-0.053zm13 9 3.82 0.854c0.068 0.037 0.106 0.122 0.084 0.199l-0.499 1.85c-0.021 0.082-0.098 0.137-0.182 0.131l-2.99-0.174c-0.322 0.547-0.718 1.05-1.18 1.48l0.814 2.8c0.022 0.076-0.01 0.158-0.078 0.199l-1.67 0.957c-0.071 0.041-0.162 0.027-0.217-0.033l-1.99-2.23c-0.548 0.129-1.1 0.19-1.66 0.184l-1.48 2.68c-0.039 0.072-0.123 0.108-0.202 0.086l-1.86-0.5c-0.08-0.022-0.133-0.096-0.129-0.178l1-3.79 0.02-0.01c3.59 1.37 7.56-0.764 8.39-4.51z"/>
 <!--text-here-->
</svg>
