<svg version="1.1" viewBox="0 0 32 32" xmlns="http://www.w3.org/2000/svg">
 <title>Lang</title>
 <path fill="#111" d="m16 0c-8.84 0-16 7.16-16 16s7.16 16 16 16 16-7.16 16-16-7.16-16-16-16zm0 7c4.97 0 9 4.03 9 9s-4.03 9-9 9-9-4.03-9-9 4.03-9 9-9zm-0.643 2.49v2e-3c-0.216 0.022-0.435 0.036-0.645 0.08-0.421 0.086-0.819 0.198-1.2 0.361-1.85 0.781-3.24 2.4-3.74 4.38 0.013 0.015 0.026 0.024 0.041 0.039 0.347 0.37 1.26 0.882 1.93 1.12 0.368 0.133 1.08 0.342 1.57 0.441 0.487 0.1 0.81 0.197 0.762 0.201s-0.264 0.167-0.48 0.361c-0.413 0.371-0.626 0.698-0.805 1.28-0.098 0.322-0.086 0.43 0.041 0.604 0.077 0.105 0.422 0.351 0.764 0.562 0.342 0.212 0.74 0.505 0.883 0.643 0.531 0.515 0.885 1.44 0.885 2.33 0 0.229 0.023 0.35 0.039 0.402 0.043 4e-3 0.077-4e-3 0.121 0 0.098-0.038 0.248-0.084 0.482-0.201 1.96-0.983 2.86-2.25 2.77-3.94-0.07-1.34-0.7-1.83-3.25-2.37-1.88-0.399-2.89-1.08-2.89-1.93 0-0.225 0.077-0.358 0.322-0.604 0.264-0.265 0.317-0.279 0.521-0.24 0.13 0.026 0.465 0.198 0.723 0.402 0.581 0.46 0.866 0.643 1.17 0.643 0.128 0 0.24-0.02 0.24-0.039s-0.096-0.167-0.201-0.322c-0.58-0.854-0.543-2.45 0.082-3.82 0.098-0.214 0.17-0.363 0.16-0.402-0.087 5e-3 -0.195-0.01-0.281 0zm6.02 3.01c-0.117-0.072-1.07 0.928-1.28 1.37-0.433 0.871-0.27 1.44 0.764 2.53 0.358 0.378 0.789 0.886 0.924 1.12s0.25 0.434 0.281 0.4c0.032-0.034 0.127-0.308 0.201-0.602 0.195-0.772 0.21-2.12 0-2.89-0.163-0.602-0.734-1.84-0.885-1.93z"/>
</svg>
