<svg version="1.1" viewBox="0 0 32 32" xmlns="http://www.w3.org/2000/svg">
 <title>Linuxmint</title>
 <path fill="#111" d="m16.1 0a16 16 0 0 0-0.337 2e-3 16 16 0 0 0 0 32 16 16 0 1 0 0.337-32zm-9.64 7.5 12.4 0.049c3.53 0 6.59 2.67 6.59 6.2v10.8h-10.2c-3.53 0-6.59-2.67-6.59-6.2v-5.37h-2.24zm1.44 1.44v2.55h0.898a1.42 1.42 0 0 1 1.34 1.41l6e-3 5.39c0 2.63 2.31 4.76 5.15 4.76h7.03c0.899 0 1.69-0.572 1.69-1.44v-7.87c0-2.63-2.31-4.76-5.16-4.76h-2.96v-8e-3zm3.62 1.6h1.47v7.53c0 1.01 0.691 1.79 1.5 1.79l1.66 6e-3v1.54h-1.93c-0.681-0.074-1.29-0.397-1.79-0.897-0.593-0.587-0.896-1.31-0.896-2.14zm5.54 1.28a2.37 2.37 0 0 1 1.69 0.688c0.462-0.446 1.03-0.688 1.69-0.688a2.38 2.38 0 0 1 1.74 0.729c0.478 0.479 0.723 1.08 0.723 1.76l6e-3 3.4h-1.55l-0.01-3.4c0-0.26-0.084-0.465-0.27-0.65-0.186-0.188-0.384-0.273-0.64-0.273a0.839 0.838 0 0 0-0.642 0.273c-0.184 0.186-0.268 0.391-0.268 0.65v3.42h-1.56v-3.42c0-0.26-0.084-0.465-0.27-0.65-0.186-0.188-0.382-0.273-0.642-0.273a0.841 0.84 0 0 0-0.642 0.273c-0.184 0.186-0.268 0.391-0.268 0.65v3.42h-1.55v-3.42a2.44 2.44 0 0 1 0.725-1.76c0.478-0.482 1.07-0.729 1.74-0.729z"/>
 <!--text-here-->
</svg>
