<svg version="1.1" viewBox="0 0 32 32" xmlns="http://www.w3.org/2000/svg">
 <title>Lubuntu</title>
 <path fill="#111" d="m16 0a16 16 0 0 0-16 16 16 16 0 0 0 16 16 16 16 0 0 0 16-16 16 16 0 0 0-16-16zm1.44 8.56c0.165-7e-3 0.33-1e-3 0.494 0.018 1.01 0.112 1.9 0.762 2.42 1.64l5.64 0.779h0.027a0.151 0.151 0 0 1-0.027 0.301h-6.46a0.15 0.15 0 0 1-0.115-0.062c-0.378-0.484-0.96-0.811-1.57-0.895-0.435-0.06-0.883 1e-3 -1.28 0.178-0.402 0.176-0.759 0.471-1.01 0.832-0.25 0.361-0.399 0.794-0.424 1.23s0.075 0.879 0.283 1.27a0.15 0.15 0 0 1-0.24 0.178c-0.011-0.012-7e-3 -0.033-0.018-0.045l-8e-3 0.01c-6e-3 -0.011-4e-3 -0.024-0.01-0.035-0.417-0.476-0.71-1.07-0.797-1.69-0.091-0.654 0.02-1.33 0.318-1.92s0.774-1.08 1.36-1.39c0.437-0.236 0.927-0.369 1.42-0.39zm-10 1.1a0.15 0.15 0 0 1 0.092 0.029l8.67 6.23a0.15 0.15 0 0 1-0.16 0.252l-6.99-3.92c-0.157 0.571-0.172 1.18-0.023 1.76 0.143 0.553 0.429 1.07 0.82 1.48 0.283 0.3 0.621 0.546 0.992 0.727l4.83 1.36a0.15 0.15 0 0 1-0.066 0.293l-5.79-0.949c0.081 0.479 0.269 0.941 0.557 1.33 0.579 0.786 1.56 1.28 2.53 1.27a0.15 0.15 0 0 1 0.039 0.295c-1.07 0.286-2.24 0.113-3.18-0.469-0.632-0.392-1.15-0.959-1.48-1.62-0.333-0.664-0.478-1.42-0.414-2.16a0.15 0.15 0 0 1 0.146-0.137 0.15 0.15 0 0 1 0.043 6e-3l0.454 0.127c-0.187-0.156-0.373-0.316-0.533-0.5-0.625-0.715-1.03-1.62-1.15-2.56-0.118-0.943 0.051-1.92 0.48-2.76a0.15 0.15 0 0 1 0.131-0.082zm11.7 3.14a0.15 0.15 0 0 1 0.15 0.158c-6e-3 0.088-0.01 0.178-0.01 0.266 6e-3 1.1 0.525 2.14 1.05 3.15 0.523 1.02 1.08 2.1 1.1 3.29 0.025 0.99-0.333 1.96-0.93 2.75-0.596 0.78-1.42 1.37-2.32 1.74-1.21 0.508-2.57 0.601-3.86 0.336l-0.967 2.3a0.15 0.15 0 0 1-0.283-0.062v-3.32a0.15 0.15 0 0 1 0.179-0.15c1.18 0.262 2.45 0.158 3.58-0.301 0.682-0.278 1.31-0.685 1.81-1.22 0.492-0.537 0.843-1.21 0.949-1.92 0.143-0.956-0.148-1.95-0.443-2.91-0.296-0.968-0.599-2-0.434-3.04 0.05-0.315 0.15-0.622 0.283-0.912v-8e-3c8e-3 -0.017 9e-3 -0.038 0.018-0.055a0.15 0.15 0 0 1 0.133-0.078z"/>
 <g transform="matrix(.0158 0 0 .0158 1.98 -5.21)" fill="#fff"></g>
 <!--text-here-->
</svg>
