<svg version="1.1" viewBox="0 0 32 32" xmlns="http://www.w3.org/2000/svg">
 <title>Mageia</title>
 <path fill="#111" d="m16.1 0a16 16 0 0 0-0.337 2e-3 16 16 0 0 0 0 32.1 16 16 0 1 0 0.337-32.1zm-0.935 5.35h4e-3a0.794 0.794 0 0 1 0 1.59 0.794 0.794 0 1 1-4e-3 -1.59zm2.46 1.58a0.794 0.794 0 0 1 0 1.59 0.794 0.794 0 0 1 0-1.59zm-2.06 0.793a1.19 1.19 0 0 1 0 2.38 1.19 1.19 0 0 1 0-2.38zm2.38 2.38a1.19 1.19 0 0 1 0 2.38 1.19 1.19 0 0 1 0-2.38zm-3.96 0.793a1.19 1.19 0 0 1 0 2.38 1.19 1.19 0 0 1 0-2.38zm-1.84 2.73a1.06 1.06 0 0 1 0.666 0.237c0.905 0.745 1.99 1.14 3.15 1.14a4.91 4.91 0 0 0 3.15-1.14 1.05 1.05 0 0 1 1.33 0c1.68 1.38 2.65 3.43 2.65 5.63 0 3.99-3.2 7.24-7.13 7.24-3.93 0-7.13-3.25-7.13-7.24a7.26 7.26 0 0 1 2.65-5.63 1.04 1.04 0 0 1 0.666-0.237zm0.456 2.62a4.75 4.75 0 1 0 6.72 0c-0.961 0.633-2.15 0.979-3.36 0.979s-2.39-0.346-3.36-0.979z"/>
 <!--text-here-->
</svg>
