<svg version="1.1" viewBox="0 0 32 32" xmlns="http://www.w3.org/2000/svg">
 <title>Neon</title>
 <path fill="#111" d="m16 0a16 16 0 0 0-16 16 16 16 0 0 0 16 16 16 16 0 0 0 16-16 16 16 0 0 0-16-16zm-6e-3 2.95h2e-3 4e-3c0.501 1e-3 0.911 0.36 1.05 0.836 2.51 0.216 4.89 1.2 6.82 2.82 0.438-0.256 0.994-0.191 1.36 0.169 0.361 0.362 0.426 0.919 0.169 1.36 1.62 1.93 2.6 4.31 2.82 6.82 0.474 0.137 0.832 0.544 0.836 1.04v6e-3c-1e-3 0.501-0.36 0.911-0.836 1.05-0.216 2.51-1.2 4.89-2.82 6.82 0.254 0.436 0.191 0.988-0.166 1.35v2e-3l-3e-3 4e-3c-0.362 0.361-0.919 0.426-1.36 0.169-1.93 1.62-4.31 2.6-6.82 2.82-0.138 0.476-0.548 0.835-1.05 0.836-0.501-1e-3 -0.911-0.36-1.05-0.836-2.51-0.216-4.89-1.2-6.82-2.82-0.436 0.254-0.988 0.191-1.35-0.166h-2e-3l-4e-3 -3e-3c-0.361-0.362-0.426-0.919-0.169-1.36-1.62-1.93-2.6-4.31-2.82-6.82-0.476-0.138-0.835-0.548-0.836-1.05 1e-3 -0.501 0.36-0.911 0.836-1.05 0.216-2.51 1.2-4.89 2.82-6.82-0.256-0.438-0.191-0.994 0.169-1.36 0.362-0.361 0.919-0.426 1.36-0.169 1.93-1.62 4.31-2.6 6.82-2.82 0.137-0.474 0.544-0.832 1.04-0.836zm2e-3 0.571c-0.305 1e-3 -0.55 0.248-0.551 0.552 0 0.307 0.248 0.553 0.555 0.553s0.555-0.246 0.555-0.553c-1e-3 -0.305-0.249-0.552-0.555-0.552h-4e-3zm-1 0.968c-2.36 0.208-4.6 1.14-6.42 2.66 0.165 0.412 0.106 0.887-0.209 1.2-1e-3 2e-3 -2e-3 3e-3 -4e-3 4e-3 -0.318 0.318-0.795 0.378-1.21 0.213-1.52 1.82-2.46 4.06-2.66 6.42 0.409 0.175 0.705 0.551 0.707 1v6e-3c0 0.451-0.296 0.83-0.707 1.01 0.207 2.36 1.14 4.6 2.66 6.42 0.414-0.165 0.891-0.105 1.21 0.213s0.378 0.795 0.213 1.21c1.82 1.52 4.06 2.46 6.42 2.66 0.175-0.409 0.551-0.705 1-0.707h6e-3c0.451 0 0.83 0.296 1.01 0.707 2.36-0.207 4.6-1.14 6.42-2.66-0.165-0.414-0.105-0.891 0.213-1.21s0.795-0.378 1.21-0.213c1.52-1.82 2.46-4.06 2.66-6.42-0.411-0.176-0.707-0.555-0.707-1.01s0.296-0.83 0.707-1.01c-0.207-2.36-1.14-4.6-2.66-6.42-0.412 0.165-0.887 0.106-1.2-0.209h-2e-3c-2e-3 -1e-3 -1e-3 -2e-3 -2e-3 -4e-3 -0.318-0.318-0.378-0.795-0.213-1.21-1.82-1.52-4.06-2.46-6.42-2.66-0.176 0.411-0.555 0.707-1.01 0.707s-0.83-0.296-1.01-0.707h-2e-3zm1 2.13h6e-3c0.51 1e-3 0.951 0.348 1.08 0.838 4.32 0.544 7.56 4.21 7.56 8.57-1e-3 4.36-3.25 8.04-7.58 8.57-0.146 0.464-0.574 0.786-1.06 0.787-0.49-1e-3 -0.918-0.323-1.06-0.787-4.32-0.537-7.57-4.21-7.58-8.57 1e-3 -4.35 3.24-8.02 7.56-8.57 0.129-0.488 0.566-0.835 1.07-0.838zm-8.46 0.395c-0.136 8e-3 -0.263 0.067-0.359 0.164-0.218 0.216-0.219 0.566-2e-3 0.783 0.216 0.216 0.565 0.214 0.781-2e-3h2e-3l2e-3 -4e-3c0.215-0.216 0.215-0.563 0-0.779-0.112-0.112-0.266-0.172-0.424-0.162zm16.9 0c-0.136 7e-3 -0.265 0.065-0.361 0.162-0.216 0.216-0.214 0.565 2e-3 0.781v2e-3l4e-3 2e-3c0.216 0.215 0.563 0.215 0.779 0 0.217-0.217 0.216-0.567-2e-3 -0.783-0.111-0.112-0.264-0.173-0.422-0.164zm-8.41 0.176c-0.305 1e-3 -0.55 0.246-0.551 0.55 0 0.307 0.248 0.555 0.555 0.555s0.555-0.248 0.555-0.555c-1e-3 -0.305-0.249-0.55-0.555-0.55-1e-3 -1e-3 -3e-3 -1e-3 -4e-3 0zm-1 0.978c-3.94 0.505-6.9 3.86-6.89 7.83 0 3.98 2.95 7.33 6.9 7.83 0.178-0.402 0.552-0.693 0.996-0.695h6e-3c0.448 0 0.826 0.291 1 0.697 3.94-0.505 6.9-3.86 6.89-7.83 1e-3 -3.98-2.95-7.33-6.89-7.83-0.178 0.406-0.556 0.697-1 0.697s-0.826-0.291-1-0.697zm1 4.72c1.72 0 3.12 1.4 3.12 3.12s-1.4 3.12-3.12 3.12-3.12-1.4-3.12-3.12 1.4-3.12 3.12-3.12zm-11.9 2.56c-0.304 3e-3 -0.548 0.25-0.548 0.555 0 0.307 0.248 0.555 0.554 0.555 0.306-1e-3 0.551-0.249 0.551-0.555v-4e-3c-2e-3 -0.305-0.246-0.55-0.551-0.551h-6e-3zm23.9 0c-0.305 2e-3 -0.549 0.25-0.549 0.555 0 0.307 0.246 0.555 0.553 0.555 0.305-1e-3 0.552-0.249 0.552-0.555v-4e-3c-1e-3 -0.305-0.248-0.55-0.552-0.551h-4e-3zm-11.9 8.26c-0.305 2e-3 -0.55 0.248-0.551 0.553 0 0.306 0.248 0.552 0.555 0.552s0.555-0.246 0.555-0.552c-1e-3 -0.306-0.249-0.553-0.555-0.553h-4e-3zm-8.46 0.174c-0.135 8e-3 -0.263 0.066-0.359 0.162-0.216 0.217-0.215 0.565 2e-3 0.781l2e-3 4e-3h2e-3c0.217 0.213 0.562 0.213 0.777-2e-3 0.217-0.216 0.217-0.566 0-0.783-0.112-0.112-0.266-0.171-0.424-0.162zm16.9 0c-0.136 7e-3 -0.265 0.066-0.361 0.162-0.217 0.217-0.217 0.567 0 0.783 0.217 0.215 0.565 0.215 0.781-2e-3l4e-3 -2e-3v-2e-3c0.213-0.217 0.213-0.562-2e-3 -0.777-0.111-0.112-0.264-0.171-0.422-0.162zm-8.41 3.49c-0.305 2e-3 -0.55 0.246-0.551 0.551 0 0.306 0.248 0.554 0.555 0.554s0.555-0.248 0.555-0.554c-1e-3 -0.306-0.249-0.551-0.555-0.551h-4e-3z"/>
 <!--text-here-->
</svg>
