<svg version="1.1" viewBox="0 0 32 32" xmlns="http://www.w3.org/2000/svg">
 <title>Q4OS</title>
 <path fill="#111" d="m16 0c-8.84 0-16 7.16-16 16s7.16 16 16 16 16-7.16 16-16-7.16-16-16-16zm-0.906 5.17v6.39c-1.78 0.36-3.18 1.76-3.54 3.54h-6.39c0.437-5.28 4.64-9.49 9.93-9.93zm1.81 0c5.28 0.437 9.49 4.64 9.93 9.93h-6.39c-0.36-1.78-1.76-3.18-3.54-3.54zm-11.7 11.7h6.39c0.36 1.78 1.76 3.18 3.54 3.54v6.39c-5.28-0.437-9.49-4.64-9.93-9.93zm14.5 0.854 4.53 4.53-0.961 0.963-0.961 0.961-4.53-4.53 0.959-0.961z"/>
 <!--text-here-->
</svg>
