<svg version="1.1" viewBox="0 0 32 32" xmlns="http://www.w3.org/2000/svg">
 <title>Recovery</title>
 <path fill="#111" d="m16 0c-8.84 0-16 7.16-16 16s7.16 16 16 16 16-7.16 16-16-7.16-16-16-16zm0 8c4.35 0 7.88 3.46 8 7.78h0.994a0.848 0.703 0 0 1 0.641 0.246 0.848 0.703 0 0 1 0.09 0.805l-1.16 1.67-1.16 1.66a0.848 0.703 0 0 1-0.77 0.354 0.848 0.703 0 0 1-0.693-0.352l-1.16-1.67-1.17-1.67a0.848 0.703 0 0 1 0.732-1.05h0.99c-0.113-2.84-2.45-5.12-5.33-5.12-0.736 0-1.33-0.596-1.33-1.33s0.598-1.33 1.33-1.33zm-6.71 3.48a0.848 0.703 0 0 1 0.082 0 0.848 0.703 0 0 1 0.693 0.352l2.33 3.33a0.848 0.703 0 0 1-0.732 1.05h-0.988c0.114 2.84 2.46 5.12 5.33 5.12 0.736 0 1.33 0.596 1.33 1.33s-0.598 1.33-1.33 1.33c-4.35 0-7.88-3.46-8-7.78h-0.994a0.848 0.703 0 0 1-0.643-0.248 0.848 0.703 0 0 1-0.09-0.803l1.16-1.67 1.16-1.66a0.848 0.703 0 0 1 0.689-0.354z"/>
 <!--text-here-->
</svg>
