<svg version="1.1" viewBox="0 0 32 32" xmlns="http://www.w3.org/2000/svg">
 <title>Regolith</title>
 <path fill="#111" d="m16 0a16 16 0 0 0-16 16 16 16 0 0 0 16 16 16 16 0 0 0 16-16 16 16 0 0 0-16-16zm0.879 5a11 11 0 0 1 3.79 0.676 8.3 8.3 0 0 0-0.084-2e-3 8.3 8.3 0 0 0-8.3 8.3 8.3 8.3 0 0 0 1.36 4.56c0.026-0.01 0.049-0.019 0.075-0.029 1.79-0.732 3.68-1.6 5.51-2.53a2.5 2.5 0 0 1-0.056-0.53 2.5 2.5 0 0 1 2.5-2.5 2.5 2.5 0 0 1 1.73 0.701c1.6-0.981 3.06-1.99 4.2-2.97a0.85 0.85 0 0 1 0.51-0.203 0.85 0.85 0 0 1 0.687 0.296 0.85 0.85 0 0 1-0.093 1.2c-1.28 1.09-2.84 2.18-4.56 3.22a2.5 2.5 0 0 1 0.016 0.252 2.5 2.5 0 0 1-2.5 2.5 2.5 2.5 0 0 1-1.53-0.519c-1.92 0.98-3.9 1.88-5.78 2.65-2.54 1.04-4.91 1.83-6.79 2.27-0.939 0.216-1.75 0.343-2.44 0.351-0.68 8e-3 -1.33-0.037-1.82-0.621-0.188-0.214-0.362-0.599-0.328-0.972 0.036-0.384 0.203-0.706 0.45-1.04 0.441-0.604 1.23-1.33 2.58-2.35a11 11 0 0 1-0.135-1.71 11 11 0 0 1 11-11zm10.7 13.4a11 11 0 0 1-10.7 8.61 11 11 0 0 1-8.25-3.73c1.68-0.458 3.65-1.14 5.74-1.99 0.447-0.182 0.904-0.38 1.36-0.576a8.3 8.3 0 0 0 4.86 1.57 8.3 8.3 0 0 0 7.03-3.89zm-21.2 1.12c-0.875 0.705-1.35 1.19-1.57 1.49 0.087 0.023 9e-3 5e-3 0.23 2e-3 0.436-5e-3 1.09-0.1 1.84-0.262a11 11 0 0 1-0.496-1.23z"/>
 <!--text-here-->
</svg>
