<svg version="1.1" viewBox="0 0 32 32" xmlns="http://www.w3.org/2000/svg">
 <title>Restart</title>
 <path fill="#111" d="m15.6 5e-3c-2.58 0.068-5.18 0.763-7.57 2.14-7.65 4.42-10.3 14.2-5.85 21.9 4.42 7.65 14.2 10.3 21.9 5.85 7.65-4.42 10.3-14.2 5.85-21.9-3.04-5.26-8.61-8.14-14.3-8zm0.11 8c0.786-0.03 1.59 0.057 2.39 0.268h4e-3c1.88 0.503 3.41 1.64 4.46 3.11l1.04-0.601a0.703 0.847 60 0 1 0.68-0.106 0.703 0.847 60 0 1 0.48 0.65l-0.178 2.03-0.174 2.02a0.703 0.847 60 0 1-0.491 0.692 0.703 0.847 60 0 1-0.775 0.042l-3.68-1.72a0.703 0.847 60 0 1 0.11-1.28l0.971-0.559c-0.729-0.975-1.77-1.73-3.04-2.07-3.05-0.816-6.18 0.994-7 4.04-0.816 3.05 0.99 6.18 4.04 7 2.26 0.605 4.54-0.253 5.92-1.96 0.291-0.359 0.643-0.461 1.17-0.351 0.616 0.166 0.983 0.797 0.816 1.41-0.049 0.193-0.151 0.367-0.291 0.51-1.94 2.32-5.1 3.43-8.21 2.6-4.27-1.14-6.8-5.53-5.65-9.8 0.93-3.47 4-5.79 7.41-5.93z"/>
</svg>
