<svg width="32" height="32" version="1.1" viewBox="0 0 8.47 8.47" xmlns="http://www.w3.org/2000/svg">
 <title>Solus</title>
 <g fill="#111">
  <path d="m5.22 6.84c-1.34 0.189-2.71 0.142-4.05 0.0393 0.865 1.1 2.37 1.66 3.76 1.39 1.34-0.231 2.52-1.21 2.99-2.49-0.797 0.565-1.74 0.908-2.7 1.06z" opacity=".7"/>
  <path transform="scale(.265)" d="m15.9 1.62c-1.59 0.00593-3.18 0.267-4.69 0.773 1.24 1.91 2.44 3.55 3.82 6.06 0.192 2.22 0.977 13.7 1.06 14.8-4.12-0.376-9.3-0.718-14.2-1.69 0.572 1.6 1.41 3.09 2.49 4.4 5.08 0.389 10.2 0.566 15.3-0.148 3.64-0.559 7.19-1.85 10.2-3.99 0.109-0.188 0.435-0.721 0.838-3.11-0.765 0.917-1.76 1.8-3 2.42 0.221-2.17-0.571-4.27-2.12-5.82-1.14-1.15-2.65-2.11-4.23-3.17 1.31 0.36 2.81 0.816 4.23 1.32 2 0.708 3.88 1.62 5.27 2.59-0.256-8.06-6.86-14.5-14.9-14.5-0.0189-3.58e-5 -0.0378-3.58e-5 -0.0566 0zm-7.25 1.91c-4.71 2.64-7.63 7.62-7.63 13-5.71e-5 0.794 0.0633 1.59 0.189 2.37 2.5-4.44 5.55-10.1 7.44-15.4zm7.71 5.46s7.26 5.71 10.3 12.7c-3.72 1.84-7.15 1.6-9.26 1.59 1.49-3.84 1.49-9.03-1.06-14.3z"/>
  <path d="m8.09 5.19c-0.577 0.777-1.64 1.19-2.91 1.38-1.32 0.192-2.86 0.135-4.23 0.0183 0.0652 0.0977 0.137 0.193 0.211 0.284 1.32 0.104 2.69 0.512 3.97 0.326 1.07-0.156 2.12-0.836 2.78-1.42a3.81 3.81 0 0 0 0.17-0.583zm-5.5-5.19c-0.0739 0.302-0.177 0.617-0.29 0.935a3.95 3.95 0 0 1 0.677-0.301c-0.127-0.195-0.255-0.4-0.388-0.635zm5.59 4.25a3.95 3.95 0 0 1 0.00207 0.125 3.95 3.95 0 0 1-0.0424 0.578c0.134-0.161 0.242-0.325 0.326-0.479-0.0819-0.0754-0.179-0.15-0.285-0.224zm-7.85 0.752c-0.111 0.197-0.232 0.416-0.331 0.592 0.169 0.0406 0.34 0.0773 0.513 0.112a3.95 3.95 0 0 1-0.181-0.703z" color="#000000" fill-rule="evenodd" opacity=".5" solid-color="#000000" style="isolation:auto;mix-blend-mode:normal;text-decoration-color:#000000;text-decoration-line:none;text-decoration-style:solid;text-indent:0;text-transform:none;white-space:normal"/>
 </g>
 <!--text-here-->
</svg>
