<svg version="1.1" viewBox="0 0 32 32" xmlns="http://www.w3.org/2000/svg">
 <title>System Rescue CD</title>
 <path fill="#111" d="m15.9 0a16 16 0 0 0-11.2 4.69 16 16 0 0 0 0 22.6 16 16 0 0 0 22.6 0 16 16 0 0 0 0-22.6 16 16 0 0 0-11.4-4.69zm0.12 6a10 10 0 0 1 4.42 1.03 0.2 0.2 0 0 1 0.03-0.04c0.59-0.59 1.4-0.93 2.24-0.94s1.65 0.31 2.26 0.89l0.05 0.05c1.25 1.26 1.25 3.3 0 4.55a0.2 0.2 0 0 1-0.04 0.03 10 10 0 0 1 1.03 4.42 10 10 0 0 1-1.03 4.42 0.2 0.2 0 0 1 0.04 0.03c1.24 1.24 1.26 3.24 0.06 4.5l-0.05 0.05c-1.26 1.25-3.3 1.25-4.55 0a0.2 0.2 0 0 1-0.03-0.04 10 10 0 0 1-4.42 1.03 10 10 0 0 1-4.42-1.03 0.2 0.2 0 0 1-0.03 0.04c-1.24 1.24-3.24 1.26-4.5 0.06l-0.05-0.05c-1.26-1.26-1.26-3.3 0-4.55a0.2 0.2 0 0 1 0.04-0.04 10 10 0 0 1-1.03-4.41 10 10 0 0 1 1.03-4.42 0.2 0.2 0 0 1-0.04-0.03c-1.25-1.24-1.28-3.24-0.07-4.5l0.05-0.05c0.61-0.61 1.45-0.95 2.31-0.94 0.84 0.01 1.65 0.35 2.24 0.94a0.2 0.2 0 0 1 0.03 0.04 10 10 0 0 1 4.42-1.03zm-6.73 1.05c-0.57 0-1.13 0.22-1.57 0.65-0.81 0.81-0.85 2.08-0.15 2.95a10 10 0 0 1 3.1-3.1c-0.4-0.33-0.89-0.5-1.38-0.5zm13.5 0c-0.49 0-0.98 0.17-1.38 0.5a10 10 0 0 1 3.1 3.1c0.7-0.87 0.66-2.14-0.15-2.95-0.44-0.43-1-0.65-1.57-0.65zm-6.83 0.15a8.8 8.8 0 0 0-3.55 0.8 7.61 7.61 0 0 0 1.45 3.48 5.03 5.03 0 0 1 2.2-0.51 5.03 5.03 0 0 1 2.09 0.46c0.71-0.98 1.18-2.16 1.51-3.45a8.8 8.8 0 0 0-3.6-0.77 8.8 8.8 0 0 0-0.06 0 8.8 8.8 0 0 0-0.04 0zm0.01 4.97a3.83 3.83 0 0 0-3.74 3.83 3.83 3.83 0 0 0 3.83 3.83 3.83 3.83 0 0 0 3.83-3.83 3.83 3.83 0 0 0-3.83-3.83 3.83 3.83 0 0 0-0.09 0zm-8.04 0.46a8.8 8.8 0 0 0-0.67 3.37 8.8 8.8 0 0 0 0.67 3.37c1.15-0.91 2.3-1.15 3.49-1.44a5.03 5.03 0 0 1-0.39-1.94 5.03 5.03 0 0 1 0.39-1.94c-1.19-0.27-2.34-0.52-3.49-1.42zm16.3 0a7.46 7.46 0 0 1-3.48 1.45 5.03 5.03 0 0 1 0.38 1.92 5.03 5.03 0 0 1-0.38 1.92 7.46 7.46 0 0 1 3.48 1.45 8.8 8.8 0 0 0 0.67-3.37 8.8 8.8 0 0 0-0.67-3.37zm-10.3 7.88a7.61 7.61 0 0 0-1.45 3.48 8.8 8.8 0 0 0 3.65 0.8 8.8 8.8 0 0 0 3.6-0.77c-0.33-1.29-0.8-2.47-1.51-3.46a5.03 5.03 0 0 1-2.09 0.46 5.03 5.03 0 0 1-2.2-0.51zm-6.25 0.83c-0.7 0.87-0.66 2.14 0.15 2.95s2.08 0.85 2.95 0.15a10 10 0 0 1-3.1-3.1zm16.9 0a10 10 0 0 1-3.1 3.1c0.87 0.7 2.14 0.66 2.95-0.15s0.85-2.08 0.15-2.95z"/>
 <!--text-here-->
</svg>
