<svg version="1.1" viewBox="0 0 32 32" xmlns="http://www.w3.org/2000/svg">
 <title>Ubuntu-2w</title>
 <path fill="#111" d="m24.6 26.5a3.02 2.96 0 0 1 4.13 1.08 3.02 2.96 0 0 1-1.11 4.04 3.02 2.96 0 0 1-4.13-1.08 3.02 2.96 0 0 1 1.11-4.04zm-10.5-17.7-2.52-4.26m13 1.03a3.02 2.96 0 0 1-1.11-4.04 3.02 2.96 0 0 1 4.13-1.08 3.02 2.96 0 0 1 1.11 4.04 3.02 2.96 0 0 1-4.13 1.08zm-10.5 17.7-2.52 4.26m-5.58-11.5a3.02 2.96 0 0 1-3.02 2.96 3.02 2.96 0 0 1-3.02-2.96 3.02 2.96 0 0 1 3.02-2.96 3.02 2.96 0 0 1 3.02 2.96zm20.9 0h5.03m-13.6-12.8c-2.1 0-4.08 0.489-5.84 1.35l2.15 3.64c1.12-0.503 2.37-0.785 3.69-0.785 4.63 0 8.39 3.42 8.79 7.84h4.31c-0.207-3.26-1.67-6.2-3.92-8.36a4.25 4.15 0 0 1-3.61-0.288 4.25 4.15 0 0 1-2.06-2.93c-1.12-0.306-2.3-0.474-3.52-0.474zm-7.25 2.15c-2.65 1.73-4.64 4.38-5.46 7.48a4.25 4.15 0 0 1 1.56 3.22 4.25 4.15 0 0 1-1.56 3.21c0.822 3.1 2.8 5.75 5.46 7.49l2.15-3.64c-2.26-1.56-3.72-4.13-3.72-7.06s1.47-5.5 3.72-7.06zm16 11.5c-0.407 4.42-4.16 7.84-8.79 7.84-1.32 0-2.57-0.282-3.69-0.785l-2.15 3.64c1.76 0.863 3.75 1.35 5.84 1.35 1.22 0 2.4-0.167 3.52-0.474a4.25 4.15 0 0 1 2.06-2.93 4.25 4.15 0 0 1 3.61-0.288c2.25-2.16 3.71-5.1 3.92-8.36z"/>
 <!--text-here-->
</svg>
