<svg version="1.1" viewBox="0 0 32 32" xmlns="http://www.w3.org/2000/svg">
 <title>Ubuntu Studio</title>
 <path fill="#111" d="m16 0a16 16 0 0 0-16 16 16 16 0 0 0 16 16 16 16 0 0 0 16-16 16 16 0 0 0-16-16 16 16 0 0 0-0.031 0zm3.44 2.29c0.09 6e-3 0.179 0.019 0.269 0.044 2.39 0.659 4.42 1.78 6.16 3.54 0.151 0.149 0.268 0.333 0.334 0.534 0.127 0.373 0.051 0.813-0.134 1.14-0.111 0.195-0.266 0.347-0.469 0.469-0.271 0.162-0.574 0.237-0.869 0.197-0.294-0.04-0.586-0.171-0.803-0.4-1.45-1.47-2.96-2.39-4.96-2.94-0.717-0.197-1.13-0.891-0.935-1.61 0.173-0.626 0.775-1.02 1.4-0.978zm-3.48 4.16c2.42-0 4.85 0.923 6.7 2.77 1.87 1.86 2.79 4.32 2.77 6.78 0.017 2.46-0.905 4.92-2.77 6.78-3.7 3.69-9.69 3.69-13.4 0-0.332-0.322-0.518-0.822-0.4-1.27s0.486-0.751 0.934-0.869 0.952-1e-3 1.28 0.331c2.72 2.71 7.06 2.71 9.77 0 1.38-1.37 2.05-3.18 2.03-4.98 0.017-1.8-0.659-3.6-2.03-4.98-2.72-2.71-7.06-2.71-9.77 0-0.323 0.332-0.827 0.449-1.28 0.331-0.448-0.117-0.817-0.422-0.934-0.869-0.118-0.447 0.068-0.947 0.4-1.27 1.85-1.85 4.27-2.77 6.69-2.77zm0 4.44c1.28 0 2.57 0.49 3.55 1.47 0.998 0.995 1.48 2.32 1.47 3.64 0.017 1.32-0.468 2.64-1.47 3.64-1.96 1.96-5.14 1.96-7.1 0-0.998-0.995-1.48-2.32-1.47-3.64-0.017-1.32 0.468-2.64 1.47-3.64 0.981-0.979 2.26-1.47 3.55-1.47zm-12.1 0.553c0.09 6e-3 0.179 0.023 0.269 0.047 0.718 0.192 1.13 0.886 0.938 1.6-0.271 1.01-0.403 1.96-0.4 2.91-3e-3 0.948 0.129 1.9 0.4 2.91 0.193 0.717-0.219 1.41-0.938 1.6-0.718 0.192-1.48-0.218-1.68-0.934-0.325-1.21-0.482-2.39-0.479-3.58-3e-3 -1.18 0.154-2.37 0.478-3.58 0.169-0.627 0.777-1.02 1.41-0.981zm4.23 1.08c0.084 4e-3 0.171 0.018 0.256 0.041 0.685 0.184 1.12 0.919 0.938 1.6-0.177 0.659-0.257 1.25-0.25 1.84-7e-3 0.59 0.073 1.18 0.25 1.84 0.183 0.683-0.253 1.42-0.938 1.6-0.685 0.183-1.35-0.251-1.54-0.935-0.227-0.845-0.334-1.68-0.328-2.51-6e-3 -0.83 0.101-1.66 0.328-2.51 0.161-0.599 0.692-1.01 1.28-0.975zm7.96 0.925c-1.41 0-2.56 1.14-2.56 2.56s1.14 2.56 2.56 2.56 2.56-1.14 2.56-2.56-1.14-2.56-2.56-2.56zm8.7 10.3c0.294-0.04 0.598 0.034 0.869 0.197 0.203 0.122 0.358 0.274 0.469 0.469 0.185 0.324 0.261 0.764 0.134 1.14-0.067 0.202-0.183 0.385-0.334 0.534-1.74 1.76-3.77 2.88-6.16 3.54-0.717 0.197-1.47-0.222-1.67-0.938-0.198-0.715 0.217-1.41 0.934-1.6 2-0.55 3.5-1.46 4.96-2.94 0.217-0.229 0.509-0.36 0.803-0.4z"/>
 <!--text-here-->
</svg>
