<svg version="1.1" viewBox="0 0 32 32" xmlns="http://www.w3.org/2000/svg">
 <title>Ubuntu</title>
 <path fill="#111" d="m16 0a16 16 0 1 0 0 32 16 16 0 0 0 0-32zm5.71 4.46a2.13 2.13 0 0 1 1.58 3.19 2.13 2.13 0 1 1-1.58-3.19zm-5.71 2.26c0.86 0 1.69 0.12 2.48 0.34a3 3 0 0 0 4.02 2.33c1.58 1.55 2.61 3.67 2.76 6.02l-3.04 0.04a6.24 6.24 0 0 0-8.85-5.11l-1.48-2.66a9.25 9.25 0 0 1 4.12-0.96zm-5.15 1.56 1.56 2.62a6.23 6.23 0 0 0 0 10.2l-1.56 2.62a9.29 9.29 0 0 1-3.83-5.39 2.99 2.99 0 0 0 0-4.65 9.3 9.3 0 0 1 3.83-5.4zm-5.73 5.58a2.14 2.14 0 1 1 0 4.27 2.13 2.13 0 0 1 0-4.27zm17.1 2.69 3.04 0.05a9.25 9.25 0 0 1-2.76 6.02 2.99 2.99 0 0 0-4.02 2.32 9.27 9.27 0 0 1-6.59-0.62l1.49-2.66a6.24 6.24 0 0 0 8.84-5.11zm-1.04 6.75a2.14 2.14 0 1 1 0.52 4.25 2.14 2.14 0 0 1-0.52-4.25z"/>
 <!--text-here-->
</svg>
