<svg version="1.1" viewBox="0 0 32 32" xmlns="http://www.w3.org/2000/svg">
 <title>Void</title>
 <path fill="#111" d="m16 0a16 16 0 0 0-16 16 16 16 0 0 0 16 16 16 16 0 0 0 16-16 16 16 0 0 0-16-16zm-0.057 6.81c0.966 0 1.32 0.038 2.29 0.25 0.4 0.087 1.06 0.287 1.19 0.361 0.03 0.017 0.07 0.031 0.09 0.031 0.066 0 1.24 0.568 1.25 0.607 6e-3 0.014 0.026 0.023 0.045 0.023 0.034 0 0.593 0.338 0.623 0.377 9e-3 0.011 0.058 0.047 0.109 0.08 0.052 0.033 0.109 0.071 0.127 0.086s0.11 0.087 0.205 0.16 0.19 0.148 0.209 0.166 0.082 0.066 0.141 0.109c0.149 0.11 1.1 1.06 1.22 1.22 0.051 0.069 0.115 0.148 0.141 0.176 0.026 0.027 0.077 0.089 0.111 0.137 0.193 0.268 0.303 0.419 0.324 0.447 0.107 0.14 0.439 0.709 0.623 1.07 0.268 0.528 0.396 0.835 0.539 1.28 0.107 0.333 0.128 0.403 0.213 0.725 5e-3 0.02 0.01 0.039 0.016 0.061 0.405 3e-3 0.994 5e-3 1.19 0.01 0.176 5e-3 0.285 9e-3 0.379 0.021s0.188 0.043 0.238 0.064h2e-3c0.046 0.02 0.088 0.041 0.127 0.061 0.038 0.019 0.041 9e-3 0.125 0.072h2e-3c0.437 0.326 0.682 0.814 0.68 1.36-4e-3 0.757-0.378 1.49-1.01 2.06-0.273 0.252-0.323 0.291-0.535 0.426-0.247 0.158-0.516 0.283-0.836 0.4l-0.301 0.113h-0.064c-0.082 0.339-0.148 0.583-0.277 0.971-0.042 0.126-0.051 0.148-0.221 0.553-0.133 0.317-0.504 1.03-0.545 1.05-0.013 6e-3 -0.023 0.026-0.023 0.045 0 0.034-0.176 0.323-0.236 0.389-0.018 0.019-0.075 0.107-0.127 0.195-0.059 0.099-0.115 0.159-0.148 0.156-0.03-2e-3 -0.533-0.484-1.12-1.07l-1.07-1.06 0.072-0.121c0.202-0.34 0.375-0.71 0.518-1.1-0.691 2e-3 -1.36 4e-3 -1.64 0-0.184-3e-3 -0.292-6e-3 -0.383-0.016-0.045-5e-3 -0.083-6e-3 -0.158-0.033-0.037-0.014-0.09-0.033-0.154-0.096l-0.07 0.139-1.34 0.01c-0.171 1e-3 -0.265 0-0.398 0a3.08 3.08 0 0 1-2.08 0.808 3.08 3.08 0 0 1-2.09-0.818h-0.25c-0.509 2e-3 -0.979 2e-3 -1.33 0-0.174-1e-3 -0.316-2e-3 -0.42-4e-3 -0.052-1e-3 -0.094-3e-3 -0.127-4e-3 -0.017-1e-3 -0.03-1e-3 -0.045-2e-3 -8e-3 -1e-3 -0.016-1e-3 -0.027-2e-3s-0.069-0.013-0.07-0.014c-0.193-0.053-0.335-0.147-0.478-0.258-0.145-0.112-0.276-0.234-0.379-0.396-0.257-0.406-0.304-0.914-0.186-1.38 0.046-0.183 0.11-0.37 0.174-0.529 2e-3 -6e-3 5e-3 -0.01 8e-3 -0.016-0.022 0.015-0.046 0.03-0.061 0.041-7e-3 5e-3 -0.011 7e-3 -0.014 0.01l-4e-3 4e-3c-7e-3 6e-3 -0.013 0.012-0.018 0.016-0.012 0.01-0.02 0.017-0.029 0.023-0.018 0.013-0.037 0.025-0.057 0.039-0.04 0.027-0.089 0.059-0.141 0.092-0.044 0.027-0.085 0.055-0.113 0.074-7e-3 5e-3 -0.011 6e-3 -0.016 0.01l-4e-3 4e-3c-3e-3 3e-3 -7e-3 4e-3 -0.01 6e-3l-0.01 0.01c-0.012 0.01-0.02 0.017-0.029 0.023-0.018 0.013-0.036 0.025-0.057 0.039-0.04 0.028-0.089 0.061-0.141 0.094-0.045 0.028-0.092 0.06-0.127 0.084s-0.079 0.063-0.037 0.023c-0.084 0.078-0.094 0.075-0.156 0.119-0.063 0.044-0.14 0.098-0.221 0.152-0.055 0.037-0.099 0.067-0.143 0.098 0.321 3.27 3 5.84 6.36 5.96 1.16 0.041 2.16-0.176 3.23-0.705l0.484-0.24 1.09 1.08c0.597 0.597 1.08 1.1 1.08 1.12 0 0.018-0.059 0.072-0.133 0.119-0.605 0.389-0.795 0.498-1.23 0.713-1.05 0.523-2.08 0.832-3.22 0.965-0.408 0.047-1.32 0.083-1.59 0.062-1.02-0.077-1.73-0.209-2.55-0.475-3.2-1.03-5.64-3.71-6.4-6.94-0.135 1e-3 -0.219 6e-3 -0.336-0.018-0.064-0.013-0.155-0.043-0.23-0.105-0.076-0.063-0.111-0.131-0.127-0.161-0.045-0.083-0.204-0.374-0.303-0.554-0.049-0.089-0.139-0.264-0.211-0.405-0.034-0.066-0.067-0.129-0.092-0.173-0.01-0.018-0.016-0.031-0.021-0.041-1e-3 -2e-3 -5e-3 -6e-3 -6e-3 -8e-3 -7e-3 -0.01-0.012-0.016-0.016-0.021-7e-3 -0.012-0.012-0.021-0.018-0.031-0.011-0.021-0.024-0.043-0.038-0.069-0.029-0.053-0.065-0.12-0.102-0.192-0.071-0.137-0.166-0.318-0.203-0.387-0.042-0.075-0.132-0.239-0.199-0.363-0.067-0.122-0.159-0.294-0.205-0.379-0.096-0.175-0.396-0.736-0.469-0.875-0.054-0.104-0.088-0.214-0.082-0.352 6e-3 -0.137 0.095-0.359 0.305-0.439 1e-3 -0 0.066-0.019 0.08-0.021s0.023-5e-3 0.031-6e-3c0.016-2e-3 0.028-1e-3 0.041-2e-3 0.027-2e-3 0.059-5e-3 0.096-6e-3 0.074-3e-3 0.172-4e-3 0.291-6e-3 0.239-4e-3 0.56-6e-3 0.906-6e-3 0.438 0 0.711 3e-3 0.922 8e-3 0.211-0.847 0.525-1.66 0.947-2.4 0.201-0.35 0.599-0.962 0.615-0.947 5e-3 5e-3 0.506 0.502 1.11 1.1l1.1 1.1-0.227 0.449c-0.347 0.689-0.559 1.38-0.654 2.11 1e-3 -0 3e-3 -3e-3 4e-3 -4e-3 0.016-0.012 0.031-0.023 0.049-0.035 0.035-0.024 0.076-0.049 0.119-0.076 0.034-0.021 0.066-0.042 0.088-0.057 5e-3 -3e-3 6e-3 -4e-3 0.01-6e-3 9e-3 -9e-3 0.016-0.015 0.021-0.02 0.012-0.01 0.02-0.017 0.029-0.023 0.018-0.013 0.037-0.025 0.057-0.039 0.04-0.027 0.089-0.059 0.141-0.092 0.044-0.027 0.085-0.055 0.113-0.074 4e-3 -3e-3 6e-3 -2e-3 0.01-4e-3 -8e-3 7e-3 -0.04 0.046-0.039 0.045s0.037-0.041 0.047-0.051c2e-3 -1e-3 6e-3 -5e-3 8e-3 -6e-3v-2e-3c5e-3 -5e-3 0.012-0.01 0.016-0.014 0.012-0.01 0.02-0.017 0.029-0.023 0.018-0.013 0.036-0.025 0.057-0.039 0.04-0.027 0.09-0.059 0.141-0.092 0.043-0.027 0.087-0.058 0.121-0.082s0.077-0.064 0.037-0.025c0.067-0.065 0.086-0.07 0.131-0.102 0.045-0.031 0.097-0.066 0.15-0.1 0.044-0.027 0.087-0.055 0.115-0.074 0.011-7e-3 0.016-0.012 0.021-0.016-3e-3 2e-3 -4e-3 5e-3 -0.01 0.01-7e-3 7e-3 -0.04 0.044-0.039 0.043 0.075-0.095 0.073-0.073 0.09-0.086s0.033-0.023 0.051-0.035c0.035-0.024 0.075-0.051 0.119-0.078 0.034-0.021 0.068-0.044 0.09-0.059 0.011-7e-3 0.017-0.014 0.018-0.014 0-0-2e-3 -0.01-0.057 0.062 0.093-0.124 0.171-0.146 0.232-0.17 0.063-0.025 0.121-0.039 0.182-0.051 0.122-0.024 0.255-0.035 0.398-0.035 0.08 0 0.152 2e-3 0.213 6e-3 0.031 2e-3 0.056 4e-3 0.092 0.01 0.018 3e-3 0.036 6e-3 0.078 0.02 0.011 4e-3 0.023 7e-3 0.039 0.014s0.062 0.033 0.062 0.033 0.099 0.095 0.1 0.096c0 0 0.055 0.099 0.055 0.1 0 0 0.013 0.074 0.02 0.111 0.271-0.115 0.499-0.313 0.764-0.352 0.139-0.02 0.342-0.019 0.578-0.021a3.08 3.08 0 0 1 2.02-0.76 3.08 3.08 0 0 1 2.54 1.33c0.022-0.048 0.027-0.059 0.055-0.117 0.031-0.065 0.063-0.125 0.102-0.182s0.028-0.104 0.205-0.199c0.155-0.083 0.145-0.047 0.178-0.051s0.063-7e-3 0.1-0.01c0.072-5e-3 0.162-9e-3 0.266-0.012 0.208-6e-3 0.472-8e-3 0.734-8e-3 0.263 0 0.524 4e-3 0.725 0.01 0.1 3e-3 0.185 7e-3 0.254 0.012 0.034 3e-3 0.063 4e-3 0.098 0.01 0.018 3e-3 0.035 6e-3 0.068 0.016 0.017 5e-3 0.037 0.01 0.072 0.027 0.017 8e-3 0.066 0.041 0.066 0.041s0.057 0.063 0.082 0.09c0.017-0.031 0.016-0.062 0.141-0.129v-2e-3h2e-3c1e-3 -0 0.056-0.024 0.072-0.029s0.027-8e-3 0.037-0.01c0.019-4e-3 0.032-6e-3 0.043-8e-3 0.023-3e-3 0.042-4e-3 0.062-6e-3 0.041-3e-3 0.088-4e-3 0.148-6e-3 0.043-1e-3 0.125-3e-3 0.18-4e-3 -0.878-2.37-3.02-4.08-5.64-4.32-1.3-0.12-2.71 0.178-3.82 0.811l-0.256 0.144-2.2-2.22 0.121-0.088c0.654-0.482 1.85-1.05 2.74-1.31 0.986-0.283 1.69-0.379 2.76-0.379zm-10.3 7.74c-0.69 0-1.28 9e-3 -1.3 0.02-0.061 0.023-0.066 0.125-0.01 0.232 0.067 0.128 0.372 0.698 0.465 0.869 0.047 0.087 0.139 0.257 0.205 0.379s0.156 0.285 0.199 0.363 0.135 0.256 0.207 0.395 0.137 0.259 0.146 0.268 0.075 0.129 0.146 0.268 0.164 0.316 0.207 0.395c0.099 0.181 0.256 0.469 0.305 0.561 0.035 0.067 0.058 0.072 0.369 0.072 0.315 0 0.425-0.028 0.519-0.127 9e-3 -9e-3 0.079-0.059 0.156-0.111 0.182-0.122 0.606-0.417 0.65-0.453 0.019-0.015 0.097-0.067 0.174-0.115s0.146-0.097 0.154-0.107c9e-3 -0.01 0.124-0.089 0.254-0.176 0.13-0.086 0.243-0.165 0.252-0.176s0.08-0.061 0.158-0.109c0.078-0.049 0.15-0.095 0.158-0.105 9e-3 -0.01 0.143-0.105 0.299-0.209s0.302-0.208 0.326-0.23 0.125-0.092 0.223-0.154 0.185-0.122 0.193-0.133c9e-3 -0.011 0.094-0.069 0.189-0.129s0.181-0.118 0.189-0.129c9e-3 -0.011 0.073-0.058 0.143-0.104 0.069-0.046 0.17-0.115 0.225-0.154s0.225-0.158 0.379-0.262c0.153-0.104 0.286-0.196 0.295-0.207s0.08-0.059 0.158-0.107c0.078-0.049 0.149-0.098 0.158-0.109s0.098-0.073 0.197-0.139c0.158-0.103 0.244-0.195 0.244-0.256 0-0.01-0.119-0.018-0.264-0.018-0.241 0-0.455 0.042-0.494 0.096-9e-3 0.012-0.08 0.061-0.158 0.109-0.078 0.049-0.148 0.096-0.156 0.107-9e-3 0.011-0.094 0.069-0.189 0.129s-0.193 0.128-0.217 0.15c-0.024 0.023-0.123 0.094-0.221 0.156s-0.187 0.122-0.195 0.133c-9e-3 0.011-0.094 0.069-0.189 0.129s-0.181 0.118-0.189 0.129c-9e-3 0.011-0.078 0.059-0.156 0.107-0.078 0.049-0.15 0.097-0.158 0.107-9e-3 0.011-0.193 0.14-0.41 0.287-0.542 0.366-0.735 0.5-0.775 0.533-0.019 0.016-0.095 0.066-0.17 0.113-0.108 0.068-0.143 0.077-0.164 0.043-0.015-0.023-0.027-0.058-0.027-0.078s-0.01-0.041-0.023-0.047c-0.013-7e-3 -0.093-0.147-0.177-0.312-0.279-0.542-0.673-1.3-0.807-1.56-0.073-0.139-0.155-0.271-0.184-0.293-0.039-0.03-0.352-0.039-1.31-0.039zm9.66 2e-3c-0.823-1e-3 -1.66 9e-3 -1.82 0.031-0.475 0.068-1.18 0.392-1.51 0.691-0.03 0.027-0.071 0.065-0.094 0.084-0.119 0.102-0.373 0.393-0.451 0.518-0.049 0.078-0.097 0.149-0.107 0.158-0.072 0.06-0.223 0.435-0.305 0.758-0.088 0.348-0.03 0.812 0.135 1.07 0.12 0.19 0.433 0.432 0.627 0.484 0.033 9e-3 0.891 0.013 1.91 0.01l1.85-6e-3 0.252-0.096c0.428-0.163 0.819-0.37 0.957-0.508 0.023-0.023 0.052-0.043 0.064-0.043 0.033 0 0.408-0.371 0.504-0.5 0.047-0.063 0.108-0.14 0.137-0.172 0.046-0.051 0.276-0.495 0.346-0.668 0.044-0.108 0.092-0.431 0.092-0.621 0-0.612-0.319-1.05-0.85-1.16-0.106-0.023-0.915-0.033-1.74-0.033zm4.91 6e-3c-0.519-1e-3 -1.05 0.011-1.09 0.033-0.032 0.017-0.092 0.106-0.135 0.197-0.222 0.474-0.275 0.588-0.275 0.603 0 9e-3 -0.047 0.12-0.105 0.246-0.058 0.127-0.129 0.281-0.156 0.342-0.167 0.377-0.224 0.507-0.295 0.662-0.044 0.095-0.091 0.202-0.105 0.236-0.04 0.094-0.218 0.488-0.285 0.633-0.186 0.399-0.346 0.787-0.346 0.838 1e-3 0.019 0.398 0.026 1.09 0.021l1.09-8e-3 0.072-0.143c0.04-0.078 0.113-0.226 0.158-0.33 0.046-0.104 0.104-0.24 0.131-0.301s0.075-0.17 0.107-0.244c0.066-0.15 0.157-0.353 0.246-0.553 0.033-0.074 0.085-0.19 0.115-0.26 0.08-0.183 0.231-0.518 0.299-0.664 0.052-0.112 0.13-0.287 0.268-0.6 0.023-0.052 0.075-0.172 0.117-0.268 0.131-0.295 0.158-0.373 0.137-0.408-0.014-0.022-0.526-0.035-1.04-0.035zm4.24 4e-3c-1.61-6e-3 -2.51 3e-3 -2.54 0.023-0.05 0.027-0.246 0.433-0.627 1.3-0.042 0.095-0.096 0.215-0.119 0.268-0.023 0.052-0.079 0.179-0.125 0.283s-0.11 0.247-0.143 0.316c-0.032 0.069-0.096 0.212-0.143 0.316-0.046 0.104-0.103 0.231-0.127 0.283-0.059 0.13-0.189 0.42-0.285 0.639-0.044 0.1-0.095 0.206-0.111 0.236s-0.029 0.076-0.029 0.104c0 0.044 0.267 0.049 2.61 0.039l2.61-0.01 0.236-0.088c0.301-0.11 0.538-0.223 0.758-0.363 0.212-0.135 0.204-0.13 0.478-0.383 0.564-0.519 0.874-1.14 0.877-1.77 2e-3 -0.443-0.159-0.764-0.519-1.03-0.017-0.013-0.096-0.052-0.174-0.086-0.136-0.059-0.241-0.061-2.63-0.07zm-9.5 0.652c0.634 0 0.669 3e-3 0.752 0.068s0.087 0.078 0.072 0.275c-0.015 0.194-0.047 0.288-0.244 0.713-0.032 0.069-0.092 0.205-0.135 0.301-0.042 0.095-0.106 0.233-0.139 0.307-0.132 0.285-0.364 0.689-0.754 0.846l-0.6 8e-3c-0.692 9e-3 -0.781-0.011-0.83-0.189-0.048-0.174 0.021-0.468 0.205-0.877 0.043-0.095 0.1-0.222 0.127-0.283 0.301-0.685 0.505-0.985 0.746-1.1 0.125-0.061 0.19-0.066 0.799-0.066zm8.86 4e-3h0.719c0.69 0 0.723 3e-3 0.807 0.068 0.082 0.064 0.087 0.079 0.072 0.262-9e-3 0.107-0.031 0.222-0.049 0.256s-0.045 0.097-0.062 0.141c-0.037 0.092-0.178 0.426-0.266 0.631-0.145 0.337-0.382 0.73-0.529 0.881-0.05 0.051-0.151 0.132-0.227 0.182l-0.139 0.09-1.43 0.021 0.027-0.092c0.014-0.05 0.042-0.119 0.061-0.152 0.019-0.034 0.071-0.146 0.117-0.25s0.116-0.266 0.158-0.357c0.042-0.092 0.076-0.173 0.076-0.182s0.029-0.085 0.066-0.166c0.168-0.37 0.26-0.574 0.35-0.779 0.053-0.122 0.131-0.296 0.174-0.387z"/>
 <!--text-here-->
</svg>
