<svg version="1.1" viewBox="0 0 32 32" xmlns="http://www.w3.org/2000/svg">
 <title>Xubuntu</title>
 <path fill="#111" d="m16 0a16 16 0 0 0-16 16 16 16 0 0 0 16 16 16 16 0 0 0 16-16 16 16 0 0 0-16-16zm4.99 6.48v0.01h0.05 0.04 0.01v0.01c0.04 0.03 0.07 0.07 0.11 0.11 0.08 0.1 0.11 0.15 0.12 0.24v0.02c0.12 1.88-0.2 3.8-0.67 5.63-0.03 0.05-0.06 0.1-0.07 0.16-0.04 0.21-0.11 0.36-0.22 0.44-0.11 0.07-0.15 0.09-0.18 0.08-0.04-0.01-0.11-0.07-0.16-0.15-0.01-0.02-0.02-0.04-0.03-0.07-0.29-1.08 0.07-2.22 0.19-3.35v-0.05c0.23-1.03 0.24-2.17 0.76-3.04v-0.01c0.01 0 0.03-0.02 0.05-0.03zm4.27 0.9c0.07 0 0.19 0.07 0.21 0.11 0.05 0.1 0.04 0.15-0.01 0.28-0.78 1.98-1.73 4.03-2.98 5.75v0.01h-0.01c-0.01 0.02-0.01 0.03-0.01 0.06-0.11 0.14-0.27 0.21-0.45 0.19-0.13-0.03-0.26-0.16-0.27-0.38 0.09-1.42 0.97-2.63 1.66-3.85 0.02-0.03 0.03-0.07 0.04-0.1 0.55-0.75 0.95-1.68 1.75-2.07h0.01 0.04 0.02zm-12.2 0.55v0.01c0.06 0 0.13 0.01 0.19 0.01 0.37 0.02 0.71 0.19 0.95 0.47 0.39 0.45 0.57 1.13 0.69 1.83 0.1 0.67 0.16 1.34 0.17 2.02v0.74c0 0.03-0.01 0.06-0.01 0.08h0.01v0.01c0.02 0.03 0.07 0.03 0.1 0.05 0.01 0.01 0.02 0.01 0.02 0.02h0.01 0.01c0.04 0.01 0.09 0.04 0.17 0.05 0.27 0.05 0.7 0.07 1.17 0.14 1.14 0.19 2.27 0.44 3.38 0.74 1.25 0.33 2.5 0.78 3.5 1.43s1.75 1.48 1.91 2.61c0.1 0.7-0.44 1.4-1.17 2.04s-1.68 1.24-2.71 1.81c-1.03 0.56-2.1 1.08-2.95 1.47-0.43 0.2-0.81 0.34-1.09 0.47-1.47 0.59-3.13 1.12-4.88 1.47-0.07 0-0.23 0.04-0.31 0.05-8.94 0.79-4.78-10.2-4.78-10.2s0.22-0.52 0.31-0.83c0.02-0.11 0.04-0.22 0.04-0.33-0.01-0.07-0.06-0.21-0.1-0.36-0.07-0.34-0.21-0.76-0.3-1.28-0.08-0.51-0.14-1.1-0.02-1.62 0.12-0.54 0.46-1.01 0.95-1.28 0.2-0.11 0.42-0.14 0.64-0.1 0.22 0.07 0.43 0.19 0.59 0.36 0.38 0.36 0.69 0.77 0.93 1.24 0.25 0.47 0.48 0.94 0.69 1.43 0.09 0.21 0.15 0.38 0.21 0.52 0.03 0.07 0.05 0.15 0.07 0.19 0.01 0.01 0.01 0.02 0.01 0.02v0.01c0.02 0.02 0.06 0.02 0.09 0.04v-0.01c0.01 0.01 0.07 0.04 0.12 0.05 0.09 0.02 0.15 0.05 0.24 0.05 0.04 0 0.09-0.02 0.12-0.05v-0.01s-0.01-0.02-0.01-0.03v-0.01h0.01c0.03-0.03 0.05-0.03 0.05-0.07v-0.09c-0.04-0.12-0.11-0.31-0.21-0.69-0.12-0.44-0.23-1.01-0.31-1.57s-0.11-1.1 0-1.6c0.12-0.48 0.38-0.89 0.86-1.07 0.14-0.05 0.32-0.17 0.45-0.19 0.06-0.01 0.13-0.01 0.19-0.01zm-1.51 5.3z"/>
 <!--text-here-->
</svg>
