<?xml version="1.0" encoding="UTF-8" standalone="no"?>
<!-- Created with Inkscape (http://www.inkscape.org/) -->

<svg
   width="256"
   height="256"
   viewBox="0 0 64 64"
   version="1.1"
   id="svg1"
   xmlns="http://www.w3.org/2000/svg"
   xmlns:svg="http://www.w3.org/2000/svg">
  <defs
     id="defs1" />
  <g
     id="layer1">
    <path
       id="rect9"
       style="fill:#666666;stroke-width:0.280446"
       d="M 12.402189,22.5 H 51.597811 C 56.252624,22.5 60,26.775024 60,32.085254 v 0.829492 C 60,38.224977 56.252624,42.5 51.597811,42.5 H 12.402189 C 7.7473771,42.5 4,38.224977 4,32.914746 V 32.085254 C 4,26.775024 7.7473771,22.5 12.402189,22.5 Z" />
    <path
       id="rect6-5"
       style="fill:#00ff00;stroke-width:0.165806"
       d="m 14.999871,22.5 h 33.419197 c 3.149053,0 3.080804,0.01352 3.080804,4.184211 v 0.631578 C 51.499872,30.464842 48.964714,33 45.815661,33 H 18.184082 C 15.03503,33 12.499871,30.464842 12.499871,27.315789 V 26.684211 C 12.499871,22.5 12.263862,22.5 14.999871,22.5 Z" />
    <path
       id="rect7"
       style="fill:#dbffdb;stroke-width:0.0833112"
       d="m 24.497976,23.307693 h 9.004048 C 35.439903,23.307693 37,24.867791 37,26.805669 v 0.388664 c 0,1.937879 -1.560097,3.497976 -3.497976,3.497976 H 24.497976 C 22.560097,30.692309 21,29.132212 21,27.194333 v -0.388664 c 0,-1.937878 1.560097,-3.497976 3.497976,-3.497976 z" />
    <path
       id="rect5"
       style="fill:#999999;stroke-width:0.25;fill-rule:nonzero;fill-opacity:1"
       d="m 13,22.5 c -4.98599,0 -9,4.01401 -9,9 v 1 c 0,4.98599 4.01401,9 9,9 h 27 2 9 c 4.98599,0 9,-4.01401 9,-9 v -1 c 0,-4.98599 -4.01401,-9 -9,-9 h -2.580566 c 3.149045,0 3.080566,0.0134 3.080566,4.184082 v 0.631836 C 51.5,30.464965 48.964965,33 45.815918,33 H 42 V 22.5 H 40 V 33 H 26 V 22.5 H 24 V 33 H 18.184082 C 15.035035,33 12.5,30.464965 12.5,27.315918 V 26.684082 C 12.5,22.499879 12.263997,22.5 15,22.5 Z" />
  </g>
</svg>
