<svg version="1.1" viewBox="0 0 32 32" xmlns="http://www.w3.org/2000/svg">
 <title>4M</title>
 <path fill="#111" d="m9.1 9.1-0.11 0.11c-0.61 0.6-1.2 1.3-1.9 2.1-0.6 0.76-1.2 1.6-1.7 2.4-0.53 0.79-0.98 1.6-1.4 2.3-0.42 0.76-0.76 1.4-1 2l-0.04 0.08v1.6h5.9v3.4h2.4v-3.4h1.6v-2.1h-1.6v-8.4zm6.2 0-0.04 0.3c-0.11 0.95-0.23 2-0.34 3.1-0.08 1.1-0.19 2.2-0.26 3.3-0.08 1.1-0.15 2.3-0.19 3.4-0.08 1.2-0.11 2.3-0.15 3.4l-0.04 0.34h2.5v-0.3c0.08-1.8 0.15-3.6 0.23-5.3 0.08-1.3 0.15-2.5 0.26-3.7 0.19 0.38 0.42 0.79 0.64 1.3 0.23 0.49 0.49 1.1 0.76 1.6 0.26 0.57 0.53 1.1 0.76 1.7l0.68 1.5c0.23 0.45 0.38 0.83 0.49 1.1l0.08 0.23h1.9l0.08-0.23c0.11-0.3 0.3-0.68 0.49-1.1 0.23-0.45 0.45-0.98 0.68-1.5s0.49-1.1 0.76-1.7c0.26-0.57 0.53-1.1 0.79-1.6 0.23-0.49 0.42-0.91 0.61-1.3 0.11 1.2 0.19 2.4 0.26 3.8 0.08 1.7 0.19 3.5 0.23 5.3v0.3h2.5l-0.04-0.35c-0.22-4.5-0.53-9-0.98-13l-0.04-0.3h-2.1l-0.11 0.15c-0.34 0.57-0.72 1.2-1.1 2s-0.79 1.6-1.2 2.4c-0.38 0.83-0.79 1.7-1.1 2.5l-0.68 1.6-0.72-1.6c-0.38-0.84-0.75-1.7-1.1-2.5-0.42-0.83-0.8-1.7-1.2-2.4-0.37-0.75-0.75-1.4-1.1-2l-0.12-0.15zm-6.4 3.3v5.1h-3.3c0.19-0.38 0.38-0.8 0.6-1.2 0.34-0.57 0.68-1.1 1-1.7 0.38-0.53 0.72-1.1 1.1-1.6 0.19-0.26 0.38-0.45 0.57-0.68z"/>
 <!--text-here-->
</svg>
