<svg version="1.1" viewBox="0 0 32 32" xmlns="http://www.w3.org/2000/svg">
 <title>Alpine</title>
 <path fill="#111" d="m13 10 4.3 4.4 0.027 0.029v-4e-3l6.4 6.3c-0.32 0.22-0.62 0.4-0.9 0.55-0.26 0.14-0.52 0.25-0.8 0.35-0.22 0.08-0.45 0.14-0.68 0.18-0.37 0.075-0.75 0.075-1.1 0-0.22-0.045-0.42-0.12-0.61-0.23l-0.088-0.064-6.6-6.6-6.7 6.6c-8e-3 0-0.035 0.023-0.088 0.061-0.35 0.19-0.75 0.29-1.2 0.28-0.43-0.013-0.85-0.091-1.3-0.23-0.24-0.087-0.51-0.2-0.8-0.35-0.28-0.15-0.58-0.33-0.9-0.55zm7.6 1.3 9.5 9.5c-0.32 0.22-0.62 0.4-0.9 0.55-0.28 0.15-0.55 0.26-0.8 0.35-0.25 0.083-0.47 0.14-0.68 0.18-0.37 0.075-0.75 0.075-1.1 0-0.16-0.03-0.28-0.072-0.38-0.12-0.11-0.047-0.22-0.11-0.32-0.18l-2-2-3.4-3.4-0.54 0.54-2.5-2.5zm-9.6 6.6 4e-3 4.1c-0.43-0.02-0.84-0.1-1.2-0.24-0.24-0.087-0.5-0.2-0.78-0.34-0.28-0.15-0.58-0.32-0.89-0.54z"/>
 <!--text-here-->
</svg>
