<svg version="1.1" viewBox="0 0 32 32" xmlns="http://www.w3.org/2000/svg">
 <title>Android</title>
 <path fill="#111" d="m9.53 3.41c0.0617 0.0165 0.118 0.0572 0.152 0.117l1.28 2.22c1.33-1.35 3.15-2.1 5.04-2.1 1.89 5e-4 3.71 0.759 5.04 2.11l1.28-2.22c0.0693-0.12 0.222-0.161 0.342-0.0918 0.12 0.0693 0.161 0.222 0.0918 0.342l-1.36 2.35c0.945 1.11 1.53 2.48 1.66 3.93h-14.1c0.138-1.45 0.719-2.82 1.66-3.93l-1.36-2.36c-0.0693-0.12-0.0282-0.272 0.0918-0.342 0.06-0.0346 0.128-0.0419 0.19-0.0254zm3.61 3.12c-0.45 3e-4 -0.815 0.366-0.814 0.816 3e-4 0.45 0.365 0.814 0.814 0.814 0.45 8e-4 0.816-0.364 0.816-0.814 8e-4 -0.451-0.365-0.817-0.816-0.816zm5.73 0c-0.451-8e-4 -0.817 0.365-0.816 0.816 3e-4 0.45 0.366 0.815 0.816 0.814 0.45-3e-4 0.814-0.365 0.814-0.814 8e-4 -0.45-0.364-0.816-0.814-0.816zm-9.95 4.2h14.2c6e-3 0.0591 0.0098 0.119 0.0098 0.18v10.1c0 1.09-0.862 1.97-1.93 1.97h-0.0781v4.01c0 0.864-0.696 1.56-1.56 1.56s-1.56-0.696-1.56-1.56v-4.01h-3.92v4.01c0 0.864-0.696 1.56-1.56 1.56s-1.56-0.696-1.56-1.56v-4.01h-0.0781c-1.07 0-1.93-0.878-1.93-1.97v-10.1c0-0.0605 0.0048-0.121 0.0098-0.18zm-2.52 0.904c0.864 0 1.56 0.696 1.56 1.56v6.69c0 0.864-0.696 1.56-1.56 1.56s-1.56-0.696-1.56-1.56v-6.69c0-0.865 0.696-1.56 1.56-1.56zm19.2 0c0.864 0 1.56 0.696 1.56 1.56v6.69c0 0.864-0.696 1.56-1.56 1.56s-1.56-0.696-1.56-1.56v-6.69c0-0.865 0.696-1.56 1.56-1.56z"/>
 <!--text-here-->
</svg>
