<svg version="1.1" viewBox="0 0 32 32" xmlns="http://www.w3.org/2000/svg">
 <title>Anonymous</title>
 <path fill="#111" d="m17.3 30.9c0.438-0.136 0.79-0.329 1.19-0.65 0.899-0.722 1.52-1.56 3.85-5.19 1.75-2.73 2.4-3.95 2.89-5.38 0.223-0.658 0.484-1.79 0.484-2.12 0-0.132-0.015-0.159-0.076-0.147-0.11 0.019-0.333 0.378-0.416 0.661-0.087 0.302-0.412 1.12-0.726 1.83-0.408 0.918-1.12 2.12-2.2 3.73-2.07 3.07-2.01 2.98-2.12 2.94-0.06-0.023-0.06-0.045-4e-3 -0.2 0.076-0.215 0.412-0.79 0.858-1.47 0.185-0.28 0.457-0.737 0.605-1.02 0.147-0.28 0.363-0.65 0.476-0.824 0.144-0.219 0.208-0.359 0.208-0.461 0-0.079-0.023-0.144-0.045-0.144-0.026 0-0.144 0.087-0.265 0.193-0.197 0.174-0.374 0.257-0.306 0.147 0.015-0.023 0.336-0.393 0.71-0.82 1.07-1.22 1.42-1.73 1.63-2.39 0.121-0.378 0.189-1.04 0.11-1.04-0.098 0-0.427 0.491-0.983 1.47-0.314 0.555-0.642 1.1-0.726 1.2-0.858 1.08-2.46 1.83-4.21 1.98-0.174 0.015-0.574 0.076-0.888 0.136-0.559 0.106-0.586 0.11-1.36 0.06-0.907-0.057-1.34-0.132-1.47-0.257-0.079-0.072-0.147-0.087-0.476-0.087-0.469 0-0.911-0.079-1.55-0.283-1.1-0.346-2.01-0.811-2.69-1.37-0.522-0.434-0.711-0.703-1.32-1.89-0.408-0.801-0.635-1.17-0.707-1.17-0.121 0 0.17 0.948 0.45 1.48 0.442 0.831 0.877 1.37 1.99 2.47 1.58 1.56 1.91 1.8 3.04 2.17 0.952 0.317 1.47 0.389 2.88 0.389 0.884 0 0.888 0 1.01 0.106 0.102 0.087 0.155 0.102 0.272 0.079 0.094-0.019 0.144-0.011 0.144 0.019 0 0.026-0.117 0.204-0.261 0.397-0.363 0.487-0.438 0.665-0.435 1.03 0 0.246 0.03 0.374 0.17 0.722 0.166 0.423 0.166 0.427 0.162 0.998-4e-3 0.537-0.015 0.62-0.2 1.32-0.276 1.06-0.31 1.49-0.117 1.49 0.045 0 0.242-0.049 0.435-0.11zm-2.34-0.272c-4e-3 -0.151-0.087-0.593-0.185-0.979-0.283-1.14-0.344-1.63-0.249-2.04 0.023-0.102 0.14-0.393 0.253-0.642 0.189-0.408 0.212-0.484 0.208-0.748-4e-3 -0.336-0.091-0.612-0.28-0.88-0.159-0.219-0.299-0.295-0.85-0.438-0.227-0.06-0.635-0.2-0.907-0.317-0.272-0.113-0.631-0.253-0.801-0.306-0.374-0.117-0.465-0.087-0.435 0.14 0.023 0.151 0.019 0.525-4e-3 1.08-0.011 0.291 8e-3 0.401 0.121 0.763 0.136 0.427 0.166 0.635 0.098 0.741-0.098 0.155-0.344-0.185-0.62-0.865-0.211-0.516-0.854-1.76-1.34-2.6-0.386-0.657-1.08-1.76-2.01-3.21-0.529-0.816-0.843-1.41-1.12-2.11-0.333-0.858-0.677-1.42-0.869-1.42-0.155 0-0.14 0.178 0.068 0.812 0.692 2.12 1.73 4.17 3.84 7.61 0.839 1.36 1.12 1.77 1.46 2.15 0.144 0.159 0.555 0.741 0.922 1.29 0.54 0.816 0.737 1.07 1.07 1.41 0.223 0.223 0.499 0.461 0.608 0.525 0.28 0.162 0.752 0.325 0.903 0.31l0.128-0.011-8e-3 -0.276zm1.15-2.5c-4e-3 -0.193-0.091-0.34-0.155-0.272-0.023 0.023-0.026 0.132-0.011 0.261 0.023 0.17 0.045 0.215 0.102 0.204 0.053-0.011 0.068-0.06 0.068-0.193zm1-5.12c0-0.03-0.038-0.11-0.083-0.181-0.113-0.174-0.88-0.998-1.06-1.14-0.14-0.11-0.151-0.113-0.257-0.045-0.128 0.079-0.11 0.06-0.658 0.737-0.287 0.355-0.408 0.533-0.378 0.563 0.045 0.045 1.05 0.102 1.96 0.113 0.359 4e-3 0.48-8e-3 0.48-0.045zm2.44-1.62c1.22-0.295 1.86-0.695 2.55-1.58 0.325-0.416 0.654-0.941 0.654-1.04 0-0.079-0.042-0.087-0.914-0.166-0.877-0.079-1.28-0.212-1.28-0.427 0-0.102 8e-3 -0.106 0.299-0.091 0.162 8e-3 0.529 0.042 0.816 0.076 0.684 0.079 0.945 0.076 1.71-0.023 0.688-0.091 0.952-0.174 1.3-0.401 0.325-0.215 1.05-0.873 1.24-1.13 0.219-0.291 0.28-0.408 0.397-0.801 0.087-0.287 0.098-0.438 0.117-1.47l0.023-1.16-0.249-0.026c-0.136-0.015-0.476-0.064-0.756-0.11-0.612-0.098-0.752-0.102-1.02-0.011-0.178 0.06-0.533 0.076-2.25 0.102-1.12 0.019-2.2 0.045-2.4 0.06-0.503 0.042-0.676-0.015-0.986-0.31-0.136-0.128-0.249-0.261-0.249-0.287 0-0.11 0.265-0.435 0.453-0.559 0.51-0.329 1.25-0.752 1.46-0.831 0.571-0.219 1.57-0.272 2.29-0.121 0.726 0.151 1.4 0.537 1.72 0.99 0.208 0.291 0.246 0.314 0.612 0.389 0.159 0.034 0.355 0.098 0.435 0.144 0.17 0.098 0.684 0.261 0.828 0.261 0.102 0 0.102-4e-3 0.102-0.45 0-0.51-0.064-2.17-0.128-3.34-0.136-2.37-0.495-4.19-1.05-5.28-0.574-1.14-1.84-1.81-4.33-2.3-1.87-0.37-3.73-0.525-5.42-0.449-4.06 0.177-6.7 0.789-7.94 1.85-0.665 0.563-1.06 1.4-1.38 2.94-0.424 2-0.575 3.61-0.609 6.53l-0.023 2.02 0.136 0.404c0.336 0.994 0.937 2.01 1.47 2.51 0.295 0.272 0.763 0.544 1.03 0.593 0.329 0.064 1.33 0.053 2.02-0.023 0.329-0.034 0.79-0.076 1.03-0.091 0.423-0.026 0.435-0.023 0.435 0.064 0 0.128-0.14 0.2-0.597 0.299-0.926 0.2-1.13 0.227-1.65 0.223-0.624-4e-3 -0.639 8e-3 -0.435 0.367 0.348 0.62 0.797 1.13 1.28 1.46 0.544 0.37 1.84 0.926 2.39 1.02 0.359 0.064 0.646-0.011 0.933-0.246 0.291-0.234 0.393-0.382 0.385-0.559-4e-3 -0.128-0.042-0.185-0.219-0.351-0.117-0.11-0.227-0.242-0.238-0.299-0.015-0.057 4e-3 -0.283 0.042-0.503 0.113-0.688 0.064-1.17-0.117-1.14-0.045 8e-3 -0.106 0.049-0.132 0.098-0.026 0.045-0.11 0.174-0.185 0.28-0.215 0.306-0.31 0.567-0.31 0.85 0 0.234-8e-3 0.253-0.106 0.276-0.079 0.019-0.155-4e-3 -0.276-0.091-0.344-0.238-0.552-0.654-0.552-1.1 0-0.476 0.181-0.752 0.68-1.02 0.359-0.197 0.601-0.453 0.703-0.737 0.087-0.246 0.302-1.46 0.385-2.18 0.038-0.329 0.064-0.967 0.068-1.68l8e-3 -1.15-0.336-0.654c-0.302-0.583-0.366-0.674-0.608-0.889-0.151-0.133-0.495-0.435-0.767-0.677-0.847-0.752-1.23-0.982-1.85-1.12-0.601-0.128-0.877-0.264-0.877-0.427 0-0.155 0.257-0.223 0.767-0.193 1.01 0.057 1.61 0.378 3.03 1.61 1.02 0.888 1.25 1.18 1.55 1.9 0.072 0.174 0.17 0.48 0.219 0.68 0.17 0.707 0.185 1.05 0.136 3.42-0.026 1.23-0.053 2.26-0.064 2.29-0.076 0.223-0.321 2.05-0.325 2.42-4e-3 0.416 4e-3 0.442 0.11 0.555 0.28 0.291 0.975 0.469 1.52 0.382 0.336-0.053 0.487-0.117 0.741-0.325 0.098-0.079 0.227-0.166 0.291-0.197 0.128-0.06 0.057-0.121 0.665 0.567 0.453 0.514 0.786 0.597 1.59 0.401zm-0.487-2.52c-0.064-0.302-0.265-0.726-0.401-0.854-0.057-0.053-0.2-0.121-0.321-0.155s-0.249-0.079-0.283-0.11c-0.155-0.128 8e-3 -0.457 0.2-0.408 0.174 0.045 0.608 0.348 0.744 0.521 0.336 0.423 0.45 0.907 0.268 1.13-0.049 0.064-0.106 0.117-0.125 0.117s-0.057-0.11-0.083-0.246zm-12.4-5.05c0-0.06 0.049-0.234 0.113-0.389 0.113-0.28 0.113-0.284 0.038-0.477-0.042-0.105-0.083-0.245-0.095-0.306-0.022-0.124-0.06-0.106 0.511-0.253 0.106-0.026 0.196-0.094 0.276-0.2 0.204-0.276 0.537-0.582 0.778-0.722 0.605-0.344 1.47-0.503 2.38-0.435 0.54 0.042 0.862 0.136 1.42 0.423 0.956 0.491 1.35 0.771 1.41 1.01 0.06 0.231-0.231 0.555-0.597 0.665-0.283 0.087-0.986 0.14-2.74 0.215-0.873 0.038-1.73 0.091-1.91 0.125-0.646 0.11-1.3 0.283-1.39 0.367-0.121 0.113-0.189 0.102-0.189-0.026zm11-2.34c-0.057-0.057-0.026-0.487 0.042-0.624 0.295-0.574 0.858-1.19 1.78-1.95 1.07-0.88 1.83-1.22 2.74-1.22 0.378 0 0.555 0.06 0.555 0.193 0 0.174-0.265 0.31-1 0.51-0.521 0.144-0.646 0.204-1.07 0.537-0.903 0.714-2.32 2.02-2.71 2.49-0.072 0.087-0.28 0.125-0.344 0.064zm-3.81-1.86c-0.102-0.052-0.415-0.313-0.699-0.578-0.612-0.574-0.865-0.752-1.49-1.05-0.891-0.424-1.46-0.552-2.28-0.518-0.85 0.034-1.25 0.219-1.92 0.869-0.223 0.219-0.42 0.397-0.435 0.397-0.117 0 0.117-0.469 0.442-0.873 0.438-0.548 1.16-1.02 1.8-1.19 0.476-0.125 1.12-0.17 1.65-0.114 1.25 0.128 2.29 0.597 3.15 1.41 0.525 0.499 0.699 0.888 0.582 1.32-0.11 0.404-0.416 0.529-0.805 0.333zm3.91 0.026c-0.249-0.173-0.336-0.706-0.17-1.05 0.11-0.235 0.764-0.87 1.17-1.14 1.37-0.907 2.8-1.2 4.07-0.839 0.718 0.204 1.49 0.748 1.96 1.38 0.215 0.283 0.412 0.65 0.389 0.714-8e-3 0.023-0.212-0.14-0.457-0.363-0.763-0.699-1.3-0.899-2.3-0.862-1.19 0.045-2.01 0.427-3.49 1.62-0.79 0.642-0.948 0.714-1.19 0.548z"/>
 <!--text-here-->
</svg>
