<svg version="1.1" viewBox="0 0 32 32" xmlns="http://www.w3.org/2000/svg">
 <title>CentOS</title>
 <path fill="#111" d="m16 3.5c0.04-0.01 0.09 0.01 0.12 0.04l3.57 3.58h5.05c0.08 0 0.15 0.07 0.15 0.15v5.05l3.57 3.57c0.06 0.06 0.06 0.16 0 0.22l-3.57 3.57v5.05c-0 0.08-0.07 0.15-0.15 0.15h-5.05l-3.57 3.57c-0.06 0.06-0.16 0.06-0.22 0l-3.57-3.57h-5.04c-0.09 0-0.16-0.07-0.16-0.15v-5.05l-3.57-3.57c-0.06-0.06-0.06-0.16 0-0.22l3.57-3.57v-5.05c0-0.08 0.07-0.15 0.15-0.15h5.04l3.57-3.58c0.03-0.02 0.06-0.04 0.1-0.04zm0.02 1.14-2.48 2.48h1.93c0.08 0 0.15 0.07 0.15 0.15v6.58l0.39 0.39 0.4-0.4v-6.57c0-0.08 0.07-0.15 0.15-0.15h1.93zm-8.04 3.33v3.5l1.37-1.37c0.03-0.03 0.06-0.04 0.1-0.04s0.08 0.01 0.11 0.04l4.65 4.65h0.55v-0.56l-4.64-4.64c-0.06-0.06-0.06-0.15 0-0.21l1.36-1.37zm4.71 0-1.48 1.48 3.55 3.55v-5.03zm4.57 0v5.03l3.56-3.56-1.48-1.47zm3.29 0 1.37 1.37c0.06 0.06 0.06 0.15 0 0.21l-4.66 4.66v0.55h0.56l4.65-4.65c0.03-0.03 0.06-0.04 0.1-0.04s0.08 0.01 0.11 0.04l1.37 1.37v-3.51zm-11.1 3.23-1.48 1.48v2.07h5.02zm13.1 0-3.55 3.55h5.02v-2.08zm2.32 2.32v1.93c-0 0.08-0.07 0.15-0.15 0.15h-6.57l-0.4 0.4 0.39 0.39h6.58c0.08 0 0.15 0.07 0.15 0.15v1.94l2.48-2.48zm-17.8 0-2.48 2.48 2.48 2.48v-1.94-0.02c0.01-0.07 0.06-0.12 0.13-0.13h0.02 6.58l0.39-0.39-0.4-0.4h-6.56c-0.09 0.01-0.16-0.06-0.16-0.14zm8.49 1.53v0.4c-0 0.08-0.07 0.15-0.15 0.15h-0.4l0.28 0.28c0.06 0.06 0.06 0.16 0 0.22l-0.28 0.28h0.4c0.08 0 0.15 0.07 0.15 0.15v0.4l0.28-0.28c0.03-0.03 0.06-0.04 0.1-0.05 0.05-0 0.09 0.01 0.12 0.05l0.28 0.28v-0.4-0.02c0-0.02 0.01-0.04 0.02-0.06 0.03-0.04 0.07-0.06 0.11-0.07h0.01 0.4l-0.28-0.28c-0.06-0.06-0.06-0.16 0-0.22l0.28-0.28h-0.4c-0.08-0-0.15-0.07-0.15-0.15v-0.4l-0.28 0.28c-0.06 0.06-0.16 0.06-0.22 0zm-7.64 2.19v2.09l1.47 1.48 3.56-3.56zm6.23 0-4.66 4.66c-0.03 0.03-0.07 0.04-0.1 0.05-0.03-0.01-0.07-0.02-0.1-0.05l-1.37-1.37v3.5h3.5l-1.36-1.36c-0.06-0.06-0.06-0.15 0-0.21l4.65-4.65v-0.56zm3.04 0v0.55l4.66 4.66c0.06 0.06 0.06 0.15 0 0.21l-1.37 1.37h3.5v-3.5l-1.37 1.37c-0.06 0.06-0.15 0.06-0.21 0l-4.66-4.66zm1.75 0 3.56 3.56 1.47-1.48v-2.09zm-3 0.52-0.39 0.39v6.59c-0 0.08-0.07 0.15-0.15 0.15h-1.94l2.48 2.48 2.48-2.48h-1.93c-0.08-0-0.15-0.07-0.15-0.15v-6.58zm1.25 1.24v5.03h2.09l1.48-1.47zm-2.49 0-3.55 3.56 1.47 1.47h2.08z"/>
 <!--text-here-->
</svg>
