<svg version="1.1" viewBox="0 0 32 32" xmlns="http://www.w3.org/2000/svg">
 <title>Devuan</title>
 <path fill="#111" d="m7.29 7.21c6.68 1.09 6.72 1.21 9.17 1.92s4.21 1.38 5.63 2.26 2.2 1.63 2.61 2.56c0.415 0.926 0.375 1.84-0.02 2.7s-1.1 1.59-2.55 2.54-3.48 2.18-5.68 3.12c-2.21 0.933-6.2 2.44-7.55 2.48-1.35 0.035-1.7-0.712-1.81-1.14-0.109-0.427-0.307-1.46 0.739-2.12s3.93-1.09 5.9-1.81 4.53-1.6 5.9-2.48c1.37-0.884 2.02-1.47 2.14-2.55s-0.263-1.98-1.52-2.82c-1.26-0.838-2.4-1.37-4.56-2.15-2.17-0.777-3.65-1.38-8.4-2.5z"/>
 <!--text-here-->
</svg>
