<svg version="1.1" viewBox="0 0 32 32" xmlns="http://www.w3.org/2000/svg">
 <title>Driver</title>
 <path fill="#111" d="m11.7 7.5 0.516 0.742c0.3-0.0522 0.608-0.0529 0.908-0.00195l0.514-0.74 1.48 0.854-0.385 0.816c0.0978 0.117 0.185 0.243 0.262 0.375 0.0753 0.132 0.139 0.27 0.191 0.412l0.9 0.0742v1.71l-0.9 0.0762c-0.105 0.286-0.259 0.551-0.453 0.785l0.385 0.818-1.48 0.854-0.516-0.744c-0.3 0.052-0.606 0.0527-0.906 2e-3l-0.516 0.742-1.48-0.855 0.385-0.814c-0.0976-0.117-0.185-0.242-0.262-0.373-0.0748-0.132-0.138-0.271-0.189-0.414l-0.902-0.0762v-1.71l0.902-0.0762c0.105-0.285 0.257-0.551 0.451-0.785l-0.385-0.816zm0.945 2.41c-0.163 0.00341-0.323 0.0477-0.465 0.129-0.467 0.27-0.626 0.867-0.355 1.33 0.27 0.465 0.866 0.624 1.33 0.355 0.467-0.269 0.628-0.865 0.359-1.33-0.179-0.309-0.514-0.496-0.871-0.486zm3.12 3.2h2.85l0.127 1.5c0.476 0.175 0.919 0.429 1.31 0.752l1.36-0.641 1.42 2.47-1.23 0.857c0.0435 0.25 0.0657 0.502 0.0664 0.756-2e-3 0.253-0.0255 0.506-0.0703 0.756l1.24 0.859-1.42 2.47-1.36-0.643c-0.39 0.324-0.833 0.58-1.31 0.756l-0.125 1.5h-2.85l-0.125-1.5c-0.477-0.174-0.921-0.429-1.31-0.752l-1.36 0.641-1.42-2.47 1.23-0.855c-0.0431-0.251-0.0646-0.505-0.0644-0.76 8.03e-4 -0.253 0.023-0.505 0.0664-0.754l-1.24-0.859 1.42-2.47 1.37 0.645c0.389-0.325 0.831-0.581 1.31-0.758zm1.42 4.07c-0.897 0.0012-1.62 0.728-1.62 1.62-9.96e-4 0.898 0.726 1.63 1.62 1.63 0.9 9.84e-4 1.63-0.729 1.63-1.63-0.0012-0.898-0.73-1.63-1.63-1.62z"/>
</svg>
