<svg version="1.1" viewBox="0 0 32 32" xmlns="http://www.w3.org/2000/svg">
 <title>GamerOS</title>
 <path fill="#111" d="m16 6c2.76 0 5.27 1.12 7.08 2.92 0.261 0.261 0.261 0.683 0 0.944-0.26 0.26-0.682 0.26-0.942 0-1.57-1.57-3.73-2.54-6.13-2.54-4.8 0-8.66 3.86-8.66 8.66 0 4.8 3.86 8.67 8.67 8.67 4.58 0 8.3-3.51 8.63-8h-7.3c-0.369 0-0.668-0.297-0.668-0.666 0-0.369 0.298-0.668 0.668-0.668h7.97c0.01-8.33e-4 0.0208-0.0017 0.0308-0.0017 0.0892 8.33e-4 0.177 0.0183 0.259 0.0533 0.08 0.0333 0.152 0.0825 0.213 0.143 0.06 0.0608 0.108 0.132 0.142 0.212 0.035 0.0817 0.0533 0.17 0.0533 0.259 0 5.52-4.48 10-10 10-5.52 0-10-4.48-10-10 0-5.52 4.48-10 10-10zm0.0033 2c0.369 0 0.666 0.297 0.666 0.666v6c0 0.369-0.297 0.668-0.666 0.668-0.369 0-0.668-0.298-0.668-0.668v-6c0-0.369 0.298-0.666 0.668-0.666zm-7.33 7.33h6c0.369 0 0.668 0.298 0.668 0.668 0 0.369-0.298 0.666-0.668 0.666h-6c-0.369 0-0.666-0.297-0.666-0.666 0-0.369 0.297-0.668 0.666-0.668zm7.33 1.33c0.369 0 0.666 0.298 0.666 0.668v6c0 0.369-0.297 0.666-0.666 0.666-0.369 0-0.668-0.297-0.668-0.666v-6c0-0.369 0.298-0.668 0.668-0.668z"/>
 <!--text-here-->
</svg>
