<svg version="1.1" viewBox="0 0 32 32" xmlns="http://www.w3.org/2000/svg">
 <title>GNU-Linux</title>
 <path fill="#111" d="m16.4 6c-0.128-2.4e-4 -0.262 0.0061-0.402 0.0173-3.12 0.251-2.75 3.18-2.66 4.73 1.49e-4 0.0034-2.08e-4 0.0062 0 0.0096 0.0064 0.156 0.0113 0.282 0.0135 0.385 1.4e-5 2e-3 -4e-6 0.0038 0 0.0058 0.0012 0.0549 1.49e-4 0.0934 0 0.138-0.0648 0.909-0.251 1.63-0.875 2.52-2e-3 0.0027-0.0038 5e-3 -0.0058 0.0077-0.738 0.878-1.78 2.3-2.27 3.77-0.218 0.656-0.326 1.32-0.254 1.96-0.00317 0.0726-0.00968 0.123-0.0192 0.154-0.0198 0.0191-0.0389 0.0378-0.0577 0.0577-0.217 0.232-0.377 0.511-0.556 0.7-0.167 0.166-0.404 0.23-0.665 0.323-0.261 0.0938-0.547 0.232-0.721 0.565l-0.00193 2e-3c-0.0818 0.153-0.108 0.317-0.108 0.485 0 0.155 0.0231 0.313 0.0462 0.463 0.048 0.314 0.0973 0.611 0.0327 0.812-0.207 0.565-0.234 0.955-0.0885 1.24 0.146 0.284 0.446 0.408 0.785 0.479 0.678 0.141 1.59 0.107 2.32 0.49 0.774 0.405 1.56 0.549 2.18 0.406 0.442-0.101 0.803-0.361 0.996-0.758 0.0172-0.0155 0.038-0.0267 0.0654-0.0346 0.477-0.0147 1.01-0.208 1.84-0.254 0.582-0.0469 1.31 0.204 2.14 0.16l0.0115 2e-3c0.0218 0.0907 0.0529 0.177 0.0962 0.26 4.51e-4 7.52e-4 0.0013 0.0032 2e-3 0.0038 0.325 0.65 0.929 0.947 1.57 0.896 0.645-0.0508 1.33-0.431 1.88-1.09l-0.0115-0.0115 0.0135 0.0096c0.528-0.641 1.4-0.905 1.99-1.26 0.291-0.175 0.526-0.395 0.544-0.713 0.0182-0.319-0.17-0.676-0.6-1.15v-2e-3c-0.142-0.16-0.208-0.456-0.281-0.771-0.0723-0.315-0.153-0.655-0.412-0.875l-2e-3 -2e-3c-0.0513-0.0448-0.105-0.082-0.158-0.113-0.0389-0.023-0.0779-0.0407-0.117-0.0577-0.0035-0.0035-0.0102-0.0081-0.0135-0.0115-0.0025-0.0027-0.0053-0.0051-0.0077-0.0077-0.0059-0.0076-0.0089-0.0155-0.0115-0.0231-6.01e-4 -0.0022-8.9e-4 -0.0055-2e-3 -0.0077 0.347-1.06 0.206-2.11-0.154-3.06-0.445-1.18-1.22-2.21-1.82-2.91-0.575-0.725-1.14-1.42-1.27-2.35-0.0108-0.149-0.0205-0.394-0.0288-0.737 0.0254-1.84 0.0465-4.85-2.96-4.85zm0.421 2.77h0.0077c0.179 0 0.333 0.0552 0.49 0.169 0.16 0.116 0.275 0.259 0.367 0.462 0.0909 0.198 0.134 0.392 0.138 0.621 0 6e-3 1.78e-4 0.0112 2e-3 0.0173 2e-3 0.235-0.0376 0.436-0.127 0.64-0.0366 0.0839-0.0844 0.149-0.131 0.215 0.203 0.102 0.384 0.195 0.49 0.379 0.127 0.22 0.138 0.439 0.0135 0.654-0.104 0.18-0.237 0.327-0.417 0.473 0.18 0.185 0.319 0.415 0.385 0.706 0.27 1.19 0.788 1.85 1.24 2.69 0.239 0.444 0.716 1.39 0.921 2.52 0.0985 0.48-0.376 0.398-0.523 0.904-0.0066 0.0357-0.0132 0.0728-0.0173 0.11-0.0573 0.02-0.113 0.0454-0.171 0.0769-0.359 0.197-0.556 0.553-0.665 0.99-0.109 0.437-0.139 0.965-0.169 1.56v2e-3c-0.0185 0.299-0.143 0.703-0.267 1.13-1.25 0.895-2.99 1.28-4.47 0.273-0.1-0.158-0.215-0.316-0.333-0.471-0.0755-0.0988-0.154-0.195-0.231-0.292 0.152 2.32e-4 0.28-0.026 0.385-0.0731 0.13-0.059 0.22-0.152 0.265-0.273 0.09-0.242-6.5e-5 -0.584-0.288-0.975-0.288-0.39-0.777-0.831-1.49-1.27-0.216-0.146-0.343-0.493-0.35-0.821 0.0228-0.808 0.215-1.63 0.538-2.4 0.472-1.07 1.42-2.04 1.48-3.52 0.0085-0.233 0.105-0.442 0.252-0.627l-0.0058-0.0058c-0.372-0.21-0.604-0.46-0.69-0.74-0.0821-0.271 0.0236-0.591 0.254-0.763 0.137-0.103 0.215-0.161 0.296-0.221-0.0614-0.0736-0.122-0.145-0.169-0.252-0.0755-0.172-0.117-0.343-0.129-0.546v-0.0019c-0.0113-0.203 0.0077-0.375 0.0635-0.556 0.056-0.18 0.13-0.312 0.238-0.419 0.108-0.107 0.218-0.162 0.35-0.169 0.0102-4.84e-4 0.0205 0 0.0308 0 0.119 2.31e-4 0.225 0.039 0.335 0.127 0.119 0.0954 0.211 0.217 0.287 0.388 0.0758 0.172 0.114 0.343 0.125 0.546v0.0019c0.0031 0.0513 5.38e-4 0.0981 0 0.146 0.115-0.031 0.233-0.0611 0.369-0.0615 0.111-4.69e-4 0.236 0.0325 0.358 0.0596-0.0023-0.0326-7e-3 -0.064-0.0077-0.0981v-0.0173c-0.0027-0.235 0.0348-0.434 0.125-0.638 0.0902-0.204 0.202-0.353 0.36-0.473 0.157-0.119 0.313-0.175 0.496-0.177zm-0.0096 0.767c-0.0784 2.31e-4 -0.145 0.0278-0.215 0.0865-0.0739 0.0618-0.131 0.142-0.177 0.252-0.0455 0.11-0.0668 0.218-0.0712 0.348 5e-4 0.014-9.23e-4 0.0269 2e-3 0.0423 0.0048 0.0426 0.0174 0.0717 0.025 0.11 0.0887 0.0454 0.17 0.0706 0.263 0.131h0.0077c0.122 0.0794 0.263 0.13 0.44 0.192 0.0784-0.103 0.14-0.247 0.162-0.433 9.84e-4 -0.0083 0.0015-0.0156 2e-3 -0.025 0.0027-0.124-0.0121-0.23-0.0481-0.338-0.0378-0.114-0.0882-0.196-0.158-0.263-0.0697-0.0678-0.136-0.0991-0.219-0.102-0.0039-2.33e-4 -0.0095 0-0.0135 0zm-2.45 0.148c-0.0052 0-0.0099 0.00149-0.0154 0.00192-0.0602 0.00514-0.11 0.0328-0.158 0.0904-0.0471 0.0574-0.0776 0.128-0.1 0.223-0.0226 0.0944-0.0285 0.19-0.0192 0.296v0.0115c0.0102 0.103 0.0306 0.188 0.0673 0.275 0.0268 0.0634 0.0623 0.102 0.0981 0.142 0.0941-0.0904 0.252-0.257 0.487-0.396-6.62e-4 -0.0313 0.0046-0.0644 2e-3 -0.0904-6.99e-4 -0.0042-2e-3 -0.0073-2e-3 -0.0115-0.0102-0.102-0.0313-0.188-0.0673-0.275-0.0385-0.0902-0.0818-0.155-0.138-0.204-0.0513-0.0443-0.1-0.0639-0.154-0.0635zm1.13 0.687c-0.145 4.66e-4 -0.275 0.0272-0.39 0.0673-0.337 0.116-0.56 0.358-0.7 0.49-0.0274 0.0261-0.0642 0.0505-0.15 0.113-0.0865 0.0632-0.215 0.158-0.402 0.298-0.166 0.124-0.219 0.285-0.162 0.475 0.0571 0.19 0.239 0.409 0.573 0.598h2e-3c0.207 0.122 0.349 0.287 0.512 0.417 0.0814 0.0653 0.168 0.123 0.271 0.167 0.103 0.0441 0.222 0.0738 0.373 0.0827 0.353 0.0205 0.613-0.0858 0.842-0.217 0.23-0.131 0.426-0.291 0.65-0.363v-2e-3c0.458-0.143 0.786-0.43 0.888-0.704 0.0513-0.137 0.0497-0.268-0.0115-0.388-0.0613-0.12-0.187-0.234-0.4-0.321h-2e-3c-0.443-0.19-0.635-0.204-0.883-0.365-0.403-0.259-0.735-0.349-1.01-0.348zm4.16 9.25c0.0314 0.514 0.285 1.04 0.735 1.15 0.492 0.13 1.2-0.292 1.5-0.637 0.0599-0.0023 0.118-0.0063 0.175-0.0077 0.263-0.0063 0.482 9e-3 0.708 0.206v2e-3c0.173 0.147 0.258 0.423 0.329 0.733 0.0714 0.31 0.128 0.65 0.342 0.89 0.411 0.456 0.544 0.765 0.533 0.962-0.0113 0.197-0.156 0.341-0.419 0.5-0.526 0.317-1.46 0.594-2.05 1.32-0.517 0.615-1.15 0.954-1.7 0.998-0.555 0.0438-1.03-0.187-1.32-0.754h-2e-3v-2e-3c-0.175-0.333-0.103-0.861 0.0442-1.42 0.148-0.555 0.36-1.12 0.388-1.59v-2e-3c0.0297-0.593 0.0639-1.11 0.163-1.51 0.0998-0.4 0.257-0.671 0.535-0.823 0.013-7e-3 0.0256-0.0149 0.0385-0.0211zm-9.04 0.0385c0.0028 2.56e-4 0.0047 2.56e-4 0.0077 0 0.0415 2.61e-4 0.086 0.0042 0.133 0.0115 0.315 0.0476 0.589 0.266 0.854 0.625l0.763 1.39c0.203 0.424 0.633 0.891 0.996 1.37 0.363 0.476 0.644 0.954 0.608 1.32v0.0039c-0.0476 0.623-0.399 0.963-0.938 1.09-0.539 0.123-1.27 0.0014-2-0.381v-0.0038c-0.808-0.428-1.77-0.385-2.39-0.514-0.308-0.0644-0.51-0.16-0.602-0.34-0.0923-0.18-0.0944-0.495 0.102-1.03l0.00192-2e-3v-2e-3c0.0972-0.299 0.024-0.627-0.0231-0.935-0.0471-0.307-0.0686-0.588 0.0365-0.783v-2e-3c0.135-0.259 0.33-0.353 0.575-0.44 0.245-0.0879 0.536-0.157 0.765-0.387l0.00192-2e-3c0.212-0.223 0.373-0.505 0.56-0.704 0.157-0.168 0.313-0.279 0.55-0.281z"/>
 <!--text-here-->
</svg>
