<svg version="1.1" viewBox="0 0 32 32" xmlns="http://www.w3.org/2000/svg">
 <title>Help</title>
 <path fill="#111" d="m16 8c2.5 0 4.52 2.02 4.52 4.52 0 0.995-0.406 1.9-1.05 2.54l-1.02 1.04c-0.814 0.825-1.32 1.5-1.32 3.2h-2.26v-0.564c0-1.24 0.51-2.38 1.32-3.2l1.4-1.42c0.418-0.407 0.666-0.972 0.666-1.59 0-1.24-1.02-2.26-2.26-2.26s-2.26 1.02-2.26 2.26h-2.26c0-2.5 2.02-4.52 4.52-4.52zm-0.019 13.2h0.02c0.78-0 1.41 0.632 1.41 1.41-1e-3 0.781-0.634 1.41-1.42 1.41-0.78-1e-3 -1.41-0.634-1.41-1.41 1e-3 -0.772 0.621-1.4 1.39-1.41z"/>
</svg>
