<svg version="1.1" viewBox="0 0 32 32" xmlns="http://www.w3.org/2000/svg">
 <title>Kali</title>
 <path d="m14.6 6c1.18 1.52 2.26 3.31 3.93 4.31-1-0.938-1.84-2.63-2.22-4 3.07 4.95 3.88 3.1 6.94 8.42-0.147 0-0.291-0.013-0.423 0.043-0.109 1.15 1.26 1.98 2.17 2.37-0.292 1.16-1.18 1.99-2.34 2.29 1.33-1.96-2.05-3.61-3-4.32-0.5-0.375-1.03-1.24-1.41-1.72-1.49-1.97-4.07-2.78-6.42-2.01-2.7 0.868-3.22 4.3 0.616 6.84 0.209 0.136 4.67 2.2 5.65 3.07 1.18 1.04 2.2 2.56 2.02 4.71-0.547-5.52-6.78-4.86-10.6-8.58-0.258 0.123-0.457 0.345-0.549 0.616-0.123-0.5-0.158-1.43-0.492-2-0.349 0.121-0.687 0.236-1 0.464 0.281-0.706 0.375-1.49 0.507-2.24-0.379 0-0.694 0.073-1.04 0.156 0.434-0.601 0.834-1.23 1.2-1.87-0.282-0.213-0.635-0.309-0.986-0.266 0.556-0.34 1.24-0.747 1.77-1.2-0.168-0.275-0.385-0.561-0.679-0.759 0.694-0.066 1.4-0.193 2.09-0.312-0.119-0.353-0.258-0.704-0.551-0.97 0.64 0.114 1.39 0.332 2.08 0.269 0.043-0.298 0.015-0.639-0.155-0.958 0.648 0.332 1.33 0.6 2.03 0.802 9e-3 -0.215 0.044-0.489-0.056-0.744 0.809 0.655 1.84 0.962 2.77 1.42-0.845-1.1-1.41-2.56-1.89-3.83zm6.28 6.71c-0.955 0.238 0.652 1.3 1.06 1.44-0.417-0.415-0.709-0.955-1.06-1.44z" fill="#111" stroke-width="3.59"/>
 <!--text-here-->
</svg>
