<svg version="1.1" viewBox="0 0 32 32" xmlns="http://www.w3.org/2000/svg">
 <title>Kubuntu</title>
 <path fill="#111" d="m15.4 6c0.06 6e-3 0.109 0.043 0.136 0.096l1.24 2.6c0.604 0.018 1.22 0.121 1.81 0.311l2-1.99c0.055-0.056 0.142-0.066 0.208-0.024l1.59 0.962c0.069 0.042 0.099 0.126 0.072 0.202l-0.963 2.71c0.363 0.403 0.672 0.844 0.922 1.32h2.97c0.08 0 0.149 0.056 0.167 0.13l0.439 1.8c0.019 0.077-0.018 0.157-0.089 0.192l-3.72 0.81c-0.567-3.72-4.36-6.03-7.95-4.83l-0.03-0.017-0.797-3.66c0-0.077 0.056-0.146 0.131-0.164l1.81-0.437c0.021-6e-3 0.038-8e-3 0.059-8e-3zm-5.89 2.65c0.039-3e-3 0.078 8e-3 0.11 0.03l2.83 2.56c-2.98 2.28-3.17 6.68-0.409 9.22v0.041l-2.54 2.79c-0.067 0.04-0.152 0.029-0.208-0.024l-1.32-1.3c-0.058-0.057-0.067-0.147-0.021-0.215l1.59-2.41c-0.304-0.531-0.532-1.1-0.676-1.7l-2.74-0.67c-0.075-0.019-0.128-0.085-0.129-0.162v-1.85c0-0.08 0.057-0.148 0.134-0.166l2.83-0.586c0.158-0.518 0.377-1.01 0.647-1.47l-1.54-2.52c-0.041-0.066-0.031-0.152 0.025-0.207l1.32-1.31c0.027-0.029 0.064-0.047 0.104-0.051zm12.6 8.68 3.69 0.823c0.065 0.036 0.102 0.118 0.081 0.192l-0.483 1.78c-0.02 0.079-0.094 0.132-0.176 0.126l-2.89-0.168c-0.311 0.527-0.695 1.01-1.14 1.43l0.788 2.7c0.022 0.074-9e-3 0.153-0.076 0.192l-1.62 0.923c-0.069 0.04-0.156 0.026-0.21-0.032l-1.92-2.15c-0.53 0.124-1.07 0.183-1.6 0.177l-1.43 2.59c-0.037 0.07-0.119 0.104-0.195 0.083l-1.8-0.482c-0.077-0.021-0.129-0.092-0.125-0.171l0.969-3.66 0.019-9e-3c3.47 1.32 7.31-0.736 8.11-4.35z"/>
 <!--text-here-->
</svg>
