<svg version="1.1" viewBox="0 0 32 32" xmlns="http://www.w3.org/2000/svg">
 <title>Linux Mint</title>
 <path fill="#111" d="m6 7 13.1 0.051c3.72 1e-3 6.94 2.82 6.94 6.56v11.4h-10.7c-3.72 0-6.94-2.83-6.94-6.56l-2e-3 -4.53v-1.16h-2.36zm1.52 1.53v2.7h0.945c0.789 0.047 1.41 0.7 1.41 1.49l6e-3 5.71c0 2.78 2.43 5.04 5.43 5.04h7.4c0.947 0 1.78-0.605 1.78-1.53v-8.33c0-2.78-2.43-5.04-5.43-5.04h-3.12v-8e-3zm3.82 1.69h1.54v7.97c0 1.06 0.728 1.89 1.57 1.89l1.75 6e-3v1.62h-2.03c-0.718-0.077-1.36-0.419-1.89-0.948-0.624-0.621-0.944-1.39-0.944-2.27zm5.83 1.36c0.666-5e-3 1.3 0.257 1.78 0.728 0.487-0.472 1.09-0.728 1.78-0.728 0.69-7e-3 1.35 0.272 1.83 0.771 0.503 0.507 0.762 1.14 0.762 1.86l6e-3 3.6h-1.63l-0.01-3.6c0-0.275-0.088-0.492-0.284-0.689-0.196-0.199-0.404-0.29-0.674-0.29-0.256-7e-3 -0.503 0.099-0.676 0.29-0.194 0.197-0.282 0.414-0.282 0.689v3.62h-1.64v-3.62c0-0.275-0.088-0.492-0.284-0.689-0.196-0.199-0.402-0.29-0.676-0.29-0.256-6e-3 -0.503 0.099-0.676 0.29-0.194 0.197-0.282 0.414-0.282 0.689v3.62h-1.64v-3.62c-6e-3 -0.698 0.269-1.37 0.764-1.86 0.503-0.51 1.12-0.771 1.83-0.771z"/>
 <!--text-here-->
</svg>
