<svg version="1.1" viewBox="0 0 32 32" xmlns="http://www.w3.org/2000/svg">
 <title>OpenSUSE</title>
 <path fill="#111" d="m16 5c6.08 0 11 4.92 11 11s-4.92 11-11 11-11-4.92-11-11 4.92-11 11-11zm0.236 2.44c-0.078-1e-3 -0.157 0-0.236 2e-3v2e-3c-2.8-1e-3 -5.42 1.37-7.03 3.66 0.757 0.181 1.51 0.385 2.25 0.611l0.038-1.45c1.19 0.148 2.34 0.399 3.51 0.648 2.45 0.559 3.8 0.952 5.01 1.53 1.09 0.52 1.55 1.11 2.21 2.86 0.265 0.702 0.727 2.25 0.727 2.41 0 0.086-0.901 0.675-1.38 0.917-1.34 0.683-2.64 0.757-4.31 0.229-1.41-0.492-2.76-1.15-4.01-1.95l-0.648-0.419 0.688 1.72 0.917 0.421c1.94 0.933 3.55 1.52 4.54 1.57 0.961 0.049 2.07-0.244 3.33-0.841 0.335-0.159 0.616-0.267 0.65-0.267 0.088 0 0.024 0.441-0.156 0.917-0.182 0.501-0.364 0.691-1.22 1.11-1.64 0.8-3.11 1.17-5.35 1.34-0.98 0.073-1.8 0.015-3.28-0.154-1.02-0.117-1.8-0.107-2.29-0.039 1.58 1.47 3.65 2.29 5.81 2.29 4.75 0.098 8.67-3.69 8.73-8.44s-3.75-8.64-8.5-8.67zm1.79 6.19-4e-3 4e-3c-0.453 0.012-0.886 0.187-1.22 0.492-0.551 0.499-0.698 1.41-0.381 2.1 0.244 0.547 0.747 0.935 1.34 1.03 0.78 0.15 1.56-0.242 1.91-0.956 0.231-0.481 0.267-0.806 0.15-1.26-0.19-0.834-0.936-1.42-1.79-1.41zm0.417 0.956c0.312-0 0.682 0.156 0.729 0.346 0.062 0.252-0.021 0.446-0.27 0.573-0.379 0.195-0.858 0.152-1.14-0.118-0.353-0.333 0.047-0.8 0.686-0.8z"/>
 <!--text-here-->
</svg>
