<svg version="1.1" viewBox="0 0 32 32" xmlns="http://www.w3.org/2000/svg">
 <title>Recovery</title>
 <path fill="#111" d="m9.86 11.9a0.776 0.643 0 0 0-0.631 0.323l-2.13 3.05a0.776 0.643 0 0 0 0.082 0.735 0.776 0.643 0 0 0 0.588 0.227h4.26a0.776 0.643 0 0 0 0.67-0.962l-1.06-1.52-1.06-1.53a0.776 0.643 0 0 0-0.634-0.322 0.776 0.643 0 0 0-0.075 0zm10.1 3.94a0.776 0.643 0 0 0-0.67 0.962l1.07 1.52 1.06 1.53a0.776 0.643 0 0 0 0.634 0.322 0.776 0.643 0 0 0 0.704-0.323l1.06-1.52 1.06-1.53a0.776 0.643 0 0 0-0.082-0.736 0.776 0.643 0 0 0-0.586-0.225h-2.13zm-3.97-7.12c-0.674 0-1.22 0.546-1.22 1.22s0.546 1.22 1.22 1.22c2.7 0 4.88 2.18 4.88 4.88h2.44c0-4.04-3.28-7.32-7.32-7.32zm-7.32 7.32c0 4.04 3.28 7.32 7.32 7.32 0.674 0 1.22-0.546 1.22-1.22s-0.546-1.22-1.22-1.22c-2.7 0-4.88-2.18-4.88-4.88h-2.44z"/>
</svg>
