<svg version="1.1" viewBox="0 0 32 32" xmlns="http://www.w3.org/2000/svg">
 <title>Restart</title>
 <path fill="#111" d="m24.5 10.3a0.756 0.912 60 0 0-0.732 0.115l-4.33 2.5a0.756 0.912 60 0 0-0.117 1.37l1.98 0.926 1.98 0.928a0.756 0.912 60 0 0 0.835-0.045 0.756 0.912 60 0 0 0.527-0.743l0.188-2.18 0.186-2.18a0.756 0.912 60 0 0-0.515-0.701zm-6.65-2.58c-4.59-1.23-9.31 1.49-10.5 6.08s1.49 9.31 6.08 10.5c3.34 0.896 6.75-0.303 8.83-2.8 0.15-0.153 0.258-0.342 0.314-0.55 0.177-0.662-0.216-1.34-0.878-1.52-0.571-0.119-0.95-8e-3 -1.26 0.38-1.48 1.84-3.94 2.76-6.37 2.11-3.28-0.878-5.22-4.25-4.35-7.53s4.25-5.22 7.53-4.35c1.64 0.439 2.92 1.52 3.7 2.88 0.91-0.525 1.17-0.67 2.16-1.24-1.11-1.91-2.93-3.4-5.22-4.01z"/>
</svg>
