<svg version="1.1" viewBox="0 0 32 32" xmlns="http://www.w3.org/2000/svg">
 <title>Siduction</title>
 <path fill="#111" d="m16 7.6c0.994 0 1.8 0.806 1.8 1.8s-0.806 1.8-1.8 1.8c-0.995 1e-3 -1.8-0.805-1.8-1.8s0.807-1.8 1.8-1.8zm-3.6 3.29c0.994 0 1.8 0.806 1.8 1.8s-0.806 1.8-1.8 1.8-1.8-0.806-1.8-1.8 0.806-1.8 1.8-1.8zm7.2 0c0.994 0 1.8 0.806 1.8 1.8s-0.806 1.8-1.8 1.8-1.8-0.806-1.8-1.8 0.806-1.8 1.8-1.8zm-10.8 3.31c0.995 0 1.8 0.807 1.8 1.8-1e-3 0.994-0.806 1.8-1.8 1.8s-1.8-0.806-1.8-1.8c-1e-3 -0.995 0.805-1.8 1.8-1.8zm7.2 0c0.995 0 1.8 0.807 1.8 1.8-0 0.994-0.806 1.8-1.8 1.8-0.995 1e-3 -1.8-0.805-1.8-1.8-1e-3 -0.995 0.806-1.8 1.8-1.8zm7.2 0c0.995 0 1.8 0.807 1.8 1.8-0 0.994-0.806 1.8-1.8 1.8s-1.8-0.806-1.8-1.8c-1e-3 -0.995 0.805-1.8 1.8-1.8zm-10.8 3.28c0.994 0 1.8 0.806 1.8 1.8s-0.806 1.8-1.8 1.8-1.8-0.806-1.8-1.8 0.806-1.8 1.8-1.8zm7.2 0c0.994 0 1.8 0.806 1.8 1.8s-0.806 1.8-1.8 1.8-1.8-0.806-1.8-1.8 0.806-1.8 1.8-1.8zm-3.6 3.32c0.994 0 1.8 0.806 1.8 1.8s-0.806 1.8-1.8 1.8c-0.995 1e-3 -1.8-0.805-1.8-1.8s0.807-1.8 1.8-1.8z"/>
 <!--text-here-->
</svg>
