<svg version="1.1" viewBox="0 0 32 32" xmlns="http://www.w3.org/2000/svg">
 <title>Solus</title>
 <g transform="matrix(2.36 0 0 2.36 6 6.16)" fill="#111">
  <g fill="#111">
   <path transform="scale(.265)" d="m11.2 2.4c1.24 1.91 2.44 3.55 3.82 6.06 0.192 2.22 0.977 13.7 1.06 14.8-4.12-0.376-9.3-0.718-14.2-1.69 0.572 1.6 1.41 3.09 2.49 4.4 5.08 0.389 10.2 0.566 15.3-0.148 4.8-0.911 10.1-1.89 11-7.1-0.765 0.917-1.76 1.8-3 2.42 0.221-2.17-0.571-4.27-2.12-5.82-1.14-1.15-2.65-2.11-4.23-3.17 1.31 0.36 2.81 0.816 4.23 1.32 2 0.708 3.88 1.62 5.27 2.59-0.335-10.6-10.8-16.6-19.7-13.7zm-2.56 1.14c-4.71 2.64-7.63 7.62-7.63 13-5.71e-5 0.794 0.0633 1.59 0.189 2.37 2.5-4.44 5.55-10.1 7.44-15.4zm7.71 5.46s7.26 5.71 10.3 12.7c-3.72 1.84-7.15 1.6-9.26 1.59 1.49-3.84 1.49-9.03-1.06-14.3z" opacity=".929" stroke-width="4.09"/>
   <path transform="scale(.265)" d="m9.79 0c-0.279 1.14-0.668 2.33-1.1 3.54a14.9 14.9 0 0 1 2.56-1.14c-0.478-0.739-0.962-1.51-1.46-2.4zm21.1 16.1a14.9 14.9 0 0 1 0.0078 0.473 14.9 14.9 0 0 1-0.16 2.18c0.506-0.607 0.916-1.23 1.23-1.81-0.31-0.285-0.676-0.568-1.08-0.848zm-29.7 2.84c-0.419 0.745-0.877 1.57-1.25 2.24 0.638 0.154 1.29 0.292 1.94 0.422a14.9 14.9 0 0 1-0.686-2.66z" fill-rule="evenodd" stroke-width="4.12"/>
   <path d="m8.09 5.19a3.81 3.81 0 0 1-5.17e-4 0.00207c3.78e-4 -5.08e-4 6.56e-4 -0.00104 0.00103-0.00155zm-5.17e-4 0.00207c-0.577 0.776-1.64 1.19-2.91 1.38-1.32 0.192-2.86 0.135-4.23 0.0186 0.0652 0.0977 0.137 0.193 0.211 0.284 0.0515 0.00408 0.103 0.00848 0.155 0.0134-0.0514-0.00376-0.103-0.00743-0.155-0.0114 0.865 1.1 2.37 1.66 3.76 1.39 1.34-0.231 2.52-1.21 2.99-2.49-0.00534 0.00378-0.0107 0.0076-0.016 0.0114 0.0056-0.00491 0.011-0.0101 0.0165-0.015a3.81 3.81 0 0 0 0.169-0.581z" opacity=".7" stroke-width="1.08"/>
  </g>
 </g>
 <!--text-here-->
</svg>
