<svg version="1.1" viewBox="0 0 32 32" xmlns="http://www.w3.org/2000/svg">
 <title>Sparky</title>
 <path fill="#111" d="m15.3 6c-2.03 4 0.09 7.17 1.03 9.38-4.43-1.11-5.98-6.45-1.03-9.38zm5.14 1.72c0.602-4e-3 1.25 0.076 1.95 0.255-4.26 1.39-5 5.13-5.9 7.36-2.05-3.43-0.255-7.58 3.96-7.61zm-11.9 1.75c1.45 4.44 5.35 5.22 7.67 6.16-4.09 2.44-9.16-0.351-7.67-6.16zm12.5 2.11c1.54-0.018 3.16 0.843 4.35 2.86-3.73-1.89-6.68 0.083-8.74 0.958 0.584-2.32 2.41-3.8 4.39-3.82zm-1.54 3.22c2.79-0.025 5.16 2.36 4.15 6.3-1.3-3.97-4.78-4.67-6.86-5.5 0.885-0.529 1.82-0.784 2.71-0.792zm-2.83 0.956c4.83 1.22 6.52 7.04 1.12 10.2 2.22-4.36-0.099-7.83-1.12-10.2zm-0.36 0.022c-1.16 4.62-6.73 6.23-9.78 1.07 4.17 2.12 7.47-0.094 9.78-1.07zm0.206 0.11c2.56 4.28-0.367 9.59-6.45 8.03 4.65-1.52 5.46-5.6 6.45-8.03z"/>
 <!--text-here-->
</svg>
