<svg version="1.1" viewBox="0 0 32 32" xmlns="http://www.w3.org/2000/svg">
 <title>SteamOS</title>
 <path fill="#111" d="m6.57 19.4c-0.383-10.2-0.191-5.09 0 0zm0 0c-0.031-0.098-0.062-0.196-0.09-0.294 0.029 0.098 0.059 0.197 0.09 0.294zm-0.09-0.294c-0.01-0.035-0.019-0.069-0.029-0.104-1e-3 -1e-3 -3e-3 -1e-3 -4e-3 -2e-3 0.01 0.036 0.023 0.07 0.033 0.106zm-0.029-0.104c1.44 0.608 2.87 1.22 4.31 1.82 0.273 1.71 2.04 3 3.76 2.7 1.61-0.198 2.91-1.72 2.86-3.34l4.18-2.97c2.19 0.047 4.21-1.76 4.41-3.94 0.292-2.17-1.28-4.38-3.42-4.82-0.323-0.074-0.656-0.111-0.987-0.111-2.19-0.047-4.21 1.76-4.41 3.94-0.018 0.435-0.189 0.771-0.446 1.1l-2.41 3.5c-0.738-0.059-1.49 0.138-2.11 0.55l-6.14-2.6c-0.029 0.326-0.044 0.654-0.046 0.981 1e-3 0.61 0.05 1.22 0.147 1.82 0.037 0.231 0.081 0.461 0.131 0.69 0.012 0.056 0.025 0.112 0.039 0.169 0.04 0.163 0.084 0.325 0.131 0.486zm-0.403-4.15c-0.035-7.15-0.018-3.58 0 0zm15.5-5.09c1.66-0.046 3.14 1.5 3.02 3.15-0.03 1.66-1.64 3.06-3.29 2.87-1.66-0.105-2.99-1.77-2.72-3.41 0.178-1.46 1.51-2.63 2.99-2.61zm-0.017 0.731c-1.38-0.035-2.53 1.38-2.23 2.72 0.216 1.35 1.8 2.23 3.06 1.7 1.3-0.447 1.89-2.15 1.15-3.31-0.403-0.688-1.18-1.13-1.98-1.11zm-15.5 5.06c-9e-3 -7.62-4e-3 -3.81 0 0zm8.02 2.15c1.44-0.054 2.7 1.33 2.52 2.76-0.1 1.46-1.66 2.58-3.08 2.2-0.756-0.173-1.41-0.719-1.72-1.43 0.912 0.3 1.82 1.04 2.82 0.734 1.14-0.296 1.69-1.8 1-2.76-0.538-0.802-1.59-0.937-2.39-1.36 0.271-0.099 0.561-0.151 0.85-0.153z"/>
 <!--text-here-->
</svg>
