<svg version="1.1" viewBox="0 0 32 32" xmlns="http://www.w3.org/2000/svg">
 <title>System Rescue CD</title>
 <path fill="#111" d="m16 6c1.53 1e-3 3.05 0.354 4.42 1.03 8e-3 -0.015 0.018-0.029 0.029-0.041 0.594-0.595 1.4-0.933 2.24-0.943 0.841-0.011 1.65 0.308 2.26 0.889l2e-3 2e-3c0.018 0.017 0.035 0.035 0.053 0.053l2e-3 2e-3c1.25 1.26 1.25 3.3-2e-3 4.55-0.012 0.011-0.025 0.021-0.039 0.029 0.678 1.38 1.03 2.89 1.03 4.42s-0.353 3.05-1.03 4.42c0.014 8e-3 0.027 0.018 0.039 0.029 1.24 1.24 1.26 3.24 0.055 4.5l-2e-3 2e-3c-0.017 0.018-0.035 0.035-0.053 0.053l-2e-3 2e-3c-1.26 1.25-3.3 1.25-4.55-2e-3 -0.012-0.012-0.023-0.026-0.031-0.041-1.38 0.679-2.89 1.03-4.42 1.03-1.54-0-3.05-0.354-4.43-1.03-8e-3 0.015-0.018 0.029-0.029 0.041-1.24 1.24-3.24 1.26-4.5 0.055l-2e-3 -2e-3c-0.018-0.017-0.035-0.035-0.053-0.053-1.26-1.26-1.26-3.3 0-4.56 0.012-0.011 0.025-0.021 0.039-0.029-0.678-1.38-1.03-2.89-1.03-4.42s0.353-3.05 1.03-4.42c-0.014-8e-3 -0.027-0.018-0.039-0.029-1.24-1.24-1.26-3.24-0.055-4.5l2e-3 -2e-3c0.017-0.018 0.035-0.035 0.053-0.053 0.612-0.613 1.45-0.953 2.31-0.943 0.842 9e-3 1.65 0.348 2.24 0.943 0.012 0.012 0.022 0.025 0.031 0.039 1.38-0.679 2.89-1.03 4.42-1.03zm-6.73 1.05c-0.567 0-1.13 0.216-1.57 0.65-0.81 0.809-0.854 2.08-0.152 2.95 0.791-1.25 1.85-2.31 3.1-3.1-0.404-0.326-0.89-0.498-1.38-0.498zm13.5 0c-0.491 0-0.977 0.172-1.38 0.498 1.25 0.791 2.31 1.85 3.1 3.1 0.702-0.871 0.658-2.14-0.152-2.95-0.433-0.434-1-0.65-1.57-0.65zm-6.84 0.146c-1.22 0.015-2.43 0.286-3.55 0.795 0.183 1.26 0.682 2.46 1.45 3.48 0.686-0.334 1.44-0.508 2.2-0.508 0.722-0 1.44 0.155 2.09 0.455 0.706-0.983 1.18-2.16 1.51-3.45-1.13-0.508-2.36-0.771-3.6-0.771h-0.064-0.043zm0.01 4.97c-2.08 0.052-3.74 1.75-3.74 3.83-0 2.12 1.72 3.83 3.83 3.83 2.12 0 3.83-1.72 3.83-3.83 0-2.12-1.72-3.83-3.83-3.83h-0.094zm-8.03 0.459c-0.444 1.07-0.672 2.22-0.672 3.37-0 1.16 0.228 2.3 0.672 3.37 1.15-0.907 2.3-1.15 3.49-1.44-0.256-0.613-0.388-1.27-0.389-1.94-0-0.664 0.131-1.32 0.387-1.94-1.18-0.283-2.33-0.531-3.48-1.44zm16.3 4e-3c-1.02 0.772-2.22 1.27-3.48 1.45 0.252 0.609 0.382 1.26 0.383 1.92-0 0.659-0.129 1.31-0.381 1.92 1.26 0.178 2.46 0.678 3.48 1.45 0.443-1.07 0.672-2.21 0.672-3.37-0-1.16-0.229-2.3-0.672-3.37zm-10.3 7.89c-0.768 1.02-1.27 2.22-1.45 3.48 1.15 0.524 2.39 0.795 3.65 0.795 1.24-1e-3 2.47-0.263 3.6-0.771-0.332-1.29-0.803-2.47-1.51-3.46-0.656 0.301-1.37 0.457-2.09 0.457-0.763 0-1.52-0.174-2.2-0.508zm-6.25 0.826c-0.702 0.871-0.658 2.14 0.152 2.95 0.809 0.81 2.08 0.854 2.95 0.152-1.25-0.791-2.31-1.85-3.1-3.1zm16.9 0c-0.791 1.25-1.85 2.31-3.1 3.1 0.871 0.702 2.14 0.658 2.95-0.152 0.81-0.809 0.854-2.08 0.152-2.95z"/>
 <!--text-here-->
</svg>
