<svg version="1.1" viewBox="0 0 32 32" xmlns="http://www.w3.org/2000/svg">
 <title>Ubuntu Budgie</title>
 <path fill="#111" d="m19.6 5.81c0.246 0.017 0.482 0.054 0.746 0.098 1.44 0.238 2.91 1.3 3.8 2.84 1.2 2.08 0.931 4.58-0.439 5.99-0.688 0.705-0.892 0.743-1.34 1.05 0.307-0.483 0.401-0.67 0.4-1.07-0-0.251-0.08-0.455-0.125-0.57-0.174-0.444-0.484-0.63-0.846-0.844-0.444-0.263-0.958-0.346-1.28-0.346-0.25 1e-3 -0.379 3e-3 -0.709 0.086-1.56 0.394-3.27-0.219-4.09-1.64h2e-3c-0.984-1.7-0.366-3.9 1.38-4.91 0.516-0.297 1.12-0.582 1.68-0.646 0.31-0.035 0.566-0.038 0.812-0.021zm-9.28 4.02c0.247 0.014 0.491 0.053 0.729 0.113 0.955 0.244 1.09 0.401 1.58 0.639-0.572-0.024-0.781-0.011-1.13 0.189-0.217 0.126-0.356 0.297-0.434 0.395-0.297 0.373-0.304 0.732-0.309 1.15-6e-3 0.516 0.182 1 0.344 1.28 0.126 0.217 0.191 0.328 0.428 0.572 1.12 1.16 1.44 2.94 0.621 4.36v2e-3c-0.984 1.7-3.2 2.27-4.95 1.26-0.515-0.298-1.06-0.677-1.4-1.13-0.371-0.501-0.528-0.887-0.717-1.39-0.517-1.37-0.334-3.17 0.557-4.71 1.05-1.82 2.95-2.83 4.68-2.73zm9.8 8.23c1.97 0 3.56 1.64 3.56 3.66-0 0.595-0.055 1.26-0.281 1.78-0.248 0.571-0.504 0.898-0.844 1.31-0.928 1.13-2.58 1.88-4.36 1.88-2.4 0-4.44-1.49-4.97-3.38-0.266-0.949-0.197-1.15-0.234-1.69 0.265 0.507 0.38 0.683 0.727 0.883 0.218 0.125 0.436 0.159 0.559 0.178 0.472 0.071 0.786-0.105 1.15-0.311 0.45-0.253 0.777-0.658 0.938-0.938 0.125-0.217 0.189-0.329 0.281-0.656 0.439-1.55 1.82-2.72 3.47-2.72z"/>
 <!--text-here-->
</svg>
