<svg version="1.1" viewBox="0 0 32 32" xmlns="http://www.w3.org/2000/svg">
 <title>Ubuntu Studio</title>
 <path fill="#111" d="m19.9 6c0.065 4e-3 0.131 0.014 0.196 0.032 1.74 0.48 3.22 1.3 4.49 2.58 0.11 0.109 0.195 0.243 0.244 0.39 0.092 0.272 0.037 0.593-0.098 0.83-0.081 0.142-0.194 0.253-0.342 0.342-0.197 0.119-0.419 0.173-0.634 0.144s-0.428-0.125-0.586-0.292c-1.06-1.07-2.16-1.74-3.62-2.14-0.523-0.144-0.825-0.65-0.681-1.17 0.126-0.457 0.565-0.745 1.02-0.714zm-2.54 3.03c1.77-0 3.54 0.673 4.88 2.02 1.36 1.36 2.03 3.16 2.02 4.95 0.012 1.79-0.66 3.59-2.02 4.95-2.7 2.69-7.07 2.69-9.77 0-0.242-0.235-0.378-0.599-0.292-0.925s0.355-0.548 0.682-0.634 0.694-1e-3 0.93 0.242c1.98 1.98 5.15 1.98 7.13 0 1-1 1.5-2.32 1.48-3.63 0.013-1.31-0.481-2.63-1.48-3.63-1.98-1.98-5.15-1.98-7.13 0-0.235 0.242-0.603 0.327-0.93 0.242-0.327-0.086-0.596-0.308-0.682-0.634s0.05-0.69 0.292-0.925c1.35-1.35 3.12-2.02 4.88-2.02zm0 3.24c0.936 0 1.87 0.357 2.59 1.07 0.728 0.726 1.08 1.69 1.07 2.66 0.012 0.963-0.341 1.93-1.07 2.66-1.43 1.43-3.75 1.43-5.18 0-0.728-0.726-1.08-1.69-1.07-2.66-0.012-0.963 0.341-1.93 1.07-2.66 0.715-0.714 1.65-1.07 2.59-1.07zm-8.84 0.403c0.066 4e-3 0.131 0.017 0.196 0.034 0.524 0.14 0.824 0.647 0.684 1.17-0.198 0.737-0.294 1.43-0.292 2.12-2e-3 0.692 0.094 1.38 0.292 2.12 0.141 0.524-0.16 1.03-0.684 1.17s-1.08-0.159-1.22-0.681c-0.236-0.88-0.351-1.74-0.348-2.61-3e-3 -0.863 0.112-1.73 0.348-2.61 0.123-0.458 0.567-0.746 1.03-0.716zm3.08 0.784c0.061 3e-3 0.124 0.013 0.187 0.03 0.5 0.134 0.818 0.67 0.684 1.17-0.129 0.481-0.187 0.91-0.182 1.34-5e-3 0.43 0.053 0.859 0.182 1.34 0.134 0.499-0.184 1.04-0.684 1.17s-0.987-0.183-1.12-0.682c-0.166-0.617-0.244-1.22-0.239-1.83-5e-3 -0.605 0.074-1.21 0.239-1.83 0.117-0.437 0.504-0.733 0.935-0.711zm5.8 0.675c-1.03 0-1.86 0.835-1.86 1.86s0.835 1.86 1.86 1.86 1.86-0.835 1.86-1.86-0.835-1.86-1.86-1.86zm6.35 7.54c0.215-0.029 0.436 0.025 0.634 0.144 0.148 0.089 0.261 0.2 0.342 0.342 0.135 0.237 0.19 0.557 0.098 0.83-0.049 0.147-0.134 0.281-0.244 0.39-1.27 1.29-2.75 2.1-4.49 2.58-0.523 0.144-1.08-0.162-1.22-0.684s0.159-1.03 0.682-1.17c1.46-0.401 2.56-1.07 3.62-2.14 0.158-0.167 0.371-0.263 0.586-0.292z"/>
 <!--text-here-->
</svg>
