<svg version="1.1" viewBox="0 0 32 32" xmlns="http://www.w3.org/2000/svg">
 <title>Unset</title>
 <path fill="#111" d="m13.4 10h9.63c0.555-2e-3 1.01 0.449 1 1v9.99c2e-3 0.555-0.449 1.01-1 1h-9.63c-0.288 1e-3 -0.562-0.124-0.752-0.34l-4.37-5c-0.328-0.376-0.328-0.936 0-1.31l4.37-5c0.19-0.216 0.464-0.34 0.752-0.34zm2.62 3.02c-0.255 8e-3 -0.497 0.112-0.678 0.293-0.39 0.391-0.39 1.02 0 1.41l1.27 1.27-1.27 1.27c-0.39 0.391-0.39 1.02 0 1.41 0.391 0.39 1.02 0.39 1.41 0l1.27-1.27 1.27 1.27c0.391 0.39 1.02 0.39 1.41 0 0.39-0.391 0.39-1.02 0-1.41l-1.27-1.27 1.27-1.27c0.39-0.391 0.39-1.02 0-1.41-0.391-0.39-1.02-0.39-1.41 0l-1.27 1.27-1.27-1.27c-0.195-0.195-0.461-0.301-0.736-0.293z"/>
</svg>
