<svg version="1.1" viewBox="0 0 32 32" xmlns="http://www.w3.org/2000/svg">
 <title>4MLinux</title>
 <path fill="#111" d="m16 0a16 16 0 0 0-16 16 16 16 0 0 0 16 16 16 16 0 0 0 16-16 16 16 0 0 0-16-16zm-6.88 9.06h2.18v8.39h1.56v2.12h-1.56v3.37h-2.38v-3.37h-5.91v-1.6l0.021-0.068c0.249-0.575 0.589-1.23 1.01-1.97 0.424-0.759 0.892-1.54 1.42-2.33 0.538-0.796 1.11-1.57 1.71-2.34 0.617-0.772 1.23-1.47 1.85-2.09zm6.16 0h2.11l0.099 0.159c0.35 0.571 0.716 1.24 1.11 2.01 0.395 0.765 0.793 1.57 1.19 2.41 0.395 0.828 0.774 1.66 1.14 2.5l0.708 1.58 0.698-1.58c0.372-0.843 0.756-1.67 1.15-2.5 0.395-0.844 0.797-1.65 1.19-2.41 0.399-0.769 0.764-1.44 1.11-2.01l0.099-0.159h2.1l0.031 0.297c0.435 4.26 0.759 8.68 0.974 13.2l0.021 0.344h-2.48l-0.01-0.315c-0.064-1.78-0.145-3.54-0.234-5.28-0.069-1.34-0.167-2.54-0.266-3.74-0.193 0.388-0.397 0.821-0.622 1.31-0.239 0.508-0.497 1.06-0.776 1.64l-0.01 0.01c-0.263 0.566-0.518 1.12-0.758 1.66-0.24 0.547-0.463 1.06-0.68 1.53v0.01c-0.202 0.464-0.374 0.849-0.5 1.15l-0.081 0.208h-1.93l-0.091-0.208c-0.125-0.3-0.295-0.684-0.51-1.15v-0.01l-0.67-1.53c-0.238-0.542-0.489-1.09-0.768-1.66h-0.01v-0.01c-0.265-0.583-0.516-1.13-0.758-1.64-0.221-0.479-0.431-0.901-0.63-1.28-0.096 1.18-0.187 2.38-0.255 3.71-0.089 1.74-0.173 3.5-0.237 5.28l-8e-3 0.315h-2.48l0.021-0.344c0.051-1.14 0.103-2.3 0.167-3.46 0.061-1.17 0.129-2.32 0.206-3.44 0.089-1.13 0.187-2.23 0.276-3.3 0.102-1.07 0.21-2.08 0.326-3.04zm-6.37 3.34c-0.189 0.224-0.377 0.42-0.57 0.669-0.378 0.489-0.748 1-1.11 1.54-0.363 0.54-0.708 1.09-1.03 1.65h0.01c-0.225 0.403-0.41 0.793-0.602 1.18h3.31z"/>
 <!--text-here-->
</svg>
