<svg version="1.1" viewBox="0 0 32 32" xmlns="http://www.w3.org/2000/svg">
 <title>Alpine</title>
 <path fill="#111" d="m16 0a16 16 0 0 0-16 16 16 16 0 0 0 16 16 16 16 0 0 0 16-16 16 16 0 0 0-16-16zm-3.1 10 4.32 4.44 0.027 0.029v-4e-3l2.53 2.53 3.86 3.78c-0.321 0.223-0.619 0.402-0.902 0.553a5.93 5.93 0 0 1-0.795 0.348 4.08 4.08 0 0 1-0.68 0.182 2.8 2.8 0 0 1-1.12 0 2.08 2.08 0 0 1-0.611-0.234l-0.088-0.064-1.7-1.75-4.87-4.87-1.76 1.69-4.92 4.92c-8e-3 0-0.035 0.023-0.088 0.061a2.29 2.29 0 0 1-1.16 0.285 4.28 4.28 0 0 1-1.25-0.23c-0.245-0.087-0.511-0.2-0.795-0.348-0.279-0.147-0.58-0.327-0.898-0.551zm7.56 1.26 7.33 7.36 2.21 2.17c-0.318 0.223-0.619 0.402-0.898 0.553-0.283 0.147-0.549 0.261-0.795 0.348-0.246 0.083-0.472 0.144-0.684 0.178a2.8 2.8 0 0 1-1.12 0c-0.155-0.03-0.279-0.072-0.381-0.117a1.46 1.46 0 0 1-0.318-0.182l-1.97-1.95-3.38-3.39-0.537 0.537-2.49-2.47zm-9.56 6.6 4e-3 4.05a4.38 4.38 0 0 1-1.25-0.243c-0.245-0.087-0.503-0.2-0.783-0.344-0.276-0.147-0.575-0.323-0.889-0.543z"/>
 <!--text-here-->
</svg>
