<svg version="1.1" viewBox="0 0 32 32" xmlns="http://www.w3.org/2000/svg">
 <title>Android</title>
 <path fill="#111" d="m16 0a16 16 0 0 0-16 16 16 16 0 0 0 16 16 16 16 0 0 0 16-16 16 16 0 0 0-16-16zm-6.48 3.31c0.062 0.017 0.118 0.057 0.152 0.117l1.28 2.22a7.09 7.09 0 0 1 5.04-2.1 7.09 7.09 0 0 1 5.04 2.1l1.28-2.22c0.069-0.12 0.222-0.161 0.342-0.092s0.161 0.222 0.092 0.342l-1.36 2.35a7.09 7.09 0 0 1 1.66 3.93h-14.1a7.09 7.09 0 0 1 1.66-3.93l-1.36-2.36c-0.069-0.12-0.028-0.273 0.092-0.342 0.06-0.035 0.128-0.042 0.189-0.025zm3.61 3.12a0.815 0.815 0 0 0-0.814 0.816 0.815 0.815 0 0 0 0.814 0.814 0.815 0.815 0 0 0 0.816-0.814 0.815 0.815 0 0 0-0.816-0.816zm5.73 0a0.815 0.815 0 0 0-0.815 0.817 0.815 0.815 0 0 0 0.816 0.814 0.815 0.815 0 0 0 0.815-0.814 0.815 0.815 0 0 0-0.815-0.817zm-9.95 4.2h14.2c6e-3 0.059 0.01 0.119 0.01 0.18v10.1c0 1.09-0.862 1.97-1.93 1.97h-0.078v4.01c0 0.865-0.696 1.56-1.56 1.56s-1.56-0.696-1.56-1.56v-4.02h-3.92v4.01c0 0.865-0.696 1.56-1.56 1.56s-1.56-0.696-1.56-1.56v-4.01h-0.078c-1.07 0-1.93-0.878-1.93-1.97v-10.1c0-0.061 5e-3 -0.121 0.01-0.18zm-2.52 0.904c0.864 0 1.56 0.696 1.56 1.56v6.69c0 0.865-0.696 1.56-1.56 1.56s-1.56-0.696-1.56-1.56v-6.69c0-0.865 0.696-1.56 1.56-1.56zm19.2 0c0.865 0 1.56 0.696 1.56 1.56v6.69c0 0.865-0.696 1.56-1.56 1.56s-1.56-0.696-1.56-1.56v-6.69c0-0.865 0.696-1.56 1.56-1.56z"/>
 <!--text-here-->
</svg>
