<svg version="1.1" viewBox="0 0 32 32" xmlns="http://www.w3.org/2000/svg">
 <title>Anonymous</title>
 <path fill="#111" d="m16 0a16 16 0 0 0-16 16 16 16 0 0 0 16 16 16 16 0 0 0 16-16 16 16 0 0 0-16-16zm-0.357 5.01c1.24-0.054 2.6 0.058 3.97 0.33 1.83 0.361 2.76 0.855 3.18 1.69 0.406 0.803 0.669 2.13 0.764 3.88 0.047 0.856 0.093 2.07 0.093 2.45 0 0.326 0 0.329-0.074 0.329-0.105 0-0.482-0.119-0.607-0.192-0.057-0.033-0.201-0.081-0.319-0.105-0.267-0.057-0.296-0.075-0.449-0.287-0.238-0.33-0.732-0.614-1.26-0.725-0.528-0.111-1.26-0.073-1.68 0.088-0.154 0.059-0.695 0.367-1.07 0.609-0.14 0.092-0.334 0.327-0.334 0.408v2e-3c4e-3 0.024 0.086 0.117 0.183 0.209 0.228 0.218 0.356 0.257 0.723 0.227 0.146-0.012 0.939-0.032 1.76-0.045 1.26-0.02 1.52-0.03 1.65-0.074 0.2-0.066 0.302-0.066 0.752 8e-3 0.203 0.033 0.452 0.069 0.553 0.08l0.183 0.019-0.016 0.848c-0.013 0.76-0.021 0.872-0.084 1.08-0.086 0.289-0.129 0.375-0.291 0.588-0.145 0.19-0.676 0.672-0.914 0.83-0.251 0.167-0.446 0.227-0.951 0.295-0.559 0.075-0.751 0.078-1.25 0.019-0.208-0.025-0.478-0.051-0.597-0.056-0.134-6e-3 -0.185-7e-3 -0.205 0.011-2e-3 2e-3 -7e-3 8e-3 -8e-3 0.01-4e-3 0.011-4e-3 0.028-4e-3 0.047 0 0.157 0.292 0.256 0.935 0.313 0.638 0.057 0.67 0.062 0.67 0.121 0 0.075-0.242 0.461-0.48 0.765-0.507 0.649-0.982 0.943-1.87 1.16l2e-3 3e-3c-0.589 0.143-0.831 0.084-1.16-0.293-0.447-0.503-0.395-0.458-0.49-0.416-0.048 0.021-0.145 0.086-0.215 0.143-0.187 0.151-0.297 0.2-0.543 0.238-0.399 0.061-0.908-0.068-1.11-0.283-0.079-0.084-0.084-0.1-0.082-0.406 2e-3 -0.27 0.182-1.61 0.239-1.77 7e-3 -0.022 0.03-0.777 0.048-1.68 0.036-1.74 0.024-1.99-0.101-2.51-0.036-0.146-0.107-0.372-0.16-0.5-0.219-0.532-0.39-0.74-1.14-1.39-1.04-0.906-1.48-1.14-2.22-1.18-0.372-0.022-0.56 0.027-0.56 0.142 0 0.118 0.204 0.218 0.644 0.313 0.456 0.096 0.736 0.266 1.36 0.818 0.199 0.177 0.45 0.399 0.56 0.496 0.18 0.156 0.226 0.225 0.448 0.654l0.248 0.479-4e-3 0.842c-3e-3 0.524-0.022 0.992-0.051 1.23-0.063 0.527-0.223 1.42-0.285 1.6-0.073 0.208-0.252 0.395-0.514 0.539-0.364 0.199-0.5 0.4-0.5 0.75 0 0.327 0.154 0.635 0.404 0.808 0.092 0.064 0.147 0.081 0.204 0.067 0.073-0.018 0.08-0.033 0.08-0.203 0-0.206 0.069-0.399 0.226-0.623 0.055-0.079 0.114-0.171 0.133-0.205 0.019-0.035 0.061-0.068 0.096-0.073 0.132-0.02 0.17 0.332 0.088 0.836-0.027 0.163-0.039 0.329-0.03 0.369 0.01 0.04 0.09 0.14 0.176 0.219 0.13 0.12 0.158 0.166 0.16 0.258 4e-3 0.131-0.07 0.238-0.283 0.41-0.211 0.17-0.423 0.226-0.685 0.18-0.399-0.07-1.35-0.477-1.75-0.748-0.352-0.237-0.681-0.616-0.936-1.07-0.148-0.264-0.138-0.274 0.32-0.27 0.381 3e-3 0.527-0.015 1.21-0.162 0.336-0.072 0.436-0.123 0.436-0.219 0-0.016 0-0.03-6e-3 -0.039-0.02-0.023-0.091-0.023-0.314-0.01-0.175 0.01-0.516 0.041-0.756 0.067-0.503 0.053-1.24 0.063-1.48 0.017-0.196-0.038-0.541-0.237-0.757-0.437-0.393-0.365-0.833-1.11-1.08-1.84l-0.101-0.295 0.017-1.48c0.025-2.14 0.136-3.32 0.446-4.79 0.238-1.12 0.527-1.74 1.01-2.15 0.916-0.775 2.85-1.22 5.83-1.36zm4.6 3.97c-0.735-0.02-1.52 0.229-2.27 0.727-0.301 0.199-0.779 0.663-0.86 0.836-0.119 0.254-0.054 0.645 0.127 0.773v2e-3c0.174 0.121 0.292 0.067 0.871-0.402 1.08-0.875 1.68-1.16 2.56-1.19 0.734-0.027 1.12 0.12 1.69 0.633 0.161 0.148 0.299 0.26 0.328 0.268h2e-3 2e-3v-2e-3h2e-3c0.01-0.056-0.133-0.32-0.288-0.526-0.346-0.461-0.915-0.859-1.44-1.01-0.232-0.067-0.474-0.103-0.719-0.11zm-8.32 0.057c-0.312-4e-3 -0.644 0.033-0.906 0.101-0.473 0.124-1 0.472-1.32 0.874-0.214 0.267-0.375 0.575-0.339 0.63v2e-3h2e-3v2e-3h1e-3l4e-3 4e-3c3e-3 1e-3 7e-3 0 0.01 0 0.014 0 0.158-0.131 0.32-0.291 0.486-0.477 0.781-0.611 1.4-0.637 0.599-0.024 1.01 0.071 1.67 0.381 0.459 0.217 0.644 0.348 1.09 0.77 0.207 0.195 0.437 0.384 0.512 0.424h2e-3c0.283 0.144 0.509 0.051 0.588-0.244 0.085-0.315-0.041-0.6-0.428-0.965-0.63-0.596-1.4-0.938-2.31-1.03-0.097-0.01-0.197-0.016-0.301-0.017zm8.59 0.834c-0.666 0-1.23 0.251-2.01 0.896-0.676 0.559-1.09 1.01-1.3 1.43-0.049 0.096-0.07 0.396-0.035 0.453l4e-3 4e-3c0.046 0.046 0.199 0.02 0.252-0.045 0.28-0.344 1.32-1.31 1.98-1.83 0.308-0.244 0.398-0.288 0.782-0.392 0.54-0.147 0.734-0.247 0.734-0.375 0-0.096-0.129-0.141-0.406-0.141zm-8.94 2.46c-0.481 0.023-0.921 0.134-1.25 0.324-0.177 0.103-0.42 0.327-0.571 0.529-0.057 0.079-0.124 0.127-0.203 0.147-0.273 0.071-0.355 0.089-0.375 0.119v2e-3c-6e-3 0.015-1e-3 0.036 4e-3 0.064 8e-3 0.047 0.039 0.147 0.07 0.225 0.057 0.142 0.056 0.144-0.027 0.35-0.045 0.115-0.082 0.243-0.082 0.287l-4e-3 -2e-3c0 0.095 0.051 0.102 0.139 0.019 0.064-0.06 0.547-0.186 1.02-0.267 0.132-0.023 0.764-0.066 1.4-0.092 1.29-0.054 1.8-0.094 2.01-0.156 0.269-0.081 0.48-0.318 0.438-0.489-0.044-0.176-0.333-0.383-1.03-0.742-0.413-0.21-0.651-0.283-1.04-0.312-0.168-0.013-0.332-0.014-0.493-6e-3zm-2.95 4.25h0.012c0.142 0 0.391 0.409 0.637 1.04 0.2 0.516 0.431 0.95 0.818 1.55 0.688 1.06 1.19 1.87 1.48 2.36 0.357 0.612 0.83 1.53 0.984 1.9 0.204 0.5 0.382 0.749 0.455 0.634 0.048-0.077 0.029-0.229-0.072-0.542-0.086-0.265-0.099-0.348-0.09-0.561 0.017-0.406 0.017-0.68 2e-3 -0.791-0.023-0.166 0.045-0.188 0.318-0.102 0.125 0.039 0.392 0.139 0.59 0.223 0.198 0.085 0.497 0.188 0.664 0.232 0.404 0.106 0.51 0.161 0.625 0.323 0.141 0.196 0.204 0.395 0.205 0.644 2e-3 0.195-0.014 0.249-0.154 0.549-0.085 0.184-0.168 0.395-0.186 0.471-0.069 0.298-0.025 0.654 0.184 1.49 0.07 0.283 0.131 0.605 0.135 0.717h-2e-3l8e-3 0.201-0.094 8e-3c-0.112 9e-3 -0.457-0.108-0.662-0.227-0.083-0.047-0.284-0.22-0.447-0.385-0.243-0.244-0.388-0.435-0.784-1.03-0.266-0.404-0.569-0.829-0.673-0.947-0.251-0.28-0.454-0.583-1.07-1.58-1.55-2.52-2.31-4.02-2.82-5.58-0.147-0.45-0.164-0.588-0.063-0.596zm8.99 0.381c-0.123 0.012-0.209 0.218-0.108 0.303 0.026 0.021 0.118 0.058 0.207 0.082 0.088 0.023 0.195 0.074 0.236 0.113 0.102 0.095 0.246 0.407 0.293 0.627h2e-3c0.019 0.087 0.043 0.159 0.057 0.176h2e-3v2e-3h2e-3l2e-3 2e-3 2e-3 -2e-3c0.015-5e-3 0.055-0.04 0.09-0.084 0.132-0.168 0.046-0.522-0.2-0.832-0.102-0.129-0.418-0.352-0.546-0.383-0.014-3e-3 -0.027-5e-3 -0.039-4e-3zm5.44 0.064h0.013c1e-3 1e-3 5e-3 2e-3 6e-3 2e-3h2e-3c1e-3 1e-3 5e-3 4e-3 6e-3 4e-3h2e-3c1e-3 1e-3 3e-3 5e-3 4e-3 6e-3v2e-3c8e-3 0.016 0.014 0.049 0.014 0.098 0 0.24-0.189 1.07-0.354 1.55-0.357 1.05-0.837 1.94-2.12 3.94-1.7 2.66-2.16 3.28-2.82 3.81-0.294 0.236-0.555 0.377-0.875 0.477l-2e-3 2e-3c-0.142 0.044-0.286 0.08-0.319 0.08-0.141 0-0.117-0.313 0.086-1.09 0.134-0.511 0.143-0.573 0.147-0.967 3e-3 -0.419 3e-3 -0.421-0.119-0.732-0.101-0.255-0.124-0.35-0.125-0.529-1e-3 -0.269 0.055-0.402 0.32-0.758 0.099-0.132 0.18-0.257 0.189-0.287l2e-3 -2e-3v-2e-3 -2e-3l-2e-3 -2e-3v-2e-3 -2e-3l-1e-3 -2e-3 -4e-3 -4e-3h-2e-3c-0.016-8e-3 -0.049-9e-3 -0.096 0-0.085 0.016-0.126 4e-3 -0.201-0.06-0.094-0.079-0.092-0.078-0.742-0.078-1.03 0-1.41-0.053-2.11-0.286-0.829-0.276-1.07-0.445-2.23-1.59-0.814-0.803-1.13-1.2-1.46-1.81-0.194-0.364-0.393-0.998-0.344-1.08l4e-3 -4e-3v-2e-3h2e-3l2e-3 -2e-3h2e-3 2e-3 2e-3 5e-3c0.062 0.024 0.228 0.3 0.514 0.859 0.446 0.871 0.584 1.07 0.967 1.38 0.498 0.414 1.16 0.754 1.97 1.01 0.467 0.148 0.789 0.207 1.13 0.207 0.242 0 0.295 9e-3 0.352 0.062 0.097 0.091 0.411 0.146 1.08 0.188 0.569 0.036 0.588 0.035 0.998-0.043 0.23-0.044 0.524-0.087 0.652-0.098 1.28-0.105 2.46-0.657 3.08-1.45 0.062-0.078 0.303-0.474 0.534-0.883 0.402-0.708 0.642-1.07 0.718-1.08h2e-3 2e-3 2e-3 2e-3l4e-3 4e-3c0.043 0.055-7e-3 0.5-0.09 0.76-0.155 0.487-0.41 0.861-1.2 1.75-0.275 0.313-0.509 0.582-0.52 0.599-6e-3 0.012-0.011 0.022-0.011 0.028v2e-3l2e-3 2e-3v2e-3l2e-3 2e-3h2e-3v2e-3h2e-3 2e-3c0.031-1e-3 0.124-0.057 0.224-0.145 0.083-0.073 0.166-0.133 0.192-0.141h1e-3 2e-3 2e-3 2e-3 2e-3l2e-3 2e-3v2e-3c0.014 0.014 0.028 0.054 0.028 0.102 0 0.072-0.047 0.176-0.153 0.338-0.082 0.127-0.241 0.398-0.349 0.603-0.109 0.205-0.308 0.541-0.444 0.746-0.325 0.495-0.572 0.919-0.629 1.08-0.025 0.07-0.034 0.104-0.027 0.123l2e-3 2e-3v2e-3c1e-3 0 3e-3 5e-3 4e-3 5e-3 5e-3 5e-3 0.016 0.01 0.025 0.014 0.082 0.032 0.035 0.093 1.56-2.16 0.797-1.18 1.32-2.06 1.62-2.74 0.233-0.524 0.471-1.12 0.535-1.34 0.059-0.206 0.224-0.47 0.303-0.485 3e-3 0 7e-3 -1e-3 0.01-2e-3zm-7.21 3.07c0.028-2e-3 0.054 0.018 0.115 0.066 0.132 0.105 0.696 0.708 0.779 0.836 0.035 0.051 0.061 0.112 0.061 0.133v2e-3 2e-3h-2e-3v2e-3 2e-3h-2e-3c-1e-3 0-3e-3 3e-3 -4e-3 4e-3 -0.029 0.018-0.13 0.024-0.344 0.021-0.664-9e-3 -1.4-0.052-1.43-0.084v-2e-3h-2e-3v-2e-3 -2e-3 -2e-3c-1e-3 -0.037 0.088-0.168 0.279-0.404 0.402-0.496 0.389-0.48 0.483-0.539 0.031-0.02 0.05-0.032 0.07-0.033zm0.123 4.58h2e-3 6e-3 2e-3c0.041 4e-3 0.085 0.096 0.088 0.211 2e-3 0.098-0.011 0.133-0.049 0.14-7e-3 2e-3 -0.013 1e-3 -0.018 0-1e-3 0-5e-3 1e-3 -6e-3 0l-2e-3 -2e-3c-1e-3 0-5e-3 -3e-3 -6e-3 -4e-3l-1e-3 -1e-3c-0.016-0.019-0.028-0.064-0.04-0.143-0.011-0.087-0.01-0.163 4e-3 -0.186l2e-3 -2e-3 2e-3 -1e-3c5e-3 -5e-3 9e-3 -8e-3 0.014-0.01l2e-3 -2e-3z"/>
 <!--text-here-->
</svg>
