<svg version="1.1" viewBox="0 0 32 32" xmlns="http://www.w3.org/2000/svg">
 <title>Archlinux</title>
 <path fill="#111" d="m16 0a16 16 0 0 0-16 16 16 16 0 0 0 16 16 16 16 0 0 0 16-16 16 16 0 0 0-16-16zm-2e-3 5.2c1.83 4.3 2.27 5.62 7.61 15.6-0.673-0.406-1.54-0.77-2.75-1.08 1.76 0.905 2.62 1.74 3.45 2.38 0.527 0.975 1.08 2 1.69 3.13-3.13-1.8-5.56-2.93-7.82-3.37a5.73 5.73 0 0 0 0.129-1.09c0.0496-2.03-0.922-3.76-2.17-3.87-1.25-0.106-2.31 1.46-2.36 3.49l-2e-3 0.102a5.8 5.8 0 0 0 0.149 1.36c-2.29 0.43-4.75 1.56-7.92 3.39 4.03-7.25 6.02-11 7.29-13.7 0.664 0.56 1.55 1.1 2.86 1.63-1.21-0.85-1.96-1.6-2.56-2.24 0.992-2.12 1.53-3.55 2.42-5.73z"/>
 <!--text-here-->
</svg>
