<svg version="1.1" viewBox="0 0 32 32" xmlns="http://www.w3.org/2000/svg">
 <title>Debian</title>
 <path fill="#111" d="m16 0a16 16 0 0 0-16 16 16 16 0 0 0 16 16 16 16 0 0 0 16-16 16 16 0 0 0-16-16zm-0.232 6.49c-0.155 0.085-0.302 0.149-0.445 0.25 0.578-0.137 0.55 0.059 1.14-0.02-0.206 0.031-0.458 0.111-0.418 0.143 0.661 0.076 0.762-0.204 1.37 0l-0.041-0.178c0.851 0.305 1.03 0.25 1.95 0.738 0.323 0.018 0.356-0.197 0.842 0 0.087 0.152-0.018 0.179 0.582 0.537 0.067-0.027-0.12-0.196-0.266-0.33 1.2 0.645 2.52 2.02 2.92 3.49-0.374-0.688-0.038 0.353-0.168 0.299a8.01 8.01 0 0 1 0.389 1.4c-0.112-0.394-0.354-1.34-0.775-1.96-0.036 0.396-0.546-0.274-0.266 0.598 0.213 0.309 0.043-0.314 0.305 0.234 4e-3 0.262 0.104 0.521 0.164 0.861-0.092-0.016-0.202-0.376-0.27-0.275 0.092 0.428 0.243 0.648 0.301 0.682-0.031 0.072-0.107-0.067-0.113 0.225 0.036 0.67 0.188 0.387 0.26 0.418-0.074 0.329-0.366 0.719-0.221 1.28-0.043-0.172-0.123-0.346-0.186-0.51-0.058 0.484 0.107 0.579-0.117 1.17 0.161-0.529 0.143-1.01-0.01-0.775 0.067 0.75-0.593 1.33-0.521 1.8l-0.191-0.264c-0.522 0.753-0.011 0.413-0.365 0.984 0.13-0.224-0.071-0.092 0.1-0.348-0.112 7e-3 -0.501 0.48-0.857 0.758-1.4 1.12-3.07 1.27-4.69 0.662 7e-3 -0.037-7e-3 -0.081-0.113-0.152-1.37-1.05-2.18-1.94-1.9-4.01 0.208-0.157 0.265-1.02 0.744-1.32 0.291-0.645 1.17-1.24 2.1-1.26 0.956-0.052 1.76 0.51 2.17 1.04-0.735-0.688-1.94-0.895-2.98-0.387-1.05 0.475-1.68 1.63-1.59 2.79 0.038-0.056 0.074-0.019 0.092-0.162-0.031 2.24 2.42 3.89 4.18 3.06l0.021 0.047c0.717-0.195 0.626-0.356 1.09-0.676-0.036 0.074-0.314 0.268-0.148 0.268 0.226-0.06 0.938-0.718 1.29-1.03 0.161-0.345-0.083-0.186 0.141-0.623l0.271-0.135c0.152-0.438 0.32-0.686 0.301-1.2l-0.16 0.335c0.235-0.712 0.099-1.48 0.133-2.15l-0.066-0.02c-0.057-1.68-1.51-3.48-2.81-4.08-1.12-0.517-2.84-0.604-3.63-0.216 0.108-0.096 0.544-0.137 0.412-0.211-1.24 0.123-0.964 0.432-1.92 0.676-0.26 0.253 0.762-0.2 0.211 0.127-0.511 0.141-0.749-0.091-1.51 0.693 0.067 0.112 0.482-0.323 0.135 0.111-0.712-0.087-2.25 1.63-2.58 2.2l0.17 0.029c-0.28 0.703-0.65 1.15-0.699 1.57-0.072 1.04-0.433 2.92 0.068 3.5l-0.047 0.482c0.067 0.139 0.12 0.278 0.205 0.408l-0.111 8e-3c0.529 1.66 0.567 0.031 1.26 1.76-0.101-0.034-0.202-0.07-0.352-0.271-0.016 0.155 0.219 0.609 0.494 0.963l-0.119 0.135c0.157 0.28 0.295 0.339 0.402 0.436-0.573-0.314 0.534 1.03 0.633 1.2l0.086-0.156c-0.011 0.224 0.165 0.515 0.492 0.918l0.271-0.012c0.112 0.224 0.525 0.627 0.771 0.645l-0.166 0.217c0.627 0.197 0.304 0.262 1.07 0.533l-0.156-0.273c0.394 0.338 0.513 0.639 1.07 0.898 0.768 0.267 0.872 0.163 1.66 0.387-0.667-0.02-1.45-0.011-1.98-0.201-3.6-0.974-6.9-5.2-6.65-9.55-0.058-0.88 0.087-1.98-0.059-2.2 0.206-0.672 0.445-1.49 0.924-2.46-0.036-0.063 0.078 0.192 0.322-0.225 0.148-0.325 0.269-0.683 0.455-0.996l0.098-0.023c0.094-0.558 1.3-1.41 1.66-1.84l0.023 0.162c0.782-0.732 2.18-1.22 2.96-1.57-0.206 0.228 0.462-0.022 0.943-0.051zm-1.38 10.7c0.168 0.036 0.74 0.933 1.17 1.08-0.253-0.204-0.449-0.462-0.633-0.729a3.72 3.72 0 0 0 1.22 0.93c-0.015-0.056 0.017-0.089 0.025-0.127-0.058 0.054 0.291 0.327 0.549 0.461 0.616 0.226 1.31 0.237 1.86 0.215-1.19 0.497-3.45-0.502-4.19-1.83z"/>
 <!--text-here-->
</svg>
