<svg version="1.1" viewBox="0 0 32 32" xmlns="http://www.w3.org/2000/svg">
 <title>Driver</title>
 <path fill="#111" d="m16 0c-8.84 0-16 7.16-16 16s7.16 16 16 16 16-7.16 16-16-7.16-16-16-16zm-4.34 7.5 0.516 0.742a2.68 2.68 0 0 1 0.908-2e-3l0.514-0.74 1.48 0.854-0.385 0.816a2.68 2.68 0 0 1 0.262 0.375 2.68 2.68 0 0 1 0.191 0.412l0.9 0.074v1.71l-0.9 0.076a2.68 2.68 0 0 1-0.453 0.785l0.385 0.818-1.48 0.854-0.516-0.744a2.68 2.68 0 0 1-0.906 2e-3l-0.516 0.742-1.48-0.855 0.384-0.814a2.68 2.68 0 0 1-0.261-0.374 2.68 2.68 0 0 1-0.19-0.414l-0.902-0.076v-1.71l0.902-0.076a2.68 2.68 0 0 1 0.451-0.785l-0.384-0.816zm0.945 2.41a0.976 0.976 0 0 0-0.464 0.129 0.976 0.976 0 0 0-0.356 1.33 0.976 0.976 0 0 0 1.33 0.355 0.976 0.976 0 0 0 0.359-1.33 0.976 0.976 0 0 0-0.871-0.486zm3.12 3.2h2.85l0.127 1.5a4.47 4.47 0 0 1 1.31 0.752l1.36-0.641 1.42 2.47-1.23 0.857a4.47 4.47 0 0 1 0.066 0.756 4.47 4.47 0 0 1-0.07 0.756l1.24 0.859-1.42 2.47-1.36-0.643a4.47 4.47 0 0 1-1.31 0.757l-0.125 1.5h-2.85l-0.125-1.5a4.47 4.47 0 0 1-1.31-0.752l-1.36 0.641-1.42-2.47 1.23-0.855a4.47 4.47 0 0 1-0.064-0.76 4.47 4.47 0 0 1 0.066-0.754l-1.24-0.859 1.42-2.47 1.36 0.645a4.47 4.47 0 0 1 1.31-0.758zm1.42 4.07a1.63 1.63 0 0 0-1.62 1.62 1.63 1.63 0 0 0 1.62 1.63 1.63 1.63 0 0 0 1.63-1.63 1.63 1.63 0 0 0-1.63-1.62z"/>
</svg>
