<svg version="1.1" viewBox="0 0 32 32" xmlns="http://www.w3.org/2000/svg">
 <title>Elementary</title>
 <path fill="#111" d="m16 0a16 16 0 0 0-16 16 16 16 0 0 0 16 16 16 16 0 0 0 16-16 16 16 0 0 0-16-16zm0.457 5.87c0.521 7e-3 1.04 0.078 1.54 0.213h4e-3c0.923 0.248 1.76 0.744 2.42 1.43l4e-3 2e-3v4e-3c0.66 0.72 1.11 1.61 1.3 2.56 0.186 0.944 0.17 1.92-0.049 2.85v4e-3c-0.415 1.86-1.49 3.49-2.7 4.9-1.71 1.99-3.78 3.64-6.05 4.95 0.759 0.339 1.55 0.635 2.38 0.682 1.36 0.078 2.73-0.236 3.98-0.801 1.25-0.565 2.4-1.38 3.46-2.29 2.2-1.91 3.99-4.24 5.26-6.86l0.373-0.768 0.549 2.68-0.051 0.09c-1.2 2.26-2.76 4.3-4.62 6.05-1.57 1.46-3.38 2.73-5.43 3.44-2.06 0.712-4.36 0.831-6.41 0.043-0.653-0.253-1.27-0.613-1.84-1.03-1.31 0.572-2.67 1.03-4.06 1.35l-0.19 0.043-1.39-1.96 0.474-0.061c1.22-0.163 2.42-0.48 3.6-0.863-0.131-0.161-0.269-0.317-0.387-0.486-0.94-1.34-1.48-2.94-1.62-4.57-0.261-3.25 1.15-6.5 3.44-8.8 1.29-1.3 2.92-2.37 4.76-2.7 0.329-0.063 0.662-0.097 0.996-0.107 0.087-3e-3 0.173-3e-3 0.26-2e-3zm-0.221 1.44c-0.824-3e-3 -1.66 0.244-2.39 0.651h-4e-3c-1.48 0.812-2.56 2.25-3.35 3.79-0.688 1.33-1.2 2.77-1.33 4.24-0.141 1.47 0.101 2.99 0.815 4.25v2e-3c0.311 0.549 0.727 1.03 1.19 1.46 2.75-1.23 5.16-3.1 7-5.48 0.945-1.24 1.71-2.66 1.89-4.16 0.086-0.753 0.023-1.53-0.229-2.23-0.249-0.698-0.693-1.34-1.28-1.78-0.647-0.49-1.48-0.745-2.3-0.745z"/>
 <!--text-here-->
</svg>
