<svg version="1.1" viewBox="0 0 32 32" xmlns="http://www.w3.org/2000/svg">
 <title>EndeavourOS</title>
 <g transform="scale(3.78)" fill="#111">
  <g>
   <path d="m4.8 0.633-3.7 5.79s1.25 0.0665 3.15 0c1.9-0.0661 2.92-0.146 3.29-0.712 0.281-0.431 0.313-1.11-0.814-2.8-0.77-1.15-1.93-2.28-1.93-2.28z" opacity=".4"/>
   <path d="m4.8 0.639-4.07 4.78s0.935 0.23 2.64 0.346c1.69 0.115 2.92 0.275 3.36-0.305 0.373-0.498 0.397-1.03-0.415-2.57-0.557-1.06-1.51-2.26-1.51-2.26z" opacity=".25"/>
  </g>
  <path transform="scale(.265)" d="m16 0a16 16 0 0 0-16 16 16 16 0 0 0 16 16 16 16 0 0 0 16-16 16 16 0 0 0-16-16zm2.13 2.39s4.39 4.25 7.3 8.62c4.26 6.38 4.14 8.95 3.08 10.6-1.4 2.14-5.27 2.44-12.4 2.69-7.21 0.251-11.9 0-11.9 0l2.02-3.17 0.00781-0.0117c-2.18-0.323-3.44-0.607-3.44-0.607l15.3-18 2e-3 -0.00195 0.0039-0.00391z" fill-rule="evenodd" style="paint-order:stroke fill markers"/>
 </g>
 <!--text-here-->
</svg>
