<svg version="1.1" viewBox="0 0 32 32" xmlns="http://www.w3.org/2000/svg">
 <title>Fedora</title>
 <g transform="scale(3.78)" fill="#111">
  <path transform="scale(.265)" d="m16 0a16 16 0 0 0-16 16 16 16 0 0 0 16 16 16 16 0 0 0 16-16 16 16 0 0 0-16-16zm0.592 5.42c5.51 0 9.98 4.47 9.98 9.98 0 5.51-4.47 9.98-9.98 9.98h-7.72c-1.25 0-2.27-1.01-2.27-2.26v-7.72c0.00391-5.51 4.47-9.98 9.98-9.98zm2.93 2.37c-0.161 0-0.319 0.00715-0.477 0.0234 0.143-0.0146 0.287-0.0184 0.434-0.0195-0.278 0.00265-0.548 0.0342-0.812 0.084-2.18 0.403-3.83 2.31-3.83 4.6v2.48h-2.47c-2.57 0-4.68 2.11-4.68 4.68 0 2.33 1.74 4.27 3.99 4.61 0.0013 2.4e-4 0.0026-2.38e-4 0.0039 0 0.186 0.0346 0.379 0.0558 0.59 0.0606h2e-3c0.0336 7.18e-4 0.0639 0.0117 0.0977 0.0117 0.272 0 0.539-0.0308 0.799-0.0762 0.0754-0.013 0.149-0.0347 0.223-0.0527 0.119-0.0268 0.24-0.0464 0.355-0.082 1.92-0.588 3.31-2.37 3.31-4.48v-2.48h2.47c2.57 0 4.68-2.11 4.68-4.68 0-2.34-1.74-4.27-3.99-4.61-0.201-0.0378-0.406-0.0635-0.639-0.0664-0.0189-2.27e-4 -0.0357-0.00586-0.0547-0.00586zm0 2.21c0.247 1.5e-6 0.397 0.0155 0.529 0.0312h2e-3c1.13 0.24 1.96 1.23 1.96 2.44 0 1.39-1.11 2.49-2.49 2.49h-2.15c-0.178-0.0159-0.32-0.16-0.32-0.342v-2.15c0.0024-1.36 1.11-2.47 2.47-2.47zm-7.16 7.14h2.15c0.181 0.0126 0.328 0.16 0.328 0.344v2.15c-0.0024 1.36-1.11 2.47-2.47 2.47-0.25 0-0.398-0.0188-0.531-0.0352-1.13-0.241-1.96-1.23-1.96-2.43 0-1.39 1.1-2.49 2.49-2.49z" stroke-width="3.64" style="paint-order:stroke markers fill"/>
  <path id="in" d="m5.17 2.06c-0.0854 0-0.169 0.00887-0.25 0.0256 0.0807-0.0165 0.164-0.0252 0.25-0.0252 0.104 0 0.177 0.012 0.274 0.0371 0.14 0.0367 0.255 0.151 0.255 0.285 0 0.162-0.117 0.279-0.293 0.279-0.0389 0-0.0661-0.00379-0.0966-0.00743 0.299 0.0632 0.52 0.325 0.52 0.645 0 0.367-0.292 0.659-0.659 0.659h-0.57c0.00273 2.32e-4 0.00505 0.00165 0.00784 0.00165h0.43c0.16 0 0.29 0.127 0.29 0.288 8.21e-5 0.162-0.131 0.289-0.293 0.289h-0.519v8.24e-4h0.654c0.681 0 1.24-0.558 1.24-1.24 0-0.681-0.558-1.24-1.24-1.24zm-1.89 1.9c-0.681 0-1.24 0.559-1.24 1.24 0 0.681 0.558 1.24 1.24 1.24 0.128 0 0.251-0.0198 0.367-0.0561-0.116 0.036-0.239 0.0553-0.367 0.0553-0.104 0-0.178-0.0116-0.274-0.0367-0.14-0.0367-0.255-0.152-0.255-0.286 0-0.162 0.117-0.279 0.293-0.279 0.0382-2e-7 0.065 0.00336 0.0949 0.00701-0.298-0.0639-0.518-0.325-0.518-0.644 0-0.367 0.292-0.66 0.659-0.66h0.568c-0.00217-1.5e-4 -0.00399-0.00124-0.00619-0.00124h-0.43c-0.16-2.3e-6 -0.29-0.128-0.29-0.288-8.21e-5 -0.162 0.131-0.289 0.293-0.289h0.519v-8.24e-4z" color="#000000" color-rendering="auto" dominant-baseline="auto" image-rendering="auto" opacity=".35" shape-rendering="auto" solid-color="#000000" stop-color="#000000" style="font-feature-settings:normal;font-variant-alternates:normal;font-variant-caps:normal;font-variant-east-asian:normal;font-variant-ligatures:normal;font-variant-numeric:normal;font-variant-position:normal;font-variation-settings:normal;inline-size:0;isolation:auto;mix-blend-mode:normal;shape-margin:0;shape-padding:0;text-decoration-color:#000000;text-decoration-line:none;text-decoration-style:solid;text-indent:0;text-orientation:mixed;text-transform:none;white-space:normal"/>
 </g>
 <!--text-here-->
</svg>
