<svg version="1.1" viewBox="0 0 32 32" xmlns="http://www.w3.org/2000/svg">
 <title>Find.efi</title>
 <path fill="#111" d="m16 0c-8.84 0-16 7.16-16 16s7.16 16 16 16 16-7.16 16-16-7.16-16-16-16zm-1.72 8a6.29 6.29 0 0 1 6.29 6.28 6.29 6.29 0 0 1-1.11 3.56l4.2 4.19a1.14 1.14 0 0 1 0.346 0.82 1.14 1.14 0 0 1-1.14 1.14 1.14 1.14 0 0 1-0.824-0.352l-4.19-4.18a6.29 6.29 0 0 1-3.56 1.11 6.29 6.29 0 0 1-6.28-6.29 6.29 6.29 0 0 1 6.28-6.28zm0 2.28a4 4 0 0 0-4 4 4 4 0 0 0 4 4 4 4 0 0 0 4-4 4 4 0 0 0-4-4z"/>
</svg>
