<svg version="1.1" viewBox="0 0 32 32" xmlns="http://www.w3.org/2000/svg">
 <title>FreeBSD</title>
 <path fill="#111" d="m16.2-0a16 16 0 0 0-0.337 2e-3 16 16 0 0 0 0 32 16 16 0 1 0 0.337-32zm-9.24 6c1.05 0.02 2.68 0.78 3.91 1.48-1.43 0.88-2.63 2.11-3.47 3.57-0.944-1.64-2.02-4.04-1.27-4.79 0.186-0.187 0.473-0.263 0.824-0.256zm18.5 0.115c0.233 0.021 0.425 0.092 0.56 0.227 1.08 1.07-1.91 5.81-2.42 6.31-0.504 0.504-1.79 0.042-2.87-1.04-1.08-1.07-1.55-2.36-1.04-2.86 0.44-0.44 4.12-2.78 5.76-2.64zm-9.12 0.336c1.63 0 3.17 0.399 4.52 1.1-0.331 0.181-0.632 0.362-0.89 0.526-1.18-0.213-1.49 0.745-0.677 2.21 0.99 1.95 4.04 4.1 4.96 3.18 0.245-0.245 0.273-0.672 0.123-1.18 0.15-0.249 0.317-0.535 0.494-0.851 0.799 1.42 1.26 3.06 1.26 4.8 0 5.4-4.38 9.77-9.79 9.77s-9.79-4.38-9.79-9.77c0-5.4 4.38-9.78 9.79-9.78z"/>
 <!--text-here-->
</svg>
