<svg version="1.1" viewBox="0 0 32 32" xmlns="http://www.w3.org/2000/svg">
 <title>Gentoo</title>
 <path fill="#111" d="m16 0a16 16 0 0 0-16 16 16 16 0 0 0 16 16 16 16 0 0 0 16-16 16 16 0 0 0-16-16zm-1.51 6.51c1.11-0.049 2.22 0.184 3.21 0.676 3.12 1.54 8.41 5.82 8.8 7.99 0.48 2.68-8.97 9.94-14.7 11.1-2.22 0.437-4.12 0.534-4.99-1.82-0.751-2.04 0.73-3.49 2.88-5.46 0.893-0.815 1.6-1.42 2.67-2.33 0.061-0.062-5.16-1.87-5.33-3.93-0.173-2.12 3.19-6.01 7.48-6.22zm1.31 3.72c-0.145-0.011-0.284-0.01-0.418 2e-3 -0.898 0.085-1.53 0.754-1.61 2.07-0.083 1.43 1.91 2.46 3.46 2.03 3.1-1.11 1.52-2.94 0-3.68-0.523-0.255-1-0.395-1.44-0.428z"/>
 <!--text-here-->
</svg>
