<svg version="1.1" viewBox="0 0 32 32" xmlns="http://www.w3.org/2000/svg">
 <title>GPart</title>
 <path fill="#111" d="m16 0a16 16 0 0 0-16 16 16 16 0 0 0 16 16 16 16 0 0 0 16-16 16 16 0 0 0-16-16zm0 5a11 11 0 0 1 7.78 3.22 11 11 0 0 1 0 15.6 11 11 0 0 1-7.78 3.22v-4.12a6.88 6.88 0 0 0 4.86-2.01 6.88 6.88 0 0 0 0-9.72 6.88 6.88 0 0 0-9.72 0 6.88 6.88 0 0 0-2.01 4.86h-4.12a11 11 0 0 1 3.22-7.78 11 11 0 0 1 7.78-3.22zm0.6 9.52c0.014 1e-3 0.026 3e-3 0.037 6e-3 0.372 0.324-2.06 4.07-4.64 7.5-0.101 0.134-0.203 0.267-0.305 0.4-0.345 0.453-0.689 0.897-1.03 1.32-0.075 0.094-0.149 0.189-0.223 0.281-0.399 0.496-0.791 0.971-1.16 1.4-3.07 3.56-6.94 0.368-3.78-2.55 0.405-0.389 0.854-0.799 1.32-1.22 0.065-0.058 0.132-0.116 0.197-0.174 0.454-0.401 0.927-0.807 1.41-1.22 0.025-0.021 0.049-0.042 0.074-0.062 3.23-2.7 6.92-5.37 7.92-5.67 0.067-0.02 0.122-0.029 0.164-0.027zm-10.3 9.75a0.817 0.817 0 0 0-0.818 0.816 0.817 0.817 0 0 0 0.818 0.817 0.817 0.817 0 0 0 0.817-0.817 0.817 0.817 0 0 0-0.817-0.816z"/>
 <!--text-here-->
</svg>
