<svg version="1.1" viewBox="0 0 32 32" xmlns="http://www.w3.org/2000/svg">
 <title>Haiku</title>
 <path fill="#111" d="m16.2 0a16 16 0 0 0-0.338 2e-3 16 16 0 0 0 0 32 16 16 0 1 0 0.338-32zm-4.77 4.74 3.3 0.829v8.06c0.087-0.029 0.142-0.036 0.229-0.066 0.383-0.132 0.734-0.264 1.01-0.324 0.068-0.015 0.139-0.026 0.207-0.041v-5.02l2.84-1.63 3.68 0.821v5.59c0.976 0.224 1.95 0.57 2.78 1.1l0.872 0.547-1 0.229c-0.32 0.071-0.909 0.337-1.34 0.85l-0.17 0.192-0.037-8e-3 -0.287 0.244c-0.257 0.215-0.532 0.43-0.813 0.661v8.04l-2.28 2.28-0.184 0.186-4.06-2.03v-5.86c-0.246-0.117-0.493-0.238-0.739-0.354 0.013 0.016 8e-3 0.034 0.021 0.051l0.643 0.762-0.997-0.061c-0.127-7e-3 -0.251-0.029-0.377-0.043v2.2l-1.94 1.56-0.192 0.149-3.65-2.03v-5.64c-2.34-0.499-4.32-1.67-4.32-1.67l-0.26-0.162 0.406-1.82 0.539 0.457s1.54 1.28 3.64 1.83v-8.63z"/>
 <!--text-here-->
</svg>
