<svg version="1.1" viewBox="0 0 32 32" xmlns="http://www.w3.org/2000/svg">
 <title>Help</title>
 <path fill="#111" d="m16 0c-8.84 0-16 7.16-16 16s7.16 16 16 16 16-7.16 16-16-7.16-16-16-16zm0 8c2.5 0 4.52 2.02 4.52 4.52 0 0.995-0.406 1.9-1.05 2.54l-1.02 1.04c-0.814 0.825-1.32 1.5-1.32 3.2h-2.26v-0.564c0-1.24 0.51-2.38 1.32-3.2l1.4-1.42c0.418-0.407 0.666-0.972 0.666-1.59 0-1.24-1.02-2.26-2.26-2.26s-2.26 1.02-2.26 2.26h-2.26c0-2.5 2.02-4.52 4.52-4.52zm-0.02 13.2a1.41 1.41 0 0 1 0.02 0 1.41 1.41 0 0 1 1.41 1.41 1.41 1.41 0 0 1-1.41 1.41 1.41 1.41 0 0 1-1.41-1.41 1.41 1.41 0 0 1 1.39-1.41z"/>
</svg>
