<svg version="1.1" viewBox="0 0 32 32" xmlns="http://www.w3.org/2000/svg">
 <title>KaOS</title>
 <path fill="#111" d="m16 0c-8.84 0-16 7.16-16 16s7.16 16 16 16 16-7.16 16-16-7.16-16-16-16zm3.48 8.36c1.39 0 2.09 0.695 2.09 1.39 0 2.09-4.87 2.78-6.26 3.48s-4.17 2.09-4.52 6.26c-0.349-5.57 2.43-11.1 8.7-11.1zm-9.74 1.39c1.1 0 1.39 0.328 1.39 1.39 0 1.39-0.695 2.78-0.695 4.87s-1e-3 5.56 2.09 9.04c-2.78-2.78-5.56-6.96-5.56-11.1 0-2.09 0.696-4.17 2.78-4.17zm5.56 6.25c4.17 0 7.65 2.78 9.74 5.57-2.17-1.11-4.87-2.09-6.96-2.09-3.48 0-4.53 0.697-5.57 0.697-0.696 0-1.39-0-1.39-1.11 0-1.39 1.39-3.06 4.17-3.06z"/>
 <!--text-here-->
</svg>
