<svg version="1.1" viewBox="0 0 32 32" xmlns="http://www.w3.org/2000/svg">
 <title>MacOSX</title>
 <path fill="#111" d="m16 0c-8.84 0-16 7.16-16 16s7.16 16 16 16 16-7.16 16-16-7.16-16-16-16zm4.37 4.18c0.142 1.3-0.374 2.58-1.13 3.53-0.785 0.924-2.04 1.64-3.27 1.54-0.161-1.25 0.459-2.58 1.16-3.4 0.789-0.918 2.15-1.63 3.24-1.68zm-0.654 5.32c0.209-0.016 0.421-0.016 0.633 6e-3 0.712 0.024 2.73 0.282 4.04 2.18-0.104 0.064-2.41 1.42-2.38 4.2 0.031 3.33 2.92 4.42 2.95 4.44-0.017 0.08-0.453 1.59-1.53 3.13-0.906 1.35-1.85 2.67-3.36 2.7-1.46 0.029-1.95-0.861-3.63-0.861-1.7 0-2.22 0.837-3.62 0.891-1.43 0.059-2.52-1.44-3.46-2.78-1.87-2.73-3.33-7.71-1.38-11.1 0.947-1.66 2.68-2.73 4.52-2.75 1.43-0.028 2.76 0.971 3.64 0.971 0.758 0 2.11-0.913 3.57-1.02z"/>
 <!--text-here-->
</svg>
