<svg version="1.1" viewBox="0 0 32 32" xmlns="http://www.w3.org/2000/svg">
 <title>OpenSUSE</title>
 <path fill="#111" d="m16.1 0a16 16 0 0 0-0.337 2e-3 16 16 0 0 0 0 32 16 16 0 1 0 0.337-32zm-0.143 4a12 12 0 0 1 0 24 12 12 0 1 1 0-24zm0.258 2.67a9.35 9.33 0 0 0-0.258 2e-3v2e-3a9.37 9.35 0 0 0-7.68 4 43.2 43.1 0 0 1 2.46 0.666l0.041-1.58c1.3 0.162 2.56 0.435 3.84 0.707 2.68 0.609 4.15 1.04 5.47 1.67 1.19 0.567 1.7 1.21 2.42 3.12 0.29 0.765 0.794 2.46 0.794 2.62 0 0.094-0.984 0.736-1.5 1-1.47 0.746-2.89 0.825-4.71 0.25a21.1 21 0 0 1-4.38-2.12l-0.708-0.457 0.751 1.87 1 0.459c2.12 1.02 3.88 1.65 4.96 1.71 1.05 0.054 2.26-0.266 3.63-0.918 0.366-0.173 0.674-0.291 0.71-0.291 0.097 0 0.026 0.481-0.17 1-0.199 0.547-0.398 0.754-1.33 1.21-1.79 0.873-3.4 1.28-5.84 1.46-1.07 0.079-1.96 0.016-3.59-0.168-1.11-0.128-1.96-0.117-2.5-0.043a9.28 9.26 0 0 0 6.35 2.5 9.35 9.33 0 1 0 0.258-18.7zm1.96 6.75-4e-3 4e-3a2.06 2.06 0 0 0-1.33 0.537c-0.602 0.544-0.763 1.54-0.417 2.29a1.95 1.95 0 0 0 1.46 1.13 1.92 1.92 0 0 0 2.09-1.04c0.253-0.524 0.292-0.879 0.164-1.38a1.99 1.98 0 0 0-1.96-1.54zm0.456 1.04c0.341 0 0.745 0.17 0.796 0.377 0.068 0.275-0.023 0.486-0.296 0.625-0.415 0.213-0.937 0.166-1.25-0.129-0.386-0.363 0.051-0.873 0.749-0.873z"/>
 <!--text-here-->
</svg>
