<svg version="1.1" viewBox="0 0 32 32" xmlns="http://www.w3.org/2000/svg">
 <title>Peppermint</title>
 <path fill="#111" d="m16 0a16 16 0 0 0-16 16 16 16 0 0 0 16 16 16 16 0 0 0 16-16 16 16 0 0 0-16-16zm-2e-3 5.06c2.39 0 4.78 0.787 6.75 2.35l-0.17 0.068c-2.95 1.24-4.95 4.08-6.42 7.08-1.05-3.07-1.56-6.32-0.428-8.95l0.236-0.543c8e-3 -0 0.016-2e-3 0.023-2e-3zm-1.26 0.082-0.066 0.16c-1.22 2.95-0.64 6.37 0.428 9.52-2.9-1.43-5.56-3.37-6.61-6.02l-0.215-0.552c1.81-1.81 4.1-2.84 6.46-3.12zm8.94 3.07c0.017 0.016 0.034 0.03 0.051 0.047 1.8 1.8 2.83 4.07 3.12 6.41l-0.158-0.066c-1.41-0.584-2.94-0.788-4.5-0.717-1.71 0.078-3.41 0.602-5.06 1.17 1.42-2.9 3.36-5.55 6-6.61zm-16.2 0.966 0.068 0.168c1.23 2.97 4.09 4.99 7.1 6.47-3.09 1.06-6.38 1.56-9.01 0.399l-0.543-0.242c5e-3 -2.41 0.802-4.81 2.39-6.79zm15.8 5.84c1.12 0.022 2.19 0.216 3.18 0.641l0.547 0.232c0.021 2.42-0.759 4.83-2.33 6.83l-0.07-0.162c-1.23-2.98-4.09-5-7.1-6.48 1.92-0.653 3.91-1.1 5.78-1.06zm-8.29 1.84c-1.44 2.92-3.4 5.6-6.08 6.64l-0.559 0.219-2e-3 -2e-3c-1.83-1.83-2.86-4.14-3.13-6.52l0.162 0.068c2.97 1.26 6.43 0.675 9.61-0.406zm2.04 0.199c2.91 1.43 5.56 3.38 6.61 6.04l0.223 0.553c-0.02 0.02-0.037 0.042-0.057 0.062-1.81 1.81-4.09 2.84-6.44 3.12l0.064-0.156c1.26-2.97 0.684-6.43-0.398-9.62zm-1.06 0.287c1.06 3.1 1.56 6.39 0.391 9.02l-0.242 0.549c-2.42 8e-3 -4.84-0.787-6.84-2.38l0.17-0.066c3-1.22 5.04-4.1 6.52-7.12z"/>
 <!--text-here-->
</svg>
