<svg version="1.1" viewBox="0 0 32 32" xmlns="http://www.w3.org/2000/svg">
 <title>PopOS</title>
 <path fill="#111" d="m16 0a16 16 0 0 0-16 16 16 16 0 0 0 16 16 16 16 0 0 0 16-16 16 16 0 0 0-16-16zm-3.07 3.91c0.211 4e-3 0.424 0.02 0.639 0.047 0.344 0.044 0.69 0.132 1.04 0.248 0.178 0.06 0.354 0.131 0.529 0.213 0.266 0.124 0.529 0.275 0.785 0.455 0.01 7e-3 0.02 0.013 0.029 0.02 0.871 0.621 1.67 1.58 2.27 3.01 0.227 0.738 0.547 2.08 0.133 3.57-0.117 0.423-0.307 0.858-0.564 1.3-0.13 0.221-0.283 0.442-0.455 0.662-0.029 0.038-0.052 0.082-0.082 0.119-0.026 0.032-0.057 0.058-0.084 0.09-0.125 0.147-0.265 0.292-0.41 0.438-0.076 0.075-0.146 0.156-0.225 0.229l-4e-3 4e-3c-0.062 0.057-0.131 0.105-0.195 0.16-0.395 0.341-0.816 0.651-1.26 0.928-0.298 0.185-0.602 0.361-0.91 0.523l1.98 5.5c0.06 0.215 0.051 0.436 0.014 0.648-6e-3 0.034-0.011 0.068-0.02 0.102-0.082 0.33-0.259 0.628-0.525 0.809-0.161 0.109-0.358 0.152-0.566 0.158-0.058 2e-3 -0.113 0.018-0.172 0.01-0.015-3e-3 -0.028-9e-3 -0.043-0.012-0.021-4e-3 -0.039 3e-3 -0.061-2e-3 -0.041-9e-3 -0.085-0.041-0.127-0.055-0.074-0.026-0.145-0.058-0.215-0.094-0.085-0.043-0.17-0.092-0.258-0.156-0.093-0.069-0.179-0.144-0.26-0.227-0.051-0.049-0.101-0.076-0.152-0.133-2.01-2.69-3.36-5.18-4.58-7.66-0.058-0.117-0.113-0.235-0.17-0.352-0.742-1.53-1.45-3.06-2.22-4.64-0.153-0.31-0.308-0.632-0.426-0.961-0.018-0.051-0.044-0.102-0.06-0.154-0.015-0.047-0.014-0.095-0.026-0.142-8e-3 -0.032-0.02-0.062-0.027-0.094l-2e-3 -2e-3c-3e-3 -0.029-1e-3 -0.061-4e-3 -0.09-0.045-0.278-0.053-0.558 0.059-0.83 0.012-0.025 0.066-0.078 0.086-0.109 7e-3 -0.01 8e-3 -0.022 0.016-0.031 0.014-0.017 0.031-0.032 0.045-0.049 0.061-0.081 0.096-0.144 0.199-0.254 0.18-0.193 0.418-0.42 0.701-0.672 0.142-0.128 0.322-0.266 0.484-0.401 0.281-0.233 0.571-0.457 0.889-0.687 0.136-0.101 0.273-0.199 0.414-0.293 0.087-0.059 0.169-0.127 0.257-0.184 0.279-0.181 0.673-0.359 1.11-0.519 0.108-0.04 0.216-0.077 0.326-0.111 0.625-0.195 1.33-0.338 2.1-0.324zm-1.34 3.12c-0.079-2e-3 -0.151 0.018-0.223 0.047-0.014 6e-3 -0.03 5e-3 -0.043 0.012l-6e-3 6e-3c-0.109 0.044-0.189 0.159-0.238 0.342-0.03 0.124-0.049 0.25-0.051 0.377-4e-3 0.111-1e-3 0.231 8e-3 0.359 1e-3 0.01-1e-3 0.019 0 0.029 0 2e-3 2e-3 5e-3 2e-3 8e-3 0.045 0.589 0.223 1.33 0.48 2.05 8e-3 0.023 0.015 0.046 0.023 0.068 0.124 0.338 0.267 0.668 0.422 0.975 0.018 0.035 0.035 0.07 0.053 0.105 0.164 0.312 0.34 0.597 0.525 0.83 0.194 0.244 0.399 0.434 0.6 0.547 0.196 0.11 0.384 0.144 0.574 0.096 0.37-0.191 0.569-0.528 0.641-0.953 1e-3 -4e-3 3e-3 -8e-3 4e-3 -0.012v-6e-3c0.023-0.142 0.032-0.293 0.027-0.453-0.017-0.648-0.247-1.42-0.59-2.13-0.251-0.522-0.563-1.01-0.89-1.4-0.016-0.019-0.032-0.038-0.049-0.057-0.101-0.118-0.203-0.229-0.306-0.326l-2e-3 -2e-3c-3e-3 -3e-3 -6e-3 -5e-3 -0.01-8e-3 -0.224-0.209-0.448-0.364-0.654-0.443-0.105-0.04-0.204-0.063-0.297-0.065zm11 2.58c0.378-0.018 0.776 0.039 1.15 0.154 0.499 0.153 0.953 0.413 1.25 0.76s0.432 0.786 0.279 1.27h-6e-3v8e-3c-0.666 1.53-1.49 3.46-2.31 5-0.411 0.769-0.821 1.44-1.21 1.91-0.195 0.236-0.39 0.429-0.576 0.555s-0.368 0.189-0.547 0.17h-8e-3c-0.136-0.037-0.24-0.162-0.316-0.34-0.077-0.177-0.131-0.414-0.17-0.701-0.078-0.574-0.088-1.35-0.037-2.23 0.101-1.76 0.449-3.95 0.99-5.77v-8e-3h6e-3c0.234-0.403 0.655-0.639 1.14-0.73 0.12-0.023 0.245-0.037 0.371-0.043zm-2.5 11.1a1.12 1.31 0 0 1 1.12 1.31 1.12 1.31 0 0 1-1.12 1.31 1.12 1.31 0 0 1-1.12-1.31 1.12 1.31 0 0 1 1.12-1.31zm-11.3 3.85h14.5c0.693 0 1.25 0.557 1.25 1.25s-0.557 1.25-1.25 1.25h-14.5c-0.693 0-1.25-0.557-1.25-1.25s0.557-1.25 1.25-1.25z"/>
 <!--text-here-->
</svg>
