<svg version="1.1" viewBox="0 0 32 32" xmlns="http://www.w3.org/2000/svg">
 <title>Puppy</title>
 <path fill="#111" d="m16 0c-8.84 0-16 7.16-16 16s7.16 16 16 16 16-7.16 16-16-7.16-16-16-16zm5.31 4.41c0.572 0 1.17 0.017 1.75 0.082h8e-3c1.39 0.101 2.68 0.318 3.4 0.811 1e-3 0 8e-3 2e-3 8e-3 2e-3 2e-3 1e-3 0.021 0.012 0.037 0.021 9e-3 5e-3 0.017 4e-3 0.021 8e-3 0.021 0.016 0.025 0.023 0.031 0.029l6e-3 8e-3c0.443 0.404 0.704 1.07 0.828 1.81 0.106 0.627 0.102 1.33-0.023 1.99-0.124 0.668-0.369 1.3-0.781 1.77 0.86 1.64 1.4 3.5 1.4 5.48 0 3.31-1.35 6.3-3.51 8.47-2.16 2.16-5.17 3.51-8.48 3.51s-6.29-1.34-8.47-3.51c-2.17-2.16-3.52-5.16-3.52-8.47 0-0.798 0.084-1.58 0.236-2.33-6e-3 -0.016-0.01-0.023-0.016-0.051-1e-3 -4e-3 1e-3 -0.019 0-0.023-0.142-0.872-0.317-2.92-0.168-4.6 0.104-1.12 0.319-2.1 0.952-2.58 0.151-0.151 0.39-0.326 0.759-0.525 0.384-0.208 0.885-0.424 1.47-0.59 0.746-0.208 1.64-0.341 2.61-0.266h8e-3c0.312 0.019 0.612 0.114 0.9 0.229 1.59-0.775 3.36-1.22 5.24-1.22 0.784 0 1.56 0.081 2.3 0.229 0.014-5e-3 0.036-0.019 0.045-0.021h6e-3c0.571-0.167 1.68-0.261 2.95-0.261zm-0.184 1.05c-0.561 0-1.08 0.03-1.51 0.066-0.393 0.055-0.816 0.114-1.09 0.229l-0.074 0.029-0.074-0.014c-0.762-0.17-1.55-0.265-2.37-0.265-1.47 0-2.85 0.365-4.14 0.893 0.472 0.37 0.942 0.761 1.3 1.26 0.333 0.466 0.613 0.974 0.797 1.48 0.182 0.517 0.285 1.03 0.244 1.52-0.05 0.585-0.301 1.12-0.812 1.49-0.429 0.303-0.909 0.382-1.38 0.34-0.472-0.043-0.948-0.19-1.44-0.346-0.61-0.193-1.25-0.392-1.91-0.393s-1.33 0.179-2.06 0.783l-0.037 0.029-0.037 0.016c-0.272 0.101-0.541-0.076-0.636-0.31-0.094-0.235-1e-3 -0.558 0.274-0.754 0.861-0.651 1.72-0.86 2.52-0.842 0.803 0.018 1.54 0.253 2.2 0.459 0.422 0.133 0.807 0.248 1.13 0.287s0.563 8e-3 0.76-0.133c0.236-0.165 0.353-0.401 0.377-0.723 0.024-0.309-0.044-0.68-0.191-1.08-0.147-0.398-0.376-0.823-0.659-1.22-0.687-0.953-1.68-1.72-2.53-1.78-0.162-9e-3 -0.321-0.016-0.465-0.016-0.664 0-1.27 0.094-1.79 0.244-0.519 0.146-0.944 0.331-1.25 0.494-0.155 0.082-0.28 0.159-0.369 0.221-0.081 0.057-0.128 0.101-0.133 0.103l-0.016 8e-3c-0.033 0.045-0.072 0.095-0.117 0.125-0.096 0.065-0.237 0.278-0.334 0.605s-0.159 0.755-0.199 1.23c-0.099 1.15-0.038 2.51 0.053 3.48v0.037c0.027 0.337 0.064 0.769 0.133 1.16l8e-3 0.045-8e-3 0.043c-0.143 0.699-0.215 1.42-0.215 2.16 0 3.02 1.22 5.75 3.2 7.72 1.98 1.97 4.7 3.2 7.73 3.2s5.76-1.22 7.74-3.2c1.98-1.97 3.2-4.7 3.2-7.72 0-1.78-0.474-3.43-1.22-4.91-0.13 0.05-0.249 0.117-0.393 0.141h-6e-3c-0.604 0.098-1.1-0.107-1.48-0.473-0.378-0.365-0.671-0.873-1.01-1.45-0.515-0.864-1.12-1.89-2.19-2.77l-0.022-0.022c-0.096-0.105-0.156-0.259-0.132-0.398s0.118-0.252 0.229-0.318c0.22-0.133 0.521-0.101 0.789 0.096l0.016 8e-3 8e-3 8e-3c1.07 0.955 1.7 2.01 2.21 2.86h-8e-3c0.285 0.477 0.53 0.879 0.76 1.12 0.229 0.244 0.404 0.337 0.672 0.295 0.262-0.046 0.456-0.167 0.635-0.369 0.256-0.29 0.45-0.759 0.546-1.28 0.095-0.531 0.107-1.12 0.021-1.63-0.085-0.547-0.288-0.998-0.486-1.19-0.422-0.287-1.62-0.537-2.9-0.627-0.542-0.045-1.1-0.066-1.63-0.066zm1.43 5.7c1.08 0 1.96 0.872 1.96 1.96s-0.882 1.95-1.96 1.95c-1.07 0-1.96-0.87-1.96-1.95s0.872-1.96 1.96-1.96zm-12.2 1.43c2.11 0 3.83 1.71 3.83 3.82s-1.72 3.82-3.83 3.82-3.83-1.71-3.83-3.82c0-2.1 1.72-3.82 3.83-3.82zm1.06 2c-0.973 0-1.75 0.779-1.75 1.75 0 0.963 0.789 1.75 1.75 1.75s1.75-0.79 1.75-1.75c0-0.963-0.779-1.75-1.75-1.75zm9.73 1.52c0.22 0 0.404 0.183 0.422 0.422 0 0.073-0.018 0.137-0.055 0.201l-1.8 3.49c0.073 0.092 0.147 0.175 0.238 0.248 0.422 0.367 0.99 0.588 1.62 0.588 0.661 0 1.26-0.238 1.68-0.633 0.422-0.385 0.68-0.918 0.68-1.5v-0.13c0-0.202 0.165-0.367 0.367-0.367s0.367 0.165 0.367 0.367v0.129c0 0.789-0.349 1.5-0.918 2.03-0.56 0.514-1.33 0.826-2.18 0.826-0.789 0-1.5-0.275-2.06-0.725-0.138 0.532-0.43 1.01-0.834 1.38-0.56 0.505-1.33 0.824-2.18 0.824-0.523 0-1.04-0.128-1.49-0.357-0.45-0.229-0.835-0.56-1.12-0.973-0.046-0.064-0.074-0.138-0.074-0.221 0-0.202 0.165-0.365 0.367-0.365 0.128 0 0.239 0.063 0.303 0.164 0 0 0.01 1e-3 0.01 0.01 0.211 0.312 0.504 0.56 0.844 0.734 0.349 0.184 0.743 0.275 1.16 0.275 0.661 0 1.26-0.24 1.68-0.635 0.422-0.385 0.68-0.916 0.68-1.49v-0.016l-3.36-1.89c-0.147-0.064-0.248-0.212-0.248-0.377 0-0.184 0.112-0.33 0.268-0.385 9e-3 0 0.018-0.01 0.027-0.01l5.45-1.58c0.046-0.018 0.093-0.027 0.139-0.027z"/>
 <!--text-here-->
</svg>
