<svg version="1.1" viewBox="0 0 32 32" xmlns="http://www.w3.org/2000/svg">
 <title>Red</title>
 <path fill="#111" d="m16 0a16 16 0 0 0-16 16 16 16 0 0 0 16 16 16 16 0 0 0 16-16 16 16 0 0 0-16-16zm0.207 7.8c0.711 0 3.12 0.933 4.22 1.5 1.42 0.711 1.6 1.08 1.79 1.89l0.847 3.68a1.59 1.59 0 0 1 0.033 0.389c0 1.69-2.06 1.99-3.48 1.99v-6e-3c-5.54 0-9.67-3.44-9.67-4.49a0.732 0.732 0 0 1 0.023-0.221c0.125-0.392 1.08-3.09 1.08-3.09 0.344-0.956 0.788-1.42 1.47-1.42 0.713 0 1.28 0.637 2.04 0.637 0.79 0 0.982-0.854 1.64-0.854zm-6.65 5.76a2.1 2.1 0 0 0-0.172 0.836c0 2.06 4.66 5.18 9.99 5.18 2.36 0 4.15-0.885 4.15-2.48 0-0.123 0-0.219-0.197-1.15h2e-3c2.26 0.981 3.51 2.62 3.51 4.07 0 1.84-1.3 4.17-6.46 4.17-6.72 0-15.2-4.42-15.2-8 0-2.19 2.48-2.53 4.39-2.62z"/>
 <!--text-here-->
</svg>
