<svg version="1.1" viewBox="0 0 32 32" xmlns="http://www.w3.org/2000/svg">
 <title>Siduction</title>
 <path fill="#111" d="m16.1 0a16 16 0 0 0-0.337 2e-3 16 16 0 0 0 0 32 16 16 0 1 0 0.337-32zm-0.143 7.7a1.78 1.78 0 0 1 1.78 1.78 1.78 1.78 0 0 1-1.78 1.78 1.78 1.78 0 0 1-1.78-1.78 1.78 1.78 0 0 1 1.78-1.78zm-3.56 3.25a1.78 1.78 0 0 1 1.78 1.78 1.78 1.78 0 0 1-1.78 1.78 1.78 1.78 0 0 1-1.78-1.78 1.78 1.78 0 0 1 1.78-1.78zm7.13 0a1.78 1.78 0 0 1 1.78 1.78 1.78 1.78 0 0 1-1.78 1.78 1.78 1.78 0 0 1-1.78-1.78 1.78 1.78 0 0 1 1.78-1.78zm-10.7 3.27a1.78 1.78 0 0 1 1.78 1.78 1.78 1.78 0 0 1-1.78 1.78 1.78 1.78 0 0 1-1.78-1.78 1.78 1.78 0 0 1 1.78-1.78zm7.13 0a1.78 1.78 0 0 1 1.78 1.78 1.78 1.78 0 0 1-1.78 1.78 1.78 1.78 0 0 1-1.78-1.78 1.78 1.78 0 0 1 1.78-1.78zm7.13 0a1.78 1.78 0 0 1 1.78 1.78 1.78 1.78 0 0 1-1.78 1.78 1.78 1.78 0 0 1-1.78-1.78 1.78 1.78 0 0 1 1.78-1.78zm-10.7 3.24a1.78 1.78 0 0 1 1.78 1.78 1.78 1.78 0 0 1-1.78 1.78 1.78 1.78 0 0 1-1.78-1.78 1.78 1.78 0 0 1 1.78-1.78zm7.13 0a1.78 1.78 0 0 1 1.78 1.78 1.78 1.78 0 0 1-1.78 1.78 1.78 1.78 0 0 1-1.78-1.78 1.78 1.78 0 0 1 1.78-1.78zm-3.56 3.28a1.78 1.78 0 0 1 1.78 1.78 1.78 1.78 0 0 1-1.78 1.78 1.78 1.78 0 0 1-1.78-1.78 1.78 1.78 0 0 1 1.78-1.78z"/>
 <!--text-here-->
</svg>
