<svg version="1.1" viewBox="0 0 32 32" xmlns="http://www.w3.org/2000/svg">
 <title>Slackware</title>
 <path fill="#111" d="m16 0a16 16 0 0 0-16 16 16 16 0 0 0 16 16 16 16 0 0 0 16-16 16 16 0 0 0-16-16zm-0.0332 6.74c1.3 0 2.36 0.507 3.34 1.2 0.0257-0.172 0.03-0.351 0.148-0.502 0.198-0.251 0.508-0.361 0.826-0.361 0.315 0 0.625 0.11 0.828 0.354 0.2 0.24 0.273 0.556 0.273 0.879v2.61c0 0.33-0.0676 0.639-0.268 0.885-0.204 0.251-0.517 0.369-0.834 0.369-0.286 0-0.58-0.0988-0.781-0.324-0.192-0.214-0.276-0.504-0.295-0.818-0.0524-0.587-0.375-1.09-0.924-1.48-0.549-0.386-1.32-0.643-2.21-0.643-0.952 4e-7 -1.76 0.27-2.3 0.693-0.544 0.425-0.834 0.985-0.834 1.67 0 0.622 0.254 1.11 0.752 1.43h0.0078c0.55 0.367 1.15 0.562 2.66 0.812h0.0293l0.0078 0.0059h0.0059c2.02 0.337 2.83 0.565 3.68 1.09 1.17 0.701 1.87 1.99 1.87 3.47 0 1.4-0.641 2.62-1.7 3.47-1.06 0.847-2.53 1.32-4.21 1.32-1.52 0-2.77-0.626-3.84-1.45-0.026 0.243-0.047 0.491-0.199 0.678-0.203 0.25-0.516 0.363-0.834 0.363-0.318 0-0.63-0.113-0.834-0.363-0.198-0.243-0.273-0.559-0.273-0.893v-2.81c0-0.334 0.0759-0.65 0.273-0.893 0.203-0.249 0.514-0.369 0.834-0.369 0.293 0 0.588 0.101 0.789 0.332 0.194 0.223 0.265 0.509 0.281 0.818v0.0078c0.0542 0.647 0.445 1.23 1.11 1.68 0.669 0.448 1.61 0.73 2.67 0.73 1.09 1e-6 2.02-0.305 2.66-0.789 0.639-0.485 0.998-1.12 0.998-1.88 0-0.682-0.346-1.33-0.879-1.65h-0.0078c-0.574-0.358-0.982-0.485-2.8-0.768h-0.0078c-1.83-0.313-2.86-0.637-3.73-1.25-1.01-0.68-1.58-1.85-1.58-3.12 0-2.56 2.34-4.49 5.31-4.49zm-8.44 13.9h1.07a0.43 0.43 0 0 1 0.43 0.428v2.8h14.6a0.43 0.43 0 0 1 0.43 0.43v1.08a0.43 0.43 0 0 1-0.43 0.428h-16.1a0.43 0.43 0 0 1-0.428-0.428v-4.31a0.43 0.43 0 0 1 0.428-0.428z"/>
 <!--text-here-->
</svg>
