<svg version="1.1" viewBox="0 0 32 32" xmlns="http://www.w3.org/2000/svg">
 <title>Sparky</title>
 <path fill="#111" d="m16 0a16 16 0 0 0-16 16 16 16 0 0 0 16 16 16 16 0 0 0 16-16 16 16 0 0 0-16-16zm-1.57 3.18c-2.71 5.33 0.12 9.56 1.37 12.5-5.91-1.48-7.97-8.6-1.37-12.5zm6.86 2.29c0.802-0.00536 1.67 0.102 2.6 0.34-5.69 1.86-6.67 6.84-7.88 9.81-2.74-4.57-0.34-10.1 5.28-10.2zm-15.9 2.33c1.93 5.93 7.14 6.96 10.2 8.21-5.45 3.26-12.2-0.467-10.2-8.21zm16.7 2.82c2.05-0.0238 4.22 1.12 5.81 3.82-4.97-2.53-8.91 0.111-11.7 1.28 0.779-3.1 3.22-5.06 5.86-5.09zm-2.05 4.3c3.73-0.0336 6.88 3.15 5.53 8.4-1.73-5.3-6.38-6.22-9.15-7.34 1.18-0.706 2.43-1.05 3.62-1.06zm-3.78 1.28c6.45 1.62 8.7 9.4 1.5 13.7 2.96-5.82-0.132-10.4-1.5-13.7zm-0.48 0.0293c-1.55 6.16-8.97 8.31-13 1.43 5.56 2.83 9.97-0.125 13-1.43zm0.275 0.146c3.41 5.71-0.489 12.8-8.6 10.7 6.21-2.03 7.29-7.47 8.6-10.7z"/>
 <!--text-here-->
</svg>
