<svg version="1.1" viewBox="0 0 32 32" xmlns="http://www.w3.org/2000/svg">
 <title>SteamOS</title>
 <path fill="#111" d="m16 0c-6.01-0.03-11.9 3.61-14.4 9.08-0.869 1.75-1.36 3.65-1.52 5.58l8.42 3.55c0.841-0.563 1.88-0.833 2.88-0.752l3.3-4.79c0.351-0.456 0.585-0.916 0.61-1.51 0.27-2.98 3.03-5.45 6.03-5.38 0.453 0 0.908 0.052 1.35 0.152 2.94 0.602 5.08 3.62 4.68 6.59-0.27 2.98-3.04 5.45-6.03 5.38l-5.72 4.06c0.07 2.22-1.71 4.29-3.91 4.56-2.35 0.402-4.77-1.35-5.14-3.69-1.96-0.834-3.93-1.66-5.9-2.5 0.678 2.44 1.91 4.72 3.68 6.57 4.33 4.76 11.7 6.41 17.6 3.97 6-2.28 10.2-8.46 10.1-14.9 0-1.61-0.244-3.22-0.725-4.76-1.83-6.14-7.68-10.8-14.1-11.2-0.401-0.035-0.802-0.053-1.2-0.055zm5.29 7.72c-2.02-0.03-3.85 1.56-4.09 3.57-0.371 2.24 1.45 4.52 3.72 4.67 2.26 0.268 4.46-1.65 4.5-3.92 0.166-2.27-1.85-4.38-4.12-4.31zm-0.023 1c1.09-0.017 2.16 0.583 2.71 1.52 1.01 1.58 0.203 3.91-1.57 4.52-1.73 0.724-3.89-0.476-4.19-2.33-0.419-1.84 1.16-3.77 3.05-3.72zm-21.2 6.01c-0.022 0.301-0.031 0.604-0.037 0.906 7e-3 -0.302 0.013-0.605 0.037-0.906zm0.119 3.51c0.012 0.088 0.023 0.176 0.037 0.264-0.014-0.088-0.025-0.176-0.037-0.264zm10.8 0.335c-0.395 2e-3 -0.791 0.073-1.16 0.209 1.1 0.572 2.54 0.757 3.27 1.85 0.938 1.31 0.191 3.36-1.37 3.77-1.38 0.424-2.62-0.594-3.86-1 0.423 0.972 1.32 1.72 2.36 1.96 1.94 0.521 4.08-1 4.21-3.01 0.256-1.96-1.47-3.85-3.44-3.78zm-10.6 0.872c0.025 0.113 0.051 0.225 0.078 0.338-0.027-0.113-0.053-0.226-0.078-0.338z"/>
 <!--text-here-->
</svg>
