<svg version="1.1" viewBox="0 0 32 32" xmlns="http://www.w3.org/2000/svg">
 <title>Unset</title>
 <path fill="#111" d="m16 0c-8.84 0-16 7.16-16 16 0 8.84 7.16 16 16 16 8.84 0 16-7.16 16-16 0-8.84-7.16-16-16-16zm-3.63 10h9.63c0.555-0.00213 1.01 0.449 1 1v9.99c0.0021 0.555-0.449 1.01-1 1h-9.63c-0.288 5.82e-4 -0.562-0.124-0.752-0.34l-4.37-5c-0.328-0.376-0.328-0.936 0-1.31l4.37-5c0.19-0.216 0.464-0.34 0.752-0.34zm2.62 3.02a1 1 0 0 0-0.678 0.293 1 1 0 0 0 0 1.41l1.27 1.27-1.27 1.27a1 1 0 0 0 0 1.41 1 1 0 0 0 1.41 0l1.27-1.27 1.27 1.27a1 1 0 0 0 1.41 0 1 1 0 0 0 0-1.41l-1.27-1.27 1.27-1.27a1 1 0 0 0 0-1.41 1 1 0 0 0-1.41 0l-1.27 1.27-1.27-1.27a1 1 0 0 0-0.736-0.293z"/>
</svg>
