<svg version="1.1" viewBox="0 0 32 32" xmlns="http://www.w3.org/2000/svg">
 <title>Zorin</title>
 <path d="m16 0a16 16 0 0 0-16 16 16 16 0 0 0 16 16 16 16 0 0 0 16-16 16 16 0 0 0-16-16zm0 4a12 12 0 0 1 12 12 12 12 0 0 1-12 12 12 12 0 0 1-12-12 12 12 0 0 1 12-12zm-0.162 3.17-4.83 0.00195-1.4 2.45h12.8l-1.38-2.44-5.17-0.0156zm-7.95 5.49-1.88 3.33 1.76 3.12h0.678l9.59-6.45h-10.1zm15.6 0-9.59 6.45h10.4l1.75-3.1-1.89-3.36h-0.639zm-14 9.49 1.51 2.67 5.17 0.0156 4.83-2e-3 1.53-2.68h-13z" fill="#111"/>
 <!--text-here-->
</svg>
