<?xml version="1.0" encoding="UTF-8"?>
<svg enable-background="new 0 0 64 64" version="1.1" viewBox="0 0 64 64" xmlns="http://www.w3.org/2000/svg" xmlns:cc="http://creativecommons.org/ns#" xmlns:dc="http://purl.org/dc/elements/1.1/" xmlns:rdf="http://www.w3.org/1999/02/22-rdf-syntax-ns#">
 <metadata>
  <rdf:RDF>
   <cc:Work rdf:about="">
    <dc:format>image/svg+xml</dc:format>
    <dc:type rdf:resource="http://purl.org/dc/dcmitype/StillImage"/>
   </cc:Work>
  </rdf:RDF>
 </metadata>
 <g fill="#94989b">
  <path d="m14 26h36v5h-36z"/>
  <path d="m46 27.889 0.05503 16.433c0.029533 8.8193-6.755 8.3409-14.055 8.3409s-13.841 0.27778-13.89-7.4604l-0.11006-17.314h-2l-0.05503 16.363c-0.03934 11.698 7.755 10.13 16.055 10.13s16.298 1.4574 16.165-11.011l-0.16509-15.482h-2" stroke="#94989b" stroke-width="2"/>
  <path d="m30 55h4v5h-4z" stroke="#94989b" stroke-width="2"/>
 </g>
 <path d="m21 25v13c0 6.2 4.8 11 11 11s11-4.8 11-11v-13h-22z" fill="#d0d0d0" stroke="#94989b"/>
 <path d="m32 2c-6.2 0-11 3.8-11 10v13h22v-13c0-6.2-4.8-10-11-10" fill="#94989b"/>
 <path d="m32 2.8c-5.7 0-10.1 3.7-10.1 9.7v12.5h20.2v-12.5c0-6-4.4-9.7-10.1-9.7" fill="#d0d0d0"/>
 <g transform="matrix(1 0 0 -1 0 51.495)" fill="#94989b">
  <path d="m25.3 22.5c0 0.7-0.6 1.2-1.3 1.2s-1.3-0.5-1.3-1.1 0.6-1.1 1.3-1.2c0.7 0 1.3 0.5 1.3 1.1"/>
  <path d="m30.7 22.5c0 0.7-0.6 1.3-1.3 1.3s-1.3-0.6-1.4-1.3c0-0.7 0.6-1.3 1.3-1.3s1.4 0.5 1.4 1.3"/>
  <path d="m36 22.5c0 0.7-0.6 1.3-1.4 1.3-0.7 0-1.3-0.6-1.3-1.3s0.6-1.3 1.4-1.3c0.7 0 1.3 0.6 1.3 1.3"/>
  <path d="m41.4 22.6c0 0.6-0.6 1.1-1.3 1.1s-1.3-0.5-1.3-1.2 0.6-1.2 1.3-1.1 1.3 0.6 1.3 1.2"/>
  <path d="m25.2 16.2c0 0.7-0.6 1.3-1.3 1.4s-1.3-0.2-1.3-0.8 0.6-1.3 1.3-1.5 1.3 0.2 1.3 0.9"/>
  <path d="m30.6 15.6c0 0.7-0.6 1.3-1.4 1.4-0.8 0-1.4-0.5-1.4-1.2s0.6-1.3 1.4-1.4 1.4 0.4 1.4 1.2"/>
  <path d="m36.1 15.8c0 0.7-0.6 1.2-1.4 1.2s-1.4-0.6-1.4-1.4c0-0.7 0.6-1.3 1.4-1.2 0.8 0 1.4 0.7 1.4 1.4"/>
  <path d="m41.4 16.8c0 0.6-0.6 1-1.3 0.8-0.7-0.1-1.3-0.8-1.3-1.4 0-0.7 0.6-1.1 1.3-0.9s1.3 0.9 1.3 1.5"/>
  <path d="m27.9 19.1c0 0.7-0.6 1.3-1.3 1.3s-1.3-0.4-1.4-1.1 0.6-1.3 1.3-1.4c0.8 0 1.4 0.5 1.4 1.2"/>
  <path d="m33.4 19c0 0.7-0.6 1.3-1.4 1.3-0.7 0-1.4-0.6-1.4-1.3s0.6-1.3 1.4-1.3 1.4 0.6 1.4 1.3"/>
  <path d="m38.7 19.4c0 0.7-0.6 1.1-1.4 1.1-0.7 0-1.3-0.6-1.3-1.3s0.6-1.2 1.4-1.1c0.8 0 1.4 0.6 1.3 1.3"/>
  <path d="m27.8 12.4c0 0.7-0.6 1.3-1.3 1.5-0.7 0.1-1.3-0.3-1.3-0.9 0-0.7 0.6-1.4 1.3-1.6s1.3 0.3 1.3 1"/>
  <path d="m33.4 12.1c0 0.7-0.6 1.3-1.4 1.3s-1.4-0.5-1.4-1.3c0-0.7 0.6-1.3 1.4-1.3s1.4 0.6 1.4 1.3"/>
  <path d="m38.8 13c0 0.7-0.6 1-1.3 0.9s-1.3-0.8-1.3-1.5 0.6-1.2 1.4-1c0.7 0.2 1.3 0.9 1.2 1.6"/>
  <path d="m25.1 9.8c0 0.7-0.6 1.4-1.3 1.7s-1.2 0.1-1.2-0.6c0-0.6 0.5-1.4 1.2-1.8 0.7-0.3 1.3 0 1.3 0.7"/>
  <path d="m30.6 8.7c0 0.7-0.6 1.3-1.4 1.4s-1.4-0.4-1.4-1c0-0.7 0.6-1.4 1.4-1.5 0.7-0.2 1.4 0.4 1.4 1.1"/>
  <path d="m36.2 9c0 0.7-0.6 1.1-1.4 1-0.8 0-1.4-0.6-1.4-1.3s0.6-1.3 1.4-1.1c0.8 0 1.4 0.7 1.4 1.4"/>
  <path d="m41.4 10.9c0 0.6-0.5 0.8-1.2 0.6-0.7-0.3-1.3-1-1.3-1.7s0.6-1 1.3-0.6c0.6 0.3 1.2 1.1 1.2 1.7"/>
  <path d="m27.7 5.7c0 0.7-0.6 1.4-1.3 1.6s-1.3-0.1-1.3-0.7c0-0.7 0.6-1.5 1.3-1.7 0.7-0.3 1.3 0.1 1.3 0.8"/>
  <path d="m33.4 5.2c0 0.7-0.6 1.2-1.4 1.2s-1.4-0.5-1.4-1.2 0.6-1.4 1.4-1.4c0.8 0.1 1.4 0.7 1.4 1.4"/>
  <path d="m38.9 6.6c0 0.7-0.6 0.9-1.3 0.7s-1.4-0.9-1.3-1.6c0-0.7 0.6-1.1 1.4-0.8 0.7 0.2 1.2 1 1.2 1.7"/>
 </g>
 <path d="m20 24.5h24v7.25h-24z" fill="#d0d0d0" stroke="#94989b"/>
 <g fill="#94989b">
  <path d="m25.3 22.5c0 0.7-0.6 1.2-1.3 1.2s-1.3-0.5-1.3-1.1 0.6-1.1 1.3-1.2c0.7 0 1.3 0.5 1.3 1.1"/>
  <path d="m30.7 22.5c0 0.7-0.6 1.3-1.3 1.3s-1.3-0.6-1.4-1.3c0-0.7 0.6-1.3 1.3-1.3s1.4 0.5 1.4 1.3"/>
  <path d="m36 22.5c0 .7-.6 1.3-1.4 1.3-.7 0-1.3-.6-1.3-1.3 0-.7.6-1.3 1.4-1.3.7 0 1.3.6 1.3 1.3"/>
  <path d="m41.4 22.6c0 0.6-0.6 1.1-1.3 1.1s-1.3-0.5-1.3-1.2 0.6-1.2 1.3-1.1 1.3 0.6 1.3 1.2"/>
  <path d="m25.2 16.2c0 0.7-0.6 1.3-1.3 1.4s-1.3-0.2-1.3-0.8 0.6-1.3 1.3-1.5 1.3 0.2 1.3 0.9"/>
  <path d="m30.6 15.6c0 0.7-0.6 1.3-1.4 1.4-0.8 0-1.4-0.5-1.4-1.2s0.6-1.3 1.4-1.4 1.4 0.4 1.4 1.2"/>
  <path d="m36.1 15.8c0 .7-.6 1.2-1.4 1.2-.8 0-1.4-.6-1.4-1.4 0-.7.6-1.3 1.4-1.2.8 0 1.4.7 1.4 1.4"/>
  <path d="m41.4 16.8c0 .6-.6 1-1.3.8-.7-.1-1.3-.8-1.3-1.4 0-.7.6-1.1 1.3-.9.7.2 1.3.9 1.3 1.5"/>
  <path d="m27.9 19.1c0 .7-.6 1.3-1.3 1.3-.7 0-1.3-.4-1.4-1.1s.6-1.3 1.3-1.4c.8 0 1.4.5 1.4 1.2"/>
  <path d="m33.4 19c0 0.7-0.6 1.3-1.4 1.3-0.7 0-1.4-0.6-1.4-1.3s0.6-1.3 1.4-1.3 1.4 0.6 1.4 1.3"/>
  <path d="m38.7 19.4c0 .7-.6 1.1-1.4 1.1-.7 0-1.3-.6-1.3-1.3 0-.7.6-1.2 1.4-1.1.8 0 1.4.6 1.3 1.3"/>
  <path d="m27.8 12.4c0 .7-.6 1.3-1.3 1.5-.7.1-1.3-.3-1.3-.9 0-.7.6-1.4 1.3-1.6.7-.2 1.3.3 1.3 1"/>
  <path d="m33.4 12.1c0 0.7-0.6 1.3-1.4 1.3s-1.4-0.5-1.4-1.3c0-0.7 0.6-1.3 1.4-1.3s1.4 0.6 1.4 1.3"/>
  <path d="m38.8 13c0 .7-.6 1-1.3.9-.7-.1-1.3-.8-1.3-1.5 0-.7.6-1.2 1.4-1 .7.2 1.3.9 1.2 1.6"/>
  <path d="m25.1 9.8c0 .7-.6 1.4-1.3 1.7-.7.3-1.2.1-1.2-.6 0-.6.5-1.4 1.2-1.8.7-.3 1.3 0 1.3.7"/>
  <path d="m30.6 8.7c0 .7-.6 1.3-1.4 1.4-.8.1-1.4-.4-1.4-1 0-.7.6-1.4 1.4-1.5.7-.2 1.4.4 1.4 1.1"/>
  <path d="m36.2 9c0 .7-.6 1.1-1.4 1-.8 0-1.4-.6-1.4-1.3 0-.7.6-1.3 1.4-1.1.8 0 1.4.7 1.4 1.4"/>
  <path d="m41.4 10.9c0 .6-.5.8-1.2.6-.7-.3-1.3-1-1.3-1.7 0-.7.6-1 1.3-.6.6.3 1.2 1.1 1.2 1.7"/>
  <path d="m27.7 5.7c0 .7-.6 1.4-1.3 1.6-.7.2-1.3-.1-1.3-.7 0-.7.6-1.5 1.3-1.7.7-.3 1.3.1 1.3.8"/>
  <path d="m33.4 5.2c0 .7-.6 1.2-1.4 1.2-.8 0-1.4-.5-1.4-1.2 0-.7.6-1.4 1.4-1.4.8.1 1.4.7 1.4 1.4"/>
  <path d="m38.9 6.6c0 .7-.6.9-1.3.7-.7-.2-1.4-.9-1.3-1.6 0-.7.6-1.1 1.4-.8.7.2 1.2 1 1.2 1.7"/>
  <g stroke="#94989b">
   <circle cx="11.5" cy="28.5" r="1.8633" fill-rule="evenodd" stroke-linecap="square" stroke-width="1.2733"/>
   <circle cx="52.5" cy="28.5" r="1.8633" fill-rule="evenodd" stroke-linecap="square" stroke-width="1.2733"/>
   <path d="m30.484 27.799c0.0091-0.8136 0.43248-1.0682 0.66306-1.0682 0.32201 0 0.45501 0.24583 0.47674 0.35467 0.02173 0.10875 0.1436 0.19573 0.18276 0.01737 0.03919-0.17838 0.41801-0.72234 0.8836-0.72234 0.4264 0 0.57408 0.43973 0.5613 0.81374-0.03488 1.0182-1.3465 1.8308-1.5192 2.3439-0.15373-0.31077-1.2591-0.76-1.2483-1.7391zm2.3585-1.6709c-0.38292 0-0.83578 0.28281-1.1099 0.75279-0.07396-0.16973-0.33748-0.3547-0.65074-0.3547-0.25242 0-0.96094 0.31548-0.96094 1.3337 0 1.3141 1.3295 1.584 1.5983 1.9924 0.01847 0.02807 0.07795 0.0493 0.10066-0.01779 0.21446-0.6329 1.8774-1.348 1.8774-2.636-1.4e-5 -0.72231-0.47185-1.0704-0.85476-1.0704z" stroke-width=".242"/>
  </g>
 </g>
</svg>
