<svg version="1.1" viewBox="0 0 24 24" xmlns="http://www.w3.org/2000/svg">
 <defs>
  <linearGradient id="grad" x1="6" x2="18" y1="24" y2=".1" gradientUnits="userSpaceOnUse">
   <stop stop-color="#204e66" offset="0"/>
   <stop stop-color="#3bbd51" stop-opacity=".91" offset="1"/>
  </linearGradient>
 </defs>
 <path d="m24 12a12 12 0 0 1-12 12 12 12 0 0 1-12-12 12 12 0 0 1 12-12 12 12 0 0 1 12 12z" fill="url(#grad)"/>
 <path d="m16 6.6c-0.083 0-0.15 0.068-0.15 0.15v1.5c0 0.083 0.068 0.15 0.15 0.15h1.5c0.083 0 0.15-0.068 0.15-0.15v-1.5c0-0.083-0.068-0.15-0.15-0.15zm-0.15 11v-0.45c0-0.25 0.2-0.45 0.45-0.45s0.45 0.2 0.45 0.45v0.45h0.9v-0.45c0-0.25 0.2-0.45 0.45-0.45s0.45 0.2 0.45 0.45v0.9c0 0.25-0.2 0.45-0.45 0.45h-3.6c-0.25 0-0.45-0.2-0.45-0.45v-0.9c0-0.25 0.2-0.45 0.45-0.45s0.45 0.2 0.45 0.45v0.45zm-2.7-6.3h0.45c0.25 0 0.45 0.2 0.45 0.45s-0.2 0.45-0.45 0.45h-1.8c-0.25 0-0.45-0.2-0.45-0.45s0.2-0.45 0.45-0.45h0.45v-0.9h-1.4c-0.25 0-0.45-0.2-0.45-0.45s0.2-0.45 0.45-0.45h2.7c0.25 0 0.45 0.2 0.45 0.45s-0.2 0.45-0.45 0.45h-0.45zm4.5 0.9h-0.45c-0.25 0-0.45-0.2-0.45-0.45s0.2-0.45 0.45-0.45h0.45v-0.45c0-0.25 0.2-0.45 0.45-0.45s0.45 0.2 0.45 0.45v1.8c0 0.25-0.2 0.45-0.45 0.45s-0.45-0.2-0.45-0.45zm-4.5 1.8h-0.45c-0.25 0-0.45-0.2-0.45-0.45s0.2-0.45 0.45-0.45h0.9c0.25 0 0.45 0.2 0.45 0.45v1.8c0 0.25-0.2 0.45-0.45 0.45h-2.7c-0.25 0-0.45-0.2-0.45-0.45s0.2-0.45 0.45-0.45h2.2zm2.9-8.1h1.5c0.58 0 1.1 0.47 1.1 1.1v1.5c0 0.58-0.47 1.1-1.1 1.1h-1.5c-0.58 0-1.1-0.47-1.1-1.1v-1.5c0-0.58 0.47-1.1 1.1-1.1zm-9 0h1.5c0.58 0 1.1 0.47 1.1 1.1v1.5c0 0.58-0.47 1.1-1.1 1.1h-1.5c-0.58 0-1.1-0.47-1.1-1.1v-1.5c0-0.58 0.47-1.1 1.1-1.1zm0 0.9c-0.083 0-0.15 0.068-0.15 0.15v1.5c0 0.083 0.068 0.15 0.15 0.15h1.5c0.083 0 0.15-0.068 0.15-0.15v-1.5c0-0.083-0.068-0.15-0.15-0.15zm0 8.1h1.5c0.58 0 1.1 0.47 1.1 1.1v1.5c0 0.58-0.47 1.1-1.1 1.1h-1.5c-0.58 0-1.1-0.47-1.1-1.1v-1.5c0-0.58 0.47-1.1 1.1-1.1zm0 0.9c-0.083 0-0.15 0.068-0.15 0.15v1.5c0 0.083 0.068 0.15 0.15 0.15h1.5c0.083 0 0.15-0.068 0.15-0.15v-1.5c0-0.083-0.068-0.15-0.15-0.15zm6.1-9h-2.2c-0.25 0-0.45-0.2-0.45-0.45s0.2-0.45 0.45-0.45h2.7c0.25 0 0.45 0.2 0.45 0.45v1.8c0 0.25-0.2 0.45-0.45 0.45s-0.45-0.2-0.45-0.45zm-2.2 1.8c-0.25 0-0.45-0.2-0.45-0.45s0.2-0.45 0.45-0.45h0.9c0.25 0 0.45 0.2 0.45 0.45s-0.2 0.45-0.45 0.45zm-4.5 5.4c-0.25 0-0.45-0.2-0.45-0.45s0.2-0.45 0.45-0.45h1.8c0.25 0 0.45 0.2 0.45 0.45s-0.2 0.45-0.45 0.45zm3.6 0c-0.25 0-0.45-0.2-0.45-0.45s0.2-0.45 0.45-0.45h0.9c0.25 0 0.45 0.2 0.45 0.45s-0.2 0.45-0.45 0.45zm1.4 3.6v0.45c0 0.25-0.2 0.45-0.45 0.45s-0.45-0.2-0.45-0.45v-0.9c0-0.25 0.2-0.45 0.45-0.45h1.8c0.25 0 0.45 0.2 0.45 0.45s-0.2 0.45-0.45 0.45zm-1.8-6.3h0.45c0.25 0 0.45 0.2 0.45 0.45s-0.2 0.45-0.45 0.45h-0.9c-0.25 0-0.45-0.2-0.45-0.45v-0.45h-0.45c-0.25 0-0.45-0.2-0.45-0.45s0.2-0.45 0.45-0.45h0.9c0.25 0 0.45 0.2 0.45 0.45zm-3.6-0.45c0-0.25 0.2-0.45 0.45-0.45s0.45 0.2 0.45 0.45v0.9c0 0.25-0.2 0.45-0.45 0.45s-0.45-0.2-0.45-0.45zm9 0c0-0.25 0.2-0.45 0.45-0.45s0.45 0.2 0.45 0.45v1.8c0 0.25-0.2 0.45-0.45 0.45s-0.45-0.2-0.45-0.45zm1.8 4v-0.45c0-0.25 0.2-0.45 0.45-0.45h0.9c0.25 0 0.45 0.2 0.45 0.45s-0.2 0.45-0.45 0.45h-0.45v0.45c0 0.25-0.2 0.45-0.45 0.45h-1.8c-0.25 0-0.45-0.2-0.45-0.45v-0.9c0-0.25 0.2-0.45 0.45-0.45s0.45 0.2 0.45 0.45v0.45zm-13-7.6c0 0.25-0.2 0.45-0.45 0.45s-0.45-0.2-0.45-0.45v-1.8c0-1.3 0.99-2.2 2.2-2.2h1.8c0.25 0 0.45 0.2 0.45 0.45s-0.2 0.45-0.45 0.45h-1.8c-0.75 0-1.4 0.6-1.4 1.4zm13-3.2c-0.25 0-0.45-0.2-0.45-0.45s0.2-0.45 0.45-0.45h1.8c1.3 0 2.2 0.99 2.2 2.2v1.8c0 0.25-0.2 0.45-0.45 0.45s-0.45-0.2-0.45-0.45v-1.8c0-0.75-0.6-1.4-1.4-1.4zm-9.9 16c0.25 0 0.45 0.2 0.45 0.45s-0.2 0.45-0.45 0.45h-1.8c-1.3 0-2.2-0.99-2.2-2.2v-1.8c0-0.25 0.2-0.45 0.45-0.45s0.45 0.2 0.45 0.45v1.8c0 0.75 0.6 1.4 1.4 1.4zm13-3.2c0-0.25 0.2-0.45 0.45-0.45s0.45 0.2 0.45 0.45v1.8c0 1.3-0.99 2.2-2.2 2.2h-1.8c-0.25 0-0.45-0.2-0.45-0.45s0.2-0.45 0.45-0.45h1.8c0.75 0 1.4-0.6 1.4-1.4z" fill="#f9f9f9" stroke-width=".9"/>
</svg>
