<?xml version="1.0" standalone="no"?>
<!DOCTYPE svg PUBLIC "-//W3C//DTD SVG 20010904//EN"
 "http://www.w3.org/TR/2001/REC-SVG-20010904/DTD/svg10.dtd">
<svg version="1.0" xmlns="http://www.w3.org/2000/svg"
 width="700.000000pt" height="700.000000pt" viewBox="0 0 700.000000 700.000000"
 preserveAspectRatio="xMidYMid meet">
<metadata>
Created by potrace 1.14, written by Peter Selinger 2001-2017
</metadata>
<g transform="translate(0.000000,700.000000) scale(0.100000,-0.100000)"
fill="#000000" stroke="none">
<path d="M700 6989 c-333 -40 -604 -286 -676 -612 -11 -50 -17 -140 -20 -294
-4 -252 -1 -268 68 -335 48 -46 95 -62 168 -55 73 6 130 42 166 103 29 50 30
60 34 324 1 69 9 149 16 180 26 99 109 193 208 234 39 16 150 25 372 30 111 2
124 4 167 30 26 15 60 46 75 68 24 36 27 51 27 119 0 70 -3 81 -30 121 -17 23
-51 54 -75 68 -44 24 -51 25 -240 26 -107 0 -224 -3 -260 -7z"/>
<path d="M5810 6973 c-36 -18 -65 -43 -85 -71 -27 -40 -30 -51 -30 -121 0 -70
3 -82 29 -120 16 -23 50 -54 75 -69 41 -24 55 -26 175 -29 171 -4 295 -10 325
-17 85 -19 181 -101 225 -190 28 -57 35 -123 40 -371 3 -153 10 -177 67 -235
82 -81 220 -80 303 3 63 64 70 98 63 345 -7 249 -20 326 -82 456 -80 170 -253
325 -440 396 -78 30 -179 42 -390 47 l-220 5 -55 -29z"/>
<path d="M1999 6053 c-8 -1 -93 -4 -189 -7 -227 -6 -273 -14 -397 -71 -198
-91 -349 -258 -420 -465 -34 -99 -42 -199 -42 -555 0 -361 7 -444 45 -559 78
-235 305 -443 548 -502 89 -21 208 -28 506 -28 394 0 480 11 625 77 62 28 171
102 212 142 129 130 211 290 234 463 13 95 17 649 6 770 -22 238 -130 436
-310 571 -151 113 -293 155 -543 160 -71 1 -159 3 -195 4 -36 1 -72 1 -80 0z
m386 -447 c159 -20 283 -143 304 -303 13 -90 6 -679 -8 -737 -32 -132 -155
-238 -299 -255 -79 -10 -659 -7 -717 4 -84 15 -182 87 -229 168 -41 71 -49
141 -49 442 -1 421 7 470 93 568 59 66 138 104 240 114 103 10 582 9 665 -1z"/>
<path d="M4927 6054 c-1 -2 -76 -4 -165 -5 -186 -2 -296 -18 -398 -58 -220
-86 -406 -292 -463 -516 -29 -111 -37 -228 -35 -540 2 -396 12 -473 81 -615
81 -168 203 -291 370 -374 132 -66 244 -80 648 -80 288 0 411 7 499 30 232 60
436 241 525 466 54 135 56 160 56 593 0 461 -5 499 -79 650 -82 164 -197 279
-361 361 -124 61 -194 75 -420 80 -104 3 -205 6 -223 7 -18 2 -34 2 -35 1z
m378 -449 c106 -13 197 -72 252 -163 53 -85 56 -122 55 -547 0 -261 -10 -347
-47 -411 -53 -91 -153 -159 -251 -171 -99 -13 -682 -8 -742 5 -107 24 -209
117 -247 227 -16 43 -18 93 -20 365 -2 365 3 429 38 502 42 85 142 170 217
185 90 18 621 24 745 8z"/>
<path d="M1745 3133 c-83 -6 -199 -25 -257 -44 -53 -16 -154 -64 -168 -79 -3
-3 -18 -14 -35 -25 -44 -27 -142 -123 -180 -175 -57 -78 -112 -193 -129 -270
-5 -23 -8 -51 -21 -155 -6 -51 -6 -648 0 -695 2 -19 7 -55 10 -80 29 -230 199
-462 421 -573 95 -48 161 -66 309 -83 48 -5 645 -5 700 1 179 19 299 63 423
158 121 92 231 244 272 377 37 119 43 198 43 550 1 326 -4 405 -32 511 -72
280 -334 523 -606 563 -22 3 -58 9 -80 12 -39 6 -590 12 -670 7z m695 -452
c113 -33 214 -137 245 -256 11 -42 15 -605 4 -705 -10 -99 -41 -169 -101 -229
-97 -96 -164 -107 -600 -105 -280 2 -358 11 -418 47 -108 65 -166 160 -177
288 -9 106 -8 561 1 654 16 164 137 291 297 313 102 13 696 8 749 -7z"/>
<path d="M4026 3125 c-193 -49 -218 -312 -38 -402 l53 -26 333 1 c310 0 337 1
378 20 166 73 177 297 20 389 l-45 27 -328 1 c-217 1 -343 -3 -373 -10z"/>
<path d="M5490 3127 c-114 -22 -189 -150 -158 -267 26 -95 113 -159 224 -163
l58 -2 1 -215 0 -215 -361 -5 -361 -5 -48 -30 c-70 -43 -109 -118 -102 -197 8
-96 69 -171 157 -195 20 -6 232 -10 500 -10 503 0 515 1 577 55 18 15 41 48
53 74 20 46 21 62 21 529 -1 447 -2 483 -19 522 -23 51 -60 89 -110 113 -31
14 -67 18 -212 19 -96 0 -195 -3 -220 -8z"/>
<path d="M4006 2245 c-47 -17 -91 -57 -119 -110 -20 -39 -21 -51 -21 -530 1
-536 0 -528 61 -589 63 -64 73 -66 448 -66 309 0 344 2 380 19 141 64 173 243
63 352 -58 57 -101 66 -308 64 -96 -1 -182 1 -191 3 -14 3 -16 41 -17 353 0
338 -1 350 -22 394 -50 102 -165 149 -274 110z"/>
<path d="M5495 1380 c-94 -20 -161 -99 -169 -198 -7 -92 43 -176 127 -212 43
-19 66 -21 243 -20 176 1 200 4 235 22 137 71 160 255 44 356 -20 18 -49 38
-64 44 -28 12 -368 18 -416 8z"/>
<path d="M147 1300 c-47 -14 -96 -58 -123 -111 l-25 -50 5 -227 c3 -146 10
-251 20 -293 65 -291 307 -532 597 -594 100 -22 457 -32 526 -16 195 47 222
312 42 407 -27 14 -62 18 -174 20 -286 6 -346 15 -416 66 -51 37 -56 42 -92
89 -55 73 -65 135 -70 429 -2 128 -4 138 -30 183 -51 86 -160 127 -260 97z"/>
<path d="M6702 1297 c-50 -16 -107 -78 -125 -134 -10 -33 -15 -98 -16 -203 -2
-245 -12 -295 -77 -380 -38 -49 -116 -106 -167 -121 -39 -12 -146 -19 -332
-23 -169 -3 -202 -16 -264 -104 -29 -41 -39 -133 -21 -187 19 -57 86 -119 145
-134 54 -13 321 -13 451 1 260 28 489 184 611 418 73 141 91 246 89 535 -1
172 -4 205 -19 232 -51 92 -168 135 -275 100z"/>
</g>
</svg>
