<svg width="1024" height="1024" version="1.1" viewBox="0 0 1024 1024" xmlns="http://www.w3.org/2000/svg" xmlns:xlink="http://www.w3.org/1999/xlink">
 <circle cx="512" cy="512" r="512" fill="#fff" fill-opacity=".05" opacity=".5" stroke="#000"/>
 <g fill="none" stroke="#404040" stroke-linecap="round">
  <path id="deg90" d="m512.0 120-0.05 36.0zm-392.0 392.0 36.0 0.05zm748 0.95 36.0 0.05zm-356.0 356.0-0.05 36.0z"/>
  <use transform="rotate(10,512,512)" xlink:href="#deg90"/>
  <use transform="rotate(20,512,512)" xlink:href="#deg90"/>
  <use transform="rotate(30,512,512)" xlink:href="#deg90"/>
  <use transform="rotate(40,512,512)" xlink:href="#deg90"/>
  <use transform="rotate(50,512,512)" xlink:href="#deg90"/>
  <use transform="rotate(60,512,512)" xlink:href="#deg90"/>
  <use transform="rotate(70,512,512)" xlink:href="#deg90"/>
  <use transform="rotate(80,512,512)" xlink:href="#deg90"/>
  <use id="deg5" transform="rotate(5,512,512)" xlink:href="#deg90"/>
  <use transform="rotate(10,512,512)" xlink:href="#deg5"/>
  <use transform="rotate(20,512,512)" xlink:href="#deg5"/>
  <use transform="rotate(30,512,512)" xlink:href="#deg5"/>
  <use transform="rotate(40,512,512)" xlink:href="#deg5"/>
  <use transform="rotate(50,512,512)" xlink:href="#deg5"/>
  <use transform="rotate(60,512,512)" xlink:href="#deg5"/>
  <use transform="rotate(70,512,512)" xlink:href="#deg5"/>
  <use transform="rotate(80,512,512)" xlink:href="#deg5"/>
  <g id="gdeg1">
   <path id="deg1" transform="rotate(1,512,512)" d="m512 138v18zm-374 374h18zm729 0h20zm-355 355v20z"/>
   <use transform="rotate(1,512,512)" xlink:href="#deg1"/>
   <use transform="rotate(2,512,512)" xlink:href="#deg1"/>
   <use transform="rotate(3,512,512)" xlink:href="#deg1"/>
   <use transform="rotate(5,512,512)" xlink:href="#deg1"/>
   <use transform="rotate(6,512,512)" xlink:href="#deg1"/>
   <use transform="rotate(7,512,512)" xlink:href="#deg1"/>
   <use transform="rotate(8,512,512)" xlink:href="#deg1"/>
  </g>
  <use transform="rotate(10,512,512)" xlink:href="#gdeg1"/>
  <use transform="rotate(20,512,512)" xlink:href="#gdeg1"/>
  <use transform="rotate(30,512,512)" xlink:href="#gdeg1"/>
  <use transform="rotate(40,512,512)" xlink:href="#gdeg1"/>
  <use transform="rotate(50,512,512)" xlink:href="#gdeg1"/>
  <use transform="rotate(60,512,512)" xlink:href="#gdeg1"/>
  <use transform="rotate(70,512,512)" xlink:href="#gdeg1"/>
  <use transform="rotate(80,512,512)" xlink:href="#gdeg1"/>
  <g fill="none" stroke="#000">
   <circle cx="512" cy="512" r="184.7" stroke-width="1.847"/>
   <g>
    <circle cx="512" cy="512" r="200" stroke-width="6"/>
    <circle cx="512" cy="512" r="235" stroke-width="8"/>
    <circle cx="512" cy="512" r="290" stroke-width="1"/>
    <circle cx="512" cy="512" r="350" stroke-width="8"/>
   </g>
  </g>
 </g>
 <g font-family="'DejaVu Sans'" font-size="18" font-weight="bold" text-anchor="middle">
  <text transform="rotate(0,512,512)" font-size="36" x="512" y="48">N</text>
  <text transform="rotate(15,512,512)" x="512" y="96">15</text>
  <text transform="rotate(30,512,512)" x="512" y="96">30</text>
  <text transform="rotate(45,512,512)" x="512" y="96">45</text>
  <text transform="rotate(45,512,512)" x="512" y="36">NE</text>
  <text transform="rotate(60,512,512)" x="512" y="96">60</text>
  <text transform="rotate(75,512,512)" x="512" y="96">75</text>
  <text transform="rotate(90,512,512)" font-size="36" x="512" y="48">E</text>
  <text transform="rotate(105,512,512)" x="512" y="96">105</text>
  <text transform="rotate(120,512,512)" x="512" y="96">120</text>
  <text transform="rotate(135,512,512)" x="512" y="96">135</text>
  <text transform="rotate(135,512,512)" x="512" y="36">SE</text>
  <text transform="rotate(150,512,512)" x="512" y="96">150</text>
  <text transform="rotate(165,512,512)" x="512" y="96">165</text>
  <text transform="rotate(180,512,512)" font-size="36" x="512" y="48">S</text>
  <text transform="rotate(195,512,512)" x="512" y="96">195</text>
  <text transform="rotate(210,512,512)" x="512" y="96">210</text>
  <text transform="rotate(225,512,512)" x="512" y="96">225</text>
  <text transform="rotate(225,512,512)" x="512" y="36">SW</text>
  <text transform="rotate(240,512,512)" x="512" y="96">240</text>
  <text transform="rotate(255,512,512)" x="512" y="96">255</text>
  <text transform="rotate(270,512,512)" font-size="36" x="512" y="48">W</text>
  <text transform="rotate(285,512,512)" x="512" y="96">285</text>
  <text transform="rotate(300,512,512)" x="512" y="96">300</text>
  <text transform="rotate(315,512,512)" x="512" y="96">315</text>
  <text transform="rotate(315,512,512)" x="512" y="36">NW</text>
  <text transform="rotate(330,512,512)" x="512" y="96">330</text>
  <text transform="rotate(345,512,512)" x="512" y="96">345</text>
 </g>
 <g id="rose">
  <g id="rose12" stroke="#000000" stroke-width="1.0">
  <use xlink:href="#rose4" transform="translate(256,256) scale(0.5,0.5) rotate(22.5,512,512)"/>
  <use xlink:href="#rose4" transform="translate(256,256) scale(0.5,0.5) rotate(67.5,512,512)"/>
  </g>
  <g id="rose8" stroke="#000000" stroke-width="1.0">
  <use xlink:href="#rose4" transform="translate(128,128) scale(0.75,0.75) rotate(45,512,512)"/>
  </g>
  <g id="rose4" stroke="#000000" stroke-width="1.0">
  <path id="rose4w" fill="#fff" d="m 512,62 v 450 l 61.63,-61.645 z M 450.364,450.366 62,512 H 512 Z M 512,512 450.364,573.633 512,962 Z m 0,0 61.631,61.633 L 962,512 Z"/>
  <path id="rose4b" fill="#000" d="m512 62-61.638 388.37 61.638 61.63zm61.631 388.37-61.631 61.63h450zm-511.63 61.63 388.37 61.637 61.645-61.637h-0.0325zm450 0v450l61.639-388.37z" />
  </g>
 </g>
</svg>
