<svg version="1.1" viewBox="0 0 256 256" xmlns="http://www.w3.org/2000/svg">
 <defs>
  <linearGradient id="linearGradient15" x2="256" y2="256" gradientUnits="userSpaceOnUse">
   <stop stop-color="#fafafa" offset="0"/>
   <stop stop-color="#c8ccd0" offset="1"/>
  </linearGradient>
 </defs>
 <rect width="256" height="256" ry="32" fill="url(#linearGradient15)"/>
 <circle cx="128" cy="128" r="112" stroke-linecap="round" stroke-width="10"/>
 <circle cx="128" cy="128" r="100" fill="#383848" stroke-linecap="round" stroke-width="9.1"/>
 <path d="m101 136 13-7.6c-0.14-1.6 5e-3 -3.3 0.44-4.9 2.4-7.6 10-12 18-10 0 0 3.2 1.2 4.6 2.2l12-6.8-56-41z" fill="#f00"/>
 <path d="m156 121-13 7.5c-0.051 0.98-0.21 2-0.46 2.9-2.4 7.6-10 12-18 10-1-0.27-2-0.63-2.9-1.1l-14 7.9 56 41z" fill="#fff"/>
</svg>
