<?xml version="1.0" encoding="UTF-8"?>
<svg viewBox="0 0 56 56" xmlns="http://www.w3.org/2000/svg" version="1.1">
 <path id="bg" fill="#3d4348" d="m47.636 4.9963h-39.928c-5.0017 0-5.0413 0.45591-5.0413 6.5413v22.175c0 6.1105 0.45591 5.0413 6.5413 5.0413h14.119c1.3774 0 2.5043-0.37307 2.5043 1.0043v2.4292c0 1.3774-1.1269 1.0043-2.5043 1.0043h-6.0604c-1.0268 0-1.8782 0.85146-1.8782 1.8782s0.82641 1.9033 1.8782 1.9033h20.911c1.0268 0 1.8782-0.85146 1.8782-1.8782s-0.85146-1.8782-1.8782-1.8782h-6.0604c-1.3774 0-2.5043 0.37307-2.5043-1.0043v-2.4292c0-1.3774 1.1269-1.0043 2.5043-1.0043h14.044c6.1105 0 6.5413 1.0441 6.5413-5.0413v-22.175c-0.02504-6.1105 0.10563-6.5664-5.0664-6.5664z"/>
 <path id="fg" fill="#d3aa6e" d="m14.696 30.889 4.4278-6.6417 4.4278 4.4278 6.6417-8.8556 8.8556 11.069zm25.976-16.235a3.247 3.247 0 0 1-3.247 3.247 3.247 3.247 0 0 1-3.247-3.247 3.247 3.247 0 0 1 3.247-3.247 3.247 3.247 0 0 1 3.247 3.247z"/>
</svg>
