<svg version="1.1" viewBox="0 0 256 256" xmlns="http://www.w3.org/2000/svg">
 <defs>
  <linearGradient id="linearGradient15" x2="256" y2="256" gradientUnits="userSpaceOnUse">
   <stop stop-color="#fafafa" offset="0"/>
   <stop stop-color="#c8ccd0" offset="1"/>
  </linearGradient>
 </defs>
 <rect width="256" height="256" ry="32" fill="url(#linearGradient15)"/>
 <path d="m74 34-54 94 54 94h108l1.7-4.6-30-41c-23 12-52 8.4-70-12-21-23-17-60 6.9-81 24-21 60-19 81 4 18 20 18 49 2.4 71l29 26 32-56-54-94zm58 46c-12-0.53-24 3.3-33 12-19 17-22 45-5.7 64 16 18 45 20 64 2.8 19-17 22-45 5.7-64-8-9.2-19-14-31-15z" color="#000000" fill="#353b45" opacity=".6" stroke-width="5.3" style="-inkscape-stroke:none"/>
</svg>
