<?xml version="1.0" encoding="UTF-8"?>
<svg version="1.1" viewBox="0 0 64 64" xmlns="http://www.w3.org/2000/svg">
 <path transform="matrix(1.4562 0 0 1.4562 22.268 21.044)" d="m-2.3072-9.7887-10.22 17.7 10.22 17.702h20.439l0.31814-0.86505-5.671-7.7309c-4.3815 2.3525-9.8952 1.5846-13.215-2.2117-3.8818-4.4389-3.2645-11.301 1.2983-15.291 4.5628-3.9902 11.446-3.6878 15.328 0.75109 3.3129 3.7883 3.3463 9.3412 0.44931 13.368l5.5618 4.9221 6.1498-10.644-10.219-17.7zm10.963 8.7958c-2.1851-0.10076-4.4495 0.63304-6.2823 2.2358-3.6656 3.2056-4.1142 8.5854-1.0824 12.052 3.0318 3.4669 8.4229 3.7394 12.088 0.53381 3.6656-3.2056 4.1142-8.5854 1.0824-12.052-1.5159-1.7335-3.6211-2.6689-5.8062-2.7696z" color="#000000" opacity=".6" style="-inkscape-stroke:none"/>
</svg>
