<svg fill="#fff" version="1.1" viewBox="0 0 152 151" xmlns="http://www.w3.org/2000/svg">
 <g transform="translate(1 .5)">
  <path d="m0 22c0-12 10-22 22-22h105c12 0 22 10 22 22v105c0 12-10 22-22 22h-105c-12 0-22-10-22-22z" fill="#f50"/>
  <path d="m17 79-0.88 6.4 0.88 6.4c0 0.59 0.88 0.59 0.88 0l0.88-6.4-0.88-6.4c0-0.88-0.88-0.88-0.88 0zm5.3-4.1c0-0.88-0.88-0.88-0.88 0l-1.5 11 1.2 10c0 0.88 1.2 0.88 1.2 0l1.2-10zm17-8.8-0.88 19 0.59 12c0 2.3 2.1 2.3 2.1 0l1.2-12-1.2-19c0-1.5-1.8-1.5-1.8 0zm-9.1 6.4-1.2 13 0.88 12c0 1.8 1.5 1.8 1.5 0l1.2-12-1.2-13c0-0.88-1.2-0.88-1.2 0zm21 25 0.88-12-0.88-26c0-1.8-2.1-1.8-2.1 0l-0.88 26 0.59 12c0 2.3 2.3 2.3 2.3 0zm20 0 0.59-12-0.59-30c0-2.1-2.9-2.1-2.9 0l-0.59 30 0.59 12c0 2.3 2.9 2.3 2.9 0zm-10 0 0.88-12-0.88-26c0-1.8-2.6-1.8-2.6 0l-0.59 26 0.59 12c0 2.3 2.6 2.3 2.6 0zm-24 0 0.88-12-0.88-12c0-0.88-1.8-0.88-1.8 0l-0.88 12 0.88 12c0 2.1 1.8 2.1 1.8 0zm-9.7 0 1.2-12-1.2-13c0-0.88-1.2-0.88-1.2 0l-1.2 13 1.2 12c0 1.2 1.2 1.2 1.2 0zm36-37-0.59 25 0.29 12c0 2.3 2.9 2.3 2.9 0l0.59-12-0.59-25c0-2.1-2.6-2.1-2.6 0zm-17 37 0.88-12-0.88-24c0-1.8-2.1-1.8-2.1 0l-0.88 24 0.59 12c0 2.3 2.3 2.3 2.3 0zm9.7 0 0.88-12-0.88-27c0-1.8-2.3-1.8-2.3 0l-0.88 27 0.88 12c0 2.3 2.3 2.3 2.3 0zm57-26c-1.5-17-19-28-35-21-1.2 0.59-1.5 0.88-1.5 1.8v46c0 0.88 0.59 1.8 1.5 1.8h40c7.9 0 14-6.4 14-14 0-11-10-17-20-13zm-40-18-0.88 33 0.88 12c0 2.3 2.9 2.3 2.9 0l0.88-12-0.88-33c0-2.1-2.9-2.1-2.9 0z"/>
 </g>
</svg>
