<?xml version="1.0" encoding="UTF-8" standalone="no"?>
<svg
   viewBox="0 0 719.6 719.6"
   version="1.1"
   id="svg1"
   sodipodi:docname="Google Find My Device (meticullously created from SCRATCH).2023.svg"
   width="719.6"
   height="719.6"
   inkscape:version="1.3.2 (091e20e, 2023-11-25, custom)"
   xmlns:inkscape="http://www.inkscape.org/namespaces/inkscape"
   xmlns:sodipodi="http://sodipodi.sourceforge.net/DTD/sodipodi-0.dtd"
   xmlns="http://www.w3.org/2000/svg"
   xmlns:svg="http://www.w3.org/2000/svg">
  <defs
     id="defs1" />
  <sodipodi:namedview
     pagecolor="#000"
     inkscape:deskcolor="#000"
     showborder="false"
     id="namedview1"
     bordercolor="#eeeeee"
     borderopacity="1"
     inkscape:showpageshadow="0"
     inkscape:pageopacity="0"
     inkscape:pagecheckerboard="0"
     inkscape:zoom="0.581231"
     inkscape:cx="387.97"
     inkscape:cy="384.529"
     inkscape:current-layer="svg1" />
  <path
     id="R"
     style="fill:#ea4335"
     d="m 371.8,0 c -6.61,0 -12,5.17 -12,11.8 v 92 c 141.4,0 256,114.6 256,256 h 92 c 5.61,0 11.8,-4.31 11.8,-12 C 719.6,161 558.6,0 371.8,0 Z" />
  <path
     id="Y"
     style="fill:#fbbc04"
     d="m 347.8,719.6 c 6.61,0 12,-5.17 12,-11.8 v -92 c -141.4,0 -256,-114.6 -256,-256 h -92 c -5.61,0 -11.8,4.31 -11.8,12 0,186.8 161,347.8 347.8,347.8 z" />
  <path
     id="GD"
     style="fill:#137333"
     d="m 359.8,615.8 v -148 c -59.65,0 -108,-48.35 -108,-108 h -148 c 0,141.4 114.6,256 256,256 z" />
  <path
     id="GL"
     style="fill:#34a853"
     d="m 615.8,359.8 h -148 c 0,59.65 -48.35,108 -108,108 v 148 c 141.4,0 256,-114.6 256,-256 z" />
  <path
     id="BD"
     style="fill:#1a73e8"
     d="m 359.8,103.8 v 148 c 59.65,0 108,48.35 108,108 h 148 c 0,-141.4 -114.6,-256 -256,-256 z" />
  <path
     id="BL"
     style="fill:#4285f4"
     d="m 359.8,103.8 c -141.4,0 -256,114.6 -256,256 h 148 c 0,-59.65 48.35,-108 108,-108 z" />
</svg>
