<?xml version="1.0" encoding="UTF-8" standalone="no"?>
<!DOCTYPE svg PUBLIC "-//W3C//DTD SVG 1.1//EN" "http://www.w3.org/Graphics/SVG/1.1/DTD/svg11.dtd">
<svg version="1.1" xmlns="http://www.w3.org/2000/svg" xmlns:xlink="http://www.w3.org/1999/xlink" preserveAspectRatio="xMidYMid meet" viewBox="6 2615 30 40" width="260" height="360"><defs><path d="M24 2616L33 2625C33 2639.7 33 2647.87 33 2649.5C33 2650.88 31.88 2652 30.5 2652C28.4 2652 11.6 2652 9.5 2652C8.12 2652 7 2650.88 7 2649.5C7 2646.4 7 2621.6 7 2618.5C7 2617.12 8.12 2616 9.5 2616C11.43 2616 16.27 2616 24 2616Z" id="l1Vu6cHh0"></path><path d="M9.5 2651.5C11.6 2651.5 28.4 2651.5 30.5 2651.5C31.88 2651.5 33 2650.38 33 2649C33 2649.05 33 2649.45 33 2649.5C33 2650.88 31.88 2652 30.5 2652C28.4 2652 11.6 2652 9.5 2652C8.12 2652 7 2650.88 7 2649.5C7 2649.47 7 2649.3 7 2649C7.75 2650.67 8.58 2651.5 9.5 2651.5Z" id="bkj9sScMC"></path><path d="M24 2616L24 2616.5C15.3 2616.5 10.47 2616.5 9.5 2616.5C8.12 2616.5 7 2617.62 7 2619C7 2618.95 7 2618.55 7 2618.5C7 2617.12 8.12 2616 9.5 2616C11.43 2616 16.27 2616 24 2616Z" id="c9zLHkvN3"></path><path d="M24.5 2624L33 2632.5L33 2625" id="d14HHAG1Cm"></path><linearGradient id="gradientbM3iQmt7R" gradientUnits="userSpaceOnUse" x1="28.75" y1="2624.73" x2="28.75" y2="2632.5"><stop style="stop-color: #1a237e;stop-opacity: 0.2" offset="0%"></stop><stop style="stop-color: #1a237e;stop-opacity: 0.02" offset="100%"></stop></linearGradient><path d="M33 2625C29.1 2625 26.93 2625 26.5 2625C25.12 2625 24 2623.88 24 2622.5C24 2622.07 24 2619.9 24 2616L33 2625Z" id="b2RgwFgsw"></path><path d="M27 2632L27 2646L13 2646L13 2632L27 2632ZM15 2636L19 2636L19 2634L15 2634L15 2636ZM15 2640L19 2640L19 2638L15 2638L15 2640ZM15 2644L19 2644L19 2642L15 2642L15 2644ZM21 2636L25 2636L25 2634L21 2634L21 2636ZM21 2640L25 2640L25 2638L21 2638L21 2640ZM21 2644L25 2644L25 2642L21 2642L21 2644Z" id="c27NA1uCLY"></path><path d="M24 2616L33 2625C33 2639.7 33 2647.87 33 2649.5C33 2650.88 31.88 2652 30.5 2652C28.4 2652 11.6 2652 9.5 2652C8.12 2652 7 2650.88 7 2649.5C7 2646.4 7 2621.6 7 2618.5C7 2617.12 8.12 2616 9.5 2616C11.43 2616 16.27 2616 24 2616Z" id="fdlDfpKrT"></path><radialGradient id="gradienta1Z0jBfsy7" gradientUnits="userSpaceOnUse" cx="7.82" cy="2616.71" dx="20" dy="2629.01" r="17.3"><stop style="stop-color: #ffffff;stop-opacity: 0.1" offset="0%"></stop><stop style="stop-color: #ffffff;stop-opacity: 0" offset="100%"></stop></radialGradient></defs><g><g><use xlink:href="#l1Vu6cHh0" opacity="1" fill="#0f9d58" fill-opacity="1"></use><g><use xlink:href="#l1Vu6cHh0" opacity="1" fill-opacity="0" stroke="#000000" stroke-width="1" stroke-opacity="0"></use></g></g><g><use xlink:href="#bkj9sScMC" opacity="1" fill="#263238" fill-opacity="0.1"></use><g><use xlink:href="#bkj9sScMC" opacity="1" fill-opacity="0" stroke="#000000" stroke-width="1" stroke-opacity="0"></use></g></g><g><use xlink:href="#c9zLHkvN3" opacity="1" fill="#ffffff" fill-opacity="0.2"></use><g><use xlink:href="#c9zLHkvN3" opacity="1" fill-opacity="0" stroke="#000000" stroke-width="1" stroke-opacity="0"></use></g></g><g><use xlink:href="#d14HHAG1Cm" opacity="1" fill="url(#gradientbM3iQmt7R)"></use><g><use xlink:href="#d14HHAG1Cm" opacity="1" fill-opacity="0" stroke="#000000" stroke-width="1" stroke-opacity="0"></use></g></g><g><use xlink:href="#b2RgwFgsw" opacity="1" fill="#87ceac" fill-opacity="1"></use><g><use xlink:href="#b2RgwFgsw" opacity="1" fill-opacity="0" stroke="#000000" stroke-width="1" stroke-opacity="0"></use></g></g><g><use xlink:href="#c27NA1uCLY" opacity="1" fill="#f1f1f1" fill-opacity="1"></use><g><use xlink:href="#c27NA1uCLY" opacity="1" fill-opacity="0" stroke="#000000" stroke-width="1" stroke-opacity="0"></use></g></g><g><use xlink:href="#fdlDfpKrT" opacity="1" fill="url(#gradienta1Z0jBfsy7)"></use><g><use xlink:href="#fdlDfpKrT" opacity="1" fill-opacity="0" stroke="#000000" stroke-width="1" stroke-opacity="0"></use></g></g></g></svg>