<svg width="234" height="428" enable-background="new 0 0 300 550" version="1.1" viewBox="0 0 300 550" xmlns="http://www.w3.org/2000/svg">
 <g fill="#5382A1">
  <path d="m285 431h-2v-1.1h5.5v1.1h-2v5.7h-1.4v-5.7zm11 0.3h-0.032l-2 5.4h-0.92l-2-5.4h-0.025v5.4h-1.3v-6.8h2l1.9 4.8 1.9-4.8h2v6.8h-1.3v-5.4z"/>
  <path d="m103 291s-14 8.2 10 11c29 3.4 44 2.9 77-3.3 0 0 8.5 5.3 20 10-73 31-164-1.8-107-18"/>
  <path d="m94 251s-16 12 8.4 14c31 3.2 56 3.5 99-4.8 0 0 5.9 6 15 9.3-88 26-186 2-123-19"/>
 </g>
 <path d="m169 182c18 21-4.7 39-4.7 39s45-23 25-53c-19-27-34-41 46-88 0 0-127 32-66 102" fill="#F8981D"/>
 <g fill="#5382A1">
  <path d="m265 321s10 8.6-12 15c-42 13-174 17-211 0.51-13-5.8 12-14 19-15 8.1-1.8 13-1.4 13-1.4-15-10-95 20-41 29 148 24 270-11 232-28"/>
  <path d="m109 209s-67 16-24 22c18 2.5 55 1.9 89-0.96 28-2.4 56-7.4 56-7.4s-9.8 4.2-17 9.1c-68 18-201 9.6-163-8.8 32-16 58-14 58-14"/>
  <path d="m230 276c70-36 37-71 15-66-5.5 1.1-8 2.1-8 2.1s2-3.2 5.9-4.6c44-16 79 46-14 71 0 1e-3 1.1-0.96 1.4-1.8"/>
 </g>
 <path d="m188 4.4s39 39-37 98c-60 48-14 75-0.025 106-35-32-61-60-44-86 25-38 96-57 80-118" fill="#F8981D"/>
 <g fill="#5382A1">
  <path d="m116 374c67 4.3 169-2.4 172-34 0 0-4.7 12-55 22-57 11-127 9.5-169 2.6 1e-3 -1e-3 8.5 7.1 52 9.9"/>
  <path d="m105 495c-6.3 5.5-13 8.5-19 8.5-8.5 0-13-5.1-13-13 0-8.9 4.9-15 25-15h7.3v20m17 20v-61c0-16-8.8-26-30-26-12 0-23 3.1-32 7l2.6 11c7-2.6 16-4.9 25-4.9 12 0 18 4.9 18 15v7.7h-6.1c-30 0-43 12-43 29 0 15 8.9 24 26 24 11 0 19-4.4 26-11l1.4 9.2h14z"/>
  <path d="m181 515h-22l-26-85h19l16 52 3.6 16c8.2-23 14-46 17-68h18c-4.9 28-14 59-26 85"/>
  <path d="m264 495c-6.3 5.5-13 8.5-19 8.5-8.5 0-13-5.1-13-13 0-8.9 4.9-15 25-15h7.3v20m17 20v-61c0-16-8.9-26-30-26-12 0-23 3.1-32 7l2.6 11c7-2.6 16-4.9 25-4.9 12 0 18 4.9 18 15v7.7h-6.1c-30 0-43 12-43 29 0 15 8.9 24 26 24 11 0 19-4.4 26-11l1.4 9.2h14z"/>
  <path d="m37 529c-5 7.2-13 13-22 16l-8.6-10c6.7-3.4 12-9 15-14 2.3-4.6 3.3-10 3.3-25v-97h18v96c-1e-3 19-1.5 27-6.5 34"/>
 </g>
</svg>
