<svg enable-background="new 0 0 512 512" version="1.1" viewBox="0 0 512 512" xmlns="http://www.w3.org/2000/svg">
 <style type="text/css">.Drop_x0020_Shadow{fill:none;}
	.Round_x0020_Corners_x0020_2_x0020_pt{fill:#FFFFFF;stroke:#1B1B1F;stroke-miterlimit:10;}
	.Live_x0020_Reflect_x0020_X{fill:none;}
	.Bevel_x0020_Soft{fill:url(#SVGID_1_);}
	.Dusk{fill:#FFFFFF;}
	.Foliage_GS{fill:#FFDC00;}
	.Pompadour_GS{fill-rule:evenodd;clip-rule:evenodd;fill:#58AEE2;}
	.st0{fill:none;}
	.st1{fill:#FFFFFF;}
	.st2{fill:#283037;}
	.st3{fill:#4DA825;}</style>
 <path class="st1" d="m449 106-162-96c-19-12-43-12-62 0l-162 96c-19 11-31 33-31 56v192c0 23 12 44 31 56l162 96c9.6 5.7 20 8.6 31 8.6s22-2.9 31-8.6l162-96c19-12 31-33 31-56v-192c0-23-12-44-31-56z" enable-background="new 0 0 512 512"/>
 <path class="st2" d="m449 106-162-96c-9.6-5.7-20-8.6-31-8.6s-22 2.9-31 8.6l-162 96c-19 11-31 33-31 56v192c0 23 12 44 31 56l162 96c9.6 5.7 20 8.6 31 8.6s22-2.9 31-8.6l162-96c19-12 31-33 31-56v-192c0-23-12-44-31-56zm-218 389-162-96c-16-9.4-26-27-26-46v-192c0-19 9.8-36 26-46l162-96c7.8-4.6 17-7 26-7s18 2.4 26 7l162 96c13 7.9 22 22 25 37-5.4-11-17-15-32-6.3l-153 94c-19 11-33 24-33 47v188c0 14 5.5 23 14 25-2.8 0.5-5.6 0.8-8.5 0.8-8.9-0.1-18-2.5-26-7.1z" enable-background="new 0 0 512 512"/>
 <path class="st3" d="m407 372-40 24c-1.1 0.6-1.9 1.3-1.9 2.6v10c0 1.3 0.9 1.8 1.9 1.2l41-25c1.1-0.6 1.2-1.8 1.2-3.1v-9.3c0.1-1.3-0.8-1.8-1.8-1.2z" enable-background="new 0 0 512 512"/>
 <path class="st1" d="m321 283c1.3-0.7 2.4 0.2 2.4 1.9l0.1 14c5.8-2.3 11-2.9 16-1.9 1 0.3 1.4 1.6 1 3.2l-3.1 12c-0.2 0.9-0.8 1.9-1.4 2.5-0.3 0.3-0.5 0.5-0.8 0.6-0.4 0.2-0.8 0.3-1.2 0.2-2.1-0.5-7.1-1.6-15 2.4-8.2 4.2-11 11-11 17 0.1 6.3 3.3 8.3 14 8.4 15 0.2 21 6.8 22 22 0.2 15-7.7 31-20 40l0.3 14c0 1.7-1.1 3.6-2.4 4.2l-8.2 4.7c-1.3 0.7-2.4-0.1-2.4-1.8l-0.1-14c-7 2.9-14 3.6-19 1.8-0.9-0.3-1.2-1.6-0.9-3l3-12c0.2-1 0.8-2 1.5-2.6 0.3-0.2 0.5-0.4 0.8-0.6 0.5-0.2 0.9-0.3 1.3-0.1 4.9 1.6 11 0.9 17-2.2 7.6-3.9 13-12 13-19-0.1-7-3.9-9.9-13-10-12 0-23-2.3-23-20-0.1-14 7.3-29 19-38l-0.1-14c0-1.7 1-3.6 2.4-4.3l7.9-4.8z" enable-background="new 0 0 512 512"/>
</svg>
