<svg enable-background="new 0 0 306 344.35" version="1.1" viewBox="0 0 306 344" xmlns="http://www.w3.org/2000/svg">
 <g>
  <path d="m302 258c2.4-4.2 3.9-8.8 3.9-13v-146c0-4.2-1.5-8.9-3.9-13l-149 86 149 86z" fill="#822c98"/>
  <path d="m166 341 126-73c3.6-2.1 7-5.7 9.4-9.9l-149-86-149 86c2.4 4.2 5.7 7.8 9.4 9.9l126 73c7.3 4.2 19 4.2 26 0z" fill="#68217a"/>
  <path d="m302 86c-2.4-4.2-5.7-7.8-9.4-9.9l-126-73c-7.3-4.2-19-4.2-26 0l-126 73c-7.3 4.2-13 15-13 23v146c0 4.2 1.5 8.9 3.9 13l298-172z" fill="#953dac"/>
 </g>
 <path d="m153 274c-56 0-102-46-102-102s46-102 102-102c36 0 70 20 88 51l-44 26c-9.1-16-26-26-44-26-28 0-51 23-51 51 0 28 23 51 51 51 18 0 35-9.8 44-26l44 26c-18 31-52 51-88 51z" fill="#fff"/>
 <path d="m227 179v7h43v-7zm2.4-20v7h43v-7zm10-12-8.9 51h8.6l8.9-51h-8.6m20 0-8.9 51h8.6l8.9-51h-8.6" fill="#fff"/>
</svg>
