<svg width="712" height="787" version="1.1" viewBox="0 0 188 208" xmlns="http://www.w3.org/2000/svg">
 <g transform="translate(-100 -182)">
  <g transform="translate(-312 -117)" stroke-width=".26">
   <path transform="translate(-7.9e-6)" d="m504 507c-0.73-0.19-1.7-0.56-2.2-0.82-1.2-0.62-28-15-39-22-3.2-1.8-7.8-4.4-32-18-7.3-4.1-14-8-15-8.5-0.77-0.57-1.8-1.7-2.3-2.4-1.9-2.8-1.7 1-1.7-53l0.069-49 0.85-1.8c0.51-1.1 1.4-2.3 2.1-3 1.3-1.2 2.3-1.8 45-26 3.4-1.9 12-6.6 18-10 21-12 22-13 24-13 1.9-0.57 5.3-0.56 6.9 0.024 1.3 0.47 1.3 0.44 13 6.9 8.9 5 24 13 37 21 5 2.8 13 7.3 18 10 4.9 2.8 11 6.1 13 7.4 4.4 2.5 6.9 4.5 7.9 6.5 1.2 2.4 1.2 0.76 1.2 52 3e-3 44-0.038 48-0.42 50-0.49 1.7-1.9 3.9-3.1 4.9-1 0.87 0.44 0.03-35 20-17 9.4-35 20-40 23-5.5 3.1-11 5.8-11 6.2-1.9 0.75-4.7 0.98-6.5 0.52z" fill="#fff"/>
   <path d="m504 507c-0.73-0.19-1.7-0.56-2.2-0.82-1.2-0.62-28-15-39-22-3.2-1.8-7.8-4.4-32-18-7.3-4.1-14-8-15-8.5-0.77-0.57-1.8-1.7-2.3-2.4-1.9-2.8-1.7 1-1.7-53l0.069-49 0.85-1.8c0.51-1.1 1.4-2.3 2.1-3 1.3-1.2 2.3-1.8 45-26 3.4-1.9 12-6.6 18-10 21-12 22-13 24-13 1.9-0.57 5.3-0.56 6.9 0.024 1.3 0.47 1.3 0.44 13 6.9 8.9 5 24 13 37 21 5 2.8 13 7.3 18 10 4.9 2.8 11 6.1 13 7.4 4.4 2.5 6.9 4.5 7.9 6.5 1.2 2.4 1.2 0.76 1.2 52 3e-3 44-0.038 48-0.42 50-0.49 1.7-1.9 3.9-3.1 4.9-1 0.87 0.44 0.03-35 20-17 9.4-35 20-40 23-5.5 3.1-11 5.8-11 6.2-1.9 0.75-4.7 0.98-6.5 0.52zm11-35c13-1.5 25-6.6 35-15 3.3-2.6 7.6-6.9 10-10 1.7-2.1 6.5-9.1 6.5-9.5-4e-3 -0.21-30-17-30-17-0.13 9e-3 -0.78 0.86-1.4 1.9-1.6 2.6-6.2 7.1-9 9-12 8.1-27 8.1-39-6e-3 -2.7-1.8-6.8-5.8-8.7-8.5-7.8-11-8.4-26-1.7-37 4.9-8.5 13-15 23-17 2.7-0.59 9-0.71 12-0.24 8 1.3 16 5.5 21 11 0.95 1.1 2.1 2.6 2.6 3.3 0.53 0.81 0.97 1.2 1.2 1.2 0.36-0.095 30-17 30-17 0.16-0.16-2.8-4.5-5-7.4-2.3-3-7.9-8.8-11-11-11-8.5-23-14-36-15-3.4-0.42-12-0.42-16 0-13 1.6-25 6.4-35 15-3 2.3-8.5 7.7-11 11-8 10-13 22-15 35-0.61 4.3-0.62 13-7e-3 18 3.2 23 17 43 38 54 12 6 25 8.2 39 6.6z" fill="#5c6bc0"/>
   <path d="m505 507c-0.8-0.1-1.8-0.31-2.2-0.47-0.4-0.15-11-5.8-23-13-12-6.8-31-17-42-24-11-6.3-21-12-22-12-1.1-0.87-3.1-3.5-3.1-4 0-0.15 0.16-0.058 0.36 0.21s0.53 0.43 0.73 0.35c0.21-0.079 7.3-4.1 16-9l15-8.9 0.75 1.3c1.2 2.2 4.2 6.5 6.1 8.8 6.2 7.7 14 14 23 19 30 15 67 6.3 87-21 1.6-2.1 4.4-6.6 4.4-6.9 0-0.11-6.3-3.7-14-7.9-7.7-4.3-15-8-15-8.4l-1.1-0.63-0.89 1.4c-7.9 12-23 18-38 15-6.6-1.7-13-5.6-17-11-1.5-1.7-4.7-6.4-4.7-6.8 0-0.096 0.21-0.23 0.46-0.31 0.51-0.15 59-33 59-34 0.17-0.14 0.36-0.2 0.44-0.13 0.19 0.19 30-17 30-17 0-0.13 0.1-0.24 0.23-0.24 0.19 0 24-14 30-17 1.1-0.65 1.7-0.86 2-0.69 0.22 0.13 0.82 1.1 1.3 2.1l0.93 1.8v99l-0.85 1.7c-1.3 2.7-2.8 3.9-8 6.8-2.6 1.4-10 5.6-17 9.3-6.5 3.7-15 8.3-18 10s-12 6.6-18 10-15 8.6-19 11c-4.1 2.3-7.9 4.4-8.4 4.6-1.2 0.52-3.9 0.79-5.6 0.57z" fill="#3949ab"/>
   <path d="m504 506c-1.6-0.49-0.85-0.1-36-20-18-9.9-36-20-42-23-9.5-5.3-11-6.6-13-8.6-0.28-0.47-0.37-0.77-0.21-0.68 0.22 0.14 20-11 30-17 0.85-0.5 1.6-0.9 1.6-0.9 0.046 0 0.59 0.86 1.2 1.9 5.9 10 15 19 25 25 18 11 41 12 60 4.5 14-5.4 26-16 33-28 0.73-1.2 1.4-2.2 1.4-2.2 0.028-0.035 5.5 2.9 12 6.6 19 10 20 11 20 11 0.16-0.1 0.11 0.16-0.1 0.58-0.67 1.3-2.8 3.1-5.6 4.6-3 1.7-14 8-25 14-4.1 2.3-11 6.1-15 8.5-4.2 2.4-11 5.9-14 7.9-3.6 2-11 6.3-17 9.6s-11 6.2-12 6.4c-1.7 0.49-4.7 0.51-6.2 0.042zm-0.26-69c-2-0.21-6.3-1.2-8.2-1.9-5.4-1.9-9.9-5-14-9.4-2.4-2.6-5.1-6.7-4.6-7.1 0.18-0.17 16-9.1 27-16 0.79-0.45 1.4-0.7 1.3-0.57-0.084 0.14 6.8 4.1 15 8.7 8.5 4.7 16 8.6 16 8.7 0.36 0.24 0.2 0.57-1.1 2.4-5.4 7.6-13 12-22 14-2.1 0.42-7.8 0.71-9.8 0.5z" fill="#273493"/>
  </g>
 </g>
</svg>
