<svg version="1.1" viewBox="0 0 600 600" xmlns="http://www.w3.org/2000/svg">
 <g transform="matrix(.9 0 0 .9 -33 -33)" stroke-width="1.3">
  <path d="m370 70c-143 0-143 65-143 65v65h143v26h-235s-65 0-65 143 65 143 65 143h65v-65c0-52 39-91 91-91h156c39 0 65-26 66-66 0.54-40-0.54-156-0.54-156s0-65-143-65zm-78 39a26 26 0 0 1 26 26 26 26 0 0 1-26 26 26 26 0 0 1-26-26 26 26 0 0 1 26-26z" fill="#387eb8"/>
  <path d="m540 227v65c0 52-39 91-91 91h-157c-39 0-65 26-65 65v157s0 65 143 65 143-65 143-65v-65h-143v-26h235s65 0 65-143-65-143-65-143zm-91 352a26 26 0 0 1 26 26 26 26 0 0 1-26 26 26 26 0 0 1-26-26 26 26 0 0 1 26-26z" fill="#ffc331"/>
 </g>
</svg>
