<svg fill="none" version="1.1" viewBox="4 2 40 44" xmlns="http://www.w3.org/2000/svg">
 <title>Microsoft 365 logo (2022)</title>
 <path d="m20 3-0.22 0.14c-0.36 0.22-0.69 0.46-1 0.72l0.65-0.46h5.5l1 7.6-5 5-5 3.5v4c0 2.8 1.5 5.4 3.9 6.8l5.3 3.2-11 6.5h-2.1l-4-2.4c-2.4-1.4-3.9-4-3.9-6.8v-13c0-2.8 1.5-5.4 3.9-6.8l12-7.3c0.074-0.045 0.15-0.089 0.22-0.13z" fill="url(#paint0_radial_2994_8373)"/>
 <path d="m20 3-0.22 0.14c-0.36 0.22-0.69 0.46-1 0.72l0.65-0.46h5.5l1 7.6-5 5-5 3.5v4c0 2.8 1.5 5.4 3.9 6.8l5.3 3.2-11 6.5h-2.1l-4-2.4c-2.4-1.4-3.9-4-3.9-6.8v-13c0-2.8 1.5-5.4 3.9-6.8l12-7.3c0.074-0.045 0.15-0.089 0.22-0.13z" fill="url(#paint1_linear_2994_8373)"/>
 <path d="m32 19v4.5c0 2.8-1.5 5.4-3.9 6.8l-12 7.3c-2.5 1.5-5.5 1.5-8 0.16l12 7.1c2.5 1.5 5.7 1.5 8.3 0l12-7.3c2.4-1.4 3.9-4 3.9-6.8v-3.2l-1-1.5-11-7z" fill="url(#paint2_radial_2994_8373)"/>
 <path d="m32 19v4.5c0 2.8-1.5 5.4-3.9 6.8l-12 7.3c-2.5 1.5-5.5 1.5-8 0.16l12 7.1c2.5 1.5 5.7 1.5 8.3 0l12-7.3c2.4-1.4 3.9-4 3.9-6.8v-3.2l-1-1.5-11-7z" fill="url(#paint3_linear_2994_8373)"/>
 <path d="m40 10-12-7.3c-2.5-1.5-5.5-1.5-8-0.14l-0.24 0.14c-2.4 1.4-3.9 4-3.9 6.8v9.5l3.9-2.3c2.5-1.5 5.7-1.5 8.3 0l12 7.3c2.3 1.4 3.8 3.9 3.9 6.6 0.0029-0.087 0.0043-0.17 0.0043-0.26v-13c0-2.8-1.5-5.4-3.9-6.8z" fill="url(#paint4_radial_2994_8373)"/>
 <path d="m40 10-12-7.3c-2.5-1.5-5.5-1.5-8-0.14l-0.24 0.14c-2.4 1.4-3.9 4-3.9 6.8v9.5l3.9-2.3c2.5-1.5 5.7-1.5 8.3 0l12 7.3c2.3 1.4 3.8 3.9 3.9 6.6 0.0029-0.087 0.0043-0.17 0.0043-0.26v-13c0-2.8-1.5-5.4-3.9-6.8z" fill="url(#paint5_linear_2994_8373)"/>
 <path d="m4 31z" fill="url(#paint4_radial_2994_8373)"/>
 <path d="m4 31z" fill="url(#paint5_linear_2994_8373)"/>
 <defs>
  <radialGradient id="paint0_radial_2994_8373" cx="0" cy="0" r="1" gradientTransform="translate(17 11) rotate(111) scale(33 58)" gradientUnits="userSpaceOnUse">
   <stop stop-color="#AE7FE2" offset=".064"/>
   <stop stop-color="#0078D4" offset="1"/>
  </radialGradient>
  <linearGradient id="paint1_linear_2994_8373" x1="18" x2="13" y1="38" y2="30" gradientUnits="userSpaceOnUse">
   <stop stop-color="#114A8B" offset="0"/>
   <stop stop-color="#0078D4" stop-opacity="0" offset="1"/>
  </linearGradient>
  <radialGradient id="paint2_radial_2994_8373" cx="0" cy="0" r="1" gradientTransform="translate(10 36) rotate(-8.4) scale(31 21)" gradientUnits="userSpaceOnUse">
   <stop stop-color="#D59DFF" offset=".13"/>
   <stop stop-color="#5E438F" offset="1"/>
  </radialGradient>
  <linearGradient id="paint3_linear_2994_8373" x1="40" x2="35" y1="25" y2="33" gradientUnits="userSpaceOnUse">
   <stop stop-color="#493474" offset="0"/>
   <stop stop-color="#8C66BA" stop-opacity="0" offset="1"/>
  </linearGradient>
  <radialGradient id="paint4_radial_2994_8373" cx="0" cy="0" r="1" gradientTransform="translate(41 27) rotate(194) scale(25 42)" gradientUnits="userSpaceOnUse">
   <stop stop-color="#50E6FF" offset=".058"/>
   <stop stop-color="#436DCD" offset="1"/>
  </radialGradient>
  <linearGradient id="paint5_linear_2994_8373" x1="17" x2="24" y1="3.1" y2="3.1" gradientUnits="userSpaceOnUse">
   <stop stop-color="#2D3F80" offset="0"/>
   <stop stop-color="#436DCD" stop-opacity="0" offset="1"/>
  </linearGradient>
 </defs>
</svg>
