<?xml version="1.0" encoding="UTF-8"?>
<svg version="1.1" viewBox="0 0 256 256" xmlns="http://www.w3.org/2000/svg">
 <defs>
  <linearGradient id="grad" x2="256" y2="256" gradientUnits="userSpaceOnUse">
   <stop stop-color="#fafafa" offset="0"/>
   <stop stop-color="#a0a8b0" offset="1"/>
  </linearGradient>
 </defs>
 <rect width="256" height="256" ry="32" fill="url(#grad)"/>
 <path d="m138 172q14-0.2 26-0.7 5-0.2 6-0.8 0.7-0.7 2-7 2-6 3-12 0.9-5 0.9-10t-0.9-5q-0.2-0.08-1 0.8-0.8 0.9-2 2-1 2-2 2-1 0.9-2 0.8-0.5-0.08-1-1-3-5 2-22 2-7 3-16 0.4-7-0.8-15-0.9-6-1-14-0.6-9-1-9-0.8-0.8-15-0.6-12 0.2-27-0.5-15-0.7-16-2-0.3-1 0.2-9 0.5-7 1-8 0.5-1 2-2 2-0.6 2-4 0.5-3-0.08-4-0.5-0.5-5-1-5-0.9-5-0.5-0.4 0.3-1 3-0.5 2 0.08 4 0.6 1 3 2 1 0.5 1 1 0.2 0.6-0.08 3-0.4 3-0.9 9l-0.5 6h-10l-0.8-3q-0.5-2-1-4-0.5-1-1-2t-0.9-0.5q-1 0.7-3 5t-2 8q-0.7 5-2 11-2 10-2 11-0.08 0.9-0.2 1-0.2 0.6 0.2 1 0.5 0.4 0.9 0.7 0.5 0.2 2 0.4t2 0.2q1 0.08 4 0.08 57 0.2 59 1 0.9 0.5 1 4 0.9 5 2 16 1 11 2 19 0.9 8-2 9-3 1-4 1-9 0.3-40 0.08-17-0.2-20 0.3-3 0.5-3 2-0.08 0.4-0.5 3-0.5 3-2 5-0.9 2-0.9 5 0 3-2 6-2 4-2 5 0.08 1 2 2 5 1 10 0.2 1-0.2 45-0.7zm-9-53q0 3-2 5-2 2-5 2t-5-2-2-5 2-5 5-2 5 2q2 2 2 5zm-1 72q0 3-2 5-2 2-5 2t-5-2q-2-2-2-5 0-3 2-5 2-2 5-2t5 2q2 2 2 5zm0 24q0 3-2 5-2 2-5 2-3 0-5-2-2-2-2-5 0-3 2-5 2-2 5-2t5 2q2 2 2 5z" aria-label="בְּ"/>
</svg>
