<?xml version="1.0" encoding="UTF-8"?>
<!-- Created with Inkscape (http://www.inkscape.org/) -->
<svg width="512" height="512" version="1.1" viewBox="0 0 512 512" xml:space="preserve" xmlns="http://www.w3.org/2000/svg"><g transform="matrix(.32 0 0 .32 -2.3 -2.3)">
    <path fill="#d0a" d="m379 1343c77-15 167-46 268-92 122-56 229-120 282-153h-288l-0.17 0.34c-0.053-0.026-0.29-0.14-0.69-0.34h-0.99l-0.4-0.69c-19-9.5-165-83-310-187-91-65-165-129-218-190-34-39-61-78-78-115-17 64-26 132-26 201 0 209 80 399 211 542 45 8.1 99 6.1 161-6.1z"/>
    <path fill="#da0" d="m129 705c52 59 124 122 213 186 109 78 219 138 273 167l-144-249-0.38 0.026c-4e-3 -0.059-0.022-0.32-0.05-0.77l-0.49-0.85 0.4-0.69c-1.3-21-10-185 6.4-362 11-112 29-207 55-283 17-50 37-91 61-125-262 72-470 274-551 532 15 43 44 89 86 137z"/>
    <path fill="#ad0" d="m639 516h0.79c18-12 155-101 317-175 102-47 194-78 273-94 51-10 97-13 138-10-144-142-343-230-561-230-60 0-119 6.6-175 19-30 35-55 83-75 143-26 75-44 168-54 278-13 133-11 259-8.2 320l144-249-0.21-0.31c0.049-0.033 0.27-0.18 0.64-0.43z" />
	<path fill="#0da" d="m1235 271c-77 15-167 46-268 92-122 56-229 120-282 153h288l0.17-0.34c0.053 0.026 0.29 0.14 0.69 0.34h0.99l0.4 0.69c19 9.5 165 83 310 187 91 65 165 129 218 190 34 39 61 78 78 115 17-64 26-132 26-201 0-209-80-399-211-542-45-8.1-99-6.1-161 6.1z"/>
	<path fill="#0ad" d="m1485 910c-52-59-124-122-213-186-109-78-219-138-273-167l144 249 0.38-0.026c0 0.059 0.022 0.32 0.051 0.77l0.49 0.85-0.4 0.69c1.3 21 10 185-6.4 362-11 112-29 207-55 283-17 50-37 91-61 125 262-72 470-274 551-532-15-43-44-89-86-137z"/>
	<path fill="#a0d" d="m1111 1168c13-133 11-259 8.2-320l-144 249 0.21 0.31c-0.049 0.033-0.27 0.18-0.64 0.43l-0.49 0.85h-0.79c-18 12-155 101-317 175-102 47-194 78-273 94-51 10-97 13-138 10 144 142 343 230 561 230 60 0 119-6.6 175-19 30-35 55-83 75-143 26-75 44-168 54-278z"/>
</g></svg>
