<?xml version="1.0" encoding="UTF-8"?>
<svg width="1024" height="1024" version="1.1" viewBox="0 0 1024 1024" xmlns="http://www.w3.org/2000/svg" xmlns:xlink="http://www.w3.org/1999/xlink">
 <style>
    .f1 {
        font-size: 32px;
    }
    .f2 {
        font-size: 22px;
    }
 </style>
 <circle cx="512" cy="512" r="512" fill="#fff" fill-opacity=".05" opacity=".5" stroke="#000"/>
 <circle cx="512" cy="512" r="388" fill="#fff" fill-opacity=".05" opacity=".5" stroke="#000" stroke-width="2"/>

 <g stroke="#000">
  <path id="L1" fill="none" d="m512 108-0.5 16"/>
  <path id="L10" fill="none" d="m512 92-0.4 32"/>
  <path id="LH" fill="none" d="m512 124-0.28-64"/>
  <g id="LG">
    <use xlink:href="#LH"/>
    <g id="LM10">
        <use xlink:href="#L10"/>
        <use transform="rotate(1,512,512)" xlink:href="#L1"/>
        <use transform="rotate(2,512,512)" xlink:href="#L1"/>
        <use transform="rotate(3,512,512)" xlink:href="#L1"/>
        <use transform="rotate(4,512,512)" xlink:href="#L1"/>
    </g>
    <use transform="rotate(5,512,512)" xlink:href="#LM10"/>
    <use transform="rotate(10,512,512)" xlink:href="#LM10"/>
    <use transform="rotate(15,512,512)" xlink:href="#LM10"/>
    <use transform="rotate(20,512,512)" xlink:href="#LM10"/>
    <use transform="rotate(25,512,512)" xlink:href="#LM10"/>
  </g>
  <g id="LH1" font-family="'DejaVu Sans'" font-size="18" font-weight="bold" text-anchor="middle">
    <text transform="rotate(0,512,512)" x="512" y="48" class="f1">XII</text>
    <use transform="rotate(30,512,512)" xlink:href="#LG"/>
    <text transform="rotate(30,512,512)" x="512" y="48" class="f2">I</text>
    <use transform="rotate(60,512,512)" xlink:href="#LG"/>
    <text transform="rotate(60,512,512)" x="512" y="48" class="f2">II</text>
    <use transform="rotate(90,512,512)" xlink:href="#LG"/>
    <text transform="rotate(90,512,512)" x="512" y="48" class="f1">III</text>
    <use transform="rotate(120,512,512)" xlink:href="#LG"/>
    <text transform="rotate(120,512,512)" x="512" y="48" class="f2">IV</text>
    <use transform="rotate(150,512,512)" xlink:href="#LG"/>
    <text transform="rotate(150,512,512)" x="512" y="48" class="f2">V</text>
    <use transform="rotate(180,512,512)" xlink:href="#LG"/>
    <text transform="rotate(180,512,512)" x="512" y="48" class="f1">VI</text>
    <use transform="rotate(210,512,512)" xlink:href="#LG"/>
    <text transform="rotate(210,512,512)" x="512" y="48" class="f2">VII</text>
    <use transform="rotate(240,512,512)" xlink:href="#LG"/>
    <text transform="rotate(240,512,512)" x="512" y="48" class="f2">VIII</text>
    <use transform="rotate(270,512,512)" xlink:href="#LG"/>
    <text transform="rotate(270,512,512)" x="512" y="48" class="f1">IX</text>
    <use transform="rotate(300,512,512)" xlink:href="#LG"/>
    <text transform="rotate(300,512,512)" x="512" y="48" class="f2">X</text>
    <use transform="rotate(330,512,512)" xlink:href="#LG"/>
    <text transform="rotate(330,512,512)" x="512" y="48" class="f2">XI</text>
  </g>
 </g>
</svg>
