<?xml version="1.0" encoding="UTF-8"?>
<svg width="1024" height="1024" version="1.1" viewBox="0 0 1024 1024" xmlns="http://www.w3.org/2000/svg" xmlns:xlink="http://www.w3.org/1999/xlink">
 <circle cx="512" cy="512" r="512" fill="#fff" fill-opacity=".05" opacity=".5" stroke="#000"/>
 <g fill="none" stroke="#404040" stroke-linecap="round">
  <path id="deg90" d="m512.0 120-0.05 36.0zm-392.0 392.0 36.0 0.05zm748 0.95 36.0 0.05zm-356.0 356.0-0.05 36.0z"/>
  <use transform="rotate(10,512,512)" xlink:href="#deg90"/>
  <use transform="rotate(20,512,512)" xlink:href="#deg90"/>
  <use transform="rotate(30,512,512)" xlink:href="#deg90"/>
  <use transform="rotate(40,512,512)" xlink:href="#deg90"/>
  <use transform="rotate(50,512,512)" xlink:href="#deg90"/>
  <use transform="rotate(60,512,512)" xlink:href="#deg90"/>
  <use transform="rotate(70,512,512)" xlink:href="#deg90"/>
  <use transform="rotate(80,512,512)" xlink:href="#deg90"/>
  <use id="deg5" transform="rotate(5,512,512)" xlink:href="#deg90"/>
  <use transform="rotate(10,512,512)" xlink:href="#deg5"/>
  <use transform="rotate(20,512,512)" xlink:href="#deg5"/>
  <use transform="rotate(30,512,512)" xlink:href="#deg5"/>
  <use transform="rotate(40,512,512)" xlink:href="#deg5"/>
  <use transform="rotate(50,512,512)" xlink:href="#deg5"/>
  <use transform="rotate(60,512,512)" xlink:href="#deg5"/>
  <use transform="rotate(70,512,512)" xlink:href="#deg5"/>
  <use transform="rotate(80,512,512)" xlink:href="#deg5"/>
  <g id="gdeg1">
   <path id="deg1" transform="rotate(1,512,512)" d="m512 138v18zm-374 374h18zm729 0h20zm-355 355v20z"/>
   <use transform="rotate(1,512,512)" xlink:href="#deg1"/>
   <use transform="rotate(2,512,512)" xlink:href="#deg1"/>
   <use transform="rotate(3,512,512)" xlink:href="#deg1"/>
   <use transform="rotate(5,512,512)" xlink:href="#deg1"/>
   <use transform="rotate(6,512,512)" xlink:href="#deg1"/>
   <use transform="rotate(7 528.35 511)" xlink:href="#deg1"/>
   <use transform="rotate(8,512,512)" xlink:href="#deg1"/>
  </g>
  <use transform="rotate(10,512,512)" xlink:href="#gdeg1"/>
  <use transform="rotate(20,512,512)" xlink:href="#gdeg1"/>
  <use transform="rotate(30,512,512)" xlink:href="#gdeg1"/>
  <use transform="rotate(40,512,512)" xlink:href="#gdeg1"/>
  <use transform="rotate(50,512,512)" xlink:href="#gdeg1"/>
  <use transform="rotate(60,512,512)" xlink:href="#gdeg1"/>
  <use transform="rotate(70,512,512)" xlink:href="#gdeg1"/>
  <use transform="rotate(80,512,512)" xlink:href="#gdeg1"/>
  <path d="m512 120v36zm-392 392 36 0.05zm748 0.95 37-0.95zm-356 356v36.05z"/>
 </g>
 <g font-family="'DejaVu Sans'" font-size="18" font-weight="bold" text-anchor="middle">
  <text transform="rotate(0,512,512)" x="512" y="48" font-size="36">XII</text>
  <text transform="rotate(15,512,512)" x="512" y="96">15</text>
  <text transform="rotate(30,512,512)" x="512" y="48" font-size="32">I</text>
  <text transform="rotate(45,512,512)" x="512" y="96">45</text>
  <text transform="rotate(45,512,512)" x="512" y="36">NE</text>
  <text transform="rotate(60,512,512)" x="512" y="48" font-size="32">II</text>
  <text transform="rotate(75,512,512)" x="512" y="96">75</text>
  <text transform="rotate(90,512,512)" x="512" y="48" font-size="36">III</text>
  <text transform="rotate(105,512,512)" x="512" y="96">105</text>
  <text transform="rotate(120,512,512)" x="512" y="48" font-size="32">IV</text>
  <text transform="rotate(135,512,512)" x="512" y="96">135</text>
  <text transform="rotate(135,512,512)" x="512" y="36">SE</text>
  <text transform="rotate(150,512,512)" x="512" y="48" font-size="32">V</text>
  <text transform="rotate(165,512,512)" x="512" y="96">165</text>
  <text transform="rotate(180,512,512)" x="512" y="48" font-size="36">VI</text>
  <text transform="rotate(195,512,512)" x="512" y="96">195</text>
  <text transform="rotate(210,512,512)" x="512" y="48" font-size="32">VII</text>
  <text transform="rotate(225,512,512)" x="512" y="96">225</text>
  <text transform="rotate(225,512,512)" x="512" y="36">SW</text>
  <text transform="rotate(240,512,512)" x="512" y="48" font-size="32">VIII</text>
  <text transform="rotate(255,512,512)" x="512" y="96">255</text>
  <text transform="rotate(270,512,512)" x="512" y="48" font-size="36">IX</text>
  <text transform="rotate(285,512,512)" x="512" y="96">285</text>
  <text transform="rotate(300,512,512)" x="512" y="48" font-size="32">X</text>
  <text transform="rotate(315,512,512)" x="512" y="96">315</text>
  <text transform="rotate(315,512,512)" x="512" y="36">NW</text>
  <text transform="rotate(330,512,512)" x="512" y="48" font-size="32">XI</text>
  <text transform="rotate(345,512,512)" x="512" y="96">345</text>
 </g>
</svg>