<svg version="1.1" viewBox="0 0 512 512" xmlns="http://www.w3.org/2000/svg">
<g fill="#111111" transform="translate(0 0) scale(1)" opacity="1">
 <path id="fg" d="m72.67 191.5s10.58 21.64 8.689 30.65c0 0 27.8 9.005 30.81 23.85 0-0.158 15.17-20.06-39.49-54.5zm-28.91 20.38s9.319 14.54 7.897 24.17l15.8 6.003c-1.58-6.319-2.844-12.48-5.529-18.17l-18.17-12.01zm21.17 3.793c5.529 9.636 9.005 20.38 10.11 32.07 1.58 15.96-2.054 31.44-9.163 44.71 3.317-11.37 4.581-23.85 3.317-36.65-0.158-0.9479-0.1584-2.054-0.3164-3.002l-30.49-20.38c3.475 7.583 5.687 15.96 6.477 24.8 1.422 14.53-1.421 28.59-7.267 40.92 2.686-10.43 3.474-21.8 2.368-33.33-0.158-0.4739-0.1581-0.9477-0.1581-1.422l-28.59-15.01c3.317 6.635 5.213 14.06 6.003 21.8 1.896 18.96-4.897 36.65-17.22 50.39 122-51.82 126.9-17.69 126.9-17.69s9.163-12.01 6.003-25.12c-4.265-17.38-67.93-62.08-67.93-62.08zm-48.18 13.9s9.005 11.53 7.583 21.17l14.22 3.475c-0.9479-5.055-3.002-10.9-4.739-15.48zm160.3 12.64c-19.27-0.7899-34.44 12.01-34.44 30.33 0 18.33 15.17 31.12 34.44 30.33 11.53-0.4739 18.33-4.741 20.69-5.847v-15.8h-2.368c-2.212 9.636-8.057 17.69-18.17 17.69-12.48 0-22.12-12.16-22.12-26.38s9.796-26.38 22.12-26.38c10.11 0 15.96 7.899 18.17 17.69h2.368v-15.8c-2.37-1.106-9.163-5.215-20.69-5.847zm56.4 0c-16.9 0-30.02 13.59-30.02 30.49 0 16.75 13.11 30.49 30.02 30.49s30.02-13.59 30.02-30.49c0-16.9-13.11-30.49-30.02-30.49zm109 0c-9.794 0-19.59 6.003-19.59 17.22 0 20.06 27.49 16.27 27.49 29.7 0 6.793-4.107 9.951-10.43 9.951-6.161 0-13.27-5.055-15.64-15.17h-2.054v14.53c2.528 0.7899 9.006 4.581 17.38 4.581 14.53 0 21.64-9.635 21.64-18.33 0.158-21.48-28.91-15.01-28.91-30.02 0-4.897 5.055-8.847 10.27-9.005 5.687 0 11.37 2.528 14.37 13.59h1.58v-13.27c-2.37-0.7899-8.057-3.793-16.11-3.793zm45.34 1.265-21.48 53.55c-0.316 0.7899-0.7899 1.422-1.58 1.738l-3.79 2.054v0.9471h17.38v-0.9471l-3.317-1.738c-1.106-0.6319-1.894-1.738-1.894-3.16 0-0.4739 0.1584-0.9475 0.3164-1.263l4.738-11.69h20.22l4.739 11.69c0.158 0.316 0.1581 0.7894 0.1581 1.105 0 1.106-0.4736 2.054-1.263 2.686-0.158 0.158-0.3166 0.1584-0.4746 0.3164l-3.793 2.054v0.9471h23.85v-0.9471l-3.793-2.054c-0.7899-0.4739-1.264-1.106-1.58-1.738l-21.48-53.55h-6.949zm36.81 0v0.9471l3.79 2.054c1.106 0.6319 1.738 1.738 1.738 3.002v46.29c0 1.264-0.7902 2.37-1.738 3.002l-3.79 2.054v0.9471h22.59v-0.9471l-3.793-2.054c-1.106-0.6319-1.736-1.738-1.736-3.002v-46.29c0-1.264 0.7881-2.37 1.736-3.002l3.793-2.054v-0.9471zm-160.7 0.1581v0.7889l3.79 2.054c1.106 0.6319 1.738 1.738 1.738 3.002v46.29c0 1.264-0.7902 2.37-1.738 3.002l-3.79 2.054v0.9471h22.59v-0.9471l-3.793-2.054c-1.106-0.6319-1.738-1.738-1.738-3.002v-46.29c0-0.7899 0.3167-1.422 0.6327-2.054 0.316-0.4739 0.7897-0.6327 1.422-0.6327h7.267c4.423 0 9.163 5.215 9.163 11.69v3.317c0 6.477-4.265 10.9-9.163 10.9h-4.423s14.22 24.49 16.43 27.17c3.16 3.949 13.59 9.163 21.64 7.425-7.899-4.265-15.32-17.85-21.48-29.23-3.317-0.4739-5.528-1.579-6.949-2.528 12.48 0 15.64-10.27 15.64-15.32 0-13.74-9.635-16.59-20.54-16.59h-26.7zm188 0v0.7889l3.79 2.054c1.106 0.6319 1.738 1.738 1.738 3.002v46.29c0 1.264-0.7902 2.37-1.738 3.002l-3.79 2.054v0.9471h22.59v-0.9471l-3.793-2.054c-1.106-0.6319-1.736-1.738-1.736-3.002v-46.29c0-0.7899 0.3148-1.422 0.6308-2.054 0.316-0.4739 0.7897-0.6327 1.422-0.6327h7.267c4.423 0 9.163 5.215 9.163 11.69v3.317c0 6.477-4.265 10.9-9.163 10.9h-4.423s14.22 24.49 16.43 27.17c3.16 3.949 13.58 9.163 21.64 7.425-7.899-4.265-15.32-17.85-21.48-29.23-3.317-0.4739-5.528-1.579-6.949-2.528 12.48 0 15.64-10.27 15.64-15.32 0-13.74-9.638-16.59-20.54-16.59h-26.7zm-218.5 2.052c10.58 0 17.69 12.48 17.69 26.86 0 14.22-7.109 26.86-17.69 26.86s-17.69-12.48-17.69-26.86c0-14.22 7.11-26.86 17.69-26.86zm154.5 12.16 8.371 20.85h-16.75z"/>
</g>
</svg>
