<svg version="1.1" viewBox="0 0 512 512" xml:space="preserve" xmlns="http://www.w3.org/2000/svg">
 <g fill="#0aa6b7" transform="translate(0 0) scale(1)" opacity="1">
  <path d="m156 259c-3.14-1.69-54.5-52.1-54.5-53.5 0-0.443 21.3-0.806 47.4-0.806h47.4l3.87 3.86c11.5 11.4 16.7 17.3 15.4 17.1-0.825-0.107-15.7-0.142-33-0.0765l-31.5 0.118 4.96 5.08c8.83 9.04 8.27 8.92 41 8.92 32.5 0 32.3 0.0548 40.4-8.5l4.44-4.64-30.9-30.8c-25.9-25.8-31.6-31-34.9-31.9-2.65-0.716-23.3-1.08-61.1-1.09l-57.1-0.00558-9.21-9.5c-5.06-5.22-9.63-9.5-10.2-9.5-0.522 0-0.949-0.45-0.949-1 0-0.658 25.3-1 73.8-1h73.8l5.41 4.75c2.97 2.61 19.1 18.4 35.8 35.1l30.4 30.3 31.3-31.3c17.2-17.2 33.2-33 35.5-35.1l4.22-3.75h73.9c40.7 0 73.9 0.157 73.9 0.348s-4.61 4.91-10.2 10.5l-10.2 10.1-57 0.0181c-37.2 0.0118-58.3 0.388-60.8 1.08-3.12 0.867-9.62 6.83-34.8 32l-31 30.9 5.3 5.2c2.92 2.86 6.75 5.8 8.52 6.54 2.44 1.02 10 1.35 31.3 1.35 32.2 0 31.4 0.171 40-8.52l5.41-5.48h-32.2c-17.7 0-32.2-0.346-32.2-0.769s4.4-5.15 9.77-10.5l9.77-9.73h96l-26.5 26.5c-14.6 14.6-27.9 27.2-29.6 28-2.63 1.25-9.44 1.5-40.8 1.5-25.6 0-38.4-0.355-39.8-1.11-1.2-0.611-6.06-4.93-10.8-9.59l-8.61-8.48-9.25 8.99c-6.08 5.9-10.3 9.19-12.3 9.59-1.66 0.332-19.5 0.586-39.6 0.564-31.7-0.0347-37-0.256-39.6-1.65zm-76-74.6c-3.04-2.88-5.52-5.58-5.52-6s21.3-0.755 47.3-0.755h47.3l5.63 5.36c3.09 2.95 5.34 5.65 4.99 6s-21.7 0.636-47.4 0.636h-46.8zm258-0.81 5.88-5.95h47.3c26 0 47.3 0.353 47.3 0.784s-2.39 3.14-5.31 6.03l-5.31 5.24-95.7-0.161z"/>
  <path d="m359 316c-19 0-22.1 0.276-27.1 2.57-2.84 1.32-5.66 3.31-6.25 4.42-0.661 1.24-1.08 9.19-1.08 20.5 0 18.5 0.00526 18.5 2.46 20.4 3.62 2.85 7.75 4.88 8.54 5.33 0.42 0.239 9.68 0.879 21.5 0.879s21.5-0.381 21.5-0.848c0-0.466 10.9-4.33 11-6.79 0.101-2.88-0.0176 0.392-0.0176-19.7 0-10.9-0.423-18.6-1.08-19.9-0.594-1.11-3.41-3.1-6.25-4.42-4.92-2.29-4.25-2.57-23.3-2.57zm-283 0.139c-26.3 0-28.9-0.568-33.2 2.48-7.2 5.08-6.22 7.06-6.21 24.1l0.00586 18.9c3.93 2.64 8.43 4.8 12 7.66 0 0.462 10.4 0.84 23 0.84s22.6-0.652 23-0.848c3.31-1.53 12-1.54 12-14.5-0.376-13.1-8.58-15.6-19.8-15.6l-15.2-0.0234v6.85c10.4 0.172 10.5 0.0106 15.1 0.137 6.17 0.167 5.96-0.641 5.65 8.27l-0.291 8.25h-20.5-20.5v-20-20l51.5-0.533v-2.98-2.98h-26.5zm77.7 0c-25.3 0-26 0.0524-31.4 2.46-3.06 1.35-6.04 3.35-6.62 4.43-0.627 1.17 0.172 0.0975 0.0508 39.9-0.00561 1.85 9.89 6.4 9.89 6.4 0 0.466 12.2 0.848 27 0.848h27v-3.48-3.48l-51.5-0.533-0.271-19.6-0.27-19.6 2.27-0.609c1.25-0.335 13-0.613 26-0.621l23.8-0.0137v-3-3h-25.9zm108 0v27 27h6.5 6.5l-0.158-13.1c-0.17-14.1 1.95-15.4 19.6 1.62l12 11.5h6.26c3.44 0 6.26-0.408 6.26-0.908 0-0.5-6.1-6.67-13.6-13.7l-13.6-12.8 27.6-26.5-13.5-0.102-12.6 11.6c-10.4 9.6-13 11.5-15.3 11.2l-2.7-0.311-0.566-22.5h-6.47-6.47zm191 0c-5.7 0-10.9 0.539-12.8 1.33-2.64 1.1-3.76 1.1-6.22 0.0449-1.74-0.746-7.12-1.31-12.8-1.33-8.49-0.0391-10.4 0.285-14.7 2.44-8.09 4.1-8.04 3.89-8.04 29.2v22.3h6.98 6.98l0.27-23.8 0.268-23.8h8.5 8.5l0.268 23.8 0.27 23.8h6.48 6.48v-23.5-23.5l2.28-0.574c1.25-0.315 5.19-0.434 8.75-0.268l6.47 0.303 0.268 23.8 0.27 23.8h6.98 6.98v-23.1c0-26 0.648-23.7-8.22-28.4-4.06-2.13-6.04-2.48-14.3-2.48zm-226 0.0703c-25.3 0-26 0.0524-31.4 2.46-3.06 1.35-6.04 3.35-6.62 4.43-0.627 1.17 0.17 0.0974 0.0488 39.9-0.00561 1.85 9.89 6.4 9.89 6.4 0 0.466 12.2 0.848 27 0.848h27v-3.48-3.48l-51.5-0.533-0.27-19.6-0.271-19.6 2.27-0.609c1.25-0.335 13-0.613 26-0.621l23.8-0.0137v-3-3h-25.9zm133 6.14 17 0.285v20 20l-18.6 0.271c-10.2 0.149-18.9-0.0376-19.2-0.416-0.378-0.378-0.688-9.38-0.688-20 0-19.2 0.0135-19.3 2.25-19.9 1.24-0.305 9.9-0.426 19.2-0.27zm-220 16.8v2.98 2.98l19.2 0.271c10.6 0.149 19.8 0.11 20.5-0.0859 0.688-0.196 1.25-1.66 1.25-3.25v-2.89h-20.5-20.5zm72.8 0.0703v2.98 2.98l19.2 0.271c10.6 0.149 19.8 0.11 20.5-0.0859 0.688-0.196 1.25-1.66 1.25-3.25v-2.89h-20.5-20.5z" fill="#0a0a0a"/>
 </g>
</svg>
