<?xml version="1.0" encoding="UTF-8"?>
<svg version="1.1" viewBox="0 0 512 512" xmlns="http://www.w3.org/2000/svg">
 <g fill="#111" transform="translate(0 0) scale(1)" opacity="1">
  <path d="m258 90c-42.9-0.178-83.9 16.8-115 47-0.0839 0.0832-0.153 0.178-0.234 0.261-0.139 0.136-0.277 0.276-0.416 0.413l0.0365 0.0379c-29.9 30.5-46.6 71.8-46.9 115l0.0657 3.7e-4c0.0365 44.3 17 86.9 47.2 118l0.0912-0.0908c30.2 30.8 71 48.7 114 49v0.0379c42.6 0.17 83.5-17.1 114-48l-0.0511-0.053c25.9-23.1 37.7-53.1 42.4-84.8h0.462s0.748-5.34 1.41-12.2c0.542-5.56 1.03-12.1 1.01-17.5 0-1.74-0.117-1.91-0.139-3.49 0-0.295 0.0365-0.588 0.0365-0.883h-0.073c-0.336-21.6-1.86-29-1.86-29h-155v63.1l87.9-0.0379c-2.59 16.4-8.27 30.5-19.7 40.7-0.571 0.512-1.04 1.04-1.41 1.59-16.2 15.8-38.3 25.1-63.4 25.1-1.77 0-3.54-0.0492-5.3-0.148l-3.7e-4 0.0568c-25.7-1.39-49.8-13.1-67.3-31.2l0.062-0.0643c-17.2-17.8-28.1-41.7-28.1-68.1 0-1.09 0-2.18 0.0511-3.27 0.746-25.8 11-49 27.2-66.3l0.0401 0.0417c17.4-18.1 41.8-29.9 68.5-30l3.6e-4 -0.0379c26.4 0.0379 43 7.27 64.2 24.9l46-46.6c-30-31.3-66.7-43.6-109-43.9l-0.503 0.0984z"/>
 </g>
</svg>
