<svg version="1.1" viewBox="0 0 512 512" xmlns="http://www.w3.org/2000/svg">
<g fill="#102e8d" transform="translate(0 0) scale(1)" opacity="1">
<path fill="#102e8d" d="m8 8.8v-1.6c0-0.8 0.8-1.6 2.4-1.6 1.6 0 2.4 0.8 2.4 2.4v1.6h7.2v-2.4c0-6.4-5.6-7.2-9.6-7.2-4.8 0-9.6 1.6-9.6 6.4v4c1.6 5.6 11.2 7.2 12.8 11.2v2.4c0 0.8-0.8 1.6-2.4 1.6-1.6 0-3.2-0.8-3.2-2.4v-2.4h-8v2.4c0 6.4 4.8 8 10.4 8 4.8 0 9.6-1.6 10.4-6.4v-4.8c-1.6-5.6-12-7.2-12.8-11.2m92.8 0v-1.6c0-0.8 0.8-1.6 2.4-1.6s2.4 0.8 2.4 2.4v1.6h7.2v-1.6c0-6.4-5.6-7.2-9.6-7.2-4.8 0-8.8 1.6-9.6 6.4v4c1.6 5.6 11.2 7.2 12.8 11.2v2.4c0 0.8-0.8 1.6-2.4 1.6s-3.2-0.8-3.2-2.4v-2.4h-7.2v2.4c0 6.4 4.8 8 10.4 8 4.8 0 9.6-1.6 9.6-6.4v-4.8c-1.6-6.4-12-8-12.8-12m64.8 16-6.4-23.2h-10.4v28h7.2l-0.8-24 7.2 24h10.4v-28h-7.2v23.2zm-134-23.2-5.6 28.8h8l4-26.4 4 26.4h8l-5.6-28.8h-12.8zm42.4 0-4 22.4-3.2-22.4h-12l-0.8 28.8h7.2v-26.4l4.8 26.4h7.2l4.8-26.4v26.4h7.2l-0.8-28.8h-10.4zm66.4 0h-7.2v20.8 0.8c0 0.8-0.8 2.4-2.4 2.4s-2.4-1.6-2.4-2.4v-0.8-20.8h-7.2v20.8 1.6c0.8 5.6 4.8 7.2 9.6 7.2 5.6 0 9.6-1.6 9.6-7.2v-1.6-20.8zm49.6 12.8v4h3.2v4 0.8c0 0.8-0.8 2.4-3.2 2.4s-2.4-1.6-3.2-2.4v-0.8-12.8-1.6c0-0.8 0.8-2.4 3.2-2.4s2.4 1.6 3.2 2.4v0.8 1.6h7.2v-0.8-1.6c-0.8-5.6-4.8-7.2-10.4-7.2-4.8 0-9.6 1.6-10.4 7.2v1.6 12 1.6c0.8 5.6 4.8 7.2 10.4 7.2 4.8 0 9.6-1.6 10.4-7.2v-1.6-8h-10.4z"/>
</g>
</svg>
