<svg version="1.1" viewBox="0 0 512 512" xmlns="http://www.w3.org/2000/svg">
<g fill="#e61e1e" transform="translate(0 0) scale(1)" opacity="1">
 <path d="m490 294h22.1l-22.8-75.3-31.4-1e-3 -22.8 75.3h22.1l4.03-13.9h24.7l4.05 13.9m-24-30.7 7.53-26h0.128l7.53 26zm-355 32c22.7 0 33.7-4 35.2-24.5 0.371-4.88 0.442-9.88 0.442-14.5 6e-3 -4.62-0.0704-9.63-0.442-14.5-1.56-20.5-12.5-24.5-35.2-24.5s-33.7 3.99-35.2 24.5c-0.378 4.87-0.454 9.89-0.454 14.5 0.0064 4.64 0.0768 9.65 0.454 14.5 1.55 20.5 12.5 24.5 35.2 24.5m-14.3-39c0-4.14 0.102-6.58 0.192-8.39 0.576-11.6 5.16-13 14.1-13 8.93 0 13.5 1.35 14.1 13 0.0896 1.81 0.198 4.26 0.198 8.39 0 4.15-0.109 6.6-0.198 8.41-0.57 11.6-5.16 13-14.1 13-8.92 0-13.5-1.36-14.1-13-0.0896-1.81-0.192-4.26-0.192-8.41zm-96.1-37.6v18.8h22.5v56.5h22.5v-56.5h22.5v-18.8h-67.5m346 75.3v-75.3h-21.4v75.3h21.4m-86-47.8v-27.5h-21.2v75.3h21.2v-29h24.7v29h21.2v-75.3h-21.2v27.5h-24.7m156 8.45c9.47-2.42 12.2-8.07 12.2-16.2 0-16.5-10.4-19.7-25.2-19.7h-38.4v75.3h40.3c18.5 0 24.8-7.99 24.8-20.3 0-8.57-1.96-16.1-13.7-19.1m-30.1 8.43h14.7c5.95 0 7.19 2.61 7.19 6.85 0 4.24-2.33 6.86-7.19 6.86h-14.7zm0-27.2h14.7c3.85 0 6.23 1.82 6.23 6.21 0 3.76-2.36 6.08-6.23 6.08h-14.7zm-227 33.4h20.3c0.0192 3.65 0.486 6.09 2.26 7.44 2.02 1.52 3.82 2.02 9.8 2.02 5.76 0 12.1 0 12.1-7.09 0-5.59-3.53-6.87-10-7.22-16.1-0.855-22-1.31-28-5.78-4.1-3.04-6.22-8.97-6.22-17 0-13.6 4.76-18.4 11.6-21.7 7.08-3.44 34.9-3.44 42.3 0 9.4 4.33 9.68 13.7 9.68 22.4h-20.2c-0.0384-4.43-1.04-5.69-1.85-6.51-2.1-1.86-5.09-2.25-9.4-2.25-5.22 0-11.3 0.236-11.3 6.58 0 4.84 2.09 6.86 7.58 7.22 7.55 0.483 22.4 0.958 27.7 4.09 7.43 4.39 9.36 10.3 9.36 20 0 14-5.02 18.1-12 21.2-8.06 3.56-35 3.56-43.7-0.275-9.79-4.27-9.99-12.8-9.99-23.2"/>
</g>
</svg>
