<svg version="1.0" viewBox="0 0 512 512" xmlns="http://www.w3.org/2000/svg">
<g fill="#111" transform="translate(0 0) scale(1)" opacity="1">
 <path d="m395 256c0-32.4 26.3-58.7 58.7-58.7s58.7 26.3 58.7 58.7-26.3 58.6-58.7 58.6-58.7-26.3-58.7-58.6m58.7 39.2c21 0 38.1-17.5 38.1-39.2 0-21.6-17-39.2-38.1-39.2-21 0-38.1 17.6-38.1 39.2s17 39.2 38.1 39.2m-103-98.4c-9.39 9.42-15.1 17.6-15.1 41.5v73.7h20.7v-74.7c0-11.7 0.834-17.4 6.79-23.5l-12.3-17m-45.3 115c-15.9 0-30.3-6.33-41.7-23.5-11.5-17.2-25.6-39.9-33.4-51.4-7.54-11.2-14.6-17-26.8-17-12.1 0-19.2 5.81-26.7 17-7.78 11.6-21.9 34.2-33.4 51.4s-25.9 23.5-41.7 23.5-30.3-6.33-41.7-23.5c-11.5-17.2-24.9-37.5-32.7-49-7.55-11.2-14.6-17.2-26.8-17.2l-0.00693-19.1c17.6 0 32.4 8.39 44.7 27 12.3 18.6 21.4 32.1 29.5 44.6 8.09 12.5 15.8 18.4 26.9 18.4s18.8-5.93 26.9-18.4c8.1-12.5 17.9-28.4 30.2-47s27.2-27 44.7-27 32.4 8.39 44.7 27c12.3 18.6 22.1 34.5 30.2 47 8.09 12.5 15.8 18.6 26.9 18.6v18.8m-101-20.3c8.59 0 15.5-6.96 15.5-15.6 0-8.59-6.95-15.5-15.5-15.5-8.58 0-15.6 6.95-15.6 15.5 0 8.59 6.97 15.6 15.6 15.6"/>
</g>
</svg>
