<svg version="1.1" viewBox="0 0 32 32" xmlns="http://www.w3.org/2000/svg">
 <title>AntergOS</title>
 <path fill="#111" d="m16 3c-6.48 0-12.3 12.7-13 18-0.806 6.65 9.07 8 13 8 3.88 0 13.8-1.36 13-8-0.649-5.34-6.48-18-13-18zm0.555 6c0.0051-0.00103 0.0079 0 0.0117 0l0.0039 0.00586c0.65 0-0.149 1.9-1.78 4.24-1.12 1.61-2.93 3.47-4.68 4.81-0.635 0.488-1.23 0.883-1.33 0.883-0.561 0-0.618-2.29-0.104-4.07 0.35-1.23 0.389-1.26 2.47-2.37 1.15-0.62 2.79-1.66 3.65-2.31 0.822-0.636 1.6-1.16 1.76-1.19zm1.78 0.631c0.0962 0.00518 0.185 0.21 0.293 0.566 1.2 3.88 0.873 9.47-0.807 13.8l-0.381 0.979-1.56-0.0156c-1.57-0.01-3.57-0.595-3.73-1.09-0.046-0.15 0.325-0.806 0.832-1.46 1.82-2.35 3.78-6.8 4.63-10.5 0.353-1.54 0.54-2.21 0.705-2.24l-0.0039-0.0391c0.0065-0.00144 0.0131-0.0023 0.0195-0.00195zm2.32 1.28c0.0811-0.0171 0.34 0.187 0.777 0.617 1.42 1.38 2.23 3.42 2.23 5.59 0 1.18-0.142 2.09-0.441 2.79l-0.441 1.04-0.291-2.54c-0.24-2.13-0.999-5.18-1.82-7.35-0.0272-0.0676-0.0358-0.113-0.0273-0.139h-2e-3l0.0039-0.0059c-5.93e-4 0.0014-0.0015 0.0044-2e-3 0.0059 9.56e-4 -7.74e-4 0.0029-0.0032 0.0039-0.0039 0.0023-0.0011 0.0071-0.0033 0.0098-0.0039z"/>
 <!--text-here-->
</svg>
