<svg version="1.1" viewBox="0 0 32 32" xmlns="http://www.w3.org/2000/svg">
 <title>Cancel</title>
 <path fill="#111" d="m13.8 10c0.67 0 1.21 0.54 1.21 1.2 0 0.31-0.16 0.63-0.38 0.86l-1.55 1.54h6.16c2.33 0.01 4.22 1.88 4.23 4.2 0 2.31-1.91 4.2-4.23 4.2h-0.61c-0.67 0-1.21-0.54-1.21-1.2s0.54-1.2 1.21-1.2h0.6c1.02 0 1.81-0.79 1.81-1.8s-0.8-1.8-1.81-1.8h-6.15l1.55 1.54c0.22 0.23 0.38 0.55 0.38 0.86 0 0.66-0.54 1.2-1.21 1.2-0.37 0-0.67-0.11-0.91-0.34l-4.42-4.46 4.42-4.46c0.24-0.23 0.53-0.34 0.91-0.34z"/>
</svg>
