<svg version="1.1" viewBox="0 0 32 32" xmlns="http://www.w3.org/2000/svg">
 <title>Chakra</title>
 <path fill="#111" d="m16.5 6.29c0.084-1e-3 0.168 9e-3 0.249 0.029 3.16 0.706 3.71-1.28 4.77 1.9 1.07 3.21-0.13 9.79-5.38 8.38 6.29 0.697-1.88-10.2 0.352-10.3zm-6.25 1.52h2e-3c3.48 5e-3 9.54 3.15 6.54 7.55 2.71-5.77-11.5-1.15-9.89-3.73 1.67-2.7-0.107-3.83 3.34-3.82zm2.43 4.94v2e-3c1.08 2e-3 2.16 0.473 3.11 1.64-4.81-4.29-4.68 10.2-6.71 7.98-2.13-2.38-3.78-1.08-2.71-4.27 0.775-2.31 3.55-5.35 6.31-5.35zm12 0.515c0.21 0.019 0.34 0.168 0.369 0.496 0.286 3.14 2.4 3.03-0.389 5-2.82 1.98-9.63 2.9-9.86-2.38 1.16 5.54 8.17-3.25 9.89-3.12zm-10.1 1.75c-5.69 3.12 8.59 7.48 5.74 8.66-2.98 1.23-2.23 3.15-5.01 1.18-2.81-1.99-5.82-7.99-0.725-9.84z"/>
 <!--text-here-->
</svg>
