<svg version="1.1" viewBox="0 0 32 32" xmlns="http://www.w3.org/2000/svg">
 <title>Debian</title>
 <path fill="#111" d="m15.8 6c-0.163 0.09-0.319 0.158-0.47 0.264 0.61-0.144 0.58 0.062 1.2-0.021-0.217 0.033-0.483 0.117-0.441 0.15 0.697 0.08 0.804-0.215 1.45 0l-0.043-0.187c0.898 0.321 1.08 0.264 2.06 0.779 0.34 0.019 0.375-0.208 0.888 0 0.092 0.161-0.019 0.189 0.614 0.566 0.071-0.028-0.127-0.206-0.28-0.348 1.27 0.68 2.66 2.13 3.08 3.68-0.394-0.725-0.04 0.372-0.177 0.315 0.181 0.477 0.318 0.969 0.41 1.47-0.118-0.416-0.374-1.42-0.818-2.06-0.038 0.418-0.575-0.289-0.28 0.63 0.224 0.326 0.045-0.332 0.321 0.247 5e-3 0.276 0.109 0.549 0.173 0.908-0.097-0.017-0.213-0.397-0.284-0.29 0.097 0.451 0.256 0.683 0.317 0.719-0.033 0.076-0.112-0.07-0.119 0.237 0.038 0.706 0.198 0.408 0.274 0.441-0.078 0.347-0.386 0.758-0.233 1.36-0.045-0.182-0.13-0.365-0.196-0.538-0.061 0.51 0.113 0.611-0.124 1.23 0.17-0.557 0.15-1.06-0.01-0.818 0.071 0.791-0.626 1.4-0.55 1.9l-0.202-0.278c-0.55 0.794-0.012 0.436-0.385 1.04 0.137-0.236-0.074-0.097 0.105-0.367-0.118 7e-3 -0.529 0.506-0.904 0.799-1.48 1.18-3.24 1.34-4.94 0.698 8e-3 -0.039-8e-3 -0.085-0.119-0.161-1.45-1.1-2.3-2.04-2-4.23 0.22-0.166 0.279-1.08 0.785-1.4 0.307-0.68 1.23-1.31 2.22-1.32 1.01-0.055 1.86 0.538 2.28 1.1-0.775-0.725-2.05-0.944-3.14-0.407-1.11 0.5-1.77 1.72-1.67 2.94 0.04-0.059 0.078-0.02 0.097-0.171-0.033 2.37 2.55 4.1 4.41 3.23l0.023 0.049c0.756-0.206 0.66-0.375 1.15-0.713-0.038 0.078-0.331 0.282-0.157 0.282 0.239-0.064 0.989-0.757 1.36-1.09 0.17-0.364-0.088-0.197 0.148-0.657l0.286-0.142c0.16-0.462 0.338-0.723 0.317-1.26l-0.167 0.354c0.249-0.75 0.106-1.56 0.142-2.27l-0.071-0.02c-0.059-1.78-1.59-3.67-2.96-4.3-1.18-0.546-2.99-0.638-3.83-0.229 0.113-0.102 0.574-0.145 0.435-0.222-1.31 0.129-1.02 0.455-2.02 0.712-0.274 0.267 0.803-0.211 0.222 0.134-0.538 0.149-0.79-0.095-1.59 0.731 0.071 0.119 0.508-0.34 0.142 0.118-0.751-0.092-2.37 1.72-2.72 2.32l0.179 0.031c-0.295 0.742-0.685 1.21-0.737 1.66-0.076 1.09-0.457 3.08 0.072 3.69l-0.049 0.509c0.071 0.146 0.127 0.294 0.216 0.431l-0.117 8e-3c0.557 1.76 0.598 0.032 1.33 1.86-0.106-0.035-0.213-0.074-0.371-0.286-0.017 0.163 0.231 0.642 0.521 1.02l-0.126 0.142c0.165 0.295 0.311 0.358 0.424 0.459-0.605-0.331 0.563 1.09 0.667 1.27l0.091-0.165c-0.012 0.236 0.174 0.543 0.519 0.968l0.286-0.012c0.118 0.236 0.554 0.661 0.814 0.68l-0.175 0.228c0.661 0.208 0.32 0.277 1.13 0.562l-0.165-0.288c0.416 0.357 0.541 0.674 1.12 0.948 0.81 0.281 0.92 0.172 1.75 0.408-0.704-0.022-1.53-0.012-2.09-0.213-3.8-1.03-7.27-5.48-7.02-10.1-0.062-0.928 0.092-2.09-0.062-2.32 0.217-0.708 0.469-1.57 0.974-2.6-0.037-0.066 0.083 0.202 0.34-0.237 0.156-0.343 0.284-0.72 0.48-1.05l0.103-0.024c0.099-0.589 1.37-1.49 1.75-1.94l0.025 0.171c0.824-0.772 2.3-1.29 3.12-1.66-0.218 0.241 0.487-0.023 0.995-0.054zm-1.45 11.3c0.177 0.038 0.78 0.984 1.23 1.14-0.267-0.215-0.474-0.487-0.667-0.768 0.355 0.412 0.791 0.746 1.28 0.981-0.015-0.059 0.018-0.094 0.027-0.134-0.061 0.057 0.306 0.345 0.579 0.486 0.65 0.239 1.38 0.25 1.96 0.227-1.25 0.524-3.64-0.53-4.42-1.93z"/>
 <!--text-here-->
</svg>
