<svg version="1.1" viewBox="0 0 32 32" xmlns="http://www.w3.org/2000/svg">
 <title>Deepin</title>
 <path fill="#111" d="m20.8 2.81c-2.01-0.734-4.07-0.932-6.07-0.746-2.32 0.183-3.45 0.901-3.38 0.771-3.79 1.35-7 4.27-8.48 8.35-2.64 7.27 1.1 15.3 8.36 18 7.26 2.65 15.3-1.1 17.9-8.38 2.64-7.27-1.1-15.3-8.36-18zm-9.1 25c-0.774-0.283-1.5-0.643-2.18-1.05 3.38 0.26 7.8-0.52 10.8-3.31 0 0 5.68-4.54 1.57-12 0 0 0.662 3-0.182 5.47 0 0-0.805 3.36-4.38 4.33-5.27 1.44-11.3-2.25-13.8-4.04-0.189-1.84-0.021-3.74 0.652-5.59 0.998-2.74 2.87-4.89 5.17-6.32-0.573 4.01-0.12 7.7 0.531 9.25 0.874 2.07 2.39 4.49 5.36 4.8 2.96 0.311 4.6-2.46 4.6-2.46 1.52-2.31 1.76-5.63 1.74-5.71-0.0231-0.081-0.405-0.3-0.405-0.3-1.02 4.14-2.71 5.52-2.71 5.52-2.66 2.57-4.54 0.787-4.54 0.787-2.02-2.18-0.607-5.71-0.607-5.71 0.793-2.41 3.1-5.93 5.72-7.73 0.436 0.108 0.875 0.175 1.31 0.332 1.58 0.578 2.97 1.45 4.15 2.52-1.92 0.699-5.01 2.18-5.01 2.18-4.9 2.06-5.23 5.19-5.23 5.19-0.507 3.22 2.05 1.86 2.05 1.86 2.63-1.28 3.92-5.27 3.92-5.27-0.82-0.156-1.47 0.093-1.47 0.093-1.05 2.59-3.19 3.65-3.19 3.65-0.842 0.446-1.04-0.342-1.04-0.342-0.142-0.59 0.609-0.691 0.609-0.691 1.17-0.453 1.91-1.68 2.08-2.18 0.168-0.502 0.481-0.541 0.481-0.541 1.6-0.51 3.06-0.624 3.06-0.624 1.98-0.244 5.02 0.702 5.02 0.702 0.681 0.274 1.33 0.479 1.91 0.643 1.11 2.78 1.29 5.95 0.186 8.99-2.38 6.55-9.61 9.92-16.2 7.54z"/>
 <!--text-here-->
</svg>
