<svg version="1.1" viewBox="0 0 32 32" xmlns="http://www.w3.org/2000/svg">
 <title>Edit</title>
 <path fill="#111" d="m16 11.3c0.691-0 1.25 0.56 1.25 1.25h1.87c0.346 0 0.626 0.278 0.626 0.625v6.87c0 0.346-0.28 0.625-0.626 0.625h-6.25c-0.346 0-0.626-0.278-0.626-0.625v-6.87c0-0.346 0.28-0.625 0.626-0.625h1.87c0-0.69 0.56-1.25 1.25-1.25zm0 0.625c-0.345 0-0.625 0.28-0.625 0.626 0 0.345 0.28 0.624 0.625 0.625 0.345-0 0.624-0.28 0.625-0.625 0-0.346-0.28-0.626-0.625-0.626zm-2.5 1.88v5.62h5v-5.62h-0.625v0.625h-3.75v-0.625z"/>
</svg>
