<svg version="1.1" viewBox="0 0 32 32" xmlns="http://www.w3.org/2000/svg">
 <title>EFI/BIOS Firmware</title>
 <path fill="#111" d="m14 8h4l0.172 2.11c0.673 0.243 1.3 0.599 1.85 1.05l1.91-0.902 2 3.47-1.74 1.2c0.061 0.351 0.091 0.706 0.092 1.06-0 0.356-0.031 0.712-0.092 1.06l1.74 1.2-2 3.47-1.92-0.902c-0.549 0.456-1.17 0.815-1.84 1.06l-0.172 2.1h-4l-0.172-2.12c-0.672-0.243-1.3-0.598-1.85-1.05l-1.91 0.902-2-3.47 1.74-1.2c-0.06-0.35-0.09-0.706-0.09-1.06s0.03-0.712 0.09-1.06l-1.74-1.2 2-3.47 1.92 0.902c0.549-0.456 1.17-0.815 1.84-1.06zm1.97 5.72c-1.25 0.017-2.25 1.04-2.25 2.28 0 1.26 1.02 2.28 2.28 2.28s2.28-1.02 2.28-2.28-1.02-2.28-2.28-2.28h-0.031z"/>
</svg>
