<svg version="1.1" viewBox="0 0 32 32" xmlns="http://www.w3.org/2000/svg">
 <title>Fedora</title>
 <path fill="#111" d="m16 4c5.52 0 10 4.48 10 10s-4.48 10-10 10h-7.73c-1.25 0-2.27-1.01-2.27-2.27v-7.74c4e-3 -5.52 4.48-9.99 10-9.99zm2.94 2.37c-0.162 0-0.32 7e-3 -0.477 0.023 0.143-0.015 0.287-0.018 0.434-0.02-0.278 3e-3 -0.549 0.034-0.814 0.084-2.18 0.404-3.84 2.31-3.84 4.61v2.48h-2.48c-2.58 0-4.69 2.12-4.69 4.69 0 2.34 1.75 4.28 4 4.62h4e-3c0.187 0.035 0.38 0.056 0.591 0.061h2e-3c0.034 1e-3 0.064 0.012 0.098 0.012 0.272 0 0.54-0.031 0.8-0.076 0.076-0.013 0.149-0.035 0.223-0.053 0.119-0.027 0.241-0.046 0.356-0.082 1.92-0.589 3.32-2.37 3.32-4.48v-2.49h2.48c2.58 0 4.69-2.11 4.69-4.69 0-2.34-1.75-4.28-4-4.62-0.201-0.038-0.407-0.064-0.64-0.067-0.019-0-0.036-6e-3 -0.055-6e-3zm0 2.22c0.247 0 0.398 0.016 0.53 0.031h2e-3c1.13 0.24 1.97 1.23 1.97 2.44 0 1.39-1.11 2.5-2.5 2.5h-2.16c-0.179-0.016-0.321-0.16-0.321-0.342v-2.15c2e-3 -1.37 1.11-2.47 2.48-2.47zm-7.17 7.16h2.15c0.182 0.013 0.329 0.16 0.329 0.344v2.15c-2e-3 1.37-1.11 2.47-2.48 2.47-0.251 0-0.398-0.019-0.532-0.035-1.13-0.242-1.96-1.23-1.96-2.44 0-1.39 1.1-2.5 2.5-2.5z"/>
 <path fill="#111" d="m18.9 6.4c-0.324 0-0.642 0.0339-0.948 0.0966 0.307-0.0628 0.623-0.0947 0.948-0.0947 0.394 0 0.674 0.0448 1.04 0.14 0.533 0.138 0.968 0.572 0.969 1.08 0 0.61-0.445 1.06-1.11 1.06-0.147 0-0.251-0.014-0.367-0.0279 1.13 0.238 1.98 1.23 1.98 2.43 0 1.38-1.11 2.49-2.51 2.49h-2.17c0.01 9.83e-4 0.0191 6e-3 0.0301 6e-3h1.63c0.608 0 1.1 0.481 1.1 1.09 0 0.61-0.496 1.09-1.11 1.09h-1.98v3e-3h2.49c2.59 0 4.7-2.1 4.7-4.67 0-2.57-2.12-4.67-4.7-4.67zm-7.19 7.15c-2.59 0-4.7 2.11-4.7 4.67 0 2.56 2.12 4.67 4.7 4.67 0.484 0 0.954-0.0747 1.39-0.211-0.441 0.136-0.909 0.208-1.39 0.208-0.394 0-0.675-0.0438-1.04-0.138-0.533-0.138-0.967-0.573-0.967-1.08 0-0.61 0.445-1.06 1.11-1.06 0.145 0 0.247 0.013 0.36 0.0269-1.13-0.241-1.97-1.23-1.97-2.43 0-1.38 1.11-2.49 2.51-2.49h2.16c-8e-3 -9.82e-4 -0.015-5e-3 -0.0231-5e-3h-1.63c-0.608 0-1.1-0.482-1.1-1.09 0-0.61 0.496-1.09 1.11-1.09h1.98v-3e-3z"/>
 <!--text-here-->
</svg>
