<svg version="1.1" viewBox="0 0 32 32" xmlns="http://www.w3.org/2000/svg">
 <title>FreeBSD</title>
 <path fill="#111" d="m6.92 6c1.05 0.021 2.67 0.78 3.91 1.48-1.43 0.879-2.62 2.11-3.46 3.57-0.943-1.64-2.02-4.04-1.27-4.79 0.186-0.187 0.473-0.262 0.822-0.256zm18.4 0.116c0.233 0.021 0.424 0.092 0.559 0.227 1.07 1.07-1.91 5.81-2.41 6.31s-1.79 0.042-2.86-1.04c-1.08-1.07-1.54-2.36-1.04-2.86 0.44-0.44 4.12-2.78 5.75-2.64zm-9.11 0.336c1.63 0 3.16 0.399 4.51 1.1-0.331 0.181-0.63 0.362-0.889 0.525-1.18-0.213-1.49 0.745-0.676 2.21 0.988 1.95 4.04 4.1 4.96 3.18 0.245-0.245 0.273-0.671 0.123-1.18 0.15-0.249 0.317-0.534 0.494-0.852 0.798 1.42 1.26 3.06 1.26 4.8 0 5.4-4.38 9.77-9.78 9.77s-9.77-4.38-9.77-9.77c0-5.4 4.37-9.78 9.77-9.78z"/>
 <!--text-here-->
</svg>
