<svg version="1.1" viewBox="0 0 32 32" xmlns="http://www.w3.org/2000/svg">
 <title>Gentoo</title>
 <path fill="#111" d="m13.9 6.01c1.12-0.049 2.22 0.184 3.22 0.676 3.14 1.54 8.44 5.82 8.83 7.99 0.481 2.68-9.01 9.94-14.8 11.1-2.23 0.437-4.14 0.534-5.01-1.82-0.755-2.04 0.733-3.5 2.89-5.46 0.896-0.815 1.6-1.42 2.68-2.33 0.062-0.061-5.18-1.87-5.35-3.93-0.173-2.12 3.2-6.01 7.51-6.22zm1.31 3.72c-0.146-0.011-0.285-0.01-0.42 2e-3 -0.901 0.085-1.54 0.754-1.61 2.07-0.083 1.43 1.92 2.46 3.48 2.03 3.11-1.11 1.53-2.94 0-3.68-0.524-0.254-1.01-0.394-1.44-0.427z"/>
 <!--text-here-->
</svg>
