<svg version="1.1" viewBox="0 0 128 128" xmlns="http://www.w3.org/2000/svg">
 <title>GPart</title>
 <path fill="#111" d="m65.4 19c11.9 0.0018 23.4 4.74 31.8 13.2 17.6 17.6 17.6 46.1 0 63.6-8.44 8.44-19.9 13.2-31.8 13.2v-16.9c7.46-6.2e-5 14.6-2.96 19.9-8.24 11-11 11-28.8 0-39.8s-28.8-11-39.8 0c-5.27 5.27-8.24 12.4-8.24 19.9h-16.9c0.00181-11.9 4.74-23.4 13.2-31.8 8.44-8.44 19.9-13.2 31.8-13.2zm2.45 38.9c0.0572 0.0024 0.107 0.011 0.152 0.0247 1.52 1.32-8.41 16.7-19 30.7-0.413 0.549-0.832 1.09-1.25 1.64-1.41 1.85-2.82 3.67-4.21 5.42-0.306 0.385-0.608 0.773-0.911 1.15-1.63 2.03-3.24 3.97-4.75 5.72-12.6 14.5-28.4 1.51-15.5-10.4 1.66-1.59 3.5-3.27 5.42-4.98 0.265-0.236 0.538-0.474 0.807-0.711 1.86-1.64 3.79-3.3 5.78-4.97 0.102-0.085 0.201-0.17 0.304-0.256 13.2-11 28.3-22 32.4-23.2 0.274-0.0835 0.5-0.119 0.671-0.111zm-42.2 39.9c-1.85-4e-3 -3.35 1.49-3.35 3.34 4.79e-4 1.85 1.5 3.34 3.35 3.34 1.84-4.8e-4 3.34-1.5 3.34-3.34-4.79e-4 -1.84-1.5-3.34-3.34-3.34z"/>
 <!--text-here-->
</svg>
