<svg version="1.1" viewBox="0 0 32 32" xmlns="http://www.w3.org/2000/svg">
 <title>Haiku</title>
 <g id="main">
  <path d="m14 6.01-1.83 1.08 0.16 15.7 1.67-1.72zm7.88 2.01-1.81 1.08-0.0105 17.2 1.82-1.69z" opacity=".5"/>
  <path d="m11.4 4.74-2.52 1.48v8.38c-2.09-0.555-3.63-1.82-3.63-1.82l-0.539-0.459-0.408 1.82 0.256 0.16s1.94 1.2 4.32 1.68v5.78l3.62 1.8 2.17-2.19v-1.63c0.124 0.0134 0.247 0.0262 0.371 0.0332l0.992 0.0566-0.227-0.268c0.105 0.035 0.208 0.0628 0.31 0.0879v5.59l4.05 2.02 2.46-2.46v-8.03c0.276-0.225 0.553-0.453 0.805-0.664l0.295-0.246 0.0293 0.0059 0.166-0.195c0.436-0.512 1.02-0.775 1.34-0.846l1.01-0.225-0.871-0.553c-0.827-0.525-1.8-0.878-2.78-1.1v-5.58l-3.67-0.816-2.83 1.62v5.01c-0.0706 0.0153-0.143 0.0294-0.213 0.0449-0.279 0.0597-0.629 0.194-1.01 0.326-0.0748 0.0258-0.146 0.0475-0.221 0.0723v-8.14zm0.107 0.691 2.51 0.574v7.81c-0.0508 0.0116-0.103 0.0234-0.143 0.0293l-0.0762 0.0117 2e-3 -0.0098-0.535-0.0371c-1.54-0.109-2.63 0.0858-3.73 0.582v-7.8zm7.56 1.88 2.83 0.631v4.85c-0.596-0.0991-1.18-0.155-1.7-0.166l-0.111-2e-3 -0.0977 0.0527c-0.0499 0.0265-0.06 0.081-0.106 0.111l0.0859-0.168-0.76 0.0606c-0.803 0.0646-1.59 0.193-2.37 0.346v-4.44zm1.26 6.19c1.23 0.0443 2.71 0.39 3.94 0.984-0.244 0.13-0.462 0.218-0.701 0.44-0.182-0.0493-0.362-0.106-0.543-0.199l-0.822-0.424 0.211 0.9c0.0267 0.115 0.158 0.285 0.225 0.438-0.521 0.432-1.1 0.909-1.56 1.26h-2e-3c-0.295 0.226-0.816 0.387-1.3 0.635-0.523-0.115-0.913-0.181-1.45-0.387l-1.02-0.389 0.482 0.977c0.16 0.324 0.338 0.47 0.508 0.615-0.349 0.193-0.679 0.41-1.09 0.5-0.642 0.14-1.36 0.0737-2.3-0.814l-1.09-1.02 0.385 1.44c0.0143 0.0533 0.0816 0.15 0.0996 0.213-1.74-0.313-3.35-1.19-4.7-3.27l-0.273 0.391c-0.0324-0.0051-0.0636-0.0121-0.0957-0.0176l0.0664-0.33c1.1-0.609 2.04-0.806 3.44-0.766-0.0227 0.153-0.0617 0.331-0.0859 0.463l0.416 0.191c-3.21e-4 0.0019 3.32e-4 4e-3 0 0.0059 0.0011-0.0014 0.0028-0.0025 0.0039-0.0039l0.332 0.152c0.222-0.274 0.488-0.558 0.785-0.85 0.318-0.0655 0.658-0.164 0.994-0.279 0.394-0.136 0.78-0.272 0.916-0.301h4e-3c0.851-0.188 1.72-0.318 2.58-0.422-0.0898 0.476-0.083 0.932 0.0879 1.31l0.4 0.9 0.383-0.908c0.188-0.448 0.308-0.802 0.43-1.04 0.104-0.204 0.209-0.301 0.359-0.398zm-10.8 3.21c1.3 1.64 2.84 2.58 4.48 2.92v1.47l-1.67 1.72-2.81-1.45zm12.4 0.621v7.16l-1.82 1.84-3.24-1.55v-5.04c0.189 0.0018 0.371-0.0151 0.543-0.0527 0.867-0.19 1.53-0.686 1.87-0.834l0.5-0.221-0.215-0.275c0.0604 0.0132 0.121 0.0347 0.184 0.0488l0.164 0.0371 0.144-0.084c0.367-0.214 1.02-0.358 1.56-0.779v2e-3c0.0948-0.0723 0.208-0.166 0.31-0.246z"/>
  <path d="m9.27 15.8c1.62 2.38 3.6 3.4 5.75 3.49-0.286-0.324-0.382-0.667-0.462-0.946 2.03 1.82 3.54 0.422 4.38 0.0452-0.204-0.251-0.537-0.162-0.902-0.867 0.614 0.221 1.03 0.281 1.62 0.402 0.442-0.261 1.05-0.41 1.48-0.742 0.528-0.408 1.21-0.969 1.77-1.44-0.247-0.231-0.271-0.397-0.33-0.634 0.245 0.12 0.493 0.208 0.754 0.259 0.489-0.581 1.12-0.877 1.53-0.972-1.42-0.86-3.4-1.21-4.89-1.22-0.561 0.303-0.658 0.833-1 1.67-0.212-0.452-0.241-0.971 0.0778-1.61-1.07 0.1-2.14 0.317-3.17 0.557-0.405 0.091-1.44 0.539-2 0.629-0.327 0.32-0.609 0.628-0.852 0.931 0.0548-0.314 0.0722-0.633 0.166-0.951-1.78-0.0981-2.82 0.157-4.1 0.882-2.3-0.486-3.99-1.86-3.99-1.86l-0.174 0.81s2 1.2 4.36 1.57z"/>
 </g>
 <!--text-here-->
</svg>
