<svg version="1.1" viewBox="0 0 32 32" xmlns="http://www.w3.org/2000/svg">
 <title>KaOS</title>
 <path fill="#111" d="m19.8 6.77c1.54 0 2.31 0.769 2.31 1.54 0 2.31-5.38 3.08-6.92 3.85-1.54 0.769-4.62 2.31-5 6.92-0.386-6.16 2.69-12.3 9.62-12.3zm-10.8 1.54c1.21 0 1.54 0.362 1.54 1.54 0 1.54-0.769 3.08-0.769 5.38 0 2.31-1e-3 6.15 2.31 10-3.08-3.08-6.15-7.69-6.15-12.3 0-2.31 0.77-4.62 3.08-4.62zm6.15 6.91c4.62 0 8.46 3.08 10.8 6.16-2.4-1.22-5.38-2.31-7.69-2.31-3.85 0-5.01 0.771-6.16 0.771-0.769 0-1.54-0-1.54-1.23 0-1.54 1.54-3.39 4.62-3.39z"/>
 <!--text-here-->
</svg>
