<svg version="1.1" viewBox="0 0 32 32" xmlns="http://www.w3.org/2000/svg">
 <title>Korora</title>
 <path fill="#111" d="m18.3 7h6.72v6.72c-3e-3 3-2.03 5.56-4.89 6.38-0.826 2.86-3.39 4.9-6.39 4.9h-6.72v-6.72c4e-3 -3 2.03-5.56 4.89-6.38 0.825-2.86 3.39-4.89 6.39-4.9zm0 1.8c-1.9 1e-3 -3.49 1.19-4.3 2.87 3.47 0.154 6.2 2.89 6.35 6.36 1.68-0.812 2.87-2.4 2.87-4.3v-4.92zm-4.56 4.56c-0.111 1e-3 -0.222 0.018-0.333 0.026-9e-3 0.113-0.031 0.225-0.032 0.339v8e-3c4e-3 2.72 2.2 4.92 4.92 4.92 0.111-1e-3 0.222-0.018 0.333-0.026 9e-3 -0.113 0.025-0.225 0.026-0.339-1e-3 -2.72-2.19-4.92-4.91-4.92h-8e-3zm-2.05 0.633c-1.68 0.813-2.87 2.39-2.87 4.29v4.92h4.92c1.9-1e-3 3.49-1.19 4.3-2.87-3.46-0.153-6.19-2.88-6.35-6.34z"/>
 <!--text-here-->
</svg>
