<svg version="1.1" viewBox="0 0 32 32" xmlns="http://www.w3.org/2000/svg">
 <title>Lubuntu</title>
 <path fill="#111" d="m17 6.5c0.17-7e-3 0.34-1e-3 0.51 0.018 1.04 0.117 1.96 0.791 2.49 1.7l5.82 0.809h0.028c0.196 0.028 0.17 0.321-0.028 0.312h-6.66c-0.047-2e-3 -0.091-0.026-0.119-0.065-0.39-0.502-0.99-0.842-1.62-0.929-0.449-0.062-0.91 1e-3 -1.32 0.184s-0.783 0.489-1.04 0.864c-0.258 0.374-0.412 0.824-0.437 1.28s0.077 0.913 0.292 1.31c0.098 0.162-0.122 0.326-0.248 0.184-0.011-0.012-7e-3 -0.034-0.018-0.047l-8e-3 0.01c-6e-3 -0.011-4e-3 -0.025-0.01-0.036-0.431-0.493-0.732-1.1-0.822-1.76-0.094-0.679 0.02-1.38 0.328-2 0.307-0.612 0.799-1.12 1.4-1.44 0.449-0.244 0.954-0.382 1.46-0.403zm-10.3 1.14c0.034-1e-3 0.067 0.01 0.095 0.03l8.94 6.47c0.147 0.116 2e-3 0.346-0.165 0.262l-7.2-4.06c-0.162 0.593-0.177 1.23-0.024 1.82 0.147 0.574 0.442 1.11 0.846 1.54 0.291 0.311 0.641 0.567 1.02 0.754l4.98 1.41c0.201 0.046 0.133 0.349-0.068 0.304l-5.98-0.985c0.084 0.497 0.277 0.977 0.574 1.38 0.597 0.816 1.6 1.32 2.61 1.32 0.182-1e-3 0.216 0.259 0.04 0.306-1.1 0.297-2.31 0.117-3.28-0.487-0.652-0.406-1.19-0.995-1.53-1.68s-0.493-1.47-0.427-2.24c7e-3 -0.079 0.072-0.14 0.151-0.142 0.015-0 0.03 2e-3 0.044 6e-3l0.467 0.132c-0.191-0.163-0.382-0.328-0.548-0.519-0.644-0.743-1.06-1.68-1.18-2.66-0.122-0.978 0.052-1.99 0.495-2.87 0.026-0.051 0.078-0.084 0.135-0.085zm12 3.26c0.089-0 0.16 0.075 0.155 0.164-7e-3 0.092-0.011 0.184-0.01 0.276 6e-3 1.14 0.541 2.22 1.08 3.27 0.539 1.06 1.11 2.18 1.14 3.41 0.026 1.03-0.343 2.04-0.959 2.85-0.615 0.81-1.46 1.42-2.39 1.81-1.25 0.527-2.65 0.624-3.98 0.349l-0.997 2.38c-0.073 0.142-0.285 0.095-0.292-0.065v-3.45c-2e-3 -0.099 0.087-0.174 0.183-0.156 1.22 0.272 2.53 0.164 3.69-0.312 0.704-0.289 1.36-0.711 1.86-1.27 0.507-0.558 0.869-1.25 0.979-2 0.147-0.993-0.152-2.02-0.457-3.02-0.306-1-0.618-2.07-0.447-3.16 0.052-0.327 0.155-0.646 0.292-0.947v-8e-3c8e-3 -0.018 0.01-0.039 0.018-0.057 0.027-0.05 0.08-0.082 0.137-0.081z"/>
 <!--text-here-->
</svg>
