<svg version="1.1" viewBox="0 0 32 32" xmlns="http://www.w3.org/2000/svg">
 <title>MacOSX</title>
 <path fill="#111" d="m20.4 5c0.143 1.3-0.376 2.58-1.14 3.53-0.789 0.924-2.05 1.64-3.28 1.55-0.161-1.25 0.462-2.59 1.16-3.4 0.793-0.917 2.16-1.63 3.26-1.68zm-0.658 5.32c0.21-0.016 0.423-0.016 0.636 6e-3 0.716 0.024 2.75 0.282 4.06 2.18-0.105 0.064-2.42 1.42-2.39 4.2 0.031 3.33 2.93 4.42 2.96 4.44-0.017 0.08-0.455 1.59-1.54 3.13-0.91 1.35-1.86 2.67-3.38 2.7-1.47 0.029-1.96-0.861-3.65-0.861-1.7 0-2.23 0.837-3.64 0.891-1.44 0.058-2.54-1.44-3.48-2.78-1.88-2.73-3.34-7.71-1.38-11.1 0.952-1.66 2.69-2.73 4.55-2.75 1.44-0.028 2.78 0.971 3.66 0.971 0.762 0 2.12-0.913 3.59-1.02z"/>
 <!--text-here-->
</svg>
