<svg version="1.1" viewBox="0 0 32 32" xmlns="http://www.w3.org/2000/svg">
 <title>Mageia</title>
 <path fill="#111" d="m15.3 6h4e-3c0.948 0.04 0.948 1.44 0 1.48-1.03 0.046-1.04-1.52-4e-3 -1.48zm2.3 1.48c0.99 0 0.99 1.48 0 1.48s-0.99-1.48 0-1.48zm-1.93 0.742c1.39 0.089 1.39 2.13 0 2.22-1.39-0.089-1.39-2.13 0-2.22zm2.23 2.22c1.41 0.07 1.41 2.15 0 2.22-1.41-0.07-1.41-2.15 0-2.22zm-3.7 0.742c1.39 0.089 1.39 2.13 0 2.22-1.39-0.089-1.39-2.13 0-2.22zm-1.72 2.56c0.227 0 0.447 0.078 0.623 0.222 0.846 0.697 1.86 1.06 2.95 1.06 1.08 3e-3 2.12-0.373 2.95-1.06 0.361-0.295 0.88-0.295 1.24 0 1.58 1.29 2.48 3.21 2.48 5.26 0 3.73-2.99 6.77-6.67 6.77s-6.67-3.04-6.67-6.77c-6e-3 -2.04 0.904-3.97 2.48-5.26 0.175-0.144 0.396-0.222 0.623-0.222zm0.427 2.45c-2.8 2.8-0.814 7.58 3.14 7.58s5.94-4.78 3.14-7.58c-0.899 0.592-2.01 0.916-3.14 0.916-1.14 0-2.24-0.323-3.14-0.916z"/>
 <!--text-here-->
</svg>
