<svg version="1.1" viewBox="0 0 32 32" xmlns="http://www.w3.org/2000/svg">
 <title>Neon</title>
 <path fill="#111" d="m16 6h2e-3 3e-3c0.384 1e-3 0.698 0.275 0.804 0.641 1.92 0.165 3.75 0.919 5.23 2.16 0.336-0.196 0.762-0.146 1.04 0.13 0.277 0.277 0.327 0.704 0.13 1.04 1.24 1.48 1.99 3.3 2.16 5.23 0.364 0.105 0.638 0.417 0.641 0.799v4e-3c-1e-3 0.384-0.275 0.698-0.641 0.804-0.165 1.92-0.919 3.75-2.16 5.23 0.194 0.334 0.146 0.757-0.127 1.03v2e-3l-3e-3 3e-3c-0.277 0.277-0.704 0.327-1.04 0.13-1.48 1.24-3.3 1.99-5.23 2.16-0.106 0.365-0.419 0.64-0.804 0.64-0.384-1e-3 -0.698-0.275-0.804-0.641-1.92-0.165-3.75-0.919-5.23-2.16-0.334 0.194-0.757 0.146-1.03-0.127h-1e-3l-3e-3 -3e-3c-0.279-0.276-0.329-0.703-0.132-1.04-1.24-1.48-1.99-3.3-2.16-5.23-0.366-0.106-0.64-0.42-0.641-0.804 1e-3 -0.384 0.275-0.698 0.641-0.804 0.165-1.92 0.918-3.75 2.16-5.23-0.196-0.335-0.147-0.761 0.13-1.04s0.704-0.327 1.04-0.13c1.48-1.24 3.3-1.99 5.23-2.16 0.106-0.364 0.417-0.638 0.8-0.641zm2e-3 0.437c-0.234 1e-3 -0.422 0.19-0.422 0.424-0 0.235 0.19 0.424 0.425 0.424s0.425-0.189 0.425-0.424c-2e-3 -0.235-0.191-0.424-0.426-0.424h-3e-3zm-0.769 0.742c-1.81 0.159-3.53 0.872-4.92 2.04 0.126 0.316 0.081 0.679-0.16 0.923l-3e-3 3e-3c-0.244 0.243-0.609 0.29-0.926 0.163-1.17 1.39-1.88 3.11-2.04 4.92 0.313 0.134 0.54 0.422 0.542 0.766v4e-3c-0 0.345-0.227 0.636-0.542 0.771 0.159 1.81 0.871 3.53 2.04 4.92 0.317-0.126 0.682-0.08 0.926 0.163 0.243 0.244 0.29 0.609 0.163 0.926 1.39 1.17 3.11 1.88 4.92 2.04 0.134-0.313 0.422-0.54 0.766-0.542h4e-3c0.345 0 0.636 0.227 0.771 0.542 1.81-0.159 3.53-0.871 4.92-2.04-0.126-0.317-0.08-0.682 0.163-0.926 0.244-0.243 0.609-0.29 0.926-0.163 1.17-1.39 1.88-3.11 2.04-4.92-0.314-0.135-0.542-0.425-0.542-0.771 0-0.345 0.227-0.636 0.542-0.771-0.159-1.81-0.871-3.53-2.04-4.92-0.316 0.126-0.679 0.081-0.923-0.16h-2e-3c-1e-3 -1e-3 -1e-3 -2e-3 -2e-3 -3e-3 -0.244-0.243-0.29-0.608-0.164-0.925-1.39-1.17-3.11-1.88-4.92-2.04-0.135 0.315-0.426 0.542-0.771 0.542s-0.636-0.227-0.771-0.542zm0.768 1.63h4e-3c0.391 0 0.728 0.266 0.828 0.642 3.31 0.417 5.79 3.23 5.79 6.56-0 3.34-2.49 6.16-5.8 6.57-0.113 0.356-0.44 0.603-0.816 0.603-0.376-1e-3 -0.703-0.247-0.816-0.603-3.31-0.412-5.8-3.23-5.8-6.57 1e-3 -3.34 2.48-6.15 5.79-6.56 0.099-0.374 0.434-0.64 0.823-0.642zm-6.48 0.303c-0.104 6e-3 -0.202 0.052-0.275 0.126-0.167 0.165-0.168 0.433-2e-3 0.6 0.166 0.165 0.433 0.164 0.599-2e-3h1e-3l1e-3 -3e-3c0.165-0.166 0.165-0.432 0-0.597-0.085-0.086-0.203-0.131-0.324-0.124zm12.9 0c-0.104 6e-3 -0.203 0.05-0.277 0.124-0.165 0.166-0.164 0.433 2e-3 0.599v1e-3l3e-3 1e-3c0.166 0.165 0.432 0.165 0.597 0 0.166-0.166 0.165-0.434-2e-3 -0.6-0.085-0.086-0.202-0.132-0.323-0.126zm-6.44 0.135c-0.234 1e-3 -0.422 0.189-0.422 0.422-0 0.235 0.19 0.425 0.425 0.425s0.425-0.19 0.425-0.425c-1e-3 -0.234-0.19-0.422-0.425-0.422h-3e-3zm-0.766 0.75c-3.02 0.387-5.28 2.96-5.28 6s2.26 5.62 5.28 6c0.136-0.308 0.423-0.531 0.763-0.533h4e-3c0.343 0 0.633 0.223 0.769 0.534 3.02-0.387 5.28-2.96 5.28-6s-2.26-5.62-5.28-6c-0.136 0.311-0.426 0.534-0.769 0.534s-0.633-0.223-0.769-0.534zm0.769 3.62c1.32 0 2.39 1.07 2.39 2.39s-1.07 2.39-2.39 2.39-2.39-1.07-2.39-2.39 1.07-2.39 2.39-2.39zm-9.14 1.96c-0.233 2e-3 -0.421 0.191-0.421 0.425 0 0.235 0.19 0.425 0.425 0.425 0.234-1e-3 0.422-0.19 0.422-0.425v-3e-3c-1e-3 -0.234-0.189-0.422-0.422-0.422h-4e-3zm18.3 0c-0.234 1e-3 -0.421 0.191-0.421 0.425 0 0.235 0.189 0.425 0.424 0.425 0.234-1e-3 0.424-0.19 0.424-0.425v-3e-3c-1e-3 -0.234-0.19-0.422-0.424-0.422h-3e-3zm-9.14 6.33c-0.234 1e-3 -0.422 0.19-0.422 0.424-0 0.235 0.19 0.424 0.425 0.424s0.425-0.189 0.425-0.424c-1e-3 -0.234-0.191-0.424-0.425-0.424h-3e-3zm-6.48 0.133c-0.104 6e-3 -0.202 0.051-0.275 0.124-0.165 0.166-0.164 0.433 1e-3 0.599l1e-3 3e-3h1e-3c0.166 0.163 0.431 0.163 0.596-2e-3 0.166-0.166 0.166-0.434 0-0.6-0.086-0.086-0.204-0.131-0.325-0.124zm12.9 0c-0.104 6e-3 -0.203 0.05-0.277 0.124-0.166 0.166-0.166 0.434 0 0.6 0.166 0.165 0.433 0.164 0.599-2e-3l3e-3 -2e-3v-2e-3c0.163-0.166 0.163-0.431-2e-3 -0.596-0.085-0.085-0.203-0.131-0.323-0.124zm-6.44 2.68c-0.234 1e-3 -0.422 0.189-0.422 0.422-0 0.235 0.19 0.425 0.425 0.425s0.425-0.19 0.425-0.425c-1e-3 -0.234-0.191-0.422-0.425-0.422h-3e-3z"/>
 <!--text-here-->
</svg>
