<svg version="1.1" viewBox="0 0 32 32" xmlns="http://www.w3.org/2000/svg">
 <title>PopOS</title>
 <path fill="#111" d="m13.5 6c0.182 0.00345 0.366 0.0172 0.551 0.0405 0.297 0.0379 0.595 0.114 0.893 0.214 0.154 0.0517 0.305 0.113 0.456 0.184 0.229 0.107 0.456 0.237 0.677 0.392 0.0085 0.00604 0.0172 0.0112 0.025 0.0172 0.751 0.536 1.44 1.36 1.96 2.6 0.196 0.636 0.472 1.79 0.115 3.08-0.101 0.365-0.265 0.74-0.486 1.12-0.112 0.191-0.244 0.381-0.392 0.571-0.025 0.0328-0.0448 0.0707-0.0707 0.103-0.0224 0.0276-0.0492 0.05-0.0724 0.0776-0.108 0.127-0.229 0.252-0.354 0.378-0.0656 0.0647-0.126 0.135-0.194 0.197-8.63e-4 8.62e-4 -0.0026 0.0026-0.0035 0.0035-0.0535 0.0492-0.113 0.0906-0.168 0.138-0.341 0.294-0.704 0.561-1.09 0.8-0.257 0.16-0.519 0.311-0.785 0.451l1.7 4.74c0.0518 0.185 0.044 0.376 0.0121 0.559-0.0052 0.0293-0.0095 0.0586-0.0172 0.088-0.0707 0.285-0.223 0.542-0.453 0.698-0.139 0.094-0.309 0.131-0.488 0.136-0.05 0.0017-0.0974 0.0155-0.148 0.0085-0.0129-0.0026-0.0242-0.0077-0.0371-0.0104-0.0181-0.0035-0.0336 0.0026-0.0526-0.0017-0.0354-0.0077-0.0733-0.0354-0.11-0.0474-0.0638-0.0224-0.125-0.05-0.185-0.0811-0.0733-0.037-0.147-0.0793-0.222-0.135-0.0802-0.0595-0.154-0.124-0.224-0.196-0.044-0.0423-0.0871-0.0656-0.131-0.115-1.73-2.32-2.9-4.47-3.95-6.61-0.0492-0.101-0.0974-0.202-0.147-0.304-0.64-1.32-1.25-2.64-1.91-4-0.132-0.268-0.266-0.546-0.367-0.829-0.0164-0.0448-0.0388-0.088-0.0526-0.133-0.0121-0.0405-0.0121-0.0819-0.0216-0.123-0.0069-0.0276-0.0181-0.0535-0.0233-0.0811l-0.00173-0.00173c-0.00258-0.025-8.61e-4 -0.0517-0.00345-0.0776-0.0388-0.24-0.0457-0.481 0.0509-0.716 0.0103-0.0216 0.0569-0.0673 0.0742-0.094 0.00604-0.00863 0.0069-0.019 0.0138-0.0267 0.0121-0.0147 0.0267-0.0276 0.0388-0.0423 0.0526-0.0699 0.0828-0.124 0.172-0.219 0.156-0.166 0.361-0.362 0.605-0.58 0.123-0.11 0.278-0.229 0.417-0.345 0.242-0.201 0.492-0.394 0.767-0.593 0.117-0.0871 0.235-0.172 0.357-0.253 0.0759-0.0509 0.146-0.11 0.222-0.159 0.24-0.156 0.58-0.31 0.955-0.448 0.0931-0.0345 0.186-0.0664 0.281-0.0957 0.539-0.168 1.15-0.291 1.81-0.279zm-1.16 2.69c-0.0681-0.00173-0.13 0.0155-0.192 0.0405-0.0121 0.00517-0.0259 0.00431-0.0371 0.0103l-0.0052 0.00517c-0.094 0.0379-0.163 0.137-0.205 0.295-0.0259 0.107-0.0422 0.216-0.044 0.325-0.0035 0.0957-8.62e-4 0.199 0.0069 0.31 8.63e-4 0.00863-8.61e-4 0.0164 0 0.025 0 0.00173 0.0017 0.00431 0.0017 0.0069 0.0388 0.508 0.192 1.15 0.414 1.77 0.0069 0.0198 0.0129 0.0397 0.0198 0.0586 0.107 0.291 0.23 0.576 0.364 0.841 0.0155 0.0302 0.0302 0.0604 0.0457 0.0906 0.141 0.269 0.293 0.515 0.453 0.716 0.167 0.21 0.344 0.374 0.517 0.472 0.169 0.0949 0.331 0.124 0.495 0.0828 0.319-0.165 0.491-0.455 0.553-0.822 8.62e-4 -0.0035 0.0025-0.0069 0.0035-0.0103v-0.0052c0.0198-0.122 0.0276-0.253 0.0233-0.391-0.0147-0.559-0.213-1.22-0.509-1.83-0.217-0.45-0.486-0.869-0.768-1.21-0.0138-0.0164-0.0276-0.0328-0.0422-0.0492-0.0871-0.102-0.176-0.197-0.265-0.281l-0.0017-0.00173c-0.0025-0.00258-0.0052-0.00431-0.0086-0.0069-0.193-0.18-0.386-0.315-0.564-0.382-0.0906-0.0345-0.175-0.0535-0.256-0.0552zm9.49 2.22c0.326-0.0155 0.669 0.0336 0.992 0.133 0.43 0.132 0.822 0.356 1.08 0.655 0.254 0.299 0.373 0.678 0.241 1.1h-0.0052v0.0069c-0.574 1.32-1.28 2.98-1.99 4.31-0.354 0.663-0.708 1.24-1.04 1.65-0.168 0.204-0.336 0.37-0.497 0.479-0.16 0.109-0.317 0.163-0.472 0.147h-0.0069c-0.117-0.0319-0.207-0.14-0.273-0.293-0.0664-0.153-0.113-0.357-0.147-0.605-0.0673-0.495-0.0759-1.16-0.0319-1.92 0.0871-1.52 0.387-3.41 0.854-4.98v-0.0069h0.0052c0.202-0.348 0.565-0.551 0.981-0.63 0.103-0.0198 0.211-0.0319 0.32-0.0371zm-2.16 9.61c0.536 0 0.97 0.505 0.97 1.13 0 0.623-0.435 1.13-0.97 1.13s-0.97-0.505-0.97-1.13c-8.63e-4 -0.624 0.434-1.13 0.97-1.13zm-9.78 3.32h12.5c0.598 0 1.08 0.48 1.08 1.08 0 0.598-0.48 1.08-1.08 1.08h-12.5c-0.598 0-1.08-0.48-1.08-1.08 0-0.598 0.48-1.08 1.08-1.08z"/>
 <!--text-here-->
</svg>
