<svg version="1.1" viewBox="0 0 32 32" xmlns="http://www.w3.org/2000/svg">
 <title>Puppy</title>
 <path fill="#111" d="m20.4 6c0.477 0 0.975 0.014 1.46 0.068h6e-3c1.16 0.084 2.24 0.265 2.84 0.676 1e-3 0 6e-3 2e-3 6e-3 2e-3 1e-3 1e-3 0.018 0.01 0.031 0.018 7e-3 4e-3 0.014 4e-3 0.018 7e-3 0.017 0.013 0.021 0.019 0.026 0.024l5e-3 7e-3c0.37 0.337 0.587 0.89 0.691 1.51 0.089 0.523 0.085 1.11-0.02 1.66-0.103 0.557-0.307 1.09-0.652 1.48 0.717 1.37 1.16 2.91 1.16 4.57 0 2.76-1.12 5.26-2.93 7.06s-4.31 2.92-7.07 2.92-5.25-1.12-7.06-2.92c-1.81-1.81-2.94-4.31-2.94-7.06 0-0.665 0.07-1.32 0.197-1.94-5e-3 -0.013-9e-3 -0.019-0.013-0.042-1e-3 -4e-3 1e-3 -0.016 0-0.02-0.119-0.729-0.264-2.43-0.14-3.84 0.086-0.931 0.266-1.76 0.793-2.15 0.127-0.126 0.326-0.271 0.634-0.438 0.32-0.173 0.738-0.353 1.22-0.491 0.622-0.174 1.36-0.284 2.18-0.222h7e-3c0.26 0.016 0.51 0.095 0.751 0.19 1.32-0.646 2.8-1.02 4.37-1.02 0.653 0 1.3 0.067 1.92 0.19 0.011-4e-3 0.03-0.015 0.037-0.018h5e-3c0.476-0.138 1.4-0.217 2.46-0.217zm-0.153 0.874c-0.468 0-0.9 0.025-1.26 0.055-0.328 0.046-0.681 0.095-0.911 0.19l-0.062 0.024-0.062-0.011c-0.636-0.141-1.3-0.22-1.98-0.22-1.23 0-2.38 0.304-3.45 0.744 0.394 0.308 0.786 0.634 1.08 1.05 0.277 0.389 0.511 0.812 0.664 1.23 0.152 0.431 0.238 0.86 0.204 1.27-0.042 0.487-0.251 0.938-0.678 1.24-0.357 0.253-0.758 0.319-1.15 0.283-0.394-0.035-0.791-0.158-1.2-0.288-0.508-0.161-1.04-0.326-1.59-0.327-0.549-1e-3 -1.11 0.149-1.72 0.653l-0.031 0.024-0.031 0.013c-0.226 0.084-0.451-0.063-0.53-0.259-0.079-0.195-1e-3 -0.465 0.228-0.628 0.718-0.543 1.44-0.717 2.1-0.702 0.67 0.015 1.29 0.21 1.84 0.383 0.352 0.111 0.673 0.206 0.942 0.239s0.47 7e-3 0.634-0.111c0.196-0.137 0.294-0.334 0.313-0.602 0.02-0.258-0.037-0.568-0.159-0.899-0.123-0.331-0.314-0.685-0.549-1.02-0.574-0.794-1.41-1.44-2.11-1.49-0.136-8e-3 -0.268-0.013-0.388-0.013-0.554 0-1.06 0.079-1.49 0.204-0.433 0.122-0.787 0.275-1.05 0.412-0.129 0.068-0.233 0.132-0.308 0.184-0.068 0.047-0.107 0.084-0.111 0.086l-0.013 7e-3c-0.027 0.038-0.06 0.079-0.098 0.104-0.08 0.054-0.198 0.232-0.279 0.505s-0.132 0.63-0.166 1.02c-0.082 0.958-0.032 2.1 0.044 2.9v0.031c0.023 0.281 0.053 0.641 0.111 0.965l7e-3 0.037-7e-3 0.036c-0.12 0.583-0.179 1.18-0.179 1.8 0 2.51 1.02 4.79 2.67 6.44 1.65 1.65 3.92 2.66 6.45 2.66s4.81-1.02 6.45-2.66c1.65-1.64 2.67-3.92 2.67-6.44 0-1.48-0.396-2.86-1.02-4.09-0.108 0.041-0.208 0.097-0.327 0.117h-5e-3c-0.504 0.082-0.915-0.09-1.23-0.394-0.316-0.305-0.561-0.729-0.844-1.21-0.429-0.72-0.936-1.58-1.82-2.31l-0.011-0.011-6e-3 -7e-3c-0.081-0.088-0.13-0.217-0.111-0.332 0.02-0.116 0.099-0.21 0.191-0.265 0.184-0.111 0.435-0.084 0.658 0.08l0.013 7e-3 6e-3 7e-3c0.891 0.796 1.42 1.68 1.84 2.39h-6e-3c0.237 0.398 0.442 0.732 0.634 0.936 0.191 0.204 0.337 0.281 0.56 0.246 0.219-0.039 0.38-0.139 0.529-0.308 0.214-0.242 0.375-0.633 0.455-1.07 0.08-0.443 0.09-0.936 0.018-1.36-0.071-0.455-0.241-0.831-0.406-0.991-0.352-0.239-1.35-0.448-2.41-0.523-0.452-0.037-0.913-0.055-1.36-0.055zm1.19 4.75c0.903 0 1.63 0.727 1.63 1.63s-0.735 1.63-1.63 1.63c-0.895 0-1.63-0.726-1.63-1.63 0-0.903 0.728-1.63 1.63-1.63zm-10.2 1.19c1.76 0 3.19 1.42 3.19 3.18s-1.43 3.18-3.19 3.18c-1.76 0-3.19-1.42-3.19-3.18 0-1.75 1.43-3.18 3.19-3.18zm0.88 1.67c-0.811 0-1.46 0.65-1.46 1.46 0 0.803 0.658 1.46 1.46 1.46 0.804 0 1.46-0.659 1.46-1.46s-0.65-1.46-1.46-1.46zm8.11 1.27c0.184 0 0.337 0.153 0.352 0.352 0 0.061-0.015 0.114-0.046 0.168l-1.5 2.91c0.061 0.076 0.122 0.146 0.199 0.207 0.352 0.306 0.826 0.49 1.35 0.49 0.551 0 1.05-0.199 1.4-0.528 0.352-0.321 0.567-0.765 0.567-1.25v-0.107c0-0.168 0.138-0.306 0.306-0.306s0.306 0.138 0.306 0.306v0.107c0 0.658-0.291 1.25-0.766 1.69-0.467 0.428-1.11 0.689-1.82 0.689-0.658 0-1.25-0.229-1.71-0.604-0.115 0.444-0.359 0.842-0.696 1.15-0.467 0.421-1.11 0.687-1.82 0.687-0.436 0-0.865-0.107-1.24-0.298s-0.696-0.467-0.933-0.811c-0.038-0.054-0.062-0.115-0.062-0.184 0-0.168 0.138-0.304 0.306-0.304 0.107 0 0.199 0.053 0.252 0.137 0 0 8e-3 0 8e-3 8e-3 0.176 0.26 0.421 0.467 0.704 0.612 0.291 0.153 0.62 0.23 0.964 0.23 0.551 0 1.05-0.2 1.4-0.529 0.352-0.321 0.567-0.764 0.567-1.24v-0.016l-2.8-1.58c-0.122-0.054-0.207-0.177-0.207-0.314 0-0.153 0.093-0.275 0.223-0.321 8e-3 0 0.015-8e-3 0.023-8e-3l4.54-1.32c0.038-0.015 0.077-0.023 0.116-0.023z"/>
 <!--text-here-->
</svg>
