<svg version="1.1" viewBox="0 0 32 32" xmlns="http://www.w3.org/2000/svg">
 <title>Red</title>
 <path fill="#111" d="m16.2 8.44c0.656 0 2.88 0.861 3.9 1.38 1.31 0.656 1.47 0.995 1.65 1.74l0.783 3.4c0.025 0.118 0.035 0.238 0.03 0.359 0 1.56-1.9 1.84-3.21 1.84v-5e-3c-5.11 0-8.92-3.18-8.92-4.14-3e-3 -0.068 4e-3 -0.138 0.021-0.204 0.115-0.362 0.999-2.85 0.999-2.85 0.318-0.882 0.727-1.31 1.36-1.31 0.658 0 1.18 0.588 1.88 0.588 0.729 0 0.906-0.788 1.52-0.788zm-6.14 5.32c-0.105 0.244-0.159 0.506-0.159 0.772 0 1.9 4.3 4.78 9.22 4.78 2.17 0 3.83-0.817 3.83-2.29 0-0.114 0-0.202-0.182-1.06h2e-3c2.08 0.904 3.24 2.42 3.24 3.76 0 1.7-1.2 3.85-5.96 3.85-6.2 0-14-4.08-14-7.38 0-2.02 2.29-2.33 4.06-2.42z"/>
 <!--text-here-->
</svg>
