<svg version="1.1" viewBox="0 0 32 32" xmlns="http://www.w3.org/2000/svg">
 <title>Regolith</title>
 <path fill="#111" d="m16.7 7.55c0.994 0 1.98 0.176 2.91 0.519-0.021-1e-3 -0.043-1e-3 -0.065-2e-3 -3.52-0-6.38 2.85-6.38 6.38 0 1.24 0.365 2.46 1.05 3.5 0.019-8e-3 0.038-0.015 0.057-0.023 1.38-0.562 2.83-1.22 4.23-1.94-0.029-0.134-0.044-0.27-0.043-0.407 0-1.06 0.86-1.92 1.92-1.92 0.497 0 0.975 0.193 1.33 0.539 1.23-0.754 2.35-1.53 3.23-2.28 0.11-0.094 0.247-0.149 0.392-0.156 0.202-0.01 0.397 0.074 0.528 0.228 0.235 0.274 0.202 0.687-0.072 0.921-0.981 0.839-2.18 1.67-3.5 2.48 7e-3 0.064 0.011 0.129 0.012 0.194 0 1.06-0.86 1.92-1.92 1.92-0.424-0-0.836-0.14-1.17-0.399-1.48 0.753-2.99 1.44-4.44 2.04-1.95 0.796-3.77 1.41-5.22 1.74-0.721 0.166-1.34 0.264-1.88 0.27-0.522 6e-3 -1.02-0.029-1.4-0.477-0.143-0.165-0.277-0.461-0.251-0.747 0.027-0.295 0.156-0.542 0.345-0.801 0.339-0.464 0.944-1.02 1.98-1.81-0.068-0.434-0.103-0.872-0.103-1.31 0-4.67 3.78-8.45 8.45-8.45zm8.25 10.3c-0.86 3.86-4.29 6.61-8.25 6.61-2.43-0-4.74-1.04-6.34-2.86 1.29-0.352 2.8-0.873 4.41-1.53 0.343-0.14 0.694-0.292 1.04-0.443 1.09 0.785 2.39 1.21 3.73 1.21 2.19-1e-3 4.23-1.13 5.4-2.98zm-16.3 0.861c-0.672 0.542-1.03 0.914-1.21 1.14 0.067 0.017 7e-3 4e-3 0.177 2e-3 0.335-4e-3 0.835-0.077 1.41-0.201-0.146-0.307-0.273-0.622-0.381-0.943z"/>
 <!--text-here-->
</svg>
