<svg version="1.1" viewBox="0 0 32 32" xmlns="http://www.w3.org/2000/svg">
 <title>Shutdown</title>
 <path fill="#111" d="m16 7c-0.767 0-1.38 0.618-1.38 1.38v6.93c0 0.767 0.618 1.38 1.38 1.38 0.767 0 1.38-0.618 1.38-1.38v-6.93c0-0.767-0.618-1.38-1.38-1.38zm4.21 2.75a1.38 1.38 0 0 0-0.267 0.0135 1.38 1.38 0 0 0-0.607 2.51 5.51 5.51 0 0 1 1.13 7.75c-1.84 2.46-5.33 2.92-7.79 1.08-2.46-1.84-2.92-5.28-1.08-7.75 0.299-0.401 0.641-0.734 1.04-1.04a1.39 1.39 0 0 0-1.69-2.21c-0.593 0.46-1.15 1-1.6 1.6-2.74 3.66-1.97 8.9 1.69 11.6 3.66 2.74 8.9 1.97 11.6-1.69 2.74-3.66 1.97-8.9-1.69-11.6a1.38 1.38 0 0 0-0.77-0.277z"/>
</svg>
