<svg version="1.1" viewBox="0 0 32 32" xmlns="http://www.w3.org/2000/svg">
 <title>Slackware</title>
 <path fill="#111" d="m16.4 6.5c1.3 0 2.35 0.506 3.32 1.2 0.026-0.171 0.03-0.35 0.148-0.5 0.197-0.251 0.507-0.36 0.823-0.36 0.314 0 0.623 0.11 0.825 0.352 0.199 0.239 0.273 0.554 0.273 0.876v2.6c0 0.328-0.067 0.637-0.267 0.882-0.204 0.25-0.516 0.368-0.831 0.368-0.285 0-0.578-0.098-0.779-0.323-0.191-0.213-0.275-0.502-0.294-0.816-0.052-0.586-0.373-1.09-0.92-1.47s-1.31-0.64-2.2-0.64c-0.949 0-1.76 0.269-2.3 0.691-0.542 0.423-0.831 0.981-0.831 1.66 0 0.62 0.253 1.11 0.749 1.42h8e-3c0.548 0.365 1.14 0.56 2.65 0.81h0.029l8e-3 6e-3h6e-3c2.02 0.336 2.82 0.563 3.67 1.08 1.16 0.698 1.86 1.98 1.86 3.46 0 1.39-0.638 2.62-1.69 3.46s-2.52 1.32-4.2 1.32c-1.52 0-2.76-0.624-3.82-1.45-0.026 0.242-0.047 0.489-0.199 0.675-0.203 0.249-0.514 0.362-0.831 0.362s-0.628-0.112-0.831-0.362c-0.197-0.242-0.273-0.557-0.273-0.89v-2.8c0-0.332 0.076-0.648 0.273-0.89 0.202-0.248 0.512-0.368 0.831-0.368 0.292 0 0.586 0.101 0.786 0.331 0.193 0.223 0.264 0.508 0.28 0.816v8e-3c0.054 0.645 0.444 1.22 1.11 1.67 0.667 0.446 1.6 0.728 2.66 0.728 1.09 0 2.01-0.304 2.65-0.786 0.637-0.484 0.995-1.12 0.995-1.87 0-0.68-0.345-1.32-0.876-1.65h-8e-3c-0.571-0.357-0.977-0.483-2.79-0.764h-8e-3c-1.82-0.312-2.85-0.634-3.72-1.25-1-0.678-1.58-1.84-1.58-3.1 0-2.55 2.34-4.47 5.3-4.47zm-8.41 13.9h1.07c0.236 0 0.427 0.191 0.428 0.426v2.79h14.6c0.236 0 0.428 0.192 0.428 0.428v1.08c-2e-3 0.236-0.193 0.426-0.428 0.426h-16.1c-0.235-2e-3 -0.425-0.191-0.427-0.426v-4.29c2e-3 -0.235 0.191-0.425 0.426-0.426z"/>
 <!--text-here-->
</svg>
