<svg version="1.1" viewBox="0 0 32 32" xmlns="http://www.w3.org/2000/svg">
 <title>Submenu</title>
 <path fill="#111" d="m12.7 9.96h0.604c0.668-1e-3 1.21 0.541 1.21 1.21 1e-3 0.669-0.542 1.21-1.21 1.21-0.195-1e-3 -0.405-4e-3 -0.604-2e-3 -1.02 0-1.82 0.797-1.82 1.81s0.799 1.82 1.82 1.82h6.16l-1.55-1.55c-0.221-0.231-0.379-0.558-0.379-0.869 0-0.668 0.541-1.21 1.21-1.21 0.375 0 0.669 0.11 0.908 0.34l4.42 4.5-4.42 4.5c-0.239 0.23-0.533 0.34-0.908 0.34-0.668-0-1.21-0.541-1.21-1.21 0-0.311 0.158-0.638 0.379-0.869l1.55-1.55h-6.16c-2.33-0.01-4.22-1.9-4.23-4.23 0-2.32 1.91-4.23 4.23-4.23z"/>
</svg>
