<svg version="1.1" viewBox="0 0 32 32" xmlns="http://www.w3.org/2000/svg">
 <title>Ubuntu Mate</title>
 <path fill="#111" d="m18.7 4.32 6.21 3.68-6.22 3.68zm-2.68 1.89c0.456 0 0.902 0.036 1.34 0.097v1.36c-0.436-0.071-0.883-0.113-1.34-0.113-3.55 0-6.59 2.18-7.84 5.28l-1.15-0.681c1.5-3.49 4.96-5.94 8.99-5.94zm0 3.32c0.456 0 0.904 0.055 1.33 0.147v1.38c-0.425-0.114-0.873-0.172-1.33-0.172-2.33 0-4.28 1.55-4.9 3.68l-1.19-0.706c0.884-2.51 3.28-4.33 6.09-4.33zm7.85 0.619c1.22 1.63 1.94 3.66 1.94 5.84 0 2.22-0.748 4.27-2 5.92l-1.16-0.688c1.14-1.44 1.81-3.25 1.81-5.23 0-1.94-0.653-3.73-1.75-5.15zm-2.9 1.72c0.938 1.12 1.51 2.56 1.51 4.12 0 1.6-0.596 3.08-1.57 4.21l-1.19-0.703c0.868-0.912 1.4-2.14 1.4-3.51 0-1.33-0.501-2.53-1.32-3.44zm-16.3 0.45 6.21 3.68-6.22 3.68zm6.43 5.1c0.613 2.13 2.56 3.67 4.9 3.67 0.462 0 0.909-0.06 1.33-0.172v1.39c-0.431 0.092-0.878 0.147-1.33 0.147-2.81 0-5.21-1.82-6.09-4.33zm-2.94 1.73c1.25 3.1 4.29 5.28 7.84 5.28 0.453 0 0.893-0.035 1.32-0.103v1.35c-0.433 0.06-0.875 0.097-1.32 0.097-4.03 0-7.5-2.45-8.99-5.94zm10.5 1.28 6.22 3.67-6.22 3.67z"/>
 <!--text-here-->
</svg>
