<svg version="1.1" viewBox="0 0 32 32" xmlns="http://www.w3.org/2000/svg">
 <title>Void</title>
 <path fill="#111" d="m15.9 6c0.996 0 1.36 0.039 2.36 0.258 0.413 0.09 1.09 0.296 1.23 0.373 0.031 0.018 0.072 0.032 0.093 0.032 0.068 0 1.28 0.585 1.29 0.627 6e-3 0.014 0.027 0.024 0.046 0.024 0.035 0 0.612 0.349 0.643 0.389 9e-3 0.011 0.06 0.049 0.113 0.083s0.113 0.074 0.131 0.089 0.113 0.089 0.212 0.165 0.196 0.153 0.216 0.171c0.019 0.018 0.084 0.068 0.145 0.113 0.153 0.113 1.14 1.1 1.25 1.25 0.053 0.071 0.118 0.153 0.145 0.181s0.079 0.091 0.115 0.141c0.199 0.276 0.312 0.432 0.334 0.461 0.11 0.144 0.453 0.732 0.643 1.11 0.277 0.544 0.409 0.861 0.556 1.32 0.11 0.343 0.132 0.416 0.22 0.747 5e-3 0.02 0.01 0.04 0.016 0.062 0.417 3e-3 1.03 5e-3 1.22 0.01 0.182 5e-3 0.294 9e-3 0.391 0.022s0.194 0.044 0.246 0.066h2e-3c0.047 0.021 0.091 0.043 0.131 0.062 0.04 0.02 0.042 0.01 0.129 0.075h2e-3c0.45 0.336 0.704 0.84 0.701 1.4-4e-3 0.781-0.39 1.53-1.04 2.13-0.282 0.26-0.334 0.3-0.552 0.439-0.255 0.163-0.532 0.292-0.862 0.413l-0.31 0.117h-0.066c-0.085 0.35-0.153 0.602-0.286 1-0.043 0.13-0.053 0.152-0.228 0.57-0.137 0.327-0.52 1.07-0.562 1.09-0.013 6e-3 -0.024 0.027-0.024 0.046 0 0.035-0.182 0.333-0.244 0.401-0.018 0.02-0.077 0.111-0.131 0.201-0.061 0.103-0.118 0.164-0.153 0.161-0.031-2e-3 -0.55-0.499-1.15-1.1l-1.1-1.1 0.075-0.125c0.208-0.351 0.387-0.733 0.534-1.13-0.713 2e-3 -1.41 4e-3 -1.69 0-0.19-3e-3 -0.301-6e-3 -0.395-0.016-0.047-5e-3 -0.086-6e-3 -0.163-0.034-0.039-0.014-0.093-0.034-0.159-0.099l-0.073 0.143-1.38 0.01c-0.176 1e-3 -0.273 0-0.411 0-0.586 0.535-1.35 0.832-2.15 0.832-0.799-1e-3 -1.57-0.302-2.16-0.844h-0.258c-0.525 2e-3 -1.01 2e-3 -1.37 0-0.179-1e-3 -0.326-2e-3 -0.433-4e-3 -0.053-1e-3 -0.097-3e-3 -0.131-4e-3 -0.017-1e-3 -0.031-1e-3 -0.046-2e-3 -8e-3 -1e-3 -0.016-1e-3 -0.028-2e-3s-0.071-0.014-0.073-0.014c-0.199-0.054-0.345-0.152-0.494-0.266-0.149-0.116-0.285-0.241-0.391-0.409-0.265-0.419-0.314-0.943-0.191-1.43 0.048-0.188 0.113-0.381 0.179-0.546 2e-3 -6e-3 6e-3 -0.01 8e-3 -0.016-0.023 0.015-0.047 0.031-0.062 0.042-8e-3 6e-3 -0.011 8e-3 -0.014 0.01l-4e-3 4e-3c-7e-3 6e-3 -0.013 0.012-0.018 0.016-0.012 0.01-0.021 0.017-0.03 0.024-0.018 0.014-0.038 0.026-0.058 0.04-0.041 0.028-0.091 0.061-0.145 0.095-0.045 0.028-0.087 0.057-0.117 0.077-8e-3 5e-3 -0.011 6e-3 -0.016 0.01-2e-3 2e-3 -2e-3 3e-3 -4e-3 4e-3 -3e-3 3e-3 -7e-3 4e-3 -0.01 6e-3 -3e-3 3e-3 -7e-3 8e-3 -0.01 0.01-0.013 0.01-0.021 0.017-0.03 0.024-0.019 0.014-0.038 0.026-0.058 0.04-0.042 0.029-0.091 0.062-0.145 0.097-0.046 0.029-0.095 0.061-0.131 0.087-0.036 0.025-0.082 0.065-0.038 0.024-0.086 0.081-0.097 0.077-0.161 0.123-0.065 0.046-0.144 0.101-0.228 0.157-0.056 0.038-0.102 0.069-0.147 0.101 0.331 3.37 3.1 6.03 6.56 6.15 1.2 0.043 2.23-0.182 3.33-0.727l0.5-0.248 1.12 1.12c0.616 0.615 1.12 1.13 1.12 1.15s-0.061 0.074-0.137 0.123c-0.624 0.401-0.82 0.513-1.26 0.735-1.08 0.54-2.14 0.858-3.32 0.995-0.421 0.049-1.36 0.086-1.64 0.064-1.06-0.079-1.79-0.216-2.64-0.49-3.3-1.07-5.82-3.82-6.61-7.16-0.139 1e-3 -0.226 6e-3 -0.347-0.018-0.066-0.013-0.16-0.044-0.238-0.109-0.082-0.061-0.119-0.131-0.135-0.162-0.046-0.086-0.211-0.387-0.312-0.572-0.051-0.092-0.143-0.272-0.218-0.417-0.035-0.069-0.07-0.134-0.095-0.179-0.01-0.019-0.016-0.032-0.022-0.042-1e-3 -2e-3 -5e-3 -6e-3 -6e-3 -8e-3 -7e-3 -0.01-0.012-0.016-0.016-0.022-8e-3 -0.012-0.012-0.022-0.018-0.032-0.012-0.021-0.025-0.043-0.04-0.071-0.03-0.055-0.067-0.124-0.105-0.198-0.073-0.142-0.171-0.329-0.21-0.399-0.043-0.079-0.136-0.247-0.205-0.375-0.069-0.127-0.164-0.303-0.212-0.391-0.099-0.181-0.409-0.759-0.484-0.903-0.056-0.108-0.091-0.221-0.085-0.363s0.098-0.37 0.314-0.453c1e-3 -0 0.068-0.02 0.083-0.022 0.014-3e-3 0.024-5e-3 0.032-6e-3 0.017-2e-3 0.028-1e-3 0.042-2e-3 0.028-2e-3 0.061-5e-3 0.099-6e-3 0.076-3e-3 0.177-4e-3 0.3-6e-3 0.246-4e-3 0.577-6e-3 0.935-6e-3 0.451 0 0.734 3e-3 0.951 8e-3 0.218-0.873 0.541-1.72 0.977-2.48 0.207-0.361 0.618-0.992 0.635-0.977 5e-3 5e-3 0.522 0.518 1.15 1.14l1.14 1.13-0.234 0.463c-0.358 0.711-0.577 1.42-0.675 2.18 1e-3 -0 3e-3 -3e-3 4e-3 -4e-3 0.017-0.013 0.032-0.024 0.05-0.036 0.036-0.024 0.078-0.051 0.123-0.079 0.035-0.022 0.068-0.043 0.091-0.058 5e-3 -3e-3 7e-3 -4e-3 0.01-6e-3 0.01-9e-3 0.016-0.015 0.022-0.02 0.012-0.01 0.021-0.017 0.03-0.024 0.018-0.014 0.038-0.026 0.058-0.04 0.041-0.028 0.091-0.061 0.145-0.095 0.045-0.028 0.088-0.057 0.117-0.077 4e-3 -3e-3 7e-3 -2e-3 0.01-4e-3 -8e-3 7e-3 -0.041 0.047-0.04 0.046s0.038-0.043 0.048-0.052c2e-3 -1e-3 6e-3 -5e-3 8e-3 -6e-3v-2e-3c6e-3 -5e-3 0.012-0.011 0.016-0.014 0.013-0.01 0.021-0.017 0.03-0.024 0.019-0.014 0.038-0.026 0.058-0.04 0.042-0.028 0.092-0.061 0.145-0.095 0.044-0.028 0.09-0.06 0.125-0.085s0.079-0.066 0.038-0.026c0.069-0.067 0.088-0.072 0.135-0.105 0.047-0.032 0.1-0.068 0.155-0.103 0.045-0.028 0.089-0.056 0.119-0.077 0.011-7e-3 0.017-0.012 0.022-0.016-3e-3 2e-3 -4e-3 5e-3 -0.01 0.01-7e-3 7e-3 -0.041 0.045-0.04 0.044 0.078-0.098 0.075-0.075 0.093-0.089 0.017-0.013 0.034-0.024 0.052-0.036 0.036-0.025 0.077-0.052 0.123-0.081 0.036-0.022 0.071-0.045 0.093-0.06 0.011-8e-3 0.018-0.014 0.018-0.014s-2e-3 -0.01-0.058 0.064c0.096-0.128 0.176-0.15 0.24-0.175 0.065-0.026 0.125-0.04 0.187-0.052 0.126-0.024 0.263-0.036 0.411-0.036 0.082 0 0.156 2e-3 0.22 6e-3 0.032 2e-3 0.058 4e-3 0.095 0.01 0.018 3e-3 0.037 6e-3 0.081 0.02 0.011 4e-3 0.024 7e-3 0.04 0.014s0.064 0.034 0.064 0.034 0.103 0.098 0.103 0.099l0.056 0.103s0.013 0.077 0.02 0.115c0.28-0.118 0.515-0.323 0.788-0.363 0.143-0.021 0.353-0.019 0.596-0.022 0.579-0.505 1.32-0.783 2.09-0.784 1.04 0 2.02 0.513 2.62 1.37 0.023-0.049 0.028-0.061 0.056-0.121 0.032-0.067 0.065-0.129 0.105-0.187 0.04-0.059 0.029-0.108 0.212-0.205 0.16-0.085 0.149-0.048 0.183-0.052s0.065-8e-3 0.103-0.01c0.075-5e-3 0.167-9e-3 0.274-0.012 0.214-6e-3 0.487-8e-3 0.758-8e-3s0.54 4e-3 0.747 0.01c0.104 3e-3 0.191 7e-3 0.262 0.012 0.036 3e-3 0.065 5e-3 0.101 0.01 0.018 3e-3 0.036 6e-3 0.071 0.016 0.017 5e-3 0.039 0.011 0.075 0.028 0.018 9e-3 0.068 0.042 0.069 0.042 0 0 0.059 0.065 0.085 0.093 0.018-0.032 0.017-0.064 0.145-0.133v-2e-3h2e-3c1e-3 -0 0.058-0.025 0.075-0.03s0.028-8e-3 0.038-0.01c0.02-4e-3 0.033-6e-3 0.044-8e-3 0.024-3e-3 0.044-5e-3 0.064-6e-3 0.042-3e-3 0.091-4e-3 0.153-6e-3 0.044-1e-3 0.129-3e-3 0.185-4e-3 -0.902-2.45-3.12-4.21-5.81-4.46-1.34-0.124-2.79 0.183-3.94 0.836l-0.264 0.149-2.28-2.29 0.125-0.09c0.675-0.497 1.91-1.08 2.83-1.35 1.02-0.292 1.74-0.391 2.85-0.391zm-10.7 7.99c-0.711 0-1.32 9e-3 -1.34 0.02-0.062 0.024-0.068 0.129-0.01 0.24 0.069 0.132 0.384 0.721 0.479 0.897 0.049 0.09 0.143 0.265 0.212 0.391 0.068 0.125 0.161 0.294 0.205 0.375s0.14 0.264 0.214 0.407 0.142 0.267 0.151 0.276 0.077 0.133 0.151 0.276 0.169 0.326 0.214 0.407c0.103 0.187 0.264 0.484 0.314 0.578 0.037 0.069 0.059 0.075 0.381 0.075 0.325 0 0.439-0.029 0.536-0.131 9e-3 -9e-3 0.081-0.061 0.161-0.115 0.188-0.126 0.625-0.43 0.671-0.467 0.019-0.016 0.1-0.069 0.179-0.119s0.15-0.1 0.159-0.111 0.128-0.092 0.262-0.181 0.251-0.17 0.26-0.181 0.083-0.063 0.163-0.113c0.081-0.05 0.154-0.098 0.163-0.109s0.147-0.108 0.308-0.216c0.161-0.107 0.312-0.215 0.336-0.238 0.025-0.023 0.129-0.095 0.23-0.159s0.19-0.125 0.199-0.137 0.097-0.071 0.195-0.133c0.099-0.061 0.186-0.122 0.195-0.133s0.075-0.059 0.147-0.107c0.072-0.047 0.175-0.119 0.232-0.159s0.233-0.163 0.391-0.27 0.295-0.203 0.304-0.214 0.083-0.061 0.163-0.111c0.081-0.05 0.154-0.101 0.163-0.113 9e-3 -0.011 0.101-0.076 0.203-0.143 0.163-0.107 0.252-0.201 0.252-0.264 0-0.01-0.122-0.018-0.272-0.018-0.249 0-0.469 0.043-0.51 0.099-9e-3 0.012-0.083 0.063-0.163 0.113-0.081 0.05-0.152 0.099-0.161 0.111-9e-3 0.011-0.097 0.071-0.195 0.133-0.099 0.062-0.199 0.132-0.224 0.155-0.024 0.024-0.127 0.097-0.228 0.161s-0.193 0.125-0.201 0.137c-9e-3 0.012-0.097 0.071-0.195 0.133-0.098 0.061-0.186 0.122-0.195 0.133s-0.081 0.061-0.161 0.111c-0.081 0.05-0.154 0.1-0.163 0.111s-0.199 0.145-0.423 0.296c-0.559 0.378-0.759 0.515-0.8 0.55-0.019 0.016-0.098 0.068-0.175 0.117-0.112 0.07-0.147 0.079-0.169 0.044-0.015-0.024-0.028-0.06-0.028-0.081s-0.011-0.042-0.024-0.048-0.096-0.15-0.183-0.32c-0.287-0.56-0.694-1.35-0.832-1.61-0.075-0.143-0.16-0.28-0.189-0.302-0.041-0.031-0.363-0.04-1.35-0.04zm9.97 2e-3c-0.849-1e-3 -1.71 9e-3 -1.87 0.032-0.49 0.071-1.22 0.404-1.55 0.713-0.03 0.028-0.073 0.067-0.097 0.087-0.123 0.105-0.385 0.406-0.465 0.534-0.05 0.081-0.1 0.154-0.111 0.163-0.075 0.062-0.23 0.448-0.314 0.782-0.091 0.359-0.031 0.838 0.139 1.11 0.124 0.196 0.447 0.446 0.647 0.5 0.034 9e-3 0.919 0.013 1.97 0.01l1.91-6e-3 0.26-0.099c0.441-0.168 0.844-0.382 0.987-0.524 0.024-0.024 0.054-0.044 0.066-0.044 0.034 0 0.421-0.383 0.52-0.516 0.048-0.065 0.112-0.145 0.141-0.177 0.047-0.052 0.284-0.511 0.357-0.689 0.045-0.112 0.095-0.444 0.095-0.641 0-0.632-0.329-1.08-0.876-1.2-0.109-0.023-0.944-0.034-1.79-0.034zm5.06 6e-3c-0.535-1e-3 -1.08 0.011-1.12 0.034-0.033 0.018-0.095 0.109-0.139 0.203-0.229 0.489-0.284 0.607-0.284 0.623 0 9e-3 -0.049 0.123-0.109 0.254s-0.133 0.29-0.161 0.353c-0.172 0.389-0.231 0.523-0.304 0.683-0.045 0.099-0.094 0.208-0.109 0.244-0.041 0.097-0.224 0.504-0.294 0.653-0.192 0.411-0.357 0.811-0.357 0.864 2e-3 0.02 0.41 0.027 1.13 0.022l1.13-8e-3 0.075-0.147c0.042-0.081 0.116-0.233 0.163-0.34s0.107-0.248 0.135-0.31c0.028-0.063 0.077-0.176 0.111-0.252 0.068-0.155 0.161-0.364 0.254-0.57 0.034-0.076 0.088-0.196 0.119-0.268 0.083-0.189 0.238-0.534 0.308-0.685 0.054-0.115 0.135-0.296 0.276-0.619 0.024-0.054 0.077-0.178 0.121-0.276 0.135-0.304 0.163-0.385 0.141-0.421-0.014-0.023-0.542-0.036-1.08-0.036zm4.37 4e-3c-1.66-6e-3 -2.59 3e-3 -2.62 0.024-0.052 0.028-0.254 0.446-0.647 1.34-0.043 0.099-0.099 0.222-0.123 0.276s-0.082 0.185-0.129 0.292-0.114 0.255-0.147 0.326c-0.033 0.072-0.099 0.219-0.147 0.326s-0.107 0.238-0.131 0.292c-0.061 0.134-0.195 0.433-0.294 0.659-0.045 0.103-0.098 0.213-0.115 0.244-0.017 0.03-0.03 0.079-0.03 0.107 0 0.046 0.276 0.051 2.69 0.04l2.7-0.01 0.244-0.091c0.31-0.113 0.555-0.23 0.782-0.375 0.218-0.139 0.211-0.134 0.494-0.395 0.582-0.536 0.902-1.18 0.905-1.83 2e-3 -0.457-0.164-0.788-0.536-1.07-0.018-0.013-0.099-0.054-0.179-0.089-0.141-0.061-0.249-0.063-2.71-0.073zm-9.81 0.673c0.654 0 0.69 3e-3 0.776 0.071 0.085 0.067 0.09 0.08 0.075 0.284-0.015 0.2-0.048 0.297-0.252 0.735-0.033 0.072-0.095 0.212-0.139 0.31-0.044 0.099-0.109 0.24-0.143 0.316-0.136 0.294-0.376 0.711-0.778 0.872l-0.619 8e-3c-0.714 0.01-0.805-0.011-0.856-0.195-0.05-0.179 0.021-0.483 0.212-0.905 0.044-0.099 0.103-0.229 0.131-0.292 0.311-0.706 0.521-1.02 0.77-1.14 0.129-0.063 0.196-0.069 0.824-0.069zm9.14 4e-3h0.741c0.712 0 0.746 3e-3 0.832 0.071 0.085 0.067 0.09 0.082 0.075 0.27-9e-3 0.11-0.032 0.229-0.05 0.264s-0.046 0.1-0.064 0.145c-0.038 0.095-0.183 0.44-0.274 0.651-0.149 0.348-0.394 0.753-0.546 0.909-0.051 0.052-0.155 0.137-0.234 0.187l-0.143 0.093-1.48 0.022 0.028-0.095c0.015-0.052 0.043-0.123 0.062-0.157 0.019-0.035 0.074-0.15 0.121-0.258 0.047-0.107 0.12-0.274 0.163-0.369s0.079-0.178 0.079-0.187 0.03-0.087 0.069-0.171c0.173-0.382 0.268-0.592 0.361-0.804 0.055-0.125 0.136-0.305 0.179-0.399z"/>
 <!--text-here-->
</svg>
