<svg version="1.1" viewBox="0 0 32 32" xmlns="http://www.w3.org/2000/svg">
 <title>Xubuntu</title>
 <path fill="#111" d="m21.2 6v2e-3c0.018 2e-3 0.036 3e-3 0.053 2e-3 0.057-5e-3 0.041-1e-3 0.055 0.01 0.041 0.036 0.079 0.076 0.113 0.119 0.087 0.106 0.115 0.161 0.131 0.253v0.021c0.13 1.98-0.215 4-0.698 5.92-0.035 0.049-0.059 0.105-0.07 0.164-0.038 0.224-0.114 0.377-0.234 0.462-0.113 0.078-0.16 0.093-0.193 0.088-0.042-0.012-0.116-0.079-0.173-0.154-9e-3 -0.024-0.02-0.048-0.033-0.07-0.308-1.14 0.077-2.34 0.197-3.52 1e-3 -0.018 1e-3 -0.036 0-0.053 0.245-1.08 0.253-2.28 0.795-3.2-0.014 0.019 8e-3 -6e-3 0.055-0.037zm4.42 0.939c0.014 1e-3 0.027 1e-3 0.041 0 0.08-0.012 0.228 0.086 0.242 0.117 0.049 0.104 0.046 0.155-0.01 0.294-1e-3 1e-3 -1e-3 3e-3 -2e-3 4e-3 -0.817 2.08-1.81 4.23-3.13 6.04-3e-3 5e-3 -6e-3 0.01-8e-3 0.014-0.014 0.019-7e-3 0.036-0.014 0.06-0.112 0.144-0.289 0.221-0.47 0.205-0.139-0.031-0.275-0.165-0.279-0.4 0.099-1.49 1.02-2.76 1.75-4.05 0.021-0.034 0.036-0.072 0.045-0.111 0.575-0.787 1-1.77 1.84-2.18zm-12.7 0.585c0.067-0 0.135 5e-3 0.201 0.014 0.388 0.022 0.751 0.202 1 0.499 0.405 0.478 0.598 1.18 0.723 1.92 0.107 0.704 0.166 1.41 0.177 2.13v0.776c0 0.033-0.016 0.07 0 0.099 0.016 0.031 0.07 0.033 0.101 0.051 0.021 0.012 0.024 0.02 0.047 0.023 0.047 0.014 0.092 0.037 0.177 0.051 0.283 0.054 0.739 0.075 1.22 0.148 1.2 0.201 2.38 0.46 3.55 0.776 1.31 0.344 2.62 0.818 3.67 1.5 1.05 0.681 1.84 1.56 2 2.75 0.104 0.737-0.458 1.48-1.23 2.15-0.765 0.674-1.77 1.3-2.85 1.9-1.08 0.591-2.2 1.13-3.1 1.55-0.447 0.21-0.846 0.353-1.15 0.499-1.54 0.624-3.29 1.18-5.12 1.55-0.073 0-0.247 0.047-0.324 0.051-9.36 0.812-5-10.8-5-10.8s0.234-0.545 0.329-0.875c0.025-0.115 0.041-0.232 0.047-0.349-0.013-0.077-0.062-0.219-0.102-0.375-0.089-0.365-0.232-0.807-0.324-1.35-0.09-0.539-0.147-1.16-0.025-1.7 0.124-0.574 0.488-1.07 1-1.35 0.207-0.11 0.446-0.146 0.676-0.1 0.234 0.077 0.447 0.205 0.624 0.376 0.396 0.375 0.726 0.815 0.975 1.3 0.262 0.489 0.504 0.99 0.725 1.5 0.097 0.221 0.153 0.398 0.224 0.548 0.033 0.068 0.053 0.163 0.074 0.203 0.016 0.035 0 0.034 0 0.023 0.019 0.028 0.072 0.035 0.101 0.053-0.016-0.016 0.062 0.033 0.123 0.047 0.092 0.024 0.163 0.056 0.253 0.051 0.046-3e-3 0.09-0.021 0.125-0.051 0.014 0-0.017-0.04 0-0.049 0.028-0.035 0.049-0.031 0.049-0.076v-0.099c-0.038-0.132-0.115-0.325-0.226-0.725-0.127-0.462-0.242-1.06-0.324-1.65-0.08-0.586-0.12-1.16 0-1.68 0.122-0.502 0.398-0.935 0.899-1.12 0.144-0.057 0.34-0.176 0.474-0.199 0.066-0.01 0.133-0.014 0.199-0.014z"/>
 <!--text-here-->
</svg>
