<?xml version="1.0" encoding="UTF-8"?>
<svg version="1.1" viewBox="0 0 32 32" xmlns="http://www.w3.org/2000/svg">
 <defs>
  <path id="bg" d="m16 0a16 16 0 0 0-16 16 16 16 0 0 0 16 16 16 16 0 0 0 16-16 16 16 0 0 0-16-16zm0 5.199c1.832 4.3 2.263 5.622 7.607 15.57-0.673-0.406-1.543-0.7699-2.752-1.084 1.76 0.905 2.624 1.738 3.451 2.381 0.527 0.976 1.079 1.999 1.695 3.133-3.128-1.805-5.559-2.929-7.824-3.373a5.732 5.732 0 0 0 0.127-1.092c0.05-2.029-0.9218-3.763-2.174-3.869-1.252-0.106-2.307 1.455-2.359 3.486l-0.001953 0.1016a5.804 5.804 0 0 0 0.1484 1.357c-2.288 0.43-4.746 1.559-7.916 3.387 4.033-7.244 6.019-11.01 7.287-13.66 0.664 0.559 1.555 1.099 2.857 1.635-1.211-0.85-1.959-1.599-2.566-2.244 0.992-2.117 1.53-3.547 2.42-5.729z"/>
  <path id="fg" d="m16 5.2c-0.8904 2.182-1.427 3.611-2.419 5.728 0.6072 0.6448 1.354 1.394 2.565 2.244-1.302-0.536-2.192-1.075-2.856-1.634-1.268 2.648-3.255 6.416-7.288 13.66 3.17-1.828 5.628-2.957 7.916-3.387a5.804 5.804 0 0 1-0.1488-1.358l0.0024-0.1016c0.05196-2.031 1.108-3.592 2.36-3.486 1.252 0.1063 2.223 1.84 2.173 3.869a5.732 5.732 0 0 1-0.1276 1.091c2.265 0.444 4.696 1.568 7.824 3.373-0.6164-1.134-1.167-2.156-1.694-3.132-0.8268-0.6424-1.691-1.476-3.451-2.381 1.209 0.3141 2.079 0.678 2.752 1.084-5.344-9.948-5.776-11.27-7.608-15.57z"/>
 </defs>
 <symbol id="color">
  <use href="#bg" fill="#138ed3"/>
  <use href="#fg" fill="#fff"/>
 </symbol>
 <symbol id="light-white"><use href="#fg" fill="#fff"/></symbol>
 <symbol id="light-black"><use href="#fg"/></symbol>
 <symbol id="full-white"><use href="#bg" fill="#fff"/></symbol>
 <symbol id="full-black"><use href="#bg"/></symbol>
 <use id="main" href="#color"/>
</svg>
