<?xml version="1.0" encoding="UTF-8"?>
<svg xmlns="http://www.w3.org/2000/svg" version="1.1" viewBox="0 0 32 32">
  <defs>
    <path id="bg" d="m16 0c-8.864 0-16 7.136-16 16 0 8.864 7.136 16 16 16 8.864 0 16-7.136 16-16 0-8.864-7.136-16-16-16zm-8.609 7.346c6.6 1.076 6.648 1.197 9.064 1.9 2.413 0.7032 4.16 1.36 5.568 2.236 1.408 0.876 2.174 1.616 2.584 2.531 0.4104 0.9156 0.3692 1.814-0.02148 2.674-0.3908 0.8596-1.088 1.574-2.52 2.506-1.432 0.932-3.439 2.158-5.621 3.08-2.184 0.9224-6.131 2.411-7.463 2.445l-0.001953 0.001953c-1.331 0.03402-1.683-0.7048-1.791-1.127-0.1083-0.4224-0.3036-1.44 0.7305-2.102 1.034-0.6616 3.885-1.082 5.836-1.791 1.95-0.7092 4.48-1.578 5.836-2.453 1.357-0.8744 1.996-1.45 2.121-2.52 0.1248-1.069-0.2606-1.958-1.502-2.785-1.242-0.8272-2.367-1.353-4.508-2.121-2.142-0.7684-3.613-1.369-8.312-2.477z"/>
    <path id="fg" d="m8.98 24.72c-1.331 0.03402-1.682-0.7048-1.79-1.127-0.1083-0.4224-0.3045-1.438 0.7296-2.1 1.034-0.6616 3.885-1.083 5.836-1.792 1.95-0.7092 4.48-1.577 5.836-2.452 1.357-0.8744 1.997-1.45 2.122-2.52 0.1248-1.069-0.2616-1.958-1.503-2.785-1.242-0.8272-2.367-1.354-4.508-2.122-2.142-0.7684-3.612-1.368-8.312-2.476 6.6 1.076 6.648 1.198 9.064 1.901 2.413 0.7032 4.16 1.36 5.568 2.236s2.174 1.615 2.584 2.53c0.4104 0.9156 0.3703 1.814-0.0204 2.674-0.3908 0.8596-1.088 1.575-2.52 2.507s-3.438 2.157-5.62 3.079c-2.184 0.9224-6.132 2.412-7.464 2.446z"/>
  </defs>
  <symbol id="color">
    <use href="#bg" fill="#4d4d4d"/>
    <use href="#fg" fill="#fff"/>
  </symbol>
 <symbol id="light-white"><use href="#fg" fill="#fff"/></symbol>
 <symbol id="light-black"><use href="#fg"/></symbol>
 <symbol id="full-white"><use href="#bg" fill="#fff"/></symbol>
 <symbol id="full-black"><use href="#bg"/></symbol>
 <use id="main" href="#color"/>
</svg>
