<?xml version="1.0" encoding="UTF-8"?>
<svg version="1.1" viewBox="0 0 32 32" xmlns="http://www.w3.org/2000/svg">
 <defs>
 <path id="bg" d="m16 0c-8.836 3.553e-15 -16 7.164-16 16 0 8.836 7.164 16 16 16 8.836 0 16-7.164 16-16 0-8.836-7.164-16-16-16zm-2 8h4l0.1719 2.115a6.284 6.284 0 0 1 1.852 1.051l1.908-0.9023 2 3.475-1.738 1.199a6.284 6.284 0 0 1 0.0918 1.062 6.284 6.284 0 0 1-0.0918 1.062l1.738 1.201-2 3.475-1.92-0.9043a6.284 6.284 0 0 1-1.84 1.064l-0.1719 2.102h-4l-0.1719-2.113a6.284 6.284 0 0 1-1.852-1.053l-1.908 0.9023-2-3.473 1.738-1.201a6.284 6.284 0 0 1-0.0918-1.062 6.284 6.284 0 0 1 0.0918-1.062l-1.738-1.201 2-3.473 1.92 0.9023a6.284 6.284 0 0 1 1.84-1.062l0.1719-2.104zm2 5.717a2.286 2.286 0 0 0-2.285 2.285 2.286 2.286 0 0 0 2.285 2.285 2.286 2.286 0 0 0 2.285-2.285 2.286 2.286 0 0 0-2.285-2.285z"/>
 <path id="fg" d="m14 8-0.1714 2.103a6.284 6.284 0 0 0-1.84 1.063l-1.92-0.9028-2 3.474 1.737 1.2a6.284 6.284 0 0 0-0.09144 1.063 6.284 6.284 0 0 0 0.09144 1.063l-1.737 1.2 2 3.474 1.908-0.9028a6.284 6.284 0 0 0 1.852 1.052l0.1714 2.114h4l0.1714-2.103a6.284 6.284 0 0 0 1.84-1.063l1.92 0.9028 2-3.474-1.737-1.2a6.284 6.284 0 0 0 0.09144-1.063 6.284 6.284 0 0 0-0.09144-1.063l1.737-1.2-2-3.474-1.908 0.9028a6.284 6.284 0 0 0-1.852-1.052l-0.1714-2.114zm2 5.716a2.286 2.286 0 0 1 2.286 2.286 2.286 2.286 0 0 1-2.286 2.286 2.286 2.286 0 0 1-2.286-2.286 2.286 2.286 0 0 1 2.286-2.286z"/> </defs>
 <symbol id="color">
  <use href="#bg" fill="#4d4d4d"/>
  <use href="#fg" fill="#fff"/>
 </symbol>
 <symbol id="light-white"><use href="#fg" fill="#fff"/></symbol>
 <symbol id="light-black"><use href="#fg"/></symbol>
 <symbol id="full-white"><use href="#bg" fill="#fff"/></symbol>
 <symbol id="full-black"><use href="#bg"/></symbol>
 <use id="main" href="#color"/>
</svg>