<?xml version="1.0" encoding="UTF-8"?>
<svg xmlns="http://www.w3.org/2000/svg" version="1.1" viewBox="0 0 32 32">
  <defs>
   <path id="bg" d="m16 0a16 16 0 0 0-16 16 16 16 0 0 0 16 16 16 16 0 0 0 16-16 16 16 0 0 0-16-16zm0 4a12 12 0 0 1 12 12 12 12 0 0 1-12 12 12 12 0 0 1-12-12 12 12 0 0 1 12-12zm0.3418 4.4v0.00195c-0.06524-6.06e-4 -0.1301-1.308e-4 -0.1953 0.00195-0.2508 0.00756-0.4996 0.03288-0.7461 0.08008-1.382 0.254-2.598 1.051-3.568 2.029-1.714 1.724-2.776 4.157-2.58 6.596 0.1 1.219 0.5077 2.419 1.213 3.426 0.08856 0.1271 0.1907 0.2442 0.2891 0.3652-0.8808 0.2873-1.778 0.5237-2.697 0.6465l-0.3574 0.04688 1.047 1.465 0.1426-0.03124c1.047-0.238 2.066-0.5829 3.047-1.012 0.4272 0.3128 0.887 0.5825 1.377 0.7715 1.54 0.5912 3.271 0.5028 4.812-0.03124 1.536-0.5312 2.891-1.481 4.066-2.578 1.398-1.311 2.57-2.843 3.469-4.535l0.03712-0.06836-0.4082-2.008-0.2812 0.5742c-0.954 1.965-2.297 3.717-3.947 5.148-0.7924 0.684-1.649 1.293-2.59 1.717-0.942 0.4236-1.974 0.658-2.99 0.5996-0.6252-0.0344-1.214-0.2555-1.783-0.5098 1.706-0.9832 3.254-2.217 4.537-3.713 0.9072-1.06 1.712-2.281 2.023-3.678v-2e-3c0.1643-0.7032 0.1769-1.433 0.03711-2.141-0.1428-0.7188-0.4814-1.383-0.9766-1.924v-0.00195l-2e-3 -0.00195c-0.496-0.5172-1.124-0.89-1.816-1.076h-2e-3c-0.3776-0.1009-0.7657-0.1528-1.156-0.1582zm-0.1641 1.084v0.00195c0.62 0 1.243 0.1916 1.729 0.5586 0.44 0.3308 0.7725 0.8108 0.959 1.334 0.189 0.5284 0.2367 1.109 0.1719 1.674-0.132 1.131-0.7088 2.189-1.418 3.123-1.382 1.784-3.192 3.182-5.252 4.104-0.3456-0.3224-0.6571-0.6802-0.8906-1.092v-2e-3c-0.535-0.9512-0.7171-2.091-0.6113-3.191 0.1036-1.102 0.4856-2.179 1.002-3.178 0.5968-1.158 1.406-2.234 2.514-2.844h2e-3c0.55-0.3053 1.177-0.4906 1.795-0.4883z" />
   <path id="fg" d="m16 4a12 12 0 0 0-12 12 12 12 0 0 0 12 12 12 12 0 0 0 12-12 12 12 0 0 0-12-12zm0.3418 4.4c0.3906 0.0054 0.7788 0.05728 1.156 0.1582h2e-3c0.6924 0.1861 1.32 0.5588 1.816 1.076l2e-3 0.00195v0.00195c0.4952 0.5404 0.8336 1.205 0.9764 1.924 0.1398 0.708 0.1272 1.438-0.03712 2.141v2e-3c-0.311 1.396-1.116 2.618-2.024 3.678-1.283 1.496-2.83 2.73-4.536 3.713 0.5696 0.2542 1.158 0.4752 1.783 0.5096 1.016 0.05844 2.046-0.176 2.988-0.5996 0.9404-0.424 1.798-1.033 2.59-1.717 1.65-1.432 2.993-3.183 3.947-5.148l0.2812-0.5744 0.41 2.008-0.03712 0.06836c-0.8984 1.692-2.07 3.225-3.469 4.536-1.176 1.097-2.532 2.047-4.068 2.578-1.541 0.534-3.272 0.6224-4.812 0.03124-0.49-0.189-0.9496-0.4588-1.377-0.7716-0.9812 0.4288-2 0.7736-3.047 1.012l-0.1426 0.03124-1.047-1.465 0.3574-0.04688c0.9188-0.1228 1.816-0.3591 2.697-0.6464-0.09836-0.1211-0.2005-0.2381-0.2891-0.3652-0.7052-1.007-1.113-2.207-1.213-3.426-0.1957-2.439 0.866-4.872 2.58-6.596 0.9708-0.9784 2.186-1.775 3.568-2.029 0.2465-0.0472 0.4952-0.07252 0.746-0.08008 0.0652-0.00208 0.1301-0.00256 0.1953-0.00196zm-0.1641 1.084c-0.6184-0.00227-1.245 0.1831-1.795 0.4884h-2e-3c-1.108 0.6096-1.917 1.686-2.514 2.844-0.5164 0.9992-0.8984 2.076-1.002 3.178-0.1058 1.1 0.0762 2.24 0.6112 3.192v2e-3c0.2335 0.4116 0.5452 0.7696 0.8908 1.092 2.06-0.9216 3.87-2.32 5.252-4.104 0.7092-0.9336 1.286-1.992 1.418-3.123 0.0648-0.5644 0.01712-1.146-0.1719-1.674-0.1865-0.5232-0.5188-1.003-0.9588-1.334-0.4856-0.367-1.108-0.5584-1.728-0.5584z"/>
  </defs>
  <symbol id="color">
    <use href="#bg" fill="#00bafb"/>
    <use href="#fg" fill="#fff"/>
  </symbol>
 <symbol id="light-white"><use href="#fg" fill="#fff"/></symbol>
 <symbol id="light-black"><use href="#fg"/></symbol>
 <symbol id="full-white"><use href="#bg" fill="#fff"/></symbol>
 <symbol id="full-black"><use href="#bg"/></symbol>
 <use id="main" href="#color"/>
</svg>