<?xml version="1.0" encoding="UTF-8"?>
<svg xmlns="http://www.w3.org/2000/svg" version="1.1" viewBox="0 0 32 32">
  <defs>
   <path id="bg" d="m16 0a16 16 0 0 0-16 16 16 16 0 0 0 16 16 16 16 0 0 0 16-16 16 16 0 0 0-16-16zm2.125 2.412 0.003906 0.001953-0.001953 0.001953s0.2249 0.2898 0.4219 0.5449c0.08136 0.1054 0.06589 0.08272 0.1738 0.2246l0.001953 0.001953c0.1855 0.2438 0.4063 0.5375 0.6543 0.873 9.75e-4 0.001318 9.78e-4 0.002586 0.001953 0.003906 0.248 0.3356 0.5239 0.7118 0.8145 1.119v0.001953c0.2912 0.4083 0.5981 0.8461 0.9121 1.307 0.1553 0.2277 0.3134 0.4721 0.4707 0.709 0.1612 0.2429 0.3217 0.4786 0.4824 0.7285l0.001953 0.001953c0.1581 0.246 0.3156 0.4938 0.4707 0.7441 0.05506 0.08882 0.1076 0.1784 0.1621 0.2676 0.09958 0.163 0.1998 0.3266 0.2969 0.4902l0.001953 0.001953c0.2997 0.5051 0.585 1.012 0.8477 1.51l0.001953 0.001954c0.1912 0.3625 0.37 0.7112 0.5371 1.045 0.1583 0.3162 0.3059 0.6201 0.4434 0.9121 0.007368 0.01565 0.01613 0.03324 0.02344 0.04883 5.89e-4 0.001254 0.001365 0.002653 0.001953 0.003906 0.1434 0.3059 0.2753 0.6 0.3965 0.8809l0.001953 0.001953c0.1213 0.2813 0.2302 0.5507 0.3301 0.8086l0.001953 0.001953c0.09983 0.2578 0.1882 0.5059 0.2676 0.7422 0.4772 1.421 0.5928 2.471 0.4414 3.34v0.001953c-0.02526 0.1442-0.05818 0.2827-0.09766 0.418-0.1586 0.5434-0.4273 1.025-0.7793 1.496-1.64 2.193-6.316 1.586-12.69 1.152-0.4432-0.03017-0.8384-0.06774-1.254-0.1016-0.2658-0.02162-0.5426-0.04163-0.7969-0.06445-0.3959-0.03555-0.7553-0.07353-1.123-0.1113-0.2223-0.02283-0.4503-0.04495-0.6621-0.06836-0.4209-0.04653-0.8102-0.0929-1.189-0.1406-0.1185-0.01488-0.2352-0.02806-0.3496-0.04297-0.3891-0.05078-0.7546-0.1005-1.096-0.1504-0.02241-0.003271-0.05006-0.006502-0.07227-0.009766-2.223-0.328-3.43-0.6172-3.43-0.6172l15.35-18.05 0.001954-0.001953 0.02344-0.02734c-9e-6 -1.09e-5 -0.001953-0.003906-0.001953-0.003906z"/>
   <path id="fg" d="m18.13 2.413-0.02544 0.02999-11.92 18.67c1.635 0.2403 3.826 0.5012 6.54 0.686 6.372 0.4336 11.05 1.04 12.69-1.152 1.408-1.884 1.499-3.886-1.569-9.7-2.104-3.988-5.716-8.532-5.716-8.532zm0 0-15.38 18.08s3.532 0.8684 9.972 1.307c6.372 0.4336 11.05 1.04 12.69-1.152 1.408-1.884 1.499-3.886-1.569-9.7-2.104-3.988-5.716-8.532-5.716-8.532z"/>
   <path id="sh" d="m18.14 2.393-13.98 21.89s4.708 0.2512 11.92 0c7.172-0.2499 11.04-0.5528 12.44-2.691 1.063-1.628 1.182-4.208-3.075-10.58-2.911-4.36-7.304-8.616-7.304-8.616z" opacity=".5"/>
  </defs>
  <symbol id="color">
    <use href="#bg" fill="#f2f2f2"/>
    <use href="#fg" fill="#ff7f7e"/>
    <use href="#sh" fill="#0002ff"/>
  </symbol>
 <symbol id="light-white"><use href="#fg" fill="#fff"/></symbol>
 <symbol id="light-black"><use href="#fg"/></symbol>
 <symbol id="full-white"><use href="#bg" fill="#fff"/></symbol>
 <symbol id="full-black"><use href="#bg"/></symbol>
 <use id="main" href="#color"/>
</svg>