<?xml version="1.0" encoding="UTF-8"?>
<svg version="1.1" viewBox="0 0 32 32" xmlns="http://www.w3.org/2000/svg">
 <defs>
  <path id="bg" d="m16 0c-8.836 0-16 7.164-16 16 0 8.836 7.164 16 16 16 8.836 0 16-7.164 16-16 0-8.836-7.164-16-16-16zm-1.717 7.998a6.284 6.284 0 0 1 6.283 6.285 6.284 6.284 0 0 1-1.111 3.559l4.195 4.191a1.143 1.143 0 0 1 0.3477 0.8184 1.143 1.143 0 0 1-1.145 1.145 1.143 1.143 0 0 1-0.8223-0.3516l-4.186-4.184a6.284 6.284 0 0 1-3.562 1.107 6.284 6.284 0 0 1-6.283-6.285 6.284 6.284 0 0 1 6.283-6.283zm0 2.287a4 4 0 0 0-4 4 4 4 0 0 0 4 4 4 4 0 0 0 4-4 4 4 0 0 0-4-4z"/>
  <path id="fg" d="m14.28 8a6.284 6.284 0 0 0-6.284 6.284 6.284 6.284 0 0 0 6.284 6.284 6.284 6.284 0 0 0 3.562-1.108l4.184 4.184a1.143 1.143 0 0 0 0.824 0.3509 1.143 1.143 0 0 0 1.143-1.143 1.143 1.143 0 0 0-0.3463-0.8196l-4.196-4.192a6.284 6.284 0 0 0 1.112-3.558 6.284 6.284 0 0 0-6.284-6.284zm0 2.286a4 4 0 0 1 4 4 4 4 0 0 1-4 4 4 4 0 0 1-4-4 4 4 0 0 1 4-4z"/>
 </defs>
 <symbol id="color">
  <use href="#bg" fill="#4d4d4d"/>
  <use href="#fg" fill="#fff"/>
 </symbol>
 <symbol id="light-white"><use href="#fg" fill="#fff"/></symbol>
 <symbol id="light-black"><use href="#fg"/></symbol>
 <symbol id="full-white"><use href="#bg" fill="#fff"/></symbol>
 <symbol id="full-black"><use href="#bg"/></symbol>
 <use id="main" href="#color"/>
</svg>