<?xml version="1.0" encoding="UTF-8"?>
<svg version="1.1" viewBox="0 0 32 32" xmlns="http://www.w3.org/2000/svg">
 <defs>
  <path id="bg" d="m15.76 0.001953a16 16 0 0 0 0 32 16 16 0 1 0 0-32zm-8.893 6c1.049 0.02016 2.674 0.78 3.908 1.48-1.432 0.8796-2.624 2.108-3.463 3.568-0.9429-1.646-2.018-4.041-1.266-4.793 0.1857-0.187 0.4708-0.2626 0.8203-0.2559zm18.27 0.1094c0.3166-5e-3 0.5741 0.06386 0.7422 0.2324 1.074 1.074-1.909 5.809-2.412 6.313-0.5032 0.5032-1.787 0.0397-2.861-1.039-1.079-1.074-1.545-2.356-1.037-2.859l-2e-3 -0.00195c0.4246-0.4246 3.861-2.618 5.57-2.645zm-8.928 0.3398c1.629 0 3.161 0.3988 4.512 1.102-0.3308 0.1814-0.6302 0.3641-0.8887 0.5273-1.179-0.2128-1.492 0.7426-0.6758 2.207 0.9892 1.954 4.037 4.098 4.957 3.178 0.2445-0.2445 0.2701-0.6701 0.1211-1.182v-2e-3c0.1492-0.2493 0.3176-0.5328 0.4941-0.8496 0.7976 1.418 1.256 3.056 1.256 4.797 0 5.4-4.375 9.775-9.775 9.775-5.4 0-9.775-4.379-9.775-9.775 0-5.4 4.375-9.777 9.775-9.777z"/>
  <path id="fg" d="m19.57 8.756c0.5032-0.5032 5.236-3.491 6.312-2.412 1.074 1.074-1.909 5.808-2.412 6.312-0.5032 0.5032-1.786 0.04076-2.861-1.038-1.079-1.074-1.546-2.358-1.038-2.861zm-8.788-1.274c-1.646-0.934-3.985-1.972-4.728-1.224-0.7524 0.7524 0.3219 3.146 1.265 4.792 0.8388-1.46 2.031-2.688 3.464-3.568zm13.46 4.8c0.1496 0.5124 0.1224 0.9384-0.1224 1.183-0.9204 0.9204-3.967-1.224-4.956-3.178-0.816-1.464-0.5032-2.421 0.6756-2.208 0.2584-0.1632 0.5576-0.3446 0.8884-0.526-1.351-0.7028-2.883-1.102-4.512-1.102-5.4 0-9.776 4.376-9.776 9.776 0 5.396 4.376 9.776 9.776 9.776s9.776-4.376 9.776-9.776c0-1.741-0.458-3.378-1.256-4.796-0.1768 0.3174-0.3446 0.6028-0.494 0.8524z"/>
 </defs>
 <symbol id="color">
  <use href="#bg" fill="#f9f9f9"/>
  <use href="#fg" fill="#f24343"/>
 </symbol>
 <symbol id="light-white"><use href="#fg" fill="#fff"/></symbol>
 <symbol id="light-black"><use href="#fg"/></symbol>
 <symbol id="full-white"><use href="#bg" fill="#fff"/></symbol>
 <symbol id="full-black"><use href="#bg"/></symbol>
 <use id="main" href="#color"/>
</svg>