<?xml version="1.0" encoding="UTF-8"?>
<svg version="1.1" viewBox="0 0 32 32" xmlns="http://www.w3.org/2000/svg">
 <defs>
  <path id="bg" d="m16 0a16 16 0 0 0-16 16 16 16 0 0 0 16 16 16 16 0 0 0 16-16 16 16 0 0 0-16-16zm0 4a12 12 0 0 1 12 12 12 12 0 0 1-12 12 12 12 0 0 1-12-12 12 12 0 0 1 12-12zm-2e-3 3v0.00195c-4.972 0-9 4.032-9 9s4.032 9 9 9 9-4.032 9-9a0.6 0.6 0 0 0-0.01368-0.1172 0.6 0.6 0 0 0 0-2e-3c-5.39e-4 -0.0027-0.0014-0.0052-2e-3 -0.0078a0.6 0.6 0 0 0-0.03124-0.09961 0.6 0.6 0 0 0-2e-3 -0.0058c-0.0014-0.0035-0.0043-0.0063-0.0058-0.0098a0.6 0.6 0 0 0-0.04492-0.08398 0.6 0.6 0 0 0-0.0039-0.0078c-0.0024-0.0034-0.0054-0.0064-0.0078-0.0098a0.6 0.6 0 0 0-0.06641-0.07812 0.6 0.6 0 0 0-0.07812-0.06641 0.6 0.6 0 0 0-0.0098-0.0078c-0.0024-0.0016-0.0054-0.0023-0.0078-0.0039a0.6 0.6 0 0 0-0.09375-0.05078 0.6 0.6 0 0 0-0.1133-0.03516 0.6 0.6 0 0 0-0.1191-0.01368 0.6 0.6 0 0 0-0.0078 2e-3h-7.191c-0.3324 0-0.5996 0.2672-0.5996 0.5996 0 0.3324 0.2672 0.5996 0.5996 0.5996h6.576c-0.308 4.038-3.657 7.199-7.777 7.199-4.324 0-7.799-3.479-7.799-7.803 0-4.324 3.475-7.801 7.799-7.801 2.162 0 4.108 0.8701 5.52 2.281a0.6 0.6 0 0 0 0.8477 0 0.6 0.6 0 0 0 0-0.8477c-1.628-1.627-3.882-2.633-6.367-2.633zm2e-3 1.801c-0.3324 0-0.5996 0.2672-0.5996 0.5996v5.4c0 0.3324 0.2672 0.6016 0.5996 0.6016 0.3324 0 0.5996-0.2692 0.5996-0.6016v-5.4c0-0.3324-0.2672-0.5996-0.5996-0.5996zm-6.6 6.6c-0.3324 0-0.5996 0.2672-0.5996 0.5996 0 0.3324 0.2672 0.5996 0.5996 0.5996h5.4c0.3324 0 0.6016-0.2672 0.6016-0.5996 0-0.3324-0.2692-0.5996-0.6016-0.5996zm6.6 1.199c-0.3324 0-0.5996 0.2672-0.5996 0.5996v5.4c0 0.3324 0.2672 0.5996 0.5996 0.5996 0.3324 0 0.5996-0.2672 0.5996-0.5996v-5.4c0-0.3324-0.2672-0.5996-0.5996-0.5996z"/>
  <path id="fg" d="m16 4a12 12 0 0 0-12 12 12 12 0 0 0 12 12 12 12 0 0 0 12-12 12 12 0 0 0-12-12zm-2e-3 3c2.485 0 4.74 1.006 6.368 2.633a0.6 0.6 0 0 1 0 0.8476 0.6 0.6 0 0 1-0.8476 0c-1.412-1.411-3.358-2.281-5.52-2.281-4.324 0-7.8 3.476-7.8 7.8 0 4.324 3.476 7.804 7.8 7.804 4.12 0 7.468-3.162 7.776-7.2h-6.576c-0.3324 0-0.5996-0.2672-0.5996-0.5996s0.2672-0.5996 0.5996-0.5996h7.192a0.6 0.6 0 0 1 0.0078-2e-3 0.6 0.6 0 0 1 0.1192 0.01368 0.6 0.6 0 0 1 0.1133 0.03516 0.6 0.6 0 0 1 0.09376 0.0508c0.0024 0.0016 0.0054 0.0023 0.0078 0.0039a0.6 0.6 0 0 1 0.0098 0.0078 0.6 0.6 0 0 1 0.07812 0.0664 0.6 0.6 0 0 1 0.0664 0.07812c0.0024 0.0034 0.0055 0.0063 0.0078 0.0098a0.6 0.6 0 0 1 0.0039 0.0078 0.6 0.6 0 0 1 0.04492 0.084c0.0016 0.0035 0.0044 0.0062 0.0058 0.0098a0.6 0.6 0 0 1 2e-3 0.0058 0.6 0.6 0 0 1 0.03124 0.0996c5.74e-4 0.0026 0.0014 0.0052 2e-3 0.0078a0.6 0.6 0 0 0 0 2e-3 0.6 0.6 0 0 1 0.01368 0.1172c0 4.968-4.032 9-9 9s-9-4.032-9-9 4.028-9 9-9zm2e-3 1.801c0.3324 0 0.5996 0.2672 0.5996 0.5996v5.4c0 0.3324-0.2672 0.6016-0.5996 0.6016s-0.5996-0.2692-0.5996-0.6016v-5.4c0-0.3324 0.2672-0.5996 0.5996-0.5996zm-6.6 6.6h5.4c0.3324 0 0.6016 0.2672 0.6016 0.5996 0 0.3324-0.2692 0.5996-0.6016 0.5996h-5.4c-0.3324 0-0.5996-0.2672-0.5996-0.5996s0.2672-0.5996 0.5996-0.5996zm6.6 1.199c0.3324 0 0.5996 0.2672 0.5996 0.5996v5.4c0 0.3324-0.2672 0.5996-0.5996 0.5996s-0.5996-0.2672-0.5996-0.5996v-5.4c0-0.3324 0.2672-0.5996 0.5996-0.5996z"/>
 </defs>
 <symbol id="color">
  <use href="#bg" fill="#333"/>
  <use href="#fg" fill="#f9f9f9"/>
 </symbol>
 <symbol id="light-white"><use href="#fg" fill="#fff"/></symbol>
 <symbol id="light-black"><use href="#fg"/></symbol>
 <symbol id="full-white"><use href="#bg" fill="#fff"/></symbol>
 <symbol id="full-black"><use href="#bg"/></symbol>
 <use id="main" href="#color"/>
</svg>