<?xml version="1.0" encoding="UTF-8"?>
<svg version="1.1" viewBox="0 0 32 32" xmlns="http://www.w3.org/2000/svg">
 <defs>
  <path id="bg" d="m16 0a16 16 0 0 0-16 16 16 16 0 0 0 16 16 16 16 0 0 0 16-16 16 16 0 0 0-16-16zm-1.092 6.506c0.969 0.01878 1.924 0.2515 2.797 0.6816 3.124 1.532 8.405 5.821 8.795 7.992 0.48 2.68-8.971 9.946-14.71 11.08-2.224 0.4372-4.121 0.5325-4.988-1.82-0.7512-2.043 0.7302-3.494 2.875-5.455 0.8928-0.8148 1.596-1.426 2.664-2.328 0.06-0.0616-5.163-1.87-5.328-3.932-0.172-2.116 3.188-6.014 7.484-6.217v0.003906c0.1388-0.00605 0.2776-0.008542 0.416-0.005859zm0.6777 3.713c-0.06981 4.01e-4 -0.138 0.003566-0.2051 0.009766-0.8976 0.0848-1.534 0.7543-1.607 2.072-0.0828 1.429 1.91 2.457 3.465 2.033 3.102-1.113 1.524-2.945 0-3.68-0.6097-0.2976-1.164-0.4384-1.652-0.4355z"/>
  <path id="fg" d="m14.49 6.508c-4.296 0.2032-7.656 4.1-7.484 6.216 0.1654 2.062 5.388 3.872 5.328 3.933-1.068 0.9024-1.772 1.512-2.664 2.327-2.145 1.961-3.626 3.413-2.875 5.456 0.8668 2.353 2.764 2.256 4.988 1.819 5.744-1.134 15.2-8.4 14.72-11.08-0.3898-2.171-5.672-6.46-8.796-7.992-0.9972-0.4916-2.102-0.724-3.212-0.6756zm0.888 3.72c0.5364-0.0496 1.162 0.08504 1.859 0.4252 1.524 0.7348 3.102 2.568 0 3.68-1.555 0.424-3.548-0.6048-3.465-2.034 0.07324-1.318 0.7088-1.987 1.606-2.072z"/>
 </defs>
 <symbol id="color">
  <use href="#bg" fill="#b410bb"/>
  <use href="#fg" fill="#fff"/>
 </symbol>
 <symbol id="light-white"><use href="#fg" fill="#fff"/></symbol>
 <symbol id="light-black"><use href="#fg"/></symbol>
 <symbol id="full-white"><use href="#bg" fill="#fff"/></symbol>
 <symbol id="full-black"><use href="#bg"/></symbol>
 <use id="main" href="#color"/>
</svg>