<?xml version="1.0" encoding="UTF-8"?>
<svg version="1.1" viewBox="0 0 32 32" xmlns="http://www.w3.org/2000/svg">
 <defs>
  <path id="bg" d="m32 16a16 16 0 0 1-16 16 16 16 0 0 1-16-16 16 16 0 0 1 16-16 16 16 0 0 1 16 16z"/>
  <path id="bg_b" d="m28 16a12 12 0 0 1-12 12 12 12 0 0 1-12-12 12 12 0 0 1 12-12 12 12 0 0 1 12 12z"/>
  <path id="fg" d="m17.76 10.72c-0.0598-0.1171-0.1818-0.2284-0.3896-0.3137l-4.54e-4 -2.27e-4 -6.65e-4 -2.27e-4c-0.432-0.185-0.6196-0.1982-0.8608-0.3551-0.3926-0.2523-0.7168-0.3408-0.9864-0.3396-0.1412 4.552e-4 -0.2673 0.02548-0.3803 0.06456-0.3285 0.113-0.5464 0.3487-0.6832 0.478l-2.29e-4 2.27e-4c0 2.27e-4 -2.25e-4 2.27e-4 -2.25e-4 4.54e-4 -0.02676 0.02548-0.06136 0.04864-0.145 0.11-0.08432 0.0616-0.2107 0.1544-0.3926 0.2907-0.1616 0.1212-0.2141 0.2789-0.1582 0.4636 0.05568 0.1848 0.2339 0.398 0.56 0.5824l4.54e-4 4.55e-4 6.65e-4 2.28e-4c0.2023 0.1189 0.3405 0.2791 0.4992 0.4068 0.07932 0.06364 0.1628 0.1205 0.2632 0.1634s0.2178 0.07204 0.3646 0.08068c0.3446 0.02 0.5984-0.08344 0.8224-0.2116 0.2244-0.128 0.4144-0.2846 0.6324-0.3553l4.55e-4 -2.28e-4 4.77e-4 -2.27e-4c0.4468-0.1396 0.7656-0.4208 0.8652-0.688 0.05-0.1337 0.04844-0.2605-0.01128-0.3776zm-1.352-5.265c-0.1253-2.344e-4 -0.2564 0.0067-0.3926 0.01758-3.038 0.2446-2.684 3.104-2.594 4.611 1.45e-4 0.0033-2.02e-4 0.0066 0 0.0098 0.0062 0.1521 0.01151 0.2745 0.01367 0.375 1.4e-5 0.0019-5e-6 0.0039 0 0.0059 0.0012 0.05356 1.46e-4 0.09089 0 0.1348-0.06316 0.8864-0.245 1.588-0.8535 2.455-0.0019 0.0026-4e-3 0.0051-0.0059 0.0078-0.7192 0.8556-1.73 2.239-2.209 3.68-0.2128 0.6396-0.3184 1.289-0.248 1.91-0.0031 0.0708-0.01019 0.1206-0.01953 0.1504-0.01936 0.01864-0.03828 0.03728-0.05664 0.05664-0.2111 0.2257-0.3671 0.4996-0.541 0.6836-0.1626 0.1623-0.3937 0.2233-0.6484 0.3145-0.2546 0.0914-0.5335 0.2252-0.7031 0.5508h-0.00195v2e-3c-0.0798 0.1489-0.1055 0.3098-0.1055 0.4727 0 0.1507 0.02244 0.3041 0.04492 0.4512 0.04684 0.306 0.09421 0.595 0.03125 0.791-0.2014 0.5508-0.2278 0.9306-0.08594 1.207 0.1423 0.2769 0.4352 0.3996 0.7656 0.4688 0.6604 0.1378 1.555 0.103 2.26 0.4766 0.7548 0.3946 1.52 0.5357 2.131 0.3965 0.4308-0.09816 0.78-0.3512 0.9688-0.7383 0.01676-0.01512 0.03769-0.02744 0.06445-0.03516 0.4652-0.01432 0.981-0.2034 1.793-0.248 0.5672-0.04576 1.276 0.1992 2.09 0.1562l0.0098 2e-3c0.02128 0.08844 0.05155 0.1729 0.09375 0.2539l2e-3 2e-3c0.3171 0.6344 0.9052 0.9246 1.533 0.875 0.6288-0.04956 1.297-0.4197 1.838-1.062l-0.01172-0.01172 0.01367 0.0098c0.5152-0.6244 1.369-0.883 1.936-1.225 0.2834-0.1709 0.5132-0.3862 0.5312-0.6973 0.01772-0.3107-0.1645-0.6574-0.584-1.123v-2e-3c-0.138-0.1557-0.2047-0.4444-0.2754-0.752-0.07048-0.3073-0.148-0.6383-0.4004-0.8535l-2e-3 -2e-3c-0.05-0.04364-0.1007-0.07865-0.1523-0.1094-0.03796-0.02248-0.0768-0.04203-0.1152-0.05859-0.0035-0.0035-0.0085-0.0063-0.01172-0.0098-0.0024-0.0026-0.0075-0.0053-0.0098-0.0078-0.0058-0.0074-0.0072-0.01604-0.0098-0.02344-5.87e-4 -0.0021-9.06e-4 -0.0038-2e-3 -0.0059 0.3384-1.03 0.2004-2.056-0.1504-2.982-0.434-1.149-1.192-2.15-1.771-2.834-0.5604-0.7072-1.109-1.384-1.24-2.295-0.0106-0.1452-0.01926-0.3854-0.02734-0.7188 0.02484-1.792 0.04388-4.725-2.891-4.729zm0.4121 2.697h0.0078c0.1746 0 0.3231 0.0529 0.4766 0.1641 0.1557 0.1131 0.2689 0.2534 0.3594 0.4512 0.08868 0.1928 0.1306 0.382 0.1348 0.6055 0 0.00588 2.53e-4 0.00971 2e-3 0.01562 0.0019 0.2295-0.03597 0.4237-0.123 0.623-0.0496 0.1136-0.1073 0.2102-0.1758 0.293-0.04045 0.03441-0.04762 0.05153-0.1289 0.1016 0.2067 0.08515 0.3271 0.1977 0.3867 0.3145 0.05972 0.1171 0.06172 0.2433 0.01172 0.377-0.05299 0.1422-0.1707 0.2855-0.334 0.4121 0.2779 0.1987 0.4856 0.483 0.5723 0.8652 0.2637 1.162 0.7663 1.807 1.205 2.623 0.2334 0.4328 0.698 1.353 0.8984 2.461 0.09604 0.468-0.3663 0.3877-0.5098 0.8809-0.0064 0.03476-0.01167 0.0715-0.01563 0.1074-0.05592 0.01956-0.1116 0.04354-0.168 0.07422-0.3503 0.1918-0.542 0.54-0.6484 0.9668-0.1062 0.4264-0.1369 0.9399-0.166 1.52v2e-3c-0.01804 0.2912-0.1364 0.684-0.2578 1.102-1.222 0.872-2.921 1.251-4.361 0.2676-0.09752-0.1544-0.209-0.3079-0.3242-0.459-0.07364-0.09636-0.1496-0.1926-0.2246-0.2871 0.1478 2.27e-4 0.2734-0.02252 0.375-0.06836 0.1264-0.05752 0.2157-0.1494 0.2598-0.2676 0.08772-0.2362-6.7e-5 -0.5708-0.2812-0.9512-0.2812-0.3805-0.7574-0.8091-1.457-1.238-0.2103-0.1426-0.337-0.4808-0.3438-0.8008 0.02224-0.7876 0.2116-1.59 0.5273-2.342 0.46-1.042 1.387-1.992 1.439-3.434 0.01124-0.3097 0.1697-0.5789 0.416-0.7969-0.01665-0.01089-0.03127-0.02289-0.04883-0.0332h-2e-3c-0.3261-0.1844-0.5049-0.3972-0.5605-0.582-0.05588-0.1847-0.0034-0.3437 0.1582-0.4648 0.1558-0.1168 0.2531-0.1874 0.3359-0.248-0.04705-0.01944-0.09362-0.04582-0.1367-0.08008-0.09116-0.08548-0.1623-0.1904-0.2246-0.332-0.07364-0.1673-0.1132-0.3354-0.125-0.5332v-0.00195c-0.011-0.1979 0.0081-0.367 0.0625-0.543 0.05456-0.176 0.1267-0.3036 0.2324-0.4082 0.1055-0.1048 0.2136-0.1594 0.3418-0.166 0.01-4.72e-4 0.0193 0 0.0293 0 0.1162 2e-4 0.2189 0.03932 0.3262 0.125 0.1164 0.09296 0.2057 0.2114 0.2793 0.3789 0.07388 0.1676 0.1121 0.3354 0.123 0.5332v0.00195c0.0051 0.08296 0.0066 0.1606 0 0.2363-0.0088 0.05632-0.02111 0.1115-0.03711 0.1641 0.0053-0.00189 0.01031-0.00403 0.01563-0.00586 0.113-0.03908 0.2377-0.064 0.3789-0.06445 0.1208-5.196e-4 0.2545 0.02039 0.3984 0.0625-0.01849-0.05165-0.03459-0.1037-0.04297-0.1621-8e-3 -0.05976-0.01237-0.1229-0.01367-0.1875v-0.01758c-0.0025-0.2288 0.03509-0.4239 0.123-0.623 0.08796-0.1994 0.1964-0.3424 0.3496-0.459 0.1534-0.1164 0.306-0.1701 0.4844-0.1719zm-0.9004 1.621c0.03294 0.09203 0.07522 0.179 0.1074 0.2715 0.8208 0.257 0.2917 0.3633 1.344 0.3633 0.0011-6.98e-4 8.39e-4 -0.0013 2e-3 -2e-3 -5.87e-4 -2.42e-4 -0.0014 2.41e-4 -2e-3 0h-2e-3c-0.2411-0.1033-0.4043-0.154-0.5449-0.2051-0.1096 0.01562-0.2213-0.03191-0.3086-0.1465-0.0026-0.0017-0.0052-0.0022-0.0078-0.0039-0.2167-0.1393-0.4105-0.2254-0.5879-0.2773zm0.5957 0.2812c0.1035 0.06627 0.2 0.1071 0.3086 0.1465 0.1884-0.02685 0.3699-0.2348 0.4121-0.5898 1e-3 -0.00816 0.0016-0.01623 2e-3 -0.02539 0.0026-0.1205-0.01176-0.2246-0.04687-0.3301-0.0368-0.1107-0.08462-0.1897-0.1523-0.2559-0.06796-0.06612-0.1335-0.09687-0.2148-0.09961-0.0039-2.272e-4 -0.0098 0-0.01367 0-0.07636 2.4e-4 -0.1403 0.0267-0.209 0.08398-0.07204 0.06024-0.1274 0.1388-0.1719 0.2461-0.04436 0.1073-0.06601 0.2115-0.07031 0.3379 5e-4 0.01368-7.47e-4 0.02793 2e-3 0.04297 0.02278 0.2011 0.08004 0.3459 0.1543 0.4434zm-1.389-0.2734c-0.3196 0.115-0.5334 0.3455-0.668 0.4727-0.02676 0.02548-0.0628 0.04993-0.1465 0.1113-0.0121 0.0088-0.04278 0.03086-0.05664 0.04102 0.05763 0.02381 0.1164 0.03687 0.1758 0.03711 0.2772 0.0011 0.5772-0.2738 0.6953-0.6621zm-0.7539 1.953c0.1752 0.1146 0.3043 0.2584 0.4492 0.375 0.07932 0.06364 0.1632 0.1191 0.2637 0.1621 0.1005 0.04296 0.2184 0.07339 0.3652 0.08203 0.3446 0.02 0.5983-0.08469 0.8223-0.2129 0.2244-0.128 0.4129-0.2848 0.6309-0.3555h2e-3c0.2091-0.06531 0.3876-0.164 0.5312-0.2754-0.3399-0.243-0.7848-0.358-1.242-0.3672-0.6813-0.01364-1.389 0.2086-1.822 0.5918zm0.05273-2.691c-0.0051 0-0.0083 0.00153-0.01367 0.00195-0.05864 5e-3 -0.1082 0.03368-0.1543 0.08984-0.04592 0.05592-0.07586 0.1245-0.09766 0.2168-0.02194 0.09204-0.02863 0.1832-0.01953 0.2871v0.01172c0.0099 0.1007 0.03057 0.185 0.06641 0.2695 0.0368 0.08704 0.07477 0.1537 0.1348 0.1953 0.1126 0.078 0.3545 0.05061 0.4336-0.3223 0.01392-0.0656 0.01021-0.1487 0.0039-0.209-7e-4 -0.00408-2e-3 -0.00764-2e-3 -0.01172-0.01-0.09976-0.02933-0.183-0.06445-0.2676-0.03752-0.08796-0.08148-0.1515-0.1367-0.1992-0.05-0.0432-0.09807-0.06296-0.1504-0.0625zm5.154 9.689c0.0308 0.5008 0.2784 1.013 0.7168 1.123 0.4796 0.1264 1.171-0.2853 1.463-0.6211 0.0584-0.0022 0.1146-0.0064 0.1699-0.0078 0.256-0.0062 0.4718 0.0093 0.6914 0.2012v2e-3c0.1687 0.1432 0.2508 0.4125 0.3203 0.7148 0.0696 0.3024 0.1234 0.6324 0.332 0.8672 0.4012 0.4448 0.5326 0.7454 0.5215 0.9375-0.01112 0.192-0.1516 0.3337-0.4082 0.4883-0.5128 0.3096-1.422 0.578-2.002 1.281-0.504 0.6-1.119 0.9319-1.66 0.9746-0.5412 0.0424-1.008-0.1835-1.283-0.7363h-2e-3v-2e-3c-0.171-0.3252-0.101-0.8381 0.04297-1.379 0.1439-0.5408 0.3512-1.096 0.3789-1.547v-2e-3c0.029-0.5784 0.06116-1.083 0.1582-1.473 0.0972-0.3896 0.2505-0.6543 0.5215-0.8027 0.01264-0.0068 0.02646-0.01333 0.03906-0.01953zm-8.812 0.03711v2e-3c0.0026 2.49e-4 0.0049 2.49e-4 0.0078 0 0.04048 2e-4 0.08538 0.0027 0.1309 0.0098 0.3068 0.0464 0.5743 0.2598 0.832 0.6094l0.7441 1.357c0.198 0.4132 0.6163 0.87 0.9707 1.334 0.3546 0.4636 0.6275 0.9287 0.5918 1.285v0.0039c-0.0464 0.608-0.3896 0.9384-0.916 1.059-0.526 0.1203-1.239 0.0015-1.951-0.3711v-2e-3c-0.7884-0.4176-1.727-0.3763-2.328-0.502-0.3006-0.06276-0.4979-0.1566-0.5879-0.332-0.09-0.176-0.09179-0.4819 0.09961-1.004l0.00195-2e-3v-2e-3c0.09476-0.292 0.02444-0.6121-0.02148-0.9121-0.04592-0.3-0.06736-0.5736 0.03516-0.7637v-2e-3c0.1312-0.2527 0.3238-0.3423 0.5625-0.4277 0.2388-0.08572 0.5227-0.1528 0.7461-0.377l0.00195-2e-3c0.2064-0.218 0.3613-0.4916 0.543-0.6855 0.153-0.1636 0.3059-0.2738 0.5371-0.2754z"/>
  <path id="fg_y" d="m15.52 9.707c-0.1412 4.552e-4 -0.2659 0.02537-0.3789 0.06445-0.3285 0.113-0.5468 0.3492-0.6836 0.4785-0.02676 0.02548-0.0628 0.04993-0.1465 0.1113-0.08432 0.0616-0.2107 0.1527-0.3926 0.2891-0.1616 0.1212-0.2141 0.2802-0.1582 0.4648 0.05568 0.1848 0.2344 0.3977 0.5605 0.582h0.001953c0.2023 0.1189 0.3394 0.2805 0.498 0.4082 0.07932 0.06364 0.1632 0.1191 0.2637 0.1621 0.1005 0.04296 0.2184 0.07339 0.3652 0.08203 0.3446 0.02 0.5983-0.08469 0.8223-0.2129 0.2244-0.128 0.4129-0.2848 0.6309-0.3555h0.001953c0.4468-0.1396 0.7656-0.4203 0.8652-0.6875 0.05-0.1337 0.048-0.2599-0.01172-0.377-0.0598-0.1171-0.1809-0.2292-0.3887-0.3145h-0.001953c-0.432-0.185-0.6201-0.1986-0.8613-0.3555-0.3926-0.2523-0.7167-0.341-0.9863-0.3398zm4.059 9.021c-0.0126 0.0062-0.02642 0.01269-0.03906 0.01953-0.271 0.1484-0.4243 0.4131-0.5215 0.8027-0.09704 0.3898-0.1292 0.8943-0.1582 1.473v0.001953c-0.02772 0.4512-0.235 1.006-0.3789 1.547-0.1439 0.5408-0.2139 1.054-0.04297 1.379v0.001953h0.001953c0.2755 0.5528 0.742 0.7787 1.283 0.7363 0.5412-0.04272 1.156-0.3746 1.66-0.9746 0.5804-0.7032 1.489-0.9717 2.002-1.281 0.2566-0.1546 0.3971-0.2963 0.4082-0.4883 0.01112-0.1921-0.1203-0.4927-0.5215-0.9375-0.2087-0.2348-0.2624-0.5648-0.332-0.8672-0.06956-0.3023-0.1516-0.5716-0.3203-0.7148v-0.001953c-0.2196-0.1919-0.4354-0.2073-0.6914-0.2012-0.05528 0.0014-0.1115 0.005613-0.1699 0.007813-0.2919 0.3358-0.9833 0.7475-1.463 0.6211-0.4384-0.1104-0.686-0.6222-0.7168-1.123zm-8.812 0.03711c-0.2312 0.0016-0.3841 0.1118-0.5371 0.2754-0.1816 0.1939-0.3365 0.4675-0.543 0.6855l-0.001953 0.001954c-0.2234 0.2242-0.5073 0.2912-0.7461 0.377-0.2387 0.08548-0.4313 0.175-0.5625 0.4277v0.001953c-0.1025 0.1901-0.08108 0.4637-0.03516 0.7637 0.04592 0.3 0.1162 0.6201 0.02148 0.9121v0.001953l-0.001953 0.001953c-0.1914 0.522-0.1896 0.8279-0.09961 1.004 0.09 0.1755 0.2873 0.2693 0.5879 0.332 0.6016 0.1257 1.54 0.08435 2.328 0.502v0.001954c0.7124 0.3726 1.425 0.4914 1.951 0.3711 0.5264-0.1202 0.8696-0.4506 0.916-1.059v-0.003907c0.03568-0.3564-0.2372-0.8216-0.5918-1.285-0.3544-0.464-0.7727-0.9208-0.9707-1.334l-0.7441-1.357c-0.2578-0.3496-0.5252-0.563-0.832-0.6094-0.04548-0.0071-0.09038-0.009566-0.1309-0.009766-0.0029 2.49e-4 -0.005213 2.49e-4 -0.007813 0v-0.001953z"/>
 </defs>
 <symbol id="color">
  <use href="#bg" fill="#55d4ff"/>
  <use href="#bg_b" fill="#fff"/>
  <use href="#fg"/>
  <use href="#fg_y" fill="#fb0"/>
 </symbol>
 <symbol id="light-white"><use href="#fg" fill="#fff"/></symbol>
 <symbol id="light-black"><use href="#fg"/></symbol>
 <symbol id="full-white"><use href="#bg" fill="#fff"/></symbol>
 <symbol id="full-black"><use href="#bg"/></symbol>
 <use id="main" href="#color"/>
</svg>