<?xml version="1.0" encoding="UTF-8"?>
<svg version="1.1" viewBox="0 0 32 32" xmlns="http://www.w3.org/2000/svg">
 <defs>
  <path id="bg" d="m16 0a16 16 0 0 0-16 16 16 16 0 0 0 16 16 16 16 0 0 0 16-16 16 16 0 0 0-16-16zm-0.007812 4.984a11 11 0 0 1 7.777 3.225 11 11 0 0 1 0 15.56l0.003907 0.001953a11 11 0 0 1-7.777 3.221l0.001953-4.123a6.874 6.874 0 0 0 4.859-2.012l-0.007813-0.007813a6.874 6.874 0 0 0 0-9.721 6.874 6.874 0 0 0-9.721 0l-2.916-2.916a11 11 0 0 1 7.779-3.225zm-7.779 3.23 2.916 2.916a6.874 6.874 0 0 0-2.014 4.861h0.001953a6.874 6.874 0 0 0 0.7539 3.102c2.84-2.276 5.695-4.289 6.559-4.551 0.0883-0.02649 0.1575-0.0339 0.2012-0.02148 0.3606 0.3142-1.92 3.856-4.412 7.201a6.874 6.874 0 0 0 3.773 1.145v4.123a11 11 0 0 1-6.33-2.016c-0.1277 0.152-0.2572 0.3079-0.3809 0.4512-3.068 3.556-6.946 0.3677-3.785-2.549 0.3599-0.3452 0.7562-0.7074 1.168-1.076a11 11 0 0 1-1.67-5.809h-0.001953a11 11 0 0 1 3.221-7.777z"/>
  <path id="fg" d="m15.99 4.984a11 11 0 0 0-7.779 3.225l2.916 2.916a6.874 6.874 0 0 1 9.721 0 6.874 6.874 0 0 1 0 9.721l0.0078 0.0078a6.874 6.874 0 0 1-4.859 2.012l-2e-3 4.123a11 11 0 0 0 7.777-3.221l-0.0039-2e-3a11 11 0 0 0 0-15.56 11 11 0 0 0-7.777-3.225zm-7.779 3.23a11 11 0 0 0-3.221 7.777h0.00195a11 11 0 0 0 1.67 5.809c-0.4118 0.3688-0.8081 0.731-1.168 1.076-3.16 2.916 0.7167 6.105 3.785 2.549 0.1237-0.1432 0.2531-0.2992 0.3809-0.4512a11 11 0 0 0 6.33 2.016v-4.123a6.874 6.874 0 0 1-3.773-1.145c2.492-3.345 4.773-6.887 4.412-7.201-0.04365-0.01242-0.1129-5e-3 -0.2012 0.02149-0.8631 0.2614-3.719 2.274-6.559 4.551a6.874 6.874 0 0 1-0.7539-3.102h-0.00195a6.874 6.874 0 0 1 2.014-4.861z"/>
  <path id="dsk_c" d="m4.994 15.99a11 11 0 0 0 3.22 7.779 11 11 0 0 0 0.01504 0.01448 11 11 0 0 0 7.762 3.206v-4.124a6.874 6.874 0 0 1-4.828-1.98 6.874 6.874 0 0 1-0.03275-0.03278 6.874 6.874 0 0 1-2.013-4.861z" opacity=".5"/>
  <path id="dsk_g" d="m23.77 23.77a11 11 0 0 0 0-15.56 11 11 0 0 0-15.56-1.2e-6l2.916 2.916a6.874 6.874 0 0 1 9.721 1e-6 6.874 6.874 0 0 1 0 9.721z" opacity=".5"/>
  <path id="dsk_r" d="m16 26.99a11 11 0 0 0 7.777-3.22l-2.916-2.916a6.874 6.874 0 0 1-4.86 2.013z"  opacity=".3"/>
  <path id="dsk_o" d="m4.992 15.99a11 11 0 0 1 3.22-7.777l2.916 2.916a6.874 6.874 0 0 0-2.013 4.86z" opacity=".3"/>
  <path id="hd_a" d="m16.43 14.54c-1.34 0.4034-7.51 5.05-10.94 8.335-3.16 2.916 0.715 6.105 3.784 2.549 3.186-3.69 7.855-10.46 7.35-10.9-0.044-0.01252-0.1121-0.0045-0.2014 0.02248z"/>
  <path id="hd_b" d="m7.097 25.07a0.8165 0.8165 0 0 1-0.8165 0.8165 0.8165 0.8165 0 0 1-0.8165-0.8165 0.8165 0.8165 0 0 1 0.8165-0.8165 0.8165 0.8165 0 0 1 0.8165 0.8165z"/>
 </defs>
 <symbol id="color">
  <use href="#bg" fill="#333"/>
  <use href="#fg" fill="#fff"/>
  <use href="#dsk_c" fill="#0ff"/>
  <use href="#dsk_g" fill="#0f0"/>
  <use href="#dsk_r" fill="#d40000"/>
  <use href="#dsk_o" fill="#ff7500"/>
  <use href="#hd_a" fill="#f9f9f9"/>
  <use href="#hd_b" fill="#b8b8b8"/>
 </symbol>
 <symbol id="light-white"><use href="#fg" fill="#fff"/></symbol>
 <symbol id="light-black"><use href="#fg"/></symbol>
 <symbol id="full-white"><use href="#bg" fill="#fff"/></symbol>
 <symbol id="full-black"><use href="#bg"/></symbol>
 <use id="main" href="#color"/>
</svg>