<?xml version="1.0" encoding="UTF-8"?>
<svg version="1.1" viewBox="0 0 32 32" xmlns="http://www.w3.org/2000/svg">
 <defs>
  <radialGradient id="grad_col" cx="0" cy="0" r="64" gradientTransform="matrix(.4192 -.07382 .02504 .1423 14.4 13.75)" gradientUnits="userSpaceOnUse">
   <stop stop-color="#2a8423" offset="0"/>
   <stop stop-color="#a9ff00" offset="1"/>
  </radialGradient>
  <linearGradient id="grad_r" x1="79.53" x2="176.7" y1="-125.9" y2="-25.68" gradientTransform="matrix(.3616 0 0 .3616 4.498 4.765)" gradientUnits="userSpaceOnUse">
   <stop stop-color="#8d8d8d" offset="0"/>
   <stop stop-color="#fff" offset="1"/>
  </linearGradient>
  <linearGradient id="grad_f" x1="-75.08" x2="-66.89" y1="57.64" y2="-9.19" gradientTransform="matrix(.3616 0 0 .3616 4.498 4.765)" gradientUnits="userSpaceOnUse">
   <stop stop-color="#c0c0c0" offset="0"/>
   <stop stop-color="#fff" offset="1"/>
  </linearGradient>
  <linearGradient id="grad_t" x1="10.71" x2="56.88" y1="-51.22" y2="-1.04" gradientTransform="matrix(.3616 0 0 .3616 4.498 4.765)" gradientUnits="userSpaceOnUse">
   <stop stop-color="#6a6a6a" offset="0"/>
   <stop stop-color="#fff" offset="1"/>
  </linearGradient>
  <path id="bg" d="m15.76 0.001953a16 16 0 0 0 0 32 16 16 0 1 0 0-32zm-4.301 5.43h2e-3l2.506 0.5742-1.832 1.078-1.662-0.3086 1.666 0.3105v-0.00195l1.832-1.078v8.387c0.581-0.1233 1.508-0.5181 1.889-0.6035 0.3077-0.07133 0.6193-0.1383 0.9316-0.2031v-5.205h-0.0039l2.17-1.086 2.895 0.7246h2e-3v5.328c1.045 0.1844 2.121 0.5179 2.988 1.043-0.406 0.095-1.04 0.3914-1.529 0.9727-0.2601-0.0516-0.5086-0.1394-0.7539-0.2598 0.0592 0.2372 0.08308 0.4039 0.3301 0.6348-0.3251 0.2749-0.6839 0.5702-1.037 0.8574v8.051l-1.818 1.688v2e-3l-3.242-1.324v-5.766c-0.6498 0.04679-1.398-0.1533-2.236-0.9043 0.0797 0.2798 0.1766 0.6212 0.4629 0.9453-0.3535-0.01464-0.7032-0.05633-1.047-0.123v1.943l-1.672 1.717-2.811-1.453v-5.262c-0.07402-0.1016-0.1482-0.2015-0.2207-0.3086-2.362-0.373-4.357-1.572-4.357-1.572l0.1719-0.8086s1.688 1.374 3.99 1.859c0.1412-0.08011 0.2793-0.1519 0.416-0.2207v-8.467h-0.00391zm6.514 3.213 2.072 0.4609v-0.00195h-2e-3z"/>
  <path id="fg" d="m11.46 5.432-1.975 1.16h0.00391v8.467c-0.1367 0.06879-0.2749 0.1406-0.416 0.2207-2.302-0.4856-3.99-1.859-3.99-1.859l-0.1719 0.8086s1.995 1.199 4.357 1.572c0.07254 0.1071 0.1467 0.207 0.2207 0.3086v5.262l2.811 1.453 1.672-1.717v-1.943c0.3437 0.06672 0.6934 0.1084 1.047 0.123-0.2863-0.3241-0.3832-0.6655-0.4629-0.9453 0.838 0.751 1.586 0.9511 2.236 0.9043v5.766l3.242 1.324v-2e-3l1.818-1.688v-8.051c0.3532-0.2872 0.7121-0.5825 1.037-0.8574-0.247-0.2309-0.2709-0.3976-0.3301-0.6348 0.2453 0.1204 0.4938 0.2082 0.7539 0.2598 0.4891-0.5813 1.123-0.8777 1.529-0.9727-0.8676-0.525-1.943-0.8585-2.988-1.043v-5.328h-2e-3l-2.894-0.7246-2.17 1.086h0.0039v5.205c-0.3123 0.06478-0.6239 0.1318-0.9316 0.2031-0.3803 0.08543-1.308 0.4802-1.889 0.6035v-8.387l-1.832 1.078v0.00195l-1.666-0.3105 1.662 0.3086 1.832-1.078-2.506-0.5742zm6.514 3.213 2.07 0.459h2e-3v0.00195z"/>
  <path id="sha" d="m12.45 20.31v3.254h3.616l3.977 3.616h5.785l1.808-2.169-2.169-1.446h-2.892l-6.508-3.254z" fill-opacity=".5"/>
  <path id="fg_f" d="m9.488 6.592v14.78l2.811 1.453-0.1602-15.74zm7.303 1.789v16.63l3.243 1.325 0.01051-17.23z"/>
  <path id="fg_r" d="m13.97 6.006-1.832 1.078 0.1602 15.74 1.672-1.717zm7.883 2.014-1.809 1.084-0.01051 17.23 1.819-1.687z"/>
  <path id="fg_t" d="m11.46 5.432-1.975 1.16 2.65 0.4922 1.832-1.078-2.508-0.5742zm7.498 1.863-2.17 1.086 3.254 0.7227 1.809-1.084-2.893-0.7246z"/>
  <path id="out" d="m11.36 4.74-2.518 1.479v8.379c-2.093-0.5546-3.629-1.82-3.629-1.82l-0.5391-0.459-0.4082 1.824 0.2559 0.1602s1.94 1.196 4.32 1.682v5.785l3.615 1.797 2.168-2.193v-1.633c0.1235 0.01341 0.2466 0.02617 0.3711 0.0332l0.9922 0.05664-0.2266-0.2676c0.1047 0.03499 0.208 0.06284 0.3105 0.08789v5.586l4.049 2.023 2.459-2.459v-8.033c0.2756-0.2246 0.5529-0.4534 0.8047-0.6641l0.2949-0.2461 0.0293 0.0059 0.166-0.1953c0.4355-0.5122 1.024-0.7746 1.344-0.8457l1.008-0.2246-0.8711-0.5527c-0.8272-0.5247-1.803-0.8777-2.775-1.102v-5.576l-3.674-0.8164-2.834 1.619v5.014c-0.07065 0.01527-0.1426 0.02942-0.2129 0.04492-0.2791 0.05969-0.6294 0.1938-1.014 0.3262-0.07484 0.02578-0.1456 0.04751-0.2207 0.07226v-8.141zm0.1074 0.6914 2.508 0.5742v7.812c-0.0508 0.01155-0.1028 0.02344-0.1426 0.0293l-0.07617 0.01172 2e-3 -0.0098-0.5352-0.03711c-1.54-0.1087-2.63 0.08576-3.73 0.582v-7.803zm7.557 1.885 2.834 0.6309v4.854c-0.5964-0.09909-1.178-0.1546-1.705-0.166l-0.1113-2e-3 -0.09766 0.05274c-0.04989 0.02652-0.06004 0.08103-0.1055 0.1113l0.08594-0.168-0.7598 0.06055c-0.8027 0.06457-1.594 0.1934-2.369 0.3457v-4.445zm1.258 6.191c1.227 0.04428 2.707 0.3903 3.941 0.9844-0.2435 0.1303-0.4623 0.218-0.7012 0.4395-0.1825-0.04931-0.3623-0.1059-0.543-0.1992l-0.8223-0.4238 0.2109 0.9004c0.02669 0.1146 0.1579 0.2851 0.2246 0.4375-0.521 0.4324-1.1 0.9092-1.562 1.262h-2e-3c-0.2946 0.2263-0.816 0.3873-1.303 0.6348-0.5233-0.115-0.9133-0.1814-1.451-0.3867l-1.018-0.3887 0.4824 0.9766c0.16 0.324 0.3382 0.4696 0.5078 0.6152-0.3493 0.1928-0.6792 0.4102-1.09 0.5-0.6416 0.1403-1.355 0.07374-2.305-0.8145l-1.088-1.02 0.3848 1.441c0.01426 0.05334 0.08156 0.1501 0.09961 0.2129-1.741-0.3134-3.351-1.188-4.703-3.273l-0.2734 0.3906c-0.03235-0.0051-0.0636-0.01213-0.0957-0.01758l0.06641-0.3301c1.102-0.6088 2.039-0.8056 3.436-0.7656-0.02271 0.1529-0.06171 0.3312-0.08594 0.4629l0.416 0.1914c-3.21e-4 0.0019 3.32e-4 4e-3 0 0.0059 0.0011-0.0014 0.0028-0.0025 0.0039-0.0039l0.332 0.1523c0.222-0.2744 0.4876-0.5575 0.7852-0.8496 0.3185-0.06551 0.6581-0.1635 0.9941-0.2793 0.3942-0.1358 0.7801-0.2718 0.916-0.3008h4e-3c0.8509-0.1875 1.716-0.3184 2.578-0.4219-0.08983 0.4765-0.08299 0.9319 0.08789 1.314l0.4004 0.9004 0.3828-0.9082c0.1883-0.4482 0.3082-0.8016 0.4297-1.041 0.1036-0.2042 0.2094-0.301 0.3594-0.3984zm-10.79 3.213c1.303 1.64 2.835 2.581 4.482 2.918v1.471l-1.672 1.717-2.811-1.453zm12.37 0.6211v7.158l-1.819 1.837-3.243-1.548v-5.043c0.1892 0.0018 0.3709-0.01511 0.543-0.05273 0.8671-0.1896 1.534-0.6862 1.867-0.834l0.5-0.2207-0.2148-0.2754c0.06036 0.01317 0.1208 0.03466 0.1836 0.04883l0.1641 0.03711 0.1445-0.08398c0.3669-0.2136 1.016-0.3584 1.564-0.7793v2e-3c0.09479-0.07231 0.2085-0.1661 0.3105-0.2461z"/>
  <path id="fg_col" d="m9.268 15.8c1.615 2.384 3.6 3.399 5.749 3.488-0.2863-0.3241-0.3822-0.6666-0.4619-0.9464 2.032 1.821 3.544 0.4218 4.375 0.04517-0.2044-0.2514-0.5371-0.1619-0.9025-0.8672 0.6135 0.2206 1.033 0.2809 1.617 0.4021 0.4415-0.2611 1.05-0.4101 1.477-0.742 0.5281-0.4077 1.208-0.9692 1.767-1.442-0.247-0.2309-0.2706-0.397-0.3298-0.6342 0.2453 0.1204 0.4934 0.2076 0.7535 0.2592 0.4891-0.5813 1.124-0.877 1.53-0.972-1.421-0.8599-3.4-1.213-4.889-1.223-0.5607 0.3033-0.6575 0.8332-1.002 1.67-0.2122-0.4522-0.2406-0.9709 0.07778-1.606-1.072 0.1003-2.135 0.3169-3.169 0.5566-0.405 0.09098-1.437 0.5387-2.003 0.6291-0.327 0.3195-0.6091 0.6275-0.8522 0.9312 0.05478-0.3144 0.07224-0.6326 0.1661-0.9514-1.779-0.09809-2.821 0.157-4.099 0.8823-2.302-0.4856-3.989-1.86-3.989-1.86l-0.1738 0.8099s2 1.2 4.365 1.572z"/>
 </defs>
 <symbol id="color">
  <use href="#bg" fill="#f9f9f9"/>
  <use href="#sha" fill="#010101"/>
  <use href="#fg_f" fill="url(#grad_f)"/>
  <use href="#fg_r" fill="url(#grad_r)"/>
  <use href="#fg_t" fill="url(#grad_t)"/>
  <use href="#out" fill="#040e0b"/>
  <use href="#fg_col" fill="url(#grad_col)"/>
 </symbol>
 <symbol id="light-white"><use href="#fg" fill="#fff"/></symbol>
 <symbol id="light-black"><use href="#fg"/></symbol>
 <symbol id="full-white"><use href="#bg" fill="#fff"/></symbol>
 <symbol id="full-black"><use href="#bg"/></symbol>
 <use id="main" href="#color"/>
</svg>