<?xml version="1.0" encoding="UTF-8"?>
<svg version="1.1" viewBox="0 0 32 32" xmlns="http://www.w3.org/2000/svg">
 <defs>
  <path id="bg" d="m16 0c-8.836 0-16 7.164-16 16 0 8.836 7.164 16 16 16 8.836 0 16-7.164 16-16 0-8.836-7.164-16-16-16zm-0.001953 8h0.001953c2.498 0.001062 4.521 2.025 4.521 4.523 0 0.9948-0.4064 1.899-1.051 2.543l-1.02 1.041c-0.8144 0.8252-1.322 1.503-1.322 3.199h-2.262v-0.5645c-1e-6 -1.244 0.5122-2.376 1.326-3.201l1.402-1.424c0.4183-0.4068 0.666-0.9718 0.666-1.594 0-1.244-1.018-2.262-2.262-2.262-1.244 0-2.262 1.018-2.262 2.262h-2.262c0-2.499 2.024-4.522 4.521-4.523zm-0.01758 13.17a1.414 1.414 0 0 1 0.01953 0 1.414 1.414 0 0 1 1.414 1.412 1.414 1.414 0 0 1-1.414 1.414 1.414 1.414 0 0 1-1.412-1.414 1.414 1.414 0 0 1 1.393-1.412z"/>
  <path id="fg" d="m16 8c-2.499 0-4.524 2.024-4.524 4.524h2.262c0-1.244 1.018-2.262 2.262-2.262 1.244 0 2.262 1.018 2.262 2.262 0 0.622-0.2477 1.187-0.666 1.594l-1.402 1.424c-0.814 0.8256-1.324 1.957-1.324 3.201v0.5644h2.262c0-1.696 0.508-2.374 1.322-3.199l1.02-1.041c0.6444-0.6444 1.051-1.548 1.051-2.543 0-2.499-2.025-4.524-4.524-4.524zm-0.01956 13.17a1.414 1.414 0 0 0-1.392 1.412 1.414 1.414 0 0 0 1.412 1.414 1.414 1.414 0 0 0 1.414-1.414 1.414 1.414 0 0 0-1.414-1.412 1.414 1.414 0 0 0-0.01956 0z"/>
 </defs>
 <symbol id="color">
  <use href="#bg" fill="#4d4d4d"/>
  <use href="#fg" fill="#fff"/>
 </symbol>
 <symbol id="light-white"><use href="#fg" fill="#fff"/></symbol>
 <symbol id="light-black"><use href="#fg"/></symbol>
 <symbol id="full-white"><use href="#bg" fill="#fff"/></symbol>
 <symbol id="full-black"><use href="#bg"/></symbol>
 <use id="main" href="#color"/>
</svg>