<?xml version="1.0" encoding="UTF-8"?>
<svg version="1.1" viewBox="0 0 32 32" xmlns="http://www.w3.org/2000/svg">
 <defs>
  <path id="bg" d="m16 0a16 16 0 0 0 0 32 16 16 0 0 0 0-32zm-1.451 5.461c9.87e-4 0.002639 0.002919 0.005172 0.003906 0.007812 1.239 1.594 2.377 3.481 4.129 4.533-1.057-0.9872-1.937-2.767-2.34-4.209 3.232 5.205 4.089 3.257 7.305 8.857-0.1544 0-0.3064-0.01332-0.4453 0.04492-0.114 1.214 1.325 2.08 2.281 2.49-0.3068 1.225-1.238 2.099-2.459 2.412 1.404-2.064-2.157-3.801-3.154-4.549-0.5264-0.3944-1.09-1.307-1.484-1.807a6.108 6.108 0 0 0-6.752-2.119c-2.84 0.912-3.382 4.525 0.6504 7.199 0.216 0.1432 4.909 2.317 5.939 3.23 1.241 1.099 2.312 2.697 2.133 4.959-0.576-5.806-7.138-5.12-11.13-9.035a1.115 1.115 0 0 0-0.5781 0.6484c-0.1297-0.5264-0.164-1.502-0.5156-2.1-0.3676 0.1278-0.7235 0.2486-1.053 0.4883 0.2958-0.7436 0.3943-1.567 0.5332-2.355-0.3988 0-0.7303 0.07475-1.098 0.1621a21.15 21.15 0 0 0 1.26-1.971 1.429 1.429 0 0 0-1.037-0.2793c0.5848-0.3584 1.302-0.7869 1.869-1.262-0.1768-0.2888-0.4058-0.5905-0.7148-0.7988 0.73-0.06944 1.474-0.2027 2.195-0.3281-0.1252-0.3716-0.271-0.7396-0.5801-1.02 0.674 0.121 1.465 0.3484 2.195 0.2812 0.0448-0.3136 0.0151-0.6719-0.1641-1.008a11.91 11.91 0 0 0 2.131 0.8438c0.00896-0.2264 0.04864-0.5144-0.05664-0.7832 0.8512 0.6896 1.939 1.012 2.918 1.496-0.8874-1.161-1.481-2.684-1.982-4.023-0.001107-0.001425-0.002798-0.002482-0.003906-0.003906v-0.003906zm6.607 7.066c-1.006 0.2508 0.6857 1.364 1.111 1.512-0.4388-0.4364-0.7462-1.003-1.111-1.512z"/>
  <path id="fg" d="m14.55 5.46c0.5016 1.342 1.098 2.869 1.987 4.032-0.9788-0.4836-2.067-0.8064-2.918-1.496 0.1053 0.2688 0.0672 0.5576 0.05824 0.784a11.91 11.91 0 0 1-2.132-0.8444c0.1792 0.336 0.2083 0.6944 0.1635 1.008-0.73 0.0672-1.521-0.1612-2.195-0.2822 0.3091 0.28 0.4548 0.6496 0.58 1.021-0.7212 0.1254-1.465 0.2576-2.195 0.327 0.3091 0.2083 0.5376 0.5108 0.7144 0.7996-0.5668 0.4748-1.283 0.9024-1.868 1.261a1.429 1.429 0 0 1 1.037 0.28 21.15 21.15 0 0 1-1.261 1.971c0.3673-0.08736 0.6988-0.1635 1.098-0.1635-0.1389 0.7884-0.2374 1.612-0.5332 2.356 0.3292-0.2396 0.6852-0.3606 1.053-0.4884 0.3516 0.598 0.3875 1.574 0.5172 2.101a1.115 1.115 0 0 1 0.578-0.6496c3.987 3.915 10.55 3.23 11.12 9.036 0.1792-2.262-0.8912-3.861-2.132-4.96-1.03-0.9136-5.724-3.086-5.94-3.23-4.032-2.674-3.49-6.288-0.6496-7.2a6.108 6.108 0 0 1 6.752 2.119c0.3942 0.4996 0.9564 1.413 1.483 1.808 0.9968 0.748 4.56 2.484 3.156 4.548 1.221-0.3136 2.152-1.187 2.459-2.412-0.9564-0.41-2.396-1.277-2.282-2.49 0.1389-0.05824 0.2912-0.0448 0.4456-0.0448-3.216-5.6-4.072-3.651-7.304-8.856 0.4032 1.442 1.281 3.221 2.338 4.208-1.754-1.053-2.892-2.941-4.132-4.536zm6.608 7.068c0.3651 0.5084 0.672 1.075 1.111 1.512-0.4256-0.1478-2.116-1.261-1.111-1.512z"/>
 </defs>
 <symbol id="color">
  <use href="#bg" fill="#2883b6"/>
  <use href="#fg" fill="#fff"/>
 </symbol>
 <symbol id="light-white"><use href="#fg" fill="#fff"/></symbol>
 <symbol id="light-black"><use href="#fg"/></symbol>
 <symbol id="full-white"><use href="#bg" fill="#fff"/></symbol>
 <symbol id="full-black"><use href="#bg"/></symbol>
 <use id="main" href="#color"/>
</svg>