<?xml version="1.0" encoding="UTF-8"?>
<svg version="1.1" viewBox="0 0 32 32" xmlns="http://www.w3.org/2000/svg">
 <defs>
  <path id="bg" d="m15.76 0.001953a16 16 0 0 0 0 32 16 16 0 1 0 0-32zm0.2383 3.998a12 12 0 0 1 12 12 12 12 0 0 1-12 12 12 12 0 0 1-12-12 12 12 0 0 1 12-12zm2.17 4c-2.663 0-4.943 1.808-5.676 4.352-2.542 0.736-4.344 3.009-4.348 5.672v5.977h5.975c2.663 0 4.944-1.808 5.678-4.352 2.541-0.736 4.345-3.01 4.348-5.672v-5.977zm0 1.598h4.373v4.377c-2e-3 1.693-1.055 3.098-2.549 3.82-0.136-3.081-2.563-5.512-5.645-5.648 0.724-1.491 2.129-2.548 3.82-2.549zm-4.053 4.053 2e-3 2e-3c2e-3 -2.2e-5 4e-3 1.9e-5 0.0059 0 2.416 4e-3 4.362 1.957 4.363 4.375-0.0011 0.101-0.01544 0.2022-0.02344 0.3027-0.09804 0.0078-0.1985 0.02224-0.2969 0.02344-2.418 0-4.374-1.953-4.377-4.371v-0.0059c0.0011-0.101 0.0212-0.2021 0.0293-0.3027 0.09836-0.0078 0.1982-0.02234 0.2969-0.02344zm-1.822 0.5625c0.144 3.076 2.567 5.501 5.645 5.637-0.7228 1.492-2.128 2.548-3.82 2.549h-4.373v-4.371c0.0016-1.691 1.058-3.091 2.549-3.814z"/>
  <path id="fg" d="m18.17 8c-2.663 0-4.943 1.808-5.676 4.352-2.542 0.736-4.344 3.009-4.348 5.672v5.977h5.975c2.663 0 4.944-1.808 5.678-4.352 2.541-0.736 4.345-3.01 4.348-5.672v-5.977zm0 1.598h4.373v4.377c-2e-3 1.693-1.055 3.098-2.549 3.82-0.136-3.081-2.563-5.512-5.645-5.648 0.724-1.491 2.129-2.548 3.82-2.549zm-4.053 4.053 2e-3 2e-3c2e-3 -2.2e-5 4e-3 1.9e-5 0.0059 0 2.416 4e-3 4.362 1.957 4.363 4.375-0.0011 0.101-0.01544 0.2022-0.02344 0.3027-0.09804 0.0078-0.1985 0.02224-0.2969 0.02344-2.418 0-4.374-1.953-4.377-4.371v-0.0059c0.0011-0.101 0.0212-0.2021 0.0293-0.3027 0.09836-0.0078 0.1982-0.02234 0.2969-0.02344zm-1.822 0.5625c0.144 3.076 2.567 5.501 5.645 5.637-0.7228 1.492-2.128 2.548-3.82 2.549h-4.373v-4.371c0.0016-1.691 1.058-3.091 2.549-3.814z"/>
 </defs>
 <symbol id="color">
  <use href="#bg" fill="#4380b4"/>
  <use href="#fg" fill="#4380b4"/>
 </symbol>
 <symbol id="light-white"><use href="#fg" fill="#fff"/></symbol>
 <symbol id="light-black"><use href="#fg"/></symbol>
 <symbol id="full-white"><use href="#bg" fill="#fff"/></symbol>
 <symbol id="full-black"><use href="#bg"/></symbol>
 <use id="main" href="#color"/>
</svg>