<?xml version="1.0" encoding="UTF-8"?>
<svg version="1.1" viewBox="0 0 32 32" xmlns="http://www.w3.org/2000/svg">
 <defs>
  <path id="bg" d="m16 0c-8.836 0-16 7.164-16 16 0 8.836 7.164 16 16 16 8.836 0 16-7.164 16-16 0-8.836-7.164-16-16-16zm0 8c4.418 0 8 3.58 8 8 0 4.418-3.58 8-8 8-4.418 0-8-3.582-8-8s3.58-8 8-8zm-0.4473 2.213c-0.04263-0.001588-0.08527-0.002116-0.123 0.001953h-0.001954c-0.1918 0.01933-0.3847 0.03156-0.5703 0.07031-0.374 0.07644-0.7287 0.1771-1.072 0.3223-1.642 0.6944-2.879 2.135-3.32 3.893 0.01128 0.01296 0.0222 0.0222 0.03516 0.03516 0.308 0.3288 1.116 0.7836 1.715 1 0.3272 0.1184 0.9601 0.304 1.393 0.3926 0.4325 0.08856 0.7205 0.1743 0.6777 0.1777-0.04244 0.00344-0.2353 0.1476-0.4277 0.3203-0.3671 0.33-0.5563 0.6225-0.7148 1.145-0.08687 0.2859-0.07613 0.3805 0.03711 0.5352 0.068 0.0932 0.3738 0.3117 0.6777 0.5 0.304 0.1884 0.6584 0.4476 0.7852 0.5703 0.4722 0.458 0.7852 1.277 0.7852 2.072 0 0.2034 0.02239 0.3112 0.03711 0.3574 0.03864 0.0034 0.06854-0.0035 0.1074 0 0.08724-0.03368 0.2194-0.07366 0.4277-0.1777 1.746-0.874 2.543-2.003 2.465-3.5-0.0624-1.194-0.6222-1.626-2.893-2.107-1.672-0.3544-2.572-0.9572-2.572-1.715 0-0.1996 0.06692-0.317 0.2852-0.5352 0.2347-0.2358 0.2835-0.2494 0.4648-0.2148 0.1156 0.02332 0.4133 0.176 0.6426 0.3574 0.516 0.4088 0.7682 0.5723 1.035 0.5723 0.1137 0 0.2148-0.01788 0.2148-0.03516 0-0.01684-0.08449-0.1474-0.1777-0.2852-0.5154-0.7592-0.4849-2.18 0.07031-3.393 0.0872-0.1905 0.1517-0.3229 0.1426-0.3574-0.03856 0.00215-0.0817-3.41e-4 -0.125-0.001953zm5.203 2.678c-0.1792 0.04624-0.9332 0.8507-1.115 1.217-0.3852 0.774-0.2395 1.28 0.6797 2.25 0.3184 0.336 0.7004 0.7875 0.8203 1 0.1199 0.2125 0.2219 0.3877 0.25 0.3574 0.02812-0.0304 0.1137-0.2743 0.1797-0.5352 0.1732-0.686 0.1868-1.882 0-2.572-0.1444-0.5348-0.6509-1.632-0.7852-1.715-0.0065-4e-3 -0.01735-0.005036-0.0293-0.001953z"/>
  <path id="fg" d="m16 8c-4.42 0-8 3.582-8 8s3.582 8 8 8c4.42 0 8-3.582 8-8 0-4.42-3.582-8-8-8zm-0.5716 2.214c0.07644-0.0086 0.1729 0.0043 0.25 0 0.0091 0.03456-0.05564 0.1667-0.1428 0.3572-0.5552 1.213-0.5868 2.634-0.07144 3.393 0.09324 0.1378 0.1786 0.2687 0.1786 0.2855 0 0.01728-0.1006 0.03456-0.2143 0.03456-0.267 0-0.5196-0.1628-1.036-0.5716-0.2293-0.1814-0.5272-0.3339-0.6428-0.3572-0.1813-0.03456-0.2297-0.0216-0.4644 0.2142-0.2182 0.2181-0.2857 0.336-0.2857 0.5356 0 0.7576 0.8996 1.36 2.572 1.714 2.27 0.4812 2.83 0.9132 2.893 2.107 0.0786 1.497-0.7184 2.626-2.464 3.5-0.2084 0.1041-0.3412 0.1447-0.4284 0.1784-0.03888-0.0035-0.06852 0.0034-0.1072 0-0.01472-0.0462-0.03588-0.1538-0.03588-0.3572 0-0.7952-0.3134-1.614-0.7856-2.072-0.1268-0.1227-0.4816-0.3832-0.7856-0.5716-0.304-0.1883-0.6104-0.4068-0.6784-0.5-0.1132-0.1546-0.1227-0.2497-0.03585-0.5356 0.1586-0.522 0.3473-0.8128 0.7144-1.143 0.1924-0.1728 0.386-0.3179 0.4284-0.3214 0.04276-0.0034-0.2459-0.08984-0.6784-0.1784s-1.066-0.2743-1.393-0.3926c-0.5984-0.2164-1.406-0.6712-1.714-1-0.01296-0.01296-0.0246-0.0216-0.03588-0.03456 0.4412-1.758 1.68-3.198 3.322-3.893 0.3435-0.1451 0.6976-0.2449 1.072-0.3214 0.1862-0.03888 0.3792-0.05184 0.5716-0.07128zm5.356 2.678c0.1342 0.08292 0.6412 1.18 0.7856 1.714 0.1868 0.6904 0.1732 1.886 0 2.572-0.06596 0.2609-0.1504 0.5052-0.1786 0.5356-0.02808 0.03024-0.1301-0.1447-0.25-0.3572-0.12-0.2125-0.5032-0.664-0.8216-1-0.9192-0.9696-1.064-1.476-0.6784-2.25 0.1941-0.3905 1.039-1.278 1.143-1.214z"/> </defs>
 <symbol id="color">
  <use href="#bg" fill="#4d4d4d"/>
  <use href="#fg" fill="#f9f9f9"/>
 </symbol>
 <symbol id="light-white"><use href="#fg" fill="#fff"/></symbol>
 <symbol id="light-black"><use href="#fg"/></symbol>
 <symbol id="full-white"><use href="#bg" fill="#fff"/></symbol>
 <symbol id="full-black"><use href="#bg"/></symbol>
 <use id="main" href="#color"/>
</svg>