<?xml version="1.0" encoding="UTF-8"?>
<svg version="1.1" viewBox="0 0 32 32" xmlns="http://www.w3.org/2000/svg">
 <defs>
  <path id="bg" d="m15.75 0.001953a16 16 0 0 0 0 32 16 16 0 1 0 0-32zm0.1934 4.998a11 11 0 0 1 11 11 11 11 0 0 1-11 11 11 11 0 0 1-11-11 11 11 0 0 1 11-11zm1.541 4.316c-0.072-0.00221-0.1448-0.00112-0.2168 0.00195-0.4324 0.0184-0.8597 0.1342-1.24 0.3398-0.5076 0.2744-0.929 0.7063-1.189 1.221-0.2604 0.5144-0.3588 1.109-0.2793 1.68 0.0792 0.5712 0.3375 1.115 0.7285 1.539-0.2033-0.3772-0.2995-0.8107-0.2754-1.238 0.02392-0.4276 0.1678-0.8474 0.4121-1.199 0.2444-0.352 0.5881-0.6326 0.9805-0.8047 0.3924-0.1721 0.8315-0.2342 1.256-0.1758 0.5948 0.082 1.154 0.4026 1.523 0.875h5.92l-5.195-0.7168c-0.4324-0.8204-1.287-1.403-2.209-1.506-0.07168-0.00792-0.1428-0.01344-0.2148-0.01562zm-9.426 1.012c-0.3808 0.752-0.5304 1.617-0.4258 2.453 0.1048 0.8364 0.4632 1.641 1.018 2.275 0.322 0.3692 0.7181 0.6663 1.146 0.9043l-1.215-0.3418c-0.0564 0.6532 0.07303 1.322 0.3672 1.908 0.294 0.5856 0.7529 1.086 1.311 1.432 0.8272 0.5121 1.869 0.6665 2.809 0.4141-0.9412 0.0064-1.872-0.4612-2.43-1.219-0.315-0.428-0.5162-0.9404-0.5703-1.469l5.506 0.8984-4.441-1.248c-0.358-0.1732-0.6862-0.4098-0.959-0.6992-0.3752-0.398-0.6465-0.8927-0.7832-1.422-0.1566-0.6064-0.1347-1.258 0.06445-1.852l6.561 3.678-7.951-5.713zm10.7 2.871c-0.1298 0.2692-0.2187 0.5584-0.2656 0.8535-0.1455 0.9152 0.1252 1.84 0.3965 2.727 0.2712 0.8868 0.5489 1.808 0.4121 2.725-0.1024 0.6848-0.4367 1.327-0.9043 1.838-0.468 0.5108-1.065 0.8946-1.707 1.156-1.057 0.4309-2.245 0.5311-3.359 0.2852v3.049l0.916-2.176c1.188 0.271 2.46 0.1614 3.584-0.3086 0.8048-0.3368 1.539-0.8615 2.068-1.555 0.5297-0.6928 0.8466-1.558 0.8242-2.43-0.0272-1.048-0.5228-2.019-1.002-2.951s-0.9654-1.911-0.9707-2.959c-7e-4 -0.08456 0.0018-0.1696 0.0078-0.2539z"/>
  <path id="fg" d="m16 5a11 11 0 0 0-11 11 11 11 0 0 0 11 11 11 11 0 0 0 11-11 11 11 0 0 0-11-11zm1.541 4.316c0.072 0.00219 0.1432 0.00768 0.2148 0.0156 0.922 0.1025 1.777 0.6856 2.209 1.506l5.196 0.7168h-5.92c-0.3694-0.4724-0.9288-0.7932-1.524-0.8752-0.4244-0.0584-0.8636 0.0037-1.256 0.1758-0.3924 0.1721-0.736 0.4528-0.9804 0.8048-0.2443 0.3518-0.3881 0.7716-0.412 1.199-0.02412 0.4276 0.07208 0.8612 0.2754 1.238-0.391-0.4236-0.6492-0.968-0.7284-1.539-0.07948-0.5708 0.01884-1.165 0.2793-1.68s0.682-0.9464 1.19-1.221c0.3806-0.2057 0.808-0.3214 1.24-0.3398 0.07204-0.00307 0.1448-0.00416 0.2168-0.00195zm-9.42 1.012 7.952 5.712-6.56-3.678c-0.1992 0.5936-0.2211 1.245-0.06444 1.852 0.1367 0.5292 0.408 1.024 0.7832 1.422 0.2728 0.2894 0.6008 0.526 0.9588 0.6992l4.44 1.248-5.504-0.8984c0.05408 0.5284 0.2534 1.041 0.5684 1.469 0.558 0.7576 1.49 1.225 2.432 1.219-0.9396 0.2524-1.982 0.09812-2.809-0.414-0.5576-0.3453-1.016-0.846-1.31-1.432-0.2942-0.586-0.4236-1.255-0.3672-1.908l1.215 0.3418c-0.4284-0.238-0.8244-0.5352-1.146-0.9044-0.5544-0.6348-0.9128-1.439-1.018-2.276-0.1046-0.836 0.0448-1.701 0.4256-2.453zm10.7 2.871c-6e-3 0.08432-0.0085 0.1694-0.0078 0.2539 0.0053 1.048 0.4916 2.027 0.9708 2.959s0.9748 1.904 1.002 2.951c0.02236 0.8716-0.2947 1.737-0.8244 2.43-0.5296 0.6932-1.264 1.218-2.068 1.555-1.124 0.47-2.396 0.5796-3.584 0.3086l-0.916 2.176v-3.049c1.114 0.246 2.303 0.1457 3.36-0.2852 0.6416-0.2616 1.239-0.6456 1.707-1.156 0.4676-0.5108 0.802-1.153 0.9044-1.838 0.1368-0.9168-0.1408-1.838-0.412-2.725-0.2713-0.8864-0.542-1.811-0.3965-2.726 0.04696-0.2952 0.1358-0.5844 0.2656-0.8536z"/>
 </defs>
 <symbol id="color">
  <use href="#bg" fill="#1d89db"/>
  <use href="#fg" fill="#fff"/>
 </symbol>
 <symbol id="light-white"><use href="#fg" fill="#fff"/></symbol>
 <symbol id="light-black"><use href="#fg"/></symbol>
 <symbol id="full-white"><use href="#bg" fill="#fff"/></symbol>
 <symbol id="full-black"><use href="#bg"/></symbol>
 <use id="main" href="#color"/>
</svg>