<?xml version="1.0" encoding="UTF-8"?>
<svg version="1.1" viewBox="0 0 32 32" xmlns="http://www.w3.org/2000/svg">
 <defs>
  <path id="bg" d="m16 0c-8.836 0-16 7.164-16 16 0 8.836 7.164 16 16 16 8.836 0 16-7.164 16-16 0-8.836-7.164-16-16-16zm4.395 4c0.1423 1.301-0.376 2.585-1.139 3.529h0.001953c-0.7892 0.9238-2.052 1.634-3.285 1.543-0.1612-1.254 0.4617-2.583 1.162-3.396 0.7928-0.917 2.161-1.63 3.26-1.676zm-0.3418 5.309c0.106 7.708e-4 0.2137 0.006761 0.3203 0.01758 0.7169 0.02319 2.747 0.2805 4.057 2.182-0.1049 0.06398-2.421 1.414-2.395 4.195v0.003906c0.03096 3.33 2.931 4.422 2.965 4.438-0.01729 0.08038-0.4547 1.59-1.539 3.129-0.9107 1.35-1.864 2.675-3.377 2.697-1.471 0.02839-1.963-0.8613-3.648-0.8613-1.703 0-2.229 0.8354-3.639 0.8887-1.441 0.05918-2.539-1.436-3.482-2.779-1.883-2.731-3.343-7.704-1.383-11.09 0.9509-1.656 2.69-2.727 4.547-2.754 1.441-0.02839 2.778 0.9706 3.664 0.9707 0.8168 0 2.32-1.049 3.91-1.037z"/>
  <path id="fg" d="m19.26 7.529c0.7627-0.9446 1.28-2.228 1.137-3.529-1.098 0.04611-2.467 0.759-3.26 1.676-0.7004 0.8138-1.323 2.143-1.162 3.397 1.233 0.09146 2.496-0.6206 3.285-1.544zm2.779 8.174c-0.02621-2.782 2.288-4.131 2.393-4.195-1.309-1.901-3.34-2.159-4.057-2.182-1.706-0.1731-3.358 1.02-4.23 1.02-0.8857-7.6e-5 -2.224-0.9989-3.665-0.9705-1.857 0.02645-3.596 1.097-4.547 2.754-1.96 3.386-0.4989 8.358 1.384 11.09 0.9432 1.344 2.042 2.84 3.483 2.78 1.409-0.05327 1.935-0.8898 3.638-0.8898 1.685 0 2.179 0.8898 3.65 0.8614 1.513-0.02267 2.465-1.346 3.376-2.696 1.084-1.539 1.522-3.048 1.539-3.129-0.03381-0.01512-2.933-1.109-2.964-4.439z"/>
 </defs>
 <symbol id="color">
  <use href="#bg" fill="#333"/>
  <use href="#fg" fill="#fff"/>
 </symbol>
 <symbol id="light-white"><use href="#fg" fill="#fff"/></symbol>
 <symbol id="light-black"><use href="#fg"/></symbol>
 <symbol id="full-white"><use href="#bg" fill="#fff"/></symbol>
 <symbol id="full-black"><use href="#bg"/></symbol>
 <use id="main" href="#color"/>
</svg>