<?xml version="1.0" encoding="UTF-8"?>
<svg version="1.1" viewBox="0 0 32 32" xmlns="http://www.w3.org/2000/svg">
 <defs>
  <path id="bg" d="m15.75 0.001953a16 16 0 0 0 0 32 16 16 0 1 0 0-32zm-0.5977 5.332h0.001953a0.792 0.792 0 0 1 0 1.584 0.792 0.792 0 1 1-0.001953-1.584zm2.449 1.578a0.792 0.792 0 0 1 0 1.584 0.792 0.792 0 1 1 0-1.584zm-2.055 0.791a1.187 1.187 0 0 1 0 2.371 1.187 1.187 0 0 1 0-2.371zm2.373 2.371a1.187 1.187 0 0 1 0 2.371 1.187 1.187 0 0 1 0-2.371zm-3.949 0.7891a1.187 1.187 0 0 1 0 2.371 1.187 1.187 0 0 1 0-2.371zm-1.836 2.729a1.053 1.053 0 0 1 0.666 0.2363c0.9028 0.7435 1.989 1.133 3.143 1.133a4.9 4.9 0 0 0 3.145-1.133 1.048 1.048 0 0 1 1.322 0c1.68 1.38 2.643 3.425 2.643 5.615 0 3.982-3.192 7.221-7.111 7.221-3.918 0-7.111-3.239-7.111-7.221a7.24 7.24 0 0 1 2.643-5.615 1.042 1.042 0 0 1 0.6621-0.2363zm0.457 2.615a4.74 4.74 0 1 0 6.703 0c-0.9584 0.6315-2.14 0.9766-3.352 0.9766-1.211 0-2.389-0.3455-3.352-0.9766z"/>
  <path id="fg" d="m12.13 13.59a1.042 1.042 0 0 0-0.6628 0.2352 7.24 7.24 0 0 0-2.643 5.616c0 3.982 3.194 7.22 7.112 7.22 3.92 0 7.112-3.238 7.112-7.22 0-2.19-0.9632-4.236-2.643-5.616a1.048 1.048 0 0 0-1.324 0 4.9 4.9 0 0 1-3.144 1.133c-1.154 0-2.24-0.3897-3.142-1.133a1.053 1.053 0 0 0-0.6652-0.2352zm0.4548 2.614c0.9632 0.6316 2.141 0.9764 3.353 0.9764s2.394-0.3449 3.353-0.9764a4.74 4.74 0 1 1-6.704 0zm2.562-10.87a0.7918 0.7918 0 1 0 0.0022 1.584 0.7918 0.7918 0 0 0 0-1.584zm2.45 1.579a0.7918 0.7918 0 1 0 0 1.584 0.7918 0.7918 0 0 0 0-1.584zm-2.056 0.7908a1.187 1.187 0 0 0 0 2.37 1.187 1.187 0 0 0 0-2.37zm2.374 2.37a1.187 1.187 0 0 0 0 2.372 1.187 1.187 0 0 0 0-2.372zm-3.951 0.7908a1.187 1.187 0 0 0 0 2.37 1.187 1.187 0 0 0 0-2.37z"/>
 </defs>
 <symbol id="color">
  <use href="#bg" fill="#405474"/>
  <use href="#fg" fill="#f9f9f9"/>
 </symbol>
 <symbol id="light-white"><use href="#fg" fill="#fff"/></symbol>
 <symbol id="light-black"><use href="#fg"/></symbol>
 <symbol id="full-white"><use href="#bg" fill="#fff"/></symbol>
 <symbol id="full-black"><use href="#bg"/></symbol>
 <use id="main" href="#color"/>
</svg>