<?xml version="1.0" encoding="UTF-8"?>
<svg version="1.1" viewBox="0 0 32 32" xmlns="http://www.w3.org/2000/svg">
 <defs>
  <path id="bg" d="m16 0a16 16 0 0 0-16 16 16 16 0 0 0 16 16 16 16 0 0 0 16-16 16 16 0 0 0-16-16zm0.01172 5c6.518 3.14e-5 11.79 5.321 11.79 11.84-0.01045 1.947-0.503 3.862-1.434 5.572l2.133 2.586-25 0.005859 2.121-2.535c-0.9586-1.73-1.441-3.68-1.451-5.658 2.95e-5 -6.622 5.324-11.81 11.84-11.81zm0.4922 0.9395c-5.462 3.09e-5 -9.891 4.427-9.891 9.887 0.00475 1.491 0.3361 2.953 0.9902 4.293l4.535-5.344 3.943 4.658 1.084-1.299-5.062-6.027 0.8945-1.053 5.055 6.018 6.168-7.391c-1.869-2.355-4.709-3.733-7.717-3.742zm8.934 5.689-5.961 7.141 1.738 2.068 1.92-2.309 1.898 2.289c0.8903-1.503 1.348-3.245 1.361-4.992-0.0068-1.453-0.3332-2.885-0.957-4.197zm-6.848 8.203-1.078 1.293 1.748 2.064 1.068-1.287z"/>
  <path id="fg" d="m16.01 5c-6.518 3.13e-5 -11.84 5.184-11.84 11.81 0.01053 1.978 0.4924 3.927 1.451 5.658l-2.121 2.536 25-0.0063-2.133-2.586c0.9306-1.71 1.423-3.625 1.434-5.572-3.3e-5 -6.515-5.27-11.84-11.79-11.84zm0.4923 0.9404c3.008 0.0095 5.847 1.386 7.717 3.742l-6.169 7.391-5.054-6.019-0.8943 1.053 5.061 6.028-1.084 1.299-3.943-4.659-4.536 5.345c-0.6541-1.34-0.9845-2.802-0.9893-4.293 3.11e-5 -5.46 4.428-9.886 9.891-9.886zm8.933 5.688c0.6239 1.312 0.9508 2.745 0.9576 4.198-0.01304 1.747-0.4721 3.488-1.362 4.991l-1.898-2.287-1.92 2.308-1.737-2.069zm-6.847 8.203 1.738 2.071-1.07 1.286-1.747-2.065z"/>
 </defs>
 <symbol id="color">
  <use href="#bg" fill="#333"/>
  <use href="#fg" fill="#fff"/>
 </symbol>
 <symbol id="light-white"><use href="#fg" fill="#fff"/></symbol>
 <symbol id="light-black"><use href="#fg"/></symbol>
 <symbol id="full-white"><use href="#bg" fill="#fff"/></symbol>
 <symbol id="full-black"><use href="#bg"/></symbol>
 <use id="main" href="#color"/>
</svg>