<?xml version="1.0" encoding="UTF-8"?>
<svg version="1.1" viewBox="0 0 32 32" xmlns="http://www.w3.org/2000/svg">
 <defs>
  <path id="bg" d="m16 0c-8.837 0-16 7.163-16 16 0 8.837 7.163 16 16 16 8.837 0 16-7.163 16-16 0-8.837-7.163-16-16-16zm-0.0039 2.949h0.0059c0.5016 8e-4 0.911 0.3595 1.049 0.8359 2.512 0.2152 4.893 1.199 6.824 2.816 0.4384-0.2553 0.9939-0.1907 1.355 0.1699 0.3616 0.362 0.4262 0.919 0.1699 1.357 1.617 1.932 2.601 4.315 2.816 6.824 0.4746 0.1372 0.8326 0.5438 0.8359 1.043 6e-6 0.0019 6e-6 4e-3 0 0.0058-8e-4 0.5016-0.3595 0.911-0.8359 1.049-0.2152 2.512-1.199 4.893-2.816 6.824 0.2532 0.436 0.1905 0.988-0.166 1.35v2e-3l-0.0039 0.0039c-0.362 0.3616-0.919 0.4262-1.357 0.1699-1.932 1.617-4.314 2.601-6.824 2.816-0.1377 0.4766-0.5473 0.8351-1.049 0.8359-0.5016-8e-4 -0.911-0.3595-1.049-0.8359-2.512-0.2152-4.893-1.199-6.824-2.816-0.436 0.2532-0.9881 0.1905-1.35-0.166h-0.00195l-0.00391-0.0039c-0.3616-0.362-0.4262-0.919-0.1699-1.357-1.617-1.932-2.601-4.314-2.816-6.824-0.4766-0.1376-0.8351-0.5472-0.8359-1.049 8e-4 -0.5016 0.3595-0.911 0.8359-1.049 0.2152-2.512 1.199-4.893 2.816-6.824-0.2553-0.4384-0.1907-0.9939 0.1699-1.355 0.362-0.3616 0.919-0.4262 1.357-0.1699 1.932-1.617 4.314-2.601 6.824-2.816 0.1372-0.4746 0.5438-0.8326 1.043-0.8359zm2e-3 0.5703c-0.3048 2e-3 -0.5501 0.2483-0.5508 0.5527 0 0.3065 0.248 0.5527 0.5547 0.5527 0.3068 0 0.5549-0.2463 0.5547-0.5527-8e-4 -0.3058-0.2486-0.5527-0.5547-0.5527zm-1.004 0.9688c-2.363 0.2075-4.602 1.138-6.418 2.662 0.1644 0.412 0.1056 0.8862-0.209 1.205-0.00127 0.00127-0.00264 0.00265-0.00391 0.00391-0.3184 0.3174-0.7954 0.3779-1.209 0.2129-1.525 1.816-2.455 4.057-2.662 6.42 0.4086 0.1752 0.7044 0.5512 0.707 1 5.2e-6 2e-3 5.2e-6 4e-3 0 0.0058-4e-4 0.4508-0.2966 0.83-0.707 1.006 0.2068 2.36 1.137 4.603 2.662 6.42 0.4136-0.165 0.8903-0.1045 1.209 0.2129 0.3174 0.3184 0.3779 0.7954 0.2129 1.209 1.816 1.525 4.057 2.455 6.42 2.662 0.1752-0.4086 0.5512-0.7044 1-0.707 2e-3 -6e-6 4e-3 -6e-6 0.0058 0 0.4508 4e-4 0.83 0.2966 1.006 0.707 2.36-0.2068 4.603-1.137 6.42-2.662-0.165-0.4136-0.1045-0.8903 0.2129-1.209 0.3184-0.3174 0.7954-0.3779 1.209-0.2129 1.525-1.816 2.455-4.057 2.662-6.42-0.4105-0.176-0.7067-0.5551-0.707-1.006 4e-4 -0.4508 0.2962-0.83 0.707-1.006-0.2068-2.36-1.137-4.603-2.662-6.42-0.412 0.1643-0.8862 0.1056-1.205-0.209h-2e-3c-0.0014-0.00127-6.53e-4 -0.00264-2e-3 -0.00391-0.3174-0.3184-0.3779-0.7953-0.2129-1.209-1.816-1.525-4.057-2.455-6.42-2.662-0.176 0.4105-0.5551 0.7067-1.006 0.707-0.4508-4e-4 -0.83-0.2966-1.006-0.707zm1.002 2.129c2e-3 -4.8e-6 4e-3 -4.8e-6 0.0058 0 0.5104 8e-4 0.9506 0.3479 1.08 0.8379 4.318 0.544 7.56 4.216 7.561 8.568-4e-3 4.36-3.252 8.035-7.576 8.572-0.1468 0.4646-0.5741 0.7864-1.064 0.7871-0.4904-8e-4 -0.9176-0.3227-1.064-0.7871-4.325-0.536-7.575-4.212-7.576-8.572 4e-3 -4.352 3.245-8.024 7.561-8.568 0.1292-0.4882 0.5658-0.8347 1.074-0.8379zm-8.459 0.3945c-0.135 0.00888-0.2621 0.06792-0.3574 0.1641-0.2174 0.2164-0.2184 0.5662-0.00195 0.7832 0.2164 0.2159 0.5647 0.2138 0.7812-0.00195h0.00195l0.00195-0.00391c0.2147-0.2164 0.2147-0.5632 0-0.7793-0.1115-0.1115-0.2665-0.1708-0.4238-0.1621zm16.87 0c-0.1361 0.00752-0.265 0.06571-0.3613 0.1621-0.2158 0.2164-0.2139 0.5647 2e-3 0.7812v0.00195l0.0039 0.00195c0.2164 0.2147 0.5632 0.2147 0.7793 0 0.2163-0.2168 0.2155-0.5668-2e-3 -0.7832-0.1114-0.1121-0.2643-0.1724-0.4219-0.1641zm-8.408 0.1758c-0.3048 2e-3 -0.5501 0.2463-0.5508 0.5508 0 0.3065 0.248 0.5547 0.5547 0.5547 0.3069 0 0.5549-0.2483 0.5547-0.5547-8e-4 -0.3058-0.2486-0.5508-0.5547-0.5508zm-0.998 0.9766c-3.944 0.504-6.897 3.857-6.896 7.832 0 3.975 2.954 7.328 6.896 7.832 0.178-0.4021 0.5521-0.6929 0.9961-0.6953 2e-3 -4e-6 4e-3 -4e-6 0.0058 0 0.4476 4e-4 0.8262 0.2909 1.004 0.6973 3.944-0.504 6.897-3.857 6.897-7.832 0-3.973-2.954-7.327-6.896-7.832-0.1776 0.4062-0.5563 0.6968-1.004 0.6973-0.4476-4e-4 -0.8262-0.2909-1.004-0.6973zm1.002 4.77c1.692-3e-5 3.064 1.372 3.064 3.064 3e-5 1.692-1.372 3.064-3.064 3.064-1.692 2.9e-5 -3.064-1.372-3.064-3.064-2.9e-5 -1.692 1.372-3.064 3.064-3.064zm11.92 2.51c-0.305 0.0016-0.5488 0.2492-0.5488 0.5547 0 0.3068 0.2463 0.555 0.5527 0.5547 0.3058-8e-4 0.5527-0.2486 0.5527-0.5547v-0.0039c-2e-3 -0.3048-0.2483-0.5501-0.5527-0.5508zm-23.83 2e-3c-0.0098 1.7e-5 -0.0214 0.0014-0.03124 2e-3h-0.00195c-0.135 0.0089-0.2621 0.06792-0.3574 0.1641-0.2174 0.2164-0.2184 0.5662-0.00195 0.7832 0.2164 0.2159 0.5647 0.2138 0.7812-2e-3h0.00195l0.00194-0.0039c0.2147-0.2164 0.2147-0.5632 0-0.7793-0.1045-0.1046-0.2455-0.1644-0.3926-0.1641zm11.9 8.262c-0.3048 2e-3 -0.5501 0.2483-0.5508 0.5527 0 0.3065 0.248 0.5527 0.5547 0.5527 0.3068 0 0.5549-0.2463 0.5547-0.5527-8e-4 -0.3058-0.2486-0.5527-0.5547-0.5527zm-8.463 0.1719c-0.1355 0.0079-0.2635 0.06607-0.3594 0.1621-0.2153 0.2168-0.2144 0.565 0.00195 0.7812l0.00195 0.0039h0.00195c0.2168 0.2126 0.5623 0.2127 0.7773-2e-3 0.2169-0.2164 0.217-0.5663 0-0.7832-0.1121-0.1119-0.2659-0.1714-0.4238-0.1621zm16.87 0c-0.136 0.0076-0.2649 0.06575-0.3613 0.1621-0.217 0.2168-0.2169 0.5667 0 0.7832 0.2168 0.2152 0.565 0.2144 0.7812-2e-3l0.0039-2e-3v-2e-3c0.2126-0.2168 0.2127-0.5623-2e-3 -0.7773-0.1115-0.1115-0.2644-0.171-0.4219-0.1621zm-8.408 3.494c-0.3048 2e-3 -0.5501 0.2463-0.5508 0.5508 0 0.3065 0.248 0.5547 0.5547 0.5547 0.3068 0 0.5549-0.2483 0.5547-0.5547-8e-4 -0.3058-0.2486-0.5508-0.5547-0.5508z"/>
  <path id="fg" d="m16 2.949c-0.4992 0.00334-0.9056 0.3614-1.043 0.836-2.51 0.2157-4.892 1.199-6.824 2.816-0.4384-0.2563-0.9956-0.1917-1.358 0.1699-0.3606 0.3616-0.4252 0.9172-0.1699 1.356-1.618 1.931-2.601 4.312-2.816 6.824-0.4764 0.1378-0.8352 0.5472-0.836 1.049 8.144e-4 0.5016 0.3594 0.9112 0.836 1.049 0.2157 2.51 1.199 4.892 2.816 6.824-0.2563 0.4384-0.1917 0.9956 0.1699 1.358l0.00391 0.0039h0.00195c0.3616 0.3566 0.9136 0.4192 1.35 0.166 1.931 1.618 4.312 2.601 6.824 2.816 0.1378 0.4764 0.5472 0.8352 1.049 0.836 0.5016-8.14e-4 0.9112-0.3594 1.049-0.836 2.51-0.2157 4.892-1.199 6.824-2.816 0.4384 0.2563 0.9956 0.1917 1.358-0.1699l0.0039-0.0039v-2e-3c0.3566-0.3616 0.4192-0.9136 0.166-1.35 1.618-1.931 2.601-4.312 2.816-6.824 0.4764-0.1378 0.8352-0.5472 0.836-1.049 6e-6 -0.0019 6e-6 -4e-3 0-0.0059-0.0033-0.4992-0.3614-0.9056-0.836-1.043-0.2157-2.51-1.199-4.892-2.816-6.824 0.2563-0.4384 0.1917-0.9956-0.1699-1.358-0.3616-0.3606-0.9172-0.4252-1.356-0.1699-1.931-1.618-4.312-2.601-6.824-2.816-0.1378-0.4764-0.5472-0.8352-1.049-0.836-0.0013-3.3e-6 -0.0026-1.1e-6 -0.0039 0zm2e-3 0.5704c0.0011-3.2e-6 0.0028-3.2e-6 0.0039 0 0.3061 1.1e-6 0.554 0.247 0.5548 0.5528 1.74e-4 0.3064-0.248 0.5528-0.5548 0.5528-0.3067-2e-6 -0.5548-0.2463-0.5548-0.5528 6.56e-4 -0.3044 0.246-0.5508 0.5508-0.5528zm-1.004 0.9688h2e-3c0.1759 0.4104 0.5552 0.7068 1.006 0.7072 0.4508-3e-4 0.83-0.2967 1.006-0.7072 2.363 0.2069 4.604 1.137 6.42 2.662-0.165 0.4136-0.1046 0.8904 0.2129 1.209 0.0013 0.00127 6.47e-4 0.00264 2e-3 0.00391h2e-3c0.3188 0.3146 0.7932 0.3733 1.205 0.209 1.525 1.817 2.455 4.06 2.662 6.42-0.4108 0.1758-0.7068 0.5552-0.7072 1.006 2.98e-4 0.4508 0.2967 0.83 0.7072 1.006-0.2069 2.363-1.137 4.604-2.662 6.42-0.4136-0.165-0.8904-0.1046-1.209 0.2129-0.3174 0.3187-0.3779 0.7952-0.2129 1.209-1.817 1.525-4.06 2.455-6.42 2.662-0.1759-0.4104-0.5552-0.7068-1.006-0.7072-0.0019-6e-6 -0.0039-6e-6 -0.0059 0-0.4488 0.0026-0.8248 0.2986-1 0.7072-2.363-0.2069-4.604-1.137-6.42-2.662 0.165-0.4136 0.1046-0.8904-0.2129-1.209-0.3187-0.3174-0.7952-0.3779-1.209-0.2129-1.525-1.817-2.455-4.06-2.662-6.42 0.4104-0.1759 0.7068-0.5552 0.7072-1.006 5.2e-6 -0.0019 5.2e-6 -0.0039 0-0.0059-0.0026-0.4488-0.2986-0.8248-0.7072-1 0.2069-2.363 1.137-4.604 2.662-6.42 0.4136 0.165 0.8904 0.1046 1.209-0.2129 0.00127-0.00124 0.00264-0.00262 0.00391-0.00389 0.3146-0.3188 0.3733-0.7932 0.209-1.205 1.816-1.524 4.056-2.455 6.42-2.662zm-7.456 2.524c0.158-0.00932 0.312 0.05016 0.424 0.1621 0.2147 0.2161 0.2147 0.5628 0 0.7792l-0.00195 0.00391h-0.00195c-0.2166 0.2158-0.5648 0.2179-0.7812 0.00195-0.2165-0.217-0.2155-0.5668 0.00195-0.7832 0.09576-0.0966 0.2237-0.1556 0.3594-0.1641zm16.87 0c0.1576-0.00832 0.3106 0.052 0.422 0.1641 0.2174 0.2164 0.2183 0.5664 2e-3 0.7832-0.2161 0.2147-0.5628 0.2147-0.7792 0l-0.0039-0.00195v-0.00195c-0.2158-0.2166-0.2178-0.5648-2e-3 -0.7812 0.09632-0.0964 0.2252-0.1546 0.3613-0.1621zm-20.49 8.416c-0.03202 0.00892-0.06544 0.01472-0.09572 0.02736 0.02987-0.01416 0.06336-0.0182 0.09572-0.02736zm0.1562 0.01564c0.00166-7e-6 0.0042-7e-6 0.00588 0 0.3044 6.56e-4 0.5488 0.246 0.5508 0.5508 3.2e-6 0.0011 3.2e-6 0.0028 0 0.0039 1.2e-6 0.3061-0.245 0.554-0.5508 0.5548-0.3064 2.71e-4 -0.5548-0.248-0.5548-0.5548-7.8e-6 -0.3048 0.2444-0.552 0.5488-0.5548zm23.86 0c0.0011-2e-6 0.0028-2e-6 0.0039 0 0.3044 6.56e-4 0.5508 0.246 0.5528 0.5508 3e-6 0.0011 3e-6 0.0028 0 0.0039 0 0.3061-0.247 0.554-0.5528 0.5548-0.3064 2.68e-4 -0.5528-0.248-0.5528-0.5548-2e-6 -0.3054 0.2438-0.5532 0.5488-0.5548zm-20.39 8.436c0.1579-0.0093 0.3119 0.0502 0.424 0.1621 0.217 0.2169 0.2169 0.5668 0 0.7832-0.2151 0.2146-0.5604 0.2146-0.7772 2e-3h-0.00195l-0.00195-0.0039c-0.2163-0.2162-0.2173-0.5644-0.00195-0.7812 0.09588-0.09604 0.2238-0.1542 0.3594-0.1621zm16.87 0c0.1575-0.0089 0.3105 0.0506 0.422 0.1621 0.2146 0.2151 0.2146 0.5604 2e-3 0.7772v2e-3l-0.0039 2e-3c-0.2162 0.2163-0.5644 0.2172-0.7812 2e-3 -0.2169-0.2165-0.217-0.5664 0-0.7832 0.09644-0.09636 0.2253-0.1546 0.3613-0.1621zm-8.408 3.494c0.0011-3e-6 0.0028-3e-6 0.0039 0 0.3061 2e-6 0.554 0.245 0.5548 0.5508 2.57e-4 0.3064-0.248 0.5548-0.5548 0.5548-0.3067-2e-6 -0.5548-0.2483-0.5548-0.5548 6.56e-4 -0.3044 0.246-0.5488 0.5508-0.5508zm-2e-3 -20.76c-0.5084 0.0032-0.9452 0.3498-1.074 0.838-4.316 0.544-7.556 4.216-7.56 8.568 6.396e-4 4.36 3.251 8.036 7.576 8.572 0.1469 0.4644 0.574 0.7864 1.064 0.7872 0.4904-7.09e-4 0.9176-0.3226 1.064-0.7872 4.324-0.5372 7.572-4.212 7.576-8.572-7.28e-4 -4.352-3.242-8.024-7.56-8.568-0.1295-0.49-0.5696-0.8372-1.08-0.838-0.0019-4.8e-6 -0.0039-4.8e-6 -0.0059 0zm2e-3 0.5704c0.0011-3.2e-6 0.0028-3.2e-6 0.0039 0 0.3061 1.2e-6 0.554 0.245 0.5548 0.5508 2.21e-4 0.3064-0.2479 0.5548-0.5548 0.5548-0.3067-2.4e-6 -0.5548-0.2483-0.5548-0.5548 6.56e-4 -0.3044 0.246-0.5488 0.5508-0.5508zm-1 0.9784c0.1777 0.4064 0.5564 0.6968 1.004 0.6972 0.4476-4.212e-4 0.8264-0.291 1.004-0.6972 3.942 0.5052 6.896 3.859 6.896 7.832 3.62e-4 3.975-2.952 7.328-6.896 7.832-0.1777-0.4064-0.5564-0.6968-1.004-0.6972-0.0019-5e-6 -0.0039-5e-6 -0.0059 0-0.444 0.0024-0.818 0.2931-0.996 0.6952-3.942-0.5044-6.896-3.857-6.896-7.832-3.616e-4 -3.975 2.952-7.328 6.896-7.832zm1 15.54c0.0011-3e-6 0.0028-3e-6 0.0039 0 0.3061 2e-6 0.554 0.247 0.5548 0.5528 2.57e-4 0.3064-0.248 0.5528-0.5548 0.5528-0.3067-2e-6 -0.5548-0.2463-0.5548-0.5528 6.56e-4 -0.3044 0.246-0.5508 0.5508-0.5528zm3.068-7.708a3.064 3.064 0 0 1-3.064 3.064 3.064 3.064 0 0 1-3.064-3.064 3.064 3.064 0 0 1 3.064-3.064 3.064 3.064 0 0 1 3.064 3.064z"/>
 </defs>
 <symbol id="color">
  <use href="#bg" fill="#11bdc2"/>
  <use href="#fg" fill="#fff"/>
 </symbol>
 <symbol id="light-white"><use href="#fg" fill="#fff"/></symbol>
 <symbol id="light-black"><use href="#fg"/></symbol>
 <symbol id="full-white"><use href="#bg" fill="#fff"/></symbol>
 <symbol id="full-black"><use href="#bg"/></symbol>
 <use id="main" href="#color"/>
</svg>