<?xml version="1.0" encoding="UTF-8"?>
<svg version="1.1" viewBox="0 0 32 32" xmlns="http://www.w3.org/2000/svg">
 <defs>
  <path id="bg" d="m15.75 0.001953a16 16 0 0 0 0 32 16 16 0 1 0 0-32zm0.1914 3.998a12 12 0 0 1 0 24 12 12 0 0 1 0-24zm0 2.668-0.0058 0.00195a9.356 9.356 0 0 0-7.668 3.996 43.16 43.16 0 0 1 2.457 0.666l0.04297-1.582c1.298 0.1616 2.556 0.4369 3.832 0.709 2.676 0.6096 4.14 1.037 5.461 1.666 1.188 0.5668 1.694 1.215 2.414 3.125 0.2892 0.7652 0.7949 2.455 0.7949 2.625 0 0.0932-0.9832 0.7364-1.502 1-1.464 0.7454-2.885 0.8256-4.705 0.25a21.05 21.05 0 0 1-4.375-2.127l-0.709-0.457 0.75 1.875 1 0.459c2.116 1.018 3.871 1.652 4.957 1.709 1.049 0.054 2.254-0.266 3.629-0.918 0.3658-0.1729 0.6722-0.293 0.709-0.293 0.09636 0 0.02568 0.4812-0.1699 1-0.1984 0.5472-0.3984 0.7554-1.334 1.209-1.784 0.8728-3.394 1.275-5.832 1.459-1.068 0.0794-1.958 0.01628-3.582-0.168-1.111-0.1276-1.962-0.1147-2.5-0.04102a9.264 9.264 0 0 0 6.336 2.5 9.336 9.336 0 1 0 0-18.66zm2.207 6.748-2e-3 2e-3a2.061 2.061 0 0 0-1.332 0.5391c-0.601 0.5444-0.7618 1.542-0.416 2.293a1.947 1.947 0 0 0 1.459 1.125 1.916 1.916 0 0 0 2.084-1.043c0.2523-0.5244 0.2916-0.879 0.1641-1.375a1.984 1.984 0 0 0-1.957-1.541zm0.457 1.043c0.34 0 0.742 0.17 0.793 0.377 0.06804 0.275-0.02084 0.4842-0.293 0.623-0.414 0.2126-0.9362 0.1678-1.248-0.127-0.3856-0.3628 0.05085-0.873 0.748-0.873z"/>
  <path id="fg" d="m16 4a12 12 0 1 0 0 24 12 12 0 0 0 0-24zm0 2.667a9.336 9.336 0 1 1 0 18.66 9.264 9.264 0 0 1-6.336-2.5c0.5384-0.07368 1.389-0.08504 2.5 0.04256 1.624 0.1842 2.514 0.2466 3.583 0.1672 2.438-0.1842 4.048-0.5868 5.832-1.46 0.9356-0.4536 1.134-0.6604 1.332-1.208 0.1956-0.5188 0.2664-1 0.1701-1-0.0368 0-0.343 0.119-0.7088 0.292-1.375 0.652-2.58 0.9724-3.628 0.9184-1.086-0.05668-2.84-0.6916-4.956-1.709l-1-0.4592-0.7512-1.874 0.7088 0.4564a21.05 21.05 0 0 0 4.376 2.126c1.82 0.5756 3.24 0.496 4.704-0.2494 0.5188-0.2636 1.502-0.9072 1.502-1 0-0.1701-0.5044-1.86-0.7936-2.625-0.72-1.91-1.227-2.557-2.415-3.124-1.321-0.6292-2.784-1.057-5.46-1.667-1.276-0.2721-2.534-0.5472-3.832-0.7088l-0.04256 1.582a43.16 43.16 0 0 0-2.458-0.666 9.356 9.356 0 0 1 7.668-3.997zm2.208 6.748a1.984 1.984 0 0 1 1.956 1.542c0.1276 0.496 0.08788 0.8504-0.1644 1.375a1.916 1.916 0 0 1-2.083 1.043 1.947 1.947 0 0 1-1.46-1.125c-0.3458-0.7512-0.1842-1.749 0.4168-2.293a2.061 2.061 0 0 1 1.332-0.5384zm0.4564 1.043c-0.6972 0-1.134 0.5104-0.7484 0.8732 0.3118 0.2948 0.8332 0.3402 1.247 0.1276 0.2721-0.1389 0.3628-0.3486 0.2948-0.6236-0.051-0.2069-0.4536-0.377-0.7936-0.377z"/>
 </defs>
 <symbol id="color">
  <use href="#bg" fill="#49bf3d"/>
  <use href="#fg" fill="#fff"/>
 </symbol>
 <symbol id="light-white"><use href="#fg" fill="#fff"/></symbol>
 <symbol id="light-black"><use href="#fg"/></symbol>
 <symbol id="full-white"><use href="#bg" fill="#fff"/></symbol>
 <symbol id="full-black"><use href="#bg"/></symbol>
 <use id="main" href="#color"/>
</svg>