<?xml version="1.0" encoding="UTF-8"?>
<svg version="1.1" viewBox="0 0 32 32" xmlns="http://www.w3.org/2000/svg">
 <defs>
  <path id="bg" d="m32 16a16 16 0 0 1-16 16 16 16 0 0 1-16-16 16 16 0 0 1 16-16 16 16 0 0 1 16 16z"/>
  <path id="fg" d="m16 0c-8.823 0-16 7.177-16 16 0 8.822 7.177 16 16 16 8.822-0.002478 16-7.178 16-16 0-8.823-7.177-16-16-16zm-14.3 22.27c1.102 0.1549 6.155 0.6047 9.766-3.677 0 0-0.57-0.1772-0.6927-0.772-0.0037-0.01239 0.1499 0.01983 0.1586 0.01983 2.607 0.1623 5.07-1.841 5.07-1.841-2.035 0.4572-7.507-2.275-7.244-2.038 0.4622 0.4139 0.3011 0.9851 0.3011 0.9851-2.928 0.5081-7.36-2.621-8.093-3.157 0.7113-2.556 2.069-4.902 3.998-6.83 0.316-0.316 0.6456-0.6134 0.9839-0.8996 0.1574 1.061 1.181 6.233 6.429 8.442 0 0 0.0087-0.5898 0.5527-0.8736 0.01115-0.0074 0.02602 0.1462 0.02602 0.1549 0.5886 2.507 3.047 4.216 3.047 4.216-1.024-1.788 0.264-7.691 0.1078-7.378-0.2714 0.5564-0.8736 0.5663-0.8736 0.5663-1.299-2.56 0.4659-7.73 0.8563-8.8 2.817 0.01611 5.519 0.7732 7.88 2.181-0.7993 0.4362-5.42 3.204-5.631 8.936 0 0 0.5614-0.2032 1.026 0.1945 0.01115 0.0074-0.1301 0.07559-0.1363 0.08054-2.166 1.444-3.229 4.219-3.229 4.219 1.328-1.585 7.714-2.428 7.358-2.454-0.6233-0.05328-0.8501-0.5998-0.8501-0.5998 1.944-2.1 7.009-2.374 8.123-2.408 0.6431 1.724 0.9815 3.565 0.9815 5.462 0 1.099-0.1152 2.181-0.3358 3.23-0.9257-0.8451-4.88-4.04-10.24-2.595 0 0 0.3643 0.4672 0.119 1.024-5e-3 0.01239-0.1115-0.1016-0.1202-0.1041-2.042-1.607-5.036-1.556-5.036-1.556 1.933 0.7745 4.638 6.305 4.562 5.962-0.1376-0.5998 0.3272-0.9777 0.3272-0.9777 2.576 1.186 4.417 6.028 4.838 7.227-2.191 1.75-4.781 2.866-7.552 3.25 0.5155-1.196 2.24-5.988-0.9331-10.45 0 0-0.3234 0.4957-0.9368 0.4548-0.01363 0 0.057-0.14 0.06072-0.145 0.8451-2.437-0.3656-5.325-0.3656-5.325-0.08798 2.052-4.309 6.556-4.008 6.371 0.5279-0.3321 1.045-0.02602 1.045-0.02602-0.2615 2.805-4.304 6.155-5.272 6.919-1.005-0.6245-1.947-1.366-2.804-2.224-1.397-1.395-2.492-3.011-3.263-4.767z"/>
 </defs>
 <symbol id="color">
  <use href="#bg" fill="#fff"/>
  <use href="#fg" fill="#dc2928"/>
 </symbol>
 <symbol id="light-white"><use href="#fg" fill="#fff"/></symbol>
 <symbol id="light-black"><use href="#fg"/></symbol>
 <symbol id="full-white"><use href="#bg" fill="#fff"/></symbol>
 <symbol id="full-black"><use href="#bg"/></symbol>
 <use id="main" href="#color"/>
</svg>