<?xml version="1.0" encoding="UTF-8"?>
<svg version="1.1" viewBox="0 0 32 32" xmlns="http://www.w3.org/2000/svg">
 <defs>
  <path id="bg" d="m16 0a16 16 0 0 0-16 16 16 16 0 0 0 16 16 16 16 0 0 0 16-16 16 16 0 0 0-16-16zm1.178 2c6.962 0.492 12.26 5.777 12.82 12.75h-9.619c-0.4134-1.642-1.553-2.908-3.203-3.275v-9.471zm-2.309 0.01172v9.51c-1.556 0.4257-2.764 1.658-3.158 3.225h-9.711c0.5607-6.909 5.973-12.17 12.87-12.73zm6.359 14.75 7.68 7.693-4.182 4.188-7.688-7.684 4.189-4.197zm-19.22 0.3555h9.643c0.4467 1.473 1.677 2.698 3.16 3.104v9.777c-6.857-0.5621-12.2-6.015-12.8-12.88z"/>
  <path id="fg" d="m17.18 2v9.471c1.65 0.3669 2.79 1.634 3.203 3.275h9.619c-0.5656-6.969-5.86-12.25-12.82-12.75zm-2.309 0.01172c-6.896 0.5652-12.31 5.826-12.87 12.73h9.711c0.3945-1.567 1.602-2.799 3.158-3.225v-9.51zm6.359 14.75-4.189 4.197 7.688 7.684 4.182-4.188-7.68-7.693zm-19.22 0.3555c0.6075 6.866 5.945 12.32 12.8 12.88v-9.777c-1.483-0.4054-2.713-1.63-3.16-3.104h-9.643z"/>
  <path id="c1_fg" d="m17.04 20.96 4.189-4.197 7.679 7.693-4.18 4.188z"/>
  <path id="c2_fg" d="m17.18 2v9.47c1.65 0.3669 2.789 1.635 3.203 3.277h9.62c-0.5656-6.969-5.86-12.25-12.82-12.75z"/>
  <path id="c3_fg" d="m14.87 2.012c-6.896 0.5652-12.31 5.825-12.87 12.73l9.711 8.1e-5c0.3945-1.567 1.601-2.799 3.157-3.225z"/>
  <path id="c4_fg" d="m2.004 17.12c0.6075 6.866 5.946 12.32 12.8 12.88v-9.777c-1.483-0.4054-2.715-1.631-3.161-3.104z"/>
 </defs>
 <symbol id="color">
  <use href="#bg" fill="#fff"/>
  <use href="#fg" fill="#fff"/>
  <use href="#c1_fg" fill="#ff5623"/>
  <use href="#c2_fg" fill="#4489ff"/>
  <use href="#c3_fg" fill="#3f51b5"/>
  <use href="#c4_fg" fill="#2f3e9f"/>
 </symbol>
 <symbol id="light-white"><use href="#fg" fill="#fff"/></symbol>
 <symbol id="light-black"><use href="#fg"/></symbol>
 <symbol id="full-white"><use href="#bg" fill="#fff"/></symbol>
 <symbol id="full-black"><use href="#bg"/></symbol>
 <use id="main" href="#color"/>
</svg>