<?xml version="1.0" encoding="UTF-8"?>
<svg version="1.1" viewBox="0 0 32 32" xmlns="http://www.w3.org/2000/svg">
 <defs>
  <path id="bg" d="m16 0c-8.836 0-16 7.164-16 16 0 8.836 7.164 16 16 16 8.836 0 16-7.164 16-16 0-8.836-7.164-16-16-16zm-2e-3 7.998c4.348 0 7.881 3.467 7.996 7.783h0.998a0.848 0.7028 0 0 1 0.6406 0.2461 0.848 0.7028 0 0 1 0.08984 0.8047l-1.162 1.668-1.164 1.664a0.848 0.7028 0 0 1-0.7695 0.3535 0.848 0.7028 0 0 1-0.6934-0.3516l-1.162-1.668-1.166-1.666a0.848 0.7028 0 0 1 0.7324-1.051h0.9902c-0.116-2.843-2.456-5.115-5.328-5.115-0.7364 0-1.334-0.5956-1.334-1.332 0-0.7364 0.5976-1.334 1.334-1.334zm-6.705 3.482 0.00195 2e-3a0.848 0.7028 0 0 1 0.08203 0 0.848 0.7028 0 0 1 0.6934 0.3516l1.16 1.668 1.164 1.666a0.848 0.7028 0 0 1-0.7324 1.051h-0.9883c0.112 2.844 2.455 5.115 5.328 5.115 0.7364 0 1.334 0.5956 1.334 1.332 5e-5 0.7364-0.5975 1.334-1.334 1.334-4.348 0-7.881-3.467-7.996-7.783h-0.998a0.848 0.7028 0 0 1-0.6406-0.248 0.848 0.7028 0 0 1-0.08984-0.8027l1.162-1.668 1.162-1.664a0.848 0.7028 0 0 1 0.6914-0.3535z"/>
  <path id="fg" d="m16 8c-0.7364 0-1.334 0.5976-1.334 1.334s0.5976 1.332 1.334 1.332c2.872 0 5.212 2.273 5.328 5.116h-0.9904a0.848 0.7028 0 0 0-0.7324 1.051l1.166 1.666 1.162 1.668a0.848 0.7028 0 0 0 0.6932 0.3516 0.848 0.7028 0 0 0 0.7696-0.3535l1.164-1.664 1.162-1.668a0.848 0.7028 0 0 0-0.08984-0.8048 0.848 0.7028 0 0 0-0.6408-0.2461h-0.998c-0.1151-4.316-3.648-7.784-7.996-7.784zm-6.708 3.48a0.848 0.7028 0 0 0-0.6896 0.3535l-1.162 1.664-1.164 1.668a0.848 0.7028 0 0 0 0.08984 0.8028 0.848 0.7028 0 0 0 0.6424 0.248h0.998c0.1151 4.316 3.648 7.784 7.996 7.784 0.7364 0 1.334-0.5976 1.334-1.334s-0.5976-1.332-1.334-1.332c-2.873 0-5.216-2.272-5.328-5.116h0.9884a0.848 0.7028 0 0 0 0.7324-1.051l-1.164-1.666-1.162-1.668a0.848 0.7028 0 0 0-0.6932-0.3516 0.848 0.7028 0 0 0-0.08204 3e-6z"/>
 </defs>
 <symbol id="color">
  <use href="#bg" fill="#4de255"/>
  <use href="#fg" fill="#fff"/>
 </symbol>
 <symbol id="light-white"><use href="#fg" fill="#fff"/></symbol>
 <symbol id="light-black"><use href="#fg"/></symbol>
 <symbol id="full-white"><use href="#bg" fill="#fff"/></symbol>
 <symbol id="full-black"><use href="#bg"/></symbol>
 <use id="main" href="#color"/>
</svg>