<?xml version="1.0" encoding="UTF-8"?>
<svg version="1.1" viewBox="0 0 32 32" xmlns="http://www.w3.org/2000/svg">
 <defs>
  <path id="bg" d="m22.76 15.96c0.1818 0.8616 0.1818 0.9508 0.1818 1.064 0 1.471-1.654 2.287-3.828 2.287-4.912 0.0032-9.216-2.876-9.216-4.776a1.938 1.938 0 0 1 0.1576-0.7712l0.3856-0.952a0.6756 0.6756 0 0 0-0.02312 0.1996c0 0.9688 3.814 4.144 8.924 4.144 1.313 0 3.215-0.2711 3.215-1.834a1.471 1.471 0 0 0-0.03152-0.3604zm-6.76-15.96a16 16 0 0 0-16 16 16 16 0 0 0 16 16 16 16 0 0 0 16-16 16 16 0 0 0-16-16zm0.1914 8.436c0.6568 0 2.878 0.8616 3.896 1.383 1.313 0.6564 1.472 0.9961 1.652 1.744l0.7832 3.398a1.471 1.471 0 0 1 0.03125 0.3594c-1e-6 0.1953-0.02941 0.3703-0.08398 0.5273 0.05512-0.1577 0.08594-0.3329 0.08594-0.5293a1.471 1.471 0 0 0-0.01953-0.3086l0.2227 0.9434v2e-3h0.0039c2.084 0.9056 3.238 2.423 3.238 3.76 0 1.699-1.199 3.85-5.955 3.85-6.204 0-14.04-4.075-14.04-7.383 0-2.019 2.29-2.336 4.053-2.424a1.938 1.938 0 0 0-0.1582 0.7715c0 0.1592 0.03354 0.3254 0.0918 0.4961-0.05781-0.17-0.08984-0.3355-0.08984-0.4941a1.938 1.938 0 0 1 0.1582-0.7715l0.3789-0.9355a0.6756 0.6756 0 0 1 2e-3 -0.02149c0.1156-0.3612 0.998-2.855 0.998-2.855 0.3176-0.8824 0.727-1.312 1.357-1.312 0.6576 0 1.179 0.5879 1.881 0.5879 0.7292 1e-7 0.908-0.7871 1.518-0.7871zm-0.3496 8.217c0.3037 0.08715 0.6158 0.1653 0.9375 0.2324-0.3217-0.06691-0.6338-0.1454-0.9375-0.2324zm1.928 0.3984c0.507 0.06481 1.031 0.1015 1.57 0.1016v-2e-3c-0.5389 0-1.063-0.03511-1.57-0.09961z"/>
  <path id="fg" d="m16.19 8.436c-0.6096 0-0.7884 0.7871-1.518 0.7871-0.702 0-1.223-0.5879-1.881-0.5879-0.6304 0-1.04 0.4301-1.357 1.312 0 0-0.8824 2.494-0.998 2.855a0.6756 0.6756 0 0 0-2e-3 0.02149l0.0059-0.01563a0.6756 0.6756 0 0 0-0.02344 0.1992c0 0.05941 0.01486 0.1284 0.04297 0.2031 5.39e-4 0.0014 0.0014 0.0025 2e-3 0.0039 0.01434 0.0371 0.03179 0.07683 0.05273 0.1172 4.25e-4 8.23e-4 0.0015 0.0011 2e-3 2e-3 0.02139 0.04104 0.04421 0.08287 0.07227 0.127 8.22e-4 0.0013 0.0011 0.0026 2e-3 0.0039 0.05545 0.08677 0.1247 0.1806 0.2051 0.2773 0.0019 0.0023 0.0039 0.0036 0.0059 0.0059 6.13e-4 7.34e-4 0.0013 0.0012 2e-3 2e-3 0.0011 0.0013 0.0028 0.0026 0.0039 0.0039 0.08218 0.09802 0.1749 0.201 0.2812 0.3066 7.05e-4 7e-4 0.0012 0.0013 2e-3 2e-3 6.78e-4 6.73e-4 0.0013 0.0013 2e-3 2e-3 0.1089 0.1079 0.2304 0.2188 0.3633 0.332 7.19e-4 6.14e-4 0.0012 0.0013 2e-3 2e-3 0.1331 0.1133 0.2777 0.2276 0.4336 0.3438 7.51e-4 5.59e-4 0.0012 0.0014 2e-3 2e-3 0.1561 0.1162 0.3223 0.2333 0.5 0.3496 7.76e-4 5.08e-4 0.0012 0.0014 2e-3 2e-3 0.1778 0.1164 0.3682 0.2318 0.5664 0.3457 7.87e-4 4.53e-4 0.0012 0.0015 2e-3 2e-3 0.1984 0.1139 0.4055 0.2251 0.623 0.334 7.96e-4 3.99e-4 0.0012 0.0016 2e-3 2e-3 0.2177 0.1089 0.446 0.2133 0.6816 0.3145 8.01e-4 3.44e-4 0.0012 0.0016 2e-3 2e-3 0.3541 0.1519 0.7279 0.2927 1.119 0.4199 1.176 0.3826 2.51 0.6348 3.947 0.6348v2e-3h2e-3c0.08207 0 0.1678-0.0015 0.2539-0.0039 0.1416-0.0039 0.2875-0.01136 0.4355-0.02344 0.06373-0.0052 0.1272-0.01248 0.1914-0.01953 0.2386-0.02606 0.4798-0.06229 0.7109-0.1191 0.0014-3.45e-4 0.0025-0.0016 0.0039-2e-3 0.3502-0.08649 0.6786-0.2129 0.9473-0.3965 7.63e-4 -5.24e-4 0.0012-0.0014 2e-3 -2e-3 0.0027-0.0019 0.0051-4e-3 0.0078-0.0059 0.06147-0.04276 0.1193-0.0897 0.1738-0.1387 0.0017-0.0015 0.0041-0.0024 0.0059-0.0039 6.87e-4 -6.22e-4 0.0013-0.0013 2e-3 -2e-3 0.05831-0.05296 0.113-0.1093 0.1621-0.1699 5.71e-4 -7.05e-4 0.0014-0.0012 2e-3 -2e-3 0.04902-0.06072 0.0922-0.1245 0.1309-0.1934 4.13e-4 -7.37e-4 0.0015-0.0012 2e-3 -2e-3 0.03857-0.06902 0.07066-0.143 0.09766-0.2207 0.05457-0.157 0.08398-0.332 0.08398-0.5273a1.471 1.471 0 0 0-0.03125-0.3594l-0.784-3.399c-0.1807-0.748-0.3389-1.088-1.652-1.744-1.018-0.5212-3.24-1.383-3.896-1.383zm-6.137 5.322c-1.763 0.08824-4.053 0.4046-4.053 2.424 0 3.308 7.841 7.383 14.04 7.383 4.756 0 5.955-2.151 5.955-3.85 0-1.336-1.155-2.854-3.238-3.76h-0.0039c0.1818 0.8616 0.1816 0.9509 0.1816 1.064 0 0.09126-0.0071 0.1814-0.01953 0.2676-9.1e-5 6.3e-4 9.2e-5 0.0013 0 2e-3 -0.07585 0.5206-0.3727 0.9463-0.834 1.271-4.25e-4 3e-4 -0.0015-3e-4 -2e-3 0-0.6919 0.4872-1.751 0.7461-2.973 0.7461-1.536 1e-3 -3.01-0.2801-4.314-0.7246-0.2599-0.08859-0.5145-0.1825-0.7598-0.2832-7.98e-4 -3.27e-4 -0.0012-0.0016-2e-3 -2e-3 -0.2452-0.1007-0.4821-0.2055-0.7109-0.3164-7.96e-4 -3.86e-4 -0.0012-0.0016-2e-3 -2e-3 -0.2287-0.1109-0.4496-0.2265-0.6602-0.3457-7.88e-4 -4.46e-4 -0.0012-0.0015-2e-3 -2e-3 -0.2104-0.1192-0.4111-0.2416-0.6016-0.3672-7.68e-4 -5.07e-4 -0.0012-0.0014-2e-3 -2e-3 -0.1903-0.1256-0.3705-0.2526-0.5391-0.3828-7.36e-4 -5.69e-4 -0.0012-0.0014-2e-3 -2e-3 -0.0839-0.06479-0.166-0.1297-0.2441-0.1953-7.21e-4 -6.05e-4 -0.0012-0.0013-2e-3 -2e-3 -0.0781-0.06555-0.1524-0.1312-0.2246-0.1973-6.93e-4 -6.35e-4 -0.0013-0.0013-2e-3 -2e-3 -0.07642-0.07005-0.1492-0.1405-0.2188-0.2109-0.06257-0.06343-0.1229-0.1279-0.1797-0.1914-0.05969-0.06676-0.1169-0.1326-0.1699-0.1992-3.35e-4 -4.21e-4 3.35e-4 -0.0015 0-2e-3 -0.05274-0.06626-0.1025-0.1333-0.1484-0.1992-5.28e-4 -7.58e-4 -0.0014-0.0012-2e-3 -2e-3 -0.04585-0.06585-0.08811-0.132-0.127-0.1973-4.67e-4 -7.86e-4 -0.0015-0.0012-2e-3 -2e-3 -0.0176-0.02961-0.03076-0.05843-0.04687-0.08789-0.01971-0.03608-0.04114-0.07161-0.05859-0.1074-0.03155-0.0646-0.05992-0.1298-0.08399-0.1934-0.00797-0.02109-0.0124-0.04155-0.01953-0.0625-0.05825-0.1707-0.0918-0.3369-0.0918-0.4961a1.938 1.938 0 0 1 0.1582-0.7715z"/>)
 </defs>
 <symbol id="color">
  <use href="#bg"/>
  <use href="#fg" fill="#f00"/>
 </symbol>
 <symbol id="light-white"><use href="#fg" fill="#fff"/></symbol>
 <symbol id="light-black"><use href="#fg"/></symbol>
 <symbol id="full-white"><use href="#bg" fill="#fff"/></symbol>
 <symbol id="full-black"><use href="#bg"/></symbol>
 <use id="main" href="#color"/>
</svg>