<?xml version="1.0" encoding="UTF-8"?>
<svg version="1.1" viewBox="0 0 32 32" xmlns="http://www.w3.org/2000/svg">
 <defs>
  <path id="bg" d="m16 0a16 16 0 0 0-16 16 16 16 0 0 0 16 16 16 16 0 0 0 16-16 16 16 0 0 0-16-16zm0.8809 5-2e-3 0.00195a11 11 0 0 1 3.793 0.6758 8.3 8.3 0 0 0-0.08398-0.00195 8.3 8.3 0 0 0-8.299 8.299 8.3 8.3 0 0 0 1.365 4.561c0.02528-0.01028 0.04894-0.01896 0.07422-0.02928 1.793-0.7316 3.677-1.595 5.508-2.527a2.5 2.5 0 0 1-0.05664-0.5293 2.5 2.5 0 0 1 2.5-2.5 2.5 2.5 0 0 1 1.734 0.7012c1.604-0.9816 3.055-1.987 4.203-2.969a0.85 0.85 0 0 1 0.5098-0.2031 0.85 0.85 0 0 1 0.6875 0.2969 0.85 0.85 0 0 1-0.09375 1.199c-1.277 1.092-2.844 2.18-4.557 3.223a2.5 2.5 0 0 1 0.01564 0.252 2.5 2.5 0 0 1-2.5 2.5 2.5 2.5 0 0 1-1.523-0.5195c-1.919 0.9804-3.898 1.88-5.785 2.65-2.544 1.037-4.913 1.834-6.791 2.266-0.9392 0.216-1.752 0.3438-2.443 0.3516-0.68 0.0076-1.332-0.03708-1.822-0.6211-0.1883-0.2144-0.3624-0.5995-0.3281-0.9727 0.0352-0.3836 0.2022-0.7052 0.4492-1.043 0.4412-0.6036 1.228-1.329 2.58-2.354a11 11 0 0 1-0.1348-1.707 11 11 0 0 1 11-11zm10.73 13.39 2e-3 2e-3a8.3 8.3 0 0 1-0.0039 0.0058 11 11 0 0 1-10.73 8.604 11 11 0 0 1-8.252-3.729c1.684-0.4584 3.648-1.135 5.744-1.99 0.4468-0.1822 0.9042-0.38 1.359-0.5762a8.3 8.3 0 0 0 4.859 1.572 8.3 8.3 0 0 0 7.023-3.881 11 11 0 0 0 2e-3 -0.0078zm-21.16 1.123c-0.8756 0.7056-1.346 1.19-1.572 1.486 0.08724 0.0226 0.00888 0.0044 0.2305 2e-3 0.4364-0.0049 1.087-0.1005 1.838-0.2617a11 11 0 0 1-0.4961-1.227z"/>
  <path id="fg" d="m16.88 5a11 11 0 0 0-11 11 11 11 0 0 0 0.1348 1.707c-1.352 1.024-2.139 1.75-2.58 2.354-0.247 0.3378-0.414 0.6592-0.4492 1.043-0.0343 0.3732 0.1398 0.7584 0.3281 0.9728 0.49 0.584 1.142 0.6288 1.822 0.6212 0.6916-0.0078 1.504-0.1355 2.443-0.3516 1.878-0.432 4.248-1.229 6.792-2.266 1.888-0.77 3.865-1.67 5.784-2.65a2.5 2.5 0 0 0 1.525 0.5196 2.5 2.5 0 0 0 2.5-2.5 2.5 2.5 0 0 0-0.01564-0.252c1.712-1.043 3.279-2.131 4.556-3.223a0.85 0.85 0 0 0 0.09376-1.199 0.85 0.85 0 0 0-0.6876-0.2969 0.85 0.85 0 0 0-0.5096 0.2031c-1.148 0.9816-2.6 1.987-4.204 2.969a2.5 2.5 0 0 0-1.734-0.7012 2.5 2.5 0 0 0-2.5 2.5 2.5 2.5 0 0 0 0.05664 0.5292c-1.831 0.9324-3.715 1.796-5.508 2.527-0.02528 0.01032-0.04896 0.01904-0.07424 0.02932a8.3 8.3 0 0 1-1.365-4.56 8.3 8.3 0 0 1 8.3-8.3 8.3 8.3 0 0 1 0.084 0.00195 11 11 0 0 0-3.793-0.6756zm10.74 13.39a8.3 8.3 0 0 1-7.028 3.887 8.3 8.3 0 0 1-4.86-1.572c-0.4552 0.1962-0.9124 0.3938-1.359 0.576-2.096 0.8548-4.06 1.534-5.744 1.992a11 11 0 0 0 8.252 3.728 11 11 0 0 0 10.74-8.612zm-21.16 1.121a11 11 0 0 0 0.496 1.226c-0.7512 0.1612-1.402 0.2568-1.838 0.2617-0.2216 0.0025-0.1432 0.0206-0.2305-2e-3 0.226-0.296 0.6968-0.7808 1.572-1.486z"/>
 </defs>
 <symbol id="color">
  <use href="#bg" fill="#333"/>
  <use href="#fg" fill="#dc322f"/>
 </symbol>
 <symbol id="light-white"><use href="#fg" fill="#fff"/></symbol>
 <symbol id="light-black"><use href="#fg"/></symbol>
 <symbol id="full-white"><use href="#bg" fill="#fff"/></symbol>
 <symbol id="full-black"><use href="#bg"/></symbol>
 <use id="main" href="#color"/>
</svg>