<?xml version="1.0" encoding="UTF-8"?>
<svg version="1.1" viewBox="0 0 32 32" xmlns="http://www.w3.org/2000/svg">
 <defs>
  <path id="bg" d="m16 0a16 16 0 0 0-16 16 16 16 0 0 0 16 16 16 16 0 0 0 16-16 16 16 0 0 0-16-16zm0.001953 7.5a1.7 1.821 0 0 1 1.701 1.82 1.7 1.821 0 0 1-1.701 1.822 1.7 1.821 0 0 1-1.701-1.822 1.7 1.821 0 0 1 1.701-1.82zm-3.4 3.328a1.7 1.821 0 0 1 1.699 1.82 1.7 1.821 0 0 1-1.699 1.822 1.7 1.821 0 0 1-1.701-1.822 1.7 1.821 0 0 1 1.701-1.82zm6.801 0a1.7 1.821 0 0 1 1.701 1.82 1.7 1.821 0 0 1-1.701 1.822 1.7 1.821 0 0 1-1.699-1.822 1.7 1.821 0 0 1 1.699-1.82zm-10.2 3.35a1.7 1.821 0 0 1 1.701 1.824 1.7 1.821 0 0 1-1.701 1.82 1.7 1.821 0 0 1-1.699-1.82 1.7 1.821 0 0 1 1.699-1.824zm6.803 0a1.7 1.821 0 0 1 1.699 1.824 1.7 1.821 0 0 1-1.699 1.82 1.7 1.821 0 0 1-1.701-1.82 1.7 1.821 0 0 1 1.701-1.824zm6.799 0a1.7 1.821 0 0 1 1.699 1.824 1.7 1.821 0 0 1-1.699 1.82 1.7 1.821 0 0 1-1.701-1.82 1.7 1.821 0 0 1 1.701-1.824zm-10.2 3.318a1.7 1.821 0 0 1 1.699 1.82 1.7 1.821 0 0 1-1.699 1.822 1.7 1.821 0 0 1-1.701-1.822 1.7 1.821 0 0 1 1.701-1.82zm6.801 0a1.7 1.821 0 0 1 1.701 1.82 1.7 1.821 0 0 1-1.701 1.822 1.7 1.821 0 0 1-1.699-1.822 1.7 1.821 0 0 1 1.699-1.82zm-3.398 3.361a1.7 1.821 0 0 1 1.699 1.822 1.7 1.821 0 0 1-1.699 1.82 1.7 1.821 0 0 1-1.703-1.82 1.7 1.821 0 0 1 1.703-1.822z"/>
  <path id="fg" d="m16 7.5a1.7 1.821 0 0 0-1.702 1.821 1.7 1.821 0 0 0 1.702 1.821 1.7 1.821 0 0 0 1.7-1.821 1.7 1.821 0 0 0-1.7-1.821zm-3.402 3.328a1.7 1.821 0 0 0-1.7 1.821 1.7 1.821 0 0 0 1.7 1.821 1.7 1.821 0 0 0 1.7-1.821 1.7 1.821 0 0 0-1.7-1.821zm6.802 0a1.7 1.821 0 0 0-1.7 1.821 1.7 1.821 0 0 0 1.7 1.821 1.7 1.821 0 0 0 1.7-1.821 1.7 1.821 0 0 0-1.7-1.821zm-10.2 3.35a1.7 1.821 0 0 0-1.7 1.823 1.7 1.821 0 0 0 1.7 1.821 1.7 1.821 0 0 0 1.7-1.821 1.7 1.821 0 0 0-1.7-1.823zm6.802 0a1.7 1.821 0 0 0-1.702 1.823 1.7 1.821 0 0 0 1.702 1.821 1.7 1.821 0 0 0 1.7-1.821 1.7 1.821 0 0 0-1.7-1.823zm6.798 0a1.7 1.821 0 0 0-1.7 1.823 1.7 1.821 0 0 0 1.7 1.821 1.7 1.821 0 0 0 1.7-1.821 1.7 1.821 0 0 0-1.7-1.823zm-10.2 3.318a1.7 1.821 0 0 0-1.7 1.821 1.7 1.821 0 0 0 1.7 1.821 1.7 1.821 0 0 0 1.7-1.821 1.7 1.821 0 0 0-1.7-1.821zm6.802 0a1.7 1.821 0 0 0-1.7 1.821 1.7 1.821 0 0 0 1.7 1.821 1.7 1.821 0 0 0 1.7-1.821 1.7 1.821 0 0 0-1.7-1.821zm-3.4 3.362a1.7 1.821 0 0 0-1.702 1.821 1.7 1.821 0 0 0 1.702 1.821 1.7 1.821 0 0 0 1.7-1.821 1.7 1.821 0 0 0-1.7-1.821z"/>
 </defs>
 <symbol id="color">
  <use href="#bg" fill="#364b7b"/>
  <use href="#fg" fill="#fbfdfc"/>
 </symbol>
 <symbol id="light-white"><use href="#fg" fill="#fff"/></symbol>
 <symbol id="light-black"><use href="#fg"/></symbol>
 <symbol id="full-white"><use href="#bg" fill="#fff"/></symbol>
 <symbol id="full-black"><use href="#bg"/></symbol>
 <use id="main" href="#color"/>
</svg>