<?xml version="1.0" encoding="UTF-8"?>
<svg version="1.1" viewBox="0 0 32 32" xmlns="http://www.w3.org/2000/svg">
 <defs>
  <path id="bg" d="m16 0a16 16 0 0 0-16 16 16 16 0 0 0 16 16 16 16 0 0 0 16-16 16 16 0 0 0-16-16zm-0.03711 6.949c1.36-1e-7 2.473 0.4759 3.48 1.254 0.01412-0.2366 0.04583-0.4621 0.1738-0.625 0.1496-0.1899 0.3922-0.2871 0.6582-0.2871 0.2658 0 0.5037 0.08962 0.6602 0.2773 0.1564 0.188 0.2227 0.4497 0.2227 0.7402v2.607c0 0.302-0.05864 0.562-0.2148 0.7539-0.1564 0.1919-0.402 0.2852-0.668 0.2852-0.2368 0-0.4628-0.08139-0.6172-0.2539-0.1528-0.1708-0.2326-0.4065-0.248-0.6914-0.0584-0.6544-0.419-1.221-1.01-1.637-0.5908-0.4157-1.407-0.6758-2.336-0.6758-0.9928 0-1.842 0.2814-2.43 0.7402-0.5879 0.4588-0.9219 1.088-0.9219 1.836 0 0.6848 0.299 1.255 0.8574 1.604 0.5876 0.392 1.214 0.5947 2.781 0.8516h0.007813c2.016 0.336 2.782 0.5499 3.607 1.055 1.1 0.66 1.764 1.88 1.764 3.289 0 1.33-0.6075 2.486-1.621 3.297-1.013 0.8108-2.434 1.279-4.076 1.279-1.582 0-2.92-0.6088-3.994-1.518v0.0625c0 0.302-0.05864 0.562-0.2148 0.7539-0.156 0.1919-0.4001 0.2891-0.666 0.2891-0.266 0-0.5137-0.09718-0.6699-0.2891-0.1562-0.192-0.2227-0.452-0.2227-0.7539v-2.812c0-0.302 0.06646-0.562 0.2227-0.7539 0.1564-0.1919 0.404-0.293 0.6699-0.293 0.2468 0 0.4728 0.07863 0.625 0.2539 0.1522 0.1752 0.2182 0.414 0.2324 0.6992 0.0584 0.7244 0.4943 1.366 1.205 1.842 0.7108 0.4759 1.691 0.7715 2.789 0.7715 1.135 0 2.105-0.3156 2.787-0.834 0.682-0.5184 1.082-1.228 1.082-2.049 0-0.7548-0.3816-1.465-0.9844-1.836-0.596-0.3724-1.065-0.5097-2.893-0.793-1.819-0.312-2.818-0.631-3.654-1.225-0.9416-0.6372-1.484-1.738-1.484-2.939 0-2.428 2.222-4.273 5.102-4.273l-0.001953-0.001953zm-8.436 14.12h1.076v3.229h15.07v1.076h-16.14v-4.305z"/>
  <path id="fg" d="m15.96 6.952c-2.88-8e-7 -5.1 1.844-5.1 4.272 0 1.202 0.5428 2.302 1.484 2.94 0.8364 0.5936 1.835 0.9128 3.654 1.225 1.828 0.2832 2.296 0.4204 2.892 0.7928 0.6028 0.371 0.9844 1.081 0.9844 1.836 0 0.8212-0.4 1.53-1.082 2.049s-1.652 0.834-2.787 0.834c-1.098 0-2.078-0.2957-2.789-0.7716-0.7108-0.476-1.147-1.117-1.205-1.842-0.01426-0.2852-0.0802-0.524-0.2324-0.6992-0.1522-0.1753-0.378-0.2539-0.6248-0.2539-0.266 0-0.5136 0.1011-0.67 0.293-0.1562 0.1919-0.2226 0.452-0.2226 0.754v2.812c0 0.3019 0.06648 0.562 0.2226 0.754 0.1562 0.1919 0.404 0.289 0.67 0.289 0.266 0 0.51-0.09716 0.666-0.289 0.1562-0.1919 0.2148-0.452 0.2148-0.754v-0.06248c1.074 0.9088 2.412 1.518 3.994 1.518 1.642 0 3.063-0.4684 4.076-1.279 1.014-0.8108 1.621-1.967 1.621-3.297 0-1.409-0.6636-2.629-1.764-3.289-0.8252-0.5048-1.591-0.7188-3.608-1.055h-0.0078c-1.567-0.2569-2.194-0.4596-2.781-0.8516-0.5584-0.349-0.8576-0.9188-0.8576-1.604 0-0.7476 0.3341-1.377 0.922-1.836 0.5876-0.4588 1.437-0.7404 2.43-0.7404 0.9292 0 1.745 0.2599 2.336 0.6756 0.5908 0.416 0.9512 0.9824 1.01 1.637 0.01544 0.2849 0.09524 0.5208 0.248 0.6916 0.1544 0.1725 0.3804 0.2539 0.6172 0.2539 0.266 0 0.5116-0.09328 0.668-0.2852 0.1562-0.1919 0.2148-0.452 0.2148-0.754v-2.608c0-0.2906-0.0662-0.5504-0.2226-0.7384-0.1564-0.1877-0.3942-0.2793-0.66-0.2793-0.266 0-0.5088 0.0972-0.6584 0.2871-0.128 0.1629-0.1597 0.3902-0.1738 0.6268-1.007-0.778-2.121-1.254-3.48-1.254zm-8.436 14.12v4.304h16.14v-1.076h-15.07v-3.228z"/>
 </defs>
 <symbol id="color">
  <use href="#bg" fill="#546db5"/>
  <use href="#fg" color="#000000" stroke="#fff"/>
 </symbol>
 <symbol id="light-white"><use href="#fg" fill="#fff"/></symbol>
 <symbol id="light-black"><use href="#fg"/></symbol>
 <symbol id="full-white"><use href="#bg" fill="#fff"/></symbol>
 <symbol id="full-black"><use href="#bg"/></symbol>
 <use id="main" href="#color"/>
</svg>