<?xml version="1.0" encoding="UTF-8"?>
<svg version="1.1" viewBox="0 0 32 32" xmlns="http://www.w3.org/2000/svg">
 <defs>
 <path id="bg" d="m9.785-6.065e-4 -0.001953 0.003906c-0.283 1.173-0.6605 2.393-1.096 3.634a14.93 15.16 0 0 1 2.582-1.172c-0.4849-0.7594-0.9745-1.553-1.485-2.466zm1.485 2.466c1.231 1.928 2.424 3.593 3.803 6.131 0.192 2.26 0.9793 13.97 1.061 15.04-4.112-0.3808-9.273-0.7286-14.16-1.71a14.93 15.16 0 0 0 1.67 3.372c5.165 0.4459 10.95 0.6611 15.94-0.07418 4.781-0.7102 8.797-2.298 10.98-5.267a14.93 15.16 0 0 0 0.1992-0.9274c-0.7649 0.9294-1.753 1.822-2.998 2.458 0.2208-2.207-0.5693-4.335-2.115-5.911-1.139-1.165-2.649-2.144-4.228-3.22 1.313 0.3658 2.811 0.8294 4.228 1.341 1.998 0.7186 3.878 1.648 5.269 2.63a14.93 15.16 0 0 0-14.92-14.68 14.93 15.16 0 0 0-4.729 0.8102zm19.65 13.87a14.93 15.16 0 0 1 0.01172 0.4803 14.93 15.16 0 0 1-0.166 2.22c0.5081-0.6175 0.9201-1.25 1.235-1.84-0.3099-0.2895-0.6777-0.5771-1.08-0.861zm-0.3536 3.628a14.93 15.16 0 0 1-0.05273 0.2499 14.39 14.61 0 0 0 0.06445-0.2636c-0.0035 0.0048-0.0082 0.0088-0.01172 0.01368zm0.01172-0.01368c0.0019-0.0026 4e-3 -0.0052 0.0058-0.0078h-0.0039a14.39 14.61 0 0 1-2e-3 0.0078zm-0.06445 0.2636a14.39 14.61 0 0 1-0.4588 1.611 14.93 15.16 0 0 0 0.4588-1.611zm-0.4588 1.611a14.93 15.16 0 0 1-0.1367 0.3749c0.0066-0.0059 0.01316-0.01188 0.01952-0.01756a14.39 14.61 0 0 0 0.1172-0.3574zm-0.1367 0.3749c-0.01244 0.01116-0.02492 0.02231-0.03712 0.03319 0.01104-0.0079 0.0222-0.01556 0.0332-0.02343a14.93 15.16 0 0 0 0.0039-0.0098zm-0.0039 0.0098a14.93 15.16 0 0 1-0.1445 0.3906c0.05449-0.1357 0.1157-0.2687 0.166-0.4063-0.0072 0.0052-0.01428 0.01048-0.02148 0.01564zm-0.1445 0.3906c-0.1262 0.3142-0.2625 0.6239-0.41 0.9274a14.93 15.16 0 0 0 0.41-0.9274zm-0.41 0.9274a14.93 15.16 0 0 1-0.6329 1.175c0.23-0.381 0.438-0.7746 0.6329-1.175zm-0.6329 1.175c-0.1399 0.2318-0.2874 0.4579-0.4396 0.6815a14.93 15.16 0 0 0 0.4396-0.6815zm-0.4396 0.6815a14.93 15.16 0 0 1-0.7461 1.013c0.2637-0.3261 0.5101-0.6663 0.7461-1.013zm-24.64-0.0801c-0.01223-0.0011-0.02489-0.0028-0.03711-0.0039 0.2463 0.3751 0.5193 0.7398 0.7989 1.091 0.01492 0.0012 0.02996 0.0024 0.04492 0.0039a14.93 15.16 0 0 1-0.8069-1.091zm0.8069 1.091a14.93 15.16 0 0 0 0.00195 0.0039c0.0436 0.0034 0.08733 0.0064 0.1309 0.0098-0.0442-0.0038-0.08853-0.0092-0.1328-0.01368zm0.00195 0.0039c-0.015-0.0012-0.02996-0.0027-0.04492-0.0039 3.271 4.239 8.961 6.375 14.21 5.347 0.5357-0.09342 1.061-0.2271 1.58-0.3827a14.93 15.16 0 0 1-4.208 0.6151 14.93 15.16 0 0 1-11.54-5.579zm15.75 4.963c0.6605-0.198 1.307-0.4391 1.932-0.7302a14.93 15.16 0 0 1-1.932 0.7302zm1.932-0.7302a14.93 15.16 0 0 0 0.09765-0.04491c-0.0324 0.0154-0.06517 0.02975-0.09765 0.04491zm0.09765-0.04491c0.5525-0.2623 1.089-0.5595 1.606-0.8886a14.93 15.16 0 0 1-1.606 0.8886zm1.606-0.8886a14.93 15.16 0 0 0 0.5705-0.3866c-0.188 0.1319-0.3767 0.2635-0.5705 0.3866zm0.5705-0.3866c0.3627-0.2545 0.7189-0.5191 1.059-0.8046a14.93 15.16 0 0 1-1.059 0.8046zm-22.43-7.378a14.93 15.16 0 0 1-0.7109-2.718c-0.4452 0.8042-0.8713 1.569-1.268 2.281 0.6521 0.1593 1.313 0.3035 1.979 0.4375zm-0.7109-2.718c2.479-4.479 5.549-10.24 7.421-15.58a14.93 15.16 0 0 0-7.625 13.18 14.93 15.16 0 0 0 0.2031 2.398zm15.13-10.08s7.253 5.799 10.31 12.89c-3.72 1.864-7.153 1.626-9.257 1.613 1.491-3.895 1.492-9.17-1.059-14.5l0.0039-0.00195zm11.13 17.27c-0.1863 0.2299-0.381 0.4531-0.5801 0.6719a14.93 15.16 0 0 0 0.5801-0.6719zm-0.5801 0.6719a14.93 15.16 0 0 1-0.8145 0.8278c0.2816-0.2658 0.5537-0.5415 0.8145-0.8278zm-0.8145 0.8278c-0.2037 0.1923-0.4092 0.3816-0.6233 0.5623a14.93 15.16 0 0 0 0.6233-0.5623z"/>
 <path id="fgm" d="m30.58 19.94c-2.181 2.983-6.205 4.575-11 5.287-5.005 0.737-10.8 0.5183-15.97 0.07034 0.2463 0.3751 0.5185 0.7398 0.7981 1.091 4.985 0.4011 10.17 1.966 15.02 1.25 4.044-0.5991 8.001-3.209 10.51-5.459a14.39 14.61 0 0 0 0.6413-2.24z"/>
 <path id="fgb" d="m19.73 26.25c-5.069 0.7266-10.23 0.5471-15.32 0.1511 3.271 4.239 8.961 6.375 14.21 5.347 5.077-0.8854 9.517-4.659 11.31-9.55-3.012 2.17-6.569 3.485-10.21 4.051z"/>
 <path id="fg" d="m9.785 0.003299c-1.719 7.13-6.669 15.9-9.785 21.49 5.433 1.327 11.46 1.714 16.13 2.147-0.08149-1.076-0.8677-12.79-1.06-15.04-1.922-3.538-3.484-5.367-5.289-8.598zm6.609 9.134c2.55 5.335 2.55 10.61 1.06 14.5 2.103 0.01336 5.537 0.251 9.257-1.613-3.058-7.094-10.31-12.89-10.31-12.89zm5.029 3.226c1.58 1.076 3.09 2.056 4.228 3.221 1.546 1.576 2.337 3.704 2.117 5.911 2.072-1.06 3.444-2.823 4.232-4.299-1.381-1.29-3.773-2.564-6.349-3.49-1.42-0.5127-2.918-0.9774-4.232-1.343z"/>
 </defs>
 <symbol id="color">
  <use href="#bg" fill="#4c5263"/>
  <use href="#fgm" fill="#fff"/>
  <use href="#fgb" fill="#5294e2"/>
  <use href="#fg" fill="#fff"/>
 </symbol>
 <symbol id="light-white"><use href="#fg" fill="#fff"/></symbol>
 <symbol id="light-black"><use href="#fg"/></symbol>
 <symbol id="full-white"><use href="#bg" fill="#fff"/></symbol>
 <symbol id="full-black"><use href="#bg"/></symbol>
 <use id="main" href="#color"/>
</svg>