<?xml version="1.0" encoding="UTF-8"?>
<svg version="1.1" viewBox="0 0 32 32" xmlns="http://www.w3.org/2000/svg">
 <defs>
  <path id="bg" d="m16 0a16 16 0 0 0-16 16 16 16 0 0 0 16 16 16 16 0 0 0 16-16 16 16 0 0 0-16-16zm-0.877 2.66c-2.709 5.332 0.1201 9.559 1.371 12.51-5.906-1.484-7.971-8.604-1.371-12.51zm6.857 2.289c0.8024-0.00536 1.669 0.1016 2.598 0.3398-5.686 1.855-6.674 6.844-7.875 9.814-2.736-4.572-0.3399-10.12 5.277-10.15zm-15.88 2.334c1.935 5.93 7.138 6.962 10.24 8.215-5.451 3.261-12.22-0.4673-10.24-8.215zm16.67 2.818c2.049-0.0238 4.216 1.124 5.809 3.816-4.972-2.525-8.914 0.1109-11.66 1.277 0.7788-3.097 3.221-5.063 5.855-5.094zm-1.934 4.303c3.675 0.0324 6.749 3.206 5.416 8.4-1.73-5.301-6.381-6.224-9.15-7.344 1.218-0.7288 2.509-1.067 3.734-1.057zm-3.895 1.275c6.449 1.621 8.705 9.397 1.498 13.66 2.958-5.822-0.132-10.44-1.498-13.66zm-0.4805 0.0293c-1.548 6.16-8.974 8.314-13.05 1.43 5.562 2.825 9.971-0.1247 13.05-1.43zm0.2754 0.1465c3.414 5.706-0.4892 12.8-8.6 10.72 6.208-2.026 7.288-7.474 8.6-10.72z"/>
  <path id="fg" d="m15.12 2.66c-6.6 3.904-4.535 11.02 1.371 12.51-1.251-2.949-4.08-7.176-1.371-12.51zm6.858 2.289c-5.617 0.03752-8.013 5.582-5.277 10.15 1.201-2.97 2.19-7.96 7.875-9.814-0.9284-0.2383-1.795-0.3452-2.598-0.3398zm-15.88 2.334c-1.988 7.748 4.786 11.48 10.24 8.215-3.098-1.252-8.302-2.284-10.24-8.215zm16.67 2.818c-2.635 0.03059-5.077 1.996-5.856 5.094 2.75-1.166 6.692-3.803 11.66-1.277-1.593-2.692-3.759-3.84-5.808-3.816zm-1.934 4.303c-1.225-0.01076-2.516 0.3278-3.734 1.057 2.769 1.12 7.421 2.043 9.15 7.344 1.333-5.194-1.741-8.368-5.416-8.4zm-3.895 1.275c1.366 3.22 4.456 7.838 1.498 13.66 7.207-4.263 4.951-12.04-1.498-13.66zm-0.4805 0.02928c-3.076 1.305-7.485 4.255-13.05 1.43 4.072 6.884 11.5 4.731 13.05-1.43zm0.2754 0.1465c-1.311 3.243-2.391 8.691-8.6 10.72 8.11 2.082 12.01-5.01 8.6-10.72z"/>
 </defs>
 <symbol id="color">
  <use href="#bg" fill="#38c1e4"/>
  <use href="#fg" fill="#f9f9f9"/>
 </symbol>
 <symbol id="light-white"><use href="#fg" fill="#fff"/></symbol>
 <symbol id="light-black"><use href="#fg"/></symbol>
 <symbol id="full-white"><use href="#bg" fill="#fff"/></symbol>
 <symbol id="full-black"><use href="#bg"/></symbol>
 <use id="main" href="#color"/>
</svg>