<?xml version="1.0" encoding="UTF-8"?>
<svg version="1.1" viewBox="0 0 32 32" xmlns="http://www.w3.org/2000/svg">
 <defs>
  <path id="bg" d="m14.86 0.04102a16 16 0 0 0-10.17 4.645 16 16 0 0 0 0 22.63 16 16 0 0 0 22.63 0 16 16 0 0 0 0-22.63 16 16 0 0 0-12.46-4.645zm1.143 5.959h0.001953a10 10 0 0 1 4.604 1.127 3.019 3.019 0 0 1 2.09-0.877 3.019 3.019 0 0 1 2.119 0.832 3.019 3.019 0 0 1 0.05078 0.05078 3.019 3.019 0 0 1 0.009765 4.26 10 10 0 0 1 1.125 4.605 10 10 0 0 1-1.127 4.607 3.019 3.019 0 0 1 0.04297 4.207 3.019 3.019 0 0 0 0 0.001953 3.019 3.019 0 0 0-0.001953 0 3.019 3.019 0 0 0 0 0.001953 3.019 3.019 0 0 0-0.001954 0 3.019 3.019 0 0 0 0 0.001953 3.019 3.019 0 0 0-0.001953 0 3.019 3.019 0 0 0 0 0.001953 3.019 3.019 0 0 0-0.001953 0 3.019 3.019 0 0 0 0 0.001954 3.019 3.019 0 0 1-0.003906 0 3.019 3.019 0 0 0 0 0.001953 3.019 3.019 0 0 0-0.001953 0 3.019 3.019 0 0 0 0 0.001953 3.019 3.019 0 0 0-0.001953 0 3.019 3.019 0 0 0 0 0.001953 3.019 3.019 0 0 0 0 0.001953 3.019 3.019 0 0 0-0.001953 0 3.019 3.019 0 0 0 0 0.001953 3.019 3.019 0 0 0-0.001953 0 3.019 3.019 0 0 0 0 0.001953 3.019 3.019 0 0 0-0.001954 0 3.019 3.019 0 0 0 0 0.001954 3.019 3.019 0 0 0-0.001953 0 3.019 3.019 0 0 0 0 0.001953 3.019 3.019 0 0 0-0.001953 0 3.019 3.019 0 0 0 0 0.001953 3.019 3.019 0 0 0-0.001953 0 3.019 3.019 0 0 0 0 0.001953 3.019 3.019 0 0 0-0.001953 0 3.019 3.019 0 0 0 0 0.001953 3.019 3.019 0 0 0-0.001953 0 3.019 3.019 0 0 0 0 0.001953 3.019 3.019 0 0 0-0.001953 0 3.019 3.019 0 0 0 0 0.001953 3.019 3.019 0 0 0-0.001954 0 3.019 3.019 0 0 0 0 0.001953 3.019 3.019 0 0 0-0.001953 0 3.019 3.019 0 0 0 0 0.001953 3.019 3.019 0 0 0-0.001953 0 3.019 3.019 0 0 0 0 0.001954 3.019 3.019 0 0 0-0.001953 0 3.019 3.019 0 0 0 0 0.001953 3.019 3.019 0 0 0-0.001953 0 3.019 3.019 0 0 0 0 0.001953 3.019 3.019 0 0 0-0.001953 0 3.019 3.019 0 0 0 0 0.001953 3.019 3.019 0 0 0-0.001953 0 3.019 3.019 0 0 0 0 0.001953 3.019 3.019 0 0 0-0.001953 0 3.019 3.019 0 0 0 0 0.001953 3.019 3.019 0 0 0-0.001953 0 3.019 3.019 0 0 0 0 0.001953 3.019 3.019 0 0 0-0.001954 0 3.019 3.019 0 0 1-4.26 0.007813 10 10 0 0 1-4.604 1.127 10 10 0 0 1-4.617-1.154l0.01953 0.01953a3.019 3.019 0 0 1-4.219 0.05078 3.019 3.019 0 0 1-0.05078-0.05078 3.019 3.019 0 0 1 0-4.27l0.02344 0.02344a10 10 0 0 1-1.158-4.619 10 10 0 0 1 1.158-4.619l-0.02344 0.02344a3.019 3.019 0 0 1-0.05078-4.219 3.019 3.019 0 0 1 0.05078-0.05078 3.019 3.019 0 0 1 2.135-0.8848 3.019 3.019 0 0 1 2.135 0.8848l-0.01953 0.01953a10 10 0 0 1 4.617-1.154zm-6.732 0.8516a2.415 2.415 0 0 0-1.709 0.709 2.415 2.415 0 0 0-0.1074 3.279 10 10 0 0 1 3.385-3.387 2.415 2.415 0 0 0-1.568-0.6016zm13.46 0a2.415 2.415 0 0 0-1.557 0.5918 10 10 0 0 1 3.393 3.396 2.415 2.415 0 0 0-0.127-3.279 2.415 2.415 0 0 0-1.709-0.709zm-6.793 0.3477a8.801 8.801 0 0 0-3.58 0.8125 7.612 7.612 0 0 0 1.447 3.469 5.031 5.031 0 0 1 2.195-0.5117 5.031 5.031 0 0 1 2.094 0.457c0.7067-0.9831 1.178-2.165 1.51-3.455a8.801 8.801 0 0 0-3.602-0.7715 8.801 8.801 0 0 0-0.06445 0zm0.0625 4.969a3.832 3.832 0 0 0-3.832 3.832 3.832 3.832 0 0 0 3.832 3.832 3.832 3.832 0 0 0 3.832-3.832 3.832 3.832 0 0 0-3.832-3.832zm8.125 0.457a7.459 7.459 0 0 1-3.488 1.449 5.031 5.031 0 0 1 0.3945 1.926 5.031 5.031 0 0 1-0.3945 1.926 7.459 7.459 0 0 1 3.469 1.436 8.801 8.801 0 0 0 0.6953-3.361 8.801 8.801 0 0 0-0.6758-3.375zm-16.23 0.02148a8.801 8.801 0 0 0-0.6914 3.354 8.801 8.801 0 0 0 0.6914 3.354c1.146-0.8958 2.295-1.137 3.475-1.42a5.031 5.031 0 0 1-0.3965-1.934 5.031 5.031 0 0 1 0.3965-1.934c-1.18-0.2827-2.328-0.5241-3.475-1.42zm5.914 7.873a7.612 7.612 0 0 0-1.447 3.469 8.801 8.801 0 0 0 3.645 0.8125 8.801 8.801 0 0 0 3.596-0.793c-0.3317-1.281-0.8012-2.456-1.504-3.434a5.031 5.031 0 0 1-2.094 0.457 5.031 5.031 0 0 1-2.195-0.5117zm-6.352 0.6406a2.415 2.415 0 0 0 0.1074 3.279 2.415 2.415 0 0 0 3.291 0.1152 10 10 0 0 1-3.398-3.395zm17.11 0a10 10 0 0 1-3.406 3.404 2.415 2.415 0 0 0 3.279-0.125 2.415 2.415 0 0 0 0.127-3.279z"/>
  <path id="fg" d="m16 6a10 10 0 0 0-4.617 1.154l0.01952-0.01956a3.019 3.019 0 0 0-2.135-0.8847 3.019 3.019 0 0 0-2.135 0.8847 3.019 3.019 0 0 0-0.05078 0.05078 3.019 3.019 0 0 0 0.05078 4.219l0.02344-0.02344a10 10 0 0 0-1.158 4.619 10 10 0 0 0 1.158 4.619l-0.02344-0.02344a3.019 3.019 0 0 0 0 4.27 3.019 3.019 0 0 0 0.05078 0.05078 3.019 3.019 0 0 0 4.219-0.05078l-0.01956-0.01956a10 10 0 0 0 4.617 1.154 10 10 0 0 0 4.604-1.127 3.019 3.019 0 0 0 4.26-0.0078 3.019 3.019 0 0 0 2e-3 0 3.019 3.019 0 0 0 0-2e-3 3.019 3.019 0 0 0 2e-3 0 3.019 3.019 0 0 0 0-2e-3 3.019 3.019 0 0 0 2e-3 0 3.019 3.019 0 0 0 0-2e-3 3.019 3.019 0 0 0 2e-3 0 3.019 3.019 0 0 0 0-2e-3 3.019 3.019 0 0 0 2e-3 0 3.019 3.019 0 0 0 0-2e-3 3.019 3.019 0 0 0 2e-3 0 3.019 3.019 0 0 0 0-2e-3 3.019 3.019 0 0 0 2e-3 0 3.019 3.019 0 0 0 0-2e-3 3.019 3.019 0 0 0 2e-3 0 3.019 3.019 0 0 0 0-2e-3 3.019 3.019 0 0 0 2e-3 0 3.019 3.019 0 0 0 0-2e-3 3.019 3.019 0 0 0 2e-3 0 3.019 3.019 0 0 0 0-2e-3 3.019 3.019 0 0 0 2e-3 0 3.019 3.019 0 0 0 0-2e-3 3.019 3.019 0 0 0 2e-3 0 3.019 3.019 0 0 0 0-2e-3 3.019 3.019 0 0 0 2e-3 0 3.019 3.019 0 0 0 0-2e-3 3.019 3.019 0 0 0 2e-3 0 3.019 3.019 0 0 0 0-2e-3 3.019 3.019 0 0 0 2e-3 0 3.019 3.019 0 0 0 0-2e-3 3.019 3.019 0 0 0 2e-3 0 3.019 3.019 0 0 0 0-2e-3 3.019 3.019 0 0 0 2e-3 0 3.019 3.019 0 0 0 0-2e-3 3.019 3.019 0 0 0 2e-3 0 3.019 3.019 0 0 0 0-2e-3 3.019 3.019 0 0 0 2e-3 0 3.019 3.019 0 0 0 0-2e-3 3.019 3.019 0 0 0 2e-3 0 3.019 3.019 0 0 0 0-2e-3 3.019 3.019 0 0 0 2e-3 0 3.019 3.019 0 0 0 0-2e-3 3.019 3.019 0 0 0 2e-3 0 3.019 3.019 0 0 0 0-2e-3 3.019 3.019 0 0 0 2e-3 0 3.019 3.019 0 0 0 0-2e-3 3.019 3.019 0 0 0 2e-3 0 3.019 3.019 0 0 0 0-2e-3 3.019 3.019 0 0 0 2e-3 0 3.019 3.019 0 0 0 0-2e-3 3.019 3.019 0 0 0 2e-3 0 3.019 3.019 0 0 0 0-2e-3 3.019 3.019 0 0 0-0.04294-4.207 10 10 0 0 0 1.127-4.608 10 10 0 0 0-1.125-4.606 3.019 3.019 0 0 0-0.0098-4.26 3.019 3.019 0 0 0-0.05078-0.05078 3.019 3.019 0 0 0-2.119-0.8328 3.019 3.019 0 0 0-2.09 0.8769 10 10 0 0 0-4.604-1.127zm-6.732 0.8516a2.415 2.415 0 0 1 1.568 0.6016 10 10 0 0 0-3.385 3.387 2.415 2.415 0 0 1 0.1074-3.279 2.415 2.415 0 0 1 1.709-0.709zm13.46 0a2.415 2.415 0 0 1 1.709 0.709 2.415 2.415 0 0 1 0.127 3.279 10 10 0 0 0-3.393-3.396 2.415 2.415 0 0 1 1.557-0.5918zm-6.793 0.3477a8.801 8.801 0 0 1 0.06445 0 8.801 8.801 0 0 1 3.602 0.7715c-0.332 1.29-0.8031 2.472-1.51 3.455a5.031 5.031 0 0 0-2.094-0.457 5.031 5.031 0 0 0-2.195 0.5117 7.612 7.612 0 0 1-1.447-3.469 8.801 8.801 0 0 1 3.58-0.8125zm0.0625 4.969a3.832 3.832 0 0 1 3.832 3.832 3.832 3.832 0 0 1-3.832 3.832 3.832 3.832 0 0 1-3.832-3.832 3.832 3.832 0 0 1 3.832-3.832zm8.125 0.457a8.801 8.801 0 0 1 0.6758 3.375 8.801 8.801 0 0 1-0.6953 3.361 7.459 7.459 0 0 0-3.469-1.436 5.031 5.031 0 0 0 0.3945-1.926 5.031 5.031 0 0 0-0.3945-1.926 7.459 7.459 0 0 0 3.488-1.449zm-16.23 0.02148c1.146 0.8958 2.295 1.137 3.475 1.42a5.031 5.031 0 0 0-0.3965 1.934 5.031 5.031 0 0 0 0.3965 1.934c-1.18 0.2827-2.328 0.5241-3.475 1.42a8.801 8.801 0 0 1-0.6914-3.353 8.801 8.801 0 0 1 0.6914-3.353zm5.914 7.873a5.031 5.031 0 0 0 2.195 0.5117 5.031 5.031 0 0 0 2.094-0.457c0.7027 0.9776 1.172 2.152 1.504 3.434a8.801 8.801 0 0 1-3.596 0.793 8.801 8.801 0 0 1-3.644-0.8125 7.612 7.612 0 0 1 1.447-3.469zm-6.352 0.6406a10 10 0 0 0 3.398 3.394 2.415 2.415 0 0 1-3.291-0.1152 2.415 2.415 0 0 1-0.1074-3.279zm17.11 0a2.415 2.415 0 0 1-0.127 3.279 2.415 2.415 0 0 1-3.279 0.125 10 10 0 0 0 3.406-3.404z"/> </defs>
 <symbol id="color">
  <use href="#bg" fill="#b81515"/>
  <use href="#fg" fill="#fff"/>
 </symbol>
 <symbol id="light-white"><use href="#fg" fill="#fff"/></symbol>
 <symbol id="light-black"><use href="#fg"/></symbol>
 <symbol id="full-white"><use href="#bg" fill="#fff"/></symbol>
 <symbol id="full-black"><use href="#bg"/></symbol>
 <use id="main" href="#color"/>
</svg>