<?xml version="1.0" encoding="UTF-8"?>
<svg version="1.1" viewBox="0 0 32 32" xmlns="http://www.w3.org/2000/svg">
 <defs>
  <path id="fg" d="m16 8c-2.048 0-4.094 0.7816-5.657 2.344-3.124 3.124-3.124 8.189 0 11.31 3.124 3.124 8.189 3.124 11.31 0 3.124-3.124 3.124-8.189 0-11.31-1.562-1.562-3.609-2.344-5.657-2.344zm-0.0826 2.286c1.544-0.0216 3.031 0.582 4.123 1.674 2.231 2.232 2.231 5.849 0 8.081-2.232 2.231-5.849 2.231-8.081 0-2.231-2.232-2.231-5.849 0-8.081 1.051-1.052 2.471-1.652 3.958-1.674zm-1.065 1.143v5.044l2.654 2.654 0.1049 0.105 0.8081-0.808-2.42-2.424v-4.571z"/>
  <path id="bg" d="m16 0c-8.837 0-16 7.163-16 16 0 8.837 7.163 16 16 16 8.837 0 16-7.163 16-16 0-8.837-7.163-16-16-16zm0 8c2.048 0 4.094 0.7816 5.656 2.344 3.124 3.124 3.124 8.188 0 11.31-3.125 3.124-8.188 3.124-11.31 0-3.124-3.124-3.124-8.188 0-11.31 1.562-1.562 3.609-2.344 5.656-2.344zm-0.08203 2.285c-1.487 0.02192-2.908 0.6221-3.959 1.674-2.231 2.232-2.231 5.85 0 8.082 2.232 2.231 5.85 2.231 8.082 0 2.231-2.232 2.231-5.85 0-8.082-1.092-1.092-2.579-1.695-4.123-1.674zm-1.064 1.143h1.146v4.572l2.42 2.424-0.8086 0.8086-0.1055-0.1055-2.652-2.654v-5.045z"/>
 </defs>
 <symbol id="color">
  <use href="#bg" fill="#4d4d4d"/>
  <use href="#fg" fill="#fff"/>
 </symbol>
 <symbol id="light-white"><use href="#fg" fill="#fff"/></symbol>
 <symbol id="light-black"><use href="#fg"/></symbol>
 <symbol id="full-white"><use href="#bg" fill="#fff"/></symbol>
 <symbol id="full-black"><use href="#bg"/></symbol>
 <use id="main" href="#color"/>
</svg>