<?xml version="1.0" encoding="UTF-8"?>
<svg version="1.1" viewBox="0 0 32 32" xmlns="http://www.w3.org/2000/svg">
 <title>Ubuntu Studio v3</title>
 <defs>
 <path id="bg" d="m16 0a16 16 0 0 0-16 16 16 16 0 0 0 16 16 16 16 0 0 0 16-16 16 16 0 0 0-16-16zm-0.02148 5h0.001953 0.01953c-0.1976 0.008999-0.395 0.02333-0.5918 0.04297 0.1897-0.01926 0.3799-0.03359 0.5703-0.04297zm2.369 1.576h0.001953c0.06108 0.00422 0.1226 0.01446 0.1836 0.03125 1.643 0.4528 3.037 1.222 4.234 2.434 0.1039 0.1026 0.1847 0.2286 0.2305 0.3672 0.08708 0.2566 0.03548 0.5581-0.0918 0.7812-0.07636 0.1338-0.1826 0.2385-0.3223 0.3223-0.1861 0.1117-0.3953 0.1642-0.5977 0.1367-0.2025-0.02743-0.4039-0.1178-0.5527-0.2754-0.9992-1.012-2.034-1.642-3.406-2.02-0.4928-0.1355-0.7782-0.6135-0.6426-1.105 0.1187-0.4297 0.5316-0.7001 0.9629-0.6719zm-2.393 2.857c1.665-2.2e-6 3.332 0.6351 4.604 1.904 1.283 1.28 1.918 2.974 1.906 4.664 0.01168 1.689-0.6231 3.382-1.906 4.664-2.543 2.538-6.665 2.538-9.209 0-0.2283-0.2215-0.3544-0.5655-0.2734-0.873 0.081-0.3073 0.3346-0.5149 0.6426-0.5957 0.308-0.08085 0.653-0.001667 0.875 0.2266 1.868 1.864 4.853 1.864 6.721 0 0.9456-0.9436 1.41-2.183 1.398-3.42 0.0118-1.237-0.4528-2.476-1.398-3.42-1.868-1.864-4.853-1.864-6.721 0-0.222 0.2283-0.567 0.3074-0.875 0.2266-0.308-0.08085-0.5614-0.2904-0.6426-0.5977-0.08096-0.3073 0.04512-0.6495 0.2734-0.8711 1.272-1.269 2.938-1.904 4.602-1.904l0.003906-0.003906zm-0.001953 3.053h0.001953c0.8824 0 1.765 0.3371 2.439 1.01 0.686 0.6844 1.019 1.597 1.008 2.504 0.01176 0.9072-0.322 1.818-1.008 2.502-1.348 1.346-3.529 1.346-4.879 0-0.686-0.6844-1.019-1.595-1.008-2.502-0.01174-0.9072 0.322-1.82 1.008-2.504 0.6744-0.6728 1.555-1.01 2.438-1.01zm-8.326 0.3809c0.06184 0.003999 0.1219 0.01667 0.1836 0.0332 0.4936 0.1323 0.7773 0.6092 0.6445 1.102-0.1864 0.6944-0.2776 1.346-0.2754 1.998-0.00219 0.652 0.08899 1.304 0.2754 1.998 0.1326 0.4928-0.1509 0.9696-0.6445 1.102-0.4936 0.1323-1.018-0.1498-1.15-0.6426-0.2227-0.8292-0.3322-1.643-0.3301-2.457-0.0021-0.814 0.1074-1.629 0.3301-2.459 0.116-0.4312 0.534-0.7014 0.9668-0.6738zm2.906 0.7383v0.001953c0.05792 0.0031 0.1169 0.01155 0.1758 0.02734 0.4712 0.1262 0.7709 0.6316 0.6445 1.102-0.1217 0.4532-0.1766 0.8581-0.1719 1.264-0.0047 0.4056 0.05016 0.8105 0.1719 1.264 0.1264 0.4704-0.1735 0.9756-0.6445 1.102-0.4712 0.1261-0.9302-0.1723-1.057-0.6426-0.1561-0.5812-0.2308-1.152-0.2266-1.723-0.00428-0.5704 0.07048-1.143 0.2266-1.725 0.1106-0.4116 0.4753-0.6907 0.8809-0.6699zm5.469 0.6367c-0.97 1.17e-4 -1.757 0.7878-1.758 1.758 1.18e-4 0.97 0.7878 1.757 1.758 1.758 0.97-1.15e-4 1.757-0.7878 1.758-1.758-1.18e-4 -0.97-0.7878-1.757-1.758-1.758zm6.137 7.102c0.1528 0.008025 0.3039 0.05882 0.4434 0.1426 0.1396 0.08373 0.2459 0.1884 0.3223 0.3223 0.1273 0.2231 0.1808 0.5248 0.09375 0.7812-0.0458 0.1386-0.1265 0.2645-0.2305 0.3672-1.196 1.212-2.592 1.983-4.236 2.436-0.4928 0.1355-1.014-0.1528-1.15-0.6445-0.1358-0.492 0.1497-0.9683 0.6426-1.104 1.372-0.3781 2.409-1.007 3.408-2.02 0.1491-0.1576 0.3504-0.246 0.5527-0.2734 0.05062-0.006866 0.1033-0.01051 0.1543-0.007812z"/>
 <path id="sh" d="m15.98 5a11 11 0 0 0-10.98 11 11 11 0 0 0 11 11 11 11 0 0 0 11-11 11 11 0 0 0-11-11 11 11 0 0 0-0.02148 0zm2.368 1.577c0.06172 0.00416 0.1232 0.01312 0.1848 0.03008 1.643 0.4528 3.038 1.222 4.236 2.434 0.1039 0.1026 0.1841 0.2288 0.2299 0.3674 0.08708 0.2566 0.03488 0.5588-0.0924 0.782-0.07636 0.1338-0.1826 0.2385-0.3223 0.3223-0.1861 0.1117-0.3948 0.1628-0.5972 0.1354-0.2025-0.02743-0.4032-0.1174-0.552-0.275-0.9992-1.012-2.035-1.642-3.408-2.02-0.4928-0.1355-0.778-0.6124-0.6424-1.104 0.1188-0.4304 0.5328-0.7016 0.9648-0.6724zm-2.393 2.858c1.665-2e-6 3.332 0.6344 4.604 1.904 1.283 1.28 1.917 2.974 1.906 4.664 0.01168 1.689-0.6224 3.382-1.906 4.664-2.543 2.538-6.664 2.538-9.208 0-0.2283-0.2215-0.356-0.5648-0.275-0.8724 0.081-0.3073 0.3344-0.5164 0.6424-0.5972 0.308-0.08085 0.6544-5.06e-4 0.8764 0.2277 1.868 1.864 4.852 1.864 6.72 0 0.9456-0.9436 1.41-2.183 1.399-3.42 0.0118-1.237-0.4532-2.477-1.399-3.42-1.868-1.864-4.852-1.864-6.72 0-0.222 0.2283-0.5684 0.3086-0.8764 0.2277-0.308-0.08085-0.5612-0.2899-0.6424-0.5972-0.08096-0.3073 0.04668-0.6508 0.275-0.8724 1.272-1.269 2.937-1.904 4.6-1.904zm0 3.053c0.8824 0 1.766 0.3369 2.441 1.01 0.686 0.6844 1.019 1.596 1.008 2.503 0.01176 0.9072-0.3218 1.818-1.008 2.503-1.348 1.346-3.53 1.346-4.88 0-0.686-0.6844-1.019-1.596-1.008-2.503-0.01174-0.9072 0.3218-1.818 1.008-2.503 0.6744-0.6728 1.556-1.01 2.438-1.01zm-8.328 0.3803c0.06184 4e-3 0.123 0.01568 0.1848 0.03221 0.4936 0.1323 0.7772 0.6096 0.6444 1.102-0.1864 0.6944-0.2772 1.346-0.275 1.998-0.00219 0.652 0.0886 1.304 0.275 1.998 0.1326 0.4928-0.1508 0.97-0.6444 1.102-0.4936 0.1323-1.019-0.1496-1.152-0.6424-0.2227-0.8292-0.3308-1.644-0.3287-2.458-0.0021-0.814 0.106-1.628 0.3287-2.458 0.116-0.4312 0.534-0.7024 0.9668-0.6748zm2.907 0.7392c0.05792 0.0031 0.1173 0.01216 0.1762 0.02795 0.4712 0.1262 0.7708 0.632 0.6444 1.102-0.1217 0.4532-0.1766 0.8576-0.1719 1.263-0.0047 0.4056 0.05016 0.81 0.1719 1.263 0.1264 0.4704-0.1733 0.976-0.6444 1.102-0.4712 0.1261-0.9308-0.1721-1.057-0.6424-0.1561-0.5812-0.2299-1.152-0.2256-1.723-0.00428-0.5704 0.06952-1.142 0.2256-1.723 0.1106-0.4116 0.4752-0.6912 0.8808-0.6704zm5.468 0.636c-0.97 1.19e-4 -1.757 0.7876-1.758 1.758 1.18e-4 0.97 0.7876 1.757 1.758 1.758 0.97-1.17e-4 1.757-0.7876 1.758-1.758-1.18e-4 -0.97-0.7876-1.757-1.758-1.758zm5.984 7.108c0.2025-0.02752 0.4112 0.02368 0.5972 0.1354 0.1396 0.08373 0.2459 0.1884 0.3223 0.3223 0.1273 0.2231 0.1795 0.5256 0.0924 0.782-0.0458 0.1386-0.126 0.2647-0.2299 0.3674-1.196 1.212-2.591 1.982-4.236 2.434-0.4928 0.1355-1.014-0.1527-1.15-0.6444-0.1358-0.492 0.1495-0.9668 0.6424-1.102 1.372-0.3781 2.408-1.007 3.408-2.02 0.1491-0.1576 0.3497-0.2476 0.552-0.275z"/>
 <path id="fg" d="m15.98 5a11 11 0 0 0-0.5703 0.04297 11 11 0 0 1 0.5918-0.04297 11 11 0 0 0-0.01953 0zm-0.5703 0.04297a11 11 0 0 0-0.9922 0.07227 11 11 0 0 1 0.9922-0.07227zm-2.512 0.4043a11 11 0 0 0-0.8398 0.3125 11 11 0 0 1 0.8398-0.3125zm-0.8398 0.3125a11 11 0 0 0-0.6348 0.2383 11 11 0 0 1 0.6348-0.2383zm-0.8848 0.375a11 11 0 0 0-1.129 0.6191 11 11 0 0 1 1.129-0.6191zm7.176 0.4414c-0.4313-0.02824-0.8442 0.2421-0.9629 0.6719-0.1356 0.492 0.1498 0.9699 0.6426 1.105 1.372 0.378 2.407 1.008 3.406 2.02 0.1488 0.1576 0.3503 0.248 0.5527 0.2754 0.2024 0.02748 0.4115-0.025 0.5977-0.1367 0.1396-0.0838 0.2459-0.1884 0.3223-0.3223 0.1273-0.2232 0.1789-0.5246 0.0918-0.7812-0.0458-0.1386-0.1265-0.2646-0.2305-0.3672-1.198-1.212-2.591-1.981-4.234-2.434-0.06097-0.01679-0.1225-0.02704-0.1836-0.03125zm-2.393 2.857-0.0039 0.00391c-1.663 0-3.33 0.6351-4.602 1.904-0.2283 0.2216-0.3544 0.5638-0.2734 0.8711 0.0812 0.3073 0.3346 0.5168 0.6426 0.5977 0.308 0.08083 0.653 0.0017 0.875-0.2266 1.868-1.864 4.853-1.864 6.721 0 0.9456 0.9436 1.41 2.183 1.398 3.42 0.0116 1.237-0.4528 2.476-1.398 3.42-1.868 1.864-4.853 1.864-6.721 0-0.222-0.2282-0.567-0.3074-0.875-0.2266-0.308 0.08081-0.5616 0.2884-0.6426 0.5957-0.08096 0.3076 0.04512 0.6515 0.2734 0.873 2.544 2.538 6.666 2.538 9.209 0 1.283-1.282 1.918-2.975 1.906-4.664 0.0116-1.69-0.6231-3.384-1.906-4.664-1.272-1.269-2.938-1.904-4.604-1.904zm-9.963 2.002a11 11 0 0 0-0.5469 1.469 11 11 0 0 1 0.5469-1.469zm9.961 1.051c-0.8824 0-1.763 0.337-2.438 1.01-0.6858 0.6844-1.02 1.597-1.008 2.504-0.0116 0.9072 0.3218 1.818 1.008 2.502 1.35 1.346 3.531 1.346 4.879 0 0.6858-0.6844 1.02-1.595 1.008-2.502 0.0116-0.9072-0.3218-1.82-1.008-2.504-0.6744-0.6727-1.557-1.01-2.439-1.01zm-8.326 0.3809c-0.4328-0.0276-0.8508 0.2426-0.9668 0.6738-0.2227 0.8296-0.3322 1.645-0.3301 2.459-0.00208 0.814 0.1074 1.628 0.3301 2.457 0.1328 0.4928 0.6568 0.7749 1.15 0.6426 0.4936-0.132 0.7771-0.6088 0.6445-1.102-0.1864-0.694-0.2776-1.346-0.2754-1.998-0.0022-0.652 0.08899-1.304 0.2754-1.998 0.1328-0.4924-0.1509-0.9693-0.6445-1.102-0.06172-0.01653-0.1218-0.0292-0.1836-0.0332zm2.906 0.7383c-0.4056-0.0208-0.7702 0.2583-0.8809 0.6699-0.1561 0.5816-0.2308 1.154-0.2266 1.725-0.00428 0.5708 0.07048 1.141 0.2266 1.723 0.1264 0.4703 0.5854 0.7687 1.057 0.6426 0.4711-0.126 0.7709-0.6312 0.6445-1.102-0.1217-0.4532-0.1766-0.8581-0.1719-1.264-0.0047-0.4056 0.05015-0.8105 0.1719-1.264 0.1264-0.47-0.1733-0.9754-0.6445-1.102-0.05888-0.01579-0.1179-0.02424-0.1758-0.02734zm5.469 0.6367c0.97 3.99e-4 1.758 0.7878 1.758 1.758-4e-4 0.97-0.7878 1.758-1.758 1.758-0.97-3.98e-4 -1.758-0.7878-1.758-1.758 4e-4 -0.97 0.7878-1.758 1.758-1.758zm6.137 7.102c-0.05095-0.0027-0.1037 9.33e-4 -0.1543 0.0078-0.2023 0.02743-0.4037 0.1158-0.5527 0.2734-0.9992 1.012-2.036 1.641-3.408 2.02-0.4929 0.1352-0.7784 0.6115-0.6426 1.104 0.136 0.4917 0.6576 0.7801 1.15 0.6445 1.645-0.4524 3.04-1.224 4.236-2.436 0.1039-0.1027 0.1847-0.2286 0.2305-0.3672 0.08708-0.2564 0.03353-0.5582-0.09375-0.7812-0.0764-0.1339-0.1826-0.2385-0.3223-0.3223-0.1395-0.08376-0.2905-0.1346-0.4434-0.1426z"/>
 </defs>
 <symbol id="color">
  <use href="#bg" fill="#009bf9"/>
  <use href="#sh" fill="#fff"/>
  <use href="#fg" fill="#009bf9"/>
 </symbol>
 <symbol id="light-white"><use href="#fg" fill="#fff"/></symbol>
 <symbol id="light-black"><use href="#fg"/></symbol>
 <symbol id="full-white"><use href="#bg" fill="#fff"/></symbol>
 <symbol id="full-black"><use href="#bg"/></symbol>
 <use id="main" href="#color"/>
</svg>