<?xml version="1.0" encoding="UTF-8"?>
<svg version="1.1" viewBox="0 0 32 32" xmlns="http://www.w3.org/2000/svg">
 <defs>
  <path id="bg" d="m16 0c-8.836 0-16 7.164-16 16 0 8.836 7.164 16 16 16 8.836 0 16-7.164 16-16 0-8.836-7.164-16-16-16zm-3.633 10h9.629c0.5556-2e-3 1.006 0.4487 1.004 1.004v9.992c2e-3 0.5552-0.4487 1.006-1.004 1.004h-9.629c-0.2884 6e-4 -0.5616-0.1235-0.752-0.3398l-4.371-5.004c-0.3281-0.3764-0.3281-0.936 0-1.312l4.371-5.004c0.1904-0.2163 0.4638-0.3404 0.752-0.3398zm2.617 3.02a1 1 0 0 0-0.6777 0.293 1 1 0 0 0 0 1.414l1.275 1.273-1.275 1.273a1 1 0 0 0 0 1.414 1 1 0 0 0 1.414 0l1.275-1.273 1.273 1.273a1 1 0 0 0 1.414 0 1 1 0 0 0 0-1.414l-1.273-1.273 1.273-1.273a1 1 0 0 0 0-1.414 1 1 0 0 0-1.414 0l-1.273 1.273-1.275-1.273a1 1 0 0 0-0.7363-0.293z"/>
  <path id="fg" d="m12.37 10c-0.2882-5.82e-4 -0.5616 0.1235-0.752 0.3398l-4.372 5.004c-0.3281 0.3765-0.3281 0.936 0 1.312l4.372 5.004c0.1904 0.2163 0.4636 0.3404 0.752 0.3398h9.628c0.5552 0.0021 1.006-0.4488 1.004-1.004v-9.992c0.0021-0.5552-0.4484-1.006-1.004-1.004zm2.617 3.02a1 1 0 0 1 0.7364 0.293l1.274 1.274 1.274-1.274a1 1 0 0 1 1.414 0 1 1 0 0 1 0 1.414l-1.274 1.274 1.274 1.274a1 1 0 0 1 0 1.414 1 1 0 0 1-1.414 0l-1.274-1.274-1.274 1.274a1 1 0 0 1-1.414 0 1 1 0 0 1 0-1.414l1.274-1.274-1.274-1.274a1 1 0 0 1 0-1.414 1 1 0 0 1 0.6776-0.293z"/>
 </defs>
 <symbol id="color">
  <use href="#bg" fill="#4d4d4d"/>
  <use href="#fg" fill="#fff"/>
 </symbol>
 <symbol id="light-white"><use href="#fg" fill="#fff"/></symbol>
 <symbol id="light-black"><use href="#fg"/></symbol>
 <symbol id="full-white"><use href="#bg" fill="#fff"/></symbol>
 <symbol id="full-black"><use href="#bg"/></symbol>
 <use id="main" href="#color"/>
</svg>