<svg version="1.1" viewBox="0 0 32 32" xmlns="http://www.w3.org/2000/svg">
 <path fill="#111" d="m13 19.2v-0.539c0.236-0.098 0.448-0.233 0.649-0.386l0.477 0.275c0.08 0.047 0.169 0.071 0.261 0.071 0.045 0 0.09-6e-3 0.134-0.018 0.134-0.036 0.249-0.124 0.317-0.243l0.636-1.1c0.144-0.249 0.058-0.569-0.192-0.713l-0.479-0.278c0.014-0.124 0.036-0.245 0.036-0.372 0-0.128-0.022-0.25-0.036-0.373l0.479-0.276c0.12-0.07 0.207-0.184 0.244-0.318 0.036-0.135 0.016-0.276-0.052-0.396l-0.636-1.1c-0.096-0.167-0.271-0.261-0.452-0.261-0.089 0-0.178 0.022-0.26 0.07l-0.477 0.275c-0.201-0.153-0.414-0.288-0.649-0.387v-0.537c0-0.289-0.234-0.523-0.522-0.523h-1.27c-0.289 0-0.522 0.234-0.522 0.523v0.537c-0.235 0.099-0.449 0.234-0.648 0.387l-0.478-0.276c-0.08-0.046-0.169-0.069-0.259-0.069-0.046 0-0.092 6e-3 -0.137 0.018-0.134 0.036-0.247 0.123-0.317 0.242l-0.635 1.1c-0.143 0.25-0.058 0.57 0.191 0.714l0.479 0.276c-0.014 0.123-0.037 0.246-0.037 0.373s0.022 0.249 0.037 0.372l-0.479 0.277c-0.249 0.144-0.334 0.464-0.191 0.714l0.635 1.1c0.07 0.119 0.184 0.207 0.317 0.243 0.044 0.011 0.09 0.018 0.135 0.018 0.092 0 0.181-0.024 0.261-0.071l0.476-0.275c0.2 0.153 0.415 0.288 0.649 0.386v0.539c0 0.288 0.233 0.522 0.522 0.522h1.27c0.289 0 0.522-0.234 0.522-0.522zm-2.6-3.3c0-0.796 0.646-1.44 1.44-1.44 0.797 0 1.44 0.645 1.44 1.44 0 0.795-0.645 1.44-1.44 1.44-0.794-0-1.44-0.645-1.44-1.44zm5.88-6.37c-0.1-0.059-0.215-0.088-0.329-0.088-0.057 0-0.115 7e-3 -0.171 0.022-0.169 0.046-0.311 0.155-0.399 0.307l-0.8 1.38c-0.182 0.315-0.075 0.717 0.241 0.899l0.604 0.348c-8e-3 0.054-0.015 0.108-0.022 0.162 0.118 0.106 0.225 0.224 0.305 0.365l0.636 1.1c0.204 0.355 0.257 0.766 0.15 1.16-0.074 0.27-0.216 0.509-0.414 0.699 0.092 0.088 0.169 0.19 0.236 0.298l0.563-0.325c0.252 0.192 0.52 0.362 0.817 0.487v0.678c0 0.363 0.295 0.657 0.659 0.657h1.6c0.363 0 0.658-0.294 0.658-0.657v-0.678c0.297-0.124 0.565-0.295 0.816-0.487l0.602 0.347c0.101 0.058 0.215 0.088 0.33 0.088 0.056 0 0.112-7e-3 0.169-0.022 0.168-0.045 0.313-0.156 0.4-0.307l0.799-1.38c0.182-0.315 0.074-0.717-0.241-0.899l-0.605-0.349c0.02-0.156 0.049-0.308 0.049-0.469 0-0.16-0.029-0.314-0.049-0.47l0.604-0.348c0.152-0.087 0.262-0.231 0.306-0.399 0.046-0.169 0.022-0.348-0.065-0.5l-0.8-1.38c-0.121-0.211-0.343-0.329-0.57-0.329-0.112 0-0.225 0.028-0.328 0.088l-0.602 0.346c-0.251-0.192-0.52-0.362-0.816-0.486v-0.678c0-0.363-0.295-0.659-0.658-0.659h-1.6c-0.363 0-0.659 0.295-0.659 0.659v0.678c-0.296 0.124-0.565 0.294-0.817 0.486zm2.87 0.955c1.32 0 2.39 1.07 2.39 2.39 0 1.32-1.07 2.39-2.39 2.39s-2.39-1.07-2.39-2.39 1.07-2.39 2.39-2.39zm5.17-3.11h-3.39c0.386 0.284 0.651 0.727 0.682 1.23 0.229-0.114 0.483-0.175 0.741-0.175 0.33 0 0.643 0.107 0.911 0.284h1.05c0.173 0 0.313 0.141 0.313 0.313v1.69c0.19 0.372 0.24 0.791 0.132 1.19-0.031 0.118-0.078 0.228-0.132 0.334v1.26c0.235 0.463 0.252 1.02 0 1.52v3.76c0 0.173-0.14 0.313-0.313 0.313h-8.78c-0.198 0.229-0.463 0.4-0.759 0.48-0.13 0.036-0.265 0.053-0.399 0.053-0.145 0-0.287-0.02-0.423-0.059-0.018 0.068-0.042 0.134-0.067 0.198-0.146 0.363-0.427 0.655-0.782 0.819v0.888c-1.05 0.114-1.88 0.999-1.88 2.08v0.617c0 0.278 0.226 0.504 0.504 0.504h8.49c0.277 0 0.503-0.226 0.503-0.504v-0.617c0-1.08-0.826-1.97-1.88-2.08v-1.03h5.48c0.913 0 1.66-0.743 1.66-1.66v-9.75c-0-0.914-0.744-1.66-1.66-1.66zm-4.6 16.2v0.113h-7.48v-0.113c0-0.605 0.492-1.1 1.1-1.1h5.28c0.606 0 1.1 0.492 1.1 1.1zm-10-3.99c-0.137 0.04-0.279 0.06-0.423 0.06-0.133 0-0.267-0.017-0.401-0.053-0.298-0.082-0.558-0.249-0.757-0.48h-0.505c-0.173 0-0.313-0.141-0.313-0.313v-1.05c-0.257-0.471-0.239-1.02 0-1.46v-0.743c-0.238-0.441-0.255-0.989 0-1.46v-5.03c0-0.173 0.14-0.313 0.313-0.313h7.4c0.149-0.098 0.31-0.18 0.489-0.228 0.14-0.037 0.285-0.057 0.431-0.057 0.258 0 0.513 0.06 0.74 0.174 0.032-0.508 0.297-0.949 0.683-1.23h-9.74c-0.913 0-1.66 0.743-1.66 1.66v9.75c0 0.914 0.744 1.66 1.66 1.66h2.68c-0.29-0.208-0.507-0.513-0.596-0.87zm9.43-4.98c0.946 0 1.72-0.769 1.72-1.72 0-0.946-0.77-1.72-1.72-1.72s-1.72 0.769-1.72 1.72 0.769 1.72 1.72 1.72z"/>
</svg>
