<svg version="1.1" viewBox="0 0 32 32" xmlns="http://www.w3.org/2000/svg">
 <path fill="#111" d="m27.2 16.9-3.9-7.94a1.9 1.54 0 0 0-1.77-0.969h-2.99l0.467 4.05h3.32l-6.28 4.22-6.28-4.22h3.32l0.467-4.05h-2.99c-0.778 0-1.48 0.383-1.77 0.969l-3.9 7.94a5.23 4.24 0 0 0-0.302 2.27l0.726 3.54a1.9 1.54 0 0 0 1.87 1.29h17.7c0.929 0 1.72-0.545 1.87-1.29l0.726-3.54a5.19 4.21 0 0 0-0.301-2.27zm-2.58 4.34a1.11 0.903 0 0 1-1.09 0.753h-15a1.11 0.903 0 0 1-1.09-0.753l-0.449-2.19a1.11 0.903 0 0 1 1.09-1.05h15.8c0.686 0 1.21 0.499 1.09 1.05z"/>
</svg>
