<svg version="1.1" viewBox="0 0 32 32" xmlns="http://www.w3.org/2000/svg">
 <path fill="#111" d="m6.83 8v2.17h-0.612c-0.675 0-1.22 0.523-1.22 1.17v9.34c0 0.645 0.548 1.17 1.22 1.17h0.612v2.17h1.22v-2.17h1.22v2.17h1.22v-2.17h1.22v2.17h1.22v-2.17h1.22v2.17h1.22v-2.17h1.22v2.17h1.22v-2.17h1.22v2.17h1.22v-2.17h1.22v2.17h1.22v-2.17h1.22v2.17h1.22v-2.17h0.612c0.675 0 1.22-0.523 1.22-1.17v-9.34c0-0.645-0.548-1.17-1.22-1.17h-0.612v-2.17h-1.22v2.17h-1.22v-2.17h-1.22v2.17h-1.22v-2.17h-1.22v2.17h-1.22v-2.17h-1.22v2.17h-1.22v-2.17h-1.22v2.17h-1.22v-2.17h-1.22v2.17h-1.22v-2.17h-1.22v2.17h-1.22v-2.17zm1.3 5.35h1.38v3.06c0 0.421 0.0716 0.724 0.215 0.906 0.145 0.18 0.382 0.27 0.71 0.27 0.329 0 0.566-0.0903 0.71-0.27 0.145-0.183 0.219-0.484 0.219-0.906v-3.06h1.38v3.06c0 0.723-0.19 1.26-0.57 1.62-0.38 0.357-0.959 0.53-1.74 0.53-0.776 0-1.35-0.176-1.74-0.53-0.379-0.353-0.569-0.891-0.569-1.62zm5.23 0h3.72v0.995h-2.35v0.95h2.2v0.995h-2.2v1.17h2.42v0.995h-3.8zm4.65 0h3.72v0.995h-2.35v0.95h2.2v0.995h-2.2v2.16h-1.38zm4.4 0h1.38v5.1h-1.38z"/>
</svg>
