<svg version="1.1" viewBox="0 0 32 32" xmlns="http://www.w3.org/2000/svg">
 <path fill="#111" d="m7.67 7.56v1.11h-0.556c-0.613 0-1.11 0.497-1.11 1.11v12.4c0 0.614 0.498 1.11 1.11 1.11h0.556v1.11h1.11v-1.11h1.11v1.11h1.11v-1.11h1.11v1.11h1.11v-1.11h1.11v1.11h1.11v-1.11h1.11v1.11h1.11v-1.11h1.11v1.11h1.11v-1.11h1.11v1.11h1.11v-1.11h1.11v1.11h1.11v-1.11h0.556c0.613 0 1.11-0.497 1.11-1.11v-12.4c0-0.614-0.498-1.11-1.11-1.11h-0.556v-1.11h-1.11v1.11h-1.11v-1.11h-1.11v1.11h-1.11v-1.11h-1.11v1.11h-1.11v-1.11h-1.11v1.11h-1.11v-1.11h-1.11v1.11h-1.11v-1.11h-1.11v1.11h-1.11v-1.11h-1.11v1.11h-1.11v-1.11zm6.87 2.6h2.92l0.126 1.54c0.491 0.178 0.949 0.438 1.35 0.769l1.39-0.659 1.46 2.54-1.27 0.878c0.044 0.256 0.067 0.516 0.067 0.776s-0.022 0.52-0.067 0.776l1.27 0.878-1.46 2.54-1.4-0.659c-0.401 0.333-0.855 0.596-1.34 0.776l-0.125 1.54h-2.92l-0.125-1.55c-0.491-0.177-0.949-0.437-1.35-0.768l-1.4 0.659-1.46-2.54 1.27-0.878c-0.044-0.256-0.066-0.516-0.066-0.776s0.022-0.52 0.066-0.776l-1.27-0.878 1.46-2.54 1.4 0.659c0.401-0.333 0.855-0.596 1.34-0.776zm1.44 4.18c-0.913 0.013-1.65 0.756-1.65 1.67 0 0.922 0.748 1.67 1.67 1.67 0.922-0 1.67-0.748 1.67-1.67-0-0.922-0.748-1.67-1.67-1.67h-0.023z"/>
</svg>
