<svg version="1.1" viewBox="0 0 32 32" xmlns="http://www.w3.org/2000/svg">
 <path fill="#111" d="m16 7c-4.97 0-9 4.03-9 9s4.03 9 9 9 9-4.03 9-9-4.03-9-9-9zm-3.48 2.11c-0.161 0.223-0.316 0.463-0.462 0.72-0.223 0.393-0.422 0.815-0.597 1.26-0.372-0.103-0.742-0.218-1.11-0.346 0.618-0.665 1.35-1.22 2.17-1.64zm-3.1 2.86c0.528 0.198 1.06 0.372 1.6 0.521-0.221 0.874-0.357 1.81-0.404 2.77h-2.3c0.114-1.2 0.502-2.32 1.1-3.29zm0 8.06c-0.6-0.977-0.988-2.1-1.1-3.29h2.3c0.046 0.965 0.183 1.9 0.404 2.77-0.536 0.149-1.07 0.323-1.6 0.521zm0.933 1.23c0.368-0.128 0.738-0.243 1.11-0.345 0.175 0.446 0.374 0.869 0.598 1.26 0.146 0.257 0.301 0.497 0.462 0.72-0.817-0.415-1.55-0.971-2.17-1.64zm4.92 2.09c-0.941-0.353-1.78-1.37-2.36-2.76 0.781-0.144 1.57-0.233 2.36-0.268zm0-4.5c-0.944 0.038-1.89 0.149-2.82 0.332-0.192-0.755-0.319-1.58-0.365-2.43h3.19zm0-3.57h-3.19c0.046-0.858 0.173-1.68 0.365-2.43 0.935 0.183 1.88 0.294 2.82 0.332zm0-3.58c-0.789-0.034-1.58-0.123-2.36-0.267 0.581-1.4 1.42-2.41 2.36-2.76zm7.32 0.28c0.6 0.976 0.988 2.1 1.1 3.29h-2.3c-0.046-0.965-0.183-1.9-0.404-2.77 0.536-0.149 1.07-0.323 1.6-0.521zm-0.933-1.23c-0.368 0.128-0.738 0.243-1.11 0.345-0.175-0.447-0.374-0.869-0.598-1.26-0.146-0.257-0.301-0.497-0.462-0.72 0.817 0.415 1.55 0.971 2.17 1.64zm-4.92-2.09c0.941 0.353 1.78 1.37 2.36 2.76-0.781 0.144-1.57 0.233-2.36 0.268zm0 4.5c0.944-0.038 1.89-0.149 2.82-0.332 0.192 0.755 0.319 1.58 0.365 2.43h-3.19zm0 3.57h3.19c-0.046 0.859-0.173 1.68-0.365 2.43-0.935-0.183-1.88-0.294-2.82-0.332zm0 6.61v-3.03c0.788 0.034 1.58 0.123 2.36 0.268-0.581 1.4-1.42 2.41-2.36 2.76zm2.75-0.45c0.161-0.223 0.316-0.463 0.462-0.72 0.223-0.392 0.423-0.815 0.598-1.26 0.372 0.102 0.743 0.218 1.11 0.345-0.619 0.665-1.35 1.22-2.17 1.64zm3.1-2.86c-0.528-0.198-1.06-0.372-1.6-0.521 0.221-0.874 0.357-1.81 0.404-2.77h2.3c-0.114 1.2-0.502 2.32-1.1 3.29z"/>
</svg>
