<svg version="1.1" viewBox="0 0 32 32" xmlns="http://www.w3.org/2000/svg">
 <path fill="#111" d="m6.83 8v2.17h-0.611c-0.675 0-1.22 0.523-1.22 1.17v9.34c0 0.645 0.549 1.17 1.22 1.17h0.611v2.17h1.22v-2.17h1.22v2.17h1.22v-2.17h1.22v2.17h1.22v-2.17h1.22v2.17h1.22v-2.17h1.22v2.17h1.22v-2.17h1.22v2.17h1.22v-2.17h1.22v2.17h1.22v-2.17h1.22v2.17h1.22v-2.17h0.611c0.675 0 1.22-0.523 1.22-1.17v-9.34c0-0.645-0.549-1.17-1.22-1.17h-0.611v-2.17h-1.22v2.17h-1.22v-2.17h-1.22v2.17h-1.22v-2.17h-1.22v2.17h-0.555v3.98h2.5l-5 4.85-5-4.85h2.5v-3.98h-0.555v-2.17h-1.22v2.17h-1.22v-2.17h-1.22v2.17h-1.22v-2.17z"/>
</svg>
