<svg version="1.1" viewBox="0 0 32 32" xmlns="http://www.w3.org/2000/svg">
 <path fill="#111" d="m21.6 12.4h-2.39c-0.405 0-0.734 0.328-0.734 0.734v2.39c0 0.405 0.328 0.734 0.734 0.734h0.46v1c0 0.401-0.326 0.728-0.727 0.728h-2.22v-6.93h0.935c0.269 0 0.517-0.148 0.645-0.385s0.116-0.525-0.031-0.751l-1.67-2.55c-0.136-0.207-0.366-0.332-0.614-0.332s-0.478 0.125-0.614 0.332l-1.67 2.55c-0.148 0.225-0.16 0.514-0.031 0.751 0.128 0.237 0.376 0.385 0.645 0.385h0.935v6.93h-2.22c-0.401 0-0.727-0.326-0.727-0.728v-1.15c0.7-0.289 1.19-0.979 1.19-1.78 0-1.06-0.864-1.93-1.93-1.93s-1.93 0.864-1.93 1.93c0 0.803 0.494 1.49 1.19 1.78v1.15c0 1.21 0.984 2.2 2.2 2.2h2.22v1.88c-0.7 0.289-1.19 0.979-1.19 1.78-1e-3 1.06 0.863 1.93 1.93 1.93s1.93-0.864 1.93-1.93c0-0.803-0.494-1.49-1.19-1.78v-1.88h2.22c1.21 0 2.2-0.985 2.2-2.2v-1h0.46c0.405 0 0.734-0.328 0.734-0.734v-2.39c0-0.405-0.328-0.734-0.734-0.734z"/>
</svg>
