<?xml version="1.0" encoding="UTF-8"?>
<svg version="1.1" viewBox="0 0 32 32" xmlns="http://www.w3.org/2000/svg">
 <defs>
 <path id="bg" d="m16 0a16 16 0 0 0-16 16 16 16 0 0 0 16 16 16 16 0 0 0 16-16 16 16 0 0 0-16-16zm-4.98 11.12 1.252 2e-3v6.191h1.154v1.068h-1.154v2.488h-1.268v-2.488h-4.359v-0.8867c0.1791-0.413 0.4233-0.8904 0.7324-1.434 0.3093-0.554 0.6565-1.123 1.041-1.703 0.3942-0.583 0.8109-1.155 1.252-1.717 0.4511-0.5632 0.9008-1.071 1.35-1.521zm4.668 0h1.195c0.2546 0.415 0.5262 0.9049 0.8164 1.467 0.2904 0.561 0.5827 1.151 0.875 1.771 0.2904 0.609 0.5703 1.223 0.8418 1.844l0.7461 1.678 0.7441-1.678c0.2733-0.621 0.5553-1.234 0.8457-1.844 0.2904-0.62 0.5807-1.209 0.8711-1.771 0.2923-0.5639 0.5659-1.054 0.8184-1.467h1.195c0.3206 3.144 0.5604 6.397 0.7188 9.754h-1.34c-0.0471-1.312-0.1019-2.612-0.168-3.898-0.066-1.294-0.1502-2.496-0.2539-3.605-0.0924 0.1603-0.2186 0.3917-0.3789 0.6914-0.1509 0.3012-0.3151 0.6425-0.4922 1.025-0.1773 0.3771-0.3708 0.781-0.5781 1.211-0.1961 0.4221-0.3834 0.8348-0.5625 1.238-0.1773 0.4035-0.3456 0.7801-0.5059 1.127-0.1509 0.347-0.2749 0.6333-0.3691 0.8594h-1.096c-0.0943-0.2263-0.2206-0.5126-0.3809-0.8594l-0.4922-1.125c-0.1773-0.4032-0.3689-0.8159-0.5762-1.238-0.1962-0.4318-0.3854-0.8357-0.5645-1.211-0.1773-0.3842-0.3456-0.7273-0.5059-1.027-0.1509-0.2998-0.2729-0.5292-0.3672-0.6895-0.1019 1.109-0.1859 2.311-0.252 3.605-0.066 1.286-0.1228 2.584-0.1699 3.896h-1.334c0.03775-0.843 0.0798-1.693 0.127-2.547 0.0452-0.863 0.09578-1.705 0.1523-2.531 0.066-0.836 0.1313-1.649 0.1973-2.436 0.0754-0.788 0.1573-1.535 0.2422-2.24zm-4.684 1.553c-0.281 0.3-0.5673 0.6365-0.8574 1.012-0.283 0.3656-0.5586 0.7508-0.8301 1.154-0.2714 0.4032-0.5302 0.8178-0.7734 1.24-0.2357 0.4221-0.4461 0.8348-0.6328 1.238h3.094z"/>
 <path id="bgw" d="m16 4.184c-6.525-2.244e-4 -11.82 5.289-11.82 11.81-2.244e-4 6.526 5.29 11.82 11.82 11.82 6.526 2.25e-4 11.82-5.29 11.82-11.82-8.54e-4 -6.525-5.291-11.81-11.82-11.81zm-4.979 6.941h1.252v6.191h1.154v1.07h-1.154v2.488h-1.268v-2.488h-4.359v-0.8867c0.1791-0.4128 0.4233-0.8904 0.7324-1.434 0.3093-0.5544 0.6565-1.123 1.041-1.703 0.3941-0.5827 0.8109-1.155 1.252-1.717 0.4507-0.5637 0.9008-1.071 1.35-1.521zm4.668 0h1.193c0.2546 0.4149 0.5262 0.903 0.8164 1.465 0.2904 0.5619 0.5827 1.153 0.875 1.773 0.2904 0.6091 0.5703 1.223 0.8418 1.844l0.7461 1.676 0.7441-1.676c0.2733-0.6203 0.5553-1.234 0.8457-1.844 0.2904-0.6203 0.5807-1.211 0.8711-1.773 0.2923-0.5637 0.5658-1.052 0.8184-1.465h1.195c0.3205 3.144 0.5604 6.395 0.7188 9.752h-1.338c-0.04712-1.313-0.1039-2.613-0.1699-3.898-0.066-1.294-0.1502-2.495-0.2539-3.604-0.09237 0.1603-0.2186 0.3917-0.3789 0.6914-0.1509 0.3016-0.3151 0.6425-0.4922 1.025-0.1773 0.3771-0.3689 0.7811-0.5762 1.211-0.1961 0.4224-0.3834 0.8348-0.5625 1.238-0.1773 0.4035-0.3475 0.78-0.5078 1.127-0.1509 0.3469-0.2729 0.6332-0.3672 0.8594h-1.096c-0.09427-0.2263-0.2206-0.5126-0.3809-0.8594l-0.4922-1.125c-0.1773-0.4035-0.3689-0.8159-0.5762-1.238-0.1961-0.4317-0.3854-0.8357-0.5645-1.211-0.1773-0.3845-0.3455-0.7273-0.5059-1.027-0.1509-0.2997-0.2729-0.5292-0.3672-0.6895-0.1018 1.109-0.1859 2.31-0.252 3.604-0.066 1.286-0.1228 2.586-0.1699 3.898h-1.334c0.03771-0.8429 0.07981-1.693 0.127-2.547 0.04525-0.8635 0.09578-1.707 0.1523-2.533 0.066-0.8352 0.1313-1.647 0.1973-2.434 0.07541-0.788 0.1573-1.535 0.2422-2.24zm-4.684 1.551c-0.2811 0.2997-0.5673 0.6365-0.8574 1.012-0.2829 0.3659-0.5586 0.7508-0.8301 1.154s-0.5302 0.8178-0.7734 1.24c-0.2357 0.4224-0.4461 0.8348-0.6328 1.238h3.094z"/>
 <path id="fg" d="m11.02 11.12c-0.4488 0.4507-0.8989 0.9578-1.35 1.521-0.4411 0.5619-0.8578 1.134-1.252 1.717-0.3845 0.5805-0.7317 1.149-1.041 1.703-0.3091 0.5432-0.5533 1.021-0.7324 1.434v0.8867h4.359v2.488h1.268v-2.488h1.154v-1.07h-1.154v-6.191zm4.668 0c-0.08488 0.7056-0.1668 1.452-0.2422 2.24-0.066 0.7867-0.1313 1.598-0.1973 2.434-0.05656 0.8261-0.1071 1.67-0.1523 2.533-0.04715 0.8541-0.08925 1.704-0.127 2.547h1.334c0.04712-1.312 0.1039-2.612 0.1699-3.898 0.06602-1.294 0.1501-2.495 0.252-3.604 0.09429 0.1603 0.2163 0.3897 0.3672 0.6895 0.1603 0.3 0.3286 0.6428 0.5059 1.027 0.1791 0.3752 0.3683 0.7792 0.5645 1.211 0.2073 0.4224 0.3989 0.8348 0.5762 1.238l0.4922 1.125c0.1603 0.3468 0.2866 0.6331 0.3809 0.8594h1.096c0.09427-0.2261 0.2163-0.5124 0.3672-0.8594 0.1603-0.3469 0.3305-0.7235 0.5078-1.127 0.1791-0.4035 0.3664-0.8159 0.5625-1.238 0.2073-0.4299 0.3989-0.8339 0.5762-1.211 0.1771-0.3829 0.3413-0.7238 0.4922-1.025 0.1603-0.2997 0.2865-0.5311 0.3789-0.6914 0.1037 1.109 0.1879 2.31 0.2539 3.604 0.06602 1.286 0.1228 2.586 0.1699 3.898h1.338c-0.1584-3.357-0.3982-6.608-0.7188-9.752h-1.195c-0.2525 0.4131-0.5261 0.9011-0.8184 1.465-0.2904 0.5621-0.5807 1.153-0.8711 1.773-0.2904 0.6093-0.5724 1.223-0.8457 1.844l-0.7441 1.676-0.7461-1.676c-0.2715-0.6205-0.5514-1.235-0.8418-1.844-0.2923-0.6205-0.5846-1.212-0.875-1.773-0.2902-0.5619-0.5618-1.05-0.8164-1.465zm-4.684 1.551v4.645h-3.094c0.1867-0.4035 0.3971-0.8159 0.6328-1.238 0.2432-0.4224 0.502-0.8368 0.7734-1.24 0.2715-0.4035 0.5471-0.7884 0.8301-1.154 0.2901-0.3752 0.5764-0.712 0.8574-1.012z"/>
 </defs>
 <symbol id="color">
  <use href="#bg" fill="#2bcaff"/>
  <use href="#bgw" fill="#fff"/>
  <use href="#fg" fill="#2bcaff"/>
 </symbol>
 <symbol id="light-white"><use href="#fg" fill="#fff"/></symbol>
 <symbol id="light-black"><use href="#fg"/></symbol>
 <symbol id="full-white"><use href="#bg" fill="#fff"/></symbol>
 <symbol id="full-black"><use href="#bg"/></symbol>
 <use id="main" href="#color"/>
</svg>
