<?xml version="1.0" encoding="UTF-8"?>
<svg version="1.1" viewBox="0 0 32 32" xmlns="http://www.w3.org/2000/svg">
 <defs>
  <path id="bg" d="m16.01-0.03906a16 16 0 0 0-16 16 16 16 0 0 0 0.7617 4.809l11.74-11.6 4.85 4.996 0.03125 0.0332v-0.003906l2.846 2.848 4.342 4.248c-0.3607 0.2507-0.6951 0.4512-1.014 0.6211a6.67 6.67 0 0 1-0.8926 0.3906 4.588 4.588 0 0 1-0.7656 0.2051 3.144 3.144 0 0 1-1.258 0 2.337 2.337 0 0 1-0.6875-0.2637l-0.09766-0.07226-1.912-1.967-5.477-5.473-1.977 1.895-5.525 5.533c-0.0085 0-0.03818 0.02392-0.09766 0.06641a2.575 2.575 0 0 1-1.301 0.3242 4.814 4.814 0 0 1-1.41-0.2598c-0.2762-0.0978-0.574-0.2249-0.8926-0.3906-0.03312-0.01747-0.06983-0.04027-0.1035-0.05859a16 16 0 0 0 14.84 10.12 16 16 0 0 0 14.84-10.12c-0.04154 0.02304-0.08625 0.05027-0.127 0.07226-0.3186 0.1657-0.6164 0.2929-0.8926 0.3906-0.2762 0.0935-0.5316 0.1629-0.7695 0.2012a3.144 3.144 0 0 1-1.252 0c-0.1742-0.03398-0.315-0.08183-0.4297-0.1328a1.64 1.64 0 0 1-0.3574-0.2031l-2.217-2.191-3.803-3.809-0.6035 0.6035-2.803-2.779 3.412-3.416 8.24 8.277 1.988 1.951a16 16 0 0 0 0.7734-4.844 16 16 0 0 0-16-16zm15.23 20.84a16 16 0 0 1-0.3867 1.035c0.2793-0.1549 0.5742-0.3286 0.8848-0.5469l-0.498-0.4883zm-30.07 1.033a16 16 0 0 1-0.3965-1.068l-0.5117 0.5059c0.3193 0.2243 0.6224 0.407 0.9082 0.5625zm9.1-3.844 0.003906 4.555a4.92 4.92 0 0 1-1.402-0.2715c-0.2761-0.0977-0.5645-0.2253-0.8789-0.3867-0.3101-0.1657-0.6474-0.3649-1-0.6113l3.277-3.285z"/>
  <path id="fg" d="m12.51 9.166-12.25 12.11c0.3569 0.2507 0.6968 0.4546 1.011 0.6203 0.3186 0.1657 0.616 0.2931 0.8922 0.3909a4.814 4.814 0 0 0 1.411 0.2592 2.575 2.575 0 0 0 1.3-0.3229c0.05948-0.04249 0.08922-0.06798 0.09772-0.06798l5.527-5.532 1.976-1.895 5.476 5.472 1.912 1.967 0.09772 0.07222a2.337 2.337 0 0 0 0.6883 0.2634 3.144 3.144 0 0 0 1.258 0 4.588 4.588 0 0 0 0.7647-0.2039 6.67 6.67 0 0 0 0.8922-0.3909c0.3186-0.1699 0.6543-0.3696 1.015-0.6203l-4.342-4.249-2.847-2.847v0.0042l-0.02974-0.03401zm8.497 1.411-3.412 3.416 2.804 2.779 0.6033-0.6033 3.802 3.807 2.218 2.192a1.64 1.64 0 0 0 0.3569 0.2039c0.1147 0.05098 0.2549 0.09772 0.4291 0.1317a3.144 3.144 0 0 0 1.253 0c0.2379-0.03824 0.4928-0.1062 0.769-0.1997 0.2762-0.09772 0.5736-0.2252 0.8922-0.3909 0.3144-0.1699 0.6543-0.3696 1.011-0.6203l-2.485-2.439zm-10.74 7.418-3.276 3.284c0.3526 0.2464 0.6883 0.4461 0.9984 0.6118 0.3144 0.1614 0.6033 0.2889 0.8794 0.3866a4.92 4.92 0 0 0 1.402 0.2719z"/>
 </defs>
 <symbol id="color">
  <use fill="#0d597f" href="#bg"/>
  <use fill="#fff" href="#fg"/>
 </symbol>
 <symbol id="light-white"><use href="#fg" fill="#fff"/></symbol>
 <symbol id="light-black"><use href="#fg"/></symbol>
 <symbol id="full-white"><use href="#bg" fill="#fff"/></symbol>
 <symbol id="full-black"><use href="#bg"/></symbol>
 <use id="main" href="#color"/>
</svg>
