<?xml version="1.0" encoding="UTF-8"?>
<svg version="1.1" viewBox="0 0 32 32" xmlns="http://www.w3.org/2000/svg">
 <defs>
  <path id="bg" d="m16 0a16 16 0 0 0-16 16 16 16 0 0 0 16 16 16 16 0 0 0 16-16 16 16 0 0 0-16-16zm-6.572 3.307 0.001953 0.001953c0.0967-0.0121 0.1961 0.03504 0.248 0.125l1.287 2.229a7.091 7.091 0 0 1 5.035-2.115 7.091 7.091 0 0 1 5.035 2.115l1.287-2.229c0.0692-0.12 0.2218-0.161 0.3418-0.0918 0.12 0.0692 0.161 0.2218 0.0918 0.3418l-1.361 2.354a7.091 7.091 0 0 1 1.664 3.932h-14.12a7.091 7.091 0 0 1 1.664-3.932l-1.361-2.355c-0.06929-0.1199-0.0282-0.2725 0.0918-0.3418 0.02997-0.01732 0.06151-0.02916 0.09375-0.0332zm3.705 3.133a0.8149 0.8149 0 0 0-0.8145 0.8164 0.8149 0.8149 0 0 0 0.8145 0.8145 0.8149 0.8149 0 0 0 0.8164-0.8145 0.8149 0.8149 0 0 0-0.8164-0.8164zm5.73 0a0.8149 0.8149 0 0 0-0.8164 0.8164 0.8149 0.8149 0 0 0 0.8164 0.8145 0.8149 0.8149 0 0 0 0.8145-0.8145 0.8149 0.8149 0 0 0-0.8145-0.8164zm-9.949 4.199h7.086 7.082c6e-3 0.0591 0.009766 0.1192 0.009766 0.1797v10.15c0 1.091-0.8616 1.969-1.934 1.969h-0.07812v4.014c0 0.8648-0.6961 1.562-1.561 1.562-0.8648 0-1.561-0.6981-1.561-1.562v-4.014h-3.92v4.014c0 0.8648-0.6977 1.562-1.562 1.562-0.8648 0-1.561-0.6981-1.561-1.562v-4.014h-0.07812c-1.072 0-1.934-0.8778-1.934-1.969v-10.15c0-0.0605 0.004776-0.1206 0.009766-0.1797zm-2.518 0.9043c0.8648 0 1.561 0.6981 1.561 1.562v6.693c0 0.8648-0.6957 1.561-1.561 1.561-0.8648 0-1.561-0.6961-1.561-1.561v-6.693c0-0.8648 0.6961-1.562 1.561-1.562zm19.2 0c0.8648 0 1.561 0.6981 1.561 1.562v6.693c0 0.8648-0.6957 1.561-1.561 1.561s-1.561-0.6961-1.561-1.561v-6.693c0-0.8648 0.6961-1.562 1.561-1.562z"/>
  <path id="fg" d="m9.428 3.307c-0.03224 0.00404-0.06377 0.01589-0.09374 0.03321-0.12 0.06925-0.1611 0.2219-0.09181 0.3418l1.361 2.356a7.091 7.091 0 0 0-1.664 3.931h14.12a7.091 7.091 0 0 0-1.664-3.931l1.36-2.354c0.06925-0.12 0.02816-0.2726-0.09181-0.3418-0.12-0.06925-0.2726-0.02815-0.3418 0.09181l-1.287 2.229a7.091 7.091 0 0 0-5.035-2.116 7.091 7.091 0 0 0-5.035 2.116l-1.287-2.229c-0.05194-0.08996-0.1514-0.1371-0.2481-0.125zm3.705 3.133a0.8149 0.8149 0 0 1 0.8164 0.8164 0.8149 0.8149 0 0 1-0.8164 0.8146 0.8149 0.8149 0 0 1-0.8146-0.8146 0.8149 0.8149 0 0 1 0.8146-0.8164zm5.73 0a0.8149 0.8149 0 0 1 0.8146 0.8164 0.8149 0.8149 0 0 1-0.8146 0.8146 0.8149 0.8149 0 0 1-0.8164-0.8146 0.8149 0.8149 0 0 1 0.8164-0.8164zm-9.949 4.199c-0.00499 0.05912-0.00975 0.1192-0.00975 0.1797v10.15c0 1.091 0.8618 1.969 1.934 1.969h0.07813v4.014c0 0.8644 0.6962 1.561 1.561 1.561s1.561-0.6962 1.561-1.561v-4.014h3.92v4.014c0 0.8644 0.6962 1.561 1.561 1.561 0.8644 0 1.561-0.6962 1.561-1.561v-4.014h0.07813c1.072 0 1.934-0.8781 1.934-1.969v-10.15c0-0.06052-0.0038-0.1206-0.0098-0.1797h-7.083zm-2.518 0.9045c-0.8644 0-1.561 0.6962-1.561 1.561v6.694c0 0.8644 0.6962 1.561 1.561 1.561s1.561-0.6962 1.561-1.561v-6.694c0-0.8644-0.6962-1.561-1.561-1.561zm19.2 0c-0.8644 0-1.561 0.6962-1.561 1.561v6.694c0 0.8644 0.6962 1.561 1.561 1.561s1.561-0.6962 1.561-1.561v-6.694c0-0.8644-0.6962-1.561-1.561-1.561z"/>
 </defs>
 <symbol id="color">
  <use href="#bg" fill="#a4c639"/>
  <use href="#fg" fill="#fff"/>
 </symbol>
 <symbol id="light-white"><use href="#fg" fill="#fff"/></symbol>
 <symbol id="light-black"><use href="#fg"/></symbol>
 <symbol id="full-white"><use href="#bg" fill="#fff"/></symbol>
 <symbol id="full-black"><use href="#bg"/></symbol>
 <use id="main" href="#color"/>
</svg>
