<?xml version="1.0" encoding="UTF-8"?>
<svg version="1.1" viewBox="0 0 32 32" xmlns="http://www.w3.org/2000/svg">
 <defs>
  <path id="bg" d="m16 0a16 16 0 0 0-16 16 16 16 0 0 0 16 16 16 16 0 0 0 16-16 16 16 0 0 0-16-16zm0.0293 3.502c1.262-0.01274 2.615 0.1204 3.977 0.3906 2.073 0.411 3.127 0.9723 3.607 1.92 0.4612 0.911 0.7611 2.426 0.8711 4.404 0.05414 0.973 0.1074 2.354 0.1074 2.779 0 0.3703 9.5e-5 0.375-0.08398 0.375-0.1196 0-0.549-0.1343-0.6914-0.2168-0.0657-0.03812-0.2277-0.09313-0.3613-0.1211-0.3039-0.064-0.3358-0.08437-0.5098-0.3262-0.27-0.3752-0.83-0.6975-1.434-0.8242-0.6-0.1259-1.435-0.08094-1.91 0.1016-0.175 0.0668-0.7912 0.4167-1.217 0.6914-0.1597 0.1027-0.3789 0.3722-0.3789 0.4648 0 0.0229 0.09128 0.1297 0.2051 0.2383 0.258 0.2465 0.4027 0.2919 0.8203 0.2578 0.165-0.01348 1.065-0.03606 2-0.05078 1.434-0.02276 1.728-0.03654 1.877-0.08594 0.228-0.0751 0.3427-0.07355 0.8535 0.009766 0.2311 0.03772 0.5147 0.079 0.6289 0.0918l0.207 0.02344-0.01758 0.9629c-0.01568 0.8625-0.0247 0.9884-0.0957 1.227-0.0979 0.3292-0.1483 0.4288-0.332 0.6699-0.1648 0.2164-0.7649 0.7633-1.035 0.9434-0.286 0.1903-0.5065 0.2593-1.08 0.3359-0.6364 0.08488-0.853 0.08912-1.424 0.02148-0.2368-0.028-0.5434-0.0565-0.6797-0.0625-0.2429-0.0108-0.2461-0.009508-0.2461 0.07617 0 0.1789 0.3301 0.2904 1.061 0.3555 0.7249 0.06458 0.7617 0.07004 0.7617 0.1367 0 0.084-0.2754 0.5237-0.5449 0.8691-0.575 0.7368-1.115 1.071-2.127 1.316l0.005859 0.001954c-0.6702 0.1626-0.9462 0.09282-1.324-0.334-0.5072-0.5722-0.4465-0.522-0.5547-0.4727-0.0534 0.0244-0.1638 0.09703-0.2441 0.1621-0.212 0.1715-0.338 0.2281-0.6172 0.2715-0.4512 0.0703-1.029-0.07691-1.262-0.3203-0.09024-0.0943-0.09575-0.1137-0.09375-0.4609 0.0018-0.307 0.2052-1.827 0.2695-2.014 0.0088-0.026 0.03393-0.8842 0.05469-1.908 0.0401-1.977 0.02892-2.258-0.1133-2.848-0.04-0.1652-0.1216-0.4202-0.1816-0.5664-0.248-0.6034-0.443-0.8432-1.291-1.584-1.179-1.03-1.682-1.298-2.523-1.346-0.4225-0.0241-0.6367 0.02946-0.6367 0.1602 0 0.1359 0.2305 0.2484 0.7305 0.3555 0.516 0.1104 0.8355 0.304 1.539 0.9316 0.226 0.2014 0.512 0.4551 0.6367 0.5645 0.2028 0.178 0.2562 0.2569 0.5078 0.7441l0.2812 0.543-0.005859 0.959c-0.00308 0.5946-0.0238 1.126-0.05664 1.4-0.0714 0.599-0.2507 1.61-0.3223 1.814-0.0828 0.2362-0.2884 0.4501-0.5859 0.6133-0.4139 0.2276-0.5638 0.4563-0.5645 0.8535-4e-4 0.372 0.1722 0.7184 0.457 0.916 0.1031 0.07152 0.1653 0.09237 0.2305 0.07617 0.08316-0.0209 0.08984-0.03647 0.08984-0.2305 0-0.2348 0.07961-0.4545 0.2578-0.709 0.06266-0.0895 0.1328-0.1935 0.1543-0.2324 0.02148-0.039 0.06894-0.07633 0.1074-0.08203 0.1501-0.0224 0.1927 0.3752 0.09961 0.9492-0.03 0.1854-0.04648 0.374-0.03516 0.4199 0.0114 0.0459 0.1029 0.1575 0.2012 0.248 0.1479 0.1364 0.1786 0.1874 0.1816 0.293 0.0042 0.1495-0.08037 0.272-0.3223 0.4668-0.2408 0.1934-0.4805 0.2552-0.7793 0.2031-0.453-0.0788-1.533-0.5406-1.988-0.8496-0.3968-0.2698-0.7721-0.698-1.062-1.215-0.1683-0.3-0.1555-0.3111 0.3633-0.3066 0.433 0.0037 0.5991-0.01845 1.371-0.1855 0.3806-0.0824 0.4961-0.1395 0.4961-0.248 0-0.07308-0.01028-0.07585-0.3633-0.05469-0.2 0.01192-0.5848 0.04673-0.8574 0.07617-0.573 0.06168-1.41 0.06982-1.686 0.01758-0.2236-0.0424-0.6155-0.2665-0.8613-0.4941-0.4462-0.413-0.945-1.265-1.227-2.092l-0.1152-0.3359 0.02148-1.684c0.0296-2.432 0.1536-3.771 0.5059-5.441 0.2704-1.279 0.5995-1.976 1.152-2.445 1.04-0.8814 3.231-1.392 6.615-1.541 0.1762-0.00775 0.3549-0.01381 0.5352-0.01562zm4.684 4.531c-0.8349-0.02242-1.721 0.2578-2.576 0.8242-0.3412 0.226-0.8844 0.7548-0.9766 0.9512-0.136 0.2896-0.06207 0.7341 0.1445 0.8789 0.1976 0.1384 0.3291 0.07697 0.9863-0.457 1.225-0.995 1.912-1.314 2.904-1.352 0.834-0.0316 1.277 0.1348 1.914 0.7188 0.2029 0.1858 0.3725 0.322 0.3789 0.3027 0.0184-0.0552-0.1458-0.3582-0.3242-0.5957-0.393-0.5234-1.039-0.9755-1.637-1.146-0.2638-0.0754-0.5362-0.1175-0.8145-0.125zm-9.447 0.06445c-0.3546-0.003986-0.7311 0.03558-1.029 0.1133-0.5376 0.14-1.136 0.5358-1.5 0.9922-0.2686 0.3364-0.4657 0.7285-0.3672 0.7285 0.015 0 0.1787-0.1501 0.3633-0.332 0.55-0.5428 0.8877-0.6943 1.596-0.7227 0.681-0.0272 1.15 0.07904 1.895 0.4316 0.521 0.2468 0.7294 0.395 1.24 0.875 0.2363 0.2218 0.4989 0.4388 0.584 0.4824h0.001953c0.3222 0.1654 0.5776 0.05856 0.668-0.2773 0.096-0.3568-0.04793-0.6805-0.4863-1.096-0.715-0.6784-1.584-1.068-2.621-1.176-0.1096-0.01144-0.2255-0.0182-0.3438-0.01953zm9.75 0.9473c-0.757 0-1.394 0.2855-2.281 1.02-0.7676 0.6348-1.237 1.151-1.482 1.629-0.05736 0.1116-0.082 0.4707-0.03516 0.5176h0.001953c0.0525 0.05264 0.2257 0.02234 0.2852-0.05078 0.318-0.391 1.501-1.484 2.252-2.08 0.3496-0.2774 0.4531-0.3308 0.8887-0.4492 0.6129-0.1668 0.834-0.2799 0.834-0.4258 0-0.1092-0.1483-0.1602-0.4629-0.1602zm-9.877 2.789c-0.6536-0.00947-1.259 0.123-1.699 0.375-0.2012 0.1156-0.4773 0.3696-0.6484 0.5996-0.0653 0.0879-0.1422 0.1433-0.2305 0.166-0.473 0.1227-0.442 0.1083-0.4238 0.2109 0.0092 0.0523 0.04536 0.167 0.08008 0.2559 0.06284 0.1608 0.06398 0.1631-0.0293 0.3965-0.05148 0.1289-0.09375 0.2739-0.09375 0.3242h-0.001953c0 0.1089 0.0578 0.1175 0.1582 0.02344 0.074-0.0692 0.6218-0.2125 1.16-0.3047 0.149-0.02564 0.8654-0.07292 1.592-0.1035 1.461-0.0616 2.046-0.1064 2.283-0.1777 0.3044-0.0916 0.5451-0.3612 0.4961-0.5547-0.05-0.1996-0.3782-0.4358-1.174-0.8438-0.4672-0.2398-0.7367-0.3195-1.186-0.3535-0.095-0.007187-0.1898-0.01232-0.2832-0.01367zm-3.617 4.832c0.1608 0 0.4462 0.4652 0.7246 1.182 0.2276 0.585 0.4881 1.08 0.9277 1.76 0.7802 1.207 1.357 2.127 1.678 2.676 0.406 0.694 0.9423 1.733 1.117 2.162 0.2312 0.5666 0.4355 0.8504 0.5176 0.7207 0.0553-0.0872 0.03277-0.2612-0.08203-0.6172-0.0972-0.3013-0.1114-0.3927-0.1016-0.6348 0.01888-0.462 0.01935-0.7736 0.001954-0.9004-0.0262-0.1887 0.05033-0.2124 0.3613-0.1152 0.1424 0.0445 0.4428 0.1587 0.668 0.2539 0.2248 0.0953 0.5657 0.2142 0.7559 0.2637 0.4588 0.1193 0.5763 0.1792 0.707 0.3633 0.1582 0.2224 0.2307 0.4505 0.2324 0.7324 0.0013 0.2212-0.01553 0.2821-0.1738 0.623-0.0966 0.2079-0.1913 0.4492-0.2109 0.5352-0.078 0.339-0.02822 0.7425 0.209 1.697 0.07996 0.3212 0.1481 0.6897 0.1523 0.8164l0.00586 0.2305-0.1055 0.009766c-0.1276 0.0108-0.5184-0.123-0.752-0.2578-0.0928-0.0536-0.3218-0.2503-0.5078-0.4375-0.2764-0.2774-0.4391-0.4938-0.8887-1.174-0.3028-0.458-0.6466-0.9425-0.7656-1.076-0.2832-0.319-0.5153-0.6609-1.213-1.795-1.761-2.863-2.622-4.572-3.199-6.34-0.1723-0.5286-0.1862-0.6777-0.05859-0.6777zm10.18 0.4336c-0.1309 0.02724-0.2191 0.251-0.1074 0.3438 0.0282 0.02332 0.1335 0.063 0.2344 0.08984 0.1009 0.0267 0.2225 0.08463 0.2695 0.1289 0.115 0.108 0.2808 0.4623 0.334 0.7129 0.0238 0.1121 0.05519 0.2031 0.07031 0.2031 0.01492 0 0.06124-0.04402 0.1035-0.09766 0.1499-0.19 0.05439-0.5909-0.2246-0.9434-0.1164-0.147-0.4752-0.3989-0.6211-0.4355-0.01998-0.005037-0.0399-0.005844-0.05859-0.001953zm6.189 0.06641c0.05024-0.0096 0.0625 0.01315 0.0625 0.123 0 0.274-0.2153 1.217-0.4023 1.766-0.407 1.192-0.9532 2.209-2.408 4.484-1.936 3.027-2.453 3.728-3.201 4.328-0.334 0.2679-0.6301 0.4293-0.9941 0.543v-0.003906c-0.1617 0.05048-0.3239 0.0918-0.3613 0.0918-0.1616 0-0.1354-0.3535 0.0957-1.238 0.1517-0.581 0.1626-0.6516 0.166-1.1 0.0036-0.477 0.004235-0.4806-0.1348-0.834-0.1143-0.2904-0.1396-0.3983-0.1406-0.6016-0.0016-0.3044 0.06178-0.4542 0.3633-0.8594 0.1197-0.161 0.2168-0.3105 0.2168-0.332 0-0.02538-0.04138-0.0323-0.1191-0.01758-0.0969 0.0182-0.1409 0.005754-0.2266-0.06641-0.106-0.08956-0.1077-0.08984-0.8457-0.08984-1.167-1e-4 -1.6-0.05727-2.395-0.3223-0.942-0.314-1.21-0.5085-2.529-1.811-0.9232-0.913-1.287-1.365-1.654-2.057-0.2341-0.4408-0.4751-1.23-0.375-1.23 0.0616 0 0.2484 0.307 0.5898 0.9746 0.5068 0.9902 0.6625 1.215 1.098 1.576 0.566 0.4698 1.32 0.8553 2.24 1.146 0.53 0.1679 0.8994 0.2344 1.291 0.2344 0.2735 0 0.3317 0.0113 0.3965 0.07226 0.11 0.1028 0.469 0.1651 1.225 0.2129 0.6454 0.0408 0.6664 0.04009 1.133-0.04883 0.2612-0.04976 0.5942-0.1012 0.7402-0.1133 1.456-0.12 2.788-0.7449 3.502-1.646 0.07-0.0882 0.3428-0.5407 0.6055-1.004 0.4642-0.8184 0.738-1.229 0.8203-1.229 0.06692 0 0.008163 0.5539-0.0918 0.8691-0.175 0.554-0.4638 0.9782-1.357 1.992-0.3126 0.3552-0.5793 0.6616-0.5918 0.6816-0.0569 0.0921 0.08891 0.02145 0.2539-0.123 0.1002-0.08774 0.1995-0.1582 0.2207-0.1582s0.03711 0.05342 0.03711 0.1191c0 0.0829-0.05188 0.1989-0.1719 0.3828-0.0948 0.1456-0.2732 0.4552-0.3965 0.6875-0.123 0.2324-0.3498 0.6138-0.5039 0.8477-0.3702 0.562-0.6516 1.043-0.7148 1.223-0.04564 0.1295-0.04509 0.1471 0.003907 0.166 0.092 0.036 0.04158 0.1049 1.768-2.453 0.9056-1.342 1.497-2.344 1.836-3.109 0.263-0.5948 0.5327-1.275 0.6055-1.525 0.0679-0.2337 0.2559-0.5318 0.3457-0.5488zm-8.16 3.488c0.02768 0.004975 0.05728 0.02828 0.1152 0.07422 0.15 0.1188 0.7878 0.8066 0.8828 0.9512 0.03836 0.05844 0.07031 0.1262 0.07031 0.1504 4e-4 0.03318-0.1003 0.04326-0.3984 0.03906-0.7542-0.01032-1.593-0.05938-1.629-0.0957-0.0248-0.0248 0.07505-0.1737 0.3145-0.4688 0.4571-0.5634 0.4429-0.5464 0.5488-0.6133 0.04375-0.02764 0.06803-0.04208 0.0957-0.03711zm0.125 5.207c0.0513-0.01184 0.1067 0.1006 0.1094 0.2402 0.00216 0.1102-0.01109 0.1515-0.05469 0.1602-0.04568 0.0092-0.06434-0.02858-0.08398-0.1719-0.01434-0.1045-0.01147-0.1956 0.007813-0.2148 0.007024-0.007037 0.01416-0.01198 0.02148-0.01367z"/>
  <path id="fg" d="m16.95 28.41c0.364-0.1137 0.6588-0.2749 0.9928-0.5428 0.7484-0.6004 1.266-1.301 3.202-4.328 1.455-2.275 2.001-3.292 2.408-4.484 0.187-0.5484 0.4016-1.492 0.4016-1.766 0-0.1099-0.01172-0.1333-0.06196-0.1237-0.08984 0.017-0.278 0.3163-0.3459 0.55-0.07276 0.2506-0.3422 0.9292-0.6052 1.524-0.3386 0.7656-0.9304 1.769-1.836 3.111-1.726 2.558-1.675 2.488-1.767 2.452-0.049-0.01888-0.04944-0.03704-0.0038-0.1665 0.0632-0.1792 0.3442-0.66 0.7144-1.222 0.1541-0.2339 0.381-0.6152 0.504-0.8476 0.1233-0.2323 0.3017-0.5412 0.3965-0.6868 0.12-0.1839 0.1724-0.3007 0.1724-0.3836 0-0.06572-0.0174-0.1195-0.03856-0.1195s-0.1205 0.07176-0.2207 0.1595c-0.165 0.1445-0.3103 0.2149-0.2534 0.1228 0.01248-0.02004 0.2786-0.3272 0.5912-0.6824 0.8936-1.014 1.183-1.438 1.358-1.992 0.09996-0.3152 0.158-0.8684 0.09108-0.8684-0.08228 0-0.3558 0.4096-0.82 1.228-0.2627 0.4632-0.5348 0.9148-0.6048 1.003-0.7136 0.9016-2.046 1.528-3.502 1.648-0.146 0.01212-0.4796 0.06264-0.7408 0.1124-0.4664 0.08892-0.4876 0.0898-1.133 0.049-0.7556-0.04776-1.114-0.1102-1.224-0.213-0.0648-0.06096-0.1238-0.0716-0.3973-0.0716-0.3916 0-0.76-0.06704-1.29-0.2349-0.92-0.2912-1.674-0.6772-2.24-1.147-0.4352-0.3608-0.5912-0.5848-1.098-1.575-0.3414-0.6676-0.528-0.9764-0.5896-0.9764-0.1001 0 0.1402 0.7912 0.3743 1.232 0.367 0.6916 0.7308 1.143 1.654 2.056 1.319 1.302 1.589 1.496 2.531 1.81 0.7944 0.265 1.227 0.3235 2.394 0.3236 0.738 0 0.7388 0 0.8448 0.08956 0.08568 0.07216 0.1295 0.08512 0.2264 0.06692 0.07776-0.01472 0.1202-0.0087 0.1202 0.01668 0 0.02156-0.09792 0.1708-0.2176 0.3318-0.3015 0.4052-0.365 0.5552-0.3634 0.8596 9.93e-4 0.2033 0.0264 0.312 0.1407 0.6024 0.139 0.3534 0.1394 0.3558 0.1358 0.8328-0.0034 0.448-0.014 0.518-0.1657 1.099-0.2311 0.8848-0.259 1.24-0.09736 1.24 0.0374 0 0.2006-0.04132 0.3623-0.0918zm-1.944-0.2271c-0.0042-0.1267-0.07304-0.4936-0.153-0.8148-0.2372-0.9548-0.2869-1.359-0.2089-1.698 0.01962-0.086 0.115-0.3265 0.2116-0.5344 0.1583-0.3409 0.1754-0.402 0.1741-0.6232-0.0017-0.2819-0.074-0.5104-0.2322-0.7328-0.1307-0.1841-0.2492-0.2451-0.708-0.3644-0.1902-0.04948-0.5304-0.1679-0.7552-0.2632-0.2252-0.09524-0.5256-0.2096-0.668-0.2541-0.311-0.0972-0.3886-0.07232-0.3624 0.1164 0.0174 0.1268 0.01668 0.4368-0.0022 0.8988-0.0098 0.2421 0.0049 0.3351 0.1021 0.6364 0.1148 0.356 0.1379 0.5288 0.0826 0.616-0.08212 0.1297-0.2856-0.1542-0.5168-0.7208-0.1749-0.4288-0.712-1.468-1.118-2.162-0.3205-0.5488-0.8968-1.468-1.677-2.675-0.4396-0.6796-0.7008-1.175-0.9284-1.76-0.2784-0.7164-0.5632-1.181-0.724-1.181-0.1276 0-0.115 0.1482 0.05728 0.6768 0.5768 1.768 1.439 3.477 3.2 6.34 0.6976 1.134 0.9288 1.476 1.212 1.795 0.119 0.1337 0.464 0.618 0.7668 1.076 0.4496 0.68 0.6124 0.8956 0.8888 1.173 0.186 0.1872 0.414 0.384 0.5068 0.4376 0.2336 0.1348 0.6248 0.2694 0.7524 0.2586l0.1062-0.0091-0.0075-0.2304zm0.9608-2.081c-0.0031-0.1596-0.0742-0.2834-0.1304-0.2271-0.01928 0.01928-0.02304 0.1115-0.0087 0.216 0.01964 0.1433 0.03776 0.1798 0.08344 0.1706 0.0436-0.0087 0.05764-0.0492 0.05548-0.1594zm0.8344-4.272c0-0.0242-0.03168-0.09216-0.07004-0.1506-0.095-0.1446-0.7328-0.8312-0.8828-0.95-0.1159-0.09188-0.1249-0.09348-0.2124-0.0382-0.1059 0.06692-0.09092 0.05016-0.548 0.6136-0.2394 0.2951-0.3388 0.4432-0.314 0.468 0.03628 0.03632 0.8748 0.08568 1.629 0.096 0.2981 0.0042 0.3984-0.0057 0.398-0.03888zm2.037-1.353c1.012-0.2454 1.551-0.5792 2.126-1.316 0.2695-0.3454 0.5452-0.7856 0.5452-0.8696 0-0.06668-0.03588-0.07312-0.7608-0.1377-0.7304-0.06504-1.062-0.176-1.062-0.3549 0-0.08568 0.0049-0.08724 0.2478-0.07644 0.1363 6e-3 0.442 0.03404 0.6788 0.06204 0.5708 0.06764 0.7876 0.06448 1.424-0.0204 0.5736-0.0766 0.794-0.1451 1.08-0.3354 0.2703-0.1801 0.8712-0.7276 1.036-0.944 0.1837-0.2411 0.2327-0.34 0.3306-0.6692 0.071-0.2382 0.081-0.3655 0.09668-1.228l0.0174-0.9628-0.2076-0.02308c-0.1142-0.0128-0.3969-0.05392-0.628-0.09164-0.5108-0.08332-0.6264-0.0846-0.8544-0.0095-0.1494 0.0494-0.4424 0.0628-1.876 0.08556-0.9348 0.01472-1.835 0.03804-2 0.05152-0.4176 0.03404-0.562-0.01132-0.82-0.2578-0.1138-0.1086-0.2068-0.2162-0.2068-0.2391 0-0.0926 0.2195-0.3617 0.3792-0.4644 0.4256-0.2747 1.042-0.6256 1.217-0.6924 0.4756-0.1825 1.31-0.2265 1.91-0.1006 0.6036 0.1267 1.164 0.4488 1.434 0.824 0.174 0.2418 0.2057 0.262 0.5096 0.326 0.1336 0.02796 0.2968 0.08228 0.3625 0.1204 0.1424 0.08248 0.5704 0.2171 0.69 0.2171 0.08408 0 0.0848-0.0032 0.0848-0.3735 0-0.4248-0.05356-1.808-0.1077-2.781-0.11-1.978-0.4096-3.493-0.8708-4.404-0.48-0.9476-1.534-1.509-3.607-1.92-1.556-0.3088-3.102-0.4372-4.512-0.3752-3.384 0.1486-5.576 0.6596-6.616 1.541-0.5528 0.4696-0.8816 1.168-1.152 2.447-0.3523 1.67-0.4768 3.008-0.5064 5.44l-0.02036 1.684 0.1146 0.3366c0.2816 0.8272 0.7808 1.678 1.227 2.091 0.2458 0.2276 0.6368 0.4528 0.8604 0.4952 0.2751 0.05224 1.112 0.0428 1.685-0.01888 0.2726-0.02944 0.6588-0.06332 0.8588-0.07524 0.353-0.02116 0.3629-0.01964 0.3629 0.05344 0 0.1085-0.1154 0.1664-0.496 0.2488-0.772 0.1671-0.938 0.1897-1.371 0.186-0.5188-0.0045-0.5312 6e-3 -0.3629 0.306 0.2904 0.5168 0.6652 0.9452 1.062 1.215 0.4548 0.309 1.536 0.7716 1.989 0.8504 0.2988 0.05208 0.5376-0.0106 0.7784-0.204 0.2419-0.1948 0.3266-0.3173 0.3224-0.4668-3e-3 -0.1056-0.0344-0.1556-0.1823-0.292-0.09828-0.09052-0.1882-0.2022-0.1996-0.2481-0.01132-0.04592 0.0036-0.235 0.0336-0.4204 0.09308-0.574 0.05196-0.972-0.09812-0.9496-0.03848 0.0057-0.08752 0.0424-0.109 0.0814-0.02152 0.03896-0.09024 0.144-0.1529 0.2335-0.1782 0.2545-0.2579 0.4732-0.2579 0.708 0 0.194-0.0064 0.2106-0.08956 0.2315-0.0652 0.0162-0.128-0.0042-0.2311-0.07572-0.2848-0.1976-0.4584-0.5456-0.458-0.9176 6.12e-4 -0.3972 0.1521-0.6256 0.566-0.8532 0.2975-0.1632 0.5016-0.3774 0.5844-0.6136 0.07156-0.2042 0.2512-1.215 0.3226-1.814 0.03284-0.2748 0.05456-0.8064 0.05764-1.401l0.0049-0.958-0.281-0.544c-0.2516-0.4872-0.3048-0.5652-0.5076-0.7432-0.1247-0.1094-0.4116-0.3638-0.6376-0.5652-0.7036-0.6276-1.022-0.82-1.538-0.9304-0.5-0.1071-0.7316-0.2195-0.7316-0.3554 0-0.1307 0.2151-0.1849 0.6376-0.1608 0.8412 0.04808 1.344 0.3163 2.523 1.346 0.848 0.7408 1.043 0.9796 1.291 1.583 0.06008 0.1462 0.142 0.4016 0.182 0.5668 0.1422 0.5892 0.1534 0.8712 0.1133 2.848-0.02076 1.024-0.04496 1.882-0.05376 1.908-0.06436 0.1869-0.2679 1.706-0.2697 2.013-2e-3 0.3472 0.0022 0.3681 0.09244 0.4624 0.233 0.2434 0.8108 0.3897 1.262 0.3194 0.2792-0.04336 0.406-0.09888 0.618-0.2704 0.08032-0.06508 0.1896-0.1382 0.243-0.1626 0.1082-0.04936 0.04836-0.1002 0.5556 0.472 0.378 0.4268 0.6528 0.4964 1.323 0.3338zm-0.4052-2.102c-0.0532-0.2506-0.2189-0.604-0.3339-0.712-0.04708-0.04428-0.1682-0.1023-0.2691-0.129-0.1009-0.02684-0.2064-0.06756-0.2346-0.09088-0.1276-0.106 6e-3 -0.3818 0.1658-0.3415 0.1459 0.03668 0.5052 0.2882 0.6216 0.4352 0.279 0.3525 0.3746 0.7544 0.2247 0.9444-0.04228 0.05364-0.08908 0.09748-0.104 0.09748-0.01512 0-0.04668-0.09168-0.07048-0.2038zm-10.34-4.212c0-0.05028 0.04216-0.1968 0.09364-0.3257 0.09328-0.2334 0.0934-0.2349 0.03056-0.3957-0.03472-0.08884-0.0704-0.2043-0.0796-0.2566-0.01816-0.1026-0.04944-0.08708 0.4236-0.2098 0.08828-0.02268 0.1648-0.078 0.2301-0.1659 0.1711-0.23 0.4468-0.4852 0.648-0.6008 0.5032-0.288 1.222-0.4192 1.982-0.3617 0.4488 0.03404 0.7188 0.1145 1.186 0.3543 0.7956 0.408 1.124 0.6436 1.174 0.8432 0.049 0.1935-0.1924 0.4632-0.4968 0.5548-0.237 0.07136-0.8208 0.1172-2.282 0.1788-0.7264 0.0306-1.444 0.07676-1.593 0.1024-0.5384 0.0922-1.086 0.2364-1.16 0.3056-0.1004 0.09408-0.157 0.08584-0.157-0.02308zm9.124-1.952c-0.04684-0.04692-0.02264-0.4068 0.03472-0.5184 0.2458-0.478 0.7144-0.9932 1.482-1.628 0.8872-0.734 1.525-1.019 2.282-1.019 0.3146 0 0.4628 0.05132 0.4628 0.1605 0 0.1459-0.2215 0.2588-0.8344 0.4256-0.4356 0.1184-0.5384 0.1702-0.888 0.4476-0.7508 0.596-1.934 1.689-2.252 2.08-0.05948 0.07312-0.2337 0.1052-0.2862 0.05256zm-3.17-1.545c-0.08508-0.0436-0.3477-0.2606-0.584-0.4824-0.5108-0.48-0.72-0.6276-1.241-0.8744-0.7444-0.3526-1.213-0.46-1.894-0.4328-0.708 0.02836-1.046 0.1812-1.596 0.724-0.1846 0.1819-0.3479 0.3306-0.3629 0.3306-0.09852 0 0.09904-0.3908 0.3676-0.7272 0.3643-0.4564 0.9624-0.852 1.5-0.992 0.3976-0.1036 0.9344-0.1408 1.373-0.09504 1.037 0.1082 1.906 0.4976 2.621 1.176 0.4384 0.4152 0.582 0.7392 0.486 1.096-0.0904 0.3359-0.3466 0.4424-0.6688 0.277zm3.257 0.02228c-0.2066-0.1448-0.279-0.5896-0.143-0.8792 0.0922-0.1964 0.6344-0.7248 0.9756-0.9508 1.14-0.7552 2.336-1.002 3.391-0.7004 0.5976 0.171 1.243 0.6236 1.636 1.147 0.1784 0.2375 0.344 0.5404 0.3256 0.5956-0.0064 0.01928-0.1774-0.1172-0.3803-0.303-0.6372-0.584-1.08-0.7508-1.914-0.7192-0.9924 0.03744-1.678 0.357-2.903 1.352-0.6572 0.534-0.79 0.5956-0.9876 0.4572z"/>
  <path id="sh" d="m27.32 4.702-22.62 22.61a15.99 15.99 0 0 0 11.22 4.684 15.99 15.99 0 0 0 0.08393 0l0.123-0.0019a15.99 15.99 0 0 0 0.1191 0 15.99 15.99 0 0 0 15.75-15.99 15.99 15.99 0 0 0-4.684-11.31z" fill-opacity=".3"/>
 </defs>
 <symbol id="color">
  <use href="#bg" fill="#282828"/>
  <use href="#fg" fill="#fff"></use>
  <use href="#sh"></use>
 </symbol>
 <symbol id="light-white"><use href="#fg" fill="#fff"/></symbol>
 <symbol id="light-black"><use href="#fg"/></symbol>
 <symbol id="full-white"><use href="#bg" fill="#fff"/></symbol>
 <symbol id="full-black"><use href="#bg"/></symbol>
 <use id="main" href="#color"/>
</svg>