<?xml version="1.0" encoding="UTF-8"?>
<svg version="1.1" viewBox="0 0 32 32" xmlns="http://www.w3.org/2000/svg">
 <defs>
  <path id="bg" d="m16 0c-7.972 0-15.15 15.59-15.94 22.15-0.9944 8.184 11.16 9.848 15.94 9.848s16.94-1.665 15.94-9.848c-0.7976-6.564-7.971-22.15-15.94-22.15zm0.6973 7.385c0.789 0-0.1933 2.337-2.195 5.221-1.38 1.986-3.598 4.27-5.756 5.924-0.7796 0.5996-1.517 1.088-1.637 1.088-0.6869 0-0.7598-2.819-0.127-5.008 0.441-1.519 0.4771-1.555 3.039-2.918 1.423-0.758 3.448-2.037 4.496-2.842 1.046-0.8066 2.028-1.465 2.18-1.465zm2.162 0.8301c0.1242-0.027 0.239 0.2262 0.3848 0.6953 1.478 4.75 1.074 11.63-0.9941 16.96l-0.4707 1.215-1.926-0.01562c-1.931-0.016-4.391-0.7404-4.588-1.35-0.058-0.179 0.4042-0.9862 1.025-1.791 2.245-2.92 4.655-8.403 5.699-12.96 0.4308-1.886 0.6621-2.709 0.8691-2.754zm2.893 1.508c0.09933-0.02129 0.4191 0.232 0.9551 0.7598 1.74 1.708 2.738 4.213 2.738 6.883v0.003907c0 1.449-0.1766 2.568-0.5449 3.434l-0.541 1.287-0.3613-3.125c-0.301-2.616-1.234-6.373-2.244-9.043-0.04669-0.1229-0.0471-0.1895-0.001953-0.1992z"/>
  <path id="fg" d="m18.25 25.87c2.068-5.324 2.472-12.21 0.9944-16.96-0.3886-1.251-0.5648-0.9604-1.254 2.058-1.044 4.556-3.455 10.04-5.7 12.96-0.6212 0.8048-1.082 1.612-1.024 1.791 0.1966 0.6092 2.657 1.333 4.588 1.349l1.925 0.01628zm7.196-8.504c0-2.67-0.9988-5.176-2.739-6.884-0.7796-0.7676-1.103-0.9536-0.9536-0.5604 1.01 2.67 1.943 6.428 2.244 9.044l0.3615 3.124 0.5424-1.286c0.3683-0.8652 0.5444-1.986 0.5444-3.435zm-16.7 1.163c2.158-1.654 4.376-3.938 5.756-5.924 2.002-2.884 2.985-5.22 2.196-5.22-0.1514 0-1.134 0.6584-2.18 1.465-1.048 0.8048-3.073 2.084-4.496 2.842-2.562 1.363-2.598 1.398-3.039 2.917-0.6328 2.189-0.5604 5.008 0.1265 5.008 0.1198 0 0.8564-0.4884 1.636-1.088z"/>
 </defs>
 <symbol id="color">
  <use href="#bg" fill="#7986cb"/>
  <use href="#fg" fill="#fff"/>
 </symbol>
 <symbol id="light-white"><use href="#fg" fill="#fff"/></symbol>
 <symbol id="light-black"><use href="#fg"/></symbol>
 <symbol id="full-white"><use href="#bg" fill="#fff"/></symbol>
 <symbol id="full-black"><use href="#bg" /></symbol>
 <use id="main" href="#color"/>
</svg>
