<?xml version="1.0" encoding="UTF-8"?>
<svg version="1.1" viewBox="0 0 32 32" xmlns="http://www.w3.org/2000/svg">
 <defs>
  <path id="bg" d="m16 0c-8.836 0-16 7.164-16 16 0 8.836 7.164 16 16 16 8.836 0 16-7.164 16-16 0-8.836-7.164-16-16-16zm0.5312 5.209 0.252 0.4414c0.1386 0.2431 1.153 2.177 2.256 4.297 1.102 2.12 3.327 6.379 4.941 9.467 2.266 4.336 2.905 5.637 2.799 5.705-0.07528 0.04772-0.9824 0.08701-2.016 0.08789l-1.881 0.001953-0.5547-0.5625c-1.391-1.41-3.82-2.688-6.535-3.438l-1.217-0.3359 1.52-0.07617c1.429-0.07168 3.041-0.02377 3.922 0.1172 0.2946 0.04712 0.3887 0.0282 0.3887-0.08008 0-0.2675-3.729-7.084-3.875-7.084-0.1066 0-0.8604 1.312-3.783 6.592-1.436 2.594-2.617 4.724-2.627 4.736-0.04328 0.05248-4.115 0.1549-4.115 0.1035l-0.005859-0.001953c0-0.06868 9.961-19.02 10.3-19.58l0.2305-0.3906z"/>
  <path id="fg" d="m6 25.18c0-0.06868 9.96-19.02 10.3-19.58l0.2307-0.3914 0.252 0.442c0.1386 0.2431 1.154 2.176 2.257 4.296 1.102 2.12 3.326 6.38 4.94 9.468 2.266 4.336 2.905 5.636 2.799 5.704-0.07528 0.04772-0.9828 0.08744-2.016 0.08832l-1.88 0.0015-0.5544-0.562c-1.391-1.41-3.821-2.688-6.536-3.438l-1.217-0.336 1.521-0.07632c1.429-0.07168 3.041-0.02336 3.922 0.1176 0.2946 0.04712 0.3876 0.0278 0.3876-0.08048 0-0.2675-3.729-7.084-3.875-7.084-0.1066 0-0.8592 1.312-3.782 6.592-1.436 2.594-2.618 4.724-2.628 4.736-0.04328 0.05248-4.116 0.156-4.116 0.1046z"/>
 </defs>
 <symbol id="color">
  <use href="#bg" fill="#6790eb"/>
  <use href="#fg" fill="#fff"/>
 </symbol>
 <symbol id="light-white"><use href="#fg" fill="#fff"/></symbol>
 <symbol id="light-black"><use href="#fg"/></symbol>
 <symbol id="full-white"><use href="#bg" fill="#fff"/></symbol>
 <symbol id="full-black"><use href="#bg"/></symbol>
 <use id="main" href="#color"/>
</svg>
