<?xml version="1.0" encoding="UTF-8"?>
<svg version="1.1" viewBox="0 0 32 32" xmlns="http://www.w3.org/2000/svg">
 <defs>
  <path id="bg" d="m16 0c-8.836 0-16 7.164-16 16 0 8.836 7.164 16 16 16 8.836 0 16-7.164 16-16 0-8.836-7.164-16-16-16zm-2.172 9.949c0.6678 0 1.209 0.5414 1.209 1.209 0 0.3108-0.1576 0.6382-0.3789 0.8691l-1.549 1.549h6.16c2.333 8e-3 4.223 1.898 4.232 4.232 0 2.324-1.91 4.23-4.232 4.23l-0.6035-0.001953c-0.6682 1e-3 -1.21-0.5406-1.211-1.209-1e-3 -0.669 0.5417-1.211 1.211-1.211 0.1952 6.99e-4 0.4047 0.003753 0.6035 0.001953 1.015 0 1.814-0.7973 1.814-1.812s-0.7985-1.812-1.814-1.812h-6.16l1.549 1.549c0.2213 0.2308 0.3789 0.5584 0.3789 0.8691 0 0.6678-0.5414 1.209-1.209 1.209-0.3752 0-0.6688-0.1101-0.9082-0.3398l-4.42-4.496 4.42-4.496c0.2396-0.2297 0.5334-0.3398 0.9082-0.3398z"/>
  <path id="fg" d="m19.27 22.04c2.322 0 4.232-1.908 4.232-4.232-0.0094-2.334-1.899-4.224-4.232-4.232h-6.16l1.549-1.549c0.2213-0.2309 0.3789-0.5584 0.3789-0.8692-9e-6 -0.6676-0.5412-1.209-1.209-1.209-0.3748-8e-7 -0.6688 0.1101-0.9084 0.3398l-4.42 4.496 4.42 4.496c0.2394 0.2297 0.5332 0.3398 0.9084 0.3398 0.6676-4.6e-5 1.209-0.5412 1.209-1.209 0-0.3107-0.1576-0.6384-0.3789-0.8692l-1.549-1.549h6.16c1.016 0 1.814 0.7988 1.814 1.814s-0.7988 1.812-1.814 1.812c-0.1988 0.0018-0.4084-0.0013-0.6036-2e-3 -0.6692-5.18e-4 -1.212 0.542-1.211 1.211 5.61e-4 0.6684 0.5428 1.21 1.211 1.209z" />
 </defs>
 <symbol id="color">
  <use href="#bg" fill="#4d4d4d"/>
  <use href="#fg" fill="#fff"/>
 </symbol>
 <symbol id="light-white"><use href="#fg" fill="#fff"/></symbol>
 <symbol id="light-black"><use href="#fg"/></symbol>
 <symbol id="full-white"><use href="#bg" fill="#fff"/></symbol>
 <symbol id="full-black"><use href="#bg"/></symbol>
 <use id="main" href="#color"/>
</svg>

