<?xml version="1.0" encoding="UTF-8"?>
<svg version="1.1" viewBox="0 0 32 32" xmlns="http://www.w3.org/2000/svg">
 <defs>
  <path id="bg" d="m16 0a16 16 0 0 0-16 16 16 16 0 0 0 16 16 16 16 0 0 0 16-16 16 16 0 0 0-16-16zm0.4395 6.771a0.9428 0.9428 0 0 1 0.2344 0.02734c2.998 0.669 3.521-1.214 4.529 1.805 1.012 3.048-0.1257 9.282-5.098 7.945 5.962 0.664-1.78-9.71 0.334-9.777zm-5.928 1.445h0.001953c3.299 4e-3 9.047 2.984 6.203 7.164 2.568-5.474-10.88-1.093-9.371-3.539 1.583-2.562-0.102-3.629 3.166-3.625zm2.301 4.68-0.001953 0.001954c1.024 0.001999 2.047 0.4488 2.949 1.551-4.564-4.066-4.433 9.714-6.361 7.564-2.018-2.252-3.583-1.028-2.566-4.045 0.736-2.192 3.366-5.074 5.98-5.072zm11.33 0.4883c0.1994 0.018 0.3227 0.1574 0.3496 0.4688 0.2708 2.977 2.276 2.876-0.3711 4.74-2.672 1.877-9.128 2.754-9.352-2.25 1.096 5.252 7.749-3.08 9.373-2.957v-0.001953zm-9.584 1.66-0.003906 0.003906c-5.386 2.956 8.148 7.093 5.445 8.211-2.83 1.165-2.113 2.991-4.756 1.121-2.667-1.888-5.518-7.578-0.6855-9.336z"/>
  <path id="fg" d="m16.44 6.772c-2.114 0.0672 5.628 10.44-0.3337 9.776 4.972 1.337 6.108-4.896 5.096-7.944-1.008-3.019-1.53-1.136-4.528-1.805a0.9428 0.9428 0 0 0-0.2352-0.02688zm-5.928 1.445c-3.268-0.00448-1.584 1.062-3.167 3.624-1.512 2.446 11.94-1.935 9.372 3.539 2.844-4.18-2.905-7.16-6.204-7.164zm2.3 4.68c-2.614-0.0022-5.244 2.88-5.98 5.072-1.017 3.017 0.5488 1.792 2.567 4.044 1.928 2.15 1.796-11.63 6.36-7.564-0.9024-1.102-1.924-1.548-2.948-1.55zm11.33 0.4904c-1.624-0.1232-8.276 8.208-9.372 2.956 0.224 5.004 6.68 4.128 9.352 2.251 2.647-1.864 0.6404-1.763 0.3696-4.74-0.02688-0.3113-0.15-0.4524-0.3494-0.4704zm-9.584 1.657c-4.832 1.758-1.982 7.448 0.6852 9.336 2.643 1.87 1.926 0.0448 4.756-1.12 2.703-1.118-10.83-5.256-5.444-8.212z"/>
 </defs>
 <symbol id="color">
  <use href="#bg" fill="#4e7ba0"/>
  <use href="#fg" fill="#fff"/>
 </symbol>
 <symbol id="light-white"><use href="#fg" fill="#fff"/></symbol>
 <symbol id="light-black"><use href="#fg"/></symbol>
 <symbol id="full-white"><use href="#bg" fill="#fff"/></symbol>
 <symbol id="full-black"><use href="#bg"/></symbol>
 <use id="main" href="#color"/>
</svg>

