<?xml version="1.0" encoding="UTF-8"?>
<svg version="1.1" viewBox="0 0 32 32" xmlns="http://www.w3.org/2000/svg">
 <defs>
 <path id="bg" d="m16 0a16 16 0 0 0-16 16 16 16 0 0 0 16 16 16 16 0 0 0 16-16 16 16 0 0 0-16-16zm-0.2266 6.494c-0.1544 0.0851-0.3019 0.1492-0.4453 0.25 0.578-0.1367 0.5514 0.05887 1.141-0.01953-0.206 0.0314-0.4602 0.1112-0.4199 0.1426 0.661 0.07616 0.7619-0.2038 1.371 0l-0.03906-0.1797c0.85 0.3048 1.027 0.2518 1.947 0.7402 0.3224 0.01792 0.3558-0.1971 0.8418 0 0.0876 0.1524-0.01837 0.1787 0.582 0.5371 0.0672-0.0269-0.12-0.1976-0.2656-0.332 1.205 0.646 2.517 2.021 2.916 3.49-0.374-0.6877-0.03807 0.3526-0.168 0.2988a8.008 8.008 0 0 1 0.3887 1.395c-0.112-0.395-0.3522-1.345-0.7734-1.959-0.0358 0.3964-0.5476-0.2716-0.2676 0.5996 0.2128 0.3091 0.04269-0.3144 0.3047 0.2344 0.0045 0.262 0.1036 0.519 0.1641 0.8594-0.0919-0.0157-0.2023-0.3762-0.2695-0.2754 0.0918 0.4279 0.2425 0.65 0.3008 0.6836-0.03136 0.0717-0.1046-0.06659-0.1113 0.2246 0.0358 0.6696 0.188 0.3866 0.2598 0.418-0.0739 0.329-0.3683 0.7164-0.2227 1.283-0.0425-0.1724-0.1228-0.3443-0.1855-0.5078-0.05826 0.4842 0.1068 0.5773-0.1172 1.164 0.1612-0.5284 0.1445-1.004-0.007812-0.7734 0.0672 0.75-0.5951 1.326-0.5234 1.803l-0.1914-0.2656c-0.5219 0.7527-0.01134 0.4151-0.3652 0.9863 0.1299-0.224-0.07059-0.09236 0.09961-0.3477-0.112 0.0068-0.5013 0.4801-0.8574 0.7578-1.4 1.12-3.071 1.267-4.688 0.6621-0.0628 0.0512 0.289 0.3265 0.5488 0.4609 0.616 0.2262 1.313 0.2392 1.861 0.2168-1.187 0.497-3.45-0.5021-4.189-1.828 0.168 0.035 0.7419 0.9306 1.172 1.076-0.2532-0.204-0.4512-0.462-0.6348-0.7285a3.718 3.718 0 0 0 1.217 0.9297c-0.01456-0.056 0.01728-0.08915 0.02539-0.127s-0.007734-0.07954-0.1152-0.1523c-1.371-1.051-2.181-1.942-1.898-4.012 0.2084-0.157 0.263-1.02 0.7422-1.322 0.291-0.6444 1.169-1.242 2.105-1.256 0.956-0.051 1.763 0.5102 2.166 1.041-0.734-0.6876-1.943-0.8951-2.973-0.3867-1.053 0.474-1.676 1.633-1.586 2.787 0.03808-0.056 0.07388-0.01871 0.0918-0.1621-0.032 2.245 2.417 3.887 4.18 3.059l0.02148 0.04688c0.717-0.1948 0.6258-0.3555 1.092-0.6758-0.0358 0.074-0.3141 0.2695-0.1484 0.2695 0.226-0.06 0.9397-0.7196 1.289-1.033 0.1613-0.3451-0.08533-0.1843 0.1387-0.6211l0.2734-0.1348c0.1509-0.4343 0.3153-0.6844 0.2988-1.188l-0.1523 0.3242c0.2352-0.712 0.1012-1.485 0.1348-2.154l-0.06836-0.01758c-0.056-1.684-1.512-3.475-2.811-4.08-1.115-0.5173-2.836-0.6043-3.629-0.2168 0.1074-0.0963 0.5443-0.137 0.4121-0.2109-1.244 0.1232-0.9659 0.4336-1.92 0.6777-0.2596 0.2531 0.7637-0.202 0.2129 0.125-0.5102 0.1412-0.7487-0.09064-1.506 0.6934 0.0672 0.112 0.48-0.3211 0.1328 0.1133-0.712-0.087-2.247 1.628-2.574 2.197l0.1699 0.0293c-0.28 0.7028-0.6499 1.149-0.6992 1.57-0.0717 1.035-0.4352 2.922 0.06641 3.502l-0.04688 0.4844c0.0671 0.1389 0.1219 0.2764 0.207 0.4062l-0.1133 0.009766c0.5282 1.664 0.5693 0.02881 1.264 1.758-0.1008-0.0336-0.2015-0.06988-0.3516-0.2715-0.0156 0.1548 0.2167 0.609 0.4922 0.9629l-0.1172 0.1348c0.1568 0.28 0.2948 0.3412 0.4023 0.4375-0.5734-0.313 0.5323 1.033 0.6309 1.205l0.08789-0.1582c-0.0112 0.224 0.1632 0.5167 0.4902 0.9199l0.2734-0.01172c0.112 0.224 0.5251 0.6247 0.7715 0.6426l-0.166 0.2168c0.627 0.1972 0.3038 0.2622 1.074 0.5332l-0.1562-0.2734c0.394 0.338 0.5132 0.6386 1.066 0.8984 0.7678 0.2665 0.8703 0.1647 1.656 0.3887-0.668-0.0202-1.452-0.01272-1.98-0.2031-3.603-0.976-6.898-5.199-6.656-9.551-0.05824-0.88 0.08896-1.982-0.05664-2.199 0.206-0.672 0.4427-1.49 0.9219-2.465 0.02844 0.02578 0.1392 0.08964 0.3223-0.2227 0.148-0.3248 0.2692-0.6844 0.4551-0.998l0.09766-0.02148c0.094-0.557 1.3-1.414 1.658-1.844l0.02344 0.1641c0.782-0.732 2.177-1.225 2.961-1.574-0.2062 0.2285 0.4618-0.0217 0.9434-0.05078z"/>
 <path id="fg" d="m21.85 14.61c0.02016 0.5128-0.1478 0.7616-0.3001 1.2l-0.2732 0.1344c-0.224 0.4368 0.0224 0.2777-0.1389 0.6228-0.3494 0.3136-1.062 0.972-1.288 1.032-0.1657 0 0.112-0.1948 0.1478-0.2688-0.466 0.3203-0.374 0.4816-1.091 0.6764l-0.0224-0.04704c-1.763 0.8288-4.212-0.8152-4.18-3.06-0.01792 0.1434-0.05376 0.1075-0.09184 0.1635-0.0896-1.154 0.5332-2.314 1.586-2.788 1.03-0.5084 2.24-0.3001 2.974 0.3875-0.4032-0.5308-1.21-1.093-2.166-1.042-0.936 0.01344-1.814 0.6116-2.105 1.256-0.4792 0.3024-0.5352 1.165-0.7436 1.322-0.2822 2.07 0.5284 2.961 1.899 4.012 0.215 0.1456 0.06048 0.168 0.0896 0.28a3.718 3.718 0 0 1-1.216-0.9296c0.1836 0.2665 0.3808 0.524 0.634 0.728-0.43-0.1456-1.003-1.042-1.171-1.077 0.7392 1.326 3.001 2.325 4.188 1.828-0.5488 0.0224-1.245 0.0112-1.861-0.215-0.2598-0.1344-0.6116-0.41-0.5488-0.4612 1.617 0.6048 3.288 0.4568 4.688-0.6628 0.3561-0.2777 0.746-0.7504 0.858-0.7572-0.1702 0.2553 0.02912 0.1232-0.1008 0.3472 0.3539-0.5712-0.1568-0.2329 0.3651-0.9856l0.1926 0.2643c-0.07168-0.4772 0.5892-1.053 0.522-1.803 0.1523-0.2307 0.1702 0.2464 9e-3 0.7748 0.224-0.5868 0.05824-0.6808 0.1165-1.165 0.06272 0.1635 0.1434 0.336 0.1859 0.5084-0.1456-0.5668 0.1478-0.954 0.2217-1.283-0.07172-0.03136-0.224 0.2508-0.2598-0.4188 0.0067-0.2912 0.08064-0.1523 0.112-0.224-0.05824-0.0336-0.2083-0.2553-0.3001-0.6832 0.0672-0.1008 0.1769 0.2598 0.2688 0.2755-0.06048-0.3404-0.159-0.598-0.1635-0.86-0.262-0.5488-0.09184 0.07392-0.3046-0.2352-0.28-0.8712 0.2307-0.2016 0.2665-0.598 0.4212 0.6136 0.6628 1.563 0.7748 1.958a8.008 8.008 0 0 0-0.3897-1.395c0.1299 0.05376-0.206-0.9856 0.168-0.2979-0.3987-1.469-1.711-2.844-2.916-3.49 0.1456 0.1344 0.3337 0.3046 0.2665 0.3315-0.6004-0.3584-0.4948-0.3852-0.5824-0.5376-0.486-0.1971-0.5196 0.01792-0.842 0-0.9204-0.4884-1.098-0.4344-1.948-0.7392l0.04032 0.1792c-0.6092-0.2038-0.71 0.07616-1.371 0-0.04032-0.03136 0.2128-0.112 0.4188-0.1434-0.5892 0.0784-0.562-0.1165-1.14 0.02016 0.1434-0.1008 0.2912-0.1657 0.4456-0.2508-0.4816 0.02908-1.149 0.28-0.9428 0.05148-0.784 0.3494-2.179 0.842-2.961 1.574l-0.02464-0.1635c-0.3584 0.43-1.563 1.286-1.657 1.843l-0.09856 0.0224c-0.1859 0.3136-0.3068 0.672-0.4548 0.9968-0.2441 0.4164-0.3584 0.1613-0.3225 0.224-0.4792 0.9744-0.7168 1.792-0.9228 2.464 0.1456 0.2172 0 1.319 0.05824 2.199-0.2419 4.352 3.053 8.576 6.656 9.552 0.5284 0.1904 1.312 0.1814 1.98 0.2016-0.786-0.224-0.8892-0.121-1.657-0.3875-0.5532-0.2598-0.672-0.56-1.066-0.898l0.1568 0.2732c-0.7704-0.271-0.448-0.336-1.075-0.5332l0.1657-0.2172c-0.2464-0.01792-0.6584-0.4188-0.7704-0.6428l-0.2732 0.0112c-0.327-0.4032-0.5016-0.6944-0.4904-0.9184l-0.08736 0.1568c-0.09856-0.1724-1.205-1.518-0.6316-1.205-0.1075-0.09632-0.2464-0.1568-0.4032-0.4368l0.1187-0.1344c-0.2755-0.3539-0.5084-0.8084-0.4928-0.9632 0.1501 0.2016 0.2508 0.2374 0.3516 0.271-0.6944-1.729-0.7348-0.09408-1.263-1.758l0.112-9e-3c-0.08512-0.1299-0.1389-0.2687-0.206-0.4076l0.04704-0.4836c-0.5016-0.58-0.1389-2.466-0.0672-3.501 0.04928-0.4212 0.4188-0.8692 0.6988-1.572l-0.1702-0.02912c0.327-0.5688 1.864-2.284 2.576-2.197 0.3472-0.4344-0.0672 0-0.1344-0.112 0.7572-0.784 0.9968-0.5532 1.507-0.6944 0.5508-0.327-0.4724 0.1277-0.2128-0.1254 0.954-0.2441 0.6764-0.5532 1.92-0.6764 0.1322 0.07392-0.3046 0.1142-0.412 0.2105 0.7928-0.3875 2.513-0.3001 3.628 0.2172 1.299 0.6048 2.755 2.396 2.811 4.08l0.0672 0.01792c-0.0336 0.6696 0.1008 1.442-0.1344 2.154l0.159-0.336"/>
 </defs>
 <symbol id="color">
  <use href="#bg" fill="#f23c61"/>
  <use href="#fg" fill="#fff"/>
 </symbol>
 <symbol id="light-white"><use href="#fg" fill="#fff"/></symbol>
 <symbol id="light-black"><use href="#fg"/></symbol>
 <symbol id="full-white"><use href="#bg" fill="#fff"/></symbol>
 <symbol id="full-black"><use href="#bg"/></symbol>
 <use id="main" href="#color"/>
</svg>

