<?xml version="1.0" encoding="UTF-8"?>
<svg version="1.1" viewBox="0 0 32 32" xmlns="http://www.w3.org/2000/svg">
 <defs>
 <path id="bg" d="m20.39 0.9962c-8.287-2.423-16.97 2.328-19.39 10.62-2.424 8.286 2.329 16.97 10.62 19.39 8.285 2.424 16.97-2.328 19.39-10.61 2.424-8.288-2.329-16.97-10.61-19.39z"/>
 <path id="sh" d="m20.79 2.812c-2.012-0.7339-4.073-0.9321-6.073-0.7461-2.319 0.183-3.451 0.9011-3.384 0.7712-3.792 1.354-6.998 4.266-8.483 8.35-2.644 7.273 1.101 15.32 8.363 17.96 7.265 2.648 15.3-1.102 17.94-8.375 2.645-7.273-1.1-15.31-8.363-17.96zm-9.099 25.02c-0.7741-0.2829-1.497-0.643-2.178-1.054 3.384 0.26 7.8-0.5199 10.78-3.307 0 0 5.677-4.536 1.57-11.98 0 0 0.662 3-0.182 5.468 0 0-0.805 3.356-4.383 4.331-5.27 1.436-11.28-2.253-13.79-4.04-0.1889-1.837-0.02098-3.735 0.6522-5.587 0.9978-2.744 2.874-4.885 5.166-6.323-0.5729 4.009-0.12 7.7 0.5312 9.246 0.8739 2.073 2.393 4.491 5.356 4.801 2.963 0.311 4.597-2.462 4.597-2.462 1.52-2.31 1.758-5.627 1.735-5.707-0.02313-0.08099-0.4051-0.2999-0.4051-0.2999-1.023 4.14-2.71 5.523-2.71 5.523-2.66 2.568-4.544 0.787-4.544 0.787-2.025-2.175-0.607-5.71-0.607-5.71 0.793-2.408 3.104-5.932 5.723-7.724 0.4361 0.1079 0.8751 0.175 1.306 0.332 1.585 0.578 2.973 1.449 4.147 2.519-1.915 0.6989-5.007 2.177-5.007 2.177-4.901 2.064-5.232 5.186-5.232 5.186-0.507 3.218 2.046 1.856 2.046 1.856 2.628-1.28 3.919-5.269 3.919-5.269-0.8201-0.156-1.466 0.09302-1.466 0.09302-1.049 2.589-3.189 3.654-3.189 3.654-0.8418 0.446-1.038-0.3421-1.038-0.3421-0.142-0.5899 0.6089-0.6911 0.6089-0.6911 1.166-0.4529 1.912-1.678 2.081-2.179 0.1681-0.502 0.481-0.541 0.481-0.541 1.598-0.51 3.055-0.624 3.055-0.624 1.984-0.2441 5.021 0.7021 5.021 0.7021 0.681 0.2739 1.334 0.4789 1.914 0.6428 1.113 2.781 1.289 5.948 0.186 8.984-2.378 6.545-9.608 9.921-16.15 7.538z"/>
 <path id="fg" d="m16 2a14 14 0 0 0-0.07717 0.00594c0.04098-5.287e-4 0.08167-0.00179 0.1227-0.00198a14 14 0 0 0-0.04551-0.00396zm0.04551 0.00396a14 14 0 0 1 13.81 11.99c-0.7111-4.948-4.049-9.356-9.069-11.19-1.568-0.572-3.165-0.8145-4.741-0.8073zm-0.1227 0.00198c-0.4045 0.00522-0.8066 0.02211-1.207 0.05936-0.235 0.01854-0.4503 0.04512-0.6609 0.07322a14 14 0 0 1 1.868-0.1326zm-1.868 0.1326a14 14 0 0 0-0.0653 0.00791c0.02059-0.00286 0.04447-0.00514 0.0653-0.00791zm-0.0653 0.00791c-0.6988 0.09695-1.253 0.2354-1.676 0.3661a14 14 0 0 1 1.676-0.3661zm-1.676 0.3661a14 14 0 0 0-0.9835 0.3245c-0.02683 0.00957-0.05238 0.02193-0.07916 0.03166a14 14 0 0 1 0.07916-0.02968c-0.02482 0.06217 0.3116-0.1191 0.9835-0.3265zm-1.063 0.3562a14 14 0 0 0-1.801 0.7975c0.5814-0.3061 1.183-0.5727 1.801-0.7975zm-1.801 0.7975c-0.1236 0.06505-0.2464 0.1312-0.3681 0.1999a14 14 0 0 1 0.3681-0.1999zm-0.3681 0.1999a14 14 0 0 0-1.021 0.6332c0.3314-0.2257 0.6723-0.4364 1.021-0.6332zm-1.021 0.6332c-0.3308 0.2253-0.6504 0.4669-0.9617 0.7203a14 14 0 0 1 0.9617-0.7203zm-0.9617 0.7203a14 14 0 0 0-0.4274 0.3601c0.1397-0.1233 0.2832-0.2427 0.4274-0.3601zm-0.4274 0.3601c-0.4226 0.373-0.8222 0.7735-1.199 1.199a14 14 0 0 1 1.199-1.199zm-1.199 1.199a14 14 0 0 0-0.09102 0.1029c0.02999-0.03455 0.06072-0.06868 0.09102-0.1029zm-0.09102 0.1029c-1.07 1.233-1.942 2.673-2.535 4.304-0.1038 0.2856-0.1927 0.5732-0.277 0.8608a14 14 0 0 1 2.812-5.165zm13.62-3.085c-2.619 1.792-4.93 5.317-5.723 7.725 0 0-1.417 3.534 0.6075 5.709 0 0 1.883 1.782 4.543-0.7856 0 0 1.688-1.383 2.711-5.523 0 0 0.3825 0.2178 0.4057 0.2988 0.023 0.08002-0.2154 3.397-1.735 5.707 0 0-1.634 2.773-4.597 2.462-2.963-0.31-4.483-2.727-5.357-4.801-0.6511-1.546-1.103-5.236-0.5303-9.245-2.292 1.438-4.169 3.578-5.167 6.322-0.6732 1.852-0.8419 3.749-0.653 5.586 2.51 1.787 8.516 5.477 13.79 4.041 3.578-0.9751 4.383-4.332 4.383-4.332 0.844-2.468 0.182-5.467 0.182-5.467 4.107 7.444-1.571 11.98-1.571 11.98-2.978 2.787-7.393 3.567-10.78 3.307 0.681 0.411 1.403 0.7718 2.177 1.055 6.539 2.383 13.77-0.9922 16.15-7.537 1.103-3.036 0.9269-6.203-0.186-8.984-0.58-0.1639-1.233-0.3692-1.913-0.6431 0 0-3.036-0.9465-5.02-0.7025 0 0-1.457 0.1133-3.055 0.6233 0 0-0.3128 0.04021-0.4808 0.5422-0.169 0.501-0.9158 1.726-2.082 2.179 0 0-0.7515 0.1007-0.6095 0.6906 0 0 0.197 0.7883 1.039 0.3423 0-1e-6 2.139-1.066 3.188-3.655 0 0 0.6462-0.249 1.466-0.09301 0 0-1.29 3.989-3.918 5.27 0 0-2.553 1.362-2.046-1.856 0 0 0.3309-3.122 5.232-5.186 0 0 3.091-1.478 5.006-2.177-1.174-1.07-2.563-1.941-4.148-2.519-0.431-0.157-0.8699-0.2245-1.306-0.3324zm-16.44 8.273c-0.1872 0.6429-0.327 1.29-0.4195 1.937a14 14 0 0 1 0.4195-1.937zm-0.4195 1.937c-0.09513 0.6651-0.1433 1.33-0.1425 1.991a14 14 0 0 1 0.1425-1.991zm27.72 0.01583a14 14 0 0 1 0.1405 1.967c3.99e-4 -0.6621-0.04858-1.319-0.1405-1.967zm-27.86 1.983c0.00121 0.6441 0.04797 1.283 0.1365 1.913a14 14 0 0 1-0.1365-1.913zm0.1365 1.913a14 14 0 0 0 0.01385 0.1128c-0.00557-0.03748-0.00858-0.07526-0.01385-0.1128zm27.86-1.9a14 14 0 0 1-0.1346 1.89c0.08822-0.6313 0.1328-1.263 0.1346-1.89zm-0.1346 1.89c-0.0054 0.03827-0.0082 0.0765-0.01385 0.1148a14 14 0 0 0 0.01385-0.1148zm-27.71 0.1326c0.08809 0.5896 0.2168 1.171 0.378 1.741a14 14 0 0 1-0.378-1.741zm0.378 1.741a14 14 0 0 0 0.07717 0.2711c-0.02731-0.08977-0.05165-0.1807-0.07717-0.2711zm0.07717 0.2711c0.1643 0.5401 0.3644 1.067 0.5917 1.583a14 14 0 0 1-0.5917-1.583zm0.5917 1.583a14 14 0 0 0 0.1346 0.3028c-0.04697-0.1001-0.08995-0.2016-0.1346-0.3028zm0.1346 0.3028c0.2381 0.5074 0.5082 1 0.8054 1.476a14 14 0 0 1-0.8054-1.476zm0.8054 1.476a14 14 0 0 0 0.1484 0.2394c-0.05137-0.07874-0.09865-0.1597-0.1484-0.2394zm25.71-5.368a14 14 0 0 1-0.378 1.729c0.1622-0.5747 0.2913-1.152 0.378-1.729zm-0.378 1.729c-0.02562 0.09076-0.04765 0.1825-0.0752 0.2731a14 14 0 0 0 0.0752-0.2731zm-0.0752 0.2731a14 14 0 0 1-0.5996 1.607c0.1273-0.2884 0.2488-0.5819 0.3582-0.8825 0.08765-0.241 0.1677-0.4818 0.2414-0.7242zm-0.5996 1.607c-0.04434 0.1005-0.09009 0.1998-0.1365 0.2988a14 14 0 0 0 0.1365-0.2988zm-0.1365 0.2988a14 14 0 0 1-0.8074 1.484c0.2963-0.473 0.5653-0.9684 0.8074-1.484zm-0.8074 1.484c-0.05482 0.08752-0.1116 0.1732-0.1682 0.2592a14 14 0 0 0 0.1682-0.2592zm-0.1682 0.2592a14 14 0 0 1-1.037 1.383c0.3718-0.4359 0.7174-0.8975 1.037-1.383zm-1.037 1.383c-0.05375 0.063-0.1095 0.1241-0.1642 0.186a14 14 0 0 0 0.1642-0.186zm-0.1642 0.186a14 14 0 0 1-1.247 1.247c0.4401-0.3861 0.8551-0.8039 1.247-1.247zm-1.247 1.247c-0.05913 0.05187-0.1201 0.1016-0.1801 0.1524a14 14 0 0 0 0.1801-0.1524zm-0.1801 0.1524a14 14 0 0 1-1.405 1.051c0.4888-0.3189 0.9575-0.6714 1.405-1.051zm-1.405 1.051c-0.07149 0.04663-0.1454 0.08926-0.2177 0.1346a14 14 0 0 0 0.2177-0.1346zm-0.2177 0.1346a14 14 0 0 1-1.518 0.8291c0.5224-0.2439 1.028-0.5225 1.518-0.8291zm-19.14-4.187c0.3156 0.4829 0.6643 0.9447 1.039 1.387a14 14 0 0 1-1.039-1.387zm1.039 1.387a14 14 0 0 0 0.1563 0.184c-0.05321-0.0607-0.1042-0.1225-0.1563-0.184zm0.1563 0.184c0.3907 0.4457 0.8138 0.8667 1.262 1.262a14 14 0 0 1-1.262-1.262zm1.262 1.262a14 14 0 0 0 0.1464 0.1306c-0.0496-0.04253-0.0975-0.08743-0.1464-0.1306zm0.1464 0.1306c0.4509 0.3867 0.9302 0.7442 1.435 1.074a14 14 0 0 1-1.435-1.074zm1.435 1.074a14 14 0 0 0 0.19 0.1227c-0.06373-0.04025-0.127-0.0815-0.19-0.1227zm0.19 0.1227c0.4958 0.3132 1.016 0.5958 1.559 0.8489a14 14 0 0 1-1.559-0.8489zm1.559 0.8489a14 14 0 0 0 0.2196 0.1009c-0.07371-0.03283-0.1468-0.06695-0.2196-0.1009zm0.2196 0.1009c0.2976 0.1325 0.5996 0.2607 0.9102 0.374 0.2591 0.09445 0.5188 0.1789 0.7796 0.2572a14 14 0 0 1-1.69-0.6312zm1.69 0.6312a14 14 0 0 0 0.1642 0.04551c-0.05468-0.01569-0.1096-0.02912-0.1642-0.04551zm0.1642 0.04551c0.6078 0.1745 1.219 0.3101 1.83 0.3997a14 14 0 0 1-1.83-0.3997zm1.83 0.3997a14 14 0 0 0 0.06135 6e-3c-0.02042-0.0029-0.04092-0.0029-0.06135-6e-3zm0.06135 6e-3c0.649 0.09223 1.297 0.14 1.941 0.1405a14 14 0 0 1-1.941-0.1405zm7.852-1.171c-0.0689 0.03208-0.1384 0.06204-0.2078 0.09301a14 14 0 0 0 0.2078-0.09301zm-0.2078 0.09301a14 14 0 0 1-1.69 0.6293c0.5767-0.1728 1.141-0.3845 1.69-0.6293zm-1.69 0.6293c-0.04978 0.01492-0.1004 0.02718-0.1504 0.04156a14 14 0 0 0 0.1504-0.04156zm-0.1504 0.04156a14 14 0 0 1-1.819 0.3977c0.6166-0.09118 1.223-0.2265 1.819-0.3977zm-1.819 0.3977c-0.03475 0.0052-0.07007 7e-3 -0.1049 0.01187a14 14 0 0 0 0.1049-0.01187zm-0.1049 0.01187a14 14 0 0 1-1.921 0.1385c0.6466-3.71e-4 1.288-0.04973 1.921-0.1385z"/>
 </defs>
 <symbol id="color">
  <use href="#bg" fill="#fff"/>
  <use href="#sh" fill="#00b7ff"/>
  <use href="#fg" fill="#fff"/>
 </symbol>
 <symbol id="light-white"><use href="#fg" fill="#fff"/></symbol>
 <symbol id="light-black"><use href="#fg"/></symbol>
 <symbol id="full-white"><use href="#bg" fill="#fff"/></symbol>
 <symbol id="full-black"><use href="#bg"/></symbol>
 <use id="main" href="#color"/>
</svg>

