<?xml version="1.0" encoding="UTF-8"?>
<svg xmlns="http://www.w3.org/2000/svg" version="1.1" viewBox="0 0 32 32">
  <defs>
   <path id="bg" d="m16 0c8.836 0 16 7.164 16 16s-7.164 16-16 16-16-7.164-16-16 7.164-16 16-16z"/>
   <path id="fg" d="m11.66 7.5-1.479 0.854 0.3848 0.8164a2.685 2.685 0 0 0-0.4516 0.7852l-0.9008 0.07576v1.708l0.9008 0.07576a2.685 2.685 0 0 0 0.1913 0.4136 2.685 2.685 0 0 0 0.2603 0.3736l-0.3848 0.8144 1.479 0.8564 0.516-0.7432a2.685 2.685 0 0 0 0.9052-0.0022l0.516 0.7452 1.479-0.854-0.3848-0.8188a2.685 2.685 0 0 0 0.454-0.7852l0.9008-0.07576v-1.708l-0.9008-0.0736a2.685 2.685 0 0 0-0.1913-0.4136 2.685 2.685 0 0 0-0.2625-0.3736l0.3848-0.8164-1.479-0.854-0.514 0.7408a2.685 2.685 0 0 0-0.9076 0.00224zm0.9456 2.412a0.9764 0.9764 0 0 1 0.87 0.4872 0.9764 0.9764 0 0 1-0.3582 1.332 0.9764 0.9764 0 0 1-1.332-0.356 0.9764 0.9764 0 0 1 0.3559-1.335 0.9764 0.9764 0 0 1 0.4648-0.1292zm3.121 3.199-0.1246 1.502a4.476 4.476 0 0 0-1.308 0.7564l-1.364-0.6428-1.424 2.467 1.237 0.8588a4.476 4.476 0 0 0-0.06672 0.754 4.476 4.476 0 0 0 0.06452 0.7584l-1.235 0.8564 1.424 2.467 1.359-0.6408a4.476 4.476 0 0 0 1.312 0.752l0.1246 1.502h2.848l0.1246-1.499a4.476 4.476 0 0 0 1.308-0.7564l1.364 0.6428 1.424-2.467-1.237-0.8588a4.476 4.476 0 0 0 0.06896-0.7564 4.476 4.476 0 0 0-0.06672-0.7564l1.235-0.8564-1.424-2.467-1.359 0.6408a4.476 4.476 0 0 0-1.31-0.752l-0.1268-1.504zm1.424 4.068a1.627 1.627 0 0 1 1.628 1.626 1.627 1.627 0 0 1-1.628 1.628 1.627 1.627 0 0 1-1.626-1.628 1.627 1.627 0 0 1 1.626-1.626z"/>
  </defs>
  <symbol id="color">
    <use href="#bg" fill="#4d4d4d"/>
    <use href="#fg" fill="#fff"/>
  </symbol>
 <symbol id="light-white"><use href="#fg" fill="#fff"/></symbol>
 <symbol id="light-black"><use href="#fg"/></symbol>
 <symbol id="full-white"><use href="#bg" fill="#fff"/></symbol>
 <symbol id="full-black"><use href="#bg"/></symbol>
 <use id="main" href="#color"/>
</svg>

