<?xml version="1.0" encoding="UTF-8"?>
<svg version="1.1" viewBox="0 0 32 32" xmlns="http://www.w3.org/2000/svg">
 <defs>
  <path id="bg" d="m16 0c-8.836 0-16 7.164-16 16 0 8.836 7.164 16 16 16 8.836 0 16-7.164 16-16 0-8.836-7.164-16-16-16zm-0.003906 7.5h0.001953 0.001953a2.267 2.267 0 0 1 2.264 2.268h3.398c0.6274 0 1.135 0.5048 1.135 1.133v12.47c0 0.6274-0.5068 1.135-1.135 1.135h-11.33c-0.6274 0-1.133-0.5068-1.133-1.135v-12.47c0-0.6274 0.5048-1.133 1.133-1.133h3.4a2.267 2.267 0 0 1 2.264-2.268zm0.003906 1.133a1.133 1.133 0 0 0-1.133 1.133 1.133 1.133 0 0 0 1.133 1.133 1.133 1.133 0 0 0 1.133-1.133 1.133 1.133 0 0 0-1.133-1.133zm-4.531 3.4-0.001953 10.2h9.066v-10.2h-1.133v1.133h-6.799v-1.133h-1.133z"/>
  <path id="fg" d="m16 7.5a2.267 2.267 0 0 0-2.267 2.267h-3.4c-0.628 0-1.133 0.5056-1.133 1.133v12.47c0 0.628 0.5056 1.133 1.133 1.133h11.33c0.628 0 1.133-0.5056 1.133-1.133v-12.47c0-0.628-0.5056-1.133-1.133-1.133h-3.4a2.267 2.267 0 0 0-2.267-2.267zm0 1.133a1.133 1.133 0 0 1 1.133 1.133 1.133 1.133 0 0 1-1.133 1.133 1.133 1.133 0 0 1-1.133-1.133 1.133 1.133 0 0 1 1.133-1.133zm-4.532 3.4h1.133v1.133h6.8v-1.133h1.133v10.2h-9.068z"/>
 </defs>
 <symbol id="color">
  <use href="#bg" fill="#4d4d4d"/>
  <use href="#fg" fill="#fff"/>
 </symbol>
 <symbol id="light-white"><use href="#fg" fill="#fff"/></symbol>
 <symbol id="light-black"><use href="#fg"/></symbol>
 <symbol id="full-white"><use href="#bg" fill="#fff"/></symbol>
 <symbol id="full-black"><use href="#bg"/></symbol>
 <use id="main" href="#color"/>
</svg>
