<?xml version="1.0" encoding="UTF-8"?>
<svg xmlns="http://www.w3.org/2000/svg" version="1.1" viewBox="0 0 32 32">
  <defs>
   <path id="bg" d="m16 0a16 16 0 0 0-16 16 16 16 0 0 0 16 16 16 16 0 0 0 16-16 16 16 0 0 0-16-16zm0.5918 5.914c5.24 0 9.484 4.248 9.484 9.484 0 5.236-4.244 9.482-9.48 9.484h-7.332c-1.189 1e-6 -2.153-0.962-2.156-2.15v-7.336c4e-3 -5.232 4.248-9.477 9.484-9.477v-0.005859zm2.783 2.252c-0.1534 0-0.3036 0.007998-0.4531 0.02344 0.1315-0.01339 0.2639-0.01824 0.3984-0.01953-0.2588 0.004042-0.5111 0.03438-0.7578 0.08008-2.068 0.382-3.637 2.188-3.637 4.367v2.357h-1.865c-0.5812 0-1.049 0.4571-1.049 1.037 0 0.5764 0.4643 1.035 1.039 1.035h1.543c0.00788 0 0.01368 0.005318 0.02148 0.005859 0.1722 0.01196 0.3105 0.1512 0.3105 0.3262v2.041c-0.0024 1.296-1.054 2.346-2.35 2.346-0.238 0-0.379-0.01768-0.5059-0.0332-0.1073-0.01312-0.2026-0.02539-0.3398-0.02539-0.6296 0-1.051 0.422-1.051 1.002-1e-6 0.4796 0.4109 0.8937 0.9141 1.025 0.1157 0.03024 0.2174 0.04685 0.3223 0.06641 0.0013 1.94e-4 0.002606-1.92e-4 0.003906 0 0.1581 0.02392 0.3175 0.04418 0.4805 0.05078 0.02712 0.0011 0.0528 0.007214 0.08008 0.007813h0.001953c0.03312 8e-4 0.05891 0.005859 0.09375 0.005859 0.2088 0 0.414-0.01904 0.6152-0.04688 0.04028-0.00572 0.08109-0.01078 0.1211-0.01758 0.00724-0.0012 0.01428-0.002706 0.02148-0.003906 0.1314-0.02256 0.2595-0.05596 0.3867-0.08984 0.05356-0.0138 0.1096-0.02099 0.1621-0.03711 1.82-0.5564 3.145-2.249 3.145-4.252v-2.359h1.863c0.5812 0 1.051-0.4571 1.051-1.037 0-0.5764-0.4643-1.035-1.039-1.035h-1.545c-0.01004 0-0.01754-0.005026-0.02734-0.005859-0.1693-0.01508-0.3047-0.1513-0.3047-0.3242v-2.043c0.0024-1.296 1.054-2.344 2.35-2.344 0.2344 0 0.3765 0.01434 0.502 0.0293h0.001953c0.1088 0.013 0.2049 0.02734 0.3438 0.02734 0.6296 0 1.051-0.422 1.051-1.002-1e-6 -0.48-0.4128-0.8917-0.916-1.023-0.1164-0.0304-0.2189-0.04653-0.3242-0.06641-0.1988-0.03004-0.3992-0.06001-0.6055-0.0625-0.019-2.2e-4 -0.03313-0.003906-0.05273-0.003906-0.01127 0-0.02196 0.001846-0.0332 0.001953 0.01128-4.336e-4 0.02182-0.003906 0.0332-0.003906z"/>
   <path id="fg" d="m16.59 5.92c-5.236 0-9.48 4.244-9.484 9.476v7.336c0.00281 1.188 0.9672 2.15 2.156 2.15h7.332c5.236-2e-3 9.48-4.248 9.48-9.484s-4.244-9.484-9.484-9.484zm2.783 2.246c-0.01204 0-0.02312 0.00382-0.03516 0.00389-0.1414 0.00101-0.2801 0.00552-0.418 0.01956 0.1496-0.01544 0.2998-0.02344 0.4532-0.02344zm0 0.00195c0.0196 0 0.03372 0.00367 0.05272 0.00389 0.2062 0.00249 0.4068 0.03244 0.6056 0.06248 0.1053 0.01988 0.2078 0.036 0.3242 0.0664 0.5032 0.1317 0.916 0.5436 0.916 1.024 0 0.58-0.4212 1.002-1.051 1.002-0.1389 0-0.235-0.01432-0.3438-0.02732-6.16e-4 -1.31e-4 -0.0013 1.3e-4 -2e-3 0-0.1254-0.01496-0.2676-0.02928-0.502-0.02928-1.296 0-2.347 1.048-2.35 2.344v2.043c0 0.1729 0.1354 0.3092 0.3047 0.3242 0.0098 8.33e-4 0.01732 0.0059 0.02736 0.0059h1.545c0.5748 0 1.039 0.4588 1.039 1.035 2.95e-4 0.58-0.4696 1.037-1.051 1.037h-1.863v2.36c0 2.003-1.324 3.696-3.144 4.252-0.05256 0.01612-0.1086 0.02332-0.1621 0.03712-0.1272 0.03388-0.2553 0.06728-0.3867 0.08984-0.0072 0.0012-0.01424 0.0027-0.02148 0.0039-0.04 0.0068-0.0808 0.01184-0.1211 0.01756-0.2013 0.02784-0.4064 0.04688-0.6152 0.04688-0.03484 0-0.06064-0.0051-0.09376-0.0059-6.58e-4 -1.4e-5 -0.0013 1.5e-5 -2e-3 0-0.02728-5.99e-4 -0.05296-0.0067-0.08008-0.0078-0.163-0.0066-0.3223-0.02688-0.4804-0.0508-0.0013-1.92e-4 -0.0026 1.94e-4 -0.0039 0-0.1049-0.01956-0.2066-0.03616-0.3223-0.0664-0.5032-0.1317-0.914-0.5456-0.914-1.025 0-0.58 0.4212-1.002 1.051-1.002 0.1372 0 0.2326 0.01228 0.3398 0.0254 0.1269 0.01552 0.268 0.0332 0.506 0.0332 1.296 0 2.347-1.05 2.35-2.346v-2.041c0-0.175-0.1383-0.3142-0.3106-0.3262-0.0078-5.41e-4 -0.0136-0.0059-0.02148-0.0059h-1.543c-0.5748-2.2e-5 -1.039-0.4588-1.039-1.035-2.95e-4 -0.58 0.4676-1.037 1.049-1.037h1.865v-2.358c0-2.179 1.568-3.986 3.637-4.368 0.2643-0.04896 0.534-0.08204 0.8124-0.08204zm-6.212 15.66c-0.0065 8.76e-4 -0.01304 0.0011-0.01952 2e-3 -0.1195 0.01528-0.2411 0.02184-0.3633 0.02732 0.1284-6e-3 0.2573-0.01244 0.3828-0.02928z"/>
   <path id="sh" d="m19.38 8.168c-0.3066 0-0.6068 0.03188-0.8964 0.09184 0.2897-0.05928 0.5892-0.09036 0.8964-0.09036 0.3729 0 0.6372 0.04312 0.9824 0.1334 0.5032 0.1317 0.9156 0.544 0.9156 1.024 0 0.58-0.4208 1.002-1.05 1.002-0.1397 0-0.2372-0.0136-0.3467-0.02668 1.073 0.227 1.867 1.168 1.867 2.314 0 1.318-1.049 2.368-2.368 2.368h-2.046c0.0098 8.34e-4 0.01816 0.0059 0.02816 0.0059h1.544c0.5748 0 1.04 0.4576 1.04 1.034 2.95e-4 0.58-0.4692 1.037-1.05 1.037h-1.864v3e-3h2.348c2.444 0 4.448-2.004 4.448-4.448 0-2.444-2.004-4.448-4.448-4.448zm-6.8 6.808c-2.444 0-4.448 2.005-4.448 4.448 0 2.444 2.004 4.448 4.448 4.448 0.4584 0 0.9016-0.07092 1.319-0.2015-0.4168 0.1292-0.8596 0.1985-1.319 0.1985-0.3729 0-0.6388-0.04164-0.9836-0.1318-0.5032-0.1317-0.914-0.5452-0.914-1.025 0-0.58 0.4208-1.002 1.05-1.002 0.1372-1e-6 0.2335 0.01204 0.3408 0.02516-1.07-0.2293-1.861-1.168-1.861-2.311 0-1.318 1.05-2.369 2.368-2.369h2.039c-0.0078-5.4e-4 -0.01432-0.0045-0.02224-0.0045h-1.542c-0.5748 0-1.04-0.4592-1.04-1.036-2.95e-4 -0.58 0.4692-1.037 1.05-1.037h1.864v-3e-3z" opacity=".35"/>
  </defs>
  <symbol id="color">
    <use href="#bg" fill="#225a84"/>
    <use href="#fg" fill="#fff"/>
    <use href="#sh" fill="#0069ff"/>
  </symbol>
 <symbol id="light-white"><use href="#fg" fill="#fff"/></symbol>
 <symbol id="light-black"><use href="#fg"/></symbol>
 <symbol id="full-white"><use href="#bg" fill="#fff"/></symbol>
 <symbol id="full-black"><use href="#bg"/></symbol>
 <use id="main" href="#color"/>
</svg>