<?xml version="1.0" encoding="UTF-8"?>
<svg version="1.1" viewBox="0 0 32 32" xmlns="http://www.w3.org/2000/svg">
 <defs>
  <path id="bg" d="m16 0c-8.836 0-16 7.164-16 16s7.164 16 16 16 16-7.164 16-16-7.164-16-16-16zm3.482 8.356-2e-3 0.00195c1.391 0 2.086 0.6968 2.086 1.392 0 2.087-4.868 2.782-6.26 3.478-1.391 0.6956-4.172 2.086-4.52 6.26-0.3478-5.564 2.434-11.13 8.696-11.13zm-9.744 1.398c1.098 0 1.391 0.3257 1.391 1.391 0 1.391-0.6952 2.784-0.6952 4.868 0 2.087-8.58e-4 5.564 2.086 9.044-2.782-2.782-5.564-6.956-5.564-11.13 0-2.087 0.6944-4.172 2.781-4.172zm5.564 6.248c4.172 0 7.652 2.781 9.74 5.564-2.172-1.106-4.868-2.086-6.956-2.086-3.478 0-4.532 0.6952-5.564 0.6952-0.6952 0-1.39-2.13e-4 -1.391-1.111 0.0013-1.391 1.392-3.06 4.172-3.06z"/>
  <path id="fg" d="m19.48 8.356c-6.26 0-9.044 5.568-8.696 11.13 0.348-4.172 3.128-5.564 4.52-6.26 1.392-0.696 6.26-1.392 6.26-3.478 0-0.6956-0.6948-1.392-2.086-1.392l2e-3 -0.00195zm-9.744 1.398c-2.087 0-2.781 2.085-2.781 4.172 0 4.176 2.78 8.348 5.564 11.13-2.087-3.48-2.086-6.956-2.086-9.044 0-2.086 0.6952-3.478 0.6952-4.868 0-1.065-0.293-1.391-1.391-1.391zm5.564 6.248c-2.78 0-4.172 1.67-4.172 3.06 8.67e-4 1.111 0.6956 1.111 1.391 1.111 1.032 0 2.086-0.6952 5.564-0.6952 2.088 0 4.784 0.98 6.956 2.086-2.088-2.782-5.568-5.564-9.74-5.564z"/>
  <path id="fg_a" d="m19.48 8.36c1.391 0 2.087 0.6956 2.087 1.391 0 2.087-4.868 2.782-6.26 3.478-1.391 0.6956-4.172 2.087-4.52 6.26-0.3478-5.564 2.435-11.13 8.696-11.13z"/>
  <path id="fg_b" d="m11.13 19.06c0-1.391 1.391-3.061 4.172-3.061 4.172 0 7.652 2.782 9.74 5.564-2.172-1.106-4.868-2.087-6.956-2.087-3.478 0-4.532 0.6956-5.564 0.6956-0.6956 0-1.391 0-1.391-1.113z"/>
 </defs>
 <symbol id="color">
  <use href="#bg" fill="#c0e1f8"/>
  <use href="#fg" fill="#144b70"/>
  <use href="#fg_a" fill="#2b93d9"/>
  <use href="#fg_b"  fill="#6eb6e6"/>
 </symbol>
 <symbol id="light-white"><use href="#fg" fill="#fff"/></symbol>
 <symbol id="light-black"><use href="#fg"/></symbol>
 <symbol id="full-white"><use href="#bg" fill="#fff"/></symbol>
 <symbol id="full-black"><use href="#bg"/></symbol>
 <use id="main" href="#color"/>
</svg>