<?xml version="1.0" encoding="UTF-8"?>
<svg version="1.1" viewBox="0 0 32 32" xmlns="http://www.w3.org/2000/svg">
 <defs>
  <path id="bg" d="m16 0c-8.836 0-16 7.164-16 16 0 8.836 7.164 16 16 16 8.836 0 16-7.164 16-16 0-8.836-7.164-16-16-16zm-6.232 10h12.47s2.266 2e-6 2.266 2v8c0 2-2.266 2-2.266 2h-12.47s-2.266-2e-6 -2.266-2v-8c0-2 2.266-2 2.266-2zm0.2832 2c-0.157 0-0.2832 0.1117-0.2832 0.25v1.5c0 0.1384 0.1262 0.25 0.2832 0.25h1.701c0.157 0 0.2832-0.1117 0.2832-0.25v-1.5c0-0.1384-0.1262-0.25-0.2832-0.25h-1.701zm3.4 0c-0.157 0-0.2832 0.1117-0.2832 0.25v1.5c0 0.1384 0.1262 0.25 0.2832 0.25h1.699c0.157 0 0.2852-0.1117 0.2852-0.25v-1.5c0-0.1384-0.1282-0.25-0.2852-0.25h-1.699zm3.4 0c-0.157 0-0.2832 0.1117-0.2832 0.25v1.5c0 0.1384 0.1262 0.25 0.2832 0.25h1.699c0.157 0 0.2832-0.1117 0.2832-0.25v-1.5c0-0.1384-0.1262-0.25-0.2832-0.25h-1.699zm3.4 0c-0.157 0-0.2832 0.1117-0.2832 0.25v1.5c0 0.1384 0.1262 0.25 0.2832 0.25h1.699c0.157 0 0.2832-0.1117 0.2832-0.25v-1.5c0-0.1384-0.1262-0.25-0.2832-0.25h-1.699zm-10.2 3c-0.157 0-0.2832 0.1117-0.2832 0.25v1.5c0 0.1384 0.1262 0.25 0.2832 0.25h1.701c0.157 0 0.2832-0.1117 0.2832-0.25v-1.5c0-0.1384-0.1262-0.25-0.2832-0.25h-1.701zm3.4 0c-0.157 0-0.2832 0.1117-0.2832 0.25v1.5c0 0.1384 0.1262 0.25 0.2832 0.25h1.699c0.157 0 0.2852-0.1117 0.2852-0.25v-1.5c0-0.1384-0.1282-0.25-0.2852-0.25h-1.699zm3.4 0c-0.157 0-0.2832 0.1117-0.2832 0.25v1.5c0 0.1384 0.1262 0.25 0.2832 0.25h1.699c0.157 0 0.2832-0.1117 0.2832-0.25v-1.5c0-0.1384-0.1262-0.25-0.2832-0.25h-1.699zm3.4 0c-0.157 0-0.2832 0.1117-0.2832 0.25v1.5c0 0.1384 0.1262 0.25 0.2832 0.25h1.699c0.157 0 0.2832-0.1117 0.2832-0.25v-1.5c0-0.1384-0.1262-0.25-0.2832-0.25h-1.699zm-7.932 3c-0.157 0-0.2852 0.1117-0.2852 0.25v1.5c0 0.1384 0.1282 0.25 0.2852 0.25h7.367c0.157 0 0.2832-0.1117 0.2832-0.25v-1.5c0-0.1384-0.1262-0.25-0.2832-0.25h-7.367z"/>
  <path id="fg" d="m9.768 10s-2.267 0-2.267 2v8c0 2 2.267 2 2.267 2h12.47s2.267 0 2.267-2v-8c0-2-2.267-2-2.267-2zm0.2834 2h1.7c0.157 0 0.2834 0.1115 0.2834 0.2498v1.5c0 0.1383-0.1264 0.2498-0.2834 0.2498h-1.7c-0.157 0-0.2834-0.1115-0.2834-0.2498v-1.5c0-0.1383 0.1264-0.2498 0.2834-0.2498zm3.4 0h1.7c0.157 0 0.2834 0.1115 0.2834 0.2498v1.5c0 0.1383-0.1264 0.2498-0.2834 0.2498h-1.7c-0.157 0-0.2834-0.1115-0.2834-0.2498v-1.5c0-0.1383 0.1264-0.2498 0.2834-0.2498zm3.4 0h1.7c0.157 0 0.2834 0.1115 0.2834 0.2498v1.5c0 0.1383-0.1264 0.2498-0.2834 0.2498h-1.7c-0.157 0-0.2834-0.1115-0.2834-0.2498v-1.5c0-0.1383 0.1264-0.2498 0.2834-0.2498zm3.4 0h1.7c0.157 0 0.2834 0.1115 0.2834 0.2498v1.5c0 0.1383-0.1264 0.2498-0.2834 0.2498h-1.7c-0.157 0-0.2834-0.1115-0.2834-0.2498v-1.5c0-0.1383 0.1264-0.2498 0.2834-0.2498zm-10.2 3h1.7c0.157 0 0.2834 0.1115 0.2834 0.2498v1.5c0 0.1383-0.1264 0.2498-0.2834 0.2498h-1.7c-0.157 0-0.2834-0.1115-0.2834-0.2498v-1.5c0-0.1383 0.1264-0.2498 0.2834-0.2498zm3.4 0h1.7c0.157 0 0.2834 0.1115 0.2834 0.2498v1.5c0 0.1383-0.1264 0.2498-0.2834 0.2498h-1.7c-0.157 0-0.2834-0.1115-0.2834-0.2498v-1.5c0-0.1383 0.1264-0.2498 0.2834-0.2498zm3.4 0h1.7c0.157 0 0.2834 0.1115 0.2834 0.2498v1.5c0 0.1383-0.1264 0.2498-0.2834 0.2498h-1.7c-0.157 0-0.2834-0.1115-0.2834-0.2498v-1.5c0-0.1383 0.1264-0.2498 0.2834-0.2498zm3.4 0h1.7c0.157 0 0.2834 0.1115 0.2834 0.2498v1.5c0 0.1383-0.1264 0.2498-0.2834 0.2498h-1.7c-0.157 0-0.2834-0.1115-0.2834-0.2498v-1.5c0-0.1383 0.1264-0.2498 0.2834-0.2498zm-7.932 3h7.368c0.157 0 0.2834 0.1115 0.2834 0.2498v1.5c0 0.1383-0.1264 0.2498-0.2834 0.2498h-7.368c-0.157 0-0.2834-0.1115-0.2834-0.2498v-1.5c0-0.1383 0.1264-0.2498 0.2834-0.2498z"/>
 </defs>
 <symbol id="color">
  <use href="#bg" fill="#4d4d4d"/>
  <use href="#fg" fill="#fff"/>
 </symbol>
 <symbol id="light-white"><use href="#fg" fill="#fff"/></symbol>
 <symbol id="light-black"><use href="#fg"/></symbol>
 <symbol id="full-white"><use href="#bg" fill="#fff"/></symbol>
 <symbol id="full-black"><use href="#bg"/></symbol>
 <use id="main" href="#color"/>
</svg>