<?xml version="1.0" encoding="UTF-8"?>
<svg version="1.1" viewBox="0 0 32 32" xmlns="http://www.w3.org/2000/svg">
 <defs>
  <path id="bg" d="m15.76 0.001953a16 16 0 0 0 0 32 16 16 0 1 0 0-32zm0.2383 4.998a11 11 0 0 1 0 22 11 11 0 0 1 0-22zm-0.668 2.209c-0.01742 6.7e-6 -0.03317 8.111e-4 -0.05078 0.00586l-1.576 0.3848c-0.06496 0.0156-0.1152 0.07502-0.1152 0.1426l0.6973 3.211 0.02539 0.01563a5.312 5.312 0 0 1 6.936 4.236l3.248-0.709a0.1481 0.1481 0 0 0 0.07813-0.168l-0.3848-1.58c-0.0156-0.06496-0.07437-0.1152-0.1445-0.1152h-2.59c-0.2184-0.4132-0.4896-0.799-0.8066-1.152l0.8418-2.375a0.1481 0.1481 0 0 0-0.0625-0.1777l-1.387-0.8438a0.1455 0.1455 0 0 0-0.1816 0.02148l-1.744 1.742c-0.5172-0.1663-1.051-0.2559-1.578-0.2715l-1.086-2.285c-0.02311-0.04618-0.06606-0.07623-0.1172-0.08203zm-5.145 2.322a0.1429 0.1429 0 0 0-0.08984 0.04297l-1.148 1.148a0.1481 0.1481 0 0 0-0.02148 0.1816l1.344 2.215c-0.2364 0.4-0.4287 0.8343-0.5664 1.289l-2.469 0.5137c-0.06756 0.0156-0.1172 0.07632-0.1172 0.1465v1.623a0.1481 0.1481 0 0 0 0.1133 0.1426l2.395 0.5879a5.744 5.744 0 0 0 0.5898 1.488l-1.387 2.115a0.1481 0.1481 0 0 0 0.01758 0.1875l1.148 1.146a0.1507 0.1507 0 0 0 0.1816 0.01953l2.219-2.449v-0.03711a5.296 5.296 0 0 1 0.3555-8.088l-2.467-2.248a0.1455 0.1455 0 0 0-0.0957-0.02539zm11 7.611 2e-3 0.0039a5.312 5.312 0 0 1-7.084 3.814l-0.01562 0.0078-0.8477 3.209a0.1481 0.1481 0 0 0 0.1094 0.1504l1.57 0.4238a0.1481 0.1481 0 0 0 0.168-0.07227l1.248-2.27c0.4652 0.0052 0.9341-0.04713 1.396-0.1562l1.68 1.885a0.1481 0.1481 0 0 0 0.1836 0.02734l1.408-0.8105a0.1481 0.1481 0 0 0 0.06836-0.168l-0.6895-2.367a5.744 5.744 0 0 0 0.9961-1.256l2.525 0.1484a0.1481 0.1481 0 0 0 0.1543-0.1113l0.4199-1.566c0.0182-0.06496-0.01315-0.1387-0.07031-0.1699z"/>
  <path id="fg" d="m16 5a11 11 0 1 0 0 22 11 11 0 0 0 0-22zm-0.6676 2.208c0.05196 0.00524 0.09612 0.0364 0.1195 0.08316l1.086 2.284c0.5276 0.01556 1.06 0.1065 1.577 0.2728l1.744-1.744a0.1455 0.1455 0 0 1 0.1819-0.0208l1.388 0.8444a0.1481 0.1481 0 0 1 0.06236 0.1767l-0.842 2.375c0.317 0.3534 0.5872 0.7404 0.8056 1.154h2.59c0.07016 0 0.1299 0.04936 0.1455 0.1143l0.3846 1.58a0.1481 0.1481 0 0 1-0.07796 0.1689l-3.248 0.7092a5.312 5.312 0 0 0-6.936-4.236l-0.02576-0.0156-0.6964-3.212c0-0.06756 0.04936-0.1273 0.1143-0.1429l1.577-0.3846c0.01828-0.00524 0.03368-0.00524 0.05196-0.00524zm-5.144 2.323a0.1455 0.1455 0 0 1 0.09612 0.02596l2.468 2.248a5.296 5.296 0 0 0-0.356 8.088v0.0364l-2.219 2.45a0.1507 0.1507 0 0 1-0.1819-0.0208l-1.148-1.146a0.1481 0.1481 0 0 1-0.01828-0.1871l1.388-2.115a5.744 5.744 0 0 1-0.59-1.489l-2.396-0.5872a0.1481 0.1481 0 0 1-0.1117-0.1429v-1.624c0-0.07016 0.04936-0.1299 0.1169-0.1455l2.468-0.5144c0.1377-0.4548 0.33-0.8888 0.5664-1.289l-1.343-2.214a0.1481 0.1481 0 0 1 0.0208-0.1819l1.148-1.148a0.1429 0.1429 0 0 1 0.09092-0.04416zm11 7.612 3.222 0.7224c0.05716 0.0312 0.08836 0.1039 0.07016 0.1689l-0.4208 1.567a0.1481 0.1481 0 0 1-0.1533 0.1117l-2.526-0.1481a5.744 5.744 0 0 1-0.9952 1.255l0.6884 2.367a0.1481 0.1481 0 0 1-0.06756 0.1689l-1.408 0.8108a0.1481 0.1481 0 0 1-0.1845-0.0286l-1.678-1.884c-0.4624 0.1091-0.9328 0.1611-1.398 0.1559l-1.247 2.268a0.1481 0.1481 0 0 1-0.1689 0.07276l-1.57-0.4236a0.1481 0.1481 0 0 1-0.1091-0.1507l0.8472-3.209 0.0158-0.0078a5.312 5.312 0 0 0 7.084-3.814z"/>
 </defs>
 <symbol id="color">
  <use href="#bg" fill="#1a89e5"/>
  <use href="#fg" fill="#fff"/>
 </symbol>
 <symbol id="light-white"><use href="#fg" fill="#fff"/></symbol>
 <symbol id="light-black"><use href="#fg"/></symbol>
 <symbol id="full-white"><use href="#bg" fill="#fff"/></symbol>
 <symbol id="full-black"><use href="#bg"/></symbol>
 <use id="main" href="#color"/>
</svg>