<?xml version="1.0" encoding="UTF-8"?>
<svg version="1.1" viewBox="0 0 32 32" xmlns="http://www.w3.org/2000/svg">
 <defs>
  <path id="bg" d="m15.76 0.001953a16 16 0 0 0 0 32 16 16 0 1 0 0-32zm-9.293 7.498 9.43 0.03516 2.951 0.0078c3.527 0 6.584 2.668 6.584 6.195v10.76h-10.14c-3.524 0-6.584-2.672-6.584-6.195l-0.00195-4.275v-1.092h-2.238zm1.439 1.445v2.555h0.8965a1.422 1.422 0 0 1 1.338 1.408l0.0058 5.393c0 2.63 2.306 4.76 5.148 4.76h7.016c0.898 0 1.688-0.5717 1.688-1.445v-7.867c5.9e-5 -2.63-2.308-4.76-5.152-4.76h-2.955v-0.0078zm3.617 1.6h1.465v7.523c0 1.006 0.6902 1.791 1.492 1.791l1.658 0.0058v1.533h-1.93c-0.6808-0.074-1.287-0.3949-1.791-0.8945-0.5912-0.5868-0.8945-1.316-0.8945-2.145zm5.527 1.285h2e-3a2.367 2.367 0 0 1 1.684 0.6875c0.4612-0.4457 1.032-0.6875 1.686-0.6875a2.378 2.378 0 0 1 1.736 0.7266c0.4772 0.4792 0.7227 1.081 0.7227 1.758l0.0058 3.398h-1.545l-0.01172-3.398c0-0.2599-0.08365-0.4645-0.2695-0.6504-0.186-0.1881-0.3834-0.2734-0.6387-0.2734a0.8376 0.8376 0 0 0-0.6387 0.2734c-0.1836 0.186-0.2695 0.3906-0.2695 0.6504v3.416h-1.553v-3.416c0-0.2599-0.0817-0.4645-0.2676-0.6504-0.1856-0.1881-0.3808-0.2734-0.6406-0.2734a0.84 0.84 0 0 0-0.6406 0.2734c-0.1836 0.186-0.2695 0.3906-0.2695 0.6504v3.416h-1.549v-3.416a2.434 2.434 0 0 1 0.7227-1.758c0.4763-0.4812 1.068-0.7261 1.734-0.7266z"/>
  <path id="fg" d="m6.5 7.5v5.434h2.242v1.091l0.00224 4.277c0 3.524 3.065 6.198 6.597 6.198h10.16v-10.76c0-3.529-3.063-6.198-6.597-6.198l-2.955-0.00672zm1.443 1.445 7.999 0.03585v0.00672h2.96c2.85 0 5.162 2.131 5.162 4.761v7.87c0 0.8739-0.7899 1.445-1.69 1.445h-7.029c-2.847-6e-6 -5.158-2.131-5.158-4.761l-0.0067-5.394a1.425 1.423 0 0 0-1.34-1.409h-0.8977zm3.624 1.6v7.818c0 0.8291 0.3029 1.557 0.8953 2.144 0.505 0.4998 1.113 0.8223 1.795 0.8963h1.932v-1.534l-1.66-0.0067c-0.8035 0-1.494-0.7842-1.494-1.79v-7.526zm5.539 1.286c-0.6689 0-1.261 0.2464-1.739 0.7282a2.439 2.435 0 0 0-0.725 1.757v3.419h1.553v-3.419c0-0.2599 0.08528-0.4637 0.2693-0.6498a0.8416 0.8403 0 0 1 0.6416-0.2733c0.2603 0 0.4557 0.08515 0.6416 0.2733 0.1862 0.1859 0.2693 0.3898 0.2693 0.6498v3.419h1.555v-3.419c0-0.2599 0.08528-0.4637 0.2693-0.6498a0.8392 0.8379 0 0 1 0.6416-0.2733c0.2558 0 0.4533 0.08515 0.6396 0.2733 0.1862 0.1859 0.2693 0.3898 0.2693 0.6498l0.01122 3.401h1.548l-0.0045-3.401c0-0.6766-0.2468-1.277-0.725-1.757a2.383 2.379 0 0 0-1.739-0.7282c-0.6552 0-1.228 0.242-1.69 0.6878a2.372 2.368 0 0 0-1.688-0.6878z"/>
 </defs>
 <symbol id="color">
  <use href="#bg" fill="#78b75b"/>
  <use href="#fg" fill="#fff"/>
 </symbol>
 <symbol id="light-white"><use href="#fg" fill="#fff"/></symbol>
 <symbol id="light-black"><use href="#fg"/></symbol>
 <symbol id="full-white"><use href="#bg" fill="#fff"/></symbol>
 <symbol id="full-black"><use href="#bg"/></symbol>
 <use id="main" href="#color"/>
</svg>