<?xml version="1.0" encoding="UTF-8"?>
<svg version="1.1" viewBox="0 0 32 32" xmlns="http://www.w3.org/2000/svg">
 <defs>
  <path id="bg" d="m16 0a16 16 0 0 0-16 16 16 16 0 0 0 16 16 16 16 0 0 0 16-16 16 16 0 0 0-16-16zm-3.076 3.91h4e-3c0.2095 0.00385 0.4233 0.01976 0.6367 0.04688 1.72 0.2184 3.519 1.256 4.65 3.949 0.2267 0.738 0.5468 2.08 0.1328 3.572-0.1824 0.658-0.5169 1.344-1.061 2.021-0.01416 0.01788-0.02664 0.03696-0.04102 0.05469-0.03128 0.03844-0.06562 0.07365-0.09766 0.1113-0.04336 0.05068-0.08697 0.1018-0.1328 0.1523-0.05716 0.06328-0.1165 0.1245-0.1758 0.1855-0.0092 0.0094-0.01616 0.01988-0.0254 0.02928-0.01896 0.01932-0.03944 0.03752-0.05859 0.05664-0.0762 0.07604-0.1531 0.1518-0.2324 0.2246-0.3264 0.3-0.6778 0.5719-1.045 0.8223-0.4244 0.2896-0.8683 0.5506-1.32 0.7891l1.977 5.496c0.1644 0.59-0.06925 1.245-0.5312 1.559-0.2308 0.1569-0.5239 0.2243-0.8418 0.1543-0.3177-0.06998-0.6632-0.277-1.012-0.664-3.345-4.472-4.906-8.4-6.961-12.65-0.1773-0.36-0.3692-0.7323-0.4863-1.115-0.1171-0.3832-0.1552-0.7784 0-1.158 0.0468-0.1022 0.1651-0.2512 0.3457-0.4434 0.1808-0.1924 0.4189-0.4196 0.7012-0.6719 0.5096-0.4556 1.16-0.97 1.83-1.418 0.07204-0.04816 0.1424-0.1002 0.2148-0.1465 0.719-0.4696 2.057-0.9802 3.529-0.9551zm-1.338 3.119c-0.0934-0.00216-0.1809 0.0154-0.2637 0.05664l-0.0078 0.0078c-0.1124 0.045-0.1958 0.1623-0.2441 0.3555-0.0484 0.1932-0.05983 0.4508-0.03712 0.752 0.0452 0.6024 0.2287 1.368 0.4961 2.104 0.2672 0.7352 0.6212 1.445 1.01 1.934 0.1944 0.2443 0.3988 0.4344 0.5996 0.5469 0.1961 0.1098 0.384 0.1441 0.5742 0.0957 0.4977-0.2572 0.6893-0.7762 0.6719-1.424-0.0176-0.6476-0.247-1.417-0.5898-2.127-0.3428-0.7104-0.794-1.358-1.248-1.785-0.2268-0.2138-0.4547-0.3712-0.6641-0.4512-0.1046-0.04-0.2035-0.0623-0.2969-0.06445zm11.14 2.572c0.3348 6.8e-4 0.6804 0.05768 1.008 0.1582 0.4988 0.1528 0.953 0.4126 1.248 0.7598 0.2951 0.3472 0.4319 0.7859 0.2793 1.27h-0.0058v0.0078c-0.666 1.529-1.489 3.458-2.311 4.996-0.4108 0.7692-0.8207 1.439-1.211 1.912-0.195 0.2364-0.3899 0.4291-0.5762 0.5547-0.1862 0.1256-0.368 0.1893-0.5469 0.1699h-0.0078c-0.1358-0.03696-0.2398-0.1624-0.3164-0.3398-0.07656-0.1776-0.1308-0.4141-0.1699-0.7012-0.07832-0.5744-0.08783-1.349-0.03712-2.23 0.1016-1.764 0.449-3.951 0.9902-5.771v-0.0078h0.0058c0.234-0.4032 0.6551-0.6387 1.137-0.7305 0.1204-0.02292 0.2449-0.03708 0.3711-0.04297 0.04728-0.00219 0.09474-4e-3 0.1426-0.00391zm-2.643 11.15a1.125 1.308 0 0 1 1.125 1.309 1.125 1.308 0 0 1-1.125 1.307 1.125 1.308 0 0 1-1.125-1.307 1.125 1.308 0 0 1 1.125-1.309zm-11.34 3.848h14.5c0.6924 0 1.25 0.5576 1.25 1.25 0 0.6924-0.5576 1.25-1.25 1.25h-14.5c-0.6924 0-1.25-0.5576-1.25-1.25 0-0.6924 0.5576-1.25 1.25-1.25z"/>
  <path id="fg" d="m12.93 3.91c-1.474-0.02607-2.814 0.4852-3.533 0.9552-0.0724 0.04632-0.1428 0.09832-0.2148 0.1465-0.67 0.448-1.32 0.9624-1.83 1.418-0.2823 0.2523-0.5204 0.4796-0.7012 0.672-0.1806 0.1922-0.2989 0.341-0.3457 0.4432-0.1552 0.3798-0.1171 0.7752 0 1.158 0.1171 0.383 0.3091 0.7552 0.4864 1.115 2.055 4.252 3.615 8.18 6.96 12.65 0.3486 0.387 0.694 0.594 1.012 0.664 0.3179 0.06996 0.6108 0.0026 0.8416-0.1543 0.462-0.3138 0.6956-0.9684 0.5312-1.558l-1.975-5.496c0.452-0.2385 0.896-0.4996 1.32-0.7892 0.3672-0.2504 0.7184-0.5224 1.045-0.8224 0.07928-0.07276 0.1562-0.1486 0.2324-0.2246 0.01916-0.01912 0.03964-0.03732 0.0586-0.05664 0.0092-0.0094 0.0162-0.01988 0.0254-0.02928 0.05928-0.06108 0.1186-0.1223 0.1758-0.1856 0.04584-0.05052 0.08944-0.1017 0.1328-0.1524 0.03204-0.03768 0.06636-0.07288 0.09764-0.1113 0.01436-0.01772 0.02684-0.0368 0.041-0.05468 0.5436-0.6776 0.878-1.364 1.06-2.022 0.414-1.492 0.09392-2.834-0.1328-3.572-1.132-2.693-2.932-3.731-4.652-3.949-0.2147-0.02729-0.428-0.04316-0.6388-0.04688zm-1.342 3.119c0.0934 0.00216 0.1922 0.02444 0.2969 0.06444 0.2093 0.08 0.4372 0.2374 0.664 0.4512 0.454 0.4276 0.9052 1.075 1.248 1.785 0.3428 0.71 0.5724 1.479 0.59 2.127 0.0174 0.6476-0.1743 1.167-0.672 1.424-0.1902 0.0484-0.3783 0.01408-0.5744-0.09572-0.2008-0.1125-0.4052-0.3025-0.5996-0.5468-0.3886-0.4888-0.7424-1.198-1.01-1.934-0.2674-0.7352-0.4508-1.501-0.496-2.104-0.02272-0.3012-0.01128-0.5588 0.03712-0.752 0.04836-0.1932 0.1318-0.3105 0.2442-0.3555l0.0078-0.00784c0.08276-0.04124 0.1703-0.0588 0.2637-0.05664zm11.14 2.572c-0.04784-9.6e-5 -0.09528 0.0017-0.1426 0.00389-0.1262 0.00588-0.2507 0.02004-0.3711 0.04296-0.4816 0.09172-0.9028 0.3272-1.137 0.7304h-0.0058v0.0078c-0.5412 1.821-0.8888 4.008-0.9904 5.772-0.05072 0.8812-0.0412 1.656 0.03712 2.23 0.03916 0.2871 0.09336 0.5236 0.1699 0.7012 0.07656 0.1774 0.1806 0.3029 0.3164 0.3398h0.0078c0.1789 0.0194 0.3606-0.04432 0.5468-0.1699 0.1863-0.1256 0.381-0.3184 0.576-0.5548 0.3902-0.4728 0.8-1.143 1.211-1.912 0.8216-1.538 1.644-3.467 2.31-4.996v-0.0078h0.0058c0.1526-0.4836 0.01584-0.9224-0.2793-1.27-0.2951-0.3472-0.7492-0.6068-1.248-0.7596-0.3274-0.1005-0.6732-0.1575-1.008-0.1582zm-2.642 11.15a1.125 1.308 0 0 0-1.125 1.308 1.125 1.308 0 0 0 1.125 1.307 1.125 1.308 0 0 0 1.125-1.307 1.125 1.308 0 0 0-1.125-1.308zm-11.34 3.848c-0.6924 0-1.25 0.5576-1.25 1.25s0.5576 1.25 1.25 1.25h14.5c0.6924 0 1.25-0.5576 1.25-1.25s-0.5576-1.25-1.25-1.25z"/>
 </defs>
 <symbol id="color">
  <use href="#bg" fill="#2ec9dd"/>
  <use href="#fg" fill="#fff"/>
 </symbol>
 <symbol id="light-white"><use href="#fg" fill="#fff"/></symbol>
 <symbol id="light-black"><use href="#fg"/></symbol>
 <symbol id="full-white"><use href="#bg" fill="#fff"/></symbol>
 <symbol id="full-black"><use href="#bg"/></symbol>
 <use id="main" href="#color"/>
</svg>