<?xml version="1.0" encoding="UTF-8"?>
<svg version="1.1" viewBox="0 0 32 32" xmlns="http://www.w3.org/2000/svg">
 <defs>
  <path id="bg" d="m16 0c-8.836 0-16 7.164-16 16s7.164 16 16 16 16-7.164 16-16-7.164-16-16-16zm0 4c6.628 0 12 5.372 12 12s-5.372 12-12 12-12-5.372-12-12 5.372-12 12-12zm3.98 3.492c-0.9352 1.084e-4 -1.772 0.07555-2.15 0.1855-0.0206 0.00688-0.04186 0.0136-0.0625 0.02736-0.5644-0.117-1.159-0.1719-1.758-0.1719-1.411 0-2.742 0.3299-3.926 0.9219-0.2268-0.09632-0.4613-0.164-0.6953-0.1777-0.7088-0.05508-1.357 0.04001-1.9 0.1914-0.8464 0.2408-1.444 0.6326-1.609 0.8047-0.3787 0.2824-0.5649 0.9859-0.6406 1.805-0.1101 1.246 0.0198 2.794 0.123 3.42 0 0.02752 0.0146 0.04772 0.02148 0.06836-0.117 0.5644-0.1797 1.155-0.1797 1.754 0 2.43 0.9856 4.625 2.582 6.215 1.596 1.59 3.79 2.576 6.219 2.576 2.428 0 4.631-0.9866 6.221-2.576 1.59-1.592 2.58-3.786 2.58-6.215 0-1.514-0.3842-2.937-1.059-4.176l0.05469-0.05469c0.2822-0.3164 0.4613-0.7645 0.5508-1.246 0.08948-0.4676 0.08939-0.9786 0.01368-1.426-0.0896-0.5368-0.2823-1.003-0.5645-1.258-0.0069-0.00688-0.0146-0.01368-0.02148-0.01368-0.4612-0.3301-1.445-0.5161-2.498-0.5918-0.4262-0.04809-0.8726-0.06246-1.299-0.0625zm-0.1367 0.4121h0.1797c0.406 0 0.8255 0.0144 1.238 0.04883 0.9772 0.0688 1.885 0.2345 2.277 0.5098 0.2063 0.1924 0.3589 0.5713 0.4277 1.012 0.06881 0.406 0.06201 0.8675-0.01368 1.287-0.07584 0.4128-0.228 0.7903-0.4551 1.045-0.158 0.1789-0.3509 0.2966-0.5918 0.3379-0.5296 0.0824-0.833-0.4348-1.26-1.15-0.3784-0.64-0.8396-1.41-1.617-2.105-0.3098-0.2272-0.5851 0.00664-0.4199 0.1855 0.8256 0.6812 1.294 1.48 1.68 2.127 0.4448 0.752 0.7797 1.32 1.395 1.363-0.0082-3.12e-4 -0.0174 5.73e-4 -0.0254 0 0.09632 0.0688 0.1927 0.1307 0.2891 0.1582 0.2572 0.0812 0.4706 0.07904 0.6543 0.0332 0.5074 1.08 0.7988 2.285 0.7988 3.559 0 2.31-0.9362 4.41-2.457 5.924-1.512 1.514-3.614 2.449-5.934 2.449s-4.411-0.9352-5.932-2.449c-1.521-1.512-2.457-3.611-2.457-5.924 0-0.5712 0.0559-1.121 0.166-1.658-0.05504-0.3096-0.08288-0.6477-0.1035-0.9023v-0.0058c-0.0688-0.7364-0.1167-1.77-0.04102-2.65 0.062-0.7224 0.2071-1.328 0.4824-1.514 0.02064-0.01376 0.03308-0.02816 0.04688-0.04883 0.0892-0.1172 0.6206-0.4604 1.426-0.6875 0.406-0.117 0.8727-0.1934 1.389-0.1934 0.117 0 0.2414 0.0068 0.3652 0.01368 0.7296 0.0552 1.5 0.6748 2.037 1.418 0.2202 0.31 0.3986 0.6405 0.5156 0.957 0.117 0.3168 0.173 0.6183 0.1523 0.8867-0.02064 0.2821-0.1303 0.5234-0.3574 0.6816-0.3924 0.2822-0.9508 0.1117-1.584-0.08789-0.984-0.3098-2.147-0.6762-3.379 0.2598-0.3095 0.2202-0.0901 0.5376 0.0957 0.4688 1.156-0.9565 2.245-0.6191 3.16-0.3301 0.2956 0.09404 0.5763 0.1803 0.8438 0.2266 0.3352 0.1228 0.7331 0.248 0.9922 0.248 0.6951 0 0.9512-0.4816 0.9512-1.066 0-0.3304-0.2206-0.9918-0.3789-1.205l-0.0254 0.03712c-0.02288-0.08276-0.04844-0.1656-0.07812-0.25-0.1308-0.3576-0.3294-0.7233-0.5703-1.061-0.3304-0.4608-0.7501-0.8731-1.197-1.162 1.06-0.4817 2.236-0.75 3.475-0.75 0.6264 0 1.232 0.06846 1.816 0.1992 0.2476-0.1032 0.5791-0.1443 0.875-0.1855 0.3304-0.02752 0.7216-0.04883 1.148-0.04883zm1.074 4.459c-0.812 0-1.467 0.6548-1.467 1.467s0.6616 1.465 1.467 1.465c0.8052 0 1.465-0.6528 1.465-1.465s-0.6528-1.467-1.465-1.467zm-9.154 1.074c-1.583 0-2.869 1.287-2.869 2.863 0 1.583 1.286 2.863 2.869 2.863s2.871-1.28 2.871-2.863-1.288-2.863-2.871-2.863zm0.793 1.5c0.7296 0 1.314 0.5921 1.314 1.314s-0.5921 1.314-1.314 1.314c-0.7224 0-1.314-0.5921-1.314-1.314 0-0.7296 0.5849-1.314 1.314-1.314zm7.295 1.143c-0.0344 0-0.06912 0.0077-0.1035 0.02148l-4.088 1.184c-0.0069 0-0.0146 0.0058-0.02148 0.0058-0.117 0.04132-0.1992 0.1514-0.1992 0.2891 0 0.1239 0.07543 0.235 0.1855 0.2832l2.52 1.416v0.01564c0 0.4336-0.1932 0.8321-0.5098 1.121-0.3164 0.2961-0.7642 0.4746-1.26 0.4746-0.3096 0-0.6057-0.06939-0.8672-0.207-0.2546-0.1308-0.4745-0.3168-0.6328-0.5508 0-0.0068-0.0058-0.0058-0.0058-0.0058-0.04816-0.07572-0.1322-0.125-0.2285-0.125-0.1514 0-0.2754 0.124-0.2754 0.2754 0 0.06192 0.02024 0.1179 0.05469 0.166 0.2136 0.3096 0.5046 0.5565 0.8418 0.7285s0.723 0.2695 1.115 0.2695c0.6332 0 1.211-0.2407 1.631-0.6191 0.3026-0.2752 0.5218-0.6341 0.625-1.033 0.4132 0.3371 0.951 0.5449 1.543 0.5449 0.6332 0 1.209-0.2357 1.629-0.6211 0.4268-0.3924 0.6914-0.9275 0.6914-1.52v-0.09766c0-0.1514-0.124-0.2734-0.2754-0.2734s-0.2754 0.122-0.2754 0.2734v0.09766c0 0.4336-0.1932 0.8321-0.5098 1.121-0.3164 0.2961-0.7642 0.4746-1.26 0.4746-0.4748 0-0.9022-0.1642-1.219-0.4395-0.0688-0.05508-0.1227-0.1167-0.1777-0.1855l1.348-2.615c0.02752-0.0482 0.04297-0.0973 0.04297-0.1523-0.01376-0.1789-0.1512-0.3164-0.3164-0.3164z"/>
  <path id="fg" d="m16 4c-6.628 0-12 5.372-12 12s5.372 12 12 12 12-5.372 12-12-5.372-12-12-12zm3.98 3.492c0.4268 0 0.874 0.01432 1.301 0.06248 1.053 0.07568 2.037 0.2615 2.498 0.5916 0.0069 0 0.0146 0.0068 0.02148 0.01368 0.2822 0.2546 0.4748 0.7212 0.5644 1.258 0.07572 0.4472 0.0758 0.958-0.01368 1.426-0.08948 0.4816-0.2686 0.9296-0.5508 1.246l-0.05468 0.05468c0.6744 1.239 1.058 2.662 1.058 4.176 0 2.429-0.9904 4.624-2.58 6.216-1.59 1.59-3.792 2.574-6.22 2.574-2.429 0-4.624-0.9844-6.22-2.574-1.596-1.59-2.582-3.786-2.582-6.216 0-0.5988 0.06268-1.19 0.1797-1.754-0.00688-0.02064-0.02148-0.04084-0.02148-0.06836-0.1032-0.6264-0.2332-2.174-0.123-3.42 0.07572-0.8188 0.2621-1.522 0.6408-1.805 0.1652-0.172 0.7628-0.564 1.609-0.8048 0.5436-0.1514 1.192-0.2465 1.9-0.1914 0.234 0.01376 0.4684 0.0814 0.6952 0.1777 1.184-0.592 2.517-0.922 3.928-0.922 0.5988 0 1.192 0.05488 1.756 0.1719 0.02064-0.01376 0.04188-0.02044 0.06248-0.02732 0.3785-0.1101 1.216-0.1856 2.152-0.1856zm-0.1367 0.412c-0.4268 0-0.818 0.02132-1.148 0.04884-0.2959 0.04128-0.6272 0.08232-0.8748 0.1856-0.5848-0.1308-1.19-0.1992-1.816-0.1992-1.239 0-2.415 0.2683-3.475 0.75 0.4472 0.289 0.8668 0.7012 1.197 1.162 0.2409 0.3372 0.4396 0.7028 0.5704 1.06 0.02968 0.08436 0.05524 0.1672 0.07812 0.25l0.0254-0.03712c0.1583 0.2133 0.3789 0.8748 0.3789 1.205 0 0.5848-0.2561 1.066-0.9512 1.066-0.259 0-0.6568-0.1253-0.992-0.248-0.2674-0.04628-0.548-0.1325-0.8436-0.2266-0.9152-0.289-2.004-0.6264-3.16 0.3301-0.1858 0.0688-0.4052-0.2486-0.09572-0.4688 1.232-0.936 2.395-0.5696 3.379-0.2598 0.6332 0.1996 1.192 0.37 1.584 0.08788 0.2271-0.1583 0.3368-0.3995 0.3574-0.6816 0.02064-0.2684-0.03536-0.57-0.1524-0.8868-0.117-0.3166-0.2954-0.6472-0.5156-0.9572-0.5368-0.7432-1.308-1.363-2.037-1.418-0.1239-0.00688-0.2482-0.01368-0.3652-0.01368-0.516 0-0.9828 0.07636-1.389 0.1934-0.8052 0.2271-1.336 0.5704-1.426 0.6876-0.0138 0.02068-0.02624 0.03508-0.04688 0.04884-0.2753 0.1858-0.4204 0.7912-0.4824 1.514-0.07568 0.8808-0.0278 1.914 0.041 2.65v0.0058c0.02064 0.2546 0.04848 0.5928 0.1035 0.9024-0.1101 0.5368-0.166 1.087-0.166 1.658 0 2.312 0.936 4.412 2.457 5.924 1.521 1.514 3.612 2.449 5.932 2.449 2.319 0 4.42-0.9352 5.932-2.449 1.521-1.514 2.457-3.614 2.457-5.924 0-1.273-0.2914-2.478-0.7988-3.558-0.1837 0.04584-0.3972 0.048-0.6544-0.0332-0.09636-0.02752-0.1927-0.0894-0.289-0.1582 8e-3 5.73e-4 0.01724-3.13e-4 0.0254 0-0.6148-0.04376-0.9496-0.6112-1.394-1.363-0.3854-0.6468-0.854-1.446-1.68-2.127-0.1652-0.1789 0.1102-0.4128 0.42-0.1856 0.7776 0.6952 1.239 1.466 1.617 2.106 0.4268 0.7156 0.73 1.233 1.26 1.15 0.2409-0.04128 0.4336-0.159 0.5916-0.3379 0.2271-0.2546 0.3794-0.632 0.4552-1.045 0.07568-0.4196 0.08248-0.8812 0.01367-1.287-0.0688-0.4404-0.2213-0.8192-0.4276-1.012-0.3923-0.2753-1.3-0.4408-2.277-0.5096-0.4128-0.0344-0.8324-0.04884-1.238-0.04884zm1.074 4.46c0.812 0 1.465 0.6548 1.465 1.467s-0.6596 1.465-1.465 1.465-1.467-0.6528-1.467-1.465 0.6548-1.467 1.467-1.467zm-7.816 0.8144c0.02092 9.8e-4 0.0418 0.0018 0.06248 2e-3 -0.02072-3.68e-4 -0.0416-8.51e-4 -0.06248-2e-3zm-1.338 0.2598c1.583 0 2.871 1.28 2.871 2.863s-1.288 2.863-2.871 2.863-2.869-1.28-2.869-2.863c0-1.576 1.286-2.863 2.869-2.863zm0.7928 1.5c-0.7296 0-1.314 0.5848-1.314 1.314 0 0.7224 0.592 1.314 1.314 1.314s1.314-0.592 1.314-1.314-0.5848-1.314-1.314-1.314zm7.296 1.142c0.1652 2e-6 0.3026 0.1375 0.3164 0.3164 0 0.05504-0.01544 0.1042-0.04296 0.1524l-1.348 2.615c0.05504 0.0688 0.1089 0.1305 0.1777 0.1856 0.3166 0.2753 0.744 0.4396 1.219 0.4396 0.4956 0 0.9432-0.1787 1.26-0.4748 0.3166-0.289 0.5096-0.6876 0.5096-1.121v-0.09768c0-0.1514 0.124-0.2734 0.2754-0.2734s0.2754 0.122 0.2754 0.2734v0.09768c0 0.592-0.2628 1.127-0.6896 1.52-0.4196 0.3854-0.9976 0.6212-1.631 0.6212-0.592 0-1.128-0.2077-1.541-0.5448-0.1032 0.3991-0.3242 0.758-0.6268 1.033-0.4196 0.3785-0.9976 0.6192-1.631 0.6192-0.3922 0-0.778-0.09748-1.115-0.2695s-0.6264-0.4188-0.84-0.7284c-0.03444-0.04816-0.05468-0.1041-0.05468-0.166 0-0.1514 0.124-0.2754 0.2754-0.2754 0.09636 0 0.1804 0.04928 0.2285 0.125 0 0 0.0058-1e-3 0.0058 0.0058 0.1583 0.234 0.3782 0.42 0.6328 0.5508 0.2615 0.1376 0.5576 0.207 0.8672 0.207 0.4956 0 0.9432-0.1787 1.26-0.4748 0.3166-0.289 0.5096-0.6876 0.5096-1.121v-0.0156l-2.52-1.416c-0.1101-0.04816-0.1855-0.1593-0.1855-0.2832 0-0.1376 0.08224-0.2478 0.1992-0.2891 0.0069 0 0.0146-0.0058 0.02148-0.0058l4.088-1.184c0.0344-0.01376 0.06912-0.02148 0.1035-0.02148z"/>
 </defs>
 <symbol id="color">
  <use href="#bg" fill="#3cc078"/>
  <use href="#fg" fill="#fff"/>
 </symbol>
 <symbol id="light-white"><use href="#fg" fill="#fff"/></symbol>
 <symbol id="light-black"><use href="#fg"/></symbol>
 <symbol id="full-white"><use href="#bg" fill="#fff"/></symbol>
 <symbol id="full-black"><use href="#bg"/></symbol>
 <use id="main" href="#color"/>
</svg>