<?xml version="1.0" encoding="UTF-8"?>
<svg version="1.1" viewBox="0 0 32 32" xmlns="http://www.w3.org/2000/svg">
 <defs>
  <path id="bg" d="m16.34 0.004002c-2.83-0.06336-5.712 0.6246-8.342 2.143-7.653 4.416-10.27 14.2-5.856 21.85 4.416 7.653 14.2 10.27 21.85 5.856 7.653-4.416 10.27-14.2 5.856-21.85-2.898-5.022-8.108-7.877-13.51-7.998zm-0.2695 7.994-0.0039 0.00195c0.6596 0.0066 1.329 0.09676 1.996 0.2754h0.0039c1.875 0.5024 3.413 1.637 4.455 3.109l1.041-0.6016a0.7024 0.848 60 0 1 0.6797-0.1055 0.7024 0.848 60 0 1 0.4785 0.6504l-0.1719 2.025-0.1758 2.023a0.7024 0.848 60 0 1-0.4903 0.6914 0.7024 0.848 60 0 1-0.7735 0.04102l-3.684-1.723a0.7024 0.848 60 0 1 0.1094-1.277l0.9727-0.5606c-0.73-0.9748-1.767-1.726-3.037-2.066-3.047-0.816-6.18 0.9934-6.997 4.041-0.8161 3.047 0.9935 6.18 4.041 6.996 2.259 0.6052 4.546-0.2525 5.924-1.963 0.2904-0.3606 0.6431-0.4639 1.174-0.3535 0.6156 0.1652 0.9812 0.7985 0.8165 1.414-0.05144 0.1926-0.1513 0.3675-0.291 0.5098-1.936 2.317-5.104 3.433-8.213 2.6-4.268-1.144-6.8-5.529-5.657-9.797 0.9641-3.602 4.239-5.967 7.801-5.932z"/>
  <path id="fg" d="m16.07 7.998c-3.563-0.0355-6.836 2.33-7.801 5.932-1.143 4.268 1.388 8.652 5.656 9.796 3.109 0.8332 6.276-0.2826 8.213-2.599 0.1398-0.1422 0.2395-0.317 0.291-0.5096 0.1648-0.6156-0.2009-1.249-0.8165-1.414-0.5308-0.1104-0.8833-0.0071-1.174 0.3534-1.378 1.71-3.665 2.568-5.924 1.962-3.048-0.8164-4.856-3.949-4.04-6.996 0.8169-3.048 3.949-4.856 6.996-4.04 1.27 0.3402 2.307 1.091 3.037 2.066l-0.9725 0.5604a0.7024 0.848 60 0 0-0.1094 1.277l3.683 1.722a0.7024 0.848 60 0 0 0.7753-0.041 0.7024 0.848 60 0 0 0.49-0.6912l0.1758-2.023 0.1719-2.025a0.7024 0.848 60 0 0-0.4784-0.6504 0.7024 0.848 60 0 0-0.6796 0.1054l-1.041 0.6016c-1.043-1.472-2.582-2.606-4.456-3.109h-0.0039c-0.6668-0.1786-1.336-0.2688-1.996-0.2754z"/>
 </defs>
 <symbol id="color">
  <use href="#bg" fill="#5d9ddf"/>
  <use href="#fg" fill="#fff"/>
 </symbol>
 <symbol id="light-white"><use href="#fg" fill="#fff"/></symbol>
 <symbol id="light-black"><use href="#fg"/></symbol>
 <symbol id="full-white"><use href="#bg" fill="#fff"/></symbol>
 <symbol id="full-black"><use href="#bg"/></symbol>
 <use id="main" href="#color"/>
</svg>