<?xml version="1.0" encoding="UTF-8"?>
<svg version="1.1" viewBox="0 0 32 32" xmlns="http://www.w3.org/2000/svg">
 <defs>
 <path id="bg" d="m16 0a16 16 0 0 0-16 16 16 16 0 0 0 16 16 16 16 0 0 0 16-16 16 16 0 0 0-16-16zm0 3.998c6.628 0 12 5.372 12 12 0 1.387-0.2352 2.718-0.668 3.957l-4.707-4.703-3.006-3.006-12.17 12.17c-2.132-2.168-3.447-5.141-3.447-8.42 0-6.628 5.372-12 12-12zm3.619 14.26 5.52 5.521 0.0039-2e-3c-2.2 2.584-5.48 4.225-9.141 4.225-1.796 0-3.499-0.3936-5.027-1.1z"/>
 <path id="fg" d="m27.33 19.96c0.4328-1.239 0.6676-2.571 0.6676-3.958 0-6.628-5.372-12-12-12s-12 5.372-12 12c0 3.279 1.316 6.252 3.448 8.42l12.17-12.17 3.006 3.006zm-2.193 3.819-5.52-5.52-8.644 8.644c1.528 0.706 3.232 1.1 5.028 1.1 3.661 0 6.94-1.64 9.14-4.224z"/>
 <path id="c_fg" d="m16 4c0.2052 0 0.4087 0.005453 0.6113 0.01562a12 12 0 0 0-0.6113-0.01562zm0 0c-0.5777 0-1.145 0.04416-1.701 0.123a12 12 0 0 1 1.701-0.123zm1.176 0.05859a12 12 0 0 1 0.3809 0.04492c-0.1264-0.01638-0.2532-0.03251-0.3809-0.04492zm0.3809 0.04492c0.07737 0.01003 0.1555 0.01976 0.2324 0.03125a12 12 0 0 0-0.2324-0.03125zm0.2324 0.03125a12 12 0 0 1 0.5391 0.09375c-0.1787-0.03514-0.3576-0.06663-0.5391-0.09375zm-3.5-0.01172c-0.5709 0.0815-1.128 0.2044-1.67 0.3633a12 12 0 0 1 1.67-0.3633zm-1.67 0.3633c-0.549 0.161-1.082 0.3595-1.596 0.5938a12 12 0 0 1 1.596-0.5938zm5.725-0.2559a12 12 0 0 1 1.699 0.4707c-0.5494-0.1966-1.116-0.3552-1.699-0.4707zm1.699 0.4707a12 12 0 0 1 1.088 0.4512c-0.3532-0.1673-0.7168-0.3183-1.088-0.4512zm1.088 0.4512a12 12 0 0 1 1.039 0.5547c-0.336-0.2018-0.6827-0.3859-1.039-0.5547zm1.039 0.5547a12 12 0 0 1 0.4961 0.3145c-0.1626-0.1089-0.328-0.2135-0.4961-0.3145zm0.4961 0.3145a12 12 0 0 1 0.3594 0.2539c-0.1186-0.08584-0.2375-0.1724-0.3594-0.2539zm-11.66-0.9336c-0.512 0.2346-1.004 0.5032-1.475 0.8047a12 12 0 0 1 1.475-0.8047zm-1.475 0.8047a12 12 0 0 0-0.03906 0.02539c0.01301-0.008411 0.02602-0.01703 0.03906-0.02539zm-0.03906 0.02539c-0.4656 0.301-0.9079 0.6333-1.326 0.9941a12 12 0 0 1 1.326-0.9941zm-1.326 0.9941a12 12 0 0 0-0.04688 0.04102c0.01565-0.01364 0.03115-0.02745 0.04688-0.04102zm-0.04688 0.04102c-0.4155 0.3621-0.8058 0.7525-1.168 1.168a12 12 0 0 1 1.168-1.168zm-1.168 1.168a12 12 0 0 0-0.04102 0.04688c0.01356-0.01572 0.02737-0.03122 0.04102-0.04688zm-0.04102 0.04688c-0.3585 0.4156-0.6888 0.856-0.9883 1.318a12 12 0 0 1 0.9883-1.318zm-0.9883 1.318a12 12 0 0 0-0.03516 0.05273c0.0114-0.0178 0.02367-0.035 0.03516-0.05273zm-0.03516 0.05273c-0.3001 0.4687-0.5671 0.9586-0.8008 1.469a12 12 0 0 1 0.8008-1.469zm18.18-2.422a12 12 0 0 1 0.416 0.3984c-0.136-0.1361-0.2736-0.269-0.416-0.3984zm1.656 1.857a12 12 0 0 1 0.2539 0.3594c-0.08157-0.1219-0.168-0.2407-0.2539-0.3594zm0.2539 0.3594a12 12 0 0 1 0.3047 0.4805c-0.09822-0.163-0.1991-0.3227-0.3047-0.4805zm0.3672 0.5898a12 12 0 0 1 0.2363 0.418c-0.07573-0.1414-0.1552-0.28-0.2363-0.418zm0.2441 0.4316a12 12 0 0 1 0.709 1.602c-0.1981-0.5538-0.4352-1.089-0.709-1.602zm0.709 1.602a12 12 0 0 1 0.3418 1.125c-0.09562-0.3828-0.2104-0.7577-0.3418-1.125zm-22.22-0.9336c-0.2343 0.5133-0.4328 1.047-0.5938 1.596a12 12 0 0 1 0.5938-1.596zm-0.5938 1.596c-0.1589 0.5421-0.2818 1.099-0.3633 1.67a12 12 0 0 1 0.3633-1.67zm15.13-0.3711-12.15 12.15a12 12 0 0 0 3.508 2.5l8.641-8.641 5.514 5.516a12 12 0 0 0 2.176-3.838l-4.684-4.68-3.006-3.006zm7.689 7.686 0.02344 0.02344c0.06626-0.1897 0.1248-0.3822 0.1816-0.5762a12 12 0 0 1-0.2051 0.5527zm0.2051-0.5527c0.1588-0.5419 0.2819-1.099 0.3633-1.67a12 12 0 0 1-0.3633 1.67zm-2.381 4.391a12 12 0 0 1-0.06445 0.08594c0.02416-0.02786 0.05032-0.05395 0.07422-0.08203l-0.003906 0.001953-0.00586-0.00586zm-0.06445 0.08594a12 12 0 0 1-2.557 2.221c0.9542-0.6175 1.815-1.365 2.557-2.221zm-2.557 2.221c-0.01578 0.01021-0.03104 0.02111-0.04688 0.03125a12 12 0 0 0 0.04688-0.03125zm-0.04688 0.03125a12 12 0 0 1-4.734 1.762c1.724-0.2488 3.329-0.8618 4.734-1.762zm-4.734 1.762c-0.01691 0.002441-0.03385 0.005442-0.05078 0.007812a12 12 0 0 0 0.05078-0.007812zm-0.05078 0.007812a12 12 0 0 1-1.678 0.1211c0.5696 0 1.129-0.04431 1.678-0.1211zm-6.701-0.9824-0.003907 0.003907c0.528 0.2439 1.078 0.4473 1.645 0.6133a12 12 0 0 1-1.641-0.6172zm1.641 0.6172c0.5349 0.1568 1.085 0.276 1.648 0.3574a12 12 0 0 1-1.648-0.3574zm1.648 0.3574a12 12 0 0 0 0.05469 0.007812c-0.01824-0.002552-0.03648-0.005178-0.05469-0.007812zm0.05469 0.007812c0.5481 0.07671 1.106 0.1209 1.676 0.1211a12 12 0 0 1-1.676-0.1211zm-6.852-3.482a12 12 0 0 1-0.5371-0.5371c0.166 0.1916 0.336 0.3799 0.5137 0.5605l0.02344-0.02344zm20.17-11.3a12 12 0 0 1 0.127 0.5605c-0.03728-0.1883-0.08098-0.3756-0.127-0.5605zm0.1289 0.5703a12 12 0 0 1 0.09766 0.5723c-0.02833-0.1926-0.0603-0.3828-0.09766-0.5723zm0.09766 0.5723a12 12 0 0 1 0.07226 0.5859c-0.01912-0.1965-0.04378-0.3923-0.07226-0.5859zm-23.75 0.06055c-0.07889 0.5559-0.123 1.123-0.123 1.701a12 12 0 0 1 0.123-1.701zm-0.123 1.701c0 0.5798 0.04354 1.149 0.123 1.707a12 12 0 0 1-0.123-1.707zm0.123 1.707c0.1644 1.153 0.493 2.254 0.9609 3.277a12 12 0 0 1-0.9609-3.277zm0.9609 3.277c0.2336 0.511 0.5026 1.001 0.8027 1.471a12 12 0 0 1-0.8027-1.471zm0.8027 1.471a12 12 0 0 0 0.03516 0.05664c-0.01206-0.01863-0.0232-0.03794-0.03516-0.05664zm0.03516 0.05664c0.3051 0.4716 0.6415 0.9207 1.008 1.344a12 12 0 0 1-1.008-1.344zm22.06-7.123c0.01017 0.2026 0.01562 0.4062 0.01562 0.6113a12 12 0 0 0-0.01562-0.6113zm0.01562 0.6113a12 12 0 0 1-0.123 1.705c0.07923-0.5572 0.123-1.126 0.123-1.705z"/>
 </defs>
 <symbol id="color">
  <use href="#bg" fill="#08895f"/>
  <use href="#fg" fill="#10b981"/>
  <use href="#c_fg" fill="#fff"/>
 </symbol>
 <symbol id="light-white"><use href="#fg" fill="#fff"/></symbol>
 <symbol id="light-black"><use href="#fg"/></symbol>
 <symbol id="full-white"><use href="#bg" fill="#fff"/></symbol>
 <symbol id="full-black"><use href="#bg"/></symbol>
 <use id="main" href="#color"/>
</svg>