<?xml version="1.0" encoding="UTF-8"?>
<svg version="1.1" viewBox="0 0 32 32" xmlns="http://www.w3.org/2000/svg">
 <defs>
  <path id="bg" d="m16 0c-8.836 0-16 7.164-16 16 0 8.836 7.164 16 16 16 8.836 0 16-7.164 16-16 0-8.836-7.164-16-16-16zm0 7.336c0.7388 0 1.334 0.5952 1.334 1.334v6.672c0 0.7388-0.5952 1.334-1.334 1.334s-1.334-0.5952-1.334-1.334v-6.672c0-0.7388 0.5952-1.334 1.334-1.334zm4.049 2.65h0.001953a1.334 1.334 0 0 1 0.7402 0.2656c3.527 2.636 4.263 7.685 1.627 11.21-2.64 3.527-7.685 4.263-11.21 1.627-3.526-2.64-4.263-7.687-1.625-11.21 0.4332-0.5788 0.9702-1.099 1.541-1.541a1.338 1.338 0 0 1 1.625 2.125c-0.3828 0.2932-0.712 0.6134-1 1-1.775 2.368-1.329 5.681 1.043 7.455 2.372 1.775 5.726 1.331 7.5-1.041a5.308 5.308 0 0 0-1.084-7.455 1.334 1.334 0 0 1 0.584-2.418 1.334 1.334 0 0 1 0.2578-0.01367z"/>
  <path id="fg" d="m16 7.336c-0.7388 0-1.334 0.5948-1.334 1.334v6.672c0 0.7388 0.5948 1.334 1.334 1.334s1.334-0.5948 1.334-1.334v-6.672c0-0.7388-0.5948-1.334-1.334-1.334zm4.048 2.651a1.334 1.334 0 0 0-0.2574 0.01296 1.334 1.334 0 0 0-0.584 2.418 5.308 5.308 0 0 1 1.084 7.456c-1.774 2.372-5.128 2.816-7.5 1.042-2.372-1.774-2.816-5.088-1.042-7.456 0.288-0.3866 0.6172-0.7068 1-1a1.338 1.338 0 0 0-1.627-2.126c-0.5708 0.4424-1.107 0.9628-1.54 1.542-2.638 3.526-1.902 8.572 1.624 11.21 3.526 2.636 8.572 1.9 11.21-1.627 2.636-3.524 1.9-8.572-1.627-11.21a1.334 1.334 0 0 0-0.7412-0.2665z"/>
 </defs>
 <symbol id="color">
  <use href="#bg" fill="#ff3d3d"/>
  <use href="#fg" fill="#fff"/>
 </symbol>
 <symbol id="light-white"><use href="#fg" fill="#fff"/></symbol>
 <symbol id="light-black"><use href="#fg"/></symbol>
 <symbol id="full-white"><use href="#bg" fill="#fff"/></symbol>
 <symbol id="full-black"><use href="#bg"/></symbol>
 <use id="main" href="#color"/>
</svg>