<?xml version="1.0" encoding="UTF-8"?>
<svg version="1.1" viewBox="0 0 32 32" xmlns="http://www.w3.org/2000/svg">
 <defs>
  <path id="bg" d="m15.99 0c-6.005-0.02994-11.87 3.612-14.41 9.082-0.8612 1.734-1.353 3.618-1.51 5.531 0.001435 4.99e-4 -4.577e-4 0.007551-0.001953 0.01562-9.506e-4 0.01177-0.002982 0.02338-0.003906 0.03516l8.41 3.551c0.8408-0.563 1.874-0.8329 2.883-0.752l3.293-4.791c0.3507-0.4556 0.585-0.9156 0.6094-1.51 0.27-2.982 3.031-5.449 6.025-5.385h0.001953c0.4531-5.2e-5 0.9059 0.05162 1.348 0.1523 2.933 0.6024 5.077 3.621 4.678 6.588-0.27 2.982-3.031 5.449-6.025 5.385l-5.719 4.061c0.0704 2.218-1.706 4.293-3.91 4.564-2.346 0.4018-4.769-1.35-5.143-3.693-1.963-0.8343-3.929-1.665-5.895-2.498 0.6777 2.442 1.91 4.726 3.676 6.572 4.324 4.763 11.64 6.414 17.6 3.969 5.993-2.282 10.19-8.46 10.11-14.87 4e-4 -1.612-0.2442-3.223-0.7246-4.762-1.83-6.145-7.681-10.79-14.08-11.19-0.4006-0.03518-0.8008-0.05269-1.201-0.05469zm-15.37 20.34c-0.4873-1.756-0.6891-3.592-0.5762-5.41-0.123 1.816 0.06351 3.651 0.5566 5.402 0.006455 0.002736 0.01308 0.005077 0.01953 0.007813zm-0.5762-5.41c0.003697-0.05459 0.005501-0.1095 0.009766-0.1641-0.003962 0.05473-0.006363 0.1093-0.009766 0.1641zm0.009766-0.1641c0.002366-0.03268 0.0072-0.06499 0.009766-0.09766l-0.003906-0.001953c-0.002798 0.0331-0.00327 0.06649-0.005859 0.09961zm0.005859-0.09961c0.006605-0.01987 0.006248-0.02475 0.007812-0.0332 4.231e-4 -0.005239 0.001525-0.01039 0.001953-0.01562-0.006241-0.002168-0.03076 0.04906-0.009766 0.04883zm21.22-6.947c-2.019-0.0302-3.842 1.564-4.086 3.566-0.3704 2.243 1.443 4.522 3.713 4.666 2.259 0.2682 4.456-1.646 4.496-3.92 0.1656-2.268-1.849-4.375-4.123-4.313zm-0.02344 1c1.09-0.01692 2.155 0.5831 2.707 1.523 1.013 1.576 0.2032 3.911-1.568 4.521-1.728 0.7244-3.888-0.4762-4.184-2.326-0.4189-1.838 1.16-3.766 3.045-3.719zm-10.28 9.859c-0.3953 0.002216-0.791 0.07305-1.162 0.209 1.1 0.5724 2.536 0.7567 3.271 1.854 0.9373 1.313 0.1905 3.364-1.371 3.77-1.375 0.4238-2.616-0.5937-3.863-1.004 0.4227 0.9719 1.322 1.718 2.355 1.955 1.939 0.5212 4.074-1.004 4.211-3.006 0.2563-1.957-1.468-3.851-3.441-3.777z"/>
  <path id="fg" d="m21.28 5.778c-2.995-0.06472-5.756 2.403-6.026 5.385-0.02436 0.5942-0.2584 1.052-0.6091 1.508l-3.294 4.792c-1.009-0.08097-2.041 0.1885-2.882 0.7515l-8.415-3.552c-0.1607 1.901 0.02364 3.83 0.5406 5.666 1.971 0.8354 3.946 1.668 5.916 2.505 0.3735 2.344 2.796 4.094 5.142 3.692 2.204-0.2713 3.98-2.347 3.91-4.564l5.718-4.06c2.995 0.06472 5.756-2.403 6.026-5.385 0.3988-2.967-1.745-5.986-4.678-6.588-0.4418-0.1007-0.8948-0.1517-1.348-0.1516zm-21.23 8.884c0.04036-0.1215-0.03088 3.45e-4 0 0zm21.23-6.947c2.274-0.06266 4.288 2.044 4.122 4.312-0.04043 2.273-2.237 4.189-4.496 3.921-2.27-0.1436-4.084-2.424-3.714-4.667 0.2435-2.002 2.069-3.595 4.088-3.565zm-0.02424 0.9999c-1.885-0.0475-3.463 1.88-3.045 3.718 0.2956 1.85 2.456 3.05 4.184 2.326 1.772-0.6106 2.582-2.945 1.569-4.522-0.5517-0.9404-1.617-1.539-2.708-1.523zm-10.28 9.859c1.974-0.07358 3.699 1.821 3.442 3.778-0.1371 2.002-2.273 3.526-4.212 3.004-1.033-0.2369-1.932-0.9829-2.354-1.955 1.247 0.4102 2.487 1.428 3.862 1.004 1.562-0.4052 2.307-2.457 1.37-3.77-0.7356-1.097-2.17-1.28-3.27-1.853 0.3712-0.1359 0.7659-0.2071 1.161-0.2093zm-4.225 5.11 0.01408 0.03516z"/>
 </defs>
 <symbol id="color">
  <use href="#bg" fill="#153791"/>
  <use href="#fg" fill="#fff"/>
 </symbol>
 <symbol id="light-white"><use href="#fg" fill="#fff"/></symbol>
 <symbol id="light-black"><use href="#fg"/></symbol>
 <symbol id="full-white"><use href="#bg" fill="#fff"/></symbol>
 <symbol id="full-black"><use href="#bg"/></symbol>
 <use id="main" href="#color"/>
</svg>