<?xml version="1.0" encoding="UTF-8"?>
<svg version="1.1" viewBox="0 0 32 32" xmlns="http://www.w3.org/2000/svg">
 <defs>
  <path id="bg" d="m16 0c-8.837 0-16 7.163-16 16 0 8.837 7.163 16 16 16 8.837 0 16-7.163 16-16 0-8.837-7.163-16-16-16zm-3.268 9.955h0.6035c0.6682-5.2e-4 1.21 0.5407 1.211 1.209 5.2e-4 0.669-0.5419 1.211-1.211 1.211-0.1949-7e-4 -0.4047-0.003753-0.6035-0.001953-1.016 0-1.814 0.7969-1.814 1.812 0 1.016 0.7988 1.814 1.814 1.814h6.158l-1.549-1.549c-0.2213-0.2309-0.3789-0.5584-0.3789-0.8691 0-0.6677 0.5413-1.209 1.209-1.209 0.3748 0 0.6688 0.1101 0.9082 0.3398l4.42 4.496-4.42 4.496c-0.2394 0.2297-0.5334 0.3398-0.9082 0.3398-0.6677-4e-5 -1.209-0.5413-1.209-1.209 0-0.3107 0.1576-0.6382 0.3789-0.8691l1.549-1.549h-6.158c-2.334-0.0096-4.223-1.899-4.232-4.232 0-2.322 1.911-4.23 4.232-4.23z"/>
  <path id="fg" d="m12.73 9.955c-2.321 0-4.232 1.908-4.232 4.23 0.00944 2.334 1.899 4.223 4.232 4.232h6.158l-1.549 1.549c-0.2213 0.2309-0.3789 0.5584-0.3789 0.8692 9e-6 0.6677 0.5413 1.209 1.209 1.209 0.3748 1e-6 0.6688-0.1101 0.9082-0.3398l4.42-4.496-4.42-4.496c-0.2394-0.2297-0.5334-0.3398-0.9082-0.3398-0.6677 4.6e-5 -1.209 0.5413-1.209 1.209 0 0.3107 0.1576 0.6382 0.3789 0.8692l1.549 1.549h-6.158c-1.016 0-1.814-0.7989-1.814-1.814 0-1.016 0.7988-1.813 1.814-1.813 0.1988-0.0018 0.4086 0.0013 0.6035 2e-3 0.669 5.19e-4 1.211-0.542 1.211-1.211-5.61e-4 -0.6682-0.5427-1.21-1.211-1.209z"/>
 </defs>
 <symbol id="color">
  <use href="#bg" fill="#4d4d4d"/>
  <use href="#fg" fill="#fff"/>
 </symbol>
 <symbol id="light-white"><use href="#fg" fill="#fff"/></symbol>
 <symbol id="light-black"><use href="#fg"/></symbol>
 <symbol id="full-white"><use href="#bg" fill="#fff"/></symbol>
 <symbol id="full-black"><use href="#bg"/></symbol>
 <use id="main" href="#color"/>
</svg>