<?xml version="1.0" encoding="UTF-8"?>
<svg version="1.1" viewBox="0 0 32 32" xmlns="http://www.w3.org/2000/svg">
 <defs>
 <path id="bg" d="m16 0a16 16 0 0 0-16 16 16 16 0 0 0 16 16 16 16 0 0 0 16-16 16 16 0 0 0-16-16zm2.955 6.654c0.368-0.00856 0.6698 0.03594 1.033 0.0957 1.325 0.218 2.67 1.188 3.486 2.602 1.101 1.908 0.8541 4.206-0.4023 5.492-0.6312 0.646-0.8181 0.6808-1.23 0.959 0.281-0.4432 0.3676-0.6136 0.3672-0.9805-3.6e-4 -0.2303-0.07363-0.4175-0.1152-0.5234-0.1596-0.4071-0.442-0.5772-0.7734-0.7734-0.4076-0.2413-0.8798-0.317-1.176-0.3164-0.2296 4.8e-4 -0.3482 0.0018-0.6504 0.07813-1.431 0.3612-2.992-0.2014-3.746-1.508h2e-3c-0.9016-1.562-0.3349-3.578 1.27-4.504 0.4724-0.2725 1.025-0.533 1.541-0.5918 0.1418-0.01616 0.2719-0.02448 0.3945-0.02734zm-8.332 3.689h0.0039c0.2852 0.0036 0.5676 0.03989 0.8398 0.1094 0.8752 0.2235 1 0.3679 1.447 0.5859-0.5244-0.02184-0.7157-0.01001-1.033 0.1738-0.1992 0.1154-0.3275 0.2724-0.3984 0.3613-0.2725 0.342-0.277 0.6715-0.2812 1.057-0.0053 0.4736 0.1659 0.9178 0.3145 1.174 0.1152 0.1984 0.1754 0.3019 0.3926 0.5254 1.028 1.058 1.322 2.692 0.5684 3.998v2e-3c-0.9032 1.561-2.934 2.077-4.537 1.15-0.4724-0.2732-0.9761-0.6215-1.285-1.039-0.3398-0.4592-0.483-0.8119-0.6562-1.271-0.474-1.256-0.3062-2.907 0.5098-4.32 0.9276-1.609 2.576-2.526 4.115-2.506zm9.16 7.547h2e-3c1.804 0 3.266 1.499 3.266 3.352-1.2e-4 0.5456-0.05061 1.156-0.2578 1.633-0.228 0.5236-0.4622 0.8234-0.7734 1.203-0.8512 1.038-2.364 1.719-3.996 1.719-2.203 0-4.069-1.363-4.555-3.094-0.2441-0.8696-0.1801-1.051-0.2148-1.547 0.2432 0.4647 0.3481 0.6256 0.666 0.8086 0.1994 0.1148 0.3972 0.1471 0.5098 0.1641 0.4324 0.06512 0.7229-0.09632 1.059-0.2852 0.4124-0.232 0.71-0.6027 0.8574-0.8594 0.1143-0.1992 0.1728-0.3017 0.2578-0.6016 0.4024-1.42 1.671-2.492 3.18-2.492z"/>
 <path id="sh" d="m27 16a11 11 0 0 1-11 11 11 11 0 0 1-11-11 11 11 0 0 1 11-11 11 11 0 0 1 11 11z"/>
 <path id="fg" d="m18.96 6.656c-0.1227 0.00286-0.2527 0.0112-0.3945 0.02736-0.5164 0.0588-1.07 0.3191-1.543 0.5916-1.604 0.9256-2.171 2.942-1.27 4.504h-2e-3c0.7544 1.306 2.317 1.869 3.748 1.508 0.3022-0.07632 0.4208-0.07764 0.6504-0.07812 0.296-6.24e-4 0.7664 0.07512 1.174 0.3164 0.3314 0.1963 0.6156 0.3665 0.7752 0.7736 0.0416 0.1059 0.1149 0.2933 0.1152 0.5236 4.6e-4 0.3669-0.08616 0.5372-0.3672 0.9804 0.4124-0.2782 0.5992-0.3128 1.23-0.9588 1.256-1.286 1.503-3.584 0.4024-5.492-0.816-1.413-2.162-2.384-3.486-2.602-0.3634-0.05976-0.6652-0.1043-1.033-0.09572zm-8.332 3.688c-1.539-0.01971-3.188 0.8972-4.116 2.506-0.816 1.413-0.9836 3.064-0.5096 4.32 0.1732 0.4596 0.3166 0.8124 0.6564 1.272 0.309 0.4176 0.8128 0.766 1.285 1.039 1.604 0.9264 3.633 0.4104 4.536-1.15v-2e-3c0.7532-1.306 0.46-2.94-0.5684-3.998-0.2172-0.2235-0.2774-0.3268-0.3926-0.5252-0.1485-0.256-0.3197-0.7004-0.3144-1.174 0.0043-0.3852 0.0087-0.7148 0.2812-1.057 0.07096-0.08896 0.1993-0.246 0.3984-0.3613 0.3175-0.1838 0.5088-0.1956 1.033-0.1738-0.4472-0.218-0.572-0.3625-1.447-0.586-0.2722-0.06948-0.5548-0.1057-0.84-0.1094zm9.16 7.548c-1.509 0-2.777 1.072-3.18 2.492-0.085 0.2998-0.1435 0.4024-0.2578 0.6016-0.1474 0.2566-0.4468 0.6272-0.8592 0.8592-0.3357 0.1888-0.6244 0.3503-1.057 0.2852-0.1125-0.01695-0.3122-0.04928-0.5116-0.1641-0.318-0.183-0.4228-0.3437-0.666-0.8084 0.03472 0.496-0.02928 0.6772 0.2148 1.547 0.486 1.731 2.353 3.094 4.556 3.094 1.632 0 3.145-0.6804 3.996-1.719 0.3113-0.3798 0.5456-0.6796 0.7736-1.203 0.2072-0.4764 0.2577-1.087 0.2578-1.633 5.16e-4 -1.852-1.462-3.352-3.266-3.352z"/>
 </defs>
 <symbol id="color">
  <use href="#bg" fill="#404552"/>
  <use href="#sh" fill="#6c7484"/>
  <use href="#fg" fill="#f9f9f9"/>
 </symbol>
 <symbol id="light-white"><use href="#fg" fill="#fff"/></symbol>
 <symbol id="light-black"><use href="#fg"/></symbol>
 <symbol id="full-white"><use href="#bg" fill="#fff"/></symbol>
 <symbol id="full-black"><use href="#bg"/></symbol>
 <use id="main" href="#color"/>
</svg>