<?xml version="1.0" encoding="UTF-8"?>
<svg version="1.1" viewBox="0 0 32 32" xmlns="http://www.w3.org/2000/svg">
 <defs>
  <path id="bg" d="m15.76 0.001791a16 16 0 1 1 0 32 16 16 0 0 1 0-32z"/>
  <path id="sh" d="m15.95 5.001a11 11 0 1 0 0 22 11 11 0 0 0 0-22zm3.921 3.066a1.465 1.465 0 0 1 1.091 2.19 1.468 1.468 0 1 1-1.091-2.19zm-3.923 1.554c0.5924 0 1.164 0.08056 1.707 0.2312a2.06 2.06 0 0 0 2.762 1.6c1.086 1.068 1.793 2.52 1.897 4.14l-2.092 0.02852a4.288 4.288 0 0 0-6.08-3.508l-1.021-1.832a6.36 6.36 0 0 1 2.83-0.66zm-3.539 1.07 1.076 1.8a4.284 4.284 0 0 0 0 7.02l-1.076 1.798a6.388 6.388 0 0 1-2.635-3.708 2.055 2.055 0 0 0 0-3.198 6.392 6.392 0 0 1 2.635-3.71zm-3.939 3.84a1.469 1.469 0 1 1 0 2.939 1.468 1.468 0 0 1 0-2.936zm11.75 1.847 2.092 0.03376a6.36 6.36 0 0 1-1.897 4.136 2.053 2.053 0 0 0-2.762 1.598 6.376 6.376 0 0 1-4.536-0.426l1.021-1.829a4.288 4.288 0 0 0 6.08-3.513zm-0.7144 4.64a1.471 1.471 0 1 1 0.3586 2.92 1.471 1.471 0 0 1-0.3586-2.92z"/>
  <path id="fg" d="m15.95 5.001a11 11 0 0 1 1.635 0.123 11 11 0 0 0-1.635-0.123zm0 0a11 11 0 0 0-1.611 0.1211 11 11 0 0 1 1.611-0.1211zm-1.611 0.1211a11 11 0 0 0-0.4316 0.09375 11 11 0 0 1 0.4316-0.09375zm-0.4316 0.09375a11 11 0 0 0-1.129 0.2578 11 11 0 0 1 1.129-0.2578zm-1.129 0.2578a11 11 0 0 0-0.5898 0.2207 11 11 0 0 1 0.5898-0.2207zm-0.5898 0.2207a11 11 0 0 0-0.9121 0.3574 11 11 0 0 1 0.9121-0.3574zm-0.9121 0.3574a11 11 0 0 0-0.584 0.3184 11 11 0 0 1 0.584-0.3184zm-0.584 0.3184a11 11 0 0 0-0.8145 0.4707 11 11 0 0 1 0.8145-0.4707zm-0.8145 0.4707a11 11 0 0 0-0.582 0.4375 11 11 0 0 1 0.582-0.4375zm-0.582 0.4375a11 11 0 0 0-0.6738 0.5352 11 11 0 0 1 0.6738-0.5352zm-0.6738 0.5352a11 11 0 0 0-0.543 0.543 11 11 0 0 1 0.543-0.543zm-0.543 0.543a11 11 0 0 0-0.582 0.6289 11 11 0 0 1 0.582-0.6289zm-0.582 0.6289a11 11 0 0 0-0.4277 0.5723 11 11 0 0 1 0.4277-0.5723zm-0.4277 0.5723a11 11 0 0 0-0.5078 0.7422 11 11 0 0 1 0.5078-0.7422zm-0.5078 0.7422a11 11 0 0 0-0.3438 0.6309 11 11 0 0 1 0.3438-0.6309zm-0.3438 0.6309a11 11 0 0 0-0.3809 0.7871 11 11 0 0 1 0.3809-0.7871zm-0.3809 0.7871a11 11 0 0 0-0.2637 0.707 11 11 0 0 1 0.2637-0.707zm-0.2637 0.707a11 11 0 0 0-0.252 0.8203 11 11 0 0 1 0.252-0.8203zm-0.252 0.8203a11 11 0 0 0-0.1582 0.7207 11 11 0 0 1 0.1582-0.7207zm-0.1582 0.7207a11 11 0 0 0-0.1309 0.8691 11 11 0 0 1 0.1309-0.8691zm-0.1309 0.8691a11 11 0 0 0-0.05078 0.7266 11 11 0 0 1 0.05078-0.7266zm-0.05078 0.7266a11 11 0 0 0-0.03125 0.4395 11 11 0 0 0 0.03124 0.4395 11 11 0 0 1 0-0.8789zm0 0.8789a11 11 0 0 0 0.05078 0.7266 11 11 0 0 1-0.05078-0.7266zm0.05078 0.7266a11 11 0 0 0 0.1309 0.8691 11 11 0 0 1-0.1309-0.8691zm0.1309 0.8691a11 11 0 0 0 0.1582 0.7207 11 11 0 0 1-0.1582-0.7207zm0.1582 0.7207a11 11 0 0 0 0.252 0.8203 11 11 0 0 1-0.252-0.8203zm0.252 0.8203a11 11 0 0 0 0.2637 0.707 11 11 0 0 1-0.2637-0.707zm0.2637 0.707a11 11 0 0 0 0.3809 0.7871 11 11 0 0 1-0.3809-0.7871zm0.3809 0.7871a11 11 0 0 0 0.3437 0.6309 11 11 0 0 1-0.3437-0.6309zm0.3437 0.6309a11 11 0 0 0 0.5078 0.7422 11 11 0 0 1-0.5078-0.7422zm0.5078 0.7422a11 11 0 0 0 0.4277 0.5723 11 11 0 0 1-0.4277-0.5723zm0.4277 0.5723a11 11 0 0 0 0.582 0.6289 11 11 0 0 1-0.582-0.6289zm0.582 0.6289a11 11 0 0 0 0.543 0.543 11 11 0 0 1-0.543-0.543zm0.543 0.543a11 11 0 0 0 0.6738 0.5352 11 11 0 0 1-0.6738-0.5352zm0.6738 0.5352a11 11 0 0 0 0.582 0.4375 11 11 0 0 1-0.582-0.4375zm0.582 0.4375a11 11 0 0 0 0.8145 0.4707 11 11 0 0 1-0.8145-0.4707zm0.8145 0.4707a11 11 0 0 0 0.584 0.3184 11 11 0 0 1-0.584-0.3184zm0.584 0.3184a11 11 0 0 0 0.9121 0.3574 11 11 0 0 1-0.9121-0.3574zm0.9121 0.3574a11 11 0 0 0 0.5898 0.2207 11 11 0 0 1-0.5898-0.2207zm0.5898 0.2207a11 11 0 0 0 1.129 0.2578 11 11 0 0 1-1.129-0.2578zm1.129 0.2578a11 11 0 0 0 0.4316 0.09375 11 11 0 0 1-0.4316-0.09375zm0.4316 0.09375a11 11 0 0 0 1.611 0.1211 11 11 0 0 1-1.611-0.1211zm1.611 0.1211a11 11 0 0 0 1.611-0.1211 11 11 0 0 1-1.611 0.1211zm1.611-0.1211a11 11 0 0 0 0.4316-0.09375 11 11 0 0 1-0.4316 0.09375zm0.4316-0.09375a11 11 0 0 0 1.129-0.2578 11 11 0 0 1-1.129 0.2578zm1.129-0.2578a11 11 0 0 0 0.5898-0.2207 11 11 0 0 1-0.5898 0.2207zm0.5898-0.2207a11 11 0 0 0 0.9121-0.3574 11 11 0 0 1-0.9121 0.3574zm0.9121-0.3574a11 11 0 0 0 0.584-0.3184 11 11 0 0 1-0.584 0.3184zm0.584-0.3184a11 11 0 0 0 0.8145-0.4707 11 11 0 0 1-0.8145 0.4707zm0.8145-0.4707a11 11 0 0 0 0.582-0.4375 11 11 0 0 1-0.582 0.4375zm0.582-0.4375a11 11 0 0 0 0.6738-0.5352 11 11 0 0 1-0.6738 0.5352zm0.6738-0.5352a11 11 0 0 0 0.543-0.543 11 11 0 0 1-0.543 0.543zm0.543-0.543a11 11 0 0 0 0.582-0.6289 11 11 0 0 1-0.582 0.6289zm0.582-0.6289a11 11 0 0 0 0.4277-0.5723 11 11 0 0 1-0.4277 0.5723zm0.4277-0.5723a11 11 0 0 0 0.5078-0.7422 11 11 0 0 1-0.5078 0.7422zm0.5078-0.7422a11 11 0 0 0 0.3438-0.6309 11 11 0 0 1-0.3438 0.6309zm0.3438-0.6309a11 11 0 0 0 0.3809-0.7871 11 11 0 0 1-0.3809 0.7871zm0.3809-0.7871a11 11 0 0 0 0.2637-0.707 11 11 0 0 1-0.2637 0.707zm0.2637-0.707a11 11 0 0 0 0.252-0.8203 11 11 0 0 1-0.252 0.8203zm0.252-0.8203a11 11 0 0 0 0.1582-0.7207 11 11 0 0 1-0.1582 0.7207zm0.1582-0.7207a11 11 0 0 0 0.1309-0.8691 11 11 0 0 1-0.1309 0.8691zm0.1309-0.8691a11 11 0 0 0 0.05078-0.7266 11 11 0 0 1-0.05078 0.7266zm0.05078-0.7266a11 11 0 0 0 0.03125-0.4395 11 11 0 0 0-0.03124-0.7812 11 11 0 0 1 0 1.221zm0-1.221a11 11 0 0 0-0.0058-0.07812 11 11 0 0 1 0.0058 0.07812zm-0.0058-0.07812a11 11 0 0 0-0.2305-1.539 11 11 0 0 1 0.2305 1.539zm-0.2305-1.539a11 11 0 0 0-0.02148-0.0957 11 11 0 0 1 0.02148 0.0957zm-0.02148-0.0957a11 11 0 0 0-0.4531-1.467 11 11 0 0 1 0.4531 1.467zm-0.4531-1.467a11 11 0 0 0-0.04102-0.1074 11 11 0 0 1 0.04102 0.1074zm-0.04102-0.1074a11 11 0 0 0-0.6777-1.402 11 11 0 0 1 0.6777 1.402zm-0.6777-1.402a11 11 0 0 0-0.02736-0.05078 11 11 0 0 1 0.02736 0.05078zm-0.02736-0.05078a11 11 0 0 0-0.9023-1.322 11 11 0 0 1 0.9023 1.322zm-7.865-5.354a11 11 0 0 1 1.572 0.3574 11 11 0 0 0-1.572-0.3574zm1.572 0.3574a11 11 0 0 1 0.06055 0.01952 11 11 0 0 0-0.06055-0.01952zm0.06055 0.01952a11 11 0 0 1 1.475 0.5801 11 11 0 0 0-1.475-0.5801zm1.475 0.5801a11 11 0 0 1 0.04688 0.02344 11 11 0 0 0-0.04688-0.02344zm0.04688 0.02344a11 11 0 0 1 1.381 0.7988 11 11 0 0 0-1.381-0.7988zm1.381 0.7988a11 11 0 0 1 0.03516 0.02344 11 11 0 0 0-0.03516-0.02344zm0.03516 0.02344a11 11 0 0 1 1.23 0.9805 11 11 0 0 0-1.23-0.9805zm1.23 0.9805a11 11 0 0 1 0.07812 0.07422 11 11 0 0 0-0.07812-0.07422zm0.07812 0.07422a11 11 0 0 1 1.066 1.152 11 11 0 0 0-1.066-1.152zm-3.605 0.08399a1.468 1.468 0 1 0 1.092 2.189 1.465 1.465 0 0 0-1.092-2.189zm-3.922 1.553 2e-3 0.00195a6.36 6.36 0 0 0-2.83 0.6602l1.021 1.83a4.288 4.288 0 0 1 6.08 3.508l2.092-0.02736c-0.104-1.62-0.8105-3.073-1.897-4.141a2.06 2.06 0 0 1-2.762-1.6c-0.5432-0.1507-1.115-0.2324-1.707-0.2324zm-3.539 1.072a6.392 6.392 0 0 0-2.635 3.711 2.055 2.055 0 0 1 0 3.199 6.388 6.388 0 0 0 2.635 3.707l1.076-1.799a4.284 4.284 0 0 1 0-7.02zm-3.939 3.84v2e-3a1.468 1.468 0 0 0 0 2.936 1.469 1.469 0 0 0 0-2.938zm11.75 1.846a4.288 4.288 0 0 1-6.08 3.514l-1.021 1.828a6.376 6.376 0 0 0 4.537 0.4258 2.053 2.053 0 0 1 2.762-1.598 6.36 6.36 0 0 0 1.896-4.135l-2.092-0.03516zm-0.7129 4.641a1.471 1.471 0 0 0 0.3594 2.92 1.471 1.471 0 1 0-0.3594-2.92z"/>
 </defs>
 <symbol id="color">
  <use href="#bg" fill="#e95420"/>
  <use href="#sh" fill="#fff"/>
  <use href="#fg" fill="#e95420"/>
 </symbol>
 <symbol id="light-white"><use href="#fg" fill="#fff"/></symbol>
 <symbol id="light-black"><use href="#fg"/></symbol>
 <symbol id="full-white"><use href="#bg" fill="#fff"/></symbol>
 <symbol id="full-black"><use href="#bg"/></symbol>
 <use id="main" href="#color"/>
</svg>