<?xml version="1.0" encoding="UTF-8"?>
<svg version="1.1" viewBox="0 0 32 32" xmlns="http://www.w3.org/2000/svg">
 <defs>
  <path id="bg" d="m16 0c-8.836 0-16 7.164-16 16 0 8.836 7.164 16 16 16 8.836 0 16-7.164 16-16 0-8.836-7.164-16-16-16zm0 5c6.076 0 11 4.924 11 11 0 6.076-4.924 11-11 11-6.076 0-11-4.924-11-11 0-6.076 4.924-11 11-11zm1.84 2.973-0.003906 5.055 4.275-2.527-4.271-2.527zm-1.84 1.299c-2.771 0-5.156 1.689-6.186 4.088l0.793 0.4688c0.86-2.131 2.949-3.629 5.393-3.629 0.3144 0 0.6219 0.0296 0.9219 0.07812v-0.9375c-0.3016-0.04184-0.6085-0.06641-0.9219-0.06641v-0.001953zm0 2.289c-1.93 0-3.58 1.246-4.188 2.975l0.8203 0.4863c0.4216-1.464 1.762-2.529 3.367-2.529 0.3172 0 0.6257 0.03907 0.918 0.1172v-0.9492c-0.296-0.06288-0.6042-0.09961-0.918-0.09961zm5.396 0.4238-0.7988 0.4746c0.754 0.9788 1.203 2.208 1.203 3.543 0 1.361-0.4661 2.606-1.246 3.594l0.7988 0.4727c0.8608-1.132 1.375-2.542 1.375-4.068 0-1.503-0.4952-2.894-1.332-4.016zm-1.992 1.18-0.8047 0.4727c0.5664 0.6228 0.9102 1.45 0.9102 2.363 0 0.9396-0.368 1.785-0.9648 2.412l0.8164 0.4824c0.6708-0.7788 1.08-1.793 1.08-2.895 0-1.077-0.3923-2.065-1.037-2.836zm-11.19 0.3105-0.003906 5.053 4.275-2.527-4.271-2.525zm4.42 3.506-0.8223 0.4805c0.6068 1.731 2.259 2.98 4.189 2.98 0.3136 0 0.6199-0.03864 0.916-0.1016v-0.9531c-0.292 0.07676-0.5987 0.1172-0.916 0.1172-1.605 0-2.946-1.061-3.367-2.523zm-2.023 1.191-0.793 0.4668c1.028 2.401 3.414 4.088 6.184 4.088 0.3096 0 0.6141-0.02497 0.9121-0.06641v-0.9297c-0.2972 0.04692-0.6009 0.07031-0.9121 0.07031-2.445 0-4.533-1.498-5.391-3.629zm7.223 0.8848-0.003907 5.047 4.277-2.525-4.273-2.521z"/>
  <path id="fg" d="m16 5c-6.076 0-11 4.924-11 11s4.924 11 11 11 11-4.924 11-11-4.924-11-11-11zm1.839 2.974 4.272 2.526-4.276 2.526zm-1.839 1.3c0.3134 0 0.62 0.02476 0.9216 0.0666v0.9368c-0.3-0.04852-0.6072-0.07736-0.9216-0.07736-2.443 2e-6 -4.532 1.498-5.392 3.629l-0.7928-0.4684c1.029-2.399 3.413-4.088 6.184-4.088zm0 2.286c0.3138 0 0.6212 0.03808 0.9172 0.101v0.9496c-0.2922-0.07812-0.6-0.1182-0.9172-0.1182-1.605 0-2.945 1.065-3.367 2.529l-0.8208-0.4856c0.6076-1.728 2.258-2.976 4.188-2.976zm5.396 0.4252c0.8368 1.122 1.332 2.513 1.332 4.016 0 1.526-0.5144 2.936-1.375 4.068l-0.7972-0.4728c0.78-0.9876 1.246-2.234 1.246-3.594 0-1.335-0.4492-2.564-1.203-3.543zm-1.992 1.18c0.6448 0.7712 1.038 1.759 1.038 2.836 0 1.101-0.41 2.115-1.081 2.894l-0.8164-0.4832c0.5968-0.6268 0.9648-1.471 0.9648-2.41 0-0.9132-0.3444-1.74-0.9108-2.363zm-11.19 0.3094 4.272 2.526-4.276 2.526zm4.42 3.506c0.4216 1.463 1.762 2.524 3.367 2.524 0.3174 0 0.6252-0.0414 0.9172-0.1182v0.954c-0.2962 0.06292-0.6036 0.101-0.9172 0.101-1.931 0-3.581-1.249-4.188-2.98zm-2.024 1.192c0.8572 2.131 2.947 3.629 5.392 3.629 0.3112 0 0.6136-0.02396 0.9108-0.07088v0.9304c-0.298 0.04144-0.6012 0.0666-0.9108 0.0666-2.77 0-5.156-1.687-6.184-4.088zm7.224 0.8832 4.272 2.522-4.276 2.524z"/>
 </defs>
 <symbol id="color">
  <use href="#bg" fill="#87a556"/>
  <use href="#fg" fill="#fff"/>
 </symbol>
 <symbol id="light-white"><use href="#fg" fill="#fff"/></symbol>
 <symbol id="light-black"><use href="#fg"/></symbol>
 <symbol id="full-white"><use href="#bg" fill="#fff"/></symbol>
 <symbol id="full-black"><use href="#bg"/></symbol>
 <use id="main" href="#color"/>
</svg>