<?xml version="1.0" encoding="UTF-8"?>
<svg version="1.1" viewBox="0 0 32 32" xmlns="http://www.w3.org/2000/svg">
 <defs>
  <path id="bg" d="m16 0a16 16 0 0 0-16 16 16 16 0 0 0 16 16 16 16 0 0 0 16-16 16 16 0 0 0-16-16zm-0.05664 6.809-2e-3 0.00195c0.9656 0 1.317 0.03796 2.289 0.25 0.4 0.08728 1.06 0.2869 1.191 0.3613 0.03016 0.01512 0.0698 0.03124 0.08984 0.03124 0.0656 4e-7 1.237 0.5658 1.254 0.6055 0.0058 0.01136 0.02604 0.02344 0.04492 0.02344 0.034 0 0.5928 0.3384 0.623 0.377 0.0087 0.01132 0.05774 0.04606 0.1094 0.08008 0.05164 0.03288 0.1092 0.07082 0.127 0.08594 0.0178 0.01472 0.1096 0.08684 0.2051 0.1602s0.1905 0.1471 0.209 0.166c0.01868 0.0174 0.08182 0.0659 0.1406 0.1094 0.1488 0.11 1.101 1.062 1.215 1.215 0.05144 0.0688 0.1145 0.1493 0.1406 0.1758 0.02604 0.02756 0.07657 0.08872 0.1113 0.1367 0.1933 0.2677 0.3027 0.4208 0.3242 0.4473 0.1072 0.1396 0.4387 0.7094 0.623 1.072 0.2682 0.5276 0.3963 0.8349 0.5391 1.279 0.1069 0.3324 0.128 0.4034 0.2129 0.7246 0.02524 0.09524 0.06072 0.228 0.07812 0.293 0.02828 0.1077 0.02552 0.1191-0.02928 0.1191-0.04678 0-0.0574 0.01552-0.04492 0.07031 0.218 0.9484 0.231 2.509 0.03124 3.646-0.01436 0.0828-0.0064 0.1016 0.03516 0.1016s0.04782 0.01872 0.02928 0.08789c-0.01292 0.0476-0.03484 0.1364-0.04883 0.1973-0.0986 0.424-0.168 0.6635-0.3145 1.104-0.04184 0.126-0.05102 0.1475-0.2207 0.5527-0.1328 0.3172-0.5039 1.034-0.5449 1.053-0.01284 6e-3 -0.02344 0.02604-0.02344 0.04492 0 0.03416-0.176 0.3233-0.2363 0.3887-0.01772 0.01928-0.07487 0.1076-0.127 0.1953-0.05896 0.0998-0.1148 0.1587-0.1484 0.1563-0.03-2e-3 -0.5331-0.4843-1.119-1.07l-1.066-1.064 0.07227-0.1211c0.4316-0.726 0.7373-1.583 0.877-2.455 0.07752-0.4836 0.07828-1.414 0-1.926-0.464-3.049-2.913-5.35-5.988-5.635-1.301-0.1208-2.707 0.1777-3.822 0.8105l-0.2559 0.1445-2.205-2.223 0.1211-0.08789c0.6544-0.4808 1.849-1.049 2.744-1.307 0.9864-0.2833 1.687-0.3792 2.76-0.3789zm-7.84 4.004c0.00508 5e-3 0.5045 0.5023 1.111 1.105l1.104 1.098-0.2266 0.4492c-0.484 0.9612-0.7129 1.924-0.7129 2.99 0 3.576 2.815 6.493 6.391 6.621 1.162 0.0414 2.162-0.1782 3.232-0.707l0.4844-0.2402 1.086 1.086c0.5968 0.5968 1.086 1.1 1.086 1.117s-0.06096 0.06971-0.1348 0.1172c-0.6048 0.389-0.795 0.4996-1.227 0.7148-1.049 0.5236-2.077 0.8324-3.219 0.9648-0.4076 0.04728-1.317 0.0831-1.592 0.0625l-2e-3 -0.0039c-1.025-0.0768-1.735-0.2087-2.557-0.4746-3.312-1.071-5.832-3.895-6.496-7.287-0.1172-0.5956-0.1439-0.8088-0.1777-1.398-0.104-1.813 0.3405-3.718 1.232-5.268 0.2011-0.3496 0.6008-0.9621 0.6172-0.9473zm7.908 2.596a3.085 3.085 0 0 1 3.086 3.086 3.085 3.085 0 0 1-3.086 3.086 3.085 3.085 0 0 1-3.084-3.086 3.085 3.085 0 0 1 3.084-3.086z"/>
  <path id="fg" d="m15.94 6.809c-1.073-2.644e-4 -1.773 0.09559-2.76 0.3789-0.8956 0.2574-2.09 0.8258-2.744 1.307l-0.1211 0.08789 2.205 2.223 0.2559-0.1445c1.116-0.6328 2.521-0.9313 3.822-0.8105 3.075 0.2846 5.524 2.586 5.988 5.635 0.07828 0.512 0.07752 1.442 0 1.926-0.1397 0.8716-0.4454 1.729-0.877 2.455l-0.07226 0.1211 1.066 1.064c0.586 0.586 1.089 1.068 1.119 1.07 0.03364 0.0025 0.08948-0.05645 0.1484-0.1563 0.05208-0.08768 0.1092-0.176 0.127-0.1953 0.06028-0.0654 0.2363-0.3545 0.2363-0.3887 0-0.01888 0.0106-0.03888 0.02344-0.04492 0.041-0.01888 0.4121-0.7355 0.5449-1.053 0.1697-0.4052 0.1789-0.4267 0.2207-0.5527 0.1464-0.44 0.2159-0.6795 0.3145-1.104 0.014-0.06084 0.03592-0.1497 0.04883-0.1973 0.01852-0.06916 0.01228-0.08789-0.02928-0.08789s-0.04952-0.01876-0.03516-0.1016c0.1998-1.138 0.1867-2.698-0.03124-3.646-0.01248-0.0548-0.0019-0.07031 0.04492-0.07031 0.0548 0 0.05758-0.01144 0.02928-0.1191-0.0174-0.065-0.05288-0.1977-0.07812-0.293-0.08492-0.3212-0.106-0.3922-0.2129-0.7246-0.1428-0.4444-0.2708-0.7517-0.5391-1.279-0.1844-0.3628-0.5158-0.9327-0.623-1.072-0.02156-0.02644-0.1309-0.1796-0.3242-0.4473-0.03476-0.048-0.08529-0.1092-0.1113-0.1367-0.02608-0.02644-0.08918-0.107-0.1406-0.1758-0.1139-0.1527-1.066-1.105-1.215-1.215-0.0588-0.04348-0.1219-0.09198-0.1406-0.1094-0.01853-0.0189-0.1135-0.0927-0.209-0.166-0.09548-0.07332-0.1873-0.1454-0.2051-0.1602-0.01776-0.01512-0.07531-0.05306-0.127-0.08594-0.05164-0.034-0.1007-0.06876-0.1094-0.08008-0.03024-0.03856-0.589-0.377-0.623-0.377-0.01888 0-0.03912-0.01208-0.04492-0.02344-0.01664-0.03968-1.188-0.6055-1.254-0.6055-0.02004 0-0.05968-0.01612-0.08984-0.03124-0.1317-0.07444-0.7914-0.274-1.191-0.3613-0.9724-0.212-1.323-0.25-2.289-0.25zm-7.84 4.004c-0.0164-0.0148-0.4161 0.5977-0.6172 0.9473-0.8919 1.55-1.336 3.454-1.232 5.268 0.03384 0.5896 0.06054 0.8028 0.1777 1.398 0.664 3.392 3.184 6.216 6.496 7.287 0.8212 0.2659 1.532 0.3978 2.557 0.4746l2e-3 0.0039c0.2744 0.0206 1.184-0.01524 1.592-0.0625 1.142-0.1324 2.17-0.4412 3.219-0.9648 0.4316-0.2152 0.6218-0.3258 1.227-0.7148 0.0738-0.04748 0.1348-0.09959 0.1348-0.1172 0-0.0176-0.4891-0.5204-1.086-1.117l-1.086-1.086-0.4844 0.2402c-1.071 0.5289-2.071 0.7484-3.232 0.707-3.576-0.128-6.391-3.045-6.391-6.621 0-1.066 0.2289-2.029 0.7129-2.99l0.2266-0.4492-1.104-1.098c-0.6068-0.6032-1.106-1.1-1.111-1.105zm7.908 2.596a3.085 3.085 0 0 0-3.084 3.086 3.085 3.085 0 0 0 3.084 3.086 3.085 3.085 0 0 0 3.086-3.086 3.085 3.085 0 0 0-3.086-3.086z"/>
  <path id="c_2fg" d="m15.94 6.808c-1.073-2.644e-4 -1.773 0.0956-2.76 0.3789-0.8956 0.2574-2.09 0.8256-2.744 1.306l-0.1211 0.08808 2.205 2.222 0.2559-0.1444c1.116-0.6328 2.521-0.9312 3.822-0.8104 3.075 0.2846 5.524 2.587 5.988 5.636 0.07828 0.512 0.07752 1.442 0 1.926-0.1397 0.8716-0.4452 1.729-0.8768 2.455l-0.07224 0.121 1.066 1.064c0.586 0.586 1.089 1.068 1.119 1.07 0.03364 0.0025 0.08944-0.05668 0.1484-0.1565 0.05208-0.08768 0.1092-0.1761 0.127-0.1954 0.06028-0.0654 0.2363-0.3545 0.2363-0.3887 0-0.01888 0.0106-0.03892 0.02344-0.04496 0.041-0.01888 0.412-0.7356 0.5448-1.053 0.1697-0.4052 0.1788-0.4268 0.2207-0.5528 0.1464-0.44 0.2158-0.6796 0.3144-1.104 0.014-0.06084 0.03592-0.1497 0.04884-0.1973 0.01852-0.06916 0.01208-0.08808-0.02948-0.08808s-0.04952-0.01888-0.03516-0.1017c0.1998-1.138 0.1866-2.698-0.03136-3.646-0.01248-0.0548-0.0019-0.07028 0.04488-0.07028 0.0548 0 0.05776-0.01132 0.02948-0.119-0.0174-0.065-0.05288-0.1977-0.07812-0.2929-0.08492-0.3212-0.106-0.392-0.2129-0.7244-0.1428-0.4444-0.271-0.7516-0.5392-1.279-0.1844-0.3628-0.516-0.9328-0.6232-1.072-0.02156-0.02644-0.1309-0.1795-0.3242-0.4472-0.03476-0.048-0.08528-0.1092-0.1113-0.1368-0.02608-0.02644-0.0892-0.107-0.1406-0.1758-0.1139-0.1527-1.066-1.105-1.215-1.215-0.0588-0.04348-0.122-0.09184-0.1406-0.1092-0.01852-0.0189-0.1135-0.0926-0.209-0.1659s-0.1873-0.1455-0.2051-0.1602c-0.01776-0.01512-0.07532-0.05292-0.127-0.0858-0.05164-0.034-0.1007-0.0688-0.1094-0.08012-0.03024-0.03856-0.5892-0.3768-0.6232-0.3768-0.01888 0-0.03912-0.01132-0.04492-0.02268-0.01664-0.03968-1.188-0.6072-1.254-0.6072-0.02004 0-0.05968-0.01512-0.08984-0.03024-0.1317-0.07444-0.7912-0.274-1.191-0.3613-0.9724-0.212-1.323-0.2498-2.289-0.2498zm0.06836 6.6a3.085 3.085 0 0 0-3.084 3.086 3.085 3.085 0 0 0 3.084 3.086 3.085 3.085 0 0 0 3.086-3.086 3.085 3.085 0 0 0-3.086-3.086z" fill="#10703c" opacity=".25"/>
  <path id="c_1fg" d="m15.48 26.19c-1.025-0.0768-1.736-0.2085-2.557-0.4744-3.312-1.071-5.832-3.896-6.496-7.288-0.1172-0.5956-0.1443-0.8084-0.1781-1.398-0.104-1.813 0.3421-3.718 1.234-5.268 0.2011-0.3496 0.5992-0.962 0.6156-0.9472 0.00508 5e-3 0.5056 0.5024 1.112 1.106l1.103 1.097-0.2262 0.4496c-0.484 0.9612-0.714 1.924-0.714 2.99 0 3.576 2.816 6.492 6.392 6.62 1.162 0.0414 2.161-0.1767 3.232-0.7056l0.4852-0.2397 1.085 1.085c0.5968 0.5968 1.085 1.099 1.085 1.117s-0.06036 0.0708-0.1342 0.1183c-0.6048 0.389-0.794 0.4996-1.226 0.7148-1.049 0.5236-2.077 0.8312-3.219 0.9636-0.4076 0.04728-1.318 0.083-1.592 0.0624z" fill="#10703c" opacity=".75"/>
  <path id="label" d="m20.17 18.33c0-0.02692 0.01364-0.07368 0.03032-0.1038 0.01668-0.03008 0.0664-0.1365 0.1105-0.2363 0.09656-0.2186 0.2262-0.5096 0.2849-0.6392 0.0236-0.05208 0.08068-0.1799 0.1269-0.2841s0.1104-0.2462 0.1426-0.3156c0.0322-0.06948 0.09616-0.2115 0.1421-0.3157 0.04592-0.1042 0.1025-0.232 0.1258-0.2841 0.02324-0.05208 0.07668-0.1728 0.1188-0.2683 0.3807-0.864 0.5768-1.27 0.6268-1.296 0.038-0.02028 0.9368-0.02832 2.544-0.02248 2.386 9e-3 2.492 0.01148 2.628 0.0706 0.07812 0.03392 0.1562 0.07228 0.1736 0.0852 0.3602 0.269 0.5216 0.5904 0.5196 1.034-0.0029 0.626-0.3124 1.251-0.8764 1.771-0.2743 0.2526-0.2684 0.248-0.48 0.383-0.2196 0.14-0.4564 0.2538-0.7572 0.3636l-0.2368 0.08648-2.612 0.0108c-2.344 0.01-2.612 6e-3 -2.612-0.0382zm4.068-0.69c0.07588-0.04928 0.1785-0.1311 0.2281-0.1818 0.1477-0.1511 0.3829-0.5436 0.5276-0.8808 0.08784-0.2046 0.2288-0.5396 0.2657-0.6312 0.01744-0.0434 0.04612-0.1066 0.06372-0.1404s0.039-0.1486 0.04756-0.2551c0.01464-0.1823 0.01044-0.1976-0.07152-0.2621-0.08356-0.06568-0.1161-0.06848-0.8064-0.06848h-0.7196l-0.07696 0.1657c-0.04232 0.09108-0.1205 0.2652-0.1737 0.3867-0.0898 0.205-0.1815 0.4096-0.3495 0.7796-0.037 0.08148-0.06732 0.1557-0.06732 0.1648 0 9e-3 -0.03416 0.0916-0.07588 0.1832-0.04172 0.0916-0.1133 0.2518-0.159 0.356s-0.09856 0.2168-0.1174 0.2504c-0.0188 0.03348-0.046 0.1022-0.06044 0.1525l-0.02624 0.09148 1.433-0.021zm-6.844 0.71c0-0.05128 0.1606-0.4392 0.3468-0.838 0.06756-0.1446 0.2444-0.5376 0.2841-0.6312 0.01472-0.03468 0.06236-0.1412 0.1059-0.2367 0.0706-0.1549 0.129-0.2855 0.2961-0.6628 0.02692-0.0608 0.09672-0.214 0.1551-0.3406 0.0584-0.1265 0.1062-0.2375 0.1062-0.2466 0-0.01512 0.05252-0.1309 0.2744-0.6048 0.04272-0.0912 0.1041-0.18 0.1363-0.1973 0.08276-0.04432 2.104-0.04232 2.132 2e-3 0.02144 0.03468-0.0047 0.1135-0.1355 0.4084-0.04236 0.09548-0.09568 0.2162-0.1185 0.2683-0.1371 0.3126-0.2154 0.4884-0.2675 0.5996-0.06824 0.1461-0.2186 0.48-0.2986 0.6628-0.03036 0.06948-0.08224 0.1866-0.1152 0.2604-0.08956 0.2002-0.1791 0.402-0.2452 0.5524-0.0324 0.0738-0.08092 0.1839-0.1078 0.2446-0.02684 0.0608-0.08616 0.1957-0.1318 0.2999-0.04568 0.1042-0.1161 0.2533-0.1564 0.3314l-0.0734 0.142-1.093 8e-3c-0.6956 5e-3 -1.093-3e-3 -1.093-0.02252zm-5.632 0c-0.1936-0.05188-0.5064-0.293-0.6268-0.4832-0.1645-0.2598-0.2232-0.7252-0.1353-1.073 0.08156-0.3231 0.2318-0.6972 0.3043-0.7576 0.01044-9e-3 0.05892-0.07968 0.1078-0.1578 0.07776-0.1243 0.3318-0.416 0.4508-0.5176 0.02252-0.0192 0.06516-0.05712 0.09468-0.0842 0.3268-0.2996 1.031-0.6228 1.506-0.6912 0.3134-0.04512 3.343-0.04308 3.556 2e-3 0.5308 0.1138 0.848 0.5476 0.848 1.16 0 0.1903-0.04724 0.5116-0.09116 0.6196-0.07004 0.1725-0.3008 0.618-0.3463 0.6684-0.02848 0.0316-0.09008 0.1088-0.1369 0.1716-0.0962 0.1289-0.4708 0.5016-0.504 0.5016-0.012 0-0.0406 0.01872-0.06352 0.04148-0.1384 0.1376-0.5296 0.3451-0.9572 0.508l-0.2525 0.09608-1.847 6e-3c-1.016 3e-3 -1.874-9.99e-4 -1.906-0.0102zm2.892-0.7428c0.177-0.1151 0.466-0.4552 0.466-0.5488 0-0.02412 0.01064-0.044 0.02368-0.04428 0.013-1.9e-4 0.05056-0.0606 0.08344-0.1342 0.03288-0.0736 0.09444-0.2119 0.1368-0.3074 0.04236-0.09548 0.1034-0.2304 0.1356-0.2999 0.1973-0.4252 0.2293-0.5188 0.2438-0.7128 0.01484-0.1976 0.01136-0.2111-0.07144-0.2762-0.08304-0.06528-0.1176-0.06848-0.7516-0.06848-0.6092 0-0.6756 5e-3 -0.8004 0.06588-0.2408 0.1166-0.444 0.4172-0.7452 1.102-0.02672 0.0608-0.0838 0.1886-0.1269 0.2841-0.1843 0.4088-0.253 0.7024-0.205 0.8764 0.04928 0.1784 0.1385 0.1988 0.8304 0.1894l0.5996-8e-3zm-8.472 0.6928c-0.04868-0.0918-0.2046-0.379-0.304-0.5604-0.04288-0.07808-0.1364-0.2557-0.2078-0.3946s-0.1373-0.2596-0.1464-0.2683c-0.00908-9e-3 -0.07512-0.1294-0.1467-0.2683-0.07156-0.1389-0.165-0.3164-0.2078-0.3946-0.04272-0.07808-0.1317-0.2415-0.1977-0.363s-0.1586-0.292-0.2058-0.3788c-0.09272-0.1706-0.3969-0.7396-0.464-0.868-0.05588-0.107-0.0522-0.2101 0.00828-0.2334 0.02744-0.01052 0.6144-0.0192 1.304-0.0192 0.9544 0 1.266 9e-3 1.306 0.03948 0.02848 0.02168 0.1111 0.1531 0.1837 0.292 0.1342 0.257 0.528 1.02 0.8064 1.562 0.08464 0.1649 0.1645 0.3046 0.1776 0.3104 0.013 6e-3 0.02388 0.02708 0.02416 0.04728 2.52e-4 0.02028 0.0126 0.05588 0.0274 0.07928 0.02144 0.0338 0.05456 0.025 0.1628-0.04328 0.07472-0.0472 0.1512-0.0986 0.1699-0.1142 0.03992-0.03348 0.2337-0.1666 0.776-0.5328 0.217-0.1466 0.4016-0.2754 0.4104-0.286 0.00868-0.0106 0.07972-0.05912 0.1578-0.1077 0.07812-0.0486 0.1492-0.0974 0.1578-0.1084 0.00868-0.011 0.09392-0.0688 0.1894-0.1284s0.1807-0.1176 0.1894-0.1289c0.0087-0.01132 0.09584-0.07148 0.1937-0.1339s0.1973-0.132 0.221-0.1548c0.02364-0.0228 0.1212-0.0904 0.2166-0.1502s0.1807-0.1178 0.1894-0.1288c0.0087-0.011 0.07972-0.0598 0.1578-0.1084 0.07812-0.0486 0.1492-0.09808 0.1578-0.11 0.0394-0.05408 0.2525-0.0952 0.494-0.0952 0.145 0 0.2636 8e-3 0.2636 0.01792 0 0.06128-0.08716 0.1524-0.245 0.2558-0.09964 0.06528-0.1883 0.1278-0.197 0.1388-0.0087 0.011-0.07972 0.0598-0.1578 0.1084s-0.1492 0.09708-0.1578 0.1078c-0.0087 0.01068-0.1413 0.1044-0.2947 0.2084-0.1534 0.1039-0.3238 0.2209-0.3788 0.26-0.05492 0.03908-0.1567 0.1087-0.2262 0.1546-0.06944 0.04588-0.1334 0.09248-0.142 0.1035-0.0087 0.011-0.09392 0.0688-0.1894 0.1284s-0.1807 0.1176-0.1894 0.1289c-0.0087 0.01132-0.09584 0.07148-0.1937 0.1339-0.09788 0.06228-0.1975 0.1317-0.2214 0.1541s-0.1711 0.126-0.3271 0.2302-0.2907 0.1979-0.2994 0.2084c-0.00868 0.0104-0.07972 0.05868-0.1578 0.1073-0.07812 0.0486-0.1492 0.09728-0.1578 0.1081-0.00868 0.01088-0.1223 0.0904-0.2525 0.1768s-0.2438 0.1656-0.2525 0.176c-0.00868 0.0104-0.0786 0.05828-0.1554 0.1064-0.07676 0.04808-0.1549 0.09988-0.1736 0.1152-0.04416 0.03596-0.4684 0.332-0.6504 0.454-0.07772 0.052-0.1484 0.1021-0.1571 0.1112-0.09424 0.09908-0.2036 0.1256-0.5188 0.1256-0.3115 0-0.3337-4e-3 -0.3691-0.071z" stroke-width=".03156"/> 
 </defs>
 <symbol id="color">
  <use href="#bg" fill="#f2f2f2"/>
  <use href="#fg" fill="#fff"/>
  <use href="#c_2fg"/>
  <use href="#c_1fg"/>
  <use href="#label"/>
 </symbol>
 <symbol id="light-white"><use href="#fg" fill="#fff"/></symbol>
 <symbol id="light-black"><use href="#fg"/></symbol>
 <symbol id="full-white"><use href="#bg" fill="#fff"/></symbol>
 <symbol id="full-black"><use href="#bg"/></symbol>
 <use id="main" href="#color"/>
</svg>
