<?xml version="1.0" encoding="UTF-8"?>
<svg version="1.1" viewBox="0 0 32 32" xmlns="http://www.w3.org/2000/svg">
 <defs>
  <path id="bg" d="m15.76 0.001953a16 16 0 0 0 0 32 16 16 0 1 0 0-32zm5.172 6.486v0.00391a0.3808 0.3808 0 0 0 0.05078 0c0.05372-0.00444 0.03929 5.188e-4 0.05273 0.01172a0.8624 0.8624 0 0 1 0.1074 0.1133c0.08288 0.1008 0.1093 0.1529 0.125 0.2402a0.3808 0.3808 0 0 0 0 0.01953c0.1232 1.878-0.2049 3.797-0.6641 5.627a0.3808 0.3808 0 0 0-0.06641 0.1562c-0.0358 0.2129-0.1084 0.3588-0.2227 0.4395-0.1075 0.07396-0.1522 0.08849-0.1836 0.08399-0.04032-0.0112-0.1103-0.0748-0.1641-0.1465a0.3808 0.3808 0 0 0-0.03125-0.06641c-0.2933-1.08 0.07326-2.225 0.1875-3.35a0.3808 0.3808 0 0 0 0-0.05078c0.2332-1.028 0.2407-2.173 0.7559-3.047-0.01344 0.01792 0.0079-0.00604 0.05273-0.03516zm4.201 0.8906a0.3561 0.3561 0 0 0 0.03906 0c0.07616-0.0112 0.217 0.08221 0.2305 0.1113 0.047 0.09852 0.04399 0.1471-0.0098 0.2793a0.3561 0.3561 0 0 0-2e-3 0.00391c-0.7772 1.984-1.723 4.028-2.975 5.748a0.3561 0.3561 0 0 0-0.0078 0.01367c-0.01346 0.01792-7e-3 0.03424-0.01367 0.05664a0.5108 0.5108 0 0 1-0.4473 0.1953c-0.1322-0.02912-0.2611-0.1569-0.2656-0.3809 0.094-1.416 0.9721-2.629 1.662-3.852a0.3561 0.3561 0 0 0 0.04297-0.1055c0.5465-0.748 0.9534-1.681 1.746-2.068zm-12.09 0.5586-2e-3 0.00195a1.299 1.299 0 0 1 0.1914 0.01367 1.348 1.348 0 0 1 0.9531 0.4746c0.3853 0.4544 0.5688 1.127 0.6875 1.83a14.97 14.97 0 0 1 0.168 2.021v0.7383c0 0.03136-0.01568 0.06687 0 0.09375 0.01564 0.02916 0.06658 0.03091 0.0957 0.04883 0.02016 0.01128 0.02252 0.01928 0.04492 0.02149 0.04476 0.01344 0.08733 0.03539 0.168 0.04883 0.2688 0.05152 0.7029 0.07118 1.164 0.1406a35.68 35.68 0 0 1 3.375 0.7383c1.245 0.3268 2.493 0.7781 3.494 1.428 0.9968 0.6472 1.746 1.484 1.902 2.613 0.0984 0.7008-0.436 1.405-1.166 2.045-0.728 0.6408-1.681 1.24-2.709 1.807-1.028 0.5624-2.096 1.076-2.947 1.475-0.4252 0.1995-0.8048 0.3357-1.094 0.4746-1.468 0.5936-3.124 1.121-4.871 1.473-0.06944 0-0.2347 0.04433-0.3086 0.04883-8.904 0.772-4.756-10.25-4.756-10.25s0.2229-0.5185 0.3125-0.832a2.087 2.087 0 0 0 0.04492-0.332c-0.0112-0.07392-0.05762-0.2096-0.0957-0.3574-0.08512-0.3472-0.2212-0.768-0.3086-1.283-0.08512-0.5128-0.1399-1.104-0.02344-1.615a1.94 1.94 0 0 1 0.9512-1.285 0.9632 0.9632 0 0 1 0.6426-0.0957 1.559 1.559 0 0 1 0.5938 0.3574 4.588 4.588 0 0 1 0.9277 1.236 18.99 18.99 0 0 1 0.6895 1.426c0.0918 0.2106 0.1457 0.3781 0.2129 0.5215 0.03136 0.06496 0.05015 0.1553 0.07031 0.1934 0.0073 0.01565 0.0074 0.02226 0.0059 0.02539 0.0206 0.02256 0.06478 0.03017 0.08984 0.04687-0.01568-0.01568 0.05895 0.03148 0.1172 0.04492 0.08736 0.02244 0.1551 0.05333 0.2402 0.04883a0.2016 0.2016 0 0 0 0.1191-0.04883c0.01344 0-0.01568-0.03788 0-0.04687 0.02688-0.0336 0.04687-0.02971 0.04687-0.07227v-0.09374c-0.03584-0.1256-0.1096-0.3087-0.2148-0.6895-0.121-0.4392-0.2302-1.013-0.3086-1.568-0.07616-0.5576-0.1142-1.103 0-1.596 0.1164-0.4772 0.3783-0.8892 0.8555-1.068 0.1366-0.05376 0.3235-0.1671 0.4512-0.1895a1.299 1.299 0 0 1 0.1894-0.01367z"/>
  <path id="fg" d="m20.93 6.489c-0.0448 0.02912-0.06616 0.05308-0.05272 0.03516-0.5152 0.8736-0.5228 2.019-0.756 3.047a0.3808 0.3808 0 0 1 0 0.0508c-0.1142 1.124-0.4808 2.27-0.1875 3.35a0.3808 0.3808 0 0 1 0.03124 0.0664c0.05376 0.07168 0.1238 0.1353 0.1641 0.1465 0.03136 0.0045 0.07608-0.01004 0.1836-0.084 0.1142-0.08064 0.1868-0.2267 0.2226-0.4396a0.3808 0.3808 0 0 1 0.0664-0.1562c0.4592-1.83 0.7872-3.75 0.664-5.628a0.3808 0.3808 0 0 1 0-0.01956c-0.01568-0.08736-0.04212-0.1394-0.125-0.2402a0.8624 0.8624 0 0 0-0.1074-0.1133c-0.01344-0.0112 1e-3 -0.01424-0.05272-0.0098a0.3808 0.3808 0 0 1-0.05076-0.00189zm4.2 0.8924c-0.7928 0.3875-1.2 1.32-1.746 2.068a0.3561 0.3561 0 0 1-0.04296 0.1055c-0.69 1.223-1.568 2.436-1.662 3.852 0.0045 0.224 0.1335 0.3518 0.2656 0.3809a0.5108 0.5108 0 0 0 0.4472-0.1953c0.0067-0.0224 2.17e-4 -0.03872 0.01368-0.05664a0.3561 0.3561 0 0 1 0.0078-0.01368c1.252-1.72 2.198-3.764 2.975-5.748a0.3561 0.3561 0 0 1 2e-3 -0.00389c0.05376-0.1322 0.0568-0.1808 0.0098-0.2793-0.01348-0.02912-0.1543-0.1225-0.2305-0.1113a0.3561 0.3561 0 0 1-0.03908 0zm-12.09 0.5568a1.299 1.299 0 0 0-0.1894 0.01368c-0.1277 0.0224-0.3146 0.1357-0.4512 0.1894-0.4772 0.1792-0.7392 0.5912-0.8556 1.068-0.1142 0.4928-0.07616 1.038 0 1.596 0.0784 0.5556 0.1876 1.129 0.3086 1.568 0.1053 0.3808 0.179 0.564 0.2148 0.6896v0.09376c0 0.04256-0.02 0.03868-0.04688 0.07228-0.01568 9e-3 0.01344 0.04688 0 0.04688a0.2016 0.2016 0 0 1-0.1192 0.04884c-0.08512 0.0045-0.1529-0.0264-0.2402-0.04884-0.05824-0.01344-0.1329-0.0606-0.1172-0.04492-0.02688-0.01792-0.0778-0.02392-0.09568-0.0508 0 0.0112 0.01568 0.01208 0-0.02152-0.02016-0.03808-0.03896-0.1284-0.07032-0.1934-0.0672-0.1434-0.1211-0.311-0.2129-0.5216a18.99 18.99 0 0 0-0.6896-1.426 4.588 4.588 0 0 0-0.9276-1.236 1.559 1.559 0 0 0-0.5936-0.3574 0.9632 0.9632 0 0 0-0.6424 0.09572 1.94 1.94 0 0 0-0.9512 1.285c-0.1165 0.5108-0.06168 1.102 0.02344 1.615 0.08736 0.5152 0.2235 0.936 0.3086 1.283 0.03808 0.1478 0.08452 0.2835 0.09572 0.3574a2.087 2.087 0 0 1-0.04492 0.332c-0.0896 0.3136-0.3125 0.832-0.3125 0.832s-4.148 11.02 4.756 10.25c0.07392-0.0045 0.2392-0.04884 0.3086-0.04884 1.747-0.3516 3.404-0.8792 4.872-1.473 0.2889-0.1389 0.6684-0.2753 1.094-0.4748 0.8512-0.3987 1.919-0.9124 2.947-1.475 1.028-0.5668 1.981-1.166 2.709-1.807 0.73-0.6404 1.264-1.344 1.166-2.045-0.1568-1.129-0.9056-1.966-1.902-2.613-1.001-0.6496-2.249-1.101-3.494-1.428a35.68 35.68 0 0 0-3.375-0.7384c-0.4612-0.06944-0.8952-0.08912-1.164-0.1406-0.08064-0.01344-0.1232-0.0354-0.168-0.04884-0.0224-0.0022-0.02476-0.01024-0.04492-0.02152-0.02912-0.01792-0.08004-0.01968-0.09568-0.04884-0.01568-0.02688 0-0.0624 0-0.09376v-0.7384a14.97 14.97 0 0 0-0.168-2.022c-0.1187-0.7032-0.3023-1.376-0.6876-1.83a1.348 1.348 0 0 0-0.9532-0.4748 1.299 1.299 0 0 0-0.1914-0.01368z"/>
 </defs>
 <symbol id="color">
  <use href="#bg" fill="#04a"/>
  <use href="#fg" fill="#fff"/>
 </symbol>
 <symbol id="light-white"><use href="#fg" fill="#fff"/></symbol>
 <symbol id="light-black"><use href="#fg"/></symbol>
 <symbol id="full-white"><use href="#bg" fill="#fff"/></symbol>
 <symbol id="full-black"><use href="#bg"/></symbol>
 <use id="main" href="#color"/>
</svg>