<?xml version="1.0" standalone="no"?>
<!DOCTYPE svg PUBLIC "-//W3C//DTD SVG 20010904//EN"
 "http://www.w3.org/TR/2001/REC-SVG-20010904/DTD/svg10.dtd">
<svg version="1.0" xmlns="http://www.w3.org/2000/svg"
 width="700.000000pt" height="700.000000pt" viewBox="0 0 700.000000 700.000000"
 preserveAspectRatio="xMidYMid meet">
<metadata>
Created by potrace 1.14, written by Peter Selinger 2001-2017
</metadata>
<g transform="translate(0.000000,700.000000) scale(0.100000,-0.100000)"
fill="#000000" stroke="none">
<path d="M3279 6996 c-2 -2 -40 -6 -84 -10 -81 -6 -136 -12 -190 -21 -16 -2
-48 -7 -70 -10 -212 -30 -583 -135 -762 -216 -24 -10 -45 -19 -49 -19 -3 0
-71 -32 -152 -71 -151 -74 -352 -190 -453 -262 -31 -23 -67 -49 -79 -57 -45
-30 -187 -145 -265 -214 -231 -204 -480 -497 -635 -746 -192 -309 -356 -685
-425 -978 -3 -9 -9 -35 -15 -57 -15 -57 -58 -281 -66 -340 -22 -167 -29 -283
-29 -500 1 -196 7 -334 20 -406 2 -13 7 -44 9 -69 13 -119 32 -216 77 -395
173 -688 582 -1338 1134 -1800 121 -102 329 -255 345 -255 5 0 10 -4 10 -10 0
-5 4 -10 10 -10 5 0 40 -19 77 -43 245 -157 741 -364 962 -402 19 -3 37 -8 41
-10 3 -2 17 -6 31 -9 13 -2 49 -10 79 -16 88 -18 93 -19 130 -24 70 -10 126
-18 150 -22 164 -26 655 -25 850 2 19 3 51 7 70 10 94 13 171 26 230 40 36 9
76 18 90 20 42 8 169 45 275 79 694 228 1314 681 1736 1270 43 61 82 115 87
120 49 62 213 361 276 505 20 47 42 93 47 104 6 10 17 37 24 60 7 22 27 79 44
126 26 71 80 254 97 330 2 11 6 30 10 43 3 12 7 33 10 47 2 14 7 36 10 50 3
14 7 37 9 52 2 15 8 53 14 85 5 32 13 85 16 118 4 33 9 71 11 85 9 48 11 526
3 612 -8 86 -18 175 -24 213 -2 11 -6 45 -10 75 -4 30 -9 58 -11 61 -2 4 -6
24 -10 45 -10 72 -72 308 -109 419 -67 203 -104 291 -207 494 -302 592 -759
1079 -1334 1423 -120 71 -413 218 -436 218 -8 0 -18 4 -23 9 -17 16 -254 97
-390 134 -138 38 -356 84 -430 92 -5 0 -37 4 -70 8 -33 5 -80 11 -105 13 -54
6 -546 15 -551 10z"/>
</g>
</svg>
