<svg version="1.1" viewBox="0 0 512 512" xmlns="http://www.w3.org/2000/svg">
<g fill="#111" transform="translate(0 0) scale(1)" opacity="1">
 <path id="fg" d="m357 280h93.8c2.15 0 4.49-1.26 4.49-1.26 0.976-0.869 1.77-2.46 1.77-3.99 0-5.07-4.23-5.3-6.35-5.4 0 0-65.9-5.44-68.1-5.63 0 0-9.13-1.39-15.2-7.18-2.64-2.48-6.14-5.19-8.76-14.1 0 0 87.9 5.14 97.7 6.03 16.5 1.57 24.3 17.7 25 23.1 0 0 0.703 4.86-0.158 10.8 0 0-3.42 22.7-27.6 24.2h-96.5zm-267 26.3h126c21.9-4.36 24.3-24 24.3-24 1.03-5.86 0.43-10.6 0.43-10.6-0.666-3.95-8.27-21.4-24.7-23-9.82-0.905-97.3-7.78-97.3-7.78 1.69 8.68 5.64 13 8.25 15.6 6.07 5.77 15.7 7.41 15.7 7.41 2.34 0.219 67.5 5.55 67.5 5.55 2.07 0.104 6 0.627 5.96 5.72 0 0.617-0.569 5.1-5.56 5.1h-94.4v-39.6l-26.3-1.9v67.5zm267-63.9-26.5-1.57v30.8s-0.0753 8.86-8.73 8.86h-45.6s-7.71-0.626-7.71-8.78v-35l-26.8-1.91v47.1c4.32 22.6 25 24.3 25 24.3s2.1 0.141 2.44 0.174h61.5s26.3-2.1 26.3-27.1v-37zm-26.9-36.1h26.9v26.5h-26.9zm-88.5 0h26.9v26.5h-26.9zm240 26.5v-26.7h-96.5c-12.2 0.767-17.6 6.55-21.7 10.7-4.29 4.44-6.71 13.7-6.71 13.7v2.14zm-434-0.0206s11-17.8 13.7-21.4c2.6-3.57 6.03-5.08 9.65-5.08h47.9v24.3s2.43-9.34 6.72-13.7c4.03-4.17 9.39-9.96 21.7-10.7h90.2v26.7zm-15.7 73.4 44.6-68.7-30-3.17-46.4 71.8zm465-80.8h1.57v-5.26h3.58c0.614 0 1.07 0.0448 1.4 0.209 0.522 0.302 0.8 0.813 0.823 1.64l0.141 2.05c0 0.466 0.0132 0.791 0.0132 0.952 0.0726 0.162 0.133 0.301 0.148 0.404h1.99v-0.289c-0.261-0.0874-0.375-0.345-0.522-0.743-0.0726-0.215-0.0726-0.565-0.0845-1.03l-0.0621-1.65c0-0.708-0.16-1.25-0.355-1.55-0.248-0.314-0.652-0.59-1.1-0.776 0.53-0.258 0.934-0.673 1.27-1.13 0.275-0.487 0.431-1.05 0.431-1.78 0-1.4-0.543-2.38-1.65-2.91-0.576-0.277-1.35-0.405-2.22-0.405h-5.39zm1.57-6.66v-4.19h3.82c0.556 0 1.01 0.0926 1.33 0.255 0.541 0.313 0.893 0.905 0.893 1.77 0 0.836-0.232 1.39-0.673 1.72-0.415 0.301-0.998 0.442-1.72 0.442zm-7.78 0c0-5.72 4.67-10.4 10.4-10.4 2.76 0 5.34 1.11 7.3 3.05 1.97 1.99 3.01 4.61 3.01 7.36 0 2.76-1.05 5.4-3.01 7.33-1.95 1.97-4.54 3.08-7.3 3.08-5.76 9.1e-4 -10.4-4.66-10.4-10.4zm-0.879 0c0 6.22 5.08 11.3 11.3 11.3 3.01 0 5.8-1.17 7.95-3.3 2.14-2.15 3.29-4.97 3.29-7.99 0-3.02-1.15-5.85-3.29-7.99-2.17-2.13-4.94-3.3-7.95-3.3-6.23 0-11.3 5.07-11.3 11.3z"/>
 <text x="0" y="332" font-family="'Liberation Sans'" font-size="24px" font-weight="bold">Inspiring Innovation • Persistent Perfection</text>
</g>
</svg>
