<svg version="1.1" viewBox="0 0 512 512" xmlns="http://www.w3.org/2000/svg">
<g fill="#007db8" transform="translate(0 0) scale(1)" opacity="1">
 <path d="m135 254c0-14.9-9.9-23.4-23.9-23.4h-8.57v46.7h8.33c13 0 24.2-7.08 24.2-23.4m153 16.8-63.2 49.8-57.7-45.5c-8.33 20.1-28.5 33.8-51.7 33.8h-49.5v-110h49.5c25.9 0 44.7 16.5 51.7 34l57.7-45.4 21.5 16.8-52.9 41.6 10.2 7.95 52.9-41.6 21.5 16.8-52.9 41.6 10.2 7.97 52.9-41.8v-38.1h38.5v78h38.3v32.3h-76.8zm125 6.08h38.3v32.3h-76.8v-110h38.5zm-157-249c-63.1 0-120 25.6-162 67-41.4 41.2-66.8 98.4-66.8 162 0 63.1 25.6 120 66.8 161 41.4 41.2 98.4 66.8 162 66.8s120-25.6 162-66.8c41.4-41.2 66.8-98.3 66.8-161 0-63.1-25.4-120-66.8-162-41.2-41.4-98.4-67-162-67m0-27.7c141 0 256 115 256 256s-115 256-256 256-256-115-256-256 115-256 256-256"/>
</g>
</svg>
