<svg version="1.1" viewBox="0 0 512 512" xmlns="http://www.w3.org/2000/svg">
<g fill="#e60012" transform="translate(0 0) scale(1)" opacity="1">
 <path id="fg" d="m240 136c-10.3 0-19.3 5.39-25.2 12.8l-0.0256 16.2c7.83-21.7 25.2-20 25.2-20 12.5 0 22.5 9.83 22.5 22 0 12.1-10.1 22-22.5 22-6.19 0-11.9-2.44-15.9-6.41l-11-12c-4.67-4.57-11.1-7.34-18.3-7.34-14.2 0-25.8 11.2-25.8 25.1 0 13.9 11.6 25.1 25.8 25.1 8 0 15.2-3.55 20-9.13l-0.0256-13c-7.71 14.7-20 13.1-20 13.1-9.13 0-16.5-7.18-16.5-16.1 0-8.85 7.39-16 16.5-16 4.52 0 8.65 1.77 11.7 4.69l11 12c5.75 5.63 13.7 9.08 22.5 9.08 17.6 0 31.9-13.9 31.9-30.9 0-17.1-14.2-30.9-31.9-30.9zm142 82.7c-40.9 0-40.4 30.9-40.4 30.9s-2.73 17.1 21.2 29.9l22.9 12.1c10.2 5.51 9.02 13.1 9.02 13.1s-0.179 17.6-26.3 18.8c0 0-20.5-1.47-27.6-11.6h-0.229l6.52 20.3c7.63 2.85 21.2 2.44 21.2 2.44 46.4 0 45.4-31.4 45.4-31.4s2.63-16.8-19.4-28.7l-23-12.1c-11.5-5.97-9.96-14.7-9.96-14.7s-1.08-17.4 21.8-17.4c0 0 14-1.19 20.1 8.72h0.235v-16.9c-2.93-2.87-21.3-3.33-21.3-3.33zm-118 2.25-6.11 20h0.218c4.96-8.63 12.6-8.73 12.6-8.73h19.8l0.0171 89.2c0 4.83-3.7 10-8.58 10.3v0.206h36.7v-0.206c-4.93-0.288-8.63-5.49-8.63-10.3l0.0256-89.2 16.6-0.0391c5.03 0 9.02 3.91 9.18 8.79h0.201l6.09-20h-78.1zm-191 2e-3 -72.7 0.0312v0.215c4.9 0.266 8.56 5.44 8.56 10.3v89.9c0 4.83-3.67 10-8.56 10.3v0.212h36.7v-0.212c-4.9-0.275-8.6-5.48-8.6-10.3l0.0176-43.7h25.9c4.91 0 9.5 3.58 9.76 8.34h0.235v-19.6h-35.8l-0.0176-34.3h34.6c4.93 0 9.52 3.58 9.79 8.31h0.227l-0.0341-19.6zm2.35 0v0.244c4.88 0.266 8.58 5.44 8.58 10.3l-0.0461 68.4c0 22 18.4 34.8 41.1 34.8s40.9-12.8 40.9-34.8v-68.4c0-4.84 3.72-10 8.62-10.3v-0.244l-36.7 0.0333v0.212c4.91 0.266 8.6 5.44 8.6 10.3v70.5c0 11.5-9.66 21.7-21.5 21.7-11.9 0-21.5-9.96-21.5-21.5l-0.0171-70.5c0-4.81 3.68-10 8.58-10.3v-0.244h-36.7zm338 0v0.244c4.9 0.266 8.6 5.44 8.6 10.3l-0.0256 68.4c0 22 18.4 34.8 41.1 34.8s40.9-12.8 40.9-34.8v-68.4c0-4.84 3.7-10 8.56-10.3v-0.244l-36.7 0.0333v0.212c4.88 0.266 8.58 5.44 8.58 10.3v70.5c0 11.5-9.66 21.7-21.5 21.7-11.9 0-21.5-9.96-21.5-21.5l-0.0273-70.5c0-4.81 3.68-10 8.6-10.3v-0.244h-36.7zm-234 0.0312v0.215c4.91 0.266 8.56 5.44 8.56 10.3l0.029 113s-0.411 19.8-16.4 31.4l0.0392 0.218c3.16-0.515 36-6.57 36-38.2l-0.0256-106c0-4.84 3.68-10 8.58-10.3v-0.215h-36.7zm42.5 2e-3v0.208c4.9 0.249 8.58 5.22 8.58 10v90.1c0 4.83-3.68 10-8.58 10.3v0.205h36.7v-0.205c-4.86-0.288-8.56-5.49-8.56-10.3v-90.1c0-4.83 3.7-9.79 8.56-10v-0.208z"/>
</g>
</svg>
