<svg version="1.1" viewBox="0 0 512 512" xmlns="http://www.w3.org/2000/svg">
<g fill="#005daa" transform="translate(0 0) scale(1)" opacity="1">
 <path d="m140 238c-11.5 0.956-17.9 8.51-17.9 18.3 0 9.52 8.8 17.6 17.3 17.6l1.86-0.0195h3.15s2.07 0 2.09-2.04v-20.4h17.7c0 11.5-0.03 37.4-0.03 37.4s-17.6-0.015-27.8-0.015c-19.2 0-32.9-15.8-32.9-32.4 0-18 14.8-33 33.3-32.3l26.6 0.0832-0.01 13.9h-23.7m-103 0c-11.5 0.958-17.9 8.53-17.9 18.3 0 9.52 8.81 17.6 17.3 17.6l1.88-0.0195h3.15s2.09 0 2.1-2.04v-20.4h17.7c0 11.5-0.0425 37.4-0.0425 37.4s-17.6-0.015-27.8-0.015c-19.2 0-32.9-15.8-32.9-32.4 0-18 14.9-33 33.3-32.3l26.6 0.0832-0.0135 13.9h-23.7m396-14.2h45.8v12.3h-28.5v13.4h26.9v12.3h-26.9v14.7h29.6v12.3h-46.8v-65m-41.6 12.8h-16.1v-12.8h49.4v12.8h-16.1v52.1h-17.3v-52.1m-64.2 27.6-24-40.5h20l12.8 26.1 12.6-26.1h20l-23.9 40.5v24.5h-17.3v-24.5m-76.1-40.5h29.9c12.1 0 21.2 5.3 21.2 16.5 0 8.21-4.19 12.8-11.4 15.2v0.182c8.65 1.79 13.1 6.42 13.1 14.4 0 15.6-13.7 18.8-25.4 18.8h-27.3v-65m17.3 52.7h5.13c6.32 0 12.9-0.941 12.9-7.55 0-7.08-6.8-7.73-12.7-7.73h-5.33v15.3m0-27h4.85c5.67 0 11.5-1.4 11.5-6.89 0-5.96-5.57-6.5-11.3-6.5h-5.04v13.4m-72.1-25.7h21.2l25.1 65h-18.9l-4.85-13.9h-24.3l-5.13 13.9h-17.6l24.6-65m10.6 13.4h-0.182l-8.38 25.4h16.4l-7.73-25.4m-130-13.4h17.3v64.7h-17.3zm434 12.3v-10.5h-0.028l-4.01 10.5h-1.73l-4.01-10.5h-0.036v10.5h-1.76v-12.1h2.88l3.81 10 3.74-10h2.87v12.1zm-17.1 0h-1.74v-10.6h-3.78v-1.53h9.29v1.53h-3.77z"/>
</g>
</svg>
