<svg version="1.1" viewBox="0 0 512 512" xmlns="http://www.w3.org/2000/svg">
<g fill="#015294" transform="translate(0 0) scale(1)" opacity="1">
 <path id="fg" d="m256 2.01-55.2 154 37.4 0.01c27 0.01 38.4 21.3 30.1 45.1l-54.9 154h-55.2l60.3-169h-28.4l-60.3 169h-55.7l124-346c-114 25.9-198 128-198 249 0 120 82.4 220 193 247l125-352h90.6c18.8 0 42.4 12.6 32.1 41.3l-50.9 143c-6.49 18.3-21.9 22-34.2 22h-55.7l-54 151c3.18 0.12 6.37 0.2 9.57 0.2 142 0 256-115 256-256 0-141-114-256-256-256zm107 184-52.5 147h28l52.6-147z"/>
</g> 
</svg>
