<?xml version="1.0" encoding="UTF-8"?>
<svg version="1.1" viewBox="0 0 512 512" xmlns="http://www.w3.org/2000/svg">
 <g fill="#0071c5" transform="translate(0 0) scale(1)" opacity="1">
  <path d="m319 151c-48.9-3.34-107 9.45-153 37.3v6.16c91.5-47 221-46.8 233 20.7 3.96 22.3-8.61 45.6-31.1 58.9v17.5c27-9.88 54.7-41.9 46.7-81.2-7.51-36.6-46.8-56.1-95.7-59.4zm21.2 48.8v73.8c0 8.67 4.2 16.2 16.6 17.4v-91.2zm34.4 0c-3.67 0-6.6 2.97-6.6 6.6 0 3.63 2.93 6.59 6.6 6.59 3.63 0 6.61-2.96 6.61-6.59 0-3.63-2.98-6.6-6.61-6.6zm0 1.1c3.01 0 5.47 2.49 5.47 5.5 0 3.01-2.47 5.46-5.47 5.46-3.02 0-5.46-2.45-5.46-5.46 0-3 2.44-5.5 5.46-5.5zm-232 1.14v15.7h16.6v-15.7zm231 0.144c-0.574 0-1.64 0.0356-2.03 0.0871-0.348 0.0534-0.509 0.226-0.509 0.637v7.12c0 0.15 0.139 0.313 0.277 0.313h1.11c0.198 0 0.3-0.162 0.3-0.313v-2.82h0.752c0.0574 0 0.202 0.0695 0.232 0.127l1.67 2.84c0.0475 0.093 0.144 0.162 0.255 0.162h1.23c0.196 0 0.266-0.129 0.266-0.244 0-0.0692-0.0406-0.15-0.0516-0.21l-1.74-2.94c0.915-0.307 1.5-0.932 1.5-2.12v-0.133c0-1.92-1.23-2.52-3.27-2.52zm-0.902 1.46h1.04c1.07 0 1.54 0.255 1.54 1.06v0.133c0 0.752-0.469 1.11-1.54 1.11-0.133 0-0.885-0.028-1.04-0.028zm-134 5.41v64c0 9.21 5.69 18.5 19.1 18.5h9.72v-13.7h-6.68c-3.92 0-5.7-2.09-5.7-5.87v-32h12.4v-13.3h-12.4v-17.7zm-108 2c-26.5 23.2-40.9 52.7-32.6 87.4 10.6 44.6 67.1 69.8 153 61.5 34.2-3.33 78.9-14.3 110-31.4v-24.2c-28.2 16.8-74.9 30.7-114 34.3-63.2 5.85-129-3.33-138-52.8-4.51-24.4 6.58-50.2 21.3-66.2zm172 14.6c-17.3 0-30.4 12.1-30.4 33.5 0 25 15.1 33.6 30.8 33.6 12 0 18.9-3.9 25.4-10.3l-10.2-9.7c-4.2 4.18-7.81 6.19-15.1 6.19-9.34 0-14.6-6.19-14.6-14.6h41.7v-5.93c0-18.6-10.1-32.7-27.6-32.7zm-160 1.1-0.018 48.2c0 8.68 4.22 16.2 16.6 17.4v-65.6zm31.2 0v65h16.4v-51.7h13.6c4.83 0 6.84 2.38 6.84 6.25v45.4h16.4v-45.5c0-9.24-4.91-19.4-19.3-19.4zm128 12.5c8.42 0 11.6 6.81 11.9 13.9h-25.3c0.127-2.88 0.497-4.69 1.57-7.05 1.82-3.92 6.17-6.81 11.8-6.81z"/>
 </g>
</svg>
