<svg version="1.1" viewBox="0 0 512 512" xmlns="http://www.w3.org/2000/svg">
<g fill="#015294" transform="translate(0 0) scale(1)" opacity="1">
 <path id="fg" d="m23.5 214-23.5 82h33c7.84-27.4 15.7-54.6 23.5-82zm77.3 24.8c-47.5 0.654-53.6 30.7-54.4 37-1.93 19.3 22.8 22.1 36 22.3 0 0 28.1-0.971 36.3-5.55l6.12-15.1h-0.353c-3.4 1.83-24.8 12.9-42.2 8.84 0 0-5.1-0.858-5.1-5.5l0.297-1.64 58.2-13.7s12.4-27.1-35.1-26.5zm24.1 38.5 0.11-0.275s-0.159 0.0899-0.463 0.26zm170-38.3c-2.64-0.0903-5.48-0.0861-8.52 0.0273-48.7 1.8-52.1 31.6-52.1 31.6s-1.15 2.81-1.13 6.61v6e-3c0.0601 8.41 5.8 21.6 42 20.3 28.9-0.99 42.6-11.3 49.1-20.3 5.31-7.45 5.76-14.1 5.76-14.1s4.44-22.8-35.2-24.2zm182 0c-2.64-0.0903-5.48-0.0861-8.52 0.0273-48.7 1.8-52.1 31.6-52.1 31.6s-1.15 2.81-1.13 6.61v6e-3c0.0499 8.41 5.78 21.6 42 20.3 28.9-0.99 42.6-11.3 49.1-20.3 5.31-7.45 5.76-14.1 5.76-14.1s4.45-22.8-35.2-24.2zm-276 0.187c-4.45-0.228-9.4-0.265-14.7 0.0371-21.4 1.21-36.6 4.04-36.6 4.04l-15.6 52.7h33.9l14-46.6s20.1-2.88 17.4 7.47l-11.4 39.2h33.3l11.8-39.5s4.04-11.4-10.2-14.2c0 0-8.67-2.38-22-3.07zm132 1.65 4.41 36.5 2.26 18.7h49.6l37.6-55.1h-31.9l-26.6 38.4-0.238-1.92-4.47-36.5zm-235 6.14c13.9-0.2 11 11.8 11 11.8l-30.7 15.5 3.63-14.6s2.07-12.4 16.1-12.6zm189 2.19c11.6 0.2 10.2 9.14 9.35 13.9 0 0-0.576 7.48-4.03 14.1v0.0102c-2.78 5.3-7.41 10-15.1 9.85 0 0-8.73 0.686-8.73-9.83 0-1.94 0.297-4.26 0.995-7.04l3.29-9.7s2.62-11.6 14.2-11.4zm182 0c11.6 0.2 10.2 9.14 9.35 13.9 0 0-0.572 7.48-4.03 14.1v0.0102c-2.78 5.3-7.41 10-15.1 9.85 0 0-8.73 0.686-8.73-9.83 0-1.94 0.292-4.26 0.992-7.04l3.29-9.7s2.62-11.6 14.2-11.4z" fill="#003d7b" stroke-width="1.28"/>
</g>
</svg>
