<svg version="1.1" viewBox="0 0 512 512" xmlns="http://www.w3.org/2000/svg">
<g fill="#a50034" transform="translate(0 0) scale(1)" opacity="1">
 <path d="m256 1.2e-7c-65.6-2e-3 -131 25-181 75.1-100 100-100 262 0.015 362 100 100 262 100 362 0.012 100-100 100-262-0.015-362-50.1-50.1-116-75.1-181-75.1zm1.14 45.8c3.09 0 6.15 0.0618 9.21 0.188v19.1c-3.06-0.136-6.12-0.204-9.18-0.204-106 0-193 85.6-193 191 0 106 86.1 191 193 191 103 0 188-81.1 191-182l0.017-0.537h-130v-19.3h150c0.204 3.74 0.306 7.48 0.306 11.3 0 116-94.8 211-211 211-117 0-211-94.2-211-211 0-116 94.7-211 211-211zm-77.6 101c1.45 0.068 2.89 0.243 4.33 0.525 5.73 1.13 11 3.93 15.1 8.05 4.15 4.12 6.97 9.38 8.13 15.1 1.16 5.73 0.596 11.7-1.63 17-2.22 5.41-5.99 10-10.8 13.3-4.84 3.27-10.6 5.04-16.4 5.05-3.89 9e-3 -7.75-0.748-11.4-2.23-3.6-1.48-6.87-3.66-9.63-6.41-2.76-2.74-4.94-6-6.45-9.6-1.5-3.59-2.28-7.45-2.29-11.3 0-5.85 1.73-11.5 4.98-16.4 3.24-4.87 7.85-8.65 13.3-10.9 4.04-1.69 8.4-2.43 12.7-2.23zm67.5 0.877h19.3v197h52.3l0.042 19.3h-52.3v0.129h-19.4z"/>
</g>
</svg>
