<svg version="1.0" viewBox="0 0 512 512" xmlns="http://www.w3.org/2000/svg">
<g fill="#015294" transform="translate(0 0) scale(1)" opacity="1">
 <path d="m376.79 192.01c-4.8459-0.0329-9.5202 0.0569-13.797 0.28034-19.027 1.0125-31.452 4.4676-45.798 12.865-19.988 11.674-25.089 31.566-11.284 44.013 2.9411 2.561 6.6631 4.7648 17.527 10.244 16.326 8.1596 20.348 10.542 23.769 14.235 2.4609 2.6802 2.5207 2.7996 2.2806 6.2537-0.30015 4.4669-2.5809 7.7415-6.7826 10.124-4.8618 2.6802-9.3041 3.5736-19.808 3.9309-13.325 0.47653-25.029-0.47637-46.517-3.5735-0.60012-0.0599-1.7402 2.1448-3.6609 7.3263-1.5606 4.1096-2.8823 7.7421-2.8823 8.0994-0.11999 1.2508 17.947 3.9312 33.853 5.0628 12.605 0.89329 35.954 0.35791 44.597-0.9523 21.908-3.3948 42.676-15.248 48.738-27.934 5.282-11.078 3.2417-21.203-5.7617-28.529-2.2208-1.7868-8.8846-5.5388-17.648-9.9464-15.246-7.6831-21.668-11.674-23.828-14.831-1.7406-2.561-1.8004-6.4324-0.17968-9.5294 4.1415-8.1 15.546-10.899 39.435-9.5884 10.204 0.53598 23.89 1.965 31.392 3.2753l2.1008 0.41692 2.6401-7.3841c1.4405-4.05 2.7608-7.6247 2.8808-8.0416 0.36014-0.89344-0.47923-1.131-9.1222-2.5603-11.524-1.9654-27.607-3.1612-42.145-3.259zm-317.39 0.16168-21.607 59.321c-11.884 32.698-21.728 59.618-21.788 59.916-0.12004 0.35725 8.7633 0.59482 23.469 0.59482h23.648l11.584-31.626c13.685-37.224 14.585-39.011 25.629-49.374 7.8029-7.3257 16.387-10.84 26.591-10.959 5.9422-0.0599 9.064 1.1328 10.925 4.0511 0.96027 1.5485 1.0795 2.5608 0.83944 6.0148-0.24005 3.5735-2.2203 9.5884-14.045 41.691-7.5628 20.607-13.925 38.119-14.165 38.834l-0.42048 1.3691h23.409c22.148 0 23.468-0.0599 24.008-1.0724 0.36011-0.59543 5.4632-14.412 11.466-30.731 5.9422-16.26 11.584-31.15 12.544-32.996 3.9615-7.8022 15.066-19.475 21.668-22.751 8.6432-4.2882 20.528-5.7772 25.57-3.1566 3.3612 1.7868 4.6813 4.6443 4.2611 9.0518-0.18015 2.3228-4.6215 15.129-14.465 41.931-7.8029 21.203-14.165 38.653-14.165 38.832 0 0.17866 10.624 0.29802 23.589 0.29802h23.589l16.025-43.181c13.685-36.867 16.086-43.835 16.386-47.527 1.1404-13.46-6.4224-23.049-21.368-27.039-6.0623-1.6081-22.809-1.4293-31.152 0.35748-12.485 2.6206-25.389 7.6223-37.513 14.531l-4.7425 2.6807-1.6804-3.4548c-3.7214-7.8022-12.485-13.28-23.769-14.889-18.967-2.6802-43.217 3.3948-65.965 16.617l-3.0606 1.7267-1.56-3.4548c-2.9411-6.2537-10.805-12.03-19.148-13.996-2.1008-0.47647-6.1823-1.0123-9.1834-1.2505l-5.4021-0.35751zm436.6 0.11832-4.6222 0.0599c-2.5209 0.0599-7.7417 0.35806-11.523 0.59633-8.6432 0.59558-20.888 2.0837-27.791 3.394l-5.3427 1.0131-3.0012 8.2787c-1.6206 4.5265-2.8196 8.3376-2.6996 8.4568 0.12 0.1198 3.3599-0.29727 7.2015-0.9523 9.1234-1.5485 21.969-2.8582 32.893-3.3346l8.8239-0.41827 0.60012-1.8453c0.30013-1.0125 1.6801-4.8843 3.0606-8.5771l2.4011-6.6706zm-14.863 29.303c-2.3934-0.0299-5.4839 0.0599-8.1846 0.29817-13.145 1.0125-19.387 1.667-27.25 2.9178-5.1019 0.77425-9.3635 1.5497-9.4836 1.6688-0.36013 0.35731-30.792 83.799-30.792 84.454 0 0.23827 10.624 0.47758 23.589 0.47758h23.528l16.207-44.432c8.9433-24.479 16.326-44.729 16.386-44.968 0.09-0.23826-1.6062-0.38712-3.9996-0.41677z"/>
</g>
</svg>
