<svg version="1.1" viewBox="0 0 512 512" xmlns="http://www.w3.org/2000/svg">
<g fill="#111" transform="translate(0 0) scale(1)" opacity="1">
<path id="fg" d="m143.51 241.14 20.815 50.838h8.6499l-25.14-61.408-4.325-10.569-4.325 10.569-25.14 61.408h8.6499zm-76.438 1.1643m408.4 0m-153.15 41.753v7.9213h46.418l4.6256-7.9213zm0-32.028v7.9214h46.418l4.6256-7.9214zm0-32.028v7.9213h46.418l4.6256-7.9213zm-102.11 0v7.9213h37.491l-32.842 56.134-4.6487 7.9213h46.719l4.6256-7.9213h-37.444l32.842-56.134 4.6256-7.9213h-9.2512zm268.75 0.0259h1.9659l1.5265 5.4559 1.5727-5.4559h1.989v6.9626h-1.1333v-5.7299h-0.11565l-1.6652 5.456h-1.1795l-1.7809-5.456v5.7299h-1.1333zm-7.0772-0.0259h5.1113v1.0045h-1.9659v5.981h-1.1564v-5.981h-1.989zm-338.36 21.139 20.815 50.838h8.6499l-25.14-61.408-4.325-10.569-4.325 10.569-25.14 61.408h8.6499zm-76.438 1.1643v-4.5656a17.971 17.737 0 0 0-17.971-17.738h-33.096v72h8.0254v-31.959h15.103l18.734 31.959h9.2512l-18.734-31.959h0.7632a17.971 17.737 0 0 0 17.924-17.738zm-43.041-14.382h25.071a9.9682 9.8389 0 0 1 9.9451 9.8161v4.5656a9.9682 9.8389 0 0 1-9.9451 9.8161h-25.071zm451.44 14.382v-4.5656a17.971 17.737 0 0 0-17.971-17.738h-33.096v72h8.0254v-31.959h15.033l18.734 31.959h9.2512l-18.734-31.959h0.76321a17.971 17.737 0 0 0 17.994-17.738zm-43.041-14.382h25.071a9.9682 9.8389 0 0 1 9.9451 9.8161v4.5656a9.9682 9.8389 0 0 1-9.9451 9.8161h-25.071zm-110.11 56.134v7.9213h46.418l4.6256-7.9213zm0-32.028v7.9214h46.418l4.6256-7.9214zm0-32.028v7.9213h46.418l4.6256-7.9213z"/>
</g>
</svg>
