<svg version="1.1" viewBox="0 0 512 512" xmlns="http://www.w3.org/2000/svg">
<g fill="#ff6700" transform="translate(0 0) scale(1)" opacity="1">
 <path d="m19.4 0h473c10.8 0 19.4 8.67 19.4 19.4v473c0 10.8-8.67 19.4-19.4 19.4h-473c-10.8 0-19.4-8.67-19.4-19.4v-473c0-10.8 8.67-19.4 19.4-19.4z"/>
 <path fill="#fff" d="m236 234h-42.3c-1.74 0-3.1 1.35-3.1 3.1v111c0 1.64 1.45 3 3.1 3h42.3c1.74 0 3.1-1.35 3.1-3v-111c0-1.64-1.35-3.1-3.1-3.1m28.3-73.2h-153c-1.74 0-3.1 1.35-3.1 3.1v184c0 1.64 1.35 3 3.1 3h40.3c1.74 0 3.1-1.35 3.1-3v-144c0-1.64 1.35-3 3.1-3h86.8c24.4 0 31.3 18.7 31.3 30.8v117c0 1.64 1.35 3 3.1 3h40.3c1.74 0 3.1-1.35 3.1-3v-130c0-10.7-1.26-26.2-15.2-39.9-14.5-14.2-27.8-16.6-42.6-16.6m137 0h-40.3c-1.74 0-3.1 1.35-3.1 3.1v184c0 1.64 1.35 3 3.1 3h40.3c1.74 0 3.1-1.35 3.1-3v-184c0-1.64-1.45-3.1-3.1-3.1"/>
</g>
</svg>
