<svg version="1.1" viewBox="0 0 256 256" xmlns="http://www.w3.org/2000/svg">
 <defs>
  <linearGradient id="linearGradient15" x2="256" y2="256" gradientUnits="userSpaceOnUse">
   <stop stop-color="#fafafa" offset="0"/>
   <stop stop-color="#c8ccd0" offset="1"/>
  </linearGradient>
 </defs>
 <rect width="256" height="256" ry="32" fill="url(#linearGradient15)"/>
 <path d="m128 11c-27 0-48 22-48 49v61c0 27 22 49 48 49s48-22 48-49v-61c0-27-22-49-48-49zm-67 101c-4.4 0-8 3.6-8 8.1 0 39 29 71 67 75v34h-19c-4.4 0-8 3.6-8 8.1s3.6 8.1 8 8.1h54c4.4 0 8-3.6 8-8.1s-3.6-8.1-8-8.1h-19v-34c38-4 67-36 67-75 0-4.5-3.6-8.1-8-8.1s-8 3.6-8 8.1c0 33-26 59-59 59s-59-27-59-59c0-4.5-3.6-8.1-8-8.1z" fill="#c83737"/>
</svg>
