<?xml version="1.0" encoding="UTF-8" standalone="no"?>
<!-- Created with Inkscape (http://www.inkscape.org/) -->

<svg
   width="256"
   height="256"
   viewBox="0 0 64 64"
   version="1.1"
   id="svg1"
   inkscape:version="1.3.2 (1:1.3.2+202404261509+091e20ef0f)"
   sodipodi:docname="icon.svg"
   xmlns:inkscape="http://www.inkscape.org/namespaces/inkscape"
   xmlns:sodipodi="http://sodipodi.sourceforge.net/DTD/sodipodi-0.dtd"
   xmlns="http://www.w3.org/2000/svg"
   xmlns:svg="http://www.w3.org/2000/svg">
  <sodipodi:namedview
     id="namedview1"
     pagecolor="#ffffff"
     bordercolor="#000000"
     borderopacity="0.25"
     inkscape:showpageshadow="2"
     inkscape:pageopacity="0.0"
     inkscape:pagecheckerboard="true"
     inkscape:deskcolor="#d1d1d1"
     inkscape:document-units="px"
     inkscape:clip-to-page="false"
     showgrid="true"
     showguides="true"
     inkscape:zoom="8.2243426"
     inkscape:cx="186.03311"
     inkscape:cy="145.42196"
     inkscape:window-width="1920"
     inkscape:window-height="1014"
     inkscape:window-x="0"
     inkscape:window-y="29"
     inkscape:window-maximized="1"
     inkscape:current-layer="layer1">
    <inkscape:grid
       id="grid1"
       units="px"
       originx="0"
       originy="0"
       spacingx="1"
       spacingy="1"
       empcolor="#0099e5"
       empopacity="0.30196078"
       color="#0099e5"
       opacity="0.14901961"
       empspacing="16"
       dotted="false"
       gridanglex="30"
       gridanglez="30"
       visible="true" />
    <sodipodi:guide
       position="4,60"
       orientation="-1,0"
       id="guide1"
       inkscape:locked="false"
       inkscape:label=""
       inkscape:color="rgb(0,134,229)" />
    <sodipodi:guide
       position="4,60"
       orientation="0,-1"
       id="guide2"
       inkscape:locked="false" />
    <sodipodi:guide
       position="60,60"
       orientation="-1,0"
       id="guide3"
       inkscape:locked="false"
       inkscape:label=""
       inkscape:color="rgb(0,134,229)" />
    <sodipodi:guide
       position="4,4"
       orientation="0,-1"
       id="guide4"
       inkscape:locked="false" />
    <sodipodi:guide
       position="60,4"
       orientation="1,0"
       id="guide5"
       inkscape:locked="false" />
  </sodipodi:namedview>
  <defs
     id="defs1" />
  <g
     inkscape:label="Layer 1"
     inkscape:groupmode="layer"
     id="layer1">
    <path
       id="path1"
       style="fill:#aa0044;stroke:#000000;stroke-width:1;stroke-opacity:0.5;fill-opacity:1;stroke-dasharray:none"
       d="M 60,32 A 28,28 0 0 1 32,60 28,28 0 0 1 4,32 28,28 0 0 1 32,4 28,28 0 0 1 60,32 Z" />
    <g
       id="g18"
       transform="matrix(0.06916033,0,0,0.06916033,14.294852,14.294956)"
       style="fill:#ffffff">
	<g
   id="g17"
   style="fill:#ffffff">
		<path
   id="path16"
   d="M 256.001,0 C 128.437,0 24.655,103.782 24.655,231.346 c 0,64.519 27.02,126.113 74.303,169.847 L 78.095,501.299 c -0.546,2.619 0.117,5.344 1.804,7.42 1.689,2.075 4.221,3.281 6.895,3.281 h 258.084 c 4.909,0 8.887,-3.979 8.887,-8.887 0,-4.908 -3.978,-8.887 -8.887,-8.887 H 97.724 l 18.245,-87.549 h 280.068 l 18.244,87.548 h -39.778 c -4.909,0 -8.887,3.979 -8.887,8.887 0,4.908 3.978,8.887 8.887,8.887 h 50.709 c 2.676,0 5.208,-1.205 6.896,-3.281 1.687,-2.075 2.35,-4.8 1.804,-7.42 L 413.044,401.161 c 14.9,-13.78 27.941,-29.406 38.763,-46.561 2.619,-4.151 1.376,-9.64 -2.775,-12.259 -4.155,-2.619 -9.641,-1.377 -12.26,2.775 -10.199,16.169 -22.536,30.868 -36.655,43.784 H 287.994 v -92.45 c 24.006,-11.845 40.563,-36.572 40.563,-65.102 0,-9.454 -1.793,-18.651 -5.329,-27.338 -1.851,-4.547 -7.035,-6.732 -11.581,-4.882 -4.547,1.851 -6.732,7.036 -4.881,11.582 2.665,6.549 4.017,13.493 4.017,20.638 0,30.208 -24.576,54.783 -54.782,54.783 -30.208,0 -54.783,-24.576 -54.783,-54.783 0,-30.208 24.576,-54.783 54.783,-54.783 12.722,0 24.655,4.23 34.508,12.233 3.812,3.096 9.408,2.513 12.503,-1.295 3.094,-3.81 2.513,-9.408 -1.296,-12.502 -12.87,-10.453 -29.107,-16.211 -45.715,-16.211 -40.009,0 -72.558,32.549 -72.558,72.558 0,40.009 32.551,72.558 72.558,72.558 4.866,0 9.619,-0.489 14.219,-1.408 v 86.405 h -28.437 v -69.778 c 0,-4.908 -3.978,-8.887 -8.887,-8.887 -4.909,0 -8.887,3.979 -8.887,8.887 v 69.778 H 111.859 C 67.697,348.483 42.43,291.283 42.43,231.348 c 0,-117.765 95.808,-213.573 213.573,-213.573 117.763,0 213.57,95.808 213.57,213.571 0,31.159 -6.557,61.191 -19.488,89.256 -2.054,4.458 -0.105,9.737 4.352,11.791 4.46,2.055 9.738,0.104 11.791,-4.352 14.015,-30.415 21.12,-62.949 21.12,-96.695 C 487.346,103.782 383.565,0 256.001,0 Z"
   style="fill:#ffffff"
   sodipodi:nodetypes="sscccssssccccsssssccccscccscccsssscccssscccsssccsssscccs" />

	</g>

</g>
  </g>
</svg>
