<svg version="1.1" viewBox="0 0 32 32" xmlns="http://www.w3.org/2000/svg">
 <path fill="#111" d="m7.06 16.8c-0.141-1.23-0.0236-2.41 0.297-3.5 1.07-3.63 4.41-6.31 8.37-6.35v-2.38c0-0.132 0.165-0.203 0.273-0.123l4.89 3.59c0.0801 0.0613 0.0801 0.184 0 0.24l-4.88 3.59c-0.113 0.0801-0.273 0.0094-0.273-0.123v-2.37c-2.61 0.0424-4.83 1.65-5.79 3.92-0.363 0.858-0.547 1.8-0.495 2.8 0.0707 1.37 0.584 2.62 1.39 3.64 0.434 0.542 0.33 1.33-0.231 1.74-0.533 0.391-1.28 0.283-1.69-0.236-1-1.25-1.67-2.78-1.87-4.45zm14.1-4.56c0.815 1.01 1.33 2.28 1.39 3.64 0.0518 0.999-0.137 1.95-0.495 2.8-0.957 2.27-3.18 3.88-5.79 3.92v-2.37c0-0.132-0.165-0.203-0.273-0.123l-4.89 3.59c-0.0801 0.0613-0.0801 0.184 0 0.24l4.88 3.59c0.113 0.0801 0.273 0.0094 0.273-0.123v-2.38c3.96-0.0424 7.31-2.71 8.37-6.35 0.32-1.09 0.434-2.28 0.297-3.5-0.189-1.67-0.858-3.2-1.86-4.45-0.415-0.518-1.15-0.627-1.69-0.236-0.556 0.41-0.66 1.2-0.226 1.74z"/>
</svg>
