<svg version="1.0" viewBox="0 0 32 32" xmlns="http://www.w3.org/2000/svg">
 <path fill="#111" d="m16 7c-4.96 0-9 4.04-9 9s4.04 9 9 9 9-4.04 9-9-4.04-9-9-9zm0 1.71c4.04 0 7.29 3.26 7.29 7.29s-3.26 7.29-7.29 7.29-7.29-3.26-7.29-7.29 3.26-7.29 7.29-7.29zm-0.172 1.76c-0.778 0-1.56 0.519-1.56 1.56 0 2.08 3.12 2.08 3.12 0 0-1.04-0.778-1.56-1.56-1.56zm1.65 4.15-4.25 0.154v0.701c0.617-0.0198 1.49-0.126 1.49 0.549v4.27c-0.0342 0.338-0.144 0.515-0.6 0.529l-0.762 0.0137v0.711h5.42v-0.711l-0.691-0.0137c-0.432-0.045-0.609-0.151-0.6-0.529l-0.00586-5.67z"/>
</svg>
