<svg version="1.1" viewBox="0 0 32 32" xmlns="http://www.w3.org/2000/svg">
 <path fill="#111" d="m15.7 6.95c-0.637 0-1.15 0.513-1.15 1.15v6.7c0 0.637 0.513 1.15 1.15 1.15 0.637 0 1.15-0.511 1.15-1.15v-6.7c0-0.637-0.513-1.15-1.15-1.15zm-3.81 1.19a1.15 1.15 0 0 0-0.574 0.156c-3.52 2.04-5.24 6.21-4.19 10.2s4.62 6.69 8.69 6.69 7.64-2.75 8.69-6.69-0.668-8.11-4.19-10.2a1.15 1.15 0 0 0-1.57 0.416 1.15 1.15 0 0 0 0.416 1.57c2.63 1.53 3.91 4.62 3.12 7.57s-3.44 4.99-6.47 4.99-5.69-2.04-6.48-4.99c-0.788-2.95 0.493-6.05 3.12-7.57a1.15 1.15 0 0 0 0.418-1.57 1.15 1.15 0 0 0-0.697-0.533 1.15 1.15 0 0 0-0.297-0.0391z"/>
</svg>
