<svg version="1.1" viewBox="0 0 32 32" xmlns="http://www.w3.org/2000/svg">
 <path fill="#111" d="m16.3 7.27c2.32 0 4.54 0.921 6.17 2.56 3.41 3.41 3.41 8.94 0 12.3-1.64 1.64-3.86 2.56-6.17 2.56v-3.28c1.45 0 2.84-0.575 3.86-1.6 2.13-2.13 2.13-5.59 0-7.72s-5.59-2.13-7.72 0c-1.02 1.02-1.6 2.41-1.6 3.86h-3.27c0-2.32 0.921-4.54 2.56-6.17 1.64-1.64 3.86-2.56 6.17-2.56zm0.476 7.55c0.011 1e-3 0.021 2e-3 0.029 5e-3 0.296 0.257-1.63 3.23-3.68 5.96-0.08 0.107-0.161 0.212-0.242 0.318-0.274 0.36-0.547 0.712-0.817 1.05-0.059 0.075-0.118 0.15-0.177 0.223-0.316 0.393-0.628 0.771-0.921 1.11-2.44 2.82-5.51 0.292-3-2.02 0.322-0.308 0.678-0.634 1.05-0.966 0.051-0.046 0.104-0.092 0.157-0.138 0.361-0.318 0.736-0.641 1.12-0.964 0.02-0.017 0.039-0.033 0.059-0.05 2.57-2.14 5.5-4.26 6.29-4.5 0.053-0.016 0.097-0.023 0.13-0.022zm-8.19 7.74c-0.359-1e-3 -0.65 0.29-0.65 0.648 0 0.359 0.291 0.649 0.65 0.648 0.358 0 0.648-0.29 0.648-0.648s-0.29-0.648-0.648-0.648z"/>
</svg>
