<svg version="1.1" viewBox="0 0 32 32" xmlns="http://www.w3.org/2000/svg">
 <path fill="#111" d="m21.6 8.69v14.6c0 0.931-0.756 1.69-1.69 1.69h-7.88c-0.932 0-1.69-0.756-1.69-1.69v-14.6c0-0.932 0.756-1.69 1.69-1.69h7.88c0.932 0 1.69 0.756 1.69 1.69zm3.38 2.04v0.422a0.211 0.211 0 0 1-0.211 0.211h-0.633v0.211a0.211 0.211 0 0 1-0.211 0.21h-1.48v-1.69h1.48a0.211 0.211 0 0 1 0.211 0.211v0.211h0.633a0.211 0.211 0 0 1 0.21 0.212zm0 3.38v0.422a0.211 0.211 0 0 1-0.211 0.211h-0.633v0.211a0.211 0.211 0 0 1-0.211 0.21h-1.48v-1.69h1.48a0.211 0.211 0 0 1 0.211 0.211v0.211h0.633a0.211 0.211 0 0 1 0.21 0.212zm0 3.38v0.422a0.211 0.211 0 0 1-0.211 0.211h-0.633v0.211a0.211 0.211 0 0 1-0.211 0.21h-1.48v-1.69h1.48a0.211 0.211 0 0 1 0.211 0.211v0.211h0.633a0.211 0.211 0 0 1 0.21 0.212zm0 3.38v0.422a0.211 0.211 0 0 1-0.211 0.211h-0.633v0.211a0.211 0.211 0 0 1-0.211 0.21h-1.48v-1.69h1.48a0.211 0.211 0 0 1 0.211 0.211v0.211h0.633a0.211 0.211 0 0 1 0.21 0.212zm-16.9-0.633h1.48v1.69h-1.48a0.211 0.211 0 0 1-0.211-0.212v-0.211h-0.633a0.211 0.211 0 0 1-0.211-0.211v-0.421a0.211 0.211 0 0 1 0.211-0.211h0.633v-0.211a0.211 0.211 0 0 1 0.211-0.211zm0-3.38h1.48v1.69h-1.48a0.211 0.211 0 0 1-0.211-0.212v-0.211h-0.633a0.211 0.211 0 0 1-0.211-0.211v-0.421a0.211 0.211 0 0 1 0.211-0.211h0.633v-0.211a0.211 0.211 0 0 1 0.211-0.211zm0-3.38h1.48v1.69h-1.48a0.211 0.211 0 0 1-0.211-0.212v-0.211h-0.633a0.211 0.211 0 0 1-0.211-0.211v-0.421a0.211 0.211 0 0 1 0.211-0.211h0.633v-0.211a0.211 0.211 0 0 1 0.211-0.211zm0-3.38h1.48v1.69h-1.48a0.211 0.211 0 0 1-0.211-0.212v-0.211h-0.633a0.211 0.211 0 0 1-0.211-0.211v-0.421a0.211 0.211 0 0 1 0.211-0.211h0.633v-0.211a0.211 0.211 0 0 1 0.211-0.211z"/>
</svg>
