<svg version="1.1" viewBox="0 0 32 32" xmlns="http://www.w3.org/2000/svg">
 <path fill="#111" d="m16 7c-2.8 0-5.07 2.27-5.07 5.07 0 2.05 1.22 3.87 3.08 4.66v7.18c0 0.229 0.142 0.434 0.357 0.514l1.44 0.539c0.062 0.023 0.128 0.035 0.193 0.035s0.131-0.012 0.193-0.035l1.44-0.539c0.214-0.08 0.357-0.285 0.357-0.514v-0.796c0-0.146-0.058-0.286-0.161-0.389l-0.742-0.742 0.742-0.742c0.103-0.103 0.161-0.243 0.161-0.389v-0.616c0-0.146-0.058-0.286-0.161-0.389l-0.742-0.742 0.742-0.742c0.103-0.103 0.161-0.243 0.161-0.389v-1.24c1.86-0.791 3.08-2.62 3.08-4.66 0-2.8-2.27-5.07-5.07-5.07zm0 4.47c-0.717 0-1.3-0.583-1.3-1.3s0.583-1.3 1.3-1.3 1.3 0.583 1.3 1.3-0.583 1.3-1.3 1.3z"/>
</svg>
