<svg version="1.1" viewBox="0 0 32 32" xmlns="http://www.w3.org/2000/svg">
 <path fill="#111" d="m17.9 14.1a1.75 1.75 0 0 1-1.75 1.75 1.75 1.75 0 0 1-1.75-1.75 1.75 1.75 0 0 1 1.75-1.75 1.75 1.75 0 0 1 1.75 1.75zm5.78-5.61c0-0.848-0.687-1.54-1.54-1.54h-12.3c-0.849 0-1.54 0.688-1.54 1.54v14.9c0 0.848 0.687 1.54 1.54 1.54h12.3c0.848 0 1.54-0.688 1.54-1.54zm-13.4-0.257c0.55 0 0.996 0.446 0.996 0.996s-0.446 0.996-0.996 0.996-0.996-0.446-0.996-0.996 0.446-0.996 0.996-0.996zm0 15.8c-0.55 0-0.996-0.446-0.996-0.996s0.446-0.996 0.996-0.996 0.996 0.446 0.996 0.996-0.446 0.996-0.996 0.996zm6.8-5.2 0.22-1.9c0.016-0.141-0.02-0.27-0.103-0.362-0.128-0.144-0.346-0.173-0.539-0.064l-3.01 1.7c-1.39-0.853-2.31-2.38-2.31-4.13 0-2.68 2.17-4.85 4.85-4.85 2.68 0 4.85 2.17 4.85 4.85-0 2.37-1.7 4.34-3.95 4.76zm4.73 5.2c-0.55 0-0.996-0.446-0.996-0.996s0.446-0.996 0.996-0.996 0.996 0.446 0.996 0.996-0.446 0.996-0.996 0.996zm0-13.8c-0.55 0-0.996-0.446-0.996-0.996s0.446-0.996 0.996-0.996 0.996 0.446 0.996 0.996-0.446 0.996-0.996 0.996z"/>
</svg>
